G04 #@! TF.GenerationSoftware,KiCad,Pcbnew,(5.1.5)-3*
G04 #@! TF.CreationDate,2020-01-25T21:01:36+03:00*
G04 #@! TF.ProjectId,Casio VX Debug Unit,43617369-6f20-4565-9820-446562756720,rev?*
G04 #@! TF.SameCoordinates,Original*
G04 #@! TF.FileFunction,Copper,L2,Bot*
G04 #@! TF.FilePolarity,Positive*
%FSLAX46Y46*%
G04 Gerber Fmt 4.6, Leading zero omitted, Abs format (unit mm)*
G04 Created by KiCad (PCBNEW (5.1.5)-3) date 2020-01-25 21:01:36*
%MOMM*%
%LPD*%
G04 APERTURE LIST*
%ADD10O,1.700000X1.700000*%
%ADD11R,1.700000X1.700000*%
%ADD12R,2.540000X0.600000*%
%ADD13C,0.600000*%
%ADD14C,0.800000*%
%ADD15C,0.250000*%
%ADD16C,0.150000*%
G04 APERTURE END LIST*
D10*
X172720000Y-91440000D03*
X175260000Y-91440000D03*
X177800000Y-91440000D03*
D11*
X180340000Y-91440000D03*
D10*
X195580000Y-91440000D03*
X193040000Y-91440000D03*
X190500000Y-91440000D03*
D11*
X187960000Y-91440000D03*
D10*
X198120000Y-101600000D03*
X198120000Y-104140000D03*
X198120000Y-106680000D03*
D11*
X198120000Y-109220000D03*
D10*
X198120000Y-111760000D03*
X198120000Y-114300000D03*
X198120000Y-116840000D03*
D11*
X198120000Y-119380000D03*
D10*
X195580000Y-88900000D03*
X193040000Y-88900000D03*
X190500000Y-88900000D03*
D11*
X187960000Y-88900000D03*
D10*
X175260000Y-109220000D03*
X175260000Y-106680000D03*
X175260000Y-104140000D03*
D11*
X175260000Y-101600000D03*
D10*
X175260000Y-124460000D03*
X175260000Y-121920000D03*
X175260000Y-119380000D03*
D11*
X175260000Y-116840000D03*
D10*
X177800000Y-109220000D03*
X177800000Y-106680000D03*
X177800000Y-104140000D03*
D11*
X177800000Y-101600000D03*
D10*
X177800000Y-124460000D03*
X177800000Y-121920000D03*
X177800000Y-119380000D03*
D11*
X177800000Y-116840000D03*
D10*
X195580000Y-101600000D03*
X195580000Y-104140000D03*
X195580000Y-106680000D03*
D11*
X195580000Y-109220000D03*
D10*
X195580000Y-111760000D03*
X195580000Y-114300000D03*
X195580000Y-116840000D03*
D11*
X195580000Y-119380000D03*
D12*
X217170000Y-119380000D03*
X217170000Y-118110000D03*
X217170000Y-116840000D03*
X217170000Y-115570000D03*
X217170000Y-114300000D03*
X217170000Y-113030000D03*
X217170000Y-111760000D03*
X217170000Y-110490000D03*
X217170000Y-109220000D03*
X217170000Y-107950000D03*
X217170000Y-106680000D03*
X217170000Y-105410000D03*
X217170000Y-104140000D03*
X217170000Y-102870000D03*
X217170000Y-101600000D03*
D10*
X203200000Y-88900000D03*
X205740000Y-88900000D03*
X208280000Y-88900000D03*
D11*
X210820000Y-88900000D03*
D10*
X203200000Y-91440000D03*
X205740000Y-91440000D03*
X208280000Y-91440000D03*
D11*
X210820000Y-91440000D03*
D10*
X172720000Y-88900000D03*
X175260000Y-88900000D03*
X177800000Y-88900000D03*
D11*
X180340000Y-88900000D03*
D13*
X202057000Y-102108000D03*
X208254600Y-97002600D03*
X212217000Y-110871000D03*
X211201000Y-112649000D03*
X214630000Y-108585000D03*
X215265000Y-106045000D03*
X207899000Y-80137000D03*
X206248000Y-80137000D03*
X206248000Y-81788000D03*
X206248000Y-83439000D03*
X209550000Y-83439000D03*
X209550000Y-81788000D03*
X209550000Y-80137000D03*
X207899000Y-83439000D03*
X217170000Y-120480000D03*
X211739999Y-125910001D03*
X176710001Y-125910001D03*
X175260000Y-112776000D03*
X173610000Y-101600000D03*
X171269999Y-99259999D03*
X171269999Y-90350001D03*
X188999006Y-99995508D03*
X190603498Y-101600000D03*
X176624490Y-99995508D03*
X185166000Y-88900000D03*
X182499000Y-88900000D03*
X198247000Y-88900000D03*
X201422000Y-88900000D03*
X204470000Y-92329000D03*
X207010000Y-92329000D03*
X213233000Y-98044000D03*
X214376000Y-93472000D03*
X199009000Y-102870000D03*
X202057000Y-107823000D03*
X210693000Y-114935000D03*
X210820000Y-117475000D03*
X185801000Y-91440000D03*
X198120000Y-91567000D03*
X200914000Y-97663000D03*
X186055000Y-121285000D03*
X186055000Y-122504200D03*
X207010000Y-120015000D03*
X215011000Y-110236000D03*
X214616923Y-104797277D03*
X214263513Y-103566687D03*
X207010000Y-94538800D03*
X197739000Y-93599000D03*
X218186000Y-121158000D03*
X218186000Y-123698000D03*
X218186000Y-129286000D03*
X218186000Y-126492000D03*
X215138000Y-129286000D03*
X211836000Y-129286000D03*
X208280000Y-129286000D03*
X204978000Y-129286000D03*
X201168000Y-129286000D03*
X197866000Y-129286000D03*
X194310000Y-129286000D03*
X190246000Y-129286000D03*
X186436000Y-129286000D03*
X182626000Y-129286000D03*
X167640000Y-129286000D03*
X171450000Y-129286000D03*
X175260000Y-129286000D03*
X179070000Y-129286000D03*
X167640000Y-78486000D03*
X167640000Y-81534000D03*
X167640000Y-84582000D03*
X167640000Y-87630000D03*
X167640000Y-91440000D03*
X167640000Y-95250000D03*
X167640000Y-99314000D03*
X167640000Y-103632000D03*
X167640000Y-107950000D03*
X167640000Y-112268000D03*
X167640000Y-116840000D03*
X167640000Y-121158000D03*
X167640000Y-125222000D03*
X171450000Y-125222000D03*
X171196000Y-121158000D03*
X171450000Y-116840000D03*
X171450000Y-112268000D03*
X171450000Y-107950000D03*
X171704000Y-103632000D03*
X171269999Y-95430001D03*
X171450000Y-84836000D03*
X171704000Y-78486000D03*
X175514000Y-78486000D03*
X179578000Y-78486000D03*
X183642000Y-78486000D03*
X187452000Y-78486000D03*
X190754000Y-78486000D03*
X193802000Y-78486000D03*
X196596000Y-78486000D03*
X199898000Y-78486000D03*
X203454000Y-78486000D03*
X206248000Y-78486000D03*
X209804000Y-78486000D03*
X211582000Y-78486000D03*
X215138000Y-78486000D03*
X218186000Y-78486000D03*
X218186000Y-81788000D03*
X218186000Y-84328000D03*
X218186000Y-87630000D03*
X218186000Y-91694000D03*
X218186000Y-94742000D03*
X218186000Y-97282000D03*
X218186000Y-100584000D03*
X215900000Y-100330000D03*
X215900000Y-97282000D03*
X216154000Y-94488000D03*
X216154000Y-91186000D03*
X214122000Y-88138000D03*
X210566000Y-85598000D03*
X205740000Y-85090000D03*
X204470000Y-83058000D03*
X201930000Y-85344000D03*
X197104000Y-85598000D03*
X193294000Y-85344000D03*
X189992000Y-85344000D03*
X185420000Y-85344000D03*
X180594000Y-85344000D03*
X176276000Y-84836000D03*
X183388000Y-94234000D03*
X182118000Y-98298000D03*
X178308000Y-98044000D03*
X175006000Y-98044000D03*
X205232000Y-105410000D03*
X207772000Y-107950000D03*
X191008000Y-104140000D03*
X185420000Y-104648000D03*
X185674000Y-100838000D03*
X178054000Y-112776000D03*
X183896000Y-115824000D03*
X184658000Y-108712000D03*
X190246000Y-108712000D03*
X187198000Y-112014000D03*
X191008000Y-116078000D03*
X192532000Y-111506000D03*
X181864000Y-112522000D03*
X202692000Y-113284000D03*
X213360000Y-83439000D03*
X211709000Y-83439000D03*
X211709000Y-81788000D03*
X211709000Y-80137000D03*
X213360000Y-80137000D03*
X215011000Y-80137000D03*
X215011000Y-81788000D03*
X214947500Y-83375500D03*
X217170000Y-85598000D03*
X217170000Y-100584000D03*
X205671336Y-96664864D03*
X213859700Y-102202900D03*
X190500000Y-100016500D03*
X185373400Y-97125900D03*
X211454800Y-108910100D03*
X213868000Y-110363000D03*
X213232000Y-107003800D03*
D14*
X210820000Y-88900000D02*
X201422000Y-88900000D01*
X175260000Y-124460000D02*
X175260000Y-112776000D01*
X173610000Y-101600000D02*
X175260000Y-101600000D01*
X171269999Y-99259999D02*
X173610000Y-101600000D01*
X171269999Y-90350001D02*
X171269999Y-95430001D01*
X172720000Y-88900000D02*
X171269999Y-90350001D01*
X217170000Y-120480000D02*
X217170000Y-119380000D01*
X211739999Y-125910001D02*
X211739999Y-125910001D01*
X176710001Y-125910001D02*
X176710001Y-125910001D01*
X175260000Y-124460000D02*
X176710001Y-125910001D01*
X195580000Y-101600000D02*
X195580000Y-119380000D01*
X193930000Y-101600000D02*
X195580000Y-101600000D01*
X190603498Y-101600000D02*
X193930000Y-101600000D01*
X188999006Y-99995508D02*
X188999006Y-99995508D01*
X176624490Y-99995508D02*
X176624490Y-99995508D01*
X175260000Y-101359998D02*
X176624490Y-99995508D01*
X175260000Y-101600000D02*
X175260000Y-101359998D01*
X217170000Y-120480000D02*
X217170000Y-120480000D01*
X211739999Y-125910001D02*
X217170000Y-120480000D01*
X176710001Y-125910001D02*
X211739999Y-125910001D01*
X175260000Y-112776000D02*
X175260000Y-101600000D01*
X173610000Y-101600000D02*
X173610000Y-101600000D01*
X171269999Y-99259999D02*
X171269999Y-99259999D01*
X171269999Y-90350001D02*
X171269999Y-90350001D01*
X188999006Y-99995508D02*
X190603498Y-101600000D01*
X190603498Y-101600000D02*
X190603498Y-101600000D01*
X176624490Y-99995508D02*
X188999006Y-99995508D01*
X185166000Y-88900000D02*
X182499000Y-88900000D01*
X182499000Y-88900000D02*
X172720000Y-88900000D01*
X198247000Y-88900000D02*
X185166000Y-88900000D01*
X201422000Y-88900000D02*
X198247000Y-88900000D01*
D15*
X214616923Y-104797277D02*
X214616923Y-103920097D01*
X214616923Y-103920097D02*
X214263513Y-103566687D01*
X213963514Y-103266688D02*
X214263513Y-103566687D01*
X208554599Y-97857773D02*
X213963514Y-103266688D01*
X208554599Y-97302599D02*
X208554599Y-97857773D01*
X208254600Y-97002600D02*
X208554599Y-97302599D01*
D14*
X171269999Y-95430001D02*
X171269999Y-99259999D01*
D15*
X214168996Y-105162524D02*
X205671336Y-96664864D01*
X217170000Y-105410000D02*
X214416472Y-105410000D01*
X214416472Y-105410000D02*
X214168996Y-105162524D01*
X213859700Y-102349700D02*
X213859700Y-102202900D01*
X215650000Y-104140000D02*
X213859700Y-102349700D01*
X217170000Y-104140000D02*
X215650000Y-104140000D01*
X176584900Y-105355100D02*
X177800000Y-104140000D01*
X215574700Y-118110000D02*
X214086350Y-119598350D01*
X210589300Y-123095400D02*
X196436600Y-123095400D01*
X177309100Y-123095400D02*
X176584900Y-122371200D01*
X217170000Y-118110000D02*
X215574700Y-118110000D01*
X176584900Y-122371200D02*
X176584900Y-105355100D01*
X196436600Y-123095400D02*
X177309100Y-123095400D01*
X214086350Y-119598350D02*
X210589300Y-123095400D01*
X217170000Y-116840000D02*
X215574700Y-116840000D01*
X215574700Y-116840000D02*
X210494700Y-121920000D01*
X210494700Y-121920000D02*
X207010000Y-121920000D01*
X207010000Y-121920000D02*
X177800000Y-121920000D01*
X177800000Y-116840000D02*
X178975300Y-116840000D01*
X217170000Y-115570000D02*
X215574700Y-115570000D01*
X215574700Y-115570000D02*
X210547700Y-120597000D01*
X210547700Y-120597000D02*
X182732300Y-120597000D01*
X182732300Y-120597000D02*
X178975300Y-116840000D01*
X217170000Y-114300000D02*
X215574700Y-114300000D01*
X215574700Y-114300000D02*
X210494700Y-119380000D01*
X210494700Y-119380000D02*
X198120000Y-119380000D01*
X215574700Y-113030000D02*
X211764700Y-116840000D01*
X211764700Y-116840000D02*
X198120000Y-116840000D01*
X217170000Y-113030000D02*
X215574700Y-113030000D01*
X217170000Y-111760000D02*
X215574700Y-111760000D01*
X215574700Y-111760000D02*
X213034700Y-114300000D01*
X213034700Y-114300000D02*
X198120000Y-114300000D01*
X217170000Y-110490000D02*
X215574700Y-110490000D01*
X215574700Y-110490000D02*
X214304700Y-111760000D01*
X214304700Y-111760000D02*
X198120000Y-111760000D01*
X198695500Y-100016500D02*
X190500000Y-100016500D01*
X201549000Y-102870000D02*
X198695500Y-100016500D01*
X207137000Y-102870000D02*
X201549000Y-102870000D01*
X217170000Y-109220000D02*
X213487000Y-109220000D01*
X213487000Y-109220000D02*
X207137000Y-102870000D01*
X184729900Y-98369900D02*
X177800000Y-91440000D01*
X205862800Y-98369900D02*
X184729900Y-98369900D01*
X217170000Y-107950000D02*
X215442900Y-107950000D01*
X215442900Y-107950000D02*
X205862800Y-98369900D01*
X207010000Y-98816702D02*
X207010000Y-98806000D01*
X217170000Y-106680000D02*
X214873298Y-106680000D01*
X214873298Y-106680000D02*
X207010000Y-98816702D01*
X185773399Y-96725901D02*
X185373400Y-97125900D01*
X204919199Y-96725901D02*
X188008099Y-96725901D01*
X207010000Y-98816702D02*
X204919199Y-96725901D01*
X188008099Y-96725901D02*
X185773399Y-96725901D01*
X215574700Y-102870000D02*
X208765500Y-96060800D01*
X208765500Y-96060800D02*
X198468800Y-96060800D01*
X198468800Y-96060800D02*
X194215300Y-91807300D01*
X217170000Y-102870000D02*
X215574700Y-102870000D01*
X193407300Y-91807300D02*
X193040000Y-91440000D01*
X194215300Y-91807300D02*
X193407300Y-91807300D01*
X180340000Y-91440000D02*
X181515300Y-91440000D01*
X217170000Y-101600000D02*
X215574700Y-101600000D01*
X215574700Y-101600000D02*
X209305000Y-95330300D01*
X209305000Y-95330300D02*
X202860200Y-95330300D01*
X202860200Y-95330300D02*
X197794600Y-90264700D01*
X197794600Y-90264700D02*
X182690600Y-90264700D01*
X182690600Y-90264700D02*
X181515300Y-91440000D01*
X198120000Y-106680000D02*
X209224700Y-106680000D01*
X209224700Y-106680000D02*
X211454800Y-108910100D01*
X199220000Y-109220000D02*
X200063001Y-110063001D01*
X213568001Y-110063001D02*
X213868000Y-110363000D01*
X200063001Y-110063001D02*
X213568001Y-110063001D01*
X198120000Y-109220000D02*
X199220000Y-109220000D01*
X213232000Y-107003800D02*
X205498700Y-99270500D01*
X180550500Y-99270500D02*
X172720000Y-91440000D01*
X205498700Y-99270500D02*
X180550500Y-99270500D01*
D16*
G36*
X218444000Y-101074306D02*
G01*
X218440000Y-101073912D01*
X217359138Y-101073912D01*
X217418681Y-101049249D01*
X217504668Y-100991794D01*
X217577794Y-100918668D01*
X217635249Y-100832681D01*
X217674824Y-100737137D01*
X217695000Y-100635708D01*
X217695000Y-100532292D01*
X217674824Y-100430863D01*
X217635249Y-100335319D01*
X217577794Y-100249332D01*
X217504668Y-100176206D01*
X217418681Y-100118751D01*
X217323137Y-100079176D01*
X217221708Y-100059000D01*
X217118292Y-100059000D01*
X217016863Y-100079176D01*
X216921319Y-100118751D01*
X216835332Y-100176206D01*
X216762206Y-100249332D01*
X216704751Y-100335319D01*
X216665176Y-100430863D01*
X216645000Y-100532292D01*
X216645000Y-100635708D01*
X216665176Y-100737137D01*
X216704751Y-100832681D01*
X216762206Y-100918668D01*
X216835332Y-100991794D01*
X216921319Y-101049249D01*
X216980862Y-101073912D01*
X215900000Y-101073912D01*
X215855892Y-101078256D01*
X215813480Y-101091122D01*
X215774392Y-101112015D01*
X215740132Y-101140132D01*
X215712015Y-101174392D01*
X215691122Y-101213480D01*
X215689267Y-101219593D01*
X209564654Y-95094981D01*
X209553685Y-95081615D01*
X209500390Y-95037878D01*
X209439587Y-95005378D01*
X209373612Y-94985365D01*
X209322189Y-94980300D01*
X209322188Y-94980300D01*
X209305000Y-94978607D01*
X209287812Y-94980300D01*
X203005175Y-94980300D01*
X199358996Y-91334122D01*
X202125000Y-91334122D01*
X202125000Y-91545878D01*
X202166312Y-91753566D01*
X202247348Y-91949203D01*
X202364993Y-92125272D01*
X202514728Y-92275007D01*
X202690797Y-92392652D01*
X202886434Y-92473688D01*
X203094122Y-92515000D01*
X203305878Y-92515000D01*
X203513566Y-92473688D01*
X203709203Y-92392652D01*
X203885272Y-92275007D01*
X204035007Y-92125272D01*
X204152652Y-91949203D01*
X204233688Y-91753566D01*
X204275000Y-91545878D01*
X204275000Y-91334122D01*
X204665000Y-91334122D01*
X204665000Y-91545878D01*
X204706312Y-91753566D01*
X204787348Y-91949203D01*
X204904993Y-92125272D01*
X205054728Y-92275007D01*
X205230797Y-92392652D01*
X205426434Y-92473688D01*
X205634122Y-92515000D01*
X205845878Y-92515000D01*
X206053566Y-92473688D01*
X206249203Y-92392652D01*
X206425272Y-92275007D01*
X206575007Y-92125272D01*
X206692652Y-91949203D01*
X206773688Y-91753566D01*
X206815000Y-91545878D01*
X206815000Y-91334122D01*
X207205000Y-91334122D01*
X207205000Y-91545878D01*
X207246312Y-91753566D01*
X207327348Y-91949203D01*
X207444993Y-92125272D01*
X207594728Y-92275007D01*
X207770797Y-92392652D01*
X207966434Y-92473688D01*
X208174122Y-92515000D01*
X208385878Y-92515000D01*
X208593566Y-92473688D01*
X208789203Y-92392652D01*
X208965272Y-92275007D01*
X209115007Y-92125272D01*
X209232652Y-91949203D01*
X209313688Y-91753566D01*
X209355000Y-91545878D01*
X209355000Y-91334122D01*
X209313688Y-91126434D01*
X209232652Y-90930797D01*
X209115007Y-90754728D01*
X208965272Y-90604993D01*
X208942834Y-90590000D01*
X209743912Y-90590000D01*
X209743912Y-92290000D01*
X209748256Y-92334108D01*
X209761122Y-92376520D01*
X209782015Y-92415608D01*
X209810132Y-92449868D01*
X209844392Y-92477985D01*
X209883480Y-92498878D01*
X209925892Y-92511744D01*
X209970000Y-92516088D01*
X211670000Y-92516088D01*
X211714108Y-92511744D01*
X211756520Y-92498878D01*
X211795608Y-92477985D01*
X211829868Y-92449868D01*
X211857985Y-92415608D01*
X211878878Y-92376520D01*
X211891744Y-92334108D01*
X211896088Y-92290000D01*
X211896088Y-90590000D01*
X211891744Y-90545892D01*
X211878878Y-90503480D01*
X211857985Y-90464392D01*
X211829868Y-90430132D01*
X211795608Y-90402015D01*
X211756520Y-90381122D01*
X211714108Y-90368256D01*
X211670000Y-90363912D01*
X209970000Y-90363912D01*
X209925892Y-90368256D01*
X209883480Y-90381122D01*
X209844392Y-90402015D01*
X209810132Y-90430132D01*
X209782015Y-90464392D01*
X209761122Y-90503480D01*
X209748256Y-90545892D01*
X209743912Y-90590000D01*
X208942834Y-90590000D01*
X208789203Y-90487348D01*
X208593566Y-90406312D01*
X208385878Y-90365000D01*
X208174122Y-90365000D01*
X207966434Y-90406312D01*
X207770797Y-90487348D01*
X207594728Y-90604993D01*
X207444993Y-90754728D01*
X207327348Y-90930797D01*
X207246312Y-91126434D01*
X207205000Y-91334122D01*
X206815000Y-91334122D01*
X206773688Y-91126434D01*
X206692652Y-90930797D01*
X206575007Y-90754728D01*
X206425272Y-90604993D01*
X206249203Y-90487348D01*
X206053566Y-90406312D01*
X205845878Y-90365000D01*
X205634122Y-90365000D01*
X205426434Y-90406312D01*
X205230797Y-90487348D01*
X205054728Y-90604993D01*
X204904993Y-90754728D01*
X204787348Y-90930797D01*
X204706312Y-91126434D01*
X204665000Y-91334122D01*
X204275000Y-91334122D01*
X204233688Y-91126434D01*
X204152652Y-90930797D01*
X204035007Y-90754728D01*
X203885272Y-90604993D01*
X203709203Y-90487348D01*
X203513566Y-90406312D01*
X203305878Y-90365000D01*
X203094122Y-90365000D01*
X202886434Y-90406312D01*
X202690797Y-90487348D01*
X202514728Y-90604993D01*
X202364993Y-90754728D01*
X202247348Y-90930797D01*
X202166312Y-91126434D01*
X202125000Y-91334122D01*
X199358996Y-91334122D01*
X198054254Y-90029381D01*
X198043285Y-90016015D01*
X197989990Y-89972278D01*
X197929187Y-89939778D01*
X197863212Y-89919765D01*
X197811789Y-89914700D01*
X197811788Y-89914700D01*
X197794600Y-89913007D01*
X197777412Y-89914700D01*
X196059029Y-89914700D01*
X196220870Y-89824615D01*
X196388939Y-89681821D01*
X196525921Y-89508982D01*
X196626552Y-89312741D01*
X196686965Y-89100638D01*
X202093035Y-89100638D01*
X202153448Y-89312741D01*
X202254079Y-89508982D01*
X202391061Y-89681821D01*
X202559130Y-89824615D01*
X202751828Y-89931876D01*
X202961749Y-89999483D01*
X202999363Y-90006964D01*
X203175000Y-89955954D01*
X203175000Y-88925000D01*
X203225000Y-88925000D01*
X203225000Y-89955954D01*
X203400637Y-90006964D01*
X203438251Y-89999483D01*
X203648172Y-89931876D01*
X203840870Y-89824615D01*
X204008939Y-89681821D01*
X204145921Y-89508982D01*
X204246552Y-89312741D01*
X204306965Y-89100638D01*
X204633035Y-89100638D01*
X204693448Y-89312741D01*
X204794079Y-89508982D01*
X204931061Y-89681821D01*
X205099130Y-89824615D01*
X205291828Y-89931876D01*
X205501749Y-89999483D01*
X205539363Y-90006964D01*
X205715000Y-89955954D01*
X205715000Y-88925000D01*
X205765000Y-88925000D01*
X205765000Y-89955954D01*
X205940637Y-90006964D01*
X205978251Y-89999483D01*
X206188172Y-89931876D01*
X206380870Y-89824615D01*
X206548939Y-89681821D01*
X206685921Y-89508982D01*
X206786552Y-89312741D01*
X206846965Y-89100638D01*
X207173035Y-89100638D01*
X207233448Y-89312741D01*
X207334079Y-89508982D01*
X207471061Y-89681821D01*
X207639130Y-89824615D01*
X207831828Y-89931876D01*
X208041749Y-89999483D01*
X208079363Y-90006964D01*
X208255000Y-89955954D01*
X208255000Y-88925000D01*
X208305000Y-88925000D01*
X208305000Y-89955954D01*
X208480637Y-90006964D01*
X208518251Y-89999483D01*
X208728172Y-89931876D01*
X208920870Y-89824615D01*
X209008692Y-89750000D01*
X209693669Y-89750000D01*
X209698979Y-89803910D01*
X209714703Y-89855747D01*
X209740239Y-89903521D01*
X209774604Y-89945396D01*
X209816479Y-89979761D01*
X209864253Y-90005297D01*
X209916090Y-90021021D01*
X209970000Y-90026331D01*
X210726250Y-90025000D01*
X210795000Y-89956250D01*
X210795000Y-88925000D01*
X210845000Y-88925000D01*
X210845000Y-89956250D01*
X210913750Y-90025000D01*
X211670000Y-90026331D01*
X211723910Y-90021021D01*
X211775747Y-90005297D01*
X211823521Y-89979761D01*
X211865396Y-89945396D01*
X211899761Y-89903521D01*
X211925297Y-89855747D01*
X211941021Y-89803910D01*
X211946331Y-89750000D01*
X211945000Y-88993750D01*
X211876250Y-88925000D01*
X210845000Y-88925000D01*
X210795000Y-88925000D01*
X209763750Y-88925000D01*
X209695000Y-88993750D01*
X209693669Y-89750000D01*
X209008692Y-89750000D01*
X209088939Y-89681821D01*
X209225921Y-89508982D01*
X209326552Y-89312741D01*
X209386965Y-89100638D01*
X209335973Y-88925000D01*
X208305000Y-88925000D01*
X208255000Y-88925000D01*
X207224027Y-88925000D01*
X207173035Y-89100638D01*
X206846965Y-89100638D01*
X206795973Y-88925000D01*
X205765000Y-88925000D01*
X205715000Y-88925000D01*
X204684027Y-88925000D01*
X204633035Y-89100638D01*
X204306965Y-89100638D01*
X204255973Y-88925000D01*
X203225000Y-88925000D01*
X203175000Y-88925000D01*
X202144027Y-88925000D01*
X202093035Y-89100638D01*
X196686965Y-89100638D01*
X196635973Y-88925000D01*
X195605000Y-88925000D01*
X195605000Y-88945000D01*
X195555000Y-88945000D01*
X195555000Y-88925000D01*
X194524027Y-88925000D01*
X194473035Y-89100638D01*
X194533448Y-89312741D01*
X194634079Y-89508982D01*
X194771061Y-89681821D01*
X194939130Y-89824615D01*
X195100971Y-89914700D01*
X193519029Y-89914700D01*
X193680870Y-89824615D01*
X193848939Y-89681821D01*
X193985921Y-89508982D01*
X194086552Y-89312741D01*
X194146965Y-89100638D01*
X194095973Y-88925000D01*
X193065000Y-88925000D01*
X193065000Y-88945000D01*
X193015000Y-88945000D01*
X193015000Y-88925000D01*
X191984027Y-88925000D01*
X191933035Y-89100638D01*
X191993448Y-89312741D01*
X192094079Y-89508982D01*
X192231061Y-89681821D01*
X192399130Y-89824615D01*
X192560971Y-89914700D01*
X190979029Y-89914700D01*
X191140870Y-89824615D01*
X191308939Y-89681821D01*
X191445921Y-89508982D01*
X191546552Y-89312741D01*
X191606965Y-89100638D01*
X191555973Y-88925000D01*
X190525000Y-88925000D01*
X190525000Y-88945000D01*
X190475000Y-88945000D01*
X190475000Y-88925000D01*
X189444027Y-88925000D01*
X189393035Y-89100638D01*
X189453448Y-89312741D01*
X189554079Y-89508982D01*
X189691061Y-89681821D01*
X189859130Y-89824615D01*
X190020971Y-89914700D01*
X189030587Y-89914700D01*
X189039761Y-89903521D01*
X189065297Y-89855747D01*
X189081021Y-89803910D01*
X189086331Y-89750000D01*
X189085000Y-88993750D01*
X189016250Y-88925000D01*
X187985000Y-88925000D01*
X187985000Y-88945000D01*
X187935000Y-88945000D01*
X187935000Y-88925000D01*
X186903750Y-88925000D01*
X186835000Y-88993750D01*
X186833669Y-89750000D01*
X186838979Y-89803910D01*
X186854703Y-89855747D01*
X186880239Y-89903521D01*
X186889413Y-89914700D01*
X182707788Y-89914700D01*
X182690599Y-89913007D01*
X182621987Y-89919765D01*
X182601974Y-89925836D01*
X182556013Y-89939778D01*
X182495210Y-89972278D01*
X182441915Y-90016015D01*
X182430955Y-90029370D01*
X181416088Y-91044239D01*
X181416088Y-90590000D01*
X181411744Y-90545892D01*
X181398878Y-90503480D01*
X181377985Y-90464392D01*
X181349868Y-90430132D01*
X181315608Y-90402015D01*
X181276520Y-90381122D01*
X181234108Y-90368256D01*
X181190000Y-90363912D01*
X179490000Y-90363912D01*
X179445892Y-90368256D01*
X179403480Y-90381122D01*
X179364392Y-90402015D01*
X179330132Y-90430132D01*
X179302015Y-90464392D01*
X179281122Y-90503480D01*
X179268256Y-90545892D01*
X179263912Y-90590000D01*
X179263912Y-92290000D01*
X179268256Y-92334108D01*
X179281122Y-92376520D01*
X179302015Y-92415608D01*
X179330132Y-92449868D01*
X179364392Y-92477985D01*
X179403480Y-92498878D01*
X179445892Y-92511744D01*
X179490000Y-92516088D01*
X181190000Y-92516088D01*
X181234108Y-92511744D01*
X181276520Y-92498878D01*
X181315608Y-92477985D01*
X181349868Y-92449868D01*
X181377985Y-92415608D01*
X181398878Y-92376520D01*
X181411744Y-92334108D01*
X181416088Y-92290000D01*
X181416088Y-91790000D01*
X181498112Y-91790000D01*
X181515300Y-91791693D01*
X181532488Y-91790000D01*
X181532489Y-91790000D01*
X181583912Y-91784935D01*
X181649887Y-91764922D01*
X181710690Y-91732422D01*
X181763985Y-91688685D01*
X181774953Y-91675320D01*
X182835575Y-90614700D01*
X186883912Y-90614700D01*
X186883912Y-92290000D01*
X186888256Y-92334108D01*
X186901122Y-92376520D01*
X186922015Y-92415608D01*
X186950132Y-92449868D01*
X186984392Y-92477985D01*
X187023480Y-92498878D01*
X187065892Y-92511744D01*
X187110000Y-92516088D01*
X188810000Y-92516088D01*
X188854108Y-92511744D01*
X188896520Y-92498878D01*
X188935608Y-92477985D01*
X188969868Y-92449868D01*
X188997985Y-92415608D01*
X189018878Y-92376520D01*
X189031744Y-92334108D01*
X189036088Y-92290000D01*
X189036088Y-90614700D01*
X189805021Y-90614700D01*
X189664993Y-90754728D01*
X189547348Y-90930797D01*
X189466312Y-91126434D01*
X189425000Y-91334122D01*
X189425000Y-91545878D01*
X189466312Y-91753566D01*
X189547348Y-91949203D01*
X189664993Y-92125272D01*
X189814728Y-92275007D01*
X189990797Y-92392652D01*
X190186434Y-92473688D01*
X190394122Y-92515000D01*
X190605878Y-92515000D01*
X190813566Y-92473688D01*
X191009203Y-92392652D01*
X191185272Y-92275007D01*
X191335007Y-92125272D01*
X191452652Y-91949203D01*
X191533688Y-91753566D01*
X191575000Y-91545878D01*
X191575000Y-91334122D01*
X191533688Y-91126434D01*
X191452652Y-90930797D01*
X191335007Y-90754728D01*
X191194979Y-90614700D01*
X192345021Y-90614700D01*
X192204993Y-90754728D01*
X192087348Y-90930797D01*
X192006312Y-91126434D01*
X191965000Y-91334122D01*
X191965000Y-91545878D01*
X192006312Y-91753566D01*
X192087348Y-91949203D01*
X192204993Y-92125272D01*
X192354728Y-92275007D01*
X192530797Y-92392652D01*
X192726434Y-92473688D01*
X192934122Y-92515000D01*
X193145878Y-92515000D01*
X193353566Y-92473688D01*
X193549203Y-92392652D01*
X193725272Y-92275007D01*
X193842979Y-92157300D01*
X194070327Y-92157300D01*
X198209156Y-96296131D01*
X198220115Y-96309485D01*
X198273410Y-96353222D01*
X198315839Y-96375901D01*
X185790587Y-96375901D01*
X185773398Y-96374208D01*
X185756210Y-96375901D01*
X185704787Y-96380966D01*
X185638812Y-96400979D01*
X185578009Y-96433479D01*
X185524714Y-96477216D01*
X185513750Y-96490576D01*
X185403426Y-96600900D01*
X185321692Y-96600900D01*
X185220263Y-96621076D01*
X185124719Y-96660651D01*
X185038732Y-96718106D01*
X184965606Y-96791232D01*
X184908151Y-96877219D01*
X184868576Y-96972763D01*
X184848400Y-97074192D01*
X184848400Y-97177608D01*
X184868576Y-97279037D01*
X184908151Y-97374581D01*
X184965606Y-97460568D01*
X185038732Y-97533694D01*
X185124719Y-97591149D01*
X185220263Y-97630724D01*
X185321692Y-97650900D01*
X185425108Y-97650900D01*
X185526537Y-97630724D01*
X185622081Y-97591149D01*
X185708068Y-97533694D01*
X185781194Y-97460568D01*
X185838649Y-97374581D01*
X185878224Y-97279037D01*
X185898400Y-97177608D01*
X185898400Y-97095874D01*
X185918373Y-97075901D01*
X204774226Y-97075901D01*
X205718224Y-98019900D01*
X184874875Y-98019900D01*
X178767743Y-91912770D01*
X178833688Y-91753566D01*
X178875000Y-91545878D01*
X178875000Y-91334122D01*
X178833688Y-91126434D01*
X178752652Y-90930797D01*
X178635007Y-90754728D01*
X178485272Y-90604993D01*
X178309203Y-90487348D01*
X178113566Y-90406312D01*
X177905878Y-90365000D01*
X177694122Y-90365000D01*
X177486434Y-90406312D01*
X177290797Y-90487348D01*
X177114728Y-90604993D01*
X176964993Y-90754728D01*
X176847348Y-90930797D01*
X176766312Y-91126434D01*
X176725000Y-91334122D01*
X176725000Y-91545878D01*
X176766312Y-91753566D01*
X176847348Y-91949203D01*
X176964993Y-92125272D01*
X177114728Y-92275007D01*
X177290797Y-92392652D01*
X177486434Y-92473688D01*
X177694122Y-92515000D01*
X177905878Y-92515000D01*
X178113566Y-92473688D01*
X178272770Y-92407743D01*
X184470256Y-98605231D01*
X184481215Y-98618585D01*
X184534510Y-98662322D01*
X184595313Y-98694822D01*
X184661288Y-98714835D01*
X184729900Y-98721594D01*
X184747096Y-98719900D01*
X205717827Y-98719900D01*
X215183256Y-108185331D01*
X215194215Y-108198685D01*
X215247510Y-108242422D01*
X215308313Y-108274922D01*
X215374288Y-108294935D01*
X215425711Y-108300000D01*
X215425713Y-108300000D01*
X215442899Y-108301693D01*
X215460085Y-108300000D01*
X215680043Y-108300000D01*
X215691122Y-108336520D01*
X215712015Y-108375608D01*
X215740132Y-108409868D01*
X215774392Y-108437985D01*
X215813480Y-108458878D01*
X215855892Y-108471744D01*
X215900000Y-108476088D01*
X218440000Y-108476088D01*
X218444001Y-108475694D01*
X218444001Y-108694306D01*
X218440000Y-108693912D01*
X215900000Y-108693912D01*
X215855892Y-108698256D01*
X215813480Y-108711122D01*
X215774392Y-108732015D01*
X215740132Y-108760132D01*
X215712015Y-108794392D01*
X215691122Y-108833480D01*
X215680043Y-108870000D01*
X213631975Y-108870000D01*
X207396654Y-102634681D01*
X207385685Y-102621315D01*
X207332390Y-102577578D01*
X207271587Y-102545078D01*
X207205612Y-102525065D01*
X207154189Y-102520000D01*
X207154188Y-102520000D01*
X207137000Y-102518307D01*
X207119812Y-102520000D01*
X201693975Y-102520000D01*
X198955153Y-99781180D01*
X198944185Y-99767815D01*
X198890890Y-99724078D01*
X198830087Y-99691578D01*
X198764112Y-99671565D01*
X198712689Y-99666500D01*
X198712688Y-99666500D01*
X198695500Y-99664807D01*
X198678312Y-99666500D01*
X190892462Y-99666500D01*
X190846462Y-99620500D01*
X205353727Y-99620500D01*
X212707000Y-106973775D01*
X212707000Y-107055508D01*
X212727176Y-107156937D01*
X212766751Y-107252481D01*
X212824206Y-107338468D01*
X212897332Y-107411594D01*
X212983319Y-107469049D01*
X213078863Y-107508624D01*
X213180292Y-107528800D01*
X213283708Y-107528800D01*
X213385137Y-107508624D01*
X213480681Y-107469049D01*
X213566668Y-107411594D01*
X213639794Y-107338468D01*
X213697249Y-107252481D01*
X213736824Y-107156937D01*
X213757000Y-107055508D01*
X213757000Y-106952092D01*
X213736824Y-106850663D01*
X213697249Y-106755119D01*
X213639794Y-106669132D01*
X213566668Y-106596006D01*
X213480681Y-106538551D01*
X213385137Y-106498976D01*
X213283708Y-106478800D01*
X213201975Y-106478800D01*
X205758354Y-99035181D01*
X205747385Y-99021815D01*
X205694090Y-98978078D01*
X205633287Y-98945578D01*
X205567312Y-98925565D01*
X205515889Y-98920500D01*
X205515888Y-98920500D01*
X205498700Y-98918807D01*
X205481512Y-98920500D01*
X180695475Y-98920500D01*
X173687743Y-91912770D01*
X173753688Y-91753566D01*
X173795000Y-91545878D01*
X173795000Y-91334122D01*
X174185000Y-91334122D01*
X174185000Y-91545878D01*
X174226312Y-91753566D01*
X174307348Y-91949203D01*
X174424993Y-92125272D01*
X174574728Y-92275007D01*
X174750797Y-92392652D01*
X174946434Y-92473688D01*
X175154122Y-92515000D01*
X175365878Y-92515000D01*
X175573566Y-92473688D01*
X175769203Y-92392652D01*
X175945272Y-92275007D01*
X176095007Y-92125272D01*
X176212652Y-91949203D01*
X176293688Y-91753566D01*
X176335000Y-91545878D01*
X176335000Y-91334122D01*
X176293688Y-91126434D01*
X176212652Y-90930797D01*
X176095007Y-90754728D01*
X175945272Y-90604993D01*
X175769203Y-90487348D01*
X175573566Y-90406312D01*
X175365878Y-90365000D01*
X175154122Y-90365000D01*
X174946434Y-90406312D01*
X174750797Y-90487348D01*
X174574728Y-90604993D01*
X174424993Y-90754728D01*
X174307348Y-90930797D01*
X174226312Y-91126434D01*
X174185000Y-91334122D01*
X173795000Y-91334122D01*
X173753688Y-91126434D01*
X173672652Y-90930797D01*
X173555007Y-90754728D01*
X173405272Y-90604993D01*
X173229203Y-90487348D01*
X173033566Y-90406312D01*
X172825878Y-90365000D01*
X172614122Y-90365000D01*
X172406434Y-90406312D01*
X172210797Y-90487348D01*
X172034728Y-90604993D01*
X171884993Y-90754728D01*
X171767348Y-90930797D01*
X171686312Y-91126434D01*
X171645000Y-91334122D01*
X171645000Y-91545878D01*
X171686312Y-91753566D01*
X171767348Y-91949203D01*
X171884993Y-92125272D01*
X172034728Y-92275007D01*
X172210797Y-92392652D01*
X172406434Y-92473688D01*
X172614122Y-92515000D01*
X172825878Y-92515000D01*
X173033566Y-92473688D01*
X173192770Y-92407743D01*
X180290856Y-99505831D01*
X180301815Y-99519185D01*
X180355110Y-99562922D01*
X180415913Y-99595422D01*
X180481888Y-99615435D01*
X180533311Y-99620500D01*
X180533313Y-99620500D01*
X180550499Y-99622193D01*
X180567685Y-99620500D01*
X190153538Y-99620500D01*
X190092206Y-99681832D01*
X190034751Y-99767819D01*
X189995176Y-99863363D01*
X189975000Y-99964792D01*
X189975000Y-100068208D01*
X189995176Y-100169637D01*
X190034751Y-100265181D01*
X190092206Y-100351168D01*
X190165332Y-100424294D01*
X190251319Y-100481749D01*
X190346863Y-100521324D01*
X190448292Y-100541500D01*
X190551708Y-100541500D01*
X190653137Y-100521324D01*
X190748681Y-100481749D01*
X190834668Y-100424294D01*
X190892462Y-100366500D01*
X198550527Y-100366500D01*
X201289356Y-103105330D01*
X201300315Y-103118685D01*
X201353610Y-103162422D01*
X201414413Y-103194922D01*
X201480388Y-103214935D01*
X201531811Y-103220000D01*
X201531813Y-103220000D01*
X201548999Y-103221693D01*
X201566185Y-103220000D01*
X206992027Y-103220000D01*
X213227356Y-109455331D01*
X213238315Y-109468685D01*
X213291610Y-109512422D01*
X213352413Y-109544922D01*
X213398374Y-109558864D01*
X213418387Y-109564935D01*
X213486999Y-109571693D01*
X213504188Y-109570000D01*
X215680043Y-109570000D01*
X215691122Y-109606520D01*
X215712015Y-109645608D01*
X215740132Y-109679868D01*
X215774392Y-109707985D01*
X215813480Y-109728878D01*
X215855892Y-109741744D01*
X215900000Y-109746088D01*
X218440000Y-109746088D01*
X218444001Y-109745694D01*
X218444001Y-109964306D01*
X218440000Y-109963912D01*
X215900000Y-109963912D01*
X215855892Y-109968256D01*
X215813480Y-109981122D01*
X215774392Y-110002015D01*
X215740132Y-110030132D01*
X215712015Y-110064392D01*
X215691122Y-110103480D01*
X215680043Y-110140000D01*
X215591888Y-110140000D01*
X215574699Y-110138307D01*
X215506087Y-110145065D01*
X215486074Y-110151136D01*
X215440113Y-110165078D01*
X215379310Y-110197578D01*
X215326015Y-110241315D01*
X215315055Y-110254670D01*
X214159727Y-111410000D01*
X199138596Y-111410000D01*
X199072652Y-111250797D01*
X198955007Y-111074728D01*
X198805272Y-110924993D01*
X198629203Y-110807348D01*
X198433566Y-110726312D01*
X198225878Y-110685000D01*
X198014122Y-110685000D01*
X197806434Y-110726312D01*
X197610797Y-110807348D01*
X197434728Y-110924993D01*
X197284993Y-111074728D01*
X197167348Y-111250797D01*
X197086312Y-111446434D01*
X197045000Y-111654122D01*
X197045000Y-111865878D01*
X197086312Y-112073566D01*
X197167348Y-112269203D01*
X197284993Y-112445272D01*
X197434728Y-112595007D01*
X197610797Y-112712652D01*
X197806434Y-112793688D01*
X198014122Y-112835000D01*
X198225878Y-112835000D01*
X198433566Y-112793688D01*
X198629203Y-112712652D01*
X198805272Y-112595007D01*
X198955007Y-112445272D01*
X199072652Y-112269203D01*
X199138596Y-112110000D01*
X214287512Y-112110000D01*
X214304700Y-112111693D01*
X214321888Y-112110000D01*
X214321889Y-112110000D01*
X214373312Y-112104935D01*
X214439287Y-112084922D01*
X214500090Y-112052422D01*
X214553385Y-112008685D01*
X214564353Y-111995320D01*
X215689268Y-110870407D01*
X215691122Y-110876520D01*
X215712015Y-110915608D01*
X215740132Y-110949868D01*
X215774392Y-110977985D01*
X215813480Y-110998878D01*
X215855892Y-111011744D01*
X215900000Y-111016088D01*
X218440000Y-111016088D01*
X218444001Y-111015694D01*
X218444001Y-111234306D01*
X218440000Y-111233912D01*
X215900000Y-111233912D01*
X215855892Y-111238256D01*
X215813480Y-111251122D01*
X215774392Y-111272015D01*
X215740132Y-111300132D01*
X215712015Y-111334392D01*
X215691122Y-111373480D01*
X215680043Y-111410000D01*
X215591885Y-111410000D01*
X215574699Y-111408307D01*
X215557513Y-111410000D01*
X215557511Y-111410000D01*
X215506088Y-111415065D01*
X215440113Y-111435078D01*
X215379310Y-111467578D01*
X215326015Y-111511315D01*
X215315057Y-111524668D01*
X212889727Y-113950000D01*
X199138596Y-113950000D01*
X199072652Y-113790797D01*
X198955007Y-113614728D01*
X198805272Y-113464993D01*
X198629203Y-113347348D01*
X198433566Y-113266312D01*
X198225878Y-113225000D01*
X198014122Y-113225000D01*
X197806434Y-113266312D01*
X197610797Y-113347348D01*
X197434728Y-113464993D01*
X197284993Y-113614728D01*
X197167348Y-113790797D01*
X197086312Y-113986434D01*
X197045000Y-114194122D01*
X197045000Y-114405878D01*
X197086312Y-114613566D01*
X197167348Y-114809203D01*
X197284993Y-114985272D01*
X197434728Y-115135007D01*
X197610797Y-115252652D01*
X197806434Y-115333688D01*
X198014122Y-115375000D01*
X198225878Y-115375000D01*
X198433566Y-115333688D01*
X198629203Y-115252652D01*
X198805272Y-115135007D01*
X198955007Y-114985272D01*
X199072652Y-114809203D01*
X199138596Y-114650000D01*
X213017512Y-114650000D01*
X213034700Y-114651693D01*
X213051888Y-114650000D01*
X213051889Y-114650000D01*
X213103312Y-114644935D01*
X213169287Y-114624922D01*
X213230090Y-114592422D01*
X213283385Y-114548685D01*
X213294353Y-114535320D01*
X215689268Y-112140407D01*
X215691122Y-112146520D01*
X215712015Y-112185608D01*
X215740132Y-112219868D01*
X215774392Y-112247985D01*
X215813480Y-112268878D01*
X215855892Y-112281744D01*
X215900000Y-112286088D01*
X218440000Y-112286088D01*
X218444001Y-112285694D01*
X218444001Y-112504306D01*
X218440000Y-112503912D01*
X215900000Y-112503912D01*
X215855892Y-112508256D01*
X215813480Y-112521122D01*
X215774392Y-112542015D01*
X215740132Y-112570132D01*
X215712015Y-112604392D01*
X215691122Y-112643480D01*
X215680043Y-112680000D01*
X215591889Y-112680000D01*
X215574700Y-112678307D01*
X215557511Y-112680000D01*
X215506088Y-112685065D01*
X215440113Y-112705078D01*
X215379310Y-112737578D01*
X215326015Y-112781315D01*
X215315056Y-112794669D01*
X211619727Y-116490000D01*
X199138596Y-116490000D01*
X199072652Y-116330797D01*
X198955007Y-116154728D01*
X198805272Y-116004993D01*
X198629203Y-115887348D01*
X198433566Y-115806312D01*
X198225878Y-115765000D01*
X198014122Y-115765000D01*
X197806434Y-115806312D01*
X197610797Y-115887348D01*
X197434728Y-116004993D01*
X197284993Y-116154728D01*
X197167348Y-116330797D01*
X197086312Y-116526434D01*
X197045000Y-116734122D01*
X197045000Y-116945878D01*
X197086312Y-117153566D01*
X197167348Y-117349203D01*
X197284993Y-117525272D01*
X197434728Y-117675007D01*
X197610797Y-117792652D01*
X197806434Y-117873688D01*
X198014122Y-117915000D01*
X198225878Y-117915000D01*
X198433566Y-117873688D01*
X198629203Y-117792652D01*
X198805272Y-117675007D01*
X198955007Y-117525272D01*
X199072652Y-117349203D01*
X199138596Y-117190000D01*
X211747512Y-117190000D01*
X211764700Y-117191693D01*
X211781888Y-117190000D01*
X211781889Y-117190000D01*
X211833312Y-117184935D01*
X211899287Y-117164922D01*
X211960090Y-117132422D01*
X212013385Y-117088685D01*
X212024354Y-117075320D01*
X215689268Y-113410407D01*
X215691122Y-113416520D01*
X215712015Y-113455608D01*
X215740132Y-113489868D01*
X215774392Y-113517985D01*
X215813480Y-113538878D01*
X215855892Y-113551744D01*
X215900000Y-113556088D01*
X218440000Y-113556088D01*
X218444001Y-113555694D01*
X218444001Y-113774306D01*
X218440000Y-113773912D01*
X215900000Y-113773912D01*
X215855892Y-113778256D01*
X215813480Y-113791122D01*
X215774392Y-113812015D01*
X215740132Y-113840132D01*
X215712015Y-113874392D01*
X215691122Y-113913480D01*
X215680043Y-113950000D01*
X215591889Y-113950000D01*
X215574700Y-113948307D01*
X215506088Y-113955065D01*
X215440112Y-113975078D01*
X215418933Y-113986399D01*
X215379310Y-114007578D01*
X215326015Y-114051315D01*
X215315051Y-114064675D01*
X210349727Y-119030000D01*
X199196088Y-119030000D01*
X199196088Y-118530000D01*
X199191744Y-118485892D01*
X199178878Y-118443480D01*
X199157985Y-118404392D01*
X199129868Y-118370132D01*
X199095608Y-118342015D01*
X199056520Y-118321122D01*
X199014108Y-118308256D01*
X198970000Y-118303912D01*
X197270000Y-118303912D01*
X197225892Y-118308256D01*
X197183480Y-118321122D01*
X197144392Y-118342015D01*
X197110132Y-118370132D01*
X197082015Y-118404392D01*
X197061122Y-118443480D01*
X197048256Y-118485892D01*
X197043912Y-118530000D01*
X197043912Y-120230000D01*
X197045586Y-120247000D01*
X196704657Y-120247000D01*
X196706331Y-120230000D01*
X196705000Y-119473750D01*
X196636250Y-119405000D01*
X195605000Y-119405000D01*
X195605000Y-119425000D01*
X195555000Y-119425000D01*
X195555000Y-119405000D01*
X194523750Y-119405000D01*
X194455000Y-119473750D01*
X194453669Y-120230000D01*
X194455343Y-120247000D01*
X182877275Y-120247000D01*
X181160275Y-118530000D01*
X194453669Y-118530000D01*
X194455000Y-119286250D01*
X194523750Y-119355000D01*
X195555000Y-119355000D01*
X195555000Y-118323750D01*
X195605000Y-118323750D01*
X195605000Y-119355000D01*
X196636250Y-119355000D01*
X196705000Y-119286250D01*
X196706331Y-118530000D01*
X196701021Y-118476090D01*
X196685297Y-118424253D01*
X196659761Y-118376479D01*
X196625396Y-118334604D01*
X196583521Y-118300239D01*
X196535747Y-118274703D01*
X196483910Y-118258979D01*
X196430000Y-118253669D01*
X195673750Y-118255000D01*
X195605000Y-118323750D01*
X195555000Y-118323750D01*
X195486250Y-118255000D01*
X194730000Y-118253669D01*
X194676090Y-118258979D01*
X194624253Y-118274703D01*
X194576479Y-118300239D01*
X194534604Y-118334604D01*
X194500239Y-118376479D01*
X194474703Y-118424253D01*
X194458979Y-118476090D01*
X194453669Y-118530000D01*
X181160275Y-118530000D01*
X179670912Y-117040637D01*
X194473036Y-117040637D01*
X194480517Y-117078251D01*
X194548124Y-117288172D01*
X194655385Y-117480870D01*
X194798179Y-117648939D01*
X194971018Y-117785921D01*
X195167259Y-117886552D01*
X195379362Y-117946965D01*
X195555000Y-117895973D01*
X195555000Y-116865000D01*
X195605000Y-116865000D01*
X195605000Y-117895973D01*
X195780638Y-117946965D01*
X195992741Y-117886552D01*
X196188982Y-117785921D01*
X196361821Y-117648939D01*
X196504615Y-117480870D01*
X196611876Y-117288172D01*
X196679483Y-117078251D01*
X196686964Y-117040637D01*
X196635954Y-116865000D01*
X195605000Y-116865000D01*
X195555000Y-116865000D01*
X194524046Y-116865000D01*
X194473036Y-117040637D01*
X179670912Y-117040637D01*
X179269638Y-116639363D01*
X194473036Y-116639363D01*
X194524046Y-116815000D01*
X195555000Y-116815000D01*
X195555000Y-115784027D01*
X195605000Y-115784027D01*
X195605000Y-116815000D01*
X196635954Y-116815000D01*
X196686964Y-116639363D01*
X196679483Y-116601749D01*
X196611876Y-116391828D01*
X196504615Y-116199130D01*
X196361821Y-116031061D01*
X196188982Y-115894079D01*
X195992741Y-115793448D01*
X195780638Y-115733035D01*
X195605000Y-115784027D01*
X195555000Y-115784027D01*
X195379362Y-115733035D01*
X195167259Y-115793448D01*
X194971018Y-115894079D01*
X194798179Y-116031061D01*
X194655385Y-116199130D01*
X194548124Y-116391828D01*
X194480517Y-116601749D01*
X194473036Y-116639363D01*
X179269638Y-116639363D01*
X179234954Y-116604680D01*
X179223985Y-116591315D01*
X179170690Y-116547578D01*
X179109887Y-116515078D01*
X179043912Y-116495065D01*
X178992489Y-116490000D01*
X178992488Y-116490000D01*
X178975300Y-116488307D01*
X178958112Y-116490000D01*
X178876088Y-116490000D01*
X178876088Y-115990000D01*
X178871744Y-115945892D01*
X178858878Y-115903480D01*
X178837985Y-115864392D01*
X178809868Y-115830132D01*
X178775608Y-115802015D01*
X178736520Y-115781122D01*
X178694108Y-115768256D01*
X178650000Y-115763912D01*
X176950000Y-115763912D01*
X176934900Y-115765399D01*
X176934900Y-114500637D01*
X194473036Y-114500637D01*
X194480517Y-114538251D01*
X194548124Y-114748172D01*
X194655385Y-114940870D01*
X194798179Y-115108939D01*
X194971018Y-115245921D01*
X195167259Y-115346552D01*
X195379362Y-115406965D01*
X195555000Y-115355973D01*
X195555000Y-114325000D01*
X195605000Y-114325000D01*
X195605000Y-115355973D01*
X195780638Y-115406965D01*
X195992741Y-115346552D01*
X196188982Y-115245921D01*
X196361821Y-115108939D01*
X196504615Y-114940870D01*
X196611876Y-114748172D01*
X196679483Y-114538251D01*
X196686964Y-114500637D01*
X196635954Y-114325000D01*
X195605000Y-114325000D01*
X195555000Y-114325000D01*
X194524046Y-114325000D01*
X194473036Y-114500637D01*
X176934900Y-114500637D01*
X176934900Y-114099363D01*
X194473036Y-114099363D01*
X194524046Y-114275000D01*
X195555000Y-114275000D01*
X195555000Y-113244027D01*
X195605000Y-113244027D01*
X195605000Y-114275000D01*
X196635954Y-114275000D01*
X196686964Y-114099363D01*
X196679483Y-114061749D01*
X196611876Y-113851828D01*
X196504615Y-113659130D01*
X196361821Y-113491061D01*
X196188982Y-113354079D01*
X195992741Y-113253448D01*
X195780638Y-113193035D01*
X195605000Y-113244027D01*
X195555000Y-113244027D01*
X195379362Y-113193035D01*
X195167259Y-113253448D01*
X194971018Y-113354079D01*
X194798179Y-113491061D01*
X194655385Y-113659130D01*
X194548124Y-113851828D01*
X194480517Y-114061749D01*
X194473036Y-114099363D01*
X176934900Y-114099363D01*
X176934900Y-111960637D01*
X194473036Y-111960637D01*
X194480517Y-111998251D01*
X194548124Y-112208172D01*
X194655385Y-112400870D01*
X194798179Y-112568939D01*
X194971018Y-112705921D01*
X195167259Y-112806552D01*
X195379362Y-112866965D01*
X195555000Y-112815973D01*
X195555000Y-111785000D01*
X195605000Y-111785000D01*
X195605000Y-112815973D01*
X195780638Y-112866965D01*
X195992741Y-112806552D01*
X196188982Y-112705921D01*
X196361821Y-112568939D01*
X196504615Y-112400870D01*
X196611876Y-112208172D01*
X196679483Y-111998251D01*
X196686964Y-111960637D01*
X196635954Y-111785000D01*
X195605000Y-111785000D01*
X195555000Y-111785000D01*
X194524046Y-111785000D01*
X194473036Y-111960637D01*
X176934900Y-111960637D01*
X176934900Y-111559363D01*
X194473036Y-111559363D01*
X194524046Y-111735000D01*
X195555000Y-111735000D01*
X195555000Y-110704027D01*
X195605000Y-110704027D01*
X195605000Y-111735000D01*
X196635954Y-111735000D01*
X196686964Y-111559363D01*
X196679483Y-111521749D01*
X196611876Y-111311828D01*
X196504615Y-111119130D01*
X196361821Y-110951061D01*
X196188982Y-110814079D01*
X195992741Y-110713448D01*
X195780638Y-110653035D01*
X195605000Y-110704027D01*
X195555000Y-110704027D01*
X195379362Y-110653035D01*
X195167259Y-110713448D01*
X194971018Y-110814079D01*
X194798179Y-110951061D01*
X194655385Y-111119130D01*
X194548124Y-111311828D01*
X194480517Y-111521749D01*
X194473036Y-111559363D01*
X176934900Y-111559363D01*
X176934900Y-109860234D01*
X176964993Y-109905272D01*
X177114728Y-110055007D01*
X177290797Y-110172652D01*
X177486434Y-110253688D01*
X177694122Y-110295000D01*
X177905878Y-110295000D01*
X178113566Y-110253688D01*
X178309203Y-110172652D01*
X178462833Y-110070000D01*
X194453669Y-110070000D01*
X194458979Y-110123910D01*
X194474703Y-110175747D01*
X194500239Y-110223521D01*
X194534604Y-110265396D01*
X194576479Y-110299761D01*
X194624253Y-110325297D01*
X194676090Y-110341021D01*
X194730000Y-110346331D01*
X195486250Y-110345000D01*
X195555000Y-110276250D01*
X195555000Y-109245000D01*
X195605000Y-109245000D01*
X195605000Y-110276250D01*
X195673750Y-110345000D01*
X196430000Y-110346331D01*
X196483910Y-110341021D01*
X196535747Y-110325297D01*
X196583521Y-110299761D01*
X196625396Y-110265396D01*
X196659761Y-110223521D01*
X196685297Y-110175747D01*
X196701021Y-110123910D01*
X196706331Y-110070000D01*
X196705000Y-109313750D01*
X196636250Y-109245000D01*
X195605000Y-109245000D01*
X195555000Y-109245000D01*
X194523750Y-109245000D01*
X194455000Y-109313750D01*
X194453669Y-110070000D01*
X178462833Y-110070000D01*
X178485272Y-110055007D01*
X178635007Y-109905272D01*
X178752652Y-109729203D01*
X178833688Y-109533566D01*
X178875000Y-109325878D01*
X178875000Y-109114122D01*
X178833688Y-108906434D01*
X178752652Y-108710797D01*
X178635007Y-108534728D01*
X178485272Y-108384993D01*
X178462834Y-108370000D01*
X194453669Y-108370000D01*
X194455000Y-109126250D01*
X194523750Y-109195000D01*
X195555000Y-109195000D01*
X195555000Y-108163750D01*
X195605000Y-108163750D01*
X195605000Y-109195000D01*
X196636250Y-109195000D01*
X196705000Y-109126250D01*
X196706331Y-108370000D01*
X197043912Y-108370000D01*
X197043912Y-110070000D01*
X197048256Y-110114108D01*
X197061122Y-110156520D01*
X197082015Y-110195608D01*
X197110132Y-110229868D01*
X197144392Y-110257985D01*
X197183480Y-110278878D01*
X197225892Y-110291744D01*
X197270000Y-110296088D01*
X198970000Y-110296088D01*
X199014108Y-110291744D01*
X199056520Y-110278878D01*
X199095608Y-110257985D01*
X199129868Y-110229868D01*
X199157985Y-110195608D01*
X199178878Y-110156520D01*
X199191744Y-110114108D01*
X199196088Y-110070000D01*
X199196088Y-109691062D01*
X199803356Y-110298331D01*
X199814316Y-110311686D01*
X199867611Y-110355423D01*
X199928414Y-110387923D01*
X199994389Y-110407936D01*
X200045812Y-110413001D01*
X200045814Y-110413001D01*
X200063000Y-110414694D01*
X200080186Y-110413001D01*
X213343000Y-110413001D01*
X213343000Y-110414708D01*
X213363176Y-110516137D01*
X213402751Y-110611681D01*
X213460206Y-110697668D01*
X213533332Y-110770794D01*
X213619319Y-110828249D01*
X213714863Y-110867824D01*
X213816292Y-110888000D01*
X213919708Y-110888000D01*
X214021137Y-110867824D01*
X214116681Y-110828249D01*
X214202668Y-110770794D01*
X214275794Y-110697668D01*
X214333249Y-110611681D01*
X214372824Y-110516137D01*
X214393000Y-110414708D01*
X214393000Y-110311292D01*
X214372824Y-110209863D01*
X214333249Y-110114319D01*
X214275794Y-110028332D01*
X214202668Y-109955206D01*
X214116681Y-109897751D01*
X214021137Y-109858176D01*
X213919708Y-109838000D01*
X213837973Y-109838000D01*
X213827654Y-109827681D01*
X213816686Y-109814316D01*
X213763391Y-109770579D01*
X213702588Y-109738079D01*
X213636613Y-109718066D01*
X213585190Y-109713001D01*
X213585189Y-109713001D01*
X213568001Y-109711308D01*
X213550813Y-109713001D01*
X200207976Y-109713001D01*
X199479653Y-108984680D01*
X199468685Y-108971315D01*
X199415390Y-108927578D01*
X199354587Y-108895078D01*
X199288612Y-108875065D01*
X199237189Y-108870000D01*
X199237188Y-108870000D01*
X199220000Y-108868307D01*
X199202812Y-108870000D01*
X199196088Y-108870000D01*
X199196088Y-108370000D01*
X199191744Y-108325892D01*
X199178878Y-108283480D01*
X199157985Y-108244392D01*
X199129868Y-108210132D01*
X199095608Y-108182015D01*
X199056520Y-108161122D01*
X199014108Y-108148256D01*
X198970000Y-108143912D01*
X197270000Y-108143912D01*
X197225892Y-108148256D01*
X197183480Y-108161122D01*
X197144392Y-108182015D01*
X197110132Y-108210132D01*
X197082015Y-108244392D01*
X197061122Y-108283480D01*
X197048256Y-108325892D01*
X197043912Y-108370000D01*
X196706331Y-108370000D01*
X196701021Y-108316090D01*
X196685297Y-108264253D01*
X196659761Y-108216479D01*
X196625396Y-108174604D01*
X196583521Y-108140239D01*
X196535747Y-108114703D01*
X196483910Y-108098979D01*
X196430000Y-108093669D01*
X195673750Y-108095000D01*
X195605000Y-108163750D01*
X195555000Y-108163750D01*
X195486250Y-108095000D01*
X194730000Y-108093669D01*
X194676090Y-108098979D01*
X194624253Y-108114703D01*
X194576479Y-108140239D01*
X194534604Y-108174604D01*
X194500239Y-108216479D01*
X194474703Y-108264253D01*
X194458979Y-108316090D01*
X194453669Y-108370000D01*
X178462834Y-108370000D01*
X178309203Y-108267348D01*
X178113566Y-108186312D01*
X177905878Y-108145000D01*
X177694122Y-108145000D01*
X177486434Y-108186312D01*
X177290797Y-108267348D01*
X177114728Y-108384993D01*
X176964993Y-108534728D01*
X176934900Y-108579766D01*
X176934900Y-107320234D01*
X176964993Y-107365272D01*
X177114728Y-107515007D01*
X177290797Y-107632652D01*
X177486434Y-107713688D01*
X177694122Y-107755000D01*
X177905878Y-107755000D01*
X178113566Y-107713688D01*
X178309203Y-107632652D01*
X178485272Y-107515007D01*
X178635007Y-107365272D01*
X178752652Y-107189203D01*
X178833688Y-106993566D01*
X178856151Y-106880637D01*
X194473036Y-106880637D01*
X194480517Y-106918251D01*
X194548124Y-107128172D01*
X194655385Y-107320870D01*
X194798179Y-107488939D01*
X194971018Y-107625921D01*
X195167259Y-107726552D01*
X195379362Y-107786965D01*
X195555000Y-107735973D01*
X195555000Y-106705000D01*
X195605000Y-106705000D01*
X195605000Y-107735973D01*
X195780638Y-107786965D01*
X195992741Y-107726552D01*
X196188982Y-107625921D01*
X196361821Y-107488939D01*
X196504615Y-107320870D01*
X196611876Y-107128172D01*
X196679483Y-106918251D01*
X196686964Y-106880637D01*
X196635954Y-106705000D01*
X195605000Y-106705000D01*
X195555000Y-106705000D01*
X194524046Y-106705000D01*
X194473036Y-106880637D01*
X178856151Y-106880637D01*
X178875000Y-106785878D01*
X178875000Y-106574122D01*
X178856152Y-106479363D01*
X194473036Y-106479363D01*
X194524046Y-106655000D01*
X195555000Y-106655000D01*
X195555000Y-105624027D01*
X195605000Y-105624027D01*
X195605000Y-106655000D01*
X196635954Y-106655000D01*
X196659443Y-106574122D01*
X197045000Y-106574122D01*
X197045000Y-106785878D01*
X197086312Y-106993566D01*
X197167348Y-107189203D01*
X197284993Y-107365272D01*
X197434728Y-107515007D01*
X197610797Y-107632652D01*
X197806434Y-107713688D01*
X198014122Y-107755000D01*
X198225878Y-107755000D01*
X198433566Y-107713688D01*
X198629203Y-107632652D01*
X198805272Y-107515007D01*
X198955007Y-107365272D01*
X199072652Y-107189203D01*
X199138596Y-107030000D01*
X209079727Y-107030000D01*
X210929800Y-108880075D01*
X210929800Y-108961808D01*
X210949976Y-109063237D01*
X210989551Y-109158781D01*
X211047006Y-109244768D01*
X211120132Y-109317894D01*
X211206119Y-109375349D01*
X211301663Y-109414924D01*
X211403092Y-109435100D01*
X211506508Y-109435100D01*
X211607937Y-109414924D01*
X211703481Y-109375349D01*
X211789468Y-109317894D01*
X211862594Y-109244768D01*
X211920049Y-109158781D01*
X211959624Y-109063237D01*
X211979800Y-108961808D01*
X211979800Y-108858392D01*
X211959624Y-108756963D01*
X211920049Y-108661419D01*
X211862594Y-108575432D01*
X211789468Y-108502306D01*
X211703481Y-108444851D01*
X211607937Y-108405276D01*
X211506508Y-108385100D01*
X211424775Y-108385100D01*
X209484353Y-106444680D01*
X209473385Y-106431315D01*
X209420090Y-106387578D01*
X209359287Y-106355078D01*
X209293312Y-106335065D01*
X209241889Y-106330000D01*
X209241888Y-106330000D01*
X209224700Y-106328307D01*
X209207512Y-106330000D01*
X199138596Y-106330000D01*
X199072652Y-106170797D01*
X198955007Y-105994728D01*
X198805272Y-105844993D01*
X198629203Y-105727348D01*
X198433566Y-105646312D01*
X198225878Y-105605000D01*
X198014122Y-105605000D01*
X197806434Y-105646312D01*
X197610797Y-105727348D01*
X197434728Y-105844993D01*
X197284993Y-105994728D01*
X197167348Y-106170797D01*
X197086312Y-106366434D01*
X197045000Y-106574122D01*
X196659443Y-106574122D01*
X196686964Y-106479363D01*
X196679483Y-106441749D01*
X196611876Y-106231828D01*
X196504615Y-106039130D01*
X196361821Y-105871061D01*
X196188982Y-105734079D01*
X195992741Y-105633448D01*
X195780638Y-105573035D01*
X195605000Y-105624027D01*
X195555000Y-105624027D01*
X195379362Y-105573035D01*
X195167259Y-105633448D01*
X194971018Y-105734079D01*
X194798179Y-105871061D01*
X194655385Y-106039130D01*
X194548124Y-106231828D01*
X194480517Y-106441749D01*
X194473036Y-106479363D01*
X178856152Y-106479363D01*
X178833688Y-106366434D01*
X178752652Y-106170797D01*
X178635007Y-105994728D01*
X178485272Y-105844993D01*
X178309203Y-105727348D01*
X178113566Y-105646312D01*
X177905878Y-105605000D01*
X177694122Y-105605000D01*
X177486434Y-105646312D01*
X177290797Y-105727348D01*
X177114728Y-105844993D01*
X176964993Y-105994728D01*
X176934900Y-106039766D01*
X176934900Y-105500073D01*
X177327230Y-105107743D01*
X177486434Y-105173688D01*
X177694122Y-105215000D01*
X177905878Y-105215000D01*
X178113566Y-105173688D01*
X178309203Y-105092652D01*
X178485272Y-104975007D01*
X178635007Y-104825272D01*
X178752652Y-104649203D01*
X178833688Y-104453566D01*
X178856151Y-104340637D01*
X194473036Y-104340637D01*
X194480517Y-104378251D01*
X194548124Y-104588172D01*
X194655385Y-104780870D01*
X194798179Y-104948939D01*
X194971018Y-105085921D01*
X195167259Y-105186552D01*
X195379362Y-105246965D01*
X195555000Y-105195973D01*
X195555000Y-104165000D01*
X195605000Y-104165000D01*
X195605000Y-105195973D01*
X195780638Y-105246965D01*
X195992741Y-105186552D01*
X196188982Y-105085921D01*
X196361821Y-104948939D01*
X196504615Y-104780870D01*
X196611876Y-104588172D01*
X196679483Y-104378251D01*
X196686964Y-104340637D01*
X196635954Y-104165000D01*
X195605000Y-104165000D01*
X195555000Y-104165000D01*
X194524046Y-104165000D01*
X194473036Y-104340637D01*
X178856151Y-104340637D01*
X178875000Y-104245878D01*
X178875000Y-104034122D01*
X178856152Y-103939363D01*
X194473036Y-103939363D01*
X194524046Y-104115000D01*
X195555000Y-104115000D01*
X195555000Y-103084027D01*
X195605000Y-103084027D01*
X195605000Y-104115000D01*
X196635954Y-104115000D01*
X196659443Y-104034122D01*
X197045000Y-104034122D01*
X197045000Y-104245878D01*
X197086312Y-104453566D01*
X197167348Y-104649203D01*
X197284993Y-104825272D01*
X197434728Y-104975007D01*
X197610797Y-105092652D01*
X197806434Y-105173688D01*
X198014122Y-105215000D01*
X198225878Y-105215000D01*
X198433566Y-105173688D01*
X198629203Y-105092652D01*
X198805272Y-104975007D01*
X198955007Y-104825272D01*
X199072652Y-104649203D01*
X199153688Y-104453566D01*
X199195000Y-104245878D01*
X199195000Y-104034122D01*
X199153688Y-103826434D01*
X199072652Y-103630797D01*
X198955007Y-103454728D01*
X198805272Y-103304993D01*
X198629203Y-103187348D01*
X198433566Y-103106312D01*
X198225878Y-103065000D01*
X198014122Y-103065000D01*
X197806434Y-103106312D01*
X197610797Y-103187348D01*
X197434728Y-103304993D01*
X197284993Y-103454728D01*
X197167348Y-103630797D01*
X197086312Y-103826434D01*
X197045000Y-104034122D01*
X196659443Y-104034122D01*
X196686964Y-103939363D01*
X196679483Y-103901749D01*
X196611876Y-103691828D01*
X196504615Y-103499130D01*
X196361821Y-103331061D01*
X196188982Y-103194079D01*
X195992741Y-103093448D01*
X195780638Y-103033035D01*
X195605000Y-103084027D01*
X195555000Y-103084027D01*
X195379362Y-103033035D01*
X195167259Y-103093448D01*
X194971018Y-103194079D01*
X194798179Y-103331061D01*
X194655385Y-103499130D01*
X194548124Y-103691828D01*
X194480517Y-103901749D01*
X194473036Y-103939363D01*
X178856152Y-103939363D01*
X178833688Y-103826434D01*
X178752652Y-103630797D01*
X178635007Y-103454728D01*
X178485272Y-103304993D01*
X178309203Y-103187348D01*
X178113566Y-103106312D01*
X177905878Y-103065000D01*
X177694122Y-103065000D01*
X177486434Y-103106312D01*
X177290797Y-103187348D01*
X177114728Y-103304993D01*
X176964993Y-103454728D01*
X176847348Y-103630797D01*
X176766312Y-103826434D01*
X176725000Y-104034122D01*
X176725000Y-104245878D01*
X176766312Y-104453566D01*
X176832257Y-104612770D01*
X176349576Y-105095451D01*
X176336216Y-105106415D01*
X176292479Y-105159710D01*
X176278132Y-105186552D01*
X176259979Y-105220513D01*
X176239965Y-105286489D01*
X176233207Y-105355100D01*
X176234901Y-105372298D01*
X176234901Y-106129470D01*
X176184615Y-106039130D01*
X176041821Y-105871061D01*
X175868982Y-105734079D01*
X175672741Y-105633448D01*
X175460638Y-105573035D01*
X175285000Y-105624027D01*
X175285000Y-106655000D01*
X175305000Y-106655000D01*
X175305000Y-106705000D01*
X175285000Y-106705000D01*
X175285000Y-107735973D01*
X175460638Y-107786965D01*
X175672741Y-107726552D01*
X175868982Y-107625921D01*
X176041821Y-107488939D01*
X176184615Y-107320870D01*
X176234901Y-107230530D01*
X176234901Y-108669470D01*
X176184615Y-108579130D01*
X176041821Y-108411061D01*
X175868982Y-108274079D01*
X175672741Y-108173448D01*
X175460638Y-108113035D01*
X175285000Y-108164027D01*
X175285000Y-109195000D01*
X175305000Y-109195000D01*
X175305000Y-109245000D01*
X175285000Y-109245000D01*
X175285000Y-110275973D01*
X175460638Y-110326965D01*
X175672741Y-110266552D01*
X175868982Y-110165921D01*
X176041821Y-110028939D01*
X176184615Y-109860870D01*
X176234901Y-109770530D01*
X176234900Y-115744941D01*
X176215747Y-115734703D01*
X176163910Y-115718979D01*
X176110000Y-115713669D01*
X175353750Y-115715000D01*
X175285000Y-115783750D01*
X175285000Y-116815000D01*
X175305000Y-116815000D01*
X175305000Y-116865000D01*
X175285000Y-116865000D01*
X175285000Y-117896250D01*
X175353750Y-117965000D01*
X176110000Y-117966331D01*
X176163910Y-117961021D01*
X176215747Y-117945297D01*
X176234900Y-117935059D01*
X176234900Y-118829469D01*
X176184615Y-118739130D01*
X176041821Y-118571061D01*
X175868982Y-118434079D01*
X175672741Y-118333448D01*
X175460638Y-118273035D01*
X175285000Y-118324027D01*
X175285000Y-119355000D01*
X175305000Y-119355000D01*
X175305000Y-119405000D01*
X175285000Y-119405000D01*
X175285000Y-120435973D01*
X175460638Y-120486965D01*
X175672741Y-120426552D01*
X175868982Y-120325921D01*
X176041821Y-120188939D01*
X176184615Y-120020870D01*
X176234900Y-119930531D01*
X176234900Y-121369469D01*
X176184615Y-121279130D01*
X176041821Y-121111061D01*
X175868982Y-120974079D01*
X175672741Y-120873448D01*
X175460638Y-120813035D01*
X175285000Y-120864027D01*
X175285000Y-121895000D01*
X175305000Y-121895000D01*
X175305000Y-121945000D01*
X175285000Y-121945000D01*
X175285000Y-122975973D01*
X175460638Y-123026965D01*
X175672741Y-122966552D01*
X175868982Y-122865921D01*
X176041821Y-122728939D01*
X176184615Y-122560870D01*
X176244210Y-122453805D01*
X176259978Y-122505786D01*
X176292478Y-122566589D01*
X176336215Y-122619884D01*
X176349576Y-122630849D01*
X177049455Y-123330730D01*
X177060415Y-123344085D01*
X177113710Y-123387822D01*
X177174513Y-123420322D01*
X177240488Y-123440335D01*
X177291911Y-123445400D01*
X177291913Y-123445400D01*
X177309099Y-123447093D01*
X177326285Y-123445400D01*
X177440352Y-123445400D01*
X177290797Y-123507348D01*
X177114728Y-123624993D01*
X176964993Y-123774728D01*
X176847348Y-123950797D01*
X176766312Y-124146434D01*
X176725000Y-124354122D01*
X176725000Y-124565878D01*
X176766312Y-124773566D01*
X176847348Y-124969203D01*
X176964993Y-125145272D01*
X177114728Y-125295007D01*
X177290797Y-125412652D01*
X177486434Y-125493688D01*
X177694122Y-125535000D01*
X177905878Y-125535000D01*
X178113566Y-125493688D01*
X178309203Y-125412652D01*
X178485272Y-125295007D01*
X178635007Y-125145272D01*
X178752652Y-124969203D01*
X178833688Y-124773566D01*
X178875000Y-124565878D01*
X178875000Y-124354122D01*
X178833688Y-124146434D01*
X178752652Y-123950797D01*
X178635007Y-123774728D01*
X178485272Y-123624993D01*
X178309203Y-123507348D01*
X178159648Y-123445400D01*
X210572112Y-123445400D01*
X210589300Y-123447093D01*
X210606488Y-123445400D01*
X210606489Y-123445400D01*
X210657912Y-123440335D01*
X210723887Y-123420322D01*
X210784690Y-123387822D01*
X210837985Y-123344085D01*
X210848954Y-123330720D01*
X214345992Y-119833683D01*
X214346001Y-119833672D01*
X214499673Y-119680000D01*
X215623669Y-119680000D01*
X215628979Y-119733910D01*
X215644703Y-119785747D01*
X215670239Y-119833521D01*
X215704604Y-119875396D01*
X215746479Y-119909761D01*
X215794253Y-119935297D01*
X215846090Y-119951021D01*
X215900000Y-119956331D01*
X217076250Y-119955000D01*
X217145000Y-119886250D01*
X217145000Y-119405000D01*
X215693750Y-119405000D01*
X215625000Y-119473750D01*
X215623669Y-119680000D01*
X214499673Y-119680000D01*
X215099674Y-119080000D01*
X215623669Y-119080000D01*
X215625000Y-119286250D01*
X215693750Y-119355000D01*
X217145000Y-119355000D01*
X217145000Y-118873750D01*
X217076250Y-118805000D01*
X215900000Y-118803669D01*
X215846090Y-118808979D01*
X215794253Y-118824703D01*
X215746479Y-118850239D01*
X215704604Y-118884604D01*
X215670239Y-118926479D01*
X215644703Y-118974253D01*
X215628979Y-119026090D01*
X215623669Y-119080000D01*
X215099674Y-119080000D01*
X215689268Y-118490407D01*
X215691122Y-118496520D01*
X215712015Y-118535608D01*
X215740132Y-118569868D01*
X215774392Y-118597985D01*
X215813480Y-118618878D01*
X215855892Y-118631744D01*
X215900000Y-118636088D01*
X218440000Y-118636088D01*
X218444001Y-118635694D01*
X218444001Y-118804063D01*
X218440000Y-118803669D01*
X217263750Y-118805000D01*
X217195000Y-118873750D01*
X217195000Y-119355000D01*
X217215000Y-119355000D01*
X217215000Y-119405000D01*
X217195000Y-119405000D01*
X217195000Y-119886250D01*
X217263750Y-119955000D01*
X218440000Y-119956331D01*
X218444001Y-119955937D01*
X218444001Y-129544000D01*
X167382000Y-129544000D01*
X167382000Y-124660637D01*
X174153036Y-124660637D01*
X174160517Y-124698251D01*
X174228124Y-124908172D01*
X174335385Y-125100870D01*
X174478179Y-125268939D01*
X174651018Y-125405921D01*
X174847259Y-125506552D01*
X175059362Y-125566965D01*
X175235000Y-125515973D01*
X175235000Y-124485000D01*
X175285000Y-124485000D01*
X175285000Y-125515973D01*
X175460638Y-125566965D01*
X175672741Y-125506552D01*
X175868982Y-125405921D01*
X176041821Y-125268939D01*
X176184615Y-125100870D01*
X176291876Y-124908172D01*
X176359483Y-124698251D01*
X176366964Y-124660637D01*
X176315954Y-124485000D01*
X175285000Y-124485000D01*
X175235000Y-124485000D01*
X174204046Y-124485000D01*
X174153036Y-124660637D01*
X167382000Y-124660637D01*
X167382000Y-124259363D01*
X174153036Y-124259363D01*
X174204046Y-124435000D01*
X175235000Y-124435000D01*
X175235000Y-123404027D01*
X175285000Y-123404027D01*
X175285000Y-124435000D01*
X176315954Y-124435000D01*
X176366964Y-124259363D01*
X176359483Y-124221749D01*
X176291876Y-124011828D01*
X176184615Y-123819130D01*
X176041821Y-123651061D01*
X175868982Y-123514079D01*
X175672741Y-123413448D01*
X175460638Y-123353035D01*
X175285000Y-123404027D01*
X175235000Y-123404027D01*
X175059362Y-123353035D01*
X174847259Y-123413448D01*
X174651018Y-123514079D01*
X174478179Y-123651061D01*
X174335385Y-123819130D01*
X174228124Y-124011828D01*
X174160517Y-124221749D01*
X174153036Y-124259363D01*
X167382000Y-124259363D01*
X167382000Y-122120637D01*
X174153036Y-122120637D01*
X174160517Y-122158251D01*
X174228124Y-122368172D01*
X174335385Y-122560870D01*
X174478179Y-122728939D01*
X174651018Y-122865921D01*
X174847259Y-122966552D01*
X175059362Y-123026965D01*
X175235000Y-122975973D01*
X175235000Y-121945000D01*
X174204046Y-121945000D01*
X174153036Y-122120637D01*
X167382000Y-122120637D01*
X167382000Y-121719363D01*
X174153036Y-121719363D01*
X174204046Y-121895000D01*
X175235000Y-121895000D01*
X175235000Y-120864027D01*
X175059362Y-120813035D01*
X174847259Y-120873448D01*
X174651018Y-120974079D01*
X174478179Y-121111061D01*
X174335385Y-121279130D01*
X174228124Y-121471828D01*
X174160517Y-121681749D01*
X174153036Y-121719363D01*
X167382000Y-121719363D01*
X167382000Y-119580637D01*
X174153036Y-119580637D01*
X174160517Y-119618251D01*
X174228124Y-119828172D01*
X174335385Y-120020870D01*
X174478179Y-120188939D01*
X174651018Y-120325921D01*
X174847259Y-120426552D01*
X175059362Y-120486965D01*
X175235000Y-120435973D01*
X175235000Y-119405000D01*
X174204046Y-119405000D01*
X174153036Y-119580637D01*
X167382000Y-119580637D01*
X167382000Y-119179363D01*
X174153036Y-119179363D01*
X174204046Y-119355000D01*
X175235000Y-119355000D01*
X175235000Y-118324027D01*
X175059362Y-118273035D01*
X174847259Y-118333448D01*
X174651018Y-118434079D01*
X174478179Y-118571061D01*
X174335385Y-118739130D01*
X174228124Y-118931828D01*
X174160517Y-119141749D01*
X174153036Y-119179363D01*
X167382000Y-119179363D01*
X167382000Y-117690000D01*
X174133669Y-117690000D01*
X174138979Y-117743910D01*
X174154703Y-117795747D01*
X174180239Y-117843521D01*
X174214604Y-117885396D01*
X174256479Y-117919761D01*
X174304253Y-117945297D01*
X174356090Y-117961021D01*
X174410000Y-117966331D01*
X175166250Y-117965000D01*
X175235000Y-117896250D01*
X175235000Y-116865000D01*
X174203750Y-116865000D01*
X174135000Y-116933750D01*
X174133669Y-117690000D01*
X167382000Y-117690000D01*
X167382000Y-115990000D01*
X174133669Y-115990000D01*
X174135000Y-116746250D01*
X174203750Y-116815000D01*
X175235000Y-116815000D01*
X175235000Y-115783750D01*
X175166250Y-115715000D01*
X174410000Y-115713669D01*
X174356090Y-115718979D01*
X174304253Y-115734703D01*
X174256479Y-115760239D01*
X174214604Y-115794604D01*
X174180239Y-115836479D01*
X174154703Y-115884253D01*
X174138979Y-115936090D01*
X174133669Y-115990000D01*
X167382000Y-115990000D01*
X167382000Y-109420637D01*
X174153036Y-109420637D01*
X174160517Y-109458251D01*
X174228124Y-109668172D01*
X174335385Y-109860870D01*
X174478179Y-110028939D01*
X174651018Y-110165921D01*
X174847259Y-110266552D01*
X175059362Y-110326965D01*
X175235000Y-110275973D01*
X175235000Y-109245000D01*
X174204046Y-109245000D01*
X174153036Y-109420637D01*
X167382000Y-109420637D01*
X167382000Y-109019363D01*
X174153036Y-109019363D01*
X174204046Y-109195000D01*
X175235000Y-109195000D01*
X175235000Y-108164027D01*
X175059362Y-108113035D01*
X174847259Y-108173448D01*
X174651018Y-108274079D01*
X174478179Y-108411061D01*
X174335385Y-108579130D01*
X174228124Y-108771828D01*
X174160517Y-108981749D01*
X174153036Y-109019363D01*
X167382000Y-109019363D01*
X167382000Y-106880637D01*
X174153036Y-106880637D01*
X174160517Y-106918251D01*
X174228124Y-107128172D01*
X174335385Y-107320870D01*
X174478179Y-107488939D01*
X174651018Y-107625921D01*
X174847259Y-107726552D01*
X175059362Y-107786965D01*
X175235000Y-107735973D01*
X175235000Y-106705000D01*
X174204046Y-106705000D01*
X174153036Y-106880637D01*
X167382000Y-106880637D01*
X167382000Y-106479363D01*
X174153036Y-106479363D01*
X174204046Y-106655000D01*
X175235000Y-106655000D01*
X175235000Y-105624027D01*
X175059362Y-105573035D01*
X174847259Y-105633448D01*
X174651018Y-105734079D01*
X174478179Y-105871061D01*
X174335385Y-106039130D01*
X174228124Y-106231828D01*
X174160517Y-106441749D01*
X174153036Y-106479363D01*
X167382000Y-106479363D01*
X167382000Y-104340637D01*
X174153036Y-104340637D01*
X174160517Y-104378251D01*
X174228124Y-104588172D01*
X174335385Y-104780870D01*
X174478179Y-104948939D01*
X174651018Y-105085921D01*
X174847259Y-105186552D01*
X175059362Y-105246965D01*
X175235000Y-105195973D01*
X175235000Y-104165000D01*
X175285000Y-104165000D01*
X175285000Y-105195973D01*
X175460638Y-105246965D01*
X175672741Y-105186552D01*
X175868982Y-105085921D01*
X176041821Y-104948939D01*
X176184615Y-104780870D01*
X176291876Y-104588172D01*
X176359483Y-104378251D01*
X176366964Y-104340637D01*
X176315954Y-104165000D01*
X175285000Y-104165000D01*
X175235000Y-104165000D01*
X174204046Y-104165000D01*
X174153036Y-104340637D01*
X167382000Y-104340637D01*
X167382000Y-103939363D01*
X174153036Y-103939363D01*
X174204046Y-104115000D01*
X175235000Y-104115000D01*
X175235000Y-103084027D01*
X175285000Y-103084027D01*
X175285000Y-104115000D01*
X176315954Y-104115000D01*
X176366964Y-103939363D01*
X176359483Y-103901749D01*
X176291876Y-103691828D01*
X176184615Y-103499130D01*
X176041821Y-103331061D01*
X175868982Y-103194079D01*
X175672741Y-103093448D01*
X175460638Y-103033035D01*
X175285000Y-103084027D01*
X175235000Y-103084027D01*
X175059362Y-103033035D01*
X174847259Y-103093448D01*
X174651018Y-103194079D01*
X174478179Y-103331061D01*
X174335385Y-103499130D01*
X174228124Y-103691828D01*
X174160517Y-103901749D01*
X174153036Y-103939363D01*
X167382000Y-103939363D01*
X167382000Y-102450000D01*
X174133669Y-102450000D01*
X174138979Y-102503910D01*
X174154703Y-102555747D01*
X174180239Y-102603521D01*
X174214604Y-102645396D01*
X174256479Y-102679761D01*
X174304253Y-102705297D01*
X174356090Y-102721021D01*
X174410000Y-102726331D01*
X175166250Y-102725000D01*
X175235000Y-102656250D01*
X175235000Y-101625000D01*
X175285000Y-101625000D01*
X175285000Y-102656250D01*
X175353750Y-102725000D01*
X176110000Y-102726331D01*
X176163910Y-102721021D01*
X176215747Y-102705297D01*
X176263521Y-102679761D01*
X176305396Y-102645396D01*
X176339761Y-102603521D01*
X176365297Y-102555747D01*
X176381021Y-102503910D01*
X176386331Y-102450000D01*
X176385000Y-101693750D01*
X176316250Y-101625000D01*
X175285000Y-101625000D01*
X175235000Y-101625000D01*
X174203750Y-101625000D01*
X174135000Y-101693750D01*
X174133669Y-102450000D01*
X167382000Y-102450000D01*
X167382000Y-100750000D01*
X174133669Y-100750000D01*
X174135000Y-101506250D01*
X174203750Y-101575000D01*
X175235000Y-101575000D01*
X175235000Y-100543750D01*
X175285000Y-100543750D01*
X175285000Y-101575000D01*
X176316250Y-101575000D01*
X176385000Y-101506250D01*
X176386331Y-100750000D01*
X176723912Y-100750000D01*
X176723912Y-102450000D01*
X176728256Y-102494108D01*
X176741122Y-102536520D01*
X176762015Y-102575608D01*
X176790132Y-102609868D01*
X176824392Y-102637985D01*
X176863480Y-102658878D01*
X176905892Y-102671744D01*
X176950000Y-102676088D01*
X178650000Y-102676088D01*
X178694108Y-102671744D01*
X178736520Y-102658878D01*
X178775608Y-102637985D01*
X178809868Y-102609868D01*
X178837985Y-102575608D01*
X178858878Y-102536520D01*
X178871744Y-102494108D01*
X178876088Y-102450000D01*
X178876088Y-101800637D01*
X194473036Y-101800637D01*
X194480517Y-101838251D01*
X194548124Y-102048172D01*
X194655385Y-102240870D01*
X194798179Y-102408939D01*
X194971018Y-102545921D01*
X195167259Y-102646552D01*
X195379362Y-102706965D01*
X195555000Y-102655973D01*
X195555000Y-101625000D01*
X195605000Y-101625000D01*
X195605000Y-102655973D01*
X195780638Y-102706965D01*
X195992741Y-102646552D01*
X196188982Y-102545921D01*
X196361821Y-102408939D01*
X196504615Y-102240870D01*
X196611876Y-102048172D01*
X196679483Y-101838251D01*
X196686964Y-101800637D01*
X196635954Y-101625000D01*
X195605000Y-101625000D01*
X195555000Y-101625000D01*
X194524046Y-101625000D01*
X194473036Y-101800637D01*
X178876088Y-101800637D01*
X178876088Y-101399363D01*
X194473036Y-101399363D01*
X194524046Y-101575000D01*
X195555000Y-101575000D01*
X195555000Y-100544027D01*
X195605000Y-100544027D01*
X195605000Y-101575000D01*
X196635954Y-101575000D01*
X196659443Y-101494122D01*
X197045000Y-101494122D01*
X197045000Y-101705878D01*
X197086312Y-101913566D01*
X197167348Y-102109203D01*
X197284993Y-102285272D01*
X197434728Y-102435007D01*
X197610797Y-102552652D01*
X197806434Y-102633688D01*
X198014122Y-102675000D01*
X198225878Y-102675000D01*
X198433566Y-102633688D01*
X198629203Y-102552652D01*
X198805272Y-102435007D01*
X198955007Y-102285272D01*
X199072652Y-102109203D01*
X199153688Y-101913566D01*
X199195000Y-101705878D01*
X199195000Y-101494122D01*
X199153688Y-101286434D01*
X199072652Y-101090797D01*
X198955007Y-100914728D01*
X198805272Y-100764993D01*
X198629203Y-100647348D01*
X198433566Y-100566312D01*
X198225878Y-100525000D01*
X198014122Y-100525000D01*
X197806434Y-100566312D01*
X197610797Y-100647348D01*
X197434728Y-100764993D01*
X197284993Y-100914728D01*
X197167348Y-101090797D01*
X197086312Y-101286434D01*
X197045000Y-101494122D01*
X196659443Y-101494122D01*
X196686964Y-101399363D01*
X196679483Y-101361749D01*
X196611876Y-101151828D01*
X196504615Y-100959130D01*
X196361821Y-100791061D01*
X196188982Y-100654079D01*
X195992741Y-100553448D01*
X195780638Y-100493035D01*
X195605000Y-100544027D01*
X195555000Y-100544027D01*
X195379362Y-100493035D01*
X195167259Y-100553448D01*
X194971018Y-100654079D01*
X194798179Y-100791061D01*
X194655385Y-100959130D01*
X194548124Y-101151828D01*
X194480517Y-101361749D01*
X194473036Y-101399363D01*
X178876088Y-101399363D01*
X178876088Y-100750000D01*
X178871744Y-100705892D01*
X178858878Y-100663480D01*
X178837985Y-100624392D01*
X178809868Y-100590132D01*
X178775608Y-100562015D01*
X178736520Y-100541122D01*
X178694108Y-100528256D01*
X178650000Y-100523912D01*
X176950000Y-100523912D01*
X176905892Y-100528256D01*
X176863480Y-100541122D01*
X176824392Y-100562015D01*
X176790132Y-100590132D01*
X176762015Y-100624392D01*
X176741122Y-100663480D01*
X176728256Y-100705892D01*
X176723912Y-100750000D01*
X176386331Y-100750000D01*
X176381021Y-100696090D01*
X176365297Y-100644253D01*
X176339761Y-100596479D01*
X176305396Y-100554604D01*
X176263521Y-100520239D01*
X176215747Y-100494703D01*
X176163910Y-100478979D01*
X176110000Y-100473669D01*
X175353750Y-100475000D01*
X175285000Y-100543750D01*
X175235000Y-100543750D01*
X175166250Y-100475000D01*
X174410000Y-100473669D01*
X174356090Y-100478979D01*
X174304253Y-100494703D01*
X174256479Y-100520239D01*
X174214604Y-100554604D01*
X174180239Y-100596479D01*
X174154703Y-100644253D01*
X174138979Y-100696090D01*
X174133669Y-100750000D01*
X167382000Y-100750000D01*
X167382000Y-89100638D01*
X171613035Y-89100638D01*
X171673448Y-89312741D01*
X171774079Y-89508982D01*
X171911061Y-89681821D01*
X172079130Y-89824615D01*
X172271828Y-89931876D01*
X172481749Y-89999483D01*
X172519363Y-90006964D01*
X172695000Y-89955954D01*
X172695000Y-88925000D01*
X172745000Y-88925000D01*
X172745000Y-89955954D01*
X172920637Y-90006964D01*
X172958251Y-89999483D01*
X173168172Y-89931876D01*
X173360870Y-89824615D01*
X173528939Y-89681821D01*
X173665921Y-89508982D01*
X173766552Y-89312741D01*
X173826965Y-89100638D01*
X174153035Y-89100638D01*
X174213448Y-89312741D01*
X174314079Y-89508982D01*
X174451061Y-89681821D01*
X174619130Y-89824615D01*
X174811828Y-89931876D01*
X175021749Y-89999483D01*
X175059363Y-90006964D01*
X175235000Y-89955954D01*
X175235000Y-88925000D01*
X175285000Y-88925000D01*
X175285000Y-89955954D01*
X175460637Y-90006964D01*
X175498251Y-89999483D01*
X175708172Y-89931876D01*
X175900870Y-89824615D01*
X176068939Y-89681821D01*
X176205921Y-89508982D01*
X176306552Y-89312741D01*
X176366965Y-89100638D01*
X176693035Y-89100638D01*
X176753448Y-89312741D01*
X176854079Y-89508982D01*
X176991061Y-89681821D01*
X177159130Y-89824615D01*
X177351828Y-89931876D01*
X177561749Y-89999483D01*
X177599363Y-90006964D01*
X177775000Y-89955954D01*
X177775000Y-88925000D01*
X177825000Y-88925000D01*
X177825000Y-89955954D01*
X178000637Y-90006964D01*
X178038251Y-89999483D01*
X178248172Y-89931876D01*
X178440870Y-89824615D01*
X178528692Y-89750000D01*
X179213669Y-89750000D01*
X179218979Y-89803910D01*
X179234703Y-89855747D01*
X179260239Y-89903521D01*
X179294604Y-89945396D01*
X179336479Y-89979761D01*
X179384253Y-90005297D01*
X179436090Y-90021021D01*
X179490000Y-90026331D01*
X180246250Y-90025000D01*
X180315000Y-89956250D01*
X180315000Y-88925000D01*
X180365000Y-88925000D01*
X180365000Y-89956250D01*
X180433750Y-90025000D01*
X181190000Y-90026331D01*
X181243910Y-90021021D01*
X181295747Y-90005297D01*
X181343521Y-89979761D01*
X181385396Y-89945396D01*
X181419761Y-89903521D01*
X181445297Y-89855747D01*
X181461021Y-89803910D01*
X181466331Y-89750000D01*
X181465000Y-88993750D01*
X181396250Y-88925000D01*
X180365000Y-88925000D01*
X180315000Y-88925000D01*
X179283750Y-88925000D01*
X179215000Y-88993750D01*
X179213669Y-89750000D01*
X178528692Y-89750000D01*
X178608939Y-89681821D01*
X178745921Y-89508982D01*
X178846552Y-89312741D01*
X178906965Y-89100638D01*
X178855973Y-88925000D01*
X177825000Y-88925000D01*
X177775000Y-88925000D01*
X176744027Y-88925000D01*
X176693035Y-89100638D01*
X176366965Y-89100638D01*
X176315973Y-88925000D01*
X175285000Y-88925000D01*
X175235000Y-88925000D01*
X174204027Y-88925000D01*
X174153035Y-89100638D01*
X173826965Y-89100638D01*
X173775973Y-88925000D01*
X172745000Y-88925000D01*
X172695000Y-88925000D01*
X171664027Y-88925000D01*
X171613035Y-89100638D01*
X167382000Y-89100638D01*
X167382000Y-88699362D01*
X171613035Y-88699362D01*
X171664027Y-88875000D01*
X172695000Y-88875000D01*
X172695000Y-87844046D01*
X172745000Y-87844046D01*
X172745000Y-88875000D01*
X173775973Y-88875000D01*
X173826965Y-88699362D01*
X174153035Y-88699362D01*
X174204027Y-88875000D01*
X175235000Y-88875000D01*
X175235000Y-87844046D01*
X175285000Y-87844046D01*
X175285000Y-88875000D01*
X176315973Y-88875000D01*
X176366965Y-88699362D01*
X176693035Y-88699362D01*
X176744027Y-88875000D01*
X177775000Y-88875000D01*
X177775000Y-87844046D01*
X177825000Y-87844046D01*
X177825000Y-88875000D01*
X178855973Y-88875000D01*
X178906965Y-88699362D01*
X178846552Y-88487259D01*
X178745921Y-88291018D01*
X178608939Y-88118179D01*
X178528693Y-88050000D01*
X179213669Y-88050000D01*
X179215000Y-88806250D01*
X179283750Y-88875000D01*
X180315000Y-88875000D01*
X180315000Y-87843750D01*
X180365000Y-87843750D01*
X180365000Y-88875000D01*
X181396250Y-88875000D01*
X181465000Y-88806250D01*
X181466331Y-88050000D01*
X186833669Y-88050000D01*
X186835000Y-88806250D01*
X186903750Y-88875000D01*
X187935000Y-88875000D01*
X187935000Y-87843750D01*
X187985000Y-87843750D01*
X187985000Y-88875000D01*
X189016250Y-88875000D01*
X189085000Y-88806250D01*
X189085188Y-88699362D01*
X189393035Y-88699362D01*
X189444027Y-88875000D01*
X190475000Y-88875000D01*
X190475000Y-87844046D01*
X190525000Y-87844046D01*
X190525000Y-88875000D01*
X191555973Y-88875000D01*
X191606965Y-88699362D01*
X191933035Y-88699362D01*
X191984027Y-88875000D01*
X193015000Y-88875000D01*
X193015000Y-87844046D01*
X193065000Y-87844046D01*
X193065000Y-88875000D01*
X194095973Y-88875000D01*
X194146965Y-88699362D01*
X194473035Y-88699362D01*
X194524027Y-88875000D01*
X195555000Y-88875000D01*
X195555000Y-87844046D01*
X195605000Y-87844046D01*
X195605000Y-88875000D01*
X196635973Y-88875000D01*
X196686965Y-88699362D01*
X202093035Y-88699362D01*
X202144027Y-88875000D01*
X203175000Y-88875000D01*
X203175000Y-87844046D01*
X203225000Y-87844046D01*
X203225000Y-88875000D01*
X204255973Y-88875000D01*
X204306965Y-88699362D01*
X204633035Y-88699362D01*
X204684027Y-88875000D01*
X205715000Y-88875000D01*
X205715000Y-87844046D01*
X205765000Y-87844046D01*
X205765000Y-88875000D01*
X206795973Y-88875000D01*
X206846965Y-88699362D01*
X207173035Y-88699362D01*
X207224027Y-88875000D01*
X208255000Y-88875000D01*
X208255000Y-87844046D01*
X208305000Y-87844046D01*
X208305000Y-88875000D01*
X209335973Y-88875000D01*
X209386965Y-88699362D01*
X209326552Y-88487259D01*
X209225921Y-88291018D01*
X209088939Y-88118179D01*
X209008693Y-88050000D01*
X209693669Y-88050000D01*
X209695000Y-88806250D01*
X209763750Y-88875000D01*
X210795000Y-88875000D01*
X210795000Y-87843750D01*
X210845000Y-87843750D01*
X210845000Y-88875000D01*
X211876250Y-88875000D01*
X211945000Y-88806250D01*
X211946331Y-88050000D01*
X211941021Y-87996090D01*
X211925297Y-87944253D01*
X211899761Y-87896479D01*
X211865396Y-87854604D01*
X211823521Y-87820239D01*
X211775747Y-87794703D01*
X211723910Y-87778979D01*
X211670000Y-87773669D01*
X210913750Y-87775000D01*
X210845000Y-87843750D01*
X210795000Y-87843750D01*
X210726250Y-87775000D01*
X209970000Y-87773669D01*
X209916090Y-87778979D01*
X209864253Y-87794703D01*
X209816479Y-87820239D01*
X209774604Y-87854604D01*
X209740239Y-87896479D01*
X209714703Y-87944253D01*
X209698979Y-87996090D01*
X209693669Y-88050000D01*
X209008693Y-88050000D01*
X208920870Y-87975385D01*
X208728172Y-87868124D01*
X208518251Y-87800517D01*
X208480637Y-87793036D01*
X208305000Y-87844046D01*
X208255000Y-87844046D01*
X208079363Y-87793036D01*
X208041749Y-87800517D01*
X207831828Y-87868124D01*
X207639130Y-87975385D01*
X207471061Y-88118179D01*
X207334079Y-88291018D01*
X207233448Y-88487259D01*
X207173035Y-88699362D01*
X206846965Y-88699362D01*
X206786552Y-88487259D01*
X206685921Y-88291018D01*
X206548939Y-88118179D01*
X206380870Y-87975385D01*
X206188172Y-87868124D01*
X205978251Y-87800517D01*
X205940637Y-87793036D01*
X205765000Y-87844046D01*
X205715000Y-87844046D01*
X205539363Y-87793036D01*
X205501749Y-87800517D01*
X205291828Y-87868124D01*
X205099130Y-87975385D01*
X204931061Y-88118179D01*
X204794079Y-88291018D01*
X204693448Y-88487259D01*
X204633035Y-88699362D01*
X204306965Y-88699362D01*
X204246552Y-88487259D01*
X204145921Y-88291018D01*
X204008939Y-88118179D01*
X203840870Y-87975385D01*
X203648172Y-87868124D01*
X203438251Y-87800517D01*
X203400637Y-87793036D01*
X203225000Y-87844046D01*
X203175000Y-87844046D01*
X202999363Y-87793036D01*
X202961749Y-87800517D01*
X202751828Y-87868124D01*
X202559130Y-87975385D01*
X202391061Y-88118179D01*
X202254079Y-88291018D01*
X202153448Y-88487259D01*
X202093035Y-88699362D01*
X196686965Y-88699362D01*
X196626552Y-88487259D01*
X196525921Y-88291018D01*
X196388939Y-88118179D01*
X196220870Y-87975385D01*
X196028172Y-87868124D01*
X195818251Y-87800517D01*
X195780637Y-87793036D01*
X195605000Y-87844046D01*
X195555000Y-87844046D01*
X195379363Y-87793036D01*
X195341749Y-87800517D01*
X195131828Y-87868124D01*
X194939130Y-87975385D01*
X194771061Y-88118179D01*
X194634079Y-88291018D01*
X194533448Y-88487259D01*
X194473035Y-88699362D01*
X194146965Y-88699362D01*
X194086552Y-88487259D01*
X193985921Y-88291018D01*
X193848939Y-88118179D01*
X193680870Y-87975385D01*
X193488172Y-87868124D01*
X193278251Y-87800517D01*
X193240637Y-87793036D01*
X193065000Y-87844046D01*
X193015000Y-87844046D01*
X192839363Y-87793036D01*
X192801749Y-87800517D01*
X192591828Y-87868124D01*
X192399130Y-87975385D01*
X192231061Y-88118179D01*
X192094079Y-88291018D01*
X191993448Y-88487259D01*
X191933035Y-88699362D01*
X191606965Y-88699362D01*
X191546552Y-88487259D01*
X191445921Y-88291018D01*
X191308939Y-88118179D01*
X191140870Y-87975385D01*
X190948172Y-87868124D01*
X190738251Y-87800517D01*
X190700637Y-87793036D01*
X190525000Y-87844046D01*
X190475000Y-87844046D01*
X190299363Y-87793036D01*
X190261749Y-87800517D01*
X190051828Y-87868124D01*
X189859130Y-87975385D01*
X189691061Y-88118179D01*
X189554079Y-88291018D01*
X189453448Y-88487259D01*
X189393035Y-88699362D01*
X189085188Y-88699362D01*
X189086331Y-88050000D01*
X189081021Y-87996090D01*
X189065297Y-87944253D01*
X189039761Y-87896479D01*
X189005396Y-87854604D01*
X188963521Y-87820239D01*
X188915747Y-87794703D01*
X188863910Y-87778979D01*
X188810000Y-87773669D01*
X188053750Y-87775000D01*
X187985000Y-87843750D01*
X187935000Y-87843750D01*
X187866250Y-87775000D01*
X187110000Y-87773669D01*
X187056090Y-87778979D01*
X187004253Y-87794703D01*
X186956479Y-87820239D01*
X186914604Y-87854604D01*
X186880239Y-87896479D01*
X186854703Y-87944253D01*
X186838979Y-87996090D01*
X186833669Y-88050000D01*
X181466331Y-88050000D01*
X181461021Y-87996090D01*
X181445297Y-87944253D01*
X181419761Y-87896479D01*
X181385396Y-87854604D01*
X181343521Y-87820239D01*
X181295747Y-87794703D01*
X181243910Y-87778979D01*
X181190000Y-87773669D01*
X180433750Y-87775000D01*
X180365000Y-87843750D01*
X180315000Y-87843750D01*
X180246250Y-87775000D01*
X179490000Y-87773669D01*
X179436090Y-87778979D01*
X179384253Y-87794703D01*
X179336479Y-87820239D01*
X179294604Y-87854604D01*
X179260239Y-87896479D01*
X179234703Y-87944253D01*
X179218979Y-87996090D01*
X179213669Y-88050000D01*
X178528693Y-88050000D01*
X178440870Y-87975385D01*
X178248172Y-87868124D01*
X178038251Y-87800517D01*
X178000637Y-87793036D01*
X177825000Y-87844046D01*
X177775000Y-87844046D01*
X177599363Y-87793036D01*
X177561749Y-87800517D01*
X177351828Y-87868124D01*
X177159130Y-87975385D01*
X176991061Y-88118179D01*
X176854079Y-88291018D01*
X176753448Y-88487259D01*
X176693035Y-88699362D01*
X176366965Y-88699362D01*
X176306552Y-88487259D01*
X176205921Y-88291018D01*
X176068939Y-88118179D01*
X175900870Y-87975385D01*
X175708172Y-87868124D01*
X175498251Y-87800517D01*
X175460637Y-87793036D01*
X175285000Y-87844046D01*
X175235000Y-87844046D01*
X175059363Y-87793036D01*
X175021749Y-87800517D01*
X174811828Y-87868124D01*
X174619130Y-87975385D01*
X174451061Y-88118179D01*
X174314079Y-88291018D01*
X174213448Y-88487259D01*
X174153035Y-88699362D01*
X173826965Y-88699362D01*
X173766552Y-88487259D01*
X173665921Y-88291018D01*
X173528939Y-88118179D01*
X173360870Y-87975385D01*
X173168172Y-87868124D01*
X172958251Y-87800517D01*
X172920637Y-87793036D01*
X172745000Y-87844046D01*
X172695000Y-87844046D01*
X172519363Y-87793036D01*
X172481749Y-87800517D01*
X172271828Y-87868124D01*
X172079130Y-87975385D01*
X171911061Y-88118179D01*
X171774079Y-88291018D01*
X171673448Y-88487259D01*
X171613035Y-88699362D01*
X167382000Y-88699362D01*
X167382000Y-85546292D01*
X216645000Y-85546292D01*
X216645000Y-85649708D01*
X216665176Y-85751137D01*
X216704751Y-85846681D01*
X216762206Y-85932668D01*
X216835332Y-86005794D01*
X216921319Y-86063249D01*
X217016863Y-86102824D01*
X217118292Y-86123000D01*
X217221708Y-86123000D01*
X217323137Y-86102824D01*
X217418681Y-86063249D01*
X217504668Y-86005794D01*
X217577794Y-85932668D01*
X217635249Y-85846681D01*
X217674824Y-85751137D01*
X217695000Y-85649708D01*
X217695000Y-85546292D01*
X217674824Y-85444863D01*
X217635249Y-85349319D01*
X217577794Y-85263332D01*
X217504668Y-85190206D01*
X217418681Y-85132751D01*
X217323137Y-85093176D01*
X217221708Y-85073000D01*
X217118292Y-85073000D01*
X217016863Y-85093176D01*
X216921319Y-85132751D01*
X216835332Y-85190206D01*
X216762206Y-85263332D01*
X216704751Y-85349319D01*
X216665176Y-85444863D01*
X216645000Y-85546292D01*
X167382000Y-85546292D01*
X167382000Y-83387292D01*
X211184000Y-83387292D01*
X211184000Y-83490708D01*
X211204176Y-83592137D01*
X211243751Y-83687681D01*
X211301206Y-83773668D01*
X211374332Y-83846794D01*
X211460319Y-83904249D01*
X211555863Y-83943824D01*
X211657292Y-83964000D01*
X211760708Y-83964000D01*
X211862137Y-83943824D01*
X211957681Y-83904249D01*
X212043668Y-83846794D01*
X212116794Y-83773668D01*
X212174249Y-83687681D01*
X212213824Y-83592137D01*
X212234000Y-83490708D01*
X212234000Y-83387292D01*
X212835000Y-83387292D01*
X212835000Y-83490708D01*
X212855176Y-83592137D01*
X212894751Y-83687681D01*
X212952206Y-83773668D01*
X213025332Y-83846794D01*
X213111319Y-83904249D01*
X213206863Y-83943824D01*
X213308292Y-83964000D01*
X213411708Y-83964000D01*
X213513137Y-83943824D01*
X213608681Y-83904249D01*
X213694668Y-83846794D01*
X213767794Y-83773668D01*
X213825249Y-83687681D01*
X213864824Y-83592137D01*
X213885000Y-83490708D01*
X213885000Y-83387292D01*
X213872369Y-83323792D01*
X214422500Y-83323792D01*
X214422500Y-83427208D01*
X214442676Y-83528637D01*
X214482251Y-83624181D01*
X214539706Y-83710168D01*
X214612832Y-83783294D01*
X214698819Y-83840749D01*
X214794363Y-83880324D01*
X214895792Y-83900500D01*
X214999208Y-83900500D01*
X215100637Y-83880324D01*
X215196181Y-83840749D01*
X215282168Y-83783294D01*
X215355294Y-83710168D01*
X215412749Y-83624181D01*
X215452324Y-83528637D01*
X215472500Y-83427208D01*
X215472500Y-83323792D01*
X215452324Y-83222363D01*
X215412749Y-83126819D01*
X215355294Y-83040832D01*
X215282168Y-82967706D01*
X215196181Y-82910251D01*
X215100637Y-82870676D01*
X214999208Y-82850500D01*
X214895792Y-82850500D01*
X214794363Y-82870676D01*
X214698819Y-82910251D01*
X214612832Y-82967706D01*
X214539706Y-83040832D01*
X214482251Y-83126819D01*
X214442676Y-83222363D01*
X214422500Y-83323792D01*
X213872369Y-83323792D01*
X213864824Y-83285863D01*
X213825249Y-83190319D01*
X213767794Y-83104332D01*
X213694668Y-83031206D01*
X213608681Y-82973751D01*
X213513137Y-82934176D01*
X213411708Y-82914000D01*
X213308292Y-82914000D01*
X213206863Y-82934176D01*
X213111319Y-82973751D01*
X213025332Y-83031206D01*
X212952206Y-83104332D01*
X212894751Y-83190319D01*
X212855176Y-83285863D01*
X212835000Y-83387292D01*
X212234000Y-83387292D01*
X212213824Y-83285863D01*
X212174249Y-83190319D01*
X212116794Y-83104332D01*
X212043668Y-83031206D01*
X211957681Y-82973751D01*
X211862137Y-82934176D01*
X211760708Y-82914000D01*
X211657292Y-82914000D01*
X211555863Y-82934176D01*
X211460319Y-82973751D01*
X211374332Y-83031206D01*
X211301206Y-83104332D01*
X211243751Y-83190319D01*
X211204176Y-83285863D01*
X211184000Y-83387292D01*
X167382000Y-83387292D01*
X167382000Y-81736292D01*
X211184000Y-81736292D01*
X211184000Y-81839708D01*
X211204176Y-81941137D01*
X211243751Y-82036681D01*
X211301206Y-82122668D01*
X211374332Y-82195794D01*
X211460319Y-82253249D01*
X211555863Y-82292824D01*
X211657292Y-82313000D01*
X211760708Y-82313000D01*
X211862137Y-82292824D01*
X211957681Y-82253249D01*
X212043668Y-82195794D01*
X212116794Y-82122668D01*
X212174249Y-82036681D01*
X212213824Y-81941137D01*
X212234000Y-81839708D01*
X212234000Y-81736292D01*
X214486000Y-81736292D01*
X214486000Y-81839708D01*
X214506176Y-81941137D01*
X214545751Y-82036681D01*
X214603206Y-82122668D01*
X214676332Y-82195794D01*
X214762319Y-82253249D01*
X214857863Y-82292824D01*
X214959292Y-82313000D01*
X215062708Y-82313000D01*
X215164137Y-82292824D01*
X215259681Y-82253249D01*
X215345668Y-82195794D01*
X215418794Y-82122668D01*
X215476249Y-82036681D01*
X215515824Y-81941137D01*
X215536000Y-81839708D01*
X215536000Y-81736292D01*
X215515824Y-81634863D01*
X215476249Y-81539319D01*
X215418794Y-81453332D01*
X215345668Y-81380206D01*
X215259681Y-81322751D01*
X215164137Y-81283176D01*
X215062708Y-81263000D01*
X214959292Y-81263000D01*
X214857863Y-81283176D01*
X214762319Y-81322751D01*
X214676332Y-81380206D01*
X214603206Y-81453332D01*
X214545751Y-81539319D01*
X214506176Y-81634863D01*
X214486000Y-81736292D01*
X212234000Y-81736292D01*
X212213824Y-81634863D01*
X212174249Y-81539319D01*
X212116794Y-81453332D01*
X212043668Y-81380206D01*
X211957681Y-81322751D01*
X211862137Y-81283176D01*
X211760708Y-81263000D01*
X211657292Y-81263000D01*
X211555863Y-81283176D01*
X211460319Y-81322751D01*
X211374332Y-81380206D01*
X211301206Y-81453332D01*
X211243751Y-81539319D01*
X211204176Y-81634863D01*
X211184000Y-81736292D01*
X167382000Y-81736292D01*
X167382000Y-80085292D01*
X211184000Y-80085292D01*
X211184000Y-80188708D01*
X211204176Y-80290137D01*
X211243751Y-80385681D01*
X211301206Y-80471668D01*
X211374332Y-80544794D01*
X211460319Y-80602249D01*
X211555863Y-80641824D01*
X211657292Y-80662000D01*
X211760708Y-80662000D01*
X211862137Y-80641824D01*
X211957681Y-80602249D01*
X212043668Y-80544794D01*
X212116794Y-80471668D01*
X212174249Y-80385681D01*
X212213824Y-80290137D01*
X212234000Y-80188708D01*
X212234000Y-80085292D01*
X212835000Y-80085292D01*
X212835000Y-80188708D01*
X212855176Y-80290137D01*
X212894751Y-80385681D01*
X212952206Y-80471668D01*
X213025332Y-80544794D01*
X213111319Y-80602249D01*
X213206863Y-80641824D01*
X213308292Y-80662000D01*
X213411708Y-80662000D01*
X213513137Y-80641824D01*
X213608681Y-80602249D01*
X213694668Y-80544794D01*
X213767794Y-80471668D01*
X213825249Y-80385681D01*
X213864824Y-80290137D01*
X213885000Y-80188708D01*
X213885000Y-80085292D01*
X214486000Y-80085292D01*
X214486000Y-80188708D01*
X214506176Y-80290137D01*
X214545751Y-80385681D01*
X214603206Y-80471668D01*
X214676332Y-80544794D01*
X214762319Y-80602249D01*
X214857863Y-80641824D01*
X214959292Y-80662000D01*
X215062708Y-80662000D01*
X215164137Y-80641824D01*
X215259681Y-80602249D01*
X215345668Y-80544794D01*
X215418794Y-80471668D01*
X215476249Y-80385681D01*
X215515824Y-80290137D01*
X215536000Y-80188708D01*
X215536000Y-80085292D01*
X215515824Y-79983863D01*
X215476249Y-79888319D01*
X215418794Y-79802332D01*
X215345668Y-79729206D01*
X215259681Y-79671751D01*
X215164137Y-79632176D01*
X215062708Y-79612000D01*
X214959292Y-79612000D01*
X214857863Y-79632176D01*
X214762319Y-79671751D01*
X214676332Y-79729206D01*
X214603206Y-79802332D01*
X214545751Y-79888319D01*
X214506176Y-79983863D01*
X214486000Y-80085292D01*
X213885000Y-80085292D01*
X213864824Y-79983863D01*
X213825249Y-79888319D01*
X213767794Y-79802332D01*
X213694668Y-79729206D01*
X213608681Y-79671751D01*
X213513137Y-79632176D01*
X213411708Y-79612000D01*
X213308292Y-79612000D01*
X213206863Y-79632176D01*
X213111319Y-79671751D01*
X213025332Y-79729206D01*
X212952206Y-79802332D01*
X212894751Y-79888319D01*
X212855176Y-79983863D01*
X212835000Y-80085292D01*
X212234000Y-80085292D01*
X212213824Y-79983863D01*
X212174249Y-79888319D01*
X212116794Y-79802332D01*
X212043668Y-79729206D01*
X211957681Y-79671751D01*
X211862137Y-79632176D01*
X211760708Y-79612000D01*
X211657292Y-79612000D01*
X211555863Y-79632176D01*
X211460319Y-79671751D01*
X211374332Y-79729206D01*
X211301206Y-79802332D01*
X211243751Y-79888319D01*
X211204176Y-79983863D01*
X211184000Y-80085292D01*
X167382000Y-80085292D01*
X167382000Y-78228000D01*
X218444000Y-78228000D01*
X218444000Y-101074306D01*
G37*
X218444000Y-101074306D02*
X218440000Y-101073912D01*
X217359138Y-101073912D01*
X217418681Y-101049249D01*
X217504668Y-100991794D01*
X217577794Y-100918668D01*
X217635249Y-100832681D01*
X217674824Y-100737137D01*
X217695000Y-100635708D01*
X217695000Y-100532292D01*
X217674824Y-100430863D01*
X217635249Y-100335319D01*
X217577794Y-100249332D01*
X217504668Y-100176206D01*
X217418681Y-100118751D01*
X217323137Y-100079176D01*
X217221708Y-100059000D01*
X217118292Y-100059000D01*
X217016863Y-100079176D01*
X216921319Y-100118751D01*
X216835332Y-100176206D01*
X216762206Y-100249332D01*
X216704751Y-100335319D01*
X216665176Y-100430863D01*
X216645000Y-100532292D01*
X216645000Y-100635708D01*
X216665176Y-100737137D01*
X216704751Y-100832681D01*
X216762206Y-100918668D01*
X216835332Y-100991794D01*
X216921319Y-101049249D01*
X216980862Y-101073912D01*
X215900000Y-101073912D01*
X215855892Y-101078256D01*
X215813480Y-101091122D01*
X215774392Y-101112015D01*
X215740132Y-101140132D01*
X215712015Y-101174392D01*
X215691122Y-101213480D01*
X215689267Y-101219593D01*
X209564654Y-95094981D01*
X209553685Y-95081615D01*
X209500390Y-95037878D01*
X209439587Y-95005378D01*
X209373612Y-94985365D01*
X209322189Y-94980300D01*
X209322188Y-94980300D01*
X209305000Y-94978607D01*
X209287812Y-94980300D01*
X203005175Y-94980300D01*
X199358996Y-91334122D01*
X202125000Y-91334122D01*
X202125000Y-91545878D01*
X202166312Y-91753566D01*
X202247348Y-91949203D01*
X202364993Y-92125272D01*
X202514728Y-92275007D01*
X202690797Y-92392652D01*
X202886434Y-92473688D01*
X203094122Y-92515000D01*
X203305878Y-92515000D01*
X203513566Y-92473688D01*
X203709203Y-92392652D01*
X203885272Y-92275007D01*
X204035007Y-92125272D01*
X204152652Y-91949203D01*
X204233688Y-91753566D01*
X204275000Y-91545878D01*
X204275000Y-91334122D01*
X204665000Y-91334122D01*
X204665000Y-91545878D01*
X204706312Y-91753566D01*
X204787348Y-91949203D01*
X204904993Y-92125272D01*
X205054728Y-92275007D01*
X205230797Y-92392652D01*
X205426434Y-92473688D01*
X205634122Y-92515000D01*
X205845878Y-92515000D01*
X206053566Y-92473688D01*
X206249203Y-92392652D01*
X206425272Y-92275007D01*
X206575007Y-92125272D01*
X206692652Y-91949203D01*
X206773688Y-91753566D01*
X206815000Y-91545878D01*
X206815000Y-91334122D01*
X207205000Y-91334122D01*
X207205000Y-91545878D01*
X207246312Y-91753566D01*
X207327348Y-91949203D01*
X207444993Y-92125272D01*
X207594728Y-92275007D01*
X207770797Y-92392652D01*
X207966434Y-92473688D01*
X208174122Y-92515000D01*
X208385878Y-92515000D01*
X208593566Y-92473688D01*
X208789203Y-92392652D01*
X208965272Y-92275007D01*
X209115007Y-92125272D01*
X209232652Y-91949203D01*
X209313688Y-91753566D01*
X209355000Y-91545878D01*
X209355000Y-91334122D01*
X209313688Y-91126434D01*
X209232652Y-90930797D01*
X209115007Y-90754728D01*
X208965272Y-90604993D01*
X208942834Y-90590000D01*
X209743912Y-90590000D01*
X209743912Y-92290000D01*
X209748256Y-92334108D01*
X209761122Y-92376520D01*
X209782015Y-92415608D01*
X209810132Y-92449868D01*
X209844392Y-92477985D01*
X209883480Y-92498878D01*
X209925892Y-92511744D01*
X209970000Y-92516088D01*
X211670000Y-92516088D01*
X211714108Y-92511744D01*
X211756520Y-92498878D01*
X211795608Y-92477985D01*
X211829868Y-92449868D01*
X211857985Y-92415608D01*
X211878878Y-92376520D01*
X211891744Y-92334108D01*
X211896088Y-92290000D01*
X211896088Y-90590000D01*
X211891744Y-90545892D01*
X211878878Y-90503480D01*
X211857985Y-90464392D01*
X211829868Y-90430132D01*
X211795608Y-90402015D01*
X211756520Y-90381122D01*
X211714108Y-90368256D01*
X211670000Y-90363912D01*
X209970000Y-90363912D01*
X209925892Y-90368256D01*
X209883480Y-90381122D01*
X209844392Y-90402015D01*
X209810132Y-90430132D01*
X209782015Y-90464392D01*
X209761122Y-90503480D01*
X209748256Y-90545892D01*
X209743912Y-90590000D01*
X208942834Y-90590000D01*
X208789203Y-90487348D01*
X208593566Y-90406312D01*
X208385878Y-90365000D01*
X208174122Y-90365000D01*
X207966434Y-90406312D01*
X207770797Y-90487348D01*
X207594728Y-90604993D01*
X207444993Y-90754728D01*
X207327348Y-90930797D01*
X207246312Y-91126434D01*
X207205000Y-91334122D01*
X206815000Y-91334122D01*
X206773688Y-91126434D01*
X206692652Y-90930797D01*
X206575007Y-90754728D01*
X206425272Y-90604993D01*
X206249203Y-90487348D01*
X206053566Y-90406312D01*
X205845878Y-90365000D01*
X205634122Y-90365000D01*
X205426434Y-90406312D01*
X205230797Y-90487348D01*
X205054728Y-90604993D01*
X204904993Y-90754728D01*
X204787348Y-90930797D01*
X204706312Y-91126434D01*
X204665000Y-91334122D01*
X204275000Y-91334122D01*
X204233688Y-91126434D01*
X204152652Y-90930797D01*
X204035007Y-90754728D01*
X203885272Y-90604993D01*
X203709203Y-90487348D01*
X203513566Y-90406312D01*
X203305878Y-90365000D01*
X203094122Y-90365000D01*
X202886434Y-90406312D01*
X202690797Y-90487348D01*
X202514728Y-90604993D01*
X202364993Y-90754728D01*
X202247348Y-90930797D01*
X202166312Y-91126434D01*
X202125000Y-91334122D01*
X199358996Y-91334122D01*
X198054254Y-90029381D01*
X198043285Y-90016015D01*
X197989990Y-89972278D01*
X197929187Y-89939778D01*
X197863212Y-89919765D01*
X197811789Y-89914700D01*
X197811788Y-89914700D01*
X197794600Y-89913007D01*
X197777412Y-89914700D01*
X196059029Y-89914700D01*
X196220870Y-89824615D01*
X196388939Y-89681821D01*
X196525921Y-89508982D01*
X196626552Y-89312741D01*
X196686965Y-89100638D01*
X202093035Y-89100638D01*
X202153448Y-89312741D01*
X202254079Y-89508982D01*
X202391061Y-89681821D01*
X202559130Y-89824615D01*
X202751828Y-89931876D01*
X202961749Y-89999483D01*
X202999363Y-90006964D01*
X203175000Y-89955954D01*
X203175000Y-88925000D01*
X203225000Y-88925000D01*
X203225000Y-89955954D01*
X203400637Y-90006964D01*
X203438251Y-89999483D01*
X203648172Y-89931876D01*
X203840870Y-89824615D01*
X204008939Y-89681821D01*
X204145921Y-89508982D01*
X204246552Y-89312741D01*
X204306965Y-89100638D01*
X204633035Y-89100638D01*
X204693448Y-89312741D01*
X204794079Y-89508982D01*
X204931061Y-89681821D01*
X205099130Y-89824615D01*
X205291828Y-89931876D01*
X205501749Y-89999483D01*
X205539363Y-90006964D01*
X205715000Y-89955954D01*
X205715000Y-88925000D01*
X205765000Y-88925000D01*
X205765000Y-89955954D01*
X205940637Y-90006964D01*
X205978251Y-89999483D01*
X206188172Y-89931876D01*
X206380870Y-89824615D01*
X206548939Y-89681821D01*
X206685921Y-89508982D01*
X206786552Y-89312741D01*
X206846965Y-89100638D01*
X207173035Y-89100638D01*
X207233448Y-89312741D01*
X207334079Y-89508982D01*
X207471061Y-89681821D01*
X207639130Y-89824615D01*
X207831828Y-89931876D01*
X208041749Y-89999483D01*
X208079363Y-90006964D01*
X208255000Y-89955954D01*
X208255000Y-88925000D01*
X208305000Y-88925000D01*
X208305000Y-89955954D01*
X208480637Y-90006964D01*
X208518251Y-89999483D01*
X208728172Y-89931876D01*
X208920870Y-89824615D01*
X209008692Y-89750000D01*
X209693669Y-89750000D01*
X209698979Y-89803910D01*
X209714703Y-89855747D01*
X209740239Y-89903521D01*
X209774604Y-89945396D01*
X209816479Y-89979761D01*
X209864253Y-90005297D01*
X209916090Y-90021021D01*
X209970000Y-90026331D01*
X210726250Y-90025000D01*
X210795000Y-89956250D01*
X210795000Y-88925000D01*
X210845000Y-88925000D01*
X210845000Y-89956250D01*
X210913750Y-90025000D01*
X211670000Y-90026331D01*
X211723910Y-90021021D01*
X211775747Y-90005297D01*
X211823521Y-89979761D01*
X211865396Y-89945396D01*
X211899761Y-89903521D01*
X211925297Y-89855747D01*
X211941021Y-89803910D01*
X211946331Y-89750000D01*
X211945000Y-88993750D01*
X211876250Y-88925000D01*
X210845000Y-88925000D01*
X210795000Y-88925000D01*
X209763750Y-88925000D01*
X209695000Y-88993750D01*
X209693669Y-89750000D01*
X209008692Y-89750000D01*
X209088939Y-89681821D01*
X209225921Y-89508982D01*
X209326552Y-89312741D01*
X209386965Y-89100638D01*
X209335973Y-88925000D01*
X208305000Y-88925000D01*
X208255000Y-88925000D01*
X207224027Y-88925000D01*
X207173035Y-89100638D01*
X206846965Y-89100638D01*
X206795973Y-88925000D01*
X205765000Y-88925000D01*
X205715000Y-88925000D01*
X204684027Y-88925000D01*
X204633035Y-89100638D01*
X204306965Y-89100638D01*
X204255973Y-88925000D01*
X203225000Y-88925000D01*
X203175000Y-88925000D01*
X202144027Y-88925000D01*
X202093035Y-89100638D01*
X196686965Y-89100638D01*
X196635973Y-88925000D01*
X195605000Y-88925000D01*
X195605000Y-88945000D01*
X195555000Y-88945000D01*
X195555000Y-88925000D01*
X194524027Y-88925000D01*
X194473035Y-89100638D01*
X194533448Y-89312741D01*
X194634079Y-89508982D01*
X194771061Y-89681821D01*
X194939130Y-89824615D01*
X195100971Y-89914700D01*
X193519029Y-89914700D01*
X193680870Y-89824615D01*
X193848939Y-89681821D01*
X193985921Y-89508982D01*
X194086552Y-89312741D01*
X194146965Y-89100638D01*
X194095973Y-88925000D01*
X193065000Y-88925000D01*
X193065000Y-88945000D01*
X193015000Y-88945000D01*
X193015000Y-88925000D01*
X191984027Y-88925000D01*
X191933035Y-89100638D01*
X191993448Y-89312741D01*
X192094079Y-89508982D01*
X192231061Y-89681821D01*
X192399130Y-89824615D01*
X192560971Y-89914700D01*
X190979029Y-89914700D01*
X191140870Y-89824615D01*
X191308939Y-89681821D01*
X191445921Y-89508982D01*
X191546552Y-89312741D01*
X191606965Y-89100638D01*
X191555973Y-88925000D01*
X190525000Y-88925000D01*
X190525000Y-88945000D01*
X190475000Y-88945000D01*
X190475000Y-88925000D01*
X189444027Y-88925000D01*
X189393035Y-89100638D01*
X189453448Y-89312741D01*
X189554079Y-89508982D01*
X189691061Y-89681821D01*
X189859130Y-89824615D01*
X190020971Y-89914700D01*
X189030587Y-89914700D01*
X189039761Y-89903521D01*
X189065297Y-89855747D01*
X189081021Y-89803910D01*
X189086331Y-89750000D01*
X189085000Y-88993750D01*
X189016250Y-88925000D01*
X187985000Y-88925000D01*
X187985000Y-88945000D01*
X187935000Y-88945000D01*
X187935000Y-88925000D01*
X186903750Y-88925000D01*
X186835000Y-88993750D01*
X186833669Y-89750000D01*
X186838979Y-89803910D01*
X186854703Y-89855747D01*
X186880239Y-89903521D01*
X186889413Y-89914700D01*
X182707788Y-89914700D01*
X182690599Y-89913007D01*
X182621987Y-89919765D01*
X182601974Y-89925836D01*
X182556013Y-89939778D01*
X182495210Y-89972278D01*
X182441915Y-90016015D01*
X182430955Y-90029370D01*
X181416088Y-91044239D01*
X181416088Y-90590000D01*
X181411744Y-90545892D01*
X181398878Y-90503480D01*
X181377985Y-90464392D01*
X181349868Y-90430132D01*
X181315608Y-90402015D01*
X181276520Y-90381122D01*
X181234108Y-90368256D01*
X181190000Y-90363912D01*
X179490000Y-90363912D01*
X179445892Y-90368256D01*
X179403480Y-90381122D01*
X179364392Y-90402015D01*
X179330132Y-90430132D01*
X179302015Y-90464392D01*
X179281122Y-90503480D01*
X179268256Y-90545892D01*
X179263912Y-90590000D01*
X179263912Y-92290000D01*
X179268256Y-92334108D01*
X179281122Y-92376520D01*
X179302015Y-92415608D01*
X179330132Y-92449868D01*
X179364392Y-92477985D01*
X179403480Y-92498878D01*
X179445892Y-92511744D01*
X179490000Y-92516088D01*
X181190000Y-92516088D01*
X181234108Y-92511744D01*
X181276520Y-92498878D01*
X181315608Y-92477985D01*
X181349868Y-92449868D01*
X181377985Y-92415608D01*
X181398878Y-92376520D01*
X181411744Y-92334108D01*
X181416088Y-92290000D01*
X181416088Y-91790000D01*
X181498112Y-91790000D01*
X181515300Y-91791693D01*
X181532488Y-91790000D01*
X181532489Y-91790000D01*
X181583912Y-91784935D01*
X181649887Y-91764922D01*
X181710690Y-91732422D01*
X181763985Y-91688685D01*
X181774953Y-91675320D01*
X182835575Y-90614700D01*
X186883912Y-90614700D01*
X186883912Y-92290000D01*
X186888256Y-92334108D01*
X186901122Y-92376520D01*
X186922015Y-92415608D01*
X186950132Y-92449868D01*
X186984392Y-92477985D01*
X187023480Y-92498878D01*
X187065892Y-92511744D01*
X187110000Y-92516088D01*
X188810000Y-92516088D01*
X188854108Y-92511744D01*
X188896520Y-92498878D01*
X188935608Y-92477985D01*
X188969868Y-92449868D01*
X188997985Y-92415608D01*
X189018878Y-92376520D01*
X189031744Y-92334108D01*
X189036088Y-92290000D01*
X189036088Y-90614700D01*
X189805021Y-90614700D01*
X189664993Y-90754728D01*
X189547348Y-90930797D01*
X189466312Y-91126434D01*
X189425000Y-91334122D01*
X189425000Y-91545878D01*
X189466312Y-91753566D01*
X189547348Y-91949203D01*
X189664993Y-92125272D01*
X189814728Y-92275007D01*
X189990797Y-92392652D01*
X190186434Y-92473688D01*
X190394122Y-92515000D01*
X190605878Y-92515000D01*
X190813566Y-92473688D01*
X191009203Y-92392652D01*
X191185272Y-92275007D01*
X191335007Y-92125272D01*
X191452652Y-91949203D01*
X191533688Y-91753566D01*
X191575000Y-91545878D01*
X191575000Y-91334122D01*
X191533688Y-91126434D01*
X191452652Y-90930797D01*
X191335007Y-90754728D01*
X191194979Y-90614700D01*
X192345021Y-90614700D01*
X192204993Y-90754728D01*
X192087348Y-90930797D01*
X192006312Y-91126434D01*
X191965000Y-91334122D01*
X191965000Y-91545878D01*
X192006312Y-91753566D01*
X192087348Y-91949203D01*
X192204993Y-92125272D01*
X192354728Y-92275007D01*
X192530797Y-92392652D01*
X192726434Y-92473688D01*
X192934122Y-92515000D01*
X193145878Y-92515000D01*
X193353566Y-92473688D01*
X193549203Y-92392652D01*
X193725272Y-92275007D01*
X193842979Y-92157300D01*
X194070327Y-92157300D01*
X198209156Y-96296131D01*
X198220115Y-96309485D01*
X198273410Y-96353222D01*
X198315839Y-96375901D01*
X185790587Y-96375901D01*
X185773398Y-96374208D01*
X185756210Y-96375901D01*
X185704787Y-96380966D01*
X185638812Y-96400979D01*
X185578009Y-96433479D01*
X185524714Y-96477216D01*
X185513750Y-96490576D01*
X185403426Y-96600900D01*
X185321692Y-96600900D01*
X185220263Y-96621076D01*
X185124719Y-96660651D01*
X185038732Y-96718106D01*
X184965606Y-96791232D01*
X184908151Y-96877219D01*
X184868576Y-96972763D01*
X184848400Y-97074192D01*
X184848400Y-97177608D01*
X184868576Y-97279037D01*
X184908151Y-97374581D01*
X184965606Y-97460568D01*
X185038732Y-97533694D01*
X185124719Y-97591149D01*
X185220263Y-97630724D01*
X185321692Y-97650900D01*
X185425108Y-97650900D01*
X185526537Y-97630724D01*
X185622081Y-97591149D01*
X185708068Y-97533694D01*
X185781194Y-97460568D01*
X185838649Y-97374581D01*
X185878224Y-97279037D01*
X185898400Y-97177608D01*
X185898400Y-97095874D01*
X185918373Y-97075901D01*
X204774226Y-97075901D01*
X205718224Y-98019900D01*
X184874875Y-98019900D01*
X178767743Y-91912770D01*
X178833688Y-91753566D01*
X178875000Y-91545878D01*
X178875000Y-91334122D01*
X178833688Y-91126434D01*
X178752652Y-90930797D01*
X178635007Y-90754728D01*
X178485272Y-90604993D01*
X178309203Y-90487348D01*
X178113566Y-90406312D01*
X177905878Y-90365000D01*
X177694122Y-90365000D01*
X177486434Y-90406312D01*
X177290797Y-90487348D01*
X177114728Y-90604993D01*
X176964993Y-90754728D01*
X176847348Y-90930797D01*
X176766312Y-91126434D01*
X176725000Y-91334122D01*
X176725000Y-91545878D01*
X176766312Y-91753566D01*
X176847348Y-91949203D01*
X176964993Y-92125272D01*
X177114728Y-92275007D01*
X177290797Y-92392652D01*
X177486434Y-92473688D01*
X177694122Y-92515000D01*
X177905878Y-92515000D01*
X178113566Y-92473688D01*
X178272770Y-92407743D01*
X184470256Y-98605231D01*
X184481215Y-98618585D01*
X184534510Y-98662322D01*
X184595313Y-98694822D01*
X184661288Y-98714835D01*
X184729900Y-98721594D01*
X184747096Y-98719900D01*
X205717827Y-98719900D01*
X215183256Y-108185331D01*
X215194215Y-108198685D01*
X215247510Y-108242422D01*
X215308313Y-108274922D01*
X215374288Y-108294935D01*
X215425711Y-108300000D01*
X215425713Y-108300000D01*
X215442899Y-108301693D01*
X215460085Y-108300000D01*
X215680043Y-108300000D01*
X215691122Y-108336520D01*
X215712015Y-108375608D01*
X215740132Y-108409868D01*
X215774392Y-108437985D01*
X215813480Y-108458878D01*
X215855892Y-108471744D01*
X215900000Y-108476088D01*
X218440000Y-108476088D01*
X218444001Y-108475694D01*
X218444001Y-108694306D01*
X218440000Y-108693912D01*
X215900000Y-108693912D01*
X215855892Y-108698256D01*
X215813480Y-108711122D01*
X215774392Y-108732015D01*
X215740132Y-108760132D01*
X215712015Y-108794392D01*
X215691122Y-108833480D01*
X215680043Y-108870000D01*
X213631975Y-108870000D01*
X207396654Y-102634681D01*
X207385685Y-102621315D01*
X207332390Y-102577578D01*
X207271587Y-102545078D01*
X207205612Y-102525065D01*
X207154189Y-102520000D01*
X207154188Y-102520000D01*
X207137000Y-102518307D01*
X207119812Y-102520000D01*
X201693975Y-102520000D01*
X198955153Y-99781180D01*
X198944185Y-99767815D01*
X198890890Y-99724078D01*
X198830087Y-99691578D01*
X198764112Y-99671565D01*
X198712689Y-99666500D01*
X198712688Y-99666500D01*
X198695500Y-99664807D01*
X198678312Y-99666500D01*
X190892462Y-99666500D01*
X190846462Y-99620500D01*
X205353727Y-99620500D01*
X212707000Y-106973775D01*
X212707000Y-107055508D01*
X212727176Y-107156937D01*
X212766751Y-107252481D01*
X212824206Y-107338468D01*
X212897332Y-107411594D01*
X212983319Y-107469049D01*
X213078863Y-107508624D01*
X213180292Y-107528800D01*
X213283708Y-107528800D01*
X213385137Y-107508624D01*
X213480681Y-107469049D01*
X213566668Y-107411594D01*
X213639794Y-107338468D01*
X213697249Y-107252481D01*
X213736824Y-107156937D01*
X213757000Y-107055508D01*
X213757000Y-106952092D01*
X213736824Y-106850663D01*
X213697249Y-106755119D01*
X213639794Y-106669132D01*
X213566668Y-106596006D01*
X213480681Y-106538551D01*
X213385137Y-106498976D01*
X213283708Y-106478800D01*
X213201975Y-106478800D01*
X205758354Y-99035181D01*
X205747385Y-99021815D01*
X205694090Y-98978078D01*
X205633287Y-98945578D01*
X205567312Y-98925565D01*
X205515889Y-98920500D01*
X205515888Y-98920500D01*
X205498700Y-98918807D01*
X205481512Y-98920500D01*
X180695475Y-98920500D01*
X173687743Y-91912770D01*
X173753688Y-91753566D01*
X173795000Y-91545878D01*
X173795000Y-91334122D01*
X174185000Y-91334122D01*
X174185000Y-91545878D01*
X174226312Y-91753566D01*
X174307348Y-91949203D01*
X174424993Y-92125272D01*
X174574728Y-92275007D01*
X174750797Y-92392652D01*
X174946434Y-92473688D01*
X175154122Y-92515000D01*
X175365878Y-92515000D01*
X175573566Y-92473688D01*
X175769203Y-92392652D01*
X175945272Y-92275007D01*
X176095007Y-92125272D01*
X176212652Y-91949203D01*
X176293688Y-91753566D01*
X176335000Y-91545878D01*
X176335000Y-91334122D01*
X176293688Y-91126434D01*
X176212652Y-90930797D01*
X176095007Y-90754728D01*
X175945272Y-90604993D01*
X175769203Y-90487348D01*
X175573566Y-90406312D01*
X175365878Y-90365000D01*
X175154122Y-90365000D01*
X174946434Y-90406312D01*
X174750797Y-90487348D01*
X174574728Y-90604993D01*
X174424993Y-90754728D01*
X174307348Y-90930797D01*
X174226312Y-91126434D01*
X174185000Y-91334122D01*
X173795000Y-91334122D01*
X173753688Y-91126434D01*
X173672652Y-90930797D01*
X173555007Y-90754728D01*
X173405272Y-90604993D01*
X173229203Y-90487348D01*
X173033566Y-90406312D01*
X172825878Y-90365000D01*
X172614122Y-90365000D01*
X172406434Y-90406312D01*
X172210797Y-90487348D01*
X172034728Y-90604993D01*
X171884993Y-90754728D01*
X171767348Y-90930797D01*
X171686312Y-91126434D01*
X171645000Y-91334122D01*
X171645000Y-91545878D01*
X171686312Y-91753566D01*
X171767348Y-91949203D01*
X171884993Y-92125272D01*
X172034728Y-92275007D01*
X172210797Y-92392652D01*
X172406434Y-92473688D01*
X172614122Y-92515000D01*
X172825878Y-92515000D01*
X173033566Y-92473688D01*
X173192770Y-92407743D01*
X180290856Y-99505831D01*
X180301815Y-99519185D01*
X180355110Y-99562922D01*
X180415913Y-99595422D01*
X180481888Y-99615435D01*
X180533311Y-99620500D01*
X180533313Y-99620500D01*
X180550499Y-99622193D01*
X180567685Y-99620500D01*
X190153538Y-99620500D01*
X190092206Y-99681832D01*
X190034751Y-99767819D01*
X189995176Y-99863363D01*
X189975000Y-99964792D01*
X189975000Y-100068208D01*
X189995176Y-100169637D01*
X190034751Y-100265181D01*
X190092206Y-100351168D01*
X190165332Y-100424294D01*
X190251319Y-100481749D01*
X190346863Y-100521324D01*
X190448292Y-100541500D01*
X190551708Y-100541500D01*
X190653137Y-100521324D01*
X190748681Y-100481749D01*
X190834668Y-100424294D01*
X190892462Y-100366500D01*
X198550527Y-100366500D01*
X201289356Y-103105330D01*
X201300315Y-103118685D01*
X201353610Y-103162422D01*
X201414413Y-103194922D01*
X201480388Y-103214935D01*
X201531811Y-103220000D01*
X201531813Y-103220000D01*
X201548999Y-103221693D01*
X201566185Y-103220000D01*
X206992027Y-103220000D01*
X213227356Y-109455331D01*
X213238315Y-109468685D01*
X213291610Y-109512422D01*
X213352413Y-109544922D01*
X213398374Y-109558864D01*
X213418387Y-109564935D01*
X213486999Y-109571693D01*
X213504188Y-109570000D01*
X215680043Y-109570000D01*
X215691122Y-109606520D01*
X215712015Y-109645608D01*
X215740132Y-109679868D01*
X215774392Y-109707985D01*
X215813480Y-109728878D01*
X215855892Y-109741744D01*
X215900000Y-109746088D01*
X218440000Y-109746088D01*
X218444001Y-109745694D01*
X218444001Y-109964306D01*
X218440000Y-109963912D01*
X215900000Y-109963912D01*
X215855892Y-109968256D01*
X215813480Y-109981122D01*
X215774392Y-110002015D01*
X215740132Y-110030132D01*
X215712015Y-110064392D01*
X215691122Y-110103480D01*
X215680043Y-110140000D01*
X215591888Y-110140000D01*
X215574699Y-110138307D01*
X215506087Y-110145065D01*
X215486074Y-110151136D01*
X215440113Y-110165078D01*
X215379310Y-110197578D01*
X215326015Y-110241315D01*
X215315055Y-110254670D01*
X214159727Y-111410000D01*
X199138596Y-111410000D01*
X199072652Y-111250797D01*
X198955007Y-111074728D01*
X198805272Y-110924993D01*
X198629203Y-110807348D01*
X198433566Y-110726312D01*
X198225878Y-110685000D01*
X198014122Y-110685000D01*
X197806434Y-110726312D01*
X197610797Y-110807348D01*
X197434728Y-110924993D01*
X197284993Y-111074728D01*
X197167348Y-111250797D01*
X197086312Y-111446434D01*
X197045000Y-111654122D01*
X197045000Y-111865878D01*
X197086312Y-112073566D01*
X197167348Y-112269203D01*
X197284993Y-112445272D01*
X197434728Y-112595007D01*
X197610797Y-112712652D01*
X197806434Y-112793688D01*
X198014122Y-112835000D01*
X198225878Y-112835000D01*
X198433566Y-112793688D01*
X198629203Y-112712652D01*
X198805272Y-112595007D01*
X198955007Y-112445272D01*
X199072652Y-112269203D01*
X199138596Y-112110000D01*
X214287512Y-112110000D01*
X214304700Y-112111693D01*
X214321888Y-112110000D01*
X214321889Y-112110000D01*
X214373312Y-112104935D01*
X214439287Y-112084922D01*
X214500090Y-112052422D01*
X214553385Y-112008685D01*
X214564353Y-111995320D01*
X215689268Y-110870407D01*
X215691122Y-110876520D01*
X215712015Y-110915608D01*
X215740132Y-110949868D01*
X215774392Y-110977985D01*
X215813480Y-110998878D01*
X215855892Y-111011744D01*
X215900000Y-111016088D01*
X218440000Y-111016088D01*
X218444001Y-111015694D01*
X218444001Y-111234306D01*
X218440000Y-111233912D01*
X215900000Y-111233912D01*
X215855892Y-111238256D01*
X215813480Y-111251122D01*
X215774392Y-111272015D01*
X215740132Y-111300132D01*
X215712015Y-111334392D01*
X215691122Y-111373480D01*
X215680043Y-111410000D01*
X215591885Y-111410000D01*
X215574699Y-111408307D01*
X215557513Y-111410000D01*
X215557511Y-111410000D01*
X215506088Y-111415065D01*
X215440113Y-111435078D01*
X215379310Y-111467578D01*
X215326015Y-111511315D01*
X215315057Y-111524668D01*
X212889727Y-113950000D01*
X199138596Y-113950000D01*
X199072652Y-113790797D01*
X198955007Y-113614728D01*
X198805272Y-113464993D01*
X198629203Y-113347348D01*
X198433566Y-113266312D01*
X198225878Y-113225000D01*
X198014122Y-113225000D01*
X197806434Y-113266312D01*
X197610797Y-113347348D01*
X197434728Y-113464993D01*
X197284993Y-113614728D01*
X197167348Y-113790797D01*
X197086312Y-113986434D01*
X197045000Y-114194122D01*
X197045000Y-114405878D01*
X197086312Y-114613566D01*
X197167348Y-114809203D01*
X197284993Y-114985272D01*
X197434728Y-115135007D01*
X197610797Y-115252652D01*
X197806434Y-115333688D01*
X198014122Y-115375000D01*
X198225878Y-115375000D01*
X198433566Y-115333688D01*
X198629203Y-115252652D01*
X198805272Y-115135007D01*
X198955007Y-114985272D01*
X199072652Y-114809203D01*
X199138596Y-114650000D01*
X213017512Y-114650000D01*
X213034700Y-114651693D01*
X213051888Y-114650000D01*
X213051889Y-114650000D01*
X213103312Y-114644935D01*
X213169287Y-114624922D01*
X213230090Y-114592422D01*
X213283385Y-114548685D01*
X213294353Y-114535320D01*
X215689268Y-112140407D01*
X215691122Y-112146520D01*
X215712015Y-112185608D01*
X215740132Y-112219868D01*
X215774392Y-112247985D01*
X215813480Y-112268878D01*
X215855892Y-112281744D01*
X215900000Y-112286088D01*
X218440000Y-112286088D01*
X218444001Y-112285694D01*
X218444001Y-112504306D01*
X218440000Y-112503912D01*
X215900000Y-112503912D01*
X215855892Y-112508256D01*
X215813480Y-112521122D01*
X215774392Y-112542015D01*
X215740132Y-112570132D01*
X215712015Y-112604392D01*
X215691122Y-112643480D01*
X215680043Y-112680000D01*
X215591889Y-112680000D01*
X215574700Y-112678307D01*
X215557511Y-112680000D01*
X215506088Y-112685065D01*
X215440113Y-112705078D01*
X215379310Y-112737578D01*
X215326015Y-112781315D01*
X215315056Y-112794669D01*
X211619727Y-116490000D01*
X199138596Y-116490000D01*
X199072652Y-116330797D01*
X198955007Y-116154728D01*
X198805272Y-116004993D01*
X198629203Y-115887348D01*
X198433566Y-115806312D01*
X198225878Y-115765000D01*
X198014122Y-115765000D01*
X197806434Y-115806312D01*
X197610797Y-115887348D01*
X197434728Y-116004993D01*
X197284993Y-116154728D01*
X197167348Y-116330797D01*
X197086312Y-116526434D01*
X197045000Y-116734122D01*
X197045000Y-116945878D01*
X197086312Y-117153566D01*
X197167348Y-117349203D01*
X197284993Y-117525272D01*
X197434728Y-117675007D01*
X197610797Y-117792652D01*
X197806434Y-117873688D01*
X198014122Y-117915000D01*
X198225878Y-117915000D01*
X198433566Y-117873688D01*
X198629203Y-117792652D01*
X198805272Y-117675007D01*
X198955007Y-117525272D01*
X199072652Y-117349203D01*
X199138596Y-117190000D01*
X211747512Y-117190000D01*
X211764700Y-117191693D01*
X211781888Y-117190000D01*
X211781889Y-117190000D01*
X211833312Y-117184935D01*
X211899287Y-117164922D01*
X211960090Y-117132422D01*
X212013385Y-117088685D01*
X212024354Y-117075320D01*
X215689268Y-113410407D01*
X215691122Y-113416520D01*
X215712015Y-113455608D01*
X215740132Y-113489868D01*
X215774392Y-113517985D01*
X215813480Y-113538878D01*
X215855892Y-113551744D01*
X215900000Y-113556088D01*
X218440000Y-113556088D01*
X218444001Y-113555694D01*
X218444001Y-113774306D01*
X218440000Y-113773912D01*
X215900000Y-113773912D01*
X215855892Y-113778256D01*
X215813480Y-113791122D01*
X215774392Y-113812015D01*
X215740132Y-113840132D01*
X215712015Y-113874392D01*
X215691122Y-113913480D01*
X215680043Y-113950000D01*
X215591889Y-113950000D01*
X215574700Y-113948307D01*
X215506088Y-113955065D01*
X215440112Y-113975078D01*
X215418933Y-113986399D01*
X215379310Y-114007578D01*
X215326015Y-114051315D01*
X215315051Y-114064675D01*
X210349727Y-119030000D01*
X199196088Y-119030000D01*
X199196088Y-118530000D01*
X199191744Y-118485892D01*
X199178878Y-118443480D01*
X199157985Y-118404392D01*
X199129868Y-118370132D01*
X199095608Y-118342015D01*
X199056520Y-118321122D01*
X199014108Y-118308256D01*
X198970000Y-118303912D01*
X197270000Y-118303912D01*
X197225892Y-118308256D01*
X197183480Y-118321122D01*
X197144392Y-118342015D01*
X197110132Y-118370132D01*
X197082015Y-118404392D01*
X197061122Y-118443480D01*
X197048256Y-118485892D01*
X197043912Y-118530000D01*
X197043912Y-120230000D01*
X197045586Y-120247000D01*
X196704657Y-120247000D01*
X196706331Y-120230000D01*
X196705000Y-119473750D01*
X196636250Y-119405000D01*
X195605000Y-119405000D01*
X195605000Y-119425000D01*
X195555000Y-119425000D01*
X195555000Y-119405000D01*
X194523750Y-119405000D01*
X194455000Y-119473750D01*
X194453669Y-120230000D01*
X194455343Y-120247000D01*
X182877275Y-120247000D01*
X181160275Y-118530000D01*
X194453669Y-118530000D01*
X194455000Y-119286250D01*
X194523750Y-119355000D01*
X195555000Y-119355000D01*
X195555000Y-118323750D01*
X195605000Y-118323750D01*
X195605000Y-119355000D01*
X196636250Y-119355000D01*
X196705000Y-119286250D01*
X196706331Y-118530000D01*
X196701021Y-118476090D01*
X196685297Y-118424253D01*
X196659761Y-118376479D01*
X196625396Y-118334604D01*
X196583521Y-118300239D01*
X196535747Y-118274703D01*
X196483910Y-118258979D01*
X196430000Y-118253669D01*
X195673750Y-118255000D01*
X195605000Y-118323750D01*
X195555000Y-118323750D01*
X195486250Y-118255000D01*
X194730000Y-118253669D01*
X194676090Y-118258979D01*
X194624253Y-118274703D01*
X194576479Y-118300239D01*
X194534604Y-118334604D01*
X194500239Y-118376479D01*
X194474703Y-118424253D01*
X194458979Y-118476090D01*
X194453669Y-118530000D01*
X181160275Y-118530000D01*
X179670912Y-117040637D01*
X194473036Y-117040637D01*
X194480517Y-117078251D01*
X194548124Y-117288172D01*
X194655385Y-117480870D01*
X194798179Y-117648939D01*
X194971018Y-117785921D01*
X195167259Y-117886552D01*
X195379362Y-117946965D01*
X195555000Y-117895973D01*
X195555000Y-116865000D01*
X195605000Y-116865000D01*
X195605000Y-117895973D01*
X195780638Y-117946965D01*
X195992741Y-117886552D01*
X196188982Y-117785921D01*
X196361821Y-117648939D01*
X196504615Y-117480870D01*
X196611876Y-117288172D01*
X196679483Y-117078251D01*
X196686964Y-117040637D01*
X196635954Y-116865000D01*
X195605000Y-116865000D01*
X195555000Y-116865000D01*
X194524046Y-116865000D01*
X194473036Y-117040637D01*
X179670912Y-117040637D01*
X179269638Y-116639363D01*
X194473036Y-116639363D01*
X194524046Y-116815000D01*
X195555000Y-116815000D01*
X195555000Y-115784027D01*
X195605000Y-115784027D01*
X195605000Y-116815000D01*
X196635954Y-116815000D01*
X196686964Y-116639363D01*
X196679483Y-116601749D01*
X196611876Y-116391828D01*
X196504615Y-116199130D01*
X196361821Y-116031061D01*
X196188982Y-115894079D01*
X195992741Y-115793448D01*
X195780638Y-115733035D01*
X195605000Y-115784027D01*
X195555000Y-115784027D01*
X195379362Y-115733035D01*
X195167259Y-115793448D01*
X194971018Y-115894079D01*
X194798179Y-116031061D01*
X194655385Y-116199130D01*
X194548124Y-116391828D01*
X194480517Y-116601749D01*
X194473036Y-116639363D01*
X179269638Y-116639363D01*
X179234954Y-116604680D01*
X179223985Y-116591315D01*
X179170690Y-116547578D01*
X179109887Y-116515078D01*
X179043912Y-116495065D01*
X178992489Y-116490000D01*
X178992488Y-116490000D01*
X178975300Y-116488307D01*
X178958112Y-116490000D01*
X178876088Y-116490000D01*
X178876088Y-115990000D01*
X178871744Y-115945892D01*
X178858878Y-115903480D01*
X178837985Y-115864392D01*
X178809868Y-115830132D01*
X178775608Y-115802015D01*
X178736520Y-115781122D01*
X178694108Y-115768256D01*
X178650000Y-115763912D01*
X176950000Y-115763912D01*
X176934900Y-115765399D01*
X176934900Y-114500637D01*
X194473036Y-114500637D01*
X194480517Y-114538251D01*
X194548124Y-114748172D01*
X194655385Y-114940870D01*
X194798179Y-115108939D01*
X194971018Y-115245921D01*
X195167259Y-115346552D01*
X195379362Y-115406965D01*
X195555000Y-115355973D01*
X195555000Y-114325000D01*
X195605000Y-114325000D01*
X195605000Y-115355973D01*
X195780638Y-115406965D01*
X195992741Y-115346552D01*
X196188982Y-115245921D01*
X196361821Y-115108939D01*
X196504615Y-114940870D01*
X196611876Y-114748172D01*
X196679483Y-114538251D01*
X196686964Y-114500637D01*
X196635954Y-114325000D01*
X195605000Y-114325000D01*
X195555000Y-114325000D01*
X194524046Y-114325000D01*
X194473036Y-114500637D01*
X176934900Y-114500637D01*
X176934900Y-114099363D01*
X194473036Y-114099363D01*
X194524046Y-114275000D01*
X195555000Y-114275000D01*
X195555000Y-113244027D01*
X195605000Y-113244027D01*
X195605000Y-114275000D01*
X196635954Y-114275000D01*
X196686964Y-114099363D01*
X196679483Y-114061749D01*
X196611876Y-113851828D01*
X196504615Y-113659130D01*
X196361821Y-113491061D01*
X196188982Y-113354079D01*
X195992741Y-113253448D01*
X195780638Y-113193035D01*
X195605000Y-113244027D01*
X195555000Y-113244027D01*
X195379362Y-113193035D01*
X195167259Y-113253448D01*
X194971018Y-113354079D01*
X194798179Y-113491061D01*
X194655385Y-113659130D01*
X194548124Y-113851828D01*
X194480517Y-114061749D01*
X194473036Y-114099363D01*
X176934900Y-114099363D01*
X176934900Y-111960637D01*
X194473036Y-111960637D01*
X194480517Y-111998251D01*
X194548124Y-112208172D01*
X194655385Y-112400870D01*
X194798179Y-112568939D01*
X194971018Y-112705921D01*
X195167259Y-112806552D01*
X195379362Y-112866965D01*
X195555000Y-112815973D01*
X195555000Y-111785000D01*
X195605000Y-111785000D01*
X195605000Y-112815973D01*
X195780638Y-112866965D01*
X195992741Y-112806552D01*
X196188982Y-112705921D01*
X196361821Y-112568939D01*
X196504615Y-112400870D01*
X196611876Y-112208172D01*
X196679483Y-111998251D01*
X196686964Y-111960637D01*
X196635954Y-111785000D01*
X195605000Y-111785000D01*
X195555000Y-111785000D01*
X194524046Y-111785000D01*
X194473036Y-111960637D01*
X176934900Y-111960637D01*
X176934900Y-111559363D01*
X194473036Y-111559363D01*
X194524046Y-111735000D01*
X195555000Y-111735000D01*
X195555000Y-110704027D01*
X195605000Y-110704027D01*
X195605000Y-111735000D01*
X196635954Y-111735000D01*
X196686964Y-111559363D01*
X196679483Y-111521749D01*
X196611876Y-111311828D01*
X196504615Y-111119130D01*
X196361821Y-110951061D01*
X196188982Y-110814079D01*
X195992741Y-110713448D01*
X195780638Y-110653035D01*
X195605000Y-110704027D01*
X195555000Y-110704027D01*
X195379362Y-110653035D01*
X195167259Y-110713448D01*
X194971018Y-110814079D01*
X194798179Y-110951061D01*
X194655385Y-111119130D01*
X194548124Y-111311828D01*
X194480517Y-111521749D01*
X194473036Y-111559363D01*
X176934900Y-111559363D01*
X176934900Y-109860234D01*
X176964993Y-109905272D01*
X177114728Y-110055007D01*
X177290797Y-110172652D01*
X177486434Y-110253688D01*
X177694122Y-110295000D01*
X177905878Y-110295000D01*
X178113566Y-110253688D01*
X178309203Y-110172652D01*
X178462833Y-110070000D01*
X194453669Y-110070000D01*
X194458979Y-110123910D01*
X194474703Y-110175747D01*
X194500239Y-110223521D01*
X194534604Y-110265396D01*
X194576479Y-110299761D01*
X194624253Y-110325297D01*
X194676090Y-110341021D01*
X194730000Y-110346331D01*
X195486250Y-110345000D01*
X195555000Y-110276250D01*
X195555000Y-109245000D01*
X195605000Y-109245000D01*
X195605000Y-110276250D01*
X195673750Y-110345000D01*
X196430000Y-110346331D01*
X196483910Y-110341021D01*
X196535747Y-110325297D01*
X196583521Y-110299761D01*
X196625396Y-110265396D01*
X196659761Y-110223521D01*
X196685297Y-110175747D01*
X196701021Y-110123910D01*
X196706331Y-110070000D01*
X196705000Y-109313750D01*
X196636250Y-109245000D01*
X195605000Y-109245000D01*
X195555000Y-109245000D01*
X194523750Y-109245000D01*
X194455000Y-109313750D01*
X194453669Y-110070000D01*
X178462833Y-110070000D01*
X178485272Y-110055007D01*
X178635007Y-109905272D01*
X178752652Y-109729203D01*
X178833688Y-109533566D01*
X178875000Y-109325878D01*
X178875000Y-109114122D01*
X178833688Y-108906434D01*
X178752652Y-108710797D01*
X178635007Y-108534728D01*
X178485272Y-108384993D01*
X178462834Y-108370000D01*
X194453669Y-108370000D01*
X194455000Y-109126250D01*
X194523750Y-109195000D01*
X195555000Y-109195000D01*
X195555000Y-108163750D01*
X195605000Y-108163750D01*
X195605000Y-109195000D01*
X196636250Y-109195000D01*
X196705000Y-109126250D01*
X196706331Y-108370000D01*
X197043912Y-108370000D01*
X197043912Y-110070000D01*
X197048256Y-110114108D01*
X197061122Y-110156520D01*
X197082015Y-110195608D01*
X197110132Y-110229868D01*
X197144392Y-110257985D01*
X197183480Y-110278878D01*
X197225892Y-110291744D01*
X197270000Y-110296088D01*
X198970000Y-110296088D01*
X199014108Y-110291744D01*
X199056520Y-110278878D01*
X199095608Y-110257985D01*
X199129868Y-110229868D01*
X199157985Y-110195608D01*
X199178878Y-110156520D01*
X199191744Y-110114108D01*
X199196088Y-110070000D01*
X199196088Y-109691062D01*
X199803356Y-110298331D01*
X199814316Y-110311686D01*
X199867611Y-110355423D01*
X199928414Y-110387923D01*
X199994389Y-110407936D01*
X200045812Y-110413001D01*
X200045814Y-110413001D01*
X200063000Y-110414694D01*
X200080186Y-110413001D01*
X213343000Y-110413001D01*
X213343000Y-110414708D01*
X213363176Y-110516137D01*
X213402751Y-110611681D01*
X213460206Y-110697668D01*
X213533332Y-110770794D01*
X213619319Y-110828249D01*
X213714863Y-110867824D01*
X213816292Y-110888000D01*
X213919708Y-110888000D01*
X214021137Y-110867824D01*
X214116681Y-110828249D01*
X214202668Y-110770794D01*
X214275794Y-110697668D01*
X214333249Y-110611681D01*
X214372824Y-110516137D01*
X214393000Y-110414708D01*
X214393000Y-110311292D01*
X214372824Y-110209863D01*
X214333249Y-110114319D01*
X214275794Y-110028332D01*
X214202668Y-109955206D01*
X214116681Y-109897751D01*
X214021137Y-109858176D01*
X213919708Y-109838000D01*
X213837973Y-109838000D01*
X213827654Y-109827681D01*
X213816686Y-109814316D01*
X213763391Y-109770579D01*
X213702588Y-109738079D01*
X213636613Y-109718066D01*
X213585190Y-109713001D01*
X213585189Y-109713001D01*
X213568001Y-109711308D01*
X213550813Y-109713001D01*
X200207976Y-109713001D01*
X199479653Y-108984680D01*
X199468685Y-108971315D01*
X199415390Y-108927578D01*
X199354587Y-108895078D01*
X199288612Y-108875065D01*
X199237189Y-108870000D01*
X199237188Y-108870000D01*
X199220000Y-108868307D01*
X199202812Y-108870000D01*
X199196088Y-108870000D01*
X199196088Y-108370000D01*
X199191744Y-108325892D01*
X199178878Y-108283480D01*
X199157985Y-108244392D01*
X199129868Y-108210132D01*
X199095608Y-108182015D01*
X199056520Y-108161122D01*
X199014108Y-108148256D01*
X198970000Y-108143912D01*
X197270000Y-108143912D01*
X197225892Y-108148256D01*
X197183480Y-108161122D01*
X197144392Y-108182015D01*
X197110132Y-108210132D01*
X197082015Y-108244392D01*
X197061122Y-108283480D01*
X197048256Y-108325892D01*
X197043912Y-108370000D01*
X196706331Y-108370000D01*
X196701021Y-108316090D01*
X196685297Y-108264253D01*
X196659761Y-108216479D01*
X196625396Y-108174604D01*
X196583521Y-108140239D01*
X196535747Y-108114703D01*
X196483910Y-108098979D01*
X196430000Y-108093669D01*
X195673750Y-108095000D01*
X195605000Y-108163750D01*
X195555000Y-108163750D01*
X195486250Y-108095000D01*
X194730000Y-108093669D01*
X194676090Y-108098979D01*
X194624253Y-108114703D01*
X194576479Y-108140239D01*
X194534604Y-108174604D01*
X194500239Y-108216479D01*
X194474703Y-108264253D01*
X194458979Y-108316090D01*
X194453669Y-108370000D01*
X178462834Y-108370000D01*
X178309203Y-108267348D01*
X178113566Y-108186312D01*
X177905878Y-108145000D01*
X177694122Y-108145000D01*
X177486434Y-108186312D01*
X177290797Y-108267348D01*
X177114728Y-108384993D01*
X176964993Y-108534728D01*
X176934900Y-108579766D01*
X176934900Y-107320234D01*
X176964993Y-107365272D01*
X177114728Y-107515007D01*
X177290797Y-107632652D01*
X177486434Y-107713688D01*
X177694122Y-107755000D01*
X177905878Y-107755000D01*
X178113566Y-107713688D01*
X178309203Y-107632652D01*
X178485272Y-107515007D01*
X178635007Y-107365272D01*
X178752652Y-107189203D01*
X178833688Y-106993566D01*
X178856151Y-106880637D01*
X194473036Y-106880637D01*
X194480517Y-106918251D01*
X194548124Y-107128172D01*
X194655385Y-107320870D01*
X194798179Y-107488939D01*
X194971018Y-107625921D01*
X195167259Y-107726552D01*
X195379362Y-107786965D01*
X195555000Y-107735973D01*
X195555000Y-106705000D01*
X195605000Y-106705000D01*
X195605000Y-107735973D01*
X195780638Y-107786965D01*
X195992741Y-107726552D01*
X196188982Y-107625921D01*
X196361821Y-107488939D01*
X196504615Y-107320870D01*
X196611876Y-107128172D01*
X196679483Y-106918251D01*
X196686964Y-106880637D01*
X196635954Y-106705000D01*
X195605000Y-106705000D01*
X195555000Y-106705000D01*
X194524046Y-106705000D01*
X194473036Y-106880637D01*
X178856151Y-106880637D01*
X178875000Y-106785878D01*
X178875000Y-106574122D01*
X178856152Y-106479363D01*
X194473036Y-106479363D01*
X194524046Y-106655000D01*
X195555000Y-106655000D01*
X195555000Y-105624027D01*
X195605000Y-105624027D01*
X195605000Y-106655000D01*
X196635954Y-106655000D01*
X196659443Y-106574122D01*
X197045000Y-106574122D01*
X197045000Y-106785878D01*
X197086312Y-106993566D01*
X197167348Y-107189203D01*
X197284993Y-107365272D01*
X197434728Y-107515007D01*
X197610797Y-107632652D01*
X197806434Y-107713688D01*
X198014122Y-107755000D01*
X198225878Y-107755000D01*
X198433566Y-107713688D01*
X198629203Y-107632652D01*
X198805272Y-107515007D01*
X198955007Y-107365272D01*
X199072652Y-107189203D01*
X199138596Y-107030000D01*
X209079727Y-107030000D01*
X210929800Y-108880075D01*
X210929800Y-108961808D01*
X210949976Y-109063237D01*
X210989551Y-109158781D01*
X211047006Y-109244768D01*
X211120132Y-109317894D01*
X211206119Y-109375349D01*
X211301663Y-109414924D01*
X211403092Y-109435100D01*
X211506508Y-109435100D01*
X211607937Y-109414924D01*
X211703481Y-109375349D01*
X211789468Y-109317894D01*
X211862594Y-109244768D01*
X211920049Y-109158781D01*
X211959624Y-109063237D01*
X211979800Y-108961808D01*
X211979800Y-108858392D01*
X211959624Y-108756963D01*
X211920049Y-108661419D01*
X211862594Y-108575432D01*
X211789468Y-108502306D01*
X211703481Y-108444851D01*
X211607937Y-108405276D01*
X211506508Y-108385100D01*
X211424775Y-108385100D01*
X209484353Y-106444680D01*
X209473385Y-106431315D01*
X209420090Y-106387578D01*
X209359287Y-106355078D01*
X209293312Y-106335065D01*
X209241889Y-106330000D01*
X209241888Y-106330000D01*
X209224700Y-106328307D01*
X209207512Y-106330000D01*
X199138596Y-106330000D01*
X199072652Y-106170797D01*
X198955007Y-105994728D01*
X198805272Y-105844993D01*
X198629203Y-105727348D01*
X198433566Y-105646312D01*
X198225878Y-105605000D01*
X198014122Y-105605000D01*
X197806434Y-105646312D01*
X197610797Y-105727348D01*
X197434728Y-105844993D01*
X197284993Y-105994728D01*
X197167348Y-106170797D01*
X197086312Y-106366434D01*
X197045000Y-106574122D01*
X196659443Y-106574122D01*
X196686964Y-106479363D01*
X196679483Y-106441749D01*
X196611876Y-106231828D01*
X196504615Y-106039130D01*
X196361821Y-105871061D01*
X196188982Y-105734079D01*
X195992741Y-105633448D01*
X195780638Y-105573035D01*
X195605000Y-105624027D01*
X195555000Y-105624027D01*
X195379362Y-105573035D01*
X195167259Y-105633448D01*
X194971018Y-105734079D01*
X194798179Y-105871061D01*
X194655385Y-106039130D01*
X194548124Y-106231828D01*
X194480517Y-106441749D01*
X194473036Y-106479363D01*
X178856152Y-106479363D01*
X178833688Y-106366434D01*
X178752652Y-106170797D01*
X178635007Y-105994728D01*
X178485272Y-105844993D01*
X178309203Y-105727348D01*
X178113566Y-105646312D01*
X177905878Y-105605000D01*
X177694122Y-105605000D01*
X177486434Y-105646312D01*
X177290797Y-105727348D01*
X177114728Y-105844993D01*
X176964993Y-105994728D01*
X176934900Y-106039766D01*
X176934900Y-105500073D01*
X177327230Y-105107743D01*
X177486434Y-105173688D01*
X177694122Y-105215000D01*
X177905878Y-105215000D01*
X178113566Y-105173688D01*
X178309203Y-105092652D01*
X178485272Y-104975007D01*
X178635007Y-104825272D01*
X178752652Y-104649203D01*
X178833688Y-104453566D01*
X178856151Y-104340637D01*
X194473036Y-104340637D01*
X194480517Y-104378251D01*
X194548124Y-104588172D01*
X194655385Y-104780870D01*
X194798179Y-104948939D01*
X194971018Y-105085921D01*
X195167259Y-105186552D01*
X195379362Y-105246965D01*
X195555000Y-105195973D01*
X195555000Y-104165000D01*
X195605000Y-104165000D01*
X195605000Y-105195973D01*
X195780638Y-105246965D01*
X195992741Y-105186552D01*
X196188982Y-105085921D01*
X196361821Y-104948939D01*
X196504615Y-104780870D01*
X196611876Y-104588172D01*
X196679483Y-104378251D01*
X196686964Y-104340637D01*
X196635954Y-104165000D01*
X195605000Y-104165000D01*
X195555000Y-104165000D01*
X194524046Y-104165000D01*
X194473036Y-104340637D01*
X178856151Y-104340637D01*
X178875000Y-104245878D01*
X178875000Y-104034122D01*
X178856152Y-103939363D01*
X194473036Y-103939363D01*
X194524046Y-104115000D01*
X195555000Y-104115000D01*
X195555000Y-103084027D01*
X195605000Y-103084027D01*
X195605000Y-104115000D01*
X196635954Y-104115000D01*
X196659443Y-104034122D01*
X197045000Y-104034122D01*
X197045000Y-104245878D01*
X197086312Y-104453566D01*
X197167348Y-104649203D01*
X197284993Y-104825272D01*
X197434728Y-104975007D01*
X197610797Y-105092652D01*
X197806434Y-105173688D01*
X198014122Y-105215000D01*
X198225878Y-105215000D01*
X198433566Y-105173688D01*
X198629203Y-105092652D01*
X198805272Y-104975007D01*
X198955007Y-104825272D01*
X199072652Y-104649203D01*
X199153688Y-104453566D01*
X199195000Y-104245878D01*
X199195000Y-104034122D01*
X199153688Y-103826434D01*
X199072652Y-103630797D01*
X198955007Y-103454728D01*
X198805272Y-103304993D01*
X198629203Y-103187348D01*
X198433566Y-103106312D01*
X198225878Y-103065000D01*
X198014122Y-103065000D01*
X197806434Y-103106312D01*
X197610797Y-103187348D01*
X197434728Y-103304993D01*
X197284993Y-103454728D01*
X197167348Y-103630797D01*
X197086312Y-103826434D01*
X197045000Y-104034122D01*
X196659443Y-104034122D01*
X196686964Y-103939363D01*
X196679483Y-103901749D01*
X196611876Y-103691828D01*
X196504615Y-103499130D01*
X196361821Y-103331061D01*
X196188982Y-103194079D01*
X195992741Y-103093448D01*
X195780638Y-103033035D01*
X195605000Y-103084027D01*
X195555000Y-103084027D01*
X195379362Y-103033035D01*
X195167259Y-103093448D01*
X194971018Y-103194079D01*
X194798179Y-103331061D01*
X194655385Y-103499130D01*
X194548124Y-103691828D01*
X194480517Y-103901749D01*
X194473036Y-103939363D01*
X178856152Y-103939363D01*
X178833688Y-103826434D01*
X178752652Y-103630797D01*
X178635007Y-103454728D01*
X178485272Y-103304993D01*
X178309203Y-103187348D01*
X178113566Y-103106312D01*
X177905878Y-103065000D01*
X177694122Y-103065000D01*
X177486434Y-103106312D01*
X177290797Y-103187348D01*
X177114728Y-103304993D01*
X176964993Y-103454728D01*
X176847348Y-103630797D01*
X176766312Y-103826434D01*
X176725000Y-104034122D01*
X176725000Y-104245878D01*
X176766312Y-104453566D01*
X176832257Y-104612770D01*
X176349576Y-105095451D01*
X176336216Y-105106415D01*
X176292479Y-105159710D01*
X176278132Y-105186552D01*
X176259979Y-105220513D01*
X176239965Y-105286489D01*
X176233207Y-105355100D01*
X176234901Y-105372298D01*
X176234901Y-106129470D01*
X176184615Y-106039130D01*
X176041821Y-105871061D01*
X175868982Y-105734079D01*
X175672741Y-105633448D01*
X175460638Y-105573035D01*
X175285000Y-105624027D01*
X175285000Y-106655000D01*
X175305000Y-106655000D01*
X175305000Y-106705000D01*
X175285000Y-106705000D01*
X175285000Y-107735973D01*
X175460638Y-107786965D01*
X175672741Y-107726552D01*
X175868982Y-107625921D01*
X176041821Y-107488939D01*
X176184615Y-107320870D01*
X176234901Y-107230530D01*
X176234901Y-108669470D01*
X176184615Y-108579130D01*
X176041821Y-108411061D01*
X175868982Y-108274079D01*
X175672741Y-108173448D01*
X175460638Y-108113035D01*
X175285000Y-108164027D01*
X175285000Y-109195000D01*
X175305000Y-109195000D01*
X175305000Y-109245000D01*
X175285000Y-109245000D01*
X175285000Y-110275973D01*
X175460638Y-110326965D01*
X175672741Y-110266552D01*
X175868982Y-110165921D01*
X176041821Y-110028939D01*
X176184615Y-109860870D01*
X176234901Y-109770530D01*
X176234900Y-115744941D01*
X176215747Y-115734703D01*
X176163910Y-115718979D01*
X176110000Y-115713669D01*
X175353750Y-115715000D01*
X175285000Y-115783750D01*
X175285000Y-116815000D01*
X175305000Y-116815000D01*
X175305000Y-116865000D01*
X175285000Y-116865000D01*
X175285000Y-117896250D01*
X175353750Y-117965000D01*
X176110000Y-117966331D01*
X176163910Y-117961021D01*
X176215747Y-117945297D01*
X176234900Y-117935059D01*
X176234900Y-118829469D01*
X176184615Y-118739130D01*
X176041821Y-118571061D01*
X175868982Y-118434079D01*
X175672741Y-118333448D01*
X175460638Y-118273035D01*
X175285000Y-118324027D01*
X175285000Y-119355000D01*
X175305000Y-119355000D01*
X175305000Y-119405000D01*
X175285000Y-119405000D01*
X175285000Y-120435973D01*
X175460638Y-120486965D01*
X175672741Y-120426552D01*
X175868982Y-120325921D01*
X176041821Y-120188939D01*
X176184615Y-120020870D01*
X176234900Y-119930531D01*
X176234900Y-121369469D01*
X176184615Y-121279130D01*
X176041821Y-121111061D01*
X175868982Y-120974079D01*
X175672741Y-120873448D01*
X175460638Y-120813035D01*
X175285000Y-120864027D01*
X175285000Y-121895000D01*
X175305000Y-121895000D01*
X175305000Y-121945000D01*
X175285000Y-121945000D01*
X175285000Y-122975973D01*
X175460638Y-123026965D01*
X175672741Y-122966552D01*
X175868982Y-122865921D01*
X176041821Y-122728939D01*
X176184615Y-122560870D01*
X176244210Y-122453805D01*
X176259978Y-122505786D01*
X176292478Y-122566589D01*
X176336215Y-122619884D01*
X176349576Y-122630849D01*
X177049455Y-123330730D01*
X177060415Y-123344085D01*
X177113710Y-123387822D01*
X177174513Y-123420322D01*
X177240488Y-123440335D01*
X177291911Y-123445400D01*
X177291913Y-123445400D01*
X177309099Y-123447093D01*
X177326285Y-123445400D01*
X177440352Y-123445400D01*
X177290797Y-123507348D01*
X177114728Y-123624993D01*
X176964993Y-123774728D01*
X176847348Y-123950797D01*
X176766312Y-124146434D01*
X176725000Y-124354122D01*
X176725000Y-124565878D01*
X176766312Y-124773566D01*
X176847348Y-124969203D01*
X176964993Y-125145272D01*
X177114728Y-125295007D01*
X177290797Y-125412652D01*
X177486434Y-125493688D01*
X177694122Y-125535000D01*
X177905878Y-125535000D01*
X178113566Y-125493688D01*
X178309203Y-125412652D01*
X178485272Y-125295007D01*
X178635007Y-125145272D01*
X178752652Y-124969203D01*
X178833688Y-124773566D01*
X178875000Y-124565878D01*
X178875000Y-124354122D01*
X178833688Y-124146434D01*
X178752652Y-123950797D01*
X178635007Y-123774728D01*
X178485272Y-123624993D01*
X178309203Y-123507348D01*
X178159648Y-123445400D01*
X210572112Y-123445400D01*
X210589300Y-123447093D01*
X210606488Y-123445400D01*
X210606489Y-123445400D01*
X210657912Y-123440335D01*
X210723887Y-123420322D01*
X210784690Y-123387822D01*
X210837985Y-123344085D01*
X210848954Y-123330720D01*
X214345992Y-119833683D01*
X214346001Y-119833672D01*
X214499673Y-119680000D01*
X215623669Y-119680000D01*
X215628979Y-119733910D01*
X215644703Y-119785747D01*
X215670239Y-119833521D01*
X215704604Y-119875396D01*
X215746479Y-119909761D01*
X215794253Y-119935297D01*
X215846090Y-119951021D01*
X215900000Y-119956331D01*
X217076250Y-119955000D01*
X217145000Y-119886250D01*
X217145000Y-119405000D01*
X215693750Y-119405000D01*
X215625000Y-119473750D01*
X215623669Y-119680000D01*
X214499673Y-119680000D01*
X215099674Y-119080000D01*
X215623669Y-119080000D01*
X215625000Y-119286250D01*
X215693750Y-119355000D01*
X217145000Y-119355000D01*
X217145000Y-118873750D01*
X217076250Y-118805000D01*
X215900000Y-118803669D01*
X215846090Y-118808979D01*
X215794253Y-118824703D01*
X215746479Y-118850239D01*
X215704604Y-118884604D01*
X215670239Y-118926479D01*
X215644703Y-118974253D01*
X215628979Y-119026090D01*
X215623669Y-119080000D01*
X215099674Y-119080000D01*
X215689268Y-118490407D01*
X215691122Y-118496520D01*
X215712015Y-118535608D01*
X215740132Y-118569868D01*
X215774392Y-118597985D01*
X215813480Y-118618878D01*
X215855892Y-118631744D01*
X215900000Y-118636088D01*
X218440000Y-118636088D01*
X218444001Y-118635694D01*
X218444001Y-118804063D01*
X218440000Y-118803669D01*
X217263750Y-118805000D01*
X217195000Y-118873750D01*
X217195000Y-119355000D01*
X217215000Y-119355000D01*
X217215000Y-119405000D01*
X217195000Y-119405000D01*
X217195000Y-119886250D01*
X217263750Y-119955000D01*
X218440000Y-119956331D01*
X218444001Y-119955937D01*
X218444001Y-129544000D01*
X167382000Y-129544000D01*
X167382000Y-124660637D01*
X174153036Y-124660637D01*
X174160517Y-124698251D01*
X174228124Y-124908172D01*
X174335385Y-125100870D01*
X174478179Y-125268939D01*
X174651018Y-125405921D01*
X174847259Y-125506552D01*
X175059362Y-125566965D01*
X175235000Y-125515973D01*
X175235000Y-124485000D01*
X175285000Y-124485000D01*
X175285000Y-125515973D01*
X175460638Y-125566965D01*
X175672741Y-125506552D01*
X175868982Y-125405921D01*
X176041821Y-125268939D01*
X176184615Y-125100870D01*
X176291876Y-124908172D01*
X176359483Y-124698251D01*
X176366964Y-124660637D01*
X176315954Y-124485000D01*
X175285000Y-124485000D01*
X175235000Y-124485000D01*
X174204046Y-124485000D01*
X174153036Y-124660637D01*
X167382000Y-124660637D01*
X167382000Y-124259363D01*
X174153036Y-124259363D01*
X174204046Y-124435000D01*
X175235000Y-124435000D01*
X175235000Y-123404027D01*
X175285000Y-123404027D01*
X175285000Y-124435000D01*
X176315954Y-124435000D01*
X176366964Y-124259363D01*
X176359483Y-124221749D01*
X176291876Y-124011828D01*
X176184615Y-123819130D01*
X176041821Y-123651061D01*
X175868982Y-123514079D01*
X175672741Y-123413448D01*
X175460638Y-123353035D01*
X175285000Y-123404027D01*
X175235000Y-123404027D01*
X175059362Y-123353035D01*
X174847259Y-123413448D01*
X174651018Y-123514079D01*
X174478179Y-123651061D01*
X174335385Y-123819130D01*
X174228124Y-124011828D01*
X174160517Y-124221749D01*
X174153036Y-124259363D01*
X167382000Y-124259363D01*
X167382000Y-122120637D01*
X174153036Y-122120637D01*
X174160517Y-122158251D01*
X174228124Y-122368172D01*
X174335385Y-122560870D01*
X174478179Y-122728939D01*
X174651018Y-122865921D01*
X174847259Y-122966552D01*
X175059362Y-123026965D01*
X175235000Y-122975973D01*
X175235000Y-121945000D01*
X174204046Y-121945000D01*
X174153036Y-122120637D01*
X167382000Y-122120637D01*
X167382000Y-121719363D01*
X174153036Y-121719363D01*
X174204046Y-121895000D01*
X175235000Y-121895000D01*
X175235000Y-120864027D01*
X175059362Y-120813035D01*
X174847259Y-120873448D01*
X174651018Y-120974079D01*
X174478179Y-121111061D01*
X174335385Y-121279130D01*
X174228124Y-121471828D01*
X174160517Y-121681749D01*
X174153036Y-121719363D01*
X167382000Y-121719363D01*
X167382000Y-119580637D01*
X174153036Y-119580637D01*
X174160517Y-119618251D01*
X174228124Y-119828172D01*
X174335385Y-120020870D01*
X174478179Y-120188939D01*
X174651018Y-120325921D01*
X174847259Y-120426552D01*
X175059362Y-120486965D01*
X175235000Y-120435973D01*
X175235000Y-119405000D01*
X174204046Y-119405000D01*
X174153036Y-119580637D01*
X167382000Y-119580637D01*
X167382000Y-119179363D01*
X174153036Y-119179363D01*
X174204046Y-119355000D01*
X175235000Y-119355000D01*
X175235000Y-118324027D01*
X175059362Y-118273035D01*
X174847259Y-118333448D01*
X174651018Y-118434079D01*
X174478179Y-118571061D01*
X174335385Y-118739130D01*
X174228124Y-118931828D01*
X174160517Y-119141749D01*
X174153036Y-119179363D01*
X167382000Y-119179363D01*
X167382000Y-117690000D01*
X174133669Y-117690000D01*
X174138979Y-117743910D01*
X174154703Y-117795747D01*
X174180239Y-117843521D01*
X174214604Y-117885396D01*
X174256479Y-117919761D01*
X174304253Y-117945297D01*
X174356090Y-117961021D01*
X174410000Y-117966331D01*
X175166250Y-117965000D01*
X175235000Y-117896250D01*
X175235000Y-116865000D01*
X174203750Y-116865000D01*
X174135000Y-116933750D01*
X174133669Y-117690000D01*
X167382000Y-117690000D01*
X167382000Y-115990000D01*
X174133669Y-115990000D01*
X174135000Y-116746250D01*
X174203750Y-116815000D01*
X175235000Y-116815000D01*
X175235000Y-115783750D01*
X175166250Y-115715000D01*
X174410000Y-115713669D01*
X174356090Y-115718979D01*
X174304253Y-115734703D01*
X174256479Y-115760239D01*
X174214604Y-115794604D01*
X174180239Y-115836479D01*
X174154703Y-115884253D01*
X174138979Y-115936090D01*
X174133669Y-115990000D01*
X167382000Y-115990000D01*
X167382000Y-109420637D01*
X174153036Y-109420637D01*
X174160517Y-109458251D01*
X174228124Y-109668172D01*
X174335385Y-109860870D01*
X174478179Y-110028939D01*
X174651018Y-110165921D01*
X174847259Y-110266552D01*
X175059362Y-110326965D01*
X175235000Y-110275973D01*
X175235000Y-109245000D01*
X174204046Y-109245000D01*
X174153036Y-109420637D01*
X167382000Y-109420637D01*
X167382000Y-109019363D01*
X174153036Y-109019363D01*
X174204046Y-109195000D01*
X175235000Y-109195000D01*
X175235000Y-108164027D01*
X175059362Y-108113035D01*
X174847259Y-108173448D01*
X174651018Y-108274079D01*
X174478179Y-108411061D01*
X174335385Y-108579130D01*
X174228124Y-108771828D01*
X174160517Y-108981749D01*
X174153036Y-109019363D01*
X167382000Y-109019363D01*
X167382000Y-106880637D01*
X174153036Y-106880637D01*
X174160517Y-106918251D01*
X174228124Y-107128172D01*
X174335385Y-107320870D01*
X174478179Y-107488939D01*
X174651018Y-107625921D01*
X174847259Y-107726552D01*
X175059362Y-107786965D01*
X175235000Y-107735973D01*
X175235000Y-106705000D01*
X174204046Y-106705000D01*
X174153036Y-106880637D01*
X167382000Y-106880637D01*
X167382000Y-106479363D01*
X174153036Y-106479363D01*
X174204046Y-106655000D01*
X175235000Y-106655000D01*
X175235000Y-105624027D01*
X175059362Y-105573035D01*
X174847259Y-105633448D01*
X174651018Y-105734079D01*
X174478179Y-105871061D01*
X174335385Y-106039130D01*
X174228124Y-106231828D01*
X174160517Y-106441749D01*
X174153036Y-106479363D01*
X167382000Y-106479363D01*
X167382000Y-104340637D01*
X174153036Y-104340637D01*
X174160517Y-104378251D01*
X174228124Y-104588172D01*
X174335385Y-104780870D01*
X174478179Y-104948939D01*
X174651018Y-105085921D01*
X174847259Y-105186552D01*
X175059362Y-105246965D01*
X175235000Y-105195973D01*
X175235000Y-104165000D01*
X175285000Y-104165000D01*
X175285000Y-105195973D01*
X175460638Y-105246965D01*
X175672741Y-105186552D01*
X175868982Y-105085921D01*
X176041821Y-104948939D01*
X176184615Y-104780870D01*
X176291876Y-104588172D01*
X176359483Y-104378251D01*
X176366964Y-104340637D01*
X176315954Y-104165000D01*
X175285000Y-104165000D01*
X175235000Y-104165000D01*
X174204046Y-104165000D01*
X174153036Y-104340637D01*
X167382000Y-104340637D01*
X167382000Y-103939363D01*
X174153036Y-103939363D01*
X174204046Y-104115000D01*
X175235000Y-104115000D01*
X175235000Y-103084027D01*
X175285000Y-103084027D01*
X175285000Y-104115000D01*
X176315954Y-104115000D01*
X176366964Y-103939363D01*
X176359483Y-103901749D01*
X176291876Y-103691828D01*
X176184615Y-103499130D01*
X176041821Y-103331061D01*
X175868982Y-103194079D01*
X175672741Y-103093448D01*
X175460638Y-103033035D01*
X175285000Y-103084027D01*
X175235000Y-103084027D01*
X175059362Y-103033035D01*
X174847259Y-103093448D01*
X174651018Y-103194079D01*
X174478179Y-103331061D01*
X174335385Y-103499130D01*
X174228124Y-103691828D01*
X174160517Y-103901749D01*
X174153036Y-103939363D01*
X167382000Y-103939363D01*
X167382000Y-102450000D01*
X174133669Y-102450000D01*
X174138979Y-102503910D01*
X174154703Y-102555747D01*
X174180239Y-102603521D01*
X174214604Y-102645396D01*
X174256479Y-102679761D01*
X174304253Y-102705297D01*
X174356090Y-102721021D01*
X174410000Y-102726331D01*
X175166250Y-102725000D01*
X175235000Y-102656250D01*
X175235000Y-101625000D01*
X175285000Y-101625000D01*
X175285000Y-102656250D01*
X175353750Y-102725000D01*
X176110000Y-102726331D01*
X176163910Y-102721021D01*
X176215747Y-102705297D01*
X176263521Y-102679761D01*
X176305396Y-102645396D01*
X176339761Y-102603521D01*
X176365297Y-102555747D01*
X176381021Y-102503910D01*
X176386331Y-102450000D01*
X176385000Y-101693750D01*
X176316250Y-101625000D01*
X175285000Y-101625000D01*
X175235000Y-101625000D01*
X174203750Y-101625000D01*
X174135000Y-101693750D01*
X174133669Y-102450000D01*
X167382000Y-102450000D01*
X167382000Y-100750000D01*
X174133669Y-100750000D01*
X174135000Y-101506250D01*
X174203750Y-101575000D01*
X175235000Y-101575000D01*
X175235000Y-100543750D01*
X175285000Y-100543750D01*
X175285000Y-101575000D01*
X176316250Y-101575000D01*
X176385000Y-101506250D01*
X176386331Y-100750000D01*
X176723912Y-100750000D01*
X176723912Y-102450000D01*
X176728256Y-102494108D01*
X176741122Y-102536520D01*
X176762015Y-102575608D01*
X176790132Y-102609868D01*
X176824392Y-102637985D01*
X176863480Y-102658878D01*
X176905892Y-102671744D01*
X176950000Y-102676088D01*
X178650000Y-102676088D01*
X178694108Y-102671744D01*
X178736520Y-102658878D01*
X178775608Y-102637985D01*
X178809868Y-102609868D01*
X178837985Y-102575608D01*
X178858878Y-102536520D01*
X178871744Y-102494108D01*
X178876088Y-102450000D01*
X178876088Y-101800637D01*
X194473036Y-101800637D01*
X194480517Y-101838251D01*
X194548124Y-102048172D01*
X194655385Y-102240870D01*
X194798179Y-102408939D01*
X194971018Y-102545921D01*
X195167259Y-102646552D01*
X195379362Y-102706965D01*
X195555000Y-102655973D01*
X195555000Y-101625000D01*
X195605000Y-101625000D01*
X195605000Y-102655973D01*
X195780638Y-102706965D01*
X195992741Y-102646552D01*
X196188982Y-102545921D01*
X196361821Y-102408939D01*
X196504615Y-102240870D01*
X196611876Y-102048172D01*
X196679483Y-101838251D01*
X196686964Y-101800637D01*
X196635954Y-101625000D01*
X195605000Y-101625000D01*
X195555000Y-101625000D01*
X194524046Y-101625000D01*
X194473036Y-101800637D01*
X178876088Y-101800637D01*
X178876088Y-101399363D01*
X194473036Y-101399363D01*
X194524046Y-101575000D01*
X195555000Y-101575000D01*
X195555000Y-100544027D01*
X195605000Y-100544027D01*
X195605000Y-101575000D01*
X196635954Y-101575000D01*
X196659443Y-101494122D01*
X197045000Y-101494122D01*
X197045000Y-101705878D01*
X197086312Y-101913566D01*
X197167348Y-102109203D01*
X197284993Y-102285272D01*
X197434728Y-102435007D01*
X197610797Y-102552652D01*
X197806434Y-102633688D01*
X198014122Y-102675000D01*
X198225878Y-102675000D01*
X198433566Y-102633688D01*
X198629203Y-102552652D01*
X198805272Y-102435007D01*
X198955007Y-102285272D01*
X199072652Y-102109203D01*
X199153688Y-101913566D01*
X199195000Y-101705878D01*
X199195000Y-101494122D01*
X199153688Y-101286434D01*
X199072652Y-101090797D01*
X198955007Y-100914728D01*
X198805272Y-100764993D01*
X198629203Y-100647348D01*
X198433566Y-100566312D01*
X198225878Y-100525000D01*
X198014122Y-100525000D01*
X197806434Y-100566312D01*
X197610797Y-100647348D01*
X197434728Y-100764993D01*
X197284993Y-100914728D01*
X197167348Y-101090797D01*
X197086312Y-101286434D01*
X197045000Y-101494122D01*
X196659443Y-101494122D01*
X196686964Y-101399363D01*
X196679483Y-101361749D01*
X196611876Y-101151828D01*
X196504615Y-100959130D01*
X196361821Y-100791061D01*
X196188982Y-100654079D01*
X195992741Y-100553448D01*
X195780638Y-100493035D01*
X195605000Y-100544027D01*
X195555000Y-100544027D01*
X195379362Y-100493035D01*
X195167259Y-100553448D01*
X194971018Y-100654079D01*
X194798179Y-100791061D01*
X194655385Y-100959130D01*
X194548124Y-101151828D01*
X194480517Y-101361749D01*
X194473036Y-101399363D01*
X178876088Y-101399363D01*
X178876088Y-100750000D01*
X178871744Y-100705892D01*
X178858878Y-100663480D01*
X178837985Y-100624392D01*
X178809868Y-100590132D01*
X178775608Y-100562015D01*
X178736520Y-100541122D01*
X178694108Y-100528256D01*
X178650000Y-100523912D01*
X176950000Y-100523912D01*
X176905892Y-100528256D01*
X176863480Y-100541122D01*
X176824392Y-100562015D01*
X176790132Y-100590132D01*
X176762015Y-100624392D01*
X176741122Y-100663480D01*
X176728256Y-100705892D01*
X176723912Y-100750000D01*
X176386331Y-100750000D01*
X176381021Y-100696090D01*
X176365297Y-100644253D01*
X176339761Y-100596479D01*
X176305396Y-100554604D01*
X176263521Y-100520239D01*
X176215747Y-100494703D01*
X176163910Y-100478979D01*
X176110000Y-100473669D01*
X175353750Y-100475000D01*
X175285000Y-100543750D01*
X175235000Y-100543750D01*
X175166250Y-100475000D01*
X174410000Y-100473669D01*
X174356090Y-100478979D01*
X174304253Y-100494703D01*
X174256479Y-100520239D01*
X174214604Y-100554604D01*
X174180239Y-100596479D01*
X174154703Y-100644253D01*
X174138979Y-100696090D01*
X174133669Y-100750000D01*
X167382000Y-100750000D01*
X167382000Y-89100638D01*
X171613035Y-89100638D01*
X171673448Y-89312741D01*
X171774079Y-89508982D01*
X171911061Y-89681821D01*
X172079130Y-89824615D01*
X172271828Y-89931876D01*
X172481749Y-89999483D01*
X172519363Y-90006964D01*
X172695000Y-89955954D01*
X172695000Y-88925000D01*
X172745000Y-88925000D01*
X172745000Y-89955954D01*
X172920637Y-90006964D01*
X172958251Y-89999483D01*
X173168172Y-89931876D01*
X173360870Y-89824615D01*
X173528939Y-89681821D01*
X173665921Y-89508982D01*
X173766552Y-89312741D01*
X173826965Y-89100638D01*
X174153035Y-89100638D01*
X174213448Y-89312741D01*
X174314079Y-89508982D01*
X174451061Y-89681821D01*
X174619130Y-89824615D01*
X174811828Y-89931876D01*
X175021749Y-89999483D01*
X175059363Y-90006964D01*
X175235000Y-89955954D01*
X175235000Y-88925000D01*
X175285000Y-88925000D01*
X175285000Y-89955954D01*
X175460637Y-90006964D01*
X175498251Y-89999483D01*
X175708172Y-89931876D01*
X175900870Y-89824615D01*
X176068939Y-89681821D01*
X176205921Y-89508982D01*
X176306552Y-89312741D01*
X176366965Y-89100638D01*
X176693035Y-89100638D01*
X176753448Y-89312741D01*
X176854079Y-89508982D01*
X176991061Y-89681821D01*
X177159130Y-89824615D01*
X177351828Y-89931876D01*
X177561749Y-89999483D01*
X177599363Y-90006964D01*
X177775000Y-89955954D01*
X177775000Y-88925000D01*
X177825000Y-88925000D01*
X177825000Y-89955954D01*
X178000637Y-90006964D01*
X178038251Y-89999483D01*
X178248172Y-89931876D01*
X178440870Y-89824615D01*
X178528692Y-89750000D01*
X179213669Y-89750000D01*
X179218979Y-89803910D01*
X179234703Y-89855747D01*
X179260239Y-89903521D01*
X179294604Y-89945396D01*
X179336479Y-89979761D01*
X179384253Y-90005297D01*
X179436090Y-90021021D01*
X179490000Y-90026331D01*
X180246250Y-90025000D01*
X180315000Y-89956250D01*
X180315000Y-88925000D01*
X180365000Y-88925000D01*
X180365000Y-89956250D01*
X180433750Y-90025000D01*
X181190000Y-90026331D01*
X181243910Y-90021021D01*
X181295747Y-90005297D01*
X181343521Y-89979761D01*
X181385396Y-89945396D01*
X181419761Y-89903521D01*
X181445297Y-89855747D01*
X181461021Y-89803910D01*
X181466331Y-89750000D01*
X181465000Y-88993750D01*
X181396250Y-88925000D01*
X180365000Y-88925000D01*
X180315000Y-88925000D01*
X179283750Y-88925000D01*
X179215000Y-88993750D01*
X179213669Y-89750000D01*
X178528692Y-89750000D01*
X178608939Y-89681821D01*
X178745921Y-89508982D01*
X178846552Y-89312741D01*
X178906965Y-89100638D01*
X178855973Y-88925000D01*
X177825000Y-88925000D01*
X177775000Y-88925000D01*
X176744027Y-88925000D01*
X176693035Y-89100638D01*
X176366965Y-89100638D01*
X176315973Y-88925000D01*
X175285000Y-88925000D01*
X175235000Y-88925000D01*
X174204027Y-88925000D01*
X174153035Y-89100638D01*
X173826965Y-89100638D01*
X173775973Y-88925000D01*
X172745000Y-88925000D01*
X172695000Y-88925000D01*
X171664027Y-88925000D01*
X171613035Y-89100638D01*
X167382000Y-89100638D01*
X167382000Y-88699362D01*
X171613035Y-88699362D01*
X171664027Y-88875000D01*
X172695000Y-88875000D01*
X172695000Y-87844046D01*
X172745000Y-87844046D01*
X172745000Y-88875000D01*
X173775973Y-88875000D01*
X173826965Y-88699362D01*
X174153035Y-88699362D01*
X174204027Y-88875000D01*
X175235000Y-88875000D01*
X175235000Y-87844046D01*
X175285000Y-87844046D01*
X175285000Y-88875000D01*
X176315973Y-88875000D01*
X176366965Y-88699362D01*
X176693035Y-88699362D01*
X176744027Y-88875000D01*
X177775000Y-88875000D01*
X177775000Y-87844046D01*
X177825000Y-87844046D01*
X177825000Y-88875000D01*
X178855973Y-88875000D01*
X178906965Y-88699362D01*
X178846552Y-88487259D01*
X178745921Y-88291018D01*
X178608939Y-88118179D01*
X178528693Y-88050000D01*
X179213669Y-88050000D01*
X179215000Y-88806250D01*
X179283750Y-88875000D01*
X180315000Y-88875000D01*
X180315000Y-87843750D01*
X180365000Y-87843750D01*
X180365000Y-88875000D01*
X181396250Y-88875000D01*
X181465000Y-88806250D01*
X181466331Y-88050000D01*
X186833669Y-88050000D01*
X186835000Y-88806250D01*
X186903750Y-88875000D01*
X187935000Y-88875000D01*
X187935000Y-87843750D01*
X187985000Y-87843750D01*
X187985000Y-88875000D01*
X189016250Y-88875000D01*
X189085000Y-88806250D01*
X189085188Y-88699362D01*
X189393035Y-88699362D01*
X189444027Y-88875000D01*
X190475000Y-88875000D01*
X190475000Y-87844046D01*
X190525000Y-87844046D01*
X190525000Y-88875000D01*
X191555973Y-88875000D01*
X191606965Y-88699362D01*
X191933035Y-88699362D01*
X191984027Y-88875000D01*
X193015000Y-88875000D01*
X193015000Y-87844046D01*
X193065000Y-87844046D01*
X193065000Y-88875000D01*
X194095973Y-88875000D01*
X194146965Y-88699362D01*
X194473035Y-88699362D01*
X194524027Y-88875000D01*
X195555000Y-88875000D01*
X195555000Y-87844046D01*
X195605000Y-87844046D01*
X195605000Y-88875000D01*
X196635973Y-88875000D01*
X196686965Y-88699362D01*
X202093035Y-88699362D01*
X202144027Y-88875000D01*
X203175000Y-88875000D01*
X203175000Y-87844046D01*
X203225000Y-87844046D01*
X203225000Y-88875000D01*
X204255973Y-88875000D01*
X204306965Y-88699362D01*
X204633035Y-88699362D01*
X204684027Y-88875000D01*
X205715000Y-88875000D01*
X205715000Y-87844046D01*
X205765000Y-87844046D01*
X205765000Y-88875000D01*
X206795973Y-88875000D01*
X206846965Y-88699362D01*
X207173035Y-88699362D01*
X207224027Y-88875000D01*
X208255000Y-88875000D01*
X208255000Y-87844046D01*
X208305000Y-87844046D01*
X208305000Y-88875000D01*
X209335973Y-88875000D01*
X209386965Y-88699362D01*
X209326552Y-88487259D01*
X209225921Y-88291018D01*
X209088939Y-88118179D01*
X209008693Y-88050000D01*
X209693669Y-88050000D01*
X209695000Y-88806250D01*
X209763750Y-88875000D01*
X210795000Y-88875000D01*
X210795000Y-87843750D01*
X210845000Y-87843750D01*
X210845000Y-88875000D01*
X211876250Y-88875000D01*
X211945000Y-88806250D01*
X211946331Y-88050000D01*
X211941021Y-87996090D01*
X211925297Y-87944253D01*
X211899761Y-87896479D01*
X211865396Y-87854604D01*
X211823521Y-87820239D01*
X211775747Y-87794703D01*
X211723910Y-87778979D01*
X211670000Y-87773669D01*
X210913750Y-87775000D01*
X210845000Y-87843750D01*
X210795000Y-87843750D01*
X210726250Y-87775000D01*
X209970000Y-87773669D01*
X209916090Y-87778979D01*
X209864253Y-87794703D01*
X209816479Y-87820239D01*
X209774604Y-87854604D01*
X209740239Y-87896479D01*
X209714703Y-87944253D01*
X209698979Y-87996090D01*
X209693669Y-88050000D01*
X209008693Y-88050000D01*
X208920870Y-87975385D01*
X208728172Y-87868124D01*
X208518251Y-87800517D01*
X208480637Y-87793036D01*
X208305000Y-87844046D01*
X208255000Y-87844046D01*
X208079363Y-87793036D01*
X208041749Y-87800517D01*
X207831828Y-87868124D01*
X207639130Y-87975385D01*
X207471061Y-88118179D01*
X207334079Y-88291018D01*
X207233448Y-88487259D01*
X207173035Y-88699362D01*
X206846965Y-88699362D01*
X206786552Y-88487259D01*
X206685921Y-88291018D01*
X206548939Y-88118179D01*
X206380870Y-87975385D01*
X206188172Y-87868124D01*
X205978251Y-87800517D01*
X205940637Y-87793036D01*
X205765000Y-87844046D01*
X205715000Y-87844046D01*
X205539363Y-87793036D01*
X205501749Y-87800517D01*
X205291828Y-87868124D01*
X205099130Y-87975385D01*
X204931061Y-88118179D01*
X204794079Y-88291018D01*
X204693448Y-88487259D01*
X204633035Y-88699362D01*
X204306965Y-88699362D01*
X204246552Y-88487259D01*
X204145921Y-88291018D01*
X204008939Y-88118179D01*
X203840870Y-87975385D01*
X203648172Y-87868124D01*
X203438251Y-87800517D01*
X203400637Y-87793036D01*
X203225000Y-87844046D01*
X203175000Y-87844046D01*
X202999363Y-87793036D01*
X202961749Y-87800517D01*
X202751828Y-87868124D01*
X202559130Y-87975385D01*
X202391061Y-88118179D01*
X202254079Y-88291018D01*
X202153448Y-88487259D01*
X202093035Y-88699362D01*
X196686965Y-88699362D01*
X196626552Y-88487259D01*
X196525921Y-88291018D01*
X196388939Y-88118179D01*
X196220870Y-87975385D01*
X196028172Y-87868124D01*
X195818251Y-87800517D01*
X195780637Y-87793036D01*
X195605000Y-87844046D01*
X195555000Y-87844046D01*
X195379363Y-87793036D01*
X195341749Y-87800517D01*
X195131828Y-87868124D01*
X194939130Y-87975385D01*
X194771061Y-88118179D01*
X194634079Y-88291018D01*
X194533448Y-88487259D01*
X194473035Y-88699362D01*
X194146965Y-88699362D01*
X194086552Y-88487259D01*
X193985921Y-88291018D01*
X193848939Y-88118179D01*
X193680870Y-87975385D01*
X193488172Y-87868124D01*
X193278251Y-87800517D01*
X193240637Y-87793036D01*
X193065000Y-87844046D01*
X193015000Y-87844046D01*
X192839363Y-87793036D01*
X192801749Y-87800517D01*
X192591828Y-87868124D01*
X192399130Y-87975385D01*
X192231061Y-88118179D01*
X192094079Y-88291018D01*
X191993448Y-88487259D01*
X191933035Y-88699362D01*
X191606965Y-88699362D01*
X191546552Y-88487259D01*
X191445921Y-88291018D01*
X191308939Y-88118179D01*
X191140870Y-87975385D01*
X190948172Y-87868124D01*
X190738251Y-87800517D01*
X190700637Y-87793036D01*
X190525000Y-87844046D01*
X190475000Y-87844046D01*
X190299363Y-87793036D01*
X190261749Y-87800517D01*
X190051828Y-87868124D01*
X189859130Y-87975385D01*
X189691061Y-88118179D01*
X189554079Y-88291018D01*
X189453448Y-88487259D01*
X189393035Y-88699362D01*
X189085188Y-88699362D01*
X189086331Y-88050000D01*
X189081021Y-87996090D01*
X189065297Y-87944253D01*
X189039761Y-87896479D01*
X189005396Y-87854604D01*
X188963521Y-87820239D01*
X188915747Y-87794703D01*
X188863910Y-87778979D01*
X188810000Y-87773669D01*
X188053750Y-87775000D01*
X187985000Y-87843750D01*
X187935000Y-87843750D01*
X187866250Y-87775000D01*
X187110000Y-87773669D01*
X187056090Y-87778979D01*
X187004253Y-87794703D01*
X186956479Y-87820239D01*
X186914604Y-87854604D01*
X186880239Y-87896479D01*
X186854703Y-87944253D01*
X186838979Y-87996090D01*
X186833669Y-88050000D01*
X181466331Y-88050000D01*
X181461021Y-87996090D01*
X181445297Y-87944253D01*
X181419761Y-87896479D01*
X181385396Y-87854604D01*
X181343521Y-87820239D01*
X181295747Y-87794703D01*
X181243910Y-87778979D01*
X181190000Y-87773669D01*
X180433750Y-87775000D01*
X180365000Y-87843750D01*
X180315000Y-87843750D01*
X180246250Y-87775000D01*
X179490000Y-87773669D01*
X179436090Y-87778979D01*
X179384253Y-87794703D01*
X179336479Y-87820239D01*
X179294604Y-87854604D01*
X179260239Y-87896479D01*
X179234703Y-87944253D01*
X179218979Y-87996090D01*
X179213669Y-88050000D01*
X178528693Y-88050000D01*
X178440870Y-87975385D01*
X178248172Y-87868124D01*
X178038251Y-87800517D01*
X178000637Y-87793036D01*
X177825000Y-87844046D01*
X177775000Y-87844046D01*
X177599363Y-87793036D01*
X177561749Y-87800517D01*
X177351828Y-87868124D01*
X177159130Y-87975385D01*
X176991061Y-88118179D01*
X176854079Y-88291018D01*
X176753448Y-88487259D01*
X176693035Y-88699362D01*
X176366965Y-88699362D01*
X176306552Y-88487259D01*
X176205921Y-88291018D01*
X176068939Y-88118179D01*
X175900870Y-87975385D01*
X175708172Y-87868124D01*
X175498251Y-87800517D01*
X175460637Y-87793036D01*
X175285000Y-87844046D01*
X175235000Y-87844046D01*
X175059363Y-87793036D01*
X175021749Y-87800517D01*
X174811828Y-87868124D01*
X174619130Y-87975385D01*
X174451061Y-88118179D01*
X174314079Y-88291018D01*
X174213448Y-88487259D01*
X174153035Y-88699362D01*
X173826965Y-88699362D01*
X173766552Y-88487259D01*
X173665921Y-88291018D01*
X173528939Y-88118179D01*
X173360870Y-87975385D01*
X173168172Y-87868124D01*
X172958251Y-87800517D01*
X172920637Y-87793036D01*
X172745000Y-87844046D01*
X172695000Y-87844046D01*
X172519363Y-87793036D01*
X172481749Y-87800517D01*
X172271828Y-87868124D01*
X172079130Y-87975385D01*
X171911061Y-88118179D01*
X171774079Y-88291018D01*
X171673448Y-88487259D01*
X171613035Y-88699362D01*
X167382000Y-88699362D01*
X167382000Y-85546292D01*
X216645000Y-85546292D01*
X216645000Y-85649708D01*
X216665176Y-85751137D01*
X216704751Y-85846681D01*
X216762206Y-85932668D01*
X216835332Y-86005794D01*
X216921319Y-86063249D01*
X217016863Y-86102824D01*
X217118292Y-86123000D01*
X217221708Y-86123000D01*
X217323137Y-86102824D01*
X217418681Y-86063249D01*
X217504668Y-86005794D01*
X217577794Y-85932668D01*
X217635249Y-85846681D01*
X217674824Y-85751137D01*
X217695000Y-85649708D01*
X217695000Y-85546292D01*
X217674824Y-85444863D01*
X217635249Y-85349319D01*
X217577794Y-85263332D01*
X217504668Y-85190206D01*
X217418681Y-85132751D01*
X217323137Y-85093176D01*
X217221708Y-85073000D01*
X217118292Y-85073000D01*
X217016863Y-85093176D01*
X216921319Y-85132751D01*
X216835332Y-85190206D01*
X216762206Y-85263332D01*
X216704751Y-85349319D01*
X216665176Y-85444863D01*
X216645000Y-85546292D01*
X167382000Y-85546292D01*
X167382000Y-83387292D01*
X211184000Y-83387292D01*
X211184000Y-83490708D01*
X211204176Y-83592137D01*
X211243751Y-83687681D01*
X211301206Y-83773668D01*
X211374332Y-83846794D01*
X211460319Y-83904249D01*
X211555863Y-83943824D01*
X211657292Y-83964000D01*
X211760708Y-83964000D01*
X211862137Y-83943824D01*
X211957681Y-83904249D01*
X212043668Y-83846794D01*
X212116794Y-83773668D01*
X212174249Y-83687681D01*
X212213824Y-83592137D01*
X212234000Y-83490708D01*
X212234000Y-83387292D01*
X212835000Y-83387292D01*
X212835000Y-83490708D01*
X212855176Y-83592137D01*
X212894751Y-83687681D01*
X212952206Y-83773668D01*
X213025332Y-83846794D01*
X213111319Y-83904249D01*
X213206863Y-83943824D01*
X213308292Y-83964000D01*
X213411708Y-83964000D01*
X213513137Y-83943824D01*
X213608681Y-83904249D01*
X213694668Y-83846794D01*
X213767794Y-83773668D01*
X213825249Y-83687681D01*
X213864824Y-83592137D01*
X213885000Y-83490708D01*
X213885000Y-83387292D01*
X213872369Y-83323792D01*
X214422500Y-83323792D01*
X214422500Y-83427208D01*
X214442676Y-83528637D01*
X214482251Y-83624181D01*
X214539706Y-83710168D01*
X214612832Y-83783294D01*
X214698819Y-83840749D01*
X214794363Y-83880324D01*
X214895792Y-83900500D01*
X214999208Y-83900500D01*
X215100637Y-83880324D01*
X215196181Y-83840749D01*
X215282168Y-83783294D01*
X215355294Y-83710168D01*
X215412749Y-83624181D01*
X215452324Y-83528637D01*
X215472500Y-83427208D01*
X215472500Y-83323792D01*
X215452324Y-83222363D01*
X215412749Y-83126819D01*
X215355294Y-83040832D01*
X215282168Y-82967706D01*
X215196181Y-82910251D01*
X215100637Y-82870676D01*
X214999208Y-82850500D01*
X214895792Y-82850500D01*
X214794363Y-82870676D01*
X214698819Y-82910251D01*
X214612832Y-82967706D01*
X214539706Y-83040832D01*
X214482251Y-83126819D01*
X214442676Y-83222363D01*
X214422500Y-83323792D01*
X213872369Y-83323792D01*
X213864824Y-83285863D01*
X213825249Y-83190319D01*
X213767794Y-83104332D01*
X213694668Y-83031206D01*
X213608681Y-82973751D01*
X213513137Y-82934176D01*
X213411708Y-82914000D01*
X213308292Y-82914000D01*
X213206863Y-82934176D01*
X213111319Y-82973751D01*
X213025332Y-83031206D01*
X212952206Y-83104332D01*
X212894751Y-83190319D01*
X212855176Y-83285863D01*
X212835000Y-83387292D01*
X212234000Y-83387292D01*
X212213824Y-83285863D01*
X212174249Y-83190319D01*
X212116794Y-83104332D01*
X212043668Y-83031206D01*
X211957681Y-82973751D01*
X211862137Y-82934176D01*
X211760708Y-82914000D01*
X211657292Y-82914000D01*
X211555863Y-82934176D01*
X211460319Y-82973751D01*
X211374332Y-83031206D01*
X211301206Y-83104332D01*
X211243751Y-83190319D01*
X211204176Y-83285863D01*
X211184000Y-83387292D01*
X167382000Y-83387292D01*
X167382000Y-81736292D01*
X211184000Y-81736292D01*
X211184000Y-81839708D01*
X211204176Y-81941137D01*
X211243751Y-82036681D01*
X211301206Y-82122668D01*
X211374332Y-82195794D01*
X211460319Y-82253249D01*
X211555863Y-82292824D01*
X211657292Y-82313000D01*
X211760708Y-82313000D01*
X211862137Y-82292824D01*
X211957681Y-82253249D01*
X212043668Y-82195794D01*
X212116794Y-82122668D01*
X212174249Y-82036681D01*
X212213824Y-81941137D01*
X212234000Y-81839708D01*
X212234000Y-81736292D01*
X214486000Y-81736292D01*
X214486000Y-81839708D01*
X214506176Y-81941137D01*
X214545751Y-82036681D01*
X214603206Y-82122668D01*
X214676332Y-82195794D01*
X214762319Y-82253249D01*
X214857863Y-82292824D01*
X214959292Y-82313000D01*
X215062708Y-82313000D01*
X215164137Y-82292824D01*
X215259681Y-82253249D01*
X215345668Y-82195794D01*
X215418794Y-82122668D01*
X215476249Y-82036681D01*
X215515824Y-81941137D01*
X215536000Y-81839708D01*
X215536000Y-81736292D01*
X215515824Y-81634863D01*
X215476249Y-81539319D01*
X215418794Y-81453332D01*
X215345668Y-81380206D01*
X215259681Y-81322751D01*
X215164137Y-81283176D01*
X215062708Y-81263000D01*
X214959292Y-81263000D01*
X214857863Y-81283176D01*
X214762319Y-81322751D01*
X214676332Y-81380206D01*
X214603206Y-81453332D01*
X214545751Y-81539319D01*
X214506176Y-81634863D01*
X214486000Y-81736292D01*
X212234000Y-81736292D01*
X212213824Y-81634863D01*
X212174249Y-81539319D01*
X212116794Y-81453332D01*
X212043668Y-81380206D01*
X211957681Y-81322751D01*
X211862137Y-81283176D01*
X211760708Y-81263000D01*
X211657292Y-81263000D01*
X211555863Y-81283176D01*
X211460319Y-81322751D01*
X211374332Y-81380206D01*
X211301206Y-81453332D01*
X211243751Y-81539319D01*
X211204176Y-81634863D01*
X211184000Y-81736292D01*
X167382000Y-81736292D01*
X167382000Y-80085292D01*
X211184000Y-80085292D01*
X211184000Y-80188708D01*
X211204176Y-80290137D01*
X211243751Y-80385681D01*
X211301206Y-80471668D01*
X211374332Y-80544794D01*
X211460319Y-80602249D01*
X211555863Y-80641824D01*
X211657292Y-80662000D01*
X211760708Y-80662000D01*
X211862137Y-80641824D01*
X211957681Y-80602249D01*
X212043668Y-80544794D01*
X212116794Y-80471668D01*
X212174249Y-80385681D01*
X212213824Y-80290137D01*
X212234000Y-80188708D01*
X212234000Y-80085292D01*
X212835000Y-80085292D01*
X212835000Y-80188708D01*
X212855176Y-80290137D01*
X212894751Y-80385681D01*
X212952206Y-80471668D01*
X213025332Y-80544794D01*
X213111319Y-80602249D01*
X213206863Y-80641824D01*
X213308292Y-80662000D01*
X213411708Y-80662000D01*
X213513137Y-80641824D01*
X213608681Y-80602249D01*
X213694668Y-80544794D01*
X213767794Y-80471668D01*
X213825249Y-80385681D01*
X213864824Y-80290137D01*
X213885000Y-80188708D01*
X213885000Y-80085292D01*
X214486000Y-80085292D01*
X214486000Y-80188708D01*
X214506176Y-80290137D01*
X214545751Y-80385681D01*
X214603206Y-80471668D01*
X214676332Y-80544794D01*
X214762319Y-80602249D01*
X214857863Y-80641824D01*
X214959292Y-80662000D01*
X215062708Y-80662000D01*
X215164137Y-80641824D01*
X215259681Y-80602249D01*
X215345668Y-80544794D01*
X215418794Y-80471668D01*
X215476249Y-80385681D01*
X215515824Y-80290137D01*
X215536000Y-80188708D01*
X215536000Y-80085292D01*
X215515824Y-79983863D01*
X215476249Y-79888319D01*
X215418794Y-79802332D01*
X215345668Y-79729206D01*
X215259681Y-79671751D01*
X215164137Y-79632176D01*
X215062708Y-79612000D01*
X214959292Y-79612000D01*
X214857863Y-79632176D01*
X214762319Y-79671751D01*
X214676332Y-79729206D01*
X214603206Y-79802332D01*
X214545751Y-79888319D01*
X214506176Y-79983863D01*
X214486000Y-80085292D01*
X213885000Y-80085292D01*
X213864824Y-79983863D01*
X213825249Y-79888319D01*
X213767794Y-79802332D01*
X213694668Y-79729206D01*
X213608681Y-79671751D01*
X213513137Y-79632176D01*
X213411708Y-79612000D01*
X213308292Y-79612000D01*
X213206863Y-79632176D01*
X213111319Y-79671751D01*
X213025332Y-79729206D01*
X212952206Y-79802332D01*
X212894751Y-79888319D01*
X212855176Y-79983863D01*
X212835000Y-80085292D01*
X212234000Y-80085292D01*
X212213824Y-79983863D01*
X212174249Y-79888319D01*
X212116794Y-79802332D01*
X212043668Y-79729206D01*
X211957681Y-79671751D01*
X211862137Y-79632176D01*
X211760708Y-79612000D01*
X211657292Y-79612000D01*
X211555863Y-79632176D01*
X211460319Y-79671751D01*
X211374332Y-79729206D01*
X211301206Y-79802332D01*
X211243751Y-79888319D01*
X211204176Y-79983863D01*
X211184000Y-80085292D01*
X167382000Y-80085292D01*
X167382000Y-78228000D01*
X218444000Y-78228000D01*
X218444000Y-101074306D01*
G36*
X215691122Y-117226520D02*
G01*
X215712015Y-117265608D01*
X215740132Y-117299868D01*
X215774392Y-117327985D01*
X215813480Y-117348878D01*
X215855892Y-117361744D01*
X215900000Y-117366088D01*
X218440000Y-117366088D01*
X218444001Y-117365694D01*
X218444001Y-117584306D01*
X218440000Y-117583912D01*
X215900000Y-117583912D01*
X215855892Y-117588256D01*
X215813480Y-117601122D01*
X215774392Y-117622015D01*
X215740132Y-117650132D01*
X215712015Y-117684392D01*
X215691122Y-117723480D01*
X215680043Y-117760000D01*
X215591889Y-117760000D01*
X215574700Y-117758307D01*
X215557511Y-117760000D01*
X215506088Y-117765065D01*
X215440113Y-117785078D01*
X215379310Y-117817578D01*
X215326015Y-117861315D01*
X215315055Y-117874670D01*
X213851028Y-119338699D01*
X213851017Y-119338708D01*
X210444327Y-122745400D01*
X178494879Y-122745400D01*
X178635007Y-122605272D01*
X178752652Y-122429203D01*
X178818596Y-122270000D01*
X210477512Y-122270000D01*
X210494700Y-122271693D01*
X210511888Y-122270000D01*
X210511889Y-122270000D01*
X210563312Y-122264935D01*
X210629287Y-122244922D01*
X210690090Y-122212422D01*
X210743385Y-122168685D01*
X210754354Y-122155319D01*
X215689267Y-117220407D01*
X215691122Y-117226520D01*
G37*
X215691122Y-117226520D02*
X215712015Y-117265608D01*
X215740132Y-117299868D01*
X215774392Y-117327985D01*
X215813480Y-117348878D01*
X215855892Y-117361744D01*
X215900000Y-117366088D01*
X218440000Y-117366088D01*
X218444001Y-117365694D01*
X218444001Y-117584306D01*
X218440000Y-117583912D01*
X215900000Y-117583912D01*
X215855892Y-117588256D01*
X215813480Y-117601122D01*
X215774392Y-117622015D01*
X215740132Y-117650132D01*
X215712015Y-117684392D01*
X215691122Y-117723480D01*
X215680043Y-117760000D01*
X215591889Y-117760000D01*
X215574700Y-117758307D01*
X215557511Y-117760000D01*
X215506088Y-117765065D01*
X215440113Y-117785078D01*
X215379310Y-117817578D01*
X215326015Y-117861315D01*
X215315055Y-117874670D01*
X213851028Y-119338699D01*
X213851017Y-119338708D01*
X210444327Y-122745400D01*
X178494879Y-122745400D01*
X178635007Y-122605272D01*
X178752652Y-122429203D01*
X178818596Y-122270000D01*
X210477512Y-122270000D01*
X210494700Y-122271693D01*
X210511888Y-122270000D01*
X210511889Y-122270000D01*
X210563312Y-122264935D01*
X210629287Y-122244922D01*
X210690090Y-122212422D01*
X210743385Y-122168685D01*
X210754354Y-122155319D01*
X215689267Y-117220407D01*
X215691122Y-117226520D01*
G36*
X215691122Y-115956520D02*
G01*
X215712015Y-115995608D01*
X215740132Y-116029868D01*
X215774392Y-116057985D01*
X215813480Y-116078878D01*
X215855892Y-116091744D01*
X215900000Y-116096088D01*
X218440000Y-116096088D01*
X218444001Y-116095694D01*
X218444001Y-116314306D01*
X218440000Y-116313912D01*
X215900000Y-116313912D01*
X215855892Y-116318256D01*
X215813480Y-116331122D01*
X215774392Y-116352015D01*
X215740132Y-116380132D01*
X215712015Y-116414392D01*
X215691122Y-116453480D01*
X215680043Y-116490000D01*
X215591889Y-116490000D01*
X215574700Y-116488307D01*
X215506088Y-116495065D01*
X215440112Y-116515078D01*
X215418933Y-116526399D01*
X215379310Y-116547578D01*
X215326015Y-116591315D01*
X215315051Y-116604675D01*
X210349727Y-121570000D01*
X178818596Y-121570000D01*
X178752652Y-121410797D01*
X178635007Y-121234728D01*
X178485272Y-121084993D01*
X178309203Y-120967348D01*
X178113566Y-120886312D01*
X177905878Y-120845000D01*
X177694122Y-120845000D01*
X177486434Y-120886312D01*
X177290797Y-120967348D01*
X177114728Y-121084993D01*
X176964993Y-121234728D01*
X176934900Y-121279766D01*
X176934900Y-120020234D01*
X176964993Y-120065272D01*
X177114728Y-120215007D01*
X177290797Y-120332652D01*
X177486434Y-120413688D01*
X177694122Y-120455000D01*
X177905878Y-120455000D01*
X178113566Y-120413688D01*
X178309203Y-120332652D01*
X178485272Y-120215007D01*
X178635007Y-120065272D01*
X178752652Y-119889203D01*
X178833688Y-119693566D01*
X178875000Y-119485878D01*
X178875000Y-119274122D01*
X178833688Y-119066434D01*
X178752652Y-118870797D01*
X178635007Y-118694728D01*
X178485272Y-118544993D01*
X178309203Y-118427348D01*
X178113566Y-118346312D01*
X177905878Y-118305000D01*
X177694122Y-118305000D01*
X177486434Y-118346312D01*
X177290797Y-118427348D01*
X177114728Y-118544993D01*
X176964993Y-118694728D01*
X176934900Y-118739766D01*
X176934900Y-117914601D01*
X176950000Y-117916088D01*
X178650000Y-117916088D01*
X178694108Y-117911744D01*
X178736520Y-117898878D01*
X178775608Y-117877985D01*
X178809868Y-117849868D01*
X178837985Y-117815608D01*
X178858878Y-117776520D01*
X178871744Y-117734108D01*
X178876088Y-117690000D01*
X178876088Y-117235761D01*
X182472656Y-120832331D01*
X182483615Y-120845685D01*
X182536910Y-120889422D01*
X182597713Y-120921922D01*
X182663688Y-120941935D01*
X182715111Y-120947000D01*
X182715113Y-120947000D01*
X182732299Y-120948693D01*
X182749485Y-120947000D01*
X210530512Y-120947000D01*
X210547700Y-120948693D01*
X210564888Y-120947000D01*
X210564889Y-120947000D01*
X210616312Y-120941935D01*
X210682287Y-120921922D01*
X210743090Y-120889422D01*
X210796385Y-120845685D01*
X210807354Y-120832319D01*
X215689268Y-115950407D01*
X215691122Y-115956520D01*
G37*
X215691122Y-115956520D02*
X215712015Y-115995608D01*
X215740132Y-116029868D01*
X215774392Y-116057985D01*
X215813480Y-116078878D01*
X215855892Y-116091744D01*
X215900000Y-116096088D01*
X218440000Y-116096088D01*
X218444001Y-116095694D01*
X218444001Y-116314306D01*
X218440000Y-116313912D01*
X215900000Y-116313912D01*
X215855892Y-116318256D01*
X215813480Y-116331122D01*
X215774392Y-116352015D01*
X215740132Y-116380132D01*
X215712015Y-116414392D01*
X215691122Y-116453480D01*
X215680043Y-116490000D01*
X215591889Y-116490000D01*
X215574700Y-116488307D01*
X215506088Y-116495065D01*
X215440112Y-116515078D01*
X215418933Y-116526399D01*
X215379310Y-116547578D01*
X215326015Y-116591315D01*
X215315051Y-116604675D01*
X210349727Y-121570000D01*
X178818596Y-121570000D01*
X178752652Y-121410797D01*
X178635007Y-121234728D01*
X178485272Y-121084993D01*
X178309203Y-120967348D01*
X178113566Y-120886312D01*
X177905878Y-120845000D01*
X177694122Y-120845000D01*
X177486434Y-120886312D01*
X177290797Y-120967348D01*
X177114728Y-121084993D01*
X176964993Y-121234728D01*
X176934900Y-121279766D01*
X176934900Y-120020234D01*
X176964993Y-120065272D01*
X177114728Y-120215007D01*
X177290797Y-120332652D01*
X177486434Y-120413688D01*
X177694122Y-120455000D01*
X177905878Y-120455000D01*
X178113566Y-120413688D01*
X178309203Y-120332652D01*
X178485272Y-120215007D01*
X178635007Y-120065272D01*
X178752652Y-119889203D01*
X178833688Y-119693566D01*
X178875000Y-119485878D01*
X178875000Y-119274122D01*
X178833688Y-119066434D01*
X178752652Y-118870797D01*
X178635007Y-118694728D01*
X178485272Y-118544993D01*
X178309203Y-118427348D01*
X178113566Y-118346312D01*
X177905878Y-118305000D01*
X177694122Y-118305000D01*
X177486434Y-118346312D01*
X177290797Y-118427348D01*
X177114728Y-118544993D01*
X176964993Y-118694728D01*
X176934900Y-118739766D01*
X176934900Y-117914601D01*
X176950000Y-117916088D01*
X178650000Y-117916088D01*
X178694108Y-117911744D01*
X178736520Y-117898878D01*
X178775608Y-117877985D01*
X178809868Y-117849868D01*
X178837985Y-117815608D01*
X178858878Y-117776520D01*
X178871744Y-117734108D01*
X178876088Y-117690000D01*
X178876088Y-117235761D01*
X182472656Y-120832331D01*
X182483615Y-120845685D01*
X182536910Y-120889422D01*
X182597713Y-120921922D01*
X182663688Y-120941935D01*
X182715111Y-120947000D01*
X182715113Y-120947000D01*
X182732299Y-120948693D01*
X182749485Y-120947000D01*
X210530512Y-120947000D01*
X210547700Y-120948693D01*
X210564888Y-120947000D01*
X210564889Y-120947000D01*
X210616312Y-120941935D01*
X210682287Y-120921922D01*
X210743090Y-120889422D01*
X210796385Y-120845685D01*
X210807354Y-120832319D01*
X215689268Y-115950407D01*
X215691122Y-115956520D01*
G36*
X215691122Y-114686520D02*
G01*
X215712015Y-114725608D01*
X215740132Y-114759868D01*
X215774392Y-114787985D01*
X215813480Y-114808878D01*
X215855892Y-114821744D01*
X215900000Y-114826088D01*
X218440000Y-114826088D01*
X218444001Y-114825694D01*
X218444001Y-115044306D01*
X218440000Y-115043912D01*
X215900000Y-115043912D01*
X215855892Y-115048256D01*
X215813480Y-115061122D01*
X215774392Y-115082015D01*
X215740132Y-115110132D01*
X215712015Y-115144392D01*
X215691122Y-115183480D01*
X215680043Y-115220000D01*
X215591889Y-115220000D01*
X215574700Y-115218307D01*
X215557511Y-115220000D01*
X215506088Y-115225065D01*
X215440113Y-115245078D01*
X215379310Y-115277578D01*
X215326015Y-115321315D01*
X215315056Y-115334669D01*
X210402727Y-120247000D01*
X199194414Y-120247000D01*
X199196088Y-120230000D01*
X199196088Y-119730000D01*
X210477512Y-119730000D01*
X210494700Y-119731693D01*
X210511888Y-119730000D01*
X210511889Y-119730000D01*
X210563312Y-119724935D01*
X210629287Y-119704922D01*
X210690090Y-119672422D01*
X210743385Y-119628685D01*
X210754354Y-119615319D01*
X215689267Y-114680407D01*
X215691122Y-114686520D01*
G37*
X215691122Y-114686520D02*
X215712015Y-114725608D01*
X215740132Y-114759868D01*
X215774392Y-114787985D01*
X215813480Y-114808878D01*
X215855892Y-114821744D01*
X215900000Y-114826088D01*
X218440000Y-114826088D01*
X218444001Y-114825694D01*
X218444001Y-115044306D01*
X218440000Y-115043912D01*
X215900000Y-115043912D01*
X215855892Y-115048256D01*
X215813480Y-115061122D01*
X215774392Y-115082015D01*
X215740132Y-115110132D01*
X215712015Y-115144392D01*
X215691122Y-115183480D01*
X215680043Y-115220000D01*
X215591889Y-115220000D01*
X215574700Y-115218307D01*
X215557511Y-115220000D01*
X215506088Y-115225065D01*
X215440113Y-115245078D01*
X215379310Y-115277578D01*
X215326015Y-115321315D01*
X215315056Y-115334669D01*
X210402727Y-120247000D01*
X199194414Y-120247000D01*
X199196088Y-120230000D01*
X199196088Y-119730000D01*
X210477512Y-119730000D01*
X210494700Y-119731693D01*
X210511888Y-119730000D01*
X210511889Y-119730000D01*
X210563312Y-119724935D01*
X210629287Y-119704922D01*
X210690090Y-119672422D01*
X210743385Y-119628685D01*
X210754354Y-119615319D01*
X215689267Y-114680407D01*
X215691122Y-114686520D01*
G36*
X215691122Y-105796520D02*
G01*
X215712015Y-105835608D01*
X215740132Y-105869868D01*
X215774392Y-105897985D01*
X215813480Y-105918878D01*
X215855892Y-105931744D01*
X215900000Y-105936088D01*
X218440000Y-105936088D01*
X218444001Y-105935694D01*
X218444001Y-106154306D01*
X218440000Y-106153912D01*
X215900000Y-106153912D01*
X215855892Y-106158256D01*
X215813480Y-106171122D01*
X215774392Y-106192015D01*
X215740132Y-106220132D01*
X215712015Y-106254392D01*
X215691122Y-106293480D01*
X215680043Y-106330000D01*
X215018273Y-106330000D01*
X214448273Y-105760000D01*
X215680043Y-105760000D01*
X215691122Y-105796520D01*
G37*
X215691122Y-105796520D02*
X215712015Y-105835608D01*
X215740132Y-105869868D01*
X215774392Y-105897985D01*
X215813480Y-105918878D01*
X215855892Y-105931744D01*
X215900000Y-105936088D01*
X218440000Y-105936088D01*
X218444001Y-105935694D01*
X218444001Y-106154306D01*
X218440000Y-106153912D01*
X215900000Y-106153912D01*
X215855892Y-106158256D01*
X215813480Y-106171122D01*
X215774392Y-106192015D01*
X215740132Y-106220132D01*
X215712015Y-106254392D01*
X215691122Y-106293480D01*
X215680043Y-106330000D01*
X215018273Y-106330000D01*
X214448273Y-105760000D01*
X215680043Y-105760000D01*
X215691122Y-105796520D01*
G36*
X213887626Y-101677900D02*
G01*
X213807992Y-101677900D01*
X213706563Y-101698076D01*
X213611019Y-101737651D01*
X213525032Y-101795106D01*
X213451906Y-101868232D01*
X213394451Y-101954219D01*
X213354876Y-102049763D01*
X213334700Y-102151192D01*
X213334700Y-102254608D01*
X213354876Y-102356037D01*
X213394451Y-102451581D01*
X213451906Y-102537568D01*
X213525032Y-102610694D01*
X213611019Y-102668149D01*
X213706563Y-102707724D01*
X213726770Y-102711744D01*
X215390355Y-104375330D01*
X215401315Y-104388685D01*
X215454610Y-104432422D01*
X215515413Y-104464922D01*
X215581388Y-104484935D01*
X215650000Y-104491694D01*
X215667196Y-104490000D01*
X215680043Y-104490000D01*
X215691122Y-104526520D01*
X215712015Y-104565608D01*
X215740132Y-104599868D01*
X215774392Y-104627985D01*
X215813480Y-104648878D01*
X215855892Y-104661744D01*
X215900000Y-104666088D01*
X218440000Y-104666088D01*
X218444001Y-104665694D01*
X218444001Y-104884306D01*
X218440000Y-104883912D01*
X215900000Y-104883912D01*
X215855892Y-104888256D01*
X215813480Y-104901122D01*
X215774392Y-104922015D01*
X215740132Y-104950132D01*
X215712015Y-104984392D01*
X215691122Y-105023480D01*
X215680043Y-105060000D01*
X214561446Y-105060000D01*
X214428641Y-104927196D01*
X214428637Y-104927191D01*
X206196336Y-96694891D01*
X206196336Y-96613156D01*
X206176160Y-96511727D01*
X206136585Y-96416183D01*
X206132988Y-96410800D01*
X208620527Y-96410800D01*
X213887626Y-101677900D01*
G37*
X213887626Y-101677900D02*
X213807992Y-101677900D01*
X213706563Y-101698076D01*
X213611019Y-101737651D01*
X213525032Y-101795106D01*
X213451906Y-101868232D01*
X213394451Y-101954219D01*
X213354876Y-102049763D01*
X213334700Y-102151192D01*
X213334700Y-102254608D01*
X213354876Y-102356037D01*
X213394451Y-102451581D01*
X213451906Y-102537568D01*
X213525032Y-102610694D01*
X213611019Y-102668149D01*
X213706563Y-102707724D01*
X213726770Y-102711744D01*
X215390355Y-104375330D01*
X215401315Y-104388685D01*
X215454610Y-104432422D01*
X215515413Y-104464922D01*
X215581388Y-104484935D01*
X215650000Y-104491694D01*
X215667196Y-104490000D01*
X215680043Y-104490000D01*
X215691122Y-104526520D01*
X215712015Y-104565608D01*
X215740132Y-104599868D01*
X215774392Y-104627985D01*
X215813480Y-104648878D01*
X215855892Y-104661744D01*
X215900000Y-104666088D01*
X218440000Y-104666088D01*
X218444001Y-104665694D01*
X218444001Y-104884306D01*
X218440000Y-104883912D01*
X215900000Y-104883912D01*
X215855892Y-104888256D01*
X215813480Y-104901122D01*
X215774392Y-104922015D01*
X215740132Y-104950132D01*
X215712015Y-104984392D01*
X215691122Y-105023480D01*
X215680043Y-105060000D01*
X214561446Y-105060000D01*
X214428641Y-104927196D01*
X214428637Y-104927191D01*
X206196336Y-96694891D01*
X206196336Y-96613156D01*
X206176160Y-96511727D01*
X206136585Y-96416183D01*
X206132988Y-96410800D01*
X208620527Y-96410800D01*
X213887626Y-101677900D01*
G36*
X202600556Y-95565631D02*
G01*
X202611515Y-95578985D01*
X202664810Y-95622722D01*
X202725613Y-95655222D01*
X202771574Y-95669164D01*
X202791587Y-95675235D01*
X202860199Y-95681993D01*
X202877388Y-95680300D01*
X209160027Y-95680300D01*
X215315051Y-101835325D01*
X215326015Y-101848685D01*
X215361710Y-101877978D01*
X215379310Y-101892422D01*
X215440112Y-101924922D01*
X215506088Y-101944935D01*
X215574700Y-101951693D01*
X215591889Y-101950000D01*
X215680043Y-101950000D01*
X215691122Y-101986520D01*
X215712015Y-102025608D01*
X215740132Y-102059868D01*
X215774392Y-102087985D01*
X215813480Y-102108878D01*
X215855892Y-102121744D01*
X215900000Y-102126088D01*
X218440000Y-102126088D01*
X218444000Y-102125694D01*
X218444000Y-102344306D01*
X218440000Y-102343912D01*
X215900000Y-102343912D01*
X215855892Y-102348256D01*
X215813480Y-102361122D01*
X215774392Y-102382015D01*
X215740132Y-102410132D01*
X215712015Y-102444392D01*
X215691122Y-102483480D01*
X215689267Y-102489593D01*
X209025154Y-95825481D01*
X209014185Y-95812115D01*
X208960890Y-95768378D01*
X208900087Y-95735878D01*
X208834112Y-95715865D01*
X208782689Y-95710800D01*
X208782688Y-95710800D01*
X208765500Y-95709107D01*
X208748312Y-95710800D01*
X198613775Y-95710800D01*
X195404031Y-92501058D01*
X195474122Y-92515000D01*
X195685878Y-92515000D01*
X195893566Y-92473688D01*
X196089203Y-92392652D01*
X196265272Y-92275007D01*
X196415007Y-92125272D01*
X196532652Y-91949203D01*
X196613688Y-91753566D01*
X196655000Y-91545878D01*
X196655000Y-91334122D01*
X196613688Y-91126434D01*
X196532652Y-90930797D01*
X196415007Y-90754728D01*
X196274979Y-90614700D01*
X197649627Y-90614700D01*
X202600556Y-95565631D01*
G37*
X202600556Y-95565631D02*
X202611515Y-95578985D01*
X202664810Y-95622722D01*
X202725613Y-95655222D01*
X202771574Y-95669164D01*
X202791587Y-95675235D01*
X202860199Y-95681993D01*
X202877388Y-95680300D01*
X209160027Y-95680300D01*
X215315051Y-101835325D01*
X215326015Y-101848685D01*
X215361710Y-101877978D01*
X215379310Y-101892422D01*
X215440112Y-101924922D01*
X215506088Y-101944935D01*
X215574700Y-101951693D01*
X215591889Y-101950000D01*
X215680043Y-101950000D01*
X215691122Y-101986520D01*
X215712015Y-102025608D01*
X215740132Y-102059868D01*
X215774392Y-102087985D01*
X215813480Y-102108878D01*
X215855892Y-102121744D01*
X215900000Y-102126088D01*
X218440000Y-102126088D01*
X218444000Y-102125694D01*
X218444000Y-102344306D01*
X218440000Y-102343912D01*
X215900000Y-102343912D01*
X215855892Y-102348256D01*
X215813480Y-102361122D01*
X215774392Y-102382015D01*
X215740132Y-102410132D01*
X215712015Y-102444392D01*
X215691122Y-102483480D01*
X215689267Y-102489593D01*
X209025154Y-95825481D01*
X209014185Y-95812115D01*
X208960890Y-95768378D01*
X208900087Y-95735878D01*
X208834112Y-95715865D01*
X208782689Y-95710800D01*
X208782688Y-95710800D01*
X208765500Y-95709107D01*
X208748312Y-95710800D01*
X198613775Y-95710800D01*
X195404031Y-92501058D01*
X195474122Y-92515000D01*
X195685878Y-92515000D01*
X195893566Y-92473688D01*
X196089203Y-92392652D01*
X196265272Y-92275007D01*
X196415007Y-92125272D01*
X196532652Y-91949203D01*
X196613688Y-91753566D01*
X196655000Y-91545878D01*
X196655000Y-91334122D01*
X196613688Y-91126434D01*
X196532652Y-90930797D01*
X196415007Y-90754728D01*
X196274979Y-90614700D01*
X197649627Y-90614700D01*
X202600556Y-95565631D01*
M02*
