G04 #@! TF.GenerationSoftware,KiCad,Pcbnew,(5.1.5)-3*
G04 #@! TF.CreationDate,2020-01-25T21:01:36+03:00*
G04 #@! TF.ProjectId,Casio VX Debug Unit,43617369-6f20-4565-9820-446562756720,rev?*
G04 #@! TF.SameCoordinates,Original*
G04 #@! TF.FileFunction,Legend,Top*
G04 #@! TF.FilePolarity,Positive*
%FSLAX46Y46*%
G04 Gerber Fmt 4.6, Leading zero omitted, Abs format (unit mm)*
G04 Created by KiCad (PCBNEW (5.1.5)-3) date 2020-01-25 21:01:36*
%MOMM*%
%LPD*%
G04 APERTURE LIST*
%ADD10C,0.150000*%
%ADD11C,0.300000*%
%ADD12C,0.120000*%
G04 APERTURE END LIST*
D10*
X185500952Y-126944380D02*
X185500952Y-125944380D01*
X185500952Y-126325333D02*
X185596190Y-126277714D01*
X185786666Y-126277714D01*
X185881904Y-126325333D01*
X185929523Y-126372952D01*
X185977142Y-126468190D01*
X185977142Y-126753904D01*
X185929523Y-126849142D01*
X185881904Y-126896761D01*
X185786666Y-126944380D01*
X185596190Y-126944380D01*
X185500952Y-126896761D01*
X186310476Y-126277714D02*
X186548571Y-126944380D01*
X186786666Y-126277714D02*
X186548571Y-126944380D01*
X186453333Y-127182476D01*
X186405714Y-127230095D01*
X186310476Y-127277714D01*
X187929523Y-126944380D02*
X187929523Y-125944380D01*
X187929523Y-126420571D02*
X188500952Y-126420571D01*
X188500952Y-126944380D02*
X188500952Y-125944380D01*
X188881904Y-125944380D02*
X189120000Y-126944380D01*
X189310476Y-126230095D01*
X189500952Y-126944380D01*
X189739047Y-125944380D01*
X190691428Y-126944380D02*
X190358095Y-126468190D01*
X190120000Y-126944380D02*
X190120000Y-125944380D01*
X190500952Y-125944380D01*
X190596190Y-125992000D01*
X190643809Y-126039619D01*
X190691428Y-126134857D01*
X190691428Y-126277714D01*
X190643809Y-126372952D01*
X190596190Y-126420571D01*
X190500952Y-126468190D01*
X190120000Y-126468190D01*
X191310476Y-125944380D02*
X191405714Y-125944380D01*
X191500952Y-125992000D01*
X191548571Y-126039619D01*
X191596190Y-126134857D01*
X191643809Y-126325333D01*
X191643809Y-126563428D01*
X191596190Y-126753904D01*
X191548571Y-126849142D01*
X191500952Y-126896761D01*
X191405714Y-126944380D01*
X191310476Y-126944380D01*
X191215238Y-126896761D01*
X191167619Y-126849142D01*
X191120000Y-126753904D01*
X191072380Y-126563428D01*
X191072380Y-126325333D01*
X191120000Y-126134857D01*
X191167619Y-126039619D01*
X191215238Y-125992000D01*
X191310476Y-125944380D01*
X193596190Y-126277714D02*
X192834285Y-126563428D01*
X193596190Y-126849142D01*
X194453333Y-126896761D02*
X194358095Y-126944380D01*
X194167619Y-126944380D01*
X194072380Y-126896761D01*
X194024761Y-126801523D01*
X194024761Y-126420571D01*
X194072380Y-126325333D01*
X194167619Y-126277714D01*
X194358095Y-126277714D01*
X194453333Y-126325333D01*
X194500952Y-126420571D01*
X194500952Y-126515809D01*
X194024761Y-126611047D01*
X194834285Y-126277714D02*
X195072380Y-126944380D01*
X195310476Y-126277714D01*
X195691428Y-126944380D02*
X195691428Y-126277714D01*
X195691428Y-125944380D02*
X195643809Y-125992000D01*
X195691428Y-126039619D01*
X195739047Y-125992000D01*
X195691428Y-125944380D01*
X195691428Y-126039619D01*
X196310476Y-126944380D02*
X196215238Y-126896761D01*
X196167619Y-126801523D01*
X196167619Y-125944380D01*
X196691428Y-126944380D02*
X196691428Y-125944380D01*
X197120000Y-126944380D02*
X197120000Y-126420571D01*
X197072380Y-126325333D01*
X196977142Y-126277714D01*
X196834285Y-126277714D01*
X196739047Y-126325333D01*
X196691428Y-126372952D01*
X198024761Y-126944380D02*
X198024761Y-126420571D01*
X197977142Y-126325333D01*
X197881904Y-126277714D01*
X197691428Y-126277714D01*
X197596190Y-126325333D01*
X198024761Y-126896761D02*
X197929523Y-126944380D01*
X197691428Y-126944380D01*
X197596190Y-126896761D01*
X197548571Y-126801523D01*
X197548571Y-126706285D01*
X197596190Y-126611047D01*
X197691428Y-126563428D01*
X197929523Y-126563428D01*
X198024761Y-126515809D01*
X198500952Y-126944380D02*
X198500952Y-126277714D01*
X198500952Y-126468190D02*
X198548571Y-126372952D01*
X198596190Y-126325333D01*
X198691428Y-126277714D01*
X198786666Y-126277714D01*
X199548571Y-126944380D02*
X199548571Y-125944380D01*
X199548571Y-126896761D02*
X199453333Y-126944380D01*
X199262857Y-126944380D01*
X199167619Y-126896761D01*
X199120000Y-126849142D01*
X199072380Y-126753904D01*
X199072380Y-126468190D01*
X199120000Y-126372952D01*
X199167619Y-126325333D01*
X199262857Y-126277714D01*
X199453333Y-126277714D01*
X199548571Y-126325333D01*
X199929523Y-126277714D02*
X200120000Y-126944380D01*
X200310476Y-126468190D01*
X200500952Y-126944380D01*
X200691428Y-126277714D01*
X201500952Y-126944380D02*
X201500952Y-126420571D01*
X201453333Y-126325333D01*
X201358095Y-126277714D01*
X201167619Y-126277714D01*
X201072380Y-126325333D01*
X201500952Y-126896761D02*
X201405714Y-126944380D01*
X201167619Y-126944380D01*
X201072380Y-126896761D01*
X201024761Y-126801523D01*
X201024761Y-126706285D01*
X201072380Y-126611047D01*
X201167619Y-126563428D01*
X201405714Y-126563428D01*
X201500952Y-126515809D01*
X201977142Y-126944380D02*
X201977142Y-126277714D01*
X201977142Y-126468190D02*
X202024761Y-126372952D01*
X202072380Y-126325333D01*
X202167619Y-126277714D01*
X202262857Y-126277714D01*
X202977142Y-126896761D02*
X202881904Y-126944380D01*
X202691428Y-126944380D01*
X202596190Y-126896761D01*
X202548571Y-126801523D01*
X202548571Y-126420571D01*
X202596190Y-126325333D01*
X202691428Y-126277714D01*
X202881904Y-126277714D01*
X202977142Y-126325333D01*
X203024761Y-126420571D01*
X203024761Y-126515809D01*
X202548571Y-126611047D01*
X204072380Y-126468190D02*
X204024761Y-126420571D01*
X203929523Y-126372952D01*
X203834285Y-126372952D01*
X203739047Y-126420571D01*
X203691428Y-126468190D01*
X203643809Y-126563428D01*
X203643809Y-126658666D01*
X203691428Y-126753904D01*
X203739047Y-126801523D01*
X203834285Y-126849142D01*
X203929523Y-126849142D01*
X204024761Y-126801523D01*
X204072380Y-126753904D01*
X204072380Y-126372952D02*
X204072380Y-126753904D01*
X204120000Y-126801523D01*
X204167619Y-126801523D01*
X204262857Y-126753904D01*
X204310476Y-126658666D01*
X204310476Y-126420571D01*
X204215238Y-126277714D01*
X204072380Y-126182476D01*
X203881904Y-126134857D01*
X203691428Y-126182476D01*
X203548571Y-126277714D01*
X203453333Y-126420571D01*
X203405714Y-126611047D01*
X203453333Y-126801523D01*
X203548571Y-126944380D01*
X203691428Y-127039619D01*
X203881904Y-127087238D01*
X204072380Y-127039619D01*
X204215238Y-126944380D01*
X204739047Y-126944380D02*
X204739047Y-126277714D01*
X204739047Y-126372952D02*
X204786666Y-126325333D01*
X204881904Y-126277714D01*
X205024761Y-126277714D01*
X205120000Y-126325333D01*
X205167619Y-126420571D01*
X205167619Y-126944380D01*
X205167619Y-126420571D02*
X205215238Y-126325333D01*
X205310476Y-126277714D01*
X205453333Y-126277714D01*
X205548571Y-126325333D01*
X205596190Y-126420571D01*
X205596190Y-126944380D01*
X206500952Y-126944380D02*
X206500952Y-126420571D01*
X206453333Y-126325333D01*
X206358095Y-126277714D01*
X206167619Y-126277714D01*
X206072380Y-126325333D01*
X206500952Y-126896761D02*
X206405714Y-126944380D01*
X206167619Y-126944380D01*
X206072380Y-126896761D01*
X206024761Y-126801523D01*
X206024761Y-126706285D01*
X206072380Y-126611047D01*
X206167619Y-126563428D01*
X206405714Y-126563428D01*
X206500952Y-126515809D01*
X206977142Y-126944380D02*
X206977142Y-126277714D01*
X206977142Y-125944380D02*
X206929523Y-125992000D01*
X206977142Y-126039619D01*
X207024761Y-125992000D01*
X206977142Y-125944380D01*
X206977142Y-126039619D01*
X207596190Y-126944380D02*
X207500952Y-126896761D01*
X207453333Y-126801523D01*
X207453333Y-125944380D01*
X207977142Y-126849142D02*
X208024761Y-126896761D01*
X207977142Y-126944380D01*
X207929523Y-126896761D01*
X207977142Y-126849142D01*
X207977142Y-126944380D01*
X208453333Y-126944380D02*
X208453333Y-126277714D01*
X208453333Y-126468190D02*
X208500952Y-126372952D01*
X208548571Y-126325333D01*
X208643809Y-126277714D01*
X208739047Y-126277714D01*
X209500952Y-126277714D02*
X209500952Y-126944380D01*
X209072380Y-126277714D02*
X209072380Y-126801523D01*
X209120000Y-126896761D01*
X209215238Y-126944380D01*
X209358095Y-126944380D01*
X209453333Y-126896761D01*
X209500952Y-126849142D01*
X209977142Y-126277714D02*
X210739047Y-126563428D01*
X209977142Y-126849142D01*
D11*
X172441000Y-81088000D02*
X172374333Y-81154666D01*
X172174333Y-81221333D01*
X172041000Y-81221333D01*
X171841000Y-81154666D01*
X171707666Y-81021333D01*
X171641000Y-80888000D01*
X171574333Y-80621333D01*
X171574333Y-80421333D01*
X171641000Y-80154666D01*
X171707666Y-80021333D01*
X171841000Y-79888000D01*
X172041000Y-79821333D01*
X172174333Y-79821333D01*
X172374333Y-79888000D01*
X172441000Y-79954666D01*
X173641000Y-81221333D02*
X173641000Y-80488000D01*
X173574333Y-80354666D01*
X173441000Y-80288000D01*
X173174333Y-80288000D01*
X173041000Y-80354666D01*
X173641000Y-81154666D02*
X173507666Y-81221333D01*
X173174333Y-81221333D01*
X173041000Y-81154666D01*
X172974333Y-81021333D01*
X172974333Y-80888000D01*
X173041000Y-80754666D01*
X173174333Y-80688000D01*
X173507666Y-80688000D01*
X173641000Y-80621333D01*
X174241000Y-81154666D02*
X174374333Y-81221333D01*
X174641000Y-81221333D01*
X174774333Y-81154666D01*
X174841000Y-81021333D01*
X174841000Y-80954666D01*
X174774333Y-80821333D01*
X174641000Y-80754666D01*
X174441000Y-80754666D01*
X174307666Y-80688000D01*
X174241000Y-80554666D01*
X174241000Y-80488000D01*
X174307666Y-80354666D01*
X174441000Y-80288000D01*
X174641000Y-80288000D01*
X174774333Y-80354666D01*
X175441000Y-81221333D02*
X175441000Y-80288000D01*
X175441000Y-79821333D02*
X175374333Y-79888000D01*
X175441000Y-79954666D01*
X175507666Y-79888000D01*
X175441000Y-79821333D01*
X175441000Y-79954666D01*
X176307666Y-81221333D02*
X176174333Y-81154666D01*
X176107666Y-81088000D01*
X176041000Y-80954666D01*
X176041000Y-80554666D01*
X176107666Y-80421333D01*
X176174333Y-80354666D01*
X176307666Y-80288000D01*
X176507666Y-80288000D01*
X176641000Y-80354666D01*
X176707666Y-80421333D01*
X176774333Y-80554666D01*
X176774333Y-80954666D01*
X176707666Y-81088000D01*
X176641000Y-81154666D01*
X176507666Y-81221333D01*
X176307666Y-81221333D01*
X178241000Y-79821333D02*
X178707666Y-81221333D01*
X179174333Y-79821333D01*
X179507666Y-79821333D02*
X180441000Y-81221333D01*
X180441000Y-79821333D02*
X179507666Y-81221333D01*
X180841000Y-79821333D02*
X181707666Y-79821333D01*
X181241000Y-80354666D01*
X181441000Y-80354666D01*
X181574333Y-80421333D01*
X181641000Y-80488000D01*
X181707666Y-80621333D01*
X181707666Y-80954666D01*
X181641000Y-81088000D01*
X181574333Y-81154666D01*
X181441000Y-81221333D01*
X181041000Y-81221333D01*
X180907666Y-81154666D01*
X180841000Y-81088000D01*
X183307666Y-79754666D02*
X182107666Y-81554666D01*
X183574333Y-79821333D02*
X184041000Y-81221333D01*
X184507666Y-79821333D01*
X184841000Y-79821333D02*
X185774333Y-81221333D01*
X185774333Y-79821333D02*
X184841000Y-81221333D01*
X186907666Y-80288000D02*
X186907666Y-81221333D01*
X186574333Y-79754666D02*
X186241000Y-80754666D01*
X187107666Y-80754666D01*
X189107666Y-81754666D02*
X189041000Y-81688000D01*
X188907666Y-81488000D01*
X188841000Y-81354666D01*
X188774333Y-81154666D01*
X188707666Y-80821333D01*
X188707666Y-80554666D01*
X188774333Y-80221333D01*
X188841000Y-80021333D01*
X188907666Y-79888000D01*
X189041000Y-79688000D01*
X189107666Y-79621333D01*
X190107666Y-80488000D02*
X189641000Y-80488000D01*
X189641000Y-81221333D02*
X189641000Y-79821333D01*
X190307666Y-79821333D01*
X190707666Y-79821333D02*
X191641000Y-81221333D01*
X191641000Y-79821333D02*
X190707666Y-81221333D01*
X192174333Y-80688000D02*
X193241000Y-80688000D01*
X194107666Y-80421333D02*
X193974333Y-80354666D01*
X193907666Y-80288000D01*
X193841000Y-80154666D01*
X193841000Y-80088000D01*
X193907666Y-79954666D01*
X193974333Y-79888000D01*
X194107666Y-79821333D01*
X194374333Y-79821333D01*
X194507666Y-79888000D01*
X194574333Y-79954666D01*
X194641000Y-80088000D01*
X194641000Y-80154666D01*
X194574333Y-80288000D01*
X194507666Y-80354666D01*
X194374333Y-80421333D01*
X194107666Y-80421333D01*
X193974333Y-80488000D01*
X193907666Y-80554666D01*
X193841000Y-80688000D01*
X193841000Y-80954666D01*
X193907666Y-81088000D01*
X193974333Y-81154666D01*
X194107666Y-81221333D01*
X194374333Y-81221333D01*
X194507666Y-81154666D01*
X194574333Y-81088000D01*
X194641000Y-80954666D01*
X194641000Y-80688000D01*
X194574333Y-80554666D01*
X194507666Y-80488000D01*
X194374333Y-80421333D01*
X195907666Y-79821333D02*
X195241000Y-79821333D01*
X195174333Y-80488000D01*
X195241000Y-80421333D01*
X195374333Y-80354666D01*
X195707666Y-80354666D01*
X195841000Y-80421333D01*
X195907666Y-80488000D01*
X195974333Y-80621333D01*
X195974333Y-80954666D01*
X195907666Y-81088000D01*
X195841000Y-81154666D01*
X195707666Y-81221333D01*
X195374333Y-81221333D01*
X195241000Y-81154666D01*
X195174333Y-81088000D01*
X196841000Y-79821333D02*
X196974333Y-79821333D01*
X197107666Y-79888000D01*
X197174333Y-79954666D01*
X197241000Y-80088000D01*
X197307666Y-80354666D01*
X197307666Y-80688000D01*
X197241000Y-80954666D01*
X197174333Y-81088000D01*
X197107666Y-81154666D01*
X196974333Y-81221333D01*
X196841000Y-81221333D01*
X196707666Y-81154666D01*
X196641000Y-81088000D01*
X196574333Y-80954666D01*
X196507666Y-80688000D01*
X196507666Y-80354666D01*
X196574333Y-80088000D01*
X196641000Y-79954666D01*
X196707666Y-79888000D01*
X196841000Y-79821333D01*
X198907666Y-79754666D02*
X197707666Y-81554666D01*
X199574333Y-80421333D02*
X199441000Y-80354666D01*
X199374333Y-80288000D01*
X199307666Y-80154666D01*
X199307666Y-80088000D01*
X199374333Y-79954666D01*
X199441000Y-79888000D01*
X199574333Y-79821333D01*
X199841000Y-79821333D01*
X199974333Y-79888000D01*
X200041000Y-79954666D01*
X200107666Y-80088000D01*
X200107666Y-80154666D01*
X200041000Y-80288000D01*
X199974333Y-80354666D01*
X199841000Y-80421333D01*
X199574333Y-80421333D01*
X199441000Y-80488000D01*
X199374333Y-80554666D01*
X199307666Y-80688000D01*
X199307666Y-80954666D01*
X199374333Y-81088000D01*
X199441000Y-81154666D01*
X199574333Y-81221333D01*
X199841000Y-81221333D01*
X199974333Y-81154666D01*
X200041000Y-81088000D01*
X200107666Y-80954666D01*
X200107666Y-80688000D01*
X200041000Y-80554666D01*
X199974333Y-80488000D01*
X199841000Y-80421333D01*
X200907666Y-80421333D02*
X200774333Y-80354666D01*
X200707666Y-80288000D01*
X200641000Y-80154666D01*
X200641000Y-80088000D01*
X200707666Y-79954666D01*
X200774333Y-79888000D01*
X200907666Y-79821333D01*
X201174333Y-79821333D01*
X201307666Y-79888000D01*
X201374333Y-79954666D01*
X201441000Y-80088000D01*
X201441000Y-80154666D01*
X201374333Y-80288000D01*
X201307666Y-80354666D01*
X201174333Y-80421333D01*
X200907666Y-80421333D01*
X200774333Y-80488000D01*
X200707666Y-80554666D01*
X200641000Y-80688000D01*
X200641000Y-80954666D01*
X200707666Y-81088000D01*
X200774333Y-81154666D01*
X200907666Y-81221333D01*
X201174333Y-81221333D01*
X201307666Y-81154666D01*
X201374333Y-81088000D01*
X201441000Y-80954666D01*
X201441000Y-80688000D01*
X201374333Y-80554666D01*
X201307666Y-80488000D01*
X201174333Y-80421333D01*
X202307666Y-79821333D02*
X202440999Y-79821333D01*
X202574333Y-79888000D01*
X202640999Y-79954666D01*
X202707666Y-80088000D01*
X202774333Y-80354666D01*
X202774333Y-80688000D01*
X202707666Y-80954666D01*
X202640999Y-81088000D01*
X202574333Y-81154666D01*
X202440999Y-81221333D01*
X202307666Y-81221333D01*
X202174333Y-81154666D01*
X202107666Y-81088000D01*
X202040999Y-80954666D01*
X201974333Y-80688000D01*
X201974333Y-80354666D01*
X202040999Y-80088000D01*
X202107666Y-79954666D01*
X202174333Y-79888000D01*
X202307666Y-79821333D01*
X203374333Y-81221333D02*
X203374333Y-79821333D01*
X203907666Y-79821333D01*
X204040999Y-79888000D01*
X204107666Y-79954666D01*
X204174333Y-80088000D01*
X204174333Y-80288000D01*
X204107666Y-80421333D01*
X204040999Y-80488000D01*
X203907666Y-80554666D01*
X203374333Y-80554666D01*
X204640999Y-81754666D02*
X204707666Y-81688000D01*
X204840999Y-81488000D01*
X204907666Y-81354666D01*
X204974333Y-81154666D01*
X205041000Y-80821333D01*
X205041000Y-80554666D01*
X204974333Y-80221333D01*
X204907666Y-80021333D01*
X204840999Y-79888000D01*
X204707666Y-79688000D01*
X204640999Y-79621333D01*
X173574333Y-83554666D02*
X173774333Y-83621333D01*
X174107666Y-83621333D01*
X174241000Y-83554666D01*
X174307666Y-83488000D01*
X174374333Y-83354666D01*
X174374333Y-83221333D01*
X174307666Y-83088000D01*
X174241000Y-83021333D01*
X174107666Y-82954666D01*
X173841000Y-82888000D01*
X173707666Y-82821333D01*
X173641000Y-82754666D01*
X173574333Y-82621333D01*
X173574333Y-82488000D01*
X173641000Y-82354666D01*
X173707666Y-82288000D01*
X173841000Y-82221333D01*
X174174333Y-82221333D01*
X174374333Y-82288000D01*
X174841000Y-82688000D02*
X175174333Y-83621333D01*
X175507666Y-82688000D02*
X175174333Y-83621333D01*
X175041000Y-83954666D01*
X174974333Y-84021333D01*
X174841000Y-84088000D01*
X175974333Y-83554666D02*
X176107666Y-83621333D01*
X176374333Y-83621333D01*
X176507666Y-83554666D01*
X176574333Y-83421333D01*
X176574333Y-83354666D01*
X176507666Y-83221333D01*
X176374333Y-83154666D01*
X176174333Y-83154666D01*
X176041000Y-83088000D01*
X175974333Y-82954666D01*
X175974333Y-82888000D01*
X176041000Y-82754666D01*
X176174333Y-82688000D01*
X176374333Y-82688000D01*
X176507666Y-82754666D01*
X176974333Y-82688000D02*
X177507666Y-82688000D01*
X177174333Y-82221333D02*
X177174333Y-83421333D01*
X177241000Y-83554666D01*
X177374333Y-83621333D01*
X177507666Y-83621333D01*
X178507666Y-83554666D02*
X178374333Y-83621333D01*
X178107666Y-83621333D01*
X177974333Y-83554666D01*
X177907666Y-83421333D01*
X177907666Y-82888000D01*
X177974333Y-82754666D01*
X178107666Y-82688000D01*
X178374333Y-82688000D01*
X178507666Y-82754666D01*
X178574333Y-82888000D01*
X178574333Y-83021333D01*
X177907666Y-83154666D01*
X179174333Y-83621333D02*
X179174333Y-82688000D01*
X179174333Y-82821333D02*
X179241000Y-82754666D01*
X179374333Y-82688000D01*
X179574333Y-82688000D01*
X179707666Y-82754666D01*
X179774333Y-82888000D01*
X179774333Y-83621333D01*
X179774333Y-82888000D02*
X179841000Y-82754666D01*
X179974333Y-82688000D01*
X180174333Y-82688000D01*
X180307666Y-82754666D01*
X180374333Y-82888000D01*
X180374333Y-83621333D01*
X182574333Y-82888000D02*
X182774333Y-82954666D01*
X182841000Y-83021333D01*
X182907666Y-83154666D01*
X182907666Y-83354666D01*
X182841000Y-83488000D01*
X182774333Y-83554666D01*
X182641000Y-83621333D01*
X182107666Y-83621333D01*
X182107666Y-82221333D01*
X182574333Y-82221333D01*
X182707666Y-82288000D01*
X182774333Y-82354666D01*
X182841000Y-82488000D01*
X182841000Y-82621333D01*
X182774333Y-82754666D01*
X182707666Y-82821333D01*
X182574333Y-82888000D01*
X182107666Y-82888000D01*
X184107666Y-82688000D02*
X184107666Y-83621333D01*
X183507666Y-82688000D02*
X183507666Y-83421333D01*
X183574333Y-83554666D01*
X183707666Y-83621333D01*
X183907666Y-83621333D01*
X184041000Y-83554666D01*
X184107666Y-83488000D01*
X184707666Y-83554666D02*
X184841000Y-83621333D01*
X185107666Y-83621333D01*
X185241000Y-83554666D01*
X185307666Y-83421333D01*
X185307666Y-83354666D01*
X185241000Y-83221333D01*
X185107666Y-83154666D01*
X184907666Y-83154666D01*
X184774333Y-83088000D01*
X184707666Y-82954666D01*
X184707666Y-82888000D01*
X184774333Y-82754666D01*
X184907666Y-82688000D01*
X185107666Y-82688000D01*
X185241000Y-82754666D01*
X186974333Y-83621333D02*
X186974333Y-82221333D01*
X187307666Y-82221333D01*
X187507666Y-82288000D01*
X187641000Y-82421333D01*
X187707666Y-82554666D01*
X187774333Y-82821333D01*
X187774333Y-83021333D01*
X187707666Y-83288000D01*
X187641000Y-83421333D01*
X187507666Y-83554666D01*
X187307666Y-83621333D01*
X186974333Y-83621333D01*
X188907666Y-83554666D02*
X188774333Y-83621333D01*
X188507666Y-83621333D01*
X188374333Y-83554666D01*
X188307666Y-83421333D01*
X188307666Y-82888000D01*
X188374333Y-82754666D01*
X188507666Y-82688000D01*
X188774333Y-82688000D01*
X188907666Y-82754666D01*
X188974333Y-82888000D01*
X188974333Y-83021333D01*
X188307666Y-83154666D01*
X189574333Y-83621333D02*
X189574333Y-82221333D01*
X189574333Y-82754666D02*
X189707666Y-82688000D01*
X189974333Y-82688000D01*
X190107666Y-82754666D01*
X190174333Y-82821333D01*
X190241000Y-82954666D01*
X190241000Y-83354666D01*
X190174333Y-83488000D01*
X190107666Y-83554666D01*
X189974333Y-83621333D01*
X189707666Y-83621333D01*
X189574333Y-83554666D01*
X191441000Y-82688000D02*
X191441000Y-83621333D01*
X190841000Y-82688000D02*
X190841000Y-83421333D01*
X190907666Y-83554666D01*
X191041000Y-83621333D01*
X191241000Y-83621333D01*
X191374333Y-83554666D01*
X191441000Y-83488000D01*
X192707666Y-82688000D02*
X192707666Y-83821333D01*
X192641000Y-83954666D01*
X192574333Y-84021333D01*
X192441000Y-84088000D01*
X192241000Y-84088000D01*
X192107666Y-84021333D01*
X192707666Y-83554666D02*
X192574333Y-83621333D01*
X192307666Y-83621333D01*
X192174333Y-83554666D01*
X192107666Y-83488000D01*
X192041000Y-83354666D01*
X192041000Y-82954666D01*
X192107666Y-82821333D01*
X192174333Y-82754666D01*
X192307666Y-82688000D01*
X192574333Y-82688000D01*
X192707666Y-82754666D01*
X194441000Y-83621333D02*
X194441000Y-82221333D01*
X195107666Y-82688000D02*
X195107666Y-83621333D01*
X195107666Y-82821333D02*
X195174333Y-82754666D01*
X195307666Y-82688000D01*
X195507666Y-82688000D01*
X195641000Y-82754666D01*
X195707666Y-82888000D01*
X195707666Y-83621333D01*
X196174333Y-82688000D02*
X196707666Y-82688000D01*
X196374333Y-82221333D02*
X196374333Y-83421333D01*
X196441000Y-83554666D01*
X196574333Y-83621333D01*
X196707666Y-83621333D01*
X197707666Y-83554666D02*
X197574333Y-83621333D01*
X197307666Y-83621333D01*
X197174333Y-83554666D01*
X197107666Y-83421333D01*
X197107666Y-82888000D01*
X197174333Y-82754666D01*
X197307666Y-82688000D01*
X197574333Y-82688000D01*
X197707666Y-82754666D01*
X197774333Y-82888000D01*
X197774333Y-83021333D01*
X197107666Y-83154666D01*
X198374333Y-83621333D02*
X198374333Y-82688000D01*
X198374333Y-82954666D02*
X198441000Y-82821333D01*
X198507666Y-82754666D01*
X198641000Y-82688000D01*
X198774333Y-82688000D01*
X199041000Y-82688000D02*
X199574333Y-82688000D01*
X199241000Y-83621333D02*
X199241000Y-82421333D01*
X199307666Y-82288000D01*
X199441000Y-82221333D01*
X199574333Y-82221333D01*
X200641000Y-83621333D02*
X200641000Y-82888000D01*
X200574333Y-82754666D01*
X200441000Y-82688000D01*
X200174333Y-82688000D01*
X200041000Y-82754666D01*
X200641000Y-83554666D02*
X200507666Y-83621333D01*
X200174333Y-83621333D01*
X200041000Y-83554666D01*
X199974333Y-83421333D01*
X199974333Y-83288000D01*
X200041000Y-83154666D01*
X200174333Y-83088000D01*
X200507666Y-83088000D01*
X200641000Y-83021333D01*
X201907666Y-83554666D02*
X201774333Y-83621333D01*
X201507666Y-83621333D01*
X201374333Y-83554666D01*
X201307666Y-83488000D01*
X201241000Y-83354666D01*
X201241000Y-82954666D01*
X201307666Y-82821333D01*
X201374333Y-82754666D01*
X201507666Y-82688000D01*
X201774333Y-82688000D01*
X201907666Y-82754666D01*
X203041000Y-83554666D02*
X202907666Y-83621333D01*
X202641000Y-83621333D01*
X202507666Y-83554666D01*
X202441000Y-83421333D01*
X202441000Y-82888000D01*
X202507666Y-82754666D01*
X202641000Y-82688000D01*
X202907666Y-82688000D01*
X203041000Y-82754666D01*
X203107666Y-82888000D01*
X203107666Y-83021333D01*
X202441000Y-83154666D01*
D12*
X193675000Y-120650000D02*
X193675000Y-100330000D01*
X173355000Y-125730000D02*
X173355000Y-115570000D01*
X173355000Y-110490000D02*
X173355000Y-100330000D01*
X201930000Y-86995000D02*
X212090000Y-86995000D01*
X186690000Y-86995000D02*
X196850000Y-86995000D01*
X171450000Y-86995000D02*
X181610000Y-86995000D01*
D10*
X193413000Y-104648095D02*
X193460619Y-104552857D01*
X193460619Y-104410000D01*
X193413000Y-104267142D01*
X193317761Y-104171904D01*
X193222523Y-104124285D01*
X193032047Y-104076666D01*
X192889190Y-104076666D01*
X192698714Y-104124285D01*
X192603476Y-104171904D01*
X192508238Y-104267142D01*
X192460619Y-104410000D01*
X192460619Y-104505238D01*
X192508238Y-104648095D01*
X192555857Y-104695714D01*
X192889190Y-104695714D01*
X192889190Y-104505238D01*
X192460619Y-105124285D02*
X193460619Y-105124285D01*
X192460619Y-105695714D01*
X193460619Y-105695714D01*
X192460619Y-106171904D02*
X193460619Y-106171904D01*
X193460619Y-106410000D01*
X193413000Y-106552857D01*
X193317761Y-106648095D01*
X193222523Y-106695714D01*
X193032047Y-106743333D01*
X192889190Y-106743333D01*
X192698714Y-106695714D01*
X192603476Y-106648095D01*
X192508238Y-106552857D01*
X192460619Y-106410000D01*
X192460619Y-106171904D01*
X193413000Y-114808095D02*
X193460619Y-114712857D01*
X193460619Y-114570000D01*
X193413000Y-114427142D01*
X193317761Y-114331904D01*
X193222523Y-114284285D01*
X193032047Y-114236666D01*
X192889190Y-114236666D01*
X192698714Y-114284285D01*
X192603476Y-114331904D01*
X192508238Y-114427142D01*
X192460619Y-114570000D01*
X192460619Y-114665238D01*
X192508238Y-114808095D01*
X192555857Y-114855714D01*
X192889190Y-114855714D01*
X192889190Y-114665238D01*
X192460619Y-115284285D02*
X193460619Y-115284285D01*
X192460619Y-115855714D01*
X193460619Y-115855714D01*
X192460619Y-116331904D02*
X193460619Y-116331904D01*
X193460619Y-116570000D01*
X193413000Y-116712857D01*
X193317761Y-116808095D01*
X193222523Y-116855714D01*
X193032047Y-116903333D01*
X192889190Y-116903333D01*
X192698714Y-116855714D01*
X192603476Y-116808095D01*
X192508238Y-116712857D01*
X192460619Y-116570000D01*
X192460619Y-116331904D01*
X173093000Y-119888095D02*
X173140619Y-119792857D01*
X173140619Y-119650000D01*
X173093000Y-119507142D01*
X172997761Y-119411904D01*
X172902523Y-119364285D01*
X172712047Y-119316666D01*
X172569190Y-119316666D01*
X172378714Y-119364285D01*
X172283476Y-119411904D01*
X172188238Y-119507142D01*
X172140619Y-119650000D01*
X172140619Y-119745238D01*
X172188238Y-119888095D01*
X172235857Y-119935714D01*
X172569190Y-119935714D01*
X172569190Y-119745238D01*
X172140619Y-120364285D02*
X173140619Y-120364285D01*
X172140619Y-120935714D01*
X173140619Y-120935714D01*
X172140619Y-121411904D02*
X173140619Y-121411904D01*
X173140619Y-121650000D01*
X173093000Y-121792857D01*
X172997761Y-121888095D01*
X172902523Y-121935714D01*
X172712047Y-121983333D01*
X172569190Y-121983333D01*
X172378714Y-121935714D01*
X172283476Y-121888095D01*
X172188238Y-121792857D01*
X172140619Y-121650000D01*
X172140619Y-121411904D01*
X173093000Y-104648095D02*
X173140619Y-104552857D01*
X173140619Y-104410000D01*
X173093000Y-104267142D01*
X172997761Y-104171904D01*
X172902523Y-104124285D01*
X172712047Y-104076666D01*
X172569190Y-104076666D01*
X172378714Y-104124285D01*
X172283476Y-104171904D01*
X172188238Y-104267142D01*
X172140619Y-104410000D01*
X172140619Y-104505238D01*
X172188238Y-104648095D01*
X172235857Y-104695714D01*
X172569190Y-104695714D01*
X172569190Y-104505238D01*
X172140619Y-105124285D02*
X173140619Y-105124285D01*
X172140619Y-105695714D01*
X173140619Y-105695714D01*
X172140619Y-106171904D02*
X173140619Y-106171904D01*
X173140619Y-106410000D01*
X173093000Y-106552857D01*
X172997761Y-106648095D01*
X172902523Y-106695714D01*
X172712047Y-106743333D01*
X172569190Y-106743333D01*
X172378714Y-106695714D01*
X172283476Y-106648095D01*
X172188238Y-106552857D01*
X172140619Y-106410000D01*
X172140619Y-106171904D01*
X206248095Y-85860000D02*
X206152857Y-85812380D01*
X206010000Y-85812380D01*
X205867142Y-85860000D01*
X205771904Y-85955238D01*
X205724285Y-86050476D01*
X205676666Y-86240952D01*
X205676666Y-86383809D01*
X205724285Y-86574285D01*
X205771904Y-86669523D01*
X205867142Y-86764761D01*
X206010000Y-86812380D01*
X206105238Y-86812380D01*
X206248095Y-86764761D01*
X206295714Y-86717142D01*
X206295714Y-86383809D01*
X206105238Y-86383809D01*
X206724285Y-86812380D02*
X206724285Y-85812380D01*
X207295714Y-86812380D01*
X207295714Y-85812380D01*
X207771904Y-86812380D02*
X207771904Y-85812380D01*
X208010000Y-85812380D01*
X208152857Y-85860000D01*
X208248095Y-85955238D01*
X208295714Y-86050476D01*
X208343333Y-86240952D01*
X208343333Y-86383809D01*
X208295714Y-86574285D01*
X208248095Y-86669523D01*
X208152857Y-86764761D01*
X208010000Y-86812380D01*
X207771904Y-86812380D01*
X191008095Y-85860000D02*
X190912857Y-85812380D01*
X190770000Y-85812380D01*
X190627142Y-85860000D01*
X190531904Y-85955238D01*
X190484285Y-86050476D01*
X190436666Y-86240952D01*
X190436666Y-86383809D01*
X190484285Y-86574285D01*
X190531904Y-86669523D01*
X190627142Y-86764761D01*
X190770000Y-86812380D01*
X190865238Y-86812380D01*
X191008095Y-86764761D01*
X191055714Y-86717142D01*
X191055714Y-86383809D01*
X190865238Y-86383809D01*
X191484285Y-86812380D02*
X191484285Y-85812380D01*
X192055714Y-86812380D01*
X192055714Y-85812380D01*
X192531904Y-86812380D02*
X192531904Y-85812380D01*
X192770000Y-85812380D01*
X192912857Y-85860000D01*
X193008095Y-85955238D01*
X193055714Y-86050476D01*
X193103333Y-86240952D01*
X193103333Y-86383809D01*
X193055714Y-86574285D01*
X193008095Y-86669523D01*
X192912857Y-86764761D01*
X192770000Y-86812380D01*
X192531904Y-86812380D01*
X175768095Y-85860000D02*
X175672857Y-85812380D01*
X175530000Y-85812380D01*
X175387142Y-85860000D01*
X175291904Y-85955238D01*
X175244285Y-86050476D01*
X175196666Y-86240952D01*
X175196666Y-86383809D01*
X175244285Y-86574285D01*
X175291904Y-86669523D01*
X175387142Y-86764761D01*
X175530000Y-86812380D01*
X175625238Y-86812380D01*
X175768095Y-86764761D01*
X175815714Y-86717142D01*
X175815714Y-86383809D01*
X175625238Y-86383809D01*
X176244285Y-86812380D02*
X176244285Y-85812380D01*
X176815714Y-86812380D01*
X176815714Y-85812380D01*
X177291904Y-86812380D02*
X177291904Y-85812380D01*
X177530000Y-85812380D01*
X177672857Y-85860000D01*
X177768095Y-85955238D01*
X177815714Y-86050476D01*
X177863333Y-86240952D01*
X177863333Y-86383809D01*
X177815714Y-86574285D01*
X177768095Y-86669523D01*
X177672857Y-86764761D01*
X177530000Y-86812380D01*
X177291904Y-86812380D01*
X199852595Y-119832380D02*
X199852595Y-118832380D01*
X200090690Y-118832380D01*
X200233547Y-118880000D01*
X200328785Y-118975238D01*
X200376404Y-119070476D01*
X200424023Y-119260952D01*
X200424023Y-119403809D01*
X200376404Y-119594285D01*
X200328785Y-119689523D01*
X200233547Y-119784761D01*
X200090690Y-119832380D01*
X199852595Y-119832380D01*
X201043071Y-118832380D02*
X201138309Y-118832380D01*
X201233547Y-118880000D01*
X201281166Y-118927619D01*
X201328785Y-119022857D01*
X201376404Y-119213333D01*
X201376404Y-119451428D01*
X201328785Y-119641904D01*
X201281166Y-119737142D01*
X201233547Y-119784761D01*
X201138309Y-119832380D01*
X201043071Y-119832380D01*
X200947833Y-119784761D01*
X200900214Y-119737142D01*
X200852595Y-119641904D01*
X200804976Y-119451428D01*
X200804976Y-119213333D01*
X200852595Y-119022857D01*
X200900214Y-118927619D01*
X200947833Y-118880000D01*
X201043071Y-118832380D01*
X199852595Y-117292380D02*
X199852595Y-116292380D01*
X200090690Y-116292380D01*
X200233547Y-116340000D01*
X200328785Y-116435238D01*
X200376404Y-116530476D01*
X200424023Y-116720952D01*
X200424023Y-116863809D01*
X200376404Y-117054285D01*
X200328785Y-117149523D01*
X200233547Y-117244761D01*
X200090690Y-117292380D01*
X199852595Y-117292380D01*
X201376404Y-117292380D02*
X200804976Y-117292380D01*
X201090690Y-117292380D02*
X201090690Y-116292380D01*
X200995452Y-116435238D01*
X200900214Y-116530476D01*
X200804976Y-116578095D01*
X199852595Y-114752380D02*
X199852595Y-113752380D01*
X200090690Y-113752380D01*
X200233547Y-113800000D01*
X200328785Y-113895238D01*
X200376404Y-113990476D01*
X200424023Y-114180952D01*
X200424023Y-114323809D01*
X200376404Y-114514285D01*
X200328785Y-114609523D01*
X200233547Y-114704761D01*
X200090690Y-114752380D01*
X199852595Y-114752380D01*
X200804976Y-113847619D02*
X200852595Y-113800000D01*
X200947833Y-113752380D01*
X201185928Y-113752380D01*
X201281166Y-113800000D01*
X201328785Y-113847619D01*
X201376404Y-113942857D01*
X201376404Y-114038095D01*
X201328785Y-114180952D01*
X200757357Y-114752380D01*
X201376404Y-114752380D01*
X199852595Y-112212380D02*
X199852595Y-111212380D01*
X200090690Y-111212380D01*
X200233547Y-111260000D01*
X200328785Y-111355238D01*
X200376404Y-111450476D01*
X200424023Y-111640952D01*
X200424023Y-111783809D01*
X200376404Y-111974285D01*
X200328785Y-112069523D01*
X200233547Y-112164761D01*
X200090690Y-112212380D01*
X199852595Y-112212380D01*
X200757357Y-111212380D02*
X201376404Y-111212380D01*
X201043071Y-111593333D01*
X201185928Y-111593333D01*
X201281166Y-111640952D01*
X201328785Y-111688571D01*
X201376404Y-111783809D01*
X201376404Y-112021904D01*
X201328785Y-112117142D01*
X201281166Y-112164761D01*
X201185928Y-112212380D01*
X200900214Y-112212380D01*
X200804976Y-112164761D01*
X200757357Y-112117142D01*
X199852595Y-109672380D02*
X199852595Y-108672380D01*
X200090690Y-108672380D01*
X200233547Y-108720000D01*
X200328785Y-108815238D01*
X200376404Y-108910476D01*
X200424023Y-109100952D01*
X200424023Y-109243809D01*
X200376404Y-109434285D01*
X200328785Y-109529523D01*
X200233547Y-109624761D01*
X200090690Y-109672380D01*
X199852595Y-109672380D01*
X201281166Y-109005714D02*
X201281166Y-109672380D01*
X201043071Y-108624761D02*
X200804976Y-109339047D01*
X201424023Y-109339047D01*
X199852595Y-107132380D02*
X199852595Y-106132380D01*
X200090690Y-106132380D01*
X200233547Y-106180000D01*
X200328785Y-106275238D01*
X200376404Y-106370476D01*
X200424023Y-106560952D01*
X200424023Y-106703809D01*
X200376404Y-106894285D01*
X200328785Y-106989523D01*
X200233547Y-107084761D01*
X200090690Y-107132380D01*
X199852595Y-107132380D01*
X201328785Y-106132380D02*
X200852595Y-106132380D01*
X200804976Y-106608571D01*
X200852595Y-106560952D01*
X200947833Y-106513333D01*
X201185928Y-106513333D01*
X201281166Y-106560952D01*
X201328785Y-106608571D01*
X201376404Y-106703809D01*
X201376404Y-106941904D01*
X201328785Y-107037142D01*
X201281166Y-107084761D01*
X201185928Y-107132380D01*
X200947833Y-107132380D01*
X200852595Y-107084761D01*
X200804976Y-107037142D01*
X199852595Y-104592380D02*
X199852595Y-103592380D01*
X200090690Y-103592380D01*
X200233547Y-103640000D01*
X200328785Y-103735238D01*
X200376404Y-103830476D01*
X200424023Y-104020952D01*
X200424023Y-104163809D01*
X200376404Y-104354285D01*
X200328785Y-104449523D01*
X200233547Y-104544761D01*
X200090690Y-104592380D01*
X199852595Y-104592380D01*
X201281166Y-103592380D02*
X201090690Y-103592380D01*
X200995452Y-103640000D01*
X200947833Y-103687619D01*
X200852595Y-103830476D01*
X200804976Y-104020952D01*
X200804976Y-104401904D01*
X200852595Y-104497142D01*
X200900214Y-104544761D01*
X200995452Y-104592380D01*
X201185928Y-104592380D01*
X201281166Y-104544761D01*
X201328785Y-104497142D01*
X201376404Y-104401904D01*
X201376404Y-104163809D01*
X201328785Y-104068571D01*
X201281166Y-104020952D01*
X201185928Y-103973333D01*
X200995452Y-103973333D01*
X200900214Y-104020952D01*
X200852595Y-104068571D01*
X200804976Y-104163809D01*
X199852595Y-102052380D02*
X199852595Y-101052380D01*
X200090690Y-101052380D01*
X200233547Y-101100000D01*
X200328785Y-101195238D01*
X200376404Y-101290476D01*
X200424023Y-101480952D01*
X200424023Y-101623809D01*
X200376404Y-101814285D01*
X200328785Y-101909523D01*
X200233547Y-102004761D01*
X200090690Y-102052380D01*
X199852595Y-102052380D01*
X200757357Y-101052380D02*
X201424023Y-101052380D01*
X200995452Y-102052380D01*
X180104023Y-124817142D02*
X180056404Y-124864761D01*
X179913547Y-124912380D01*
X179818309Y-124912380D01*
X179675452Y-124864761D01*
X179580214Y-124769523D01*
X179532595Y-124674285D01*
X179484976Y-124483809D01*
X179484976Y-124340952D01*
X179532595Y-124150476D01*
X179580214Y-124055238D01*
X179675452Y-123960000D01*
X179818309Y-123912380D01*
X179913547Y-123912380D01*
X180056404Y-123960000D01*
X180104023Y-124007619D01*
X180484976Y-124864761D02*
X180627833Y-124912380D01*
X180865928Y-124912380D01*
X180961166Y-124864761D01*
X181008785Y-124817142D01*
X181056404Y-124721904D01*
X181056404Y-124626666D01*
X181008785Y-124531428D01*
X180961166Y-124483809D01*
X180865928Y-124436190D01*
X180675452Y-124388571D01*
X180580214Y-124340952D01*
X180532595Y-124293333D01*
X180484976Y-124198095D01*
X180484976Y-124102857D01*
X180532595Y-124007619D01*
X180580214Y-123960000D01*
X180675452Y-123912380D01*
X180913547Y-123912380D01*
X181056404Y-123960000D01*
X181389738Y-123912380D02*
X182008785Y-123912380D01*
X181675452Y-124293333D01*
X181818309Y-124293333D01*
X181913547Y-124340952D01*
X181961166Y-124388571D01*
X182008785Y-124483809D01*
X182008785Y-124721904D01*
X181961166Y-124817142D01*
X181913547Y-124864761D01*
X181818309Y-124912380D01*
X181532595Y-124912380D01*
X181437357Y-124864761D01*
X181389738Y-124817142D01*
X179484976Y-122086666D02*
X179961166Y-122086666D01*
X179389738Y-122372380D02*
X179723071Y-121372380D01*
X180056404Y-122372380D01*
X180342119Y-121467619D02*
X180389738Y-121420000D01*
X180484976Y-121372380D01*
X180723071Y-121372380D01*
X180818309Y-121420000D01*
X180865928Y-121467619D01*
X180913547Y-121562857D01*
X180913547Y-121658095D01*
X180865928Y-121800952D01*
X180294500Y-122372380D01*
X180913547Y-122372380D01*
X179484976Y-117006666D02*
X179961166Y-117006666D01*
X179389738Y-117292380D02*
X179723071Y-116292380D01*
X180056404Y-117292380D01*
X180580214Y-116292380D02*
X180675452Y-116292380D01*
X180770690Y-116340000D01*
X180818309Y-116387619D01*
X180865928Y-116482857D01*
X180913547Y-116673333D01*
X180913547Y-116911428D01*
X180865928Y-117101904D01*
X180818309Y-117197142D01*
X180770690Y-117244761D01*
X180675452Y-117292380D01*
X180580214Y-117292380D01*
X180484976Y-117244761D01*
X180437357Y-117197142D01*
X180389738Y-117101904D01*
X180342119Y-116911428D01*
X180342119Y-116673333D01*
X180389738Y-116482857D01*
X180437357Y-116387619D01*
X180484976Y-116340000D01*
X180580214Y-116292380D01*
X179484976Y-119546666D02*
X179961166Y-119546666D01*
X179389738Y-119832380D02*
X179723071Y-118832380D01*
X180056404Y-119832380D01*
X180913547Y-119832380D02*
X180342119Y-119832380D01*
X180627833Y-119832380D02*
X180627833Y-118832380D01*
X180532595Y-118975238D01*
X180437357Y-119070476D01*
X180342119Y-119118095D01*
X180104023Y-109672380D02*
X179770690Y-109196190D01*
X179532595Y-109672380D02*
X179532595Y-108672380D01*
X179913547Y-108672380D01*
X180008785Y-108720000D01*
X180056404Y-108767619D01*
X180104023Y-108862857D01*
X180104023Y-109005714D01*
X180056404Y-109100952D01*
X180008785Y-109148571D01*
X179913547Y-109196190D01*
X179532595Y-109196190D01*
X180913547Y-109624761D02*
X180818309Y-109672380D01*
X180627833Y-109672380D01*
X180532595Y-109624761D01*
X180484976Y-109529523D01*
X180484976Y-109148571D01*
X180532595Y-109053333D01*
X180627833Y-109005714D01*
X180818309Y-109005714D01*
X180913547Y-109053333D01*
X180961166Y-109148571D01*
X180961166Y-109243809D01*
X180484976Y-109339047D01*
X181342119Y-109624761D02*
X181437357Y-109672380D01*
X181627833Y-109672380D01*
X181723071Y-109624761D01*
X181770690Y-109529523D01*
X181770690Y-109481904D01*
X181723071Y-109386666D01*
X181627833Y-109339047D01*
X181484976Y-109339047D01*
X181389738Y-109291428D01*
X181342119Y-109196190D01*
X181342119Y-109148571D01*
X181389738Y-109053333D01*
X181484976Y-109005714D01*
X181627833Y-109005714D01*
X181723071Y-109053333D01*
X182580214Y-109624761D02*
X182484976Y-109672380D01*
X182294500Y-109672380D01*
X182199261Y-109624761D01*
X182151642Y-109529523D01*
X182151642Y-109148571D01*
X182199261Y-109053333D01*
X182294500Y-109005714D01*
X182484976Y-109005714D01*
X182580214Y-109053333D01*
X182627833Y-109148571D01*
X182627833Y-109243809D01*
X182151642Y-109339047D01*
X182913547Y-109005714D02*
X183294500Y-109005714D01*
X183056404Y-108672380D02*
X183056404Y-109529523D01*
X183104023Y-109624761D01*
X183199261Y-109672380D01*
X183294500Y-109672380D01*
X179532595Y-107132380D02*
X179532595Y-106132380D01*
X180008785Y-106465714D02*
X180008785Y-107132380D01*
X180008785Y-106560952D02*
X180056404Y-106513333D01*
X180151642Y-106465714D01*
X180294500Y-106465714D01*
X180389738Y-106513333D01*
X180437357Y-106608571D01*
X180437357Y-107132380D01*
X180913547Y-107132380D02*
X180913547Y-106465714D01*
X180913547Y-106132380D02*
X180865928Y-106180000D01*
X180913547Y-106227619D01*
X180961166Y-106180000D01*
X180913547Y-106132380D01*
X180913547Y-106227619D01*
X181246880Y-106465714D02*
X181627833Y-106465714D01*
X181389738Y-106132380D02*
X181389738Y-106989523D01*
X181437357Y-107084761D01*
X181532595Y-107132380D01*
X181627833Y-107132380D01*
X179437357Y-103592380D02*
X179675452Y-104592380D01*
X179865928Y-103878095D01*
X180056404Y-104592380D01*
X180294500Y-103592380D01*
X180675452Y-104068571D02*
X181008785Y-104068571D01*
X181151642Y-104592380D02*
X180675452Y-104592380D01*
X180675452Y-103592380D01*
X181151642Y-103592380D01*
X179723071Y-101052380D02*
X179913547Y-101052380D01*
X180008785Y-101100000D01*
X180104023Y-101195238D01*
X180151642Y-101385714D01*
X180151642Y-101719047D01*
X180104023Y-101909523D01*
X180008785Y-102004761D01*
X179913547Y-102052380D01*
X179723071Y-102052380D01*
X179627833Y-102004761D01*
X179532595Y-101909523D01*
X179484976Y-101719047D01*
X179484976Y-101385714D01*
X179532595Y-101195238D01*
X179627833Y-101100000D01*
X179723071Y-101052380D01*
X180580214Y-101528571D02*
X180913547Y-101528571D01*
X181056404Y-102052380D02*
X180580214Y-102052380D01*
X180580214Y-101052380D01*
X181056404Y-101052380D01*
X172315238Y-93124976D02*
X172267619Y-93267833D01*
X172267619Y-93505928D01*
X172315238Y-93601166D01*
X172362857Y-93648785D01*
X172458095Y-93696404D01*
X172553333Y-93696404D01*
X172648571Y-93648785D01*
X172696190Y-93601166D01*
X172743809Y-93505928D01*
X172791428Y-93315452D01*
X172839047Y-93220214D01*
X172886666Y-93172595D01*
X172981904Y-93124976D01*
X173077142Y-93124976D01*
X173172380Y-93172595D01*
X173220000Y-93220214D01*
X173267619Y-93315452D01*
X173267619Y-93553547D01*
X173220000Y-93696404D01*
X172934285Y-93982119D02*
X172934285Y-94363071D01*
X173267619Y-94124976D02*
X172410476Y-94124976D01*
X172315238Y-94172595D01*
X172267619Y-94267833D01*
X172267619Y-94363071D01*
X172267619Y-94696404D02*
X172934285Y-94696404D01*
X172743809Y-94696404D02*
X172839047Y-94744023D01*
X172886666Y-94791642D01*
X172934285Y-94886880D01*
X172934285Y-94982119D01*
X172267619Y-95458309D02*
X172315238Y-95363071D01*
X172362857Y-95315452D01*
X172458095Y-95267833D01*
X172743809Y-95267833D01*
X172839047Y-95315452D01*
X172886666Y-95363071D01*
X172934285Y-95458309D01*
X172934285Y-95601166D01*
X172886666Y-95696404D01*
X172839047Y-95744023D01*
X172743809Y-95791642D01*
X172458095Y-95791642D01*
X172362857Y-95744023D01*
X172315238Y-95696404D01*
X172267619Y-95601166D01*
X172267619Y-95458309D01*
X172267619Y-96220214D02*
X173267619Y-96220214D01*
X172886666Y-96220214D02*
X172934285Y-96315452D01*
X172934285Y-96505928D01*
X172886666Y-96601166D01*
X172839047Y-96648785D01*
X172743809Y-96696404D01*
X172458095Y-96696404D01*
X172362857Y-96648785D01*
X172315238Y-96601166D01*
X172267619Y-96505928D01*
X172267619Y-96315452D01*
X172315238Y-96220214D01*
X172315238Y-97505928D02*
X172267619Y-97410690D01*
X172267619Y-97220214D01*
X172315238Y-97124976D01*
X172410476Y-97077357D01*
X172791428Y-97077357D01*
X172886666Y-97124976D01*
X172934285Y-97220214D01*
X172934285Y-97410690D01*
X172886666Y-97505928D01*
X172791428Y-97553547D01*
X172696190Y-97553547D01*
X172600952Y-97077357D01*
X174902857Y-93744023D02*
X174855238Y-93696404D01*
X174807619Y-93553547D01*
X174807619Y-93458309D01*
X174855238Y-93315452D01*
X174950476Y-93220214D01*
X175045714Y-93172595D01*
X175236190Y-93124976D01*
X175379047Y-93124976D01*
X175569523Y-93172595D01*
X175664761Y-93220214D01*
X175760000Y-93315452D01*
X175807619Y-93458309D01*
X175807619Y-93553547D01*
X175760000Y-93696404D01*
X175712380Y-93744023D01*
X174807619Y-94172595D02*
X175807619Y-94172595D01*
X175807619Y-94410690D01*
X175760000Y-94553547D01*
X175664761Y-94648785D01*
X175569523Y-94696404D01*
X175379047Y-94744023D01*
X175236190Y-94744023D01*
X175045714Y-94696404D01*
X174950476Y-94648785D01*
X174855238Y-94553547D01*
X174807619Y-94410690D01*
X174807619Y-94172595D01*
X177347619Y-93172595D02*
X178347619Y-93172595D01*
X178347619Y-93410690D01*
X178300000Y-93553547D01*
X178204761Y-93648785D01*
X178109523Y-93696404D01*
X177919047Y-93744023D01*
X177776190Y-93744023D01*
X177585714Y-93696404D01*
X177490476Y-93648785D01*
X177395238Y-93553547D01*
X177347619Y-93410690D01*
X177347619Y-93172595D01*
X178347619Y-94029738D02*
X178347619Y-94601166D01*
X177347619Y-94315452D02*
X178347619Y-94315452D01*
X177347619Y-95505928D02*
X177823809Y-95172595D01*
X177347619Y-94934500D02*
X178347619Y-94934500D01*
X178347619Y-95315452D01*
X178300000Y-95410690D01*
X178252380Y-95458309D01*
X178157142Y-95505928D01*
X178014285Y-95505928D01*
X177919047Y-95458309D01*
X177871428Y-95410690D01*
X177823809Y-95315452D01*
X177823809Y-94934500D01*
X179887619Y-93172595D02*
X180887619Y-93172595D01*
X180887619Y-93410690D01*
X180840000Y-93553547D01*
X180744761Y-93648785D01*
X180649523Y-93696404D01*
X180459047Y-93744023D01*
X180316190Y-93744023D01*
X180125714Y-93696404D01*
X180030476Y-93648785D01*
X179935238Y-93553547D01*
X179887619Y-93410690D01*
X179887619Y-93172595D01*
X179935238Y-94124976D02*
X179887619Y-94267833D01*
X179887619Y-94505928D01*
X179935238Y-94601166D01*
X179982857Y-94648785D01*
X180078095Y-94696404D01*
X180173333Y-94696404D01*
X180268571Y-94648785D01*
X180316190Y-94601166D01*
X180363809Y-94505928D01*
X180411428Y-94315452D01*
X180459047Y-94220214D01*
X180506666Y-94172595D01*
X180601904Y-94124976D01*
X180697142Y-94124976D01*
X180792380Y-94172595D01*
X180840000Y-94220214D01*
X180887619Y-94315452D01*
X180887619Y-94553547D01*
X180840000Y-94696404D01*
X179887619Y-95696404D02*
X180363809Y-95363071D01*
X179887619Y-95124976D02*
X180887619Y-95124976D01*
X180887619Y-95505928D01*
X180840000Y-95601166D01*
X180792380Y-95648785D01*
X180697142Y-95696404D01*
X180554285Y-95696404D01*
X180459047Y-95648785D01*
X180411428Y-95601166D01*
X180363809Y-95505928D01*
X180363809Y-95124976D01*
X187507619Y-93744023D02*
X187983809Y-93410690D01*
X187507619Y-93172595D02*
X188507619Y-93172595D01*
X188507619Y-93553547D01*
X188460000Y-93648785D01*
X188412380Y-93696404D01*
X188317142Y-93744023D01*
X188174285Y-93744023D01*
X188079047Y-93696404D01*
X188031428Y-93648785D01*
X187983809Y-93553547D01*
X187983809Y-93172595D01*
X188507619Y-94077357D02*
X187507619Y-94744023D01*
X188507619Y-94744023D02*
X187507619Y-94077357D01*
X187507619Y-95124976D02*
X188507619Y-95124976D01*
X188507619Y-95363071D01*
X188460000Y-95505928D01*
X188364761Y-95601166D01*
X188269523Y-95648785D01*
X188079047Y-95696404D01*
X187936190Y-95696404D01*
X187745714Y-95648785D01*
X187650476Y-95601166D01*
X187555238Y-95505928D01*
X187507619Y-95363071D01*
X187507619Y-95124976D01*
X191047619Y-93029738D02*
X191047619Y-93601166D01*
X190047619Y-93315452D02*
X191047619Y-93315452D01*
X191047619Y-93839261D02*
X190047619Y-94505928D01*
X191047619Y-94505928D02*
X190047619Y-93839261D01*
X190047619Y-94886880D02*
X191047619Y-94886880D01*
X191047619Y-95124976D01*
X191000000Y-95267833D01*
X190904761Y-95363071D01*
X190809523Y-95410690D01*
X190619047Y-95458309D01*
X190476190Y-95458309D01*
X190285714Y-95410690D01*
X190190476Y-95363071D01*
X190095238Y-95267833D01*
X190047619Y-95124976D01*
X190047619Y-94886880D01*
X192682857Y-93744023D02*
X192635238Y-93696404D01*
X192587619Y-93553547D01*
X192587619Y-93458309D01*
X192635238Y-93315452D01*
X192730476Y-93220214D01*
X192825714Y-93172595D01*
X193016190Y-93124976D01*
X193159047Y-93124976D01*
X193349523Y-93172595D01*
X193444761Y-93220214D01*
X193540000Y-93315452D01*
X193587619Y-93458309D01*
X193587619Y-93553547D01*
X193540000Y-93696404D01*
X193492380Y-93744023D01*
X193587619Y-94029738D02*
X193587619Y-94601166D01*
X192587619Y-94315452D02*
X193587619Y-94315452D01*
X192635238Y-94886880D02*
X192587619Y-95029738D01*
X192587619Y-95267833D01*
X192635238Y-95363071D01*
X192682857Y-95410690D01*
X192778095Y-95458309D01*
X192873333Y-95458309D01*
X192968571Y-95410690D01*
X193016190Y-95363071D01*
X193063809Y-95267833D01*
X193111428Y-95077357D01*
X193159047Y-94982119D01*
X193206666Y-94934500D01*
X193301904Y-94886880D01*
X193397142Y-94886880D01*
X193492380Y-94934500D01*
X193540000Y-94982119D01*
X193587619Y-95077357D01*
X193587619Y-95315452D01*
X193540000Y-95458309D01*
X195127619Y-93744023D02*
X195603809Y-93410690D01*
X195127619Y-93172595D02*
X196127619Y-93172595D01*
X196127619Y-93553547D01*
X196080000Y-93648785D01*
X196032380Y-93696404D01*
X195937142Y-93744023D01*
X195794285Y-93744023D01*
X195699047Y-93696404D01*
X195651428Y-93648785D01*
X195603809Y-93553547D01*
X195603809Y-93172595D01*
X196127619Y-94029738D02*
X196127619Y-94601166D01*
X195127619Y-94315452D02*
X196127619Y-94315452D01*
X195175238Y-94886880D02*
X195127619Y-95029738D01*
X195127619Y-95267833D01*
X195175238Y-95363071D01*
X195222857Y-95410690D01*
X195318095Y-95458309D01*
X195413333Y-95458309D01*
X195508571Y-95410690D01*
X195556190Y-95363071D01*
X195603809Y-95267833D01*
X195651428Y-95077357D01*
X195699047Y-94982119D01*
X195746666Y-94934500D01*
X195841904Y-94886880D01*
X195937142Y-94886880D01*
X196032380Y-94934500D01*
X196080000Y-94982119D01*
X196127619Y-95077357D01*
X196127619Y-95315452D01*
X196080000Y-95458309D01*
X202747619Y-93172595D02*
X203747619Y-93172595D01*
X203747619Y-93553547D01*
X203700000Y-93648785D01*
X203652380Y-93696404D01*
X203557142Y-93744023D01*
X203414285Y-93744023D01*
X203319047Y-93696404D01*
X203271428Y-93648785D01*
X203223809Y-93553547D01*
X203223809Y-93172595D01*
X202747619Y-94172595D02*
X203747619Y-94172595D01*
X202747619Y-94744023D01*
X203747619Y-94744023D01*
X203319047Y-95363071D02*
X203366666Y-95267833D01*
X203414285Y-95220214D01*
X203509523Y-95172595D01*
X203557142Y-95172595D01*
X203652380Y-95220214D01*
X203700000Y-95267833D01*
X203747619Y-95363071D01*
X203747619Y-95553547D01*
X203700000Y-95648785D01*
X203652380Y-95696404D01*
X203557142Y-95744023D01*
X203509523Y-95744023D01*
X203414285Y-95696404D01*
X203366666Y-95648785D01*
X203319047Y-95553547D01*
X203319047Y-95363071D01*
X203271428Y-95267833D01*
X203223809Y-95220214D01*
X203128571Y-95172595D01*
X202938095Y-95172595D01*
X202842857Y-95220214D01*
X202795238Y-95267833D01*
X202747619Y-95363071D01*
X202747619Y-95553547D01*
X202795238Y-95648785D01*
X202842857Y-95696404D01*
X202938095Y-95744023D01*
X203128571Y-95744023D01*
X203223809Y-95696404D01*
X203271428Y-95648785D01*
X203319047Y-95553547D01*
X205287619Y-93172595D02*
X206287619Y-93172595D01*
X206287619Y-93553547D01*
X206240000Y-93648785D01*
X206192380Y-93696404D01*
X206097142Y-93744023D01*
X205954285Y-93744023D01*
X205859047Y-93696404D01*
X205811428Y-93648785D01*
X205763809Y-93553547D01*
X205763809Y-93172595D01*
X205287619Y-94172595D02*
X206287619Y-94172595D01*
X205287619Y-94744023D01*
X206287619Y-94744023D01*
X206287619Y-95124976D02*
X206287619Y-95791642D01*
X205287619Y-95363071D01*
X207827619Y-93172595D02*
X208827619Y-93172595D01*
X208827619Y-93553547D01*
X208780000Y-93648785D01*
X208732380Y-93696404D01*
X208637142Y-93744023D01*
X208494285Y-93744023D01*
X208399047Y-93696404D01*
X208351428Y-93648785D01*
X208303809Y-93553547D01*
X208303809Y-93172595D01*
X207827619Y-94172595D02*
X208827619Y-94172595D01*
X207827619Y-94744023D01*
X208827619Y-94744023D01*
X208827619Y-95696404D02*
X208827619Y-95220214D01*
X208351428Y-95172595D01*
X208399047Y-95220214D01*
X208446666Y-95315452D01*
X208446666Y-95553547D01*
X208399047Y-95648785D01*
X208351428Y-95696404D01*
X208256190Y-95744023D01*
X208018095Y-95744023D01*
X207922857Y-95696404D01*
X207875238Y-95648785D01*
X207827619Y-95553547D01*
X207827619Y-95315452D01*
X207875238Y-95220214D01*
X207922857Y-95172595D01*
X210891428Y-93505928D02*
X210843809Y-93648785D01*
X210796190Y-93696404D01*
X210700952Y-93744023D01*
X210558095Y-93744023D01*
X210462857Y-93696404D01*
X210415238Y-93648785D01*
X210367619Y-93553547D01*
X210367619Y-93172595D01*
X211367619Y-93172595D01*
X211367619Y-93505928D01*
X211320000Y-93601166D01*
X211272380Y-93648785D01*
X211177142Y-93696404D01*
X211081904Y-93696404D01*
X210986666Y-93648785D01*
X210939047Y-93601166D01*
X210891428Y-93505928D01*
X210891428Y-93172595D01*
X211034285Y-94601166D02*
X210367619Y-94601166D01*
X211034285Y-94172595D02*
X210510476Y-94172595D01*
X210415238Y-94220214D01*
X210367619Y-94315452D01*
X210367619Y-94458309D01*
X210415238Y-94553547D01*
X210462857Y-94601166D01*
X210415238Y-95029738D02*
X210367619Y-95124976D01*
X210367619Y-95315452D01*
X210415238Y-95410690D01*
X210510476Y-95458309D01*
X210558095Y-95458309D01*
X210653333Y-95410690D01*
X210700952Y-95315452D01*
X210700952Y-95172595D01*
X210748571Y-95077357D01*
X210843809Y-95029738D01*
X210891428Y-95029738D01*
X210986666Y-95077357D01*
X211034285Y-95172595D01*
X211034285Y-95315452D01*
X210986666Y-95410690D01*
X211034285Y-95791642D02*
X210367619Y-96029738D01*
X211034285Y-96267833D02*
X210367619Y-96029738D01*
X210129523Y-95934500D01*
X210081904Y-95886880D01*
X210034285Y-95791642D01*
X212026666Y-78446380D02*
X212360000Y-79446380D01*
X212693333Y-78446380D01*
X213598095Y-79351142D02*
X213550476Y-79398761D01*
X213407619Y-79446380D01*
X213312380Y-79446380D01*
X213169523Y-79398761D01*
X213074285Y-79303523D01*
X213026666Y-79208285D01*
X212979047Y-79017809D01*
X212979047Y-78874952D01*
X213026666Y-78684476D01*
X213074285Y-78589238D01*
X213169523Y-78494000D01*
X213312380Y-78446380D01*
X213407619Y-78446380D01*
X213550476Y-78494000D01*
X213598095Y-78541619D01*
X214598095Y-79351142D02*
X214550476Y-79398761D01*
X214407619Y-79446380D01*
X214312380Y-79446380D01*
X214169523Y-79398761D01*
X214074285Y-79303523D01*
X214026666Y-79208285D01*
X213979047Y-79017809D01*
X213979047Y-78874952D01*
X214026666Y-78684476D01*
X214074285Y-78589238D01*
X214169523Y-78494000D01*
X214312380Y-78446380D01*
X214407619Y-78446380D01*
X214550476Y-78494000D01*
X214598095Y-78541619D01*
X207137095Y-78494000D02*
X207041857Y-78446380D01*
X206899000Y-78446380D01*
X206756142Y-78494000D01*
X206660904Y-78589238D01*
X206613285Y-78684476D01*
X206565666Y-78874952D01*
X206565666Y-79017809D01*
X206613285Y-79208285D01*
X206660904Y-79303523D01*
X206756142Y-79398761D01*
X206899000Y-79446380D01*
X206994238Y-79446380D01*
X207137095Y-79398761D01*
X207184714Y-79351142D01*
X207184714Y-79017809D01*
X206994238Y-79017809D01*
X207613285Y-79446380D02*
X207613285Y-78446380D01*
X208184714Y-79446380D01*
X208184714Y-78446380D01*
X208660904Y-79446380D02*
X208660904Y-78446380D01*
X208899000Y-78446380D01*
X209041857Y-78494000D01*
X209137095Y-78589238D01*
X209184714Y-78684476D01*
X209232333Y-78874952D01*
X209232333Y-79017809D01*
X209184714Y-79208285D01*
X209137095Y-79303523D01*
X209041857Y-79398761D01*
X208899000Y-79446380D01*
X208660904Y-79446380D01*
D12*
X181670000Y-90110000D02*
X181670000Y-91440000D01*
X180340000Y-90110000D02*
X181670000Y-90110000D01*
X179070000Y-90110000D02*
X179070000Y-92770000D01*
X179070000Y-92770000D02*
X171390000Y-92770000D01*
X179070000Y-90110000D02*
X171390000Y-90110000D01*
X171390000Y-90110000D02*
X171390000Y-92770000D01*
X186630000Y-92770000D02*
X186630000Y-91440000D01*
X187960000Y-92770000D02*
X186630000Y-92770000D01*
X189230000Y-92770000D02*
X189230000Y-90110000D01*
X189230000Y-90110000D02*
X196910000Y-90110000D01*
X189230000Y-92770000D02*
X196910000Y-92770000D01*
X196910000Y-92770000D02*
X196910000Y-90110000D01*
X199450000Y-110550000D02*
X198120000Y-110550000D01*
X199450000Y-109220000D02*
X199450000Y-110550000D01*
X199450000Y-107950000D02*
X196790000Y-107950000D01*
X196790000Y-107950000D02*
X196790000Y-100270000D01*
X199450000Y-107950000D02*
X199450000Y-100270000D01*
X199450000Y-100270000D02*
X196790000Y-100270000D01*
X199450000Y-120710000D02*
X198120000Y-120710000D01*
X199450000Y-119380000D02*
X199450000Y-120710000D01*
X199450000Y-118110000D02*
X196790000Y-118110000D01*
X196790000Y-118110000D02*
X196790000Y-110430000D01*
X199450000Y-118110000D02*
X199450000Y-110430000D01*
X199450000Y-110430000D02*
X196790000Y-110430000D01*
X186630000Y-90230000D02*
X186630000Y-88900000D01*
X187960000Y-90230000D02*
X186630000Y-90230000D01*
X189230000Y-90230000D02*
X189230000Y-87570000D01*
X189230000Y-87570000D02*
X196910000Y-87570000D01*
X189230000Y-90230000D02*
X196910000Y-90230000D01*
X196910000Y-90230000D02*
X196910000Y-87570000D01*
X173930000Y-100270000D02*
X175260000Y-100270000D01*
X173930000Y-101600000D02*
X173930000Y-100270000D01*
X173930000Y-102870000D02*
X176590000Y-102870000D01*
X176590000Y-102870000D02*
X176590000Y-110550000D01*
X173930000Y-102870000D02*
X173930000Y-110550000D01*
X173930000Y-110550000D02*
X176590000Y-110550000D01*
X173930000Y-115510000D02*
X175260000Y-115510000D01*
X173930000Y-116840000D02*
X173930000Y-115510000D01*
X173930000Y-118110000D02*
X176590000Y-118110000D01*
X176590000Y-118110000D02*
X176590000Y-125790000D01*
X173930000Y-118110000D02*
X173930000Y-125790000D01*
X173930000Y-125790000D02*
X176590000Y-125790000D01*
X176470000Y-100270000D02*
X177800000Y-100270000D01*
X176470000Y-101600000D02*
X176470000Y-100270000D01*
X176470000Y-102870000D02*
X179130000Y-102870000D01*
X179130000Y-102870000D02*
X179130000Y-110550000D01*
X176470000Y-102870000D02*
X176470000Y-110550000D01*
X176470000Y-110550000D02*
X179130000Y-110550000D01*
X176470000Y-115510000D02*
X177800000Y-115510000D01*
X176470000Y-116840000D02*
X176470000Y-115510000D01*
X176470000Y-118110000D02*
X179130000Y-118110000D01*
X179130000Y-118110000D02*
X179130000Y-125790000D01*
X176470000Y-118110000D02*
X176470000Y-125790000D01*
X176470000Y-125790000D02*
X179130000Y-125790000D01*
X196910000Y-110550000D02*
X195580000Y-110550000D01*
X196910000Y-109220000D02*
X196910000Y-110550000D01*
X196910000Y-107950000D02*
X194250000Y-107950000D01*
X194250000Y-107950000D02*
X194250000Y-100270000D01*
X196910000Y-107950000D02*
X196910000Y-100270000D01*
X196910000Y-100270000D02*
X194250000Y-100270000D01*
X196910000Y-120710000D02*
X195580000Y-120710000D01*
X196910000Y-119380000D02*
X196910000Y-120710000D01*
X196910000Y-118110000D02*
X194250000Y-118110000D01*
X194250000Y-118110000D02*
X194250000Y-110430000D01*
X196910000Y-118110000D02*
X196910000Y-110430000D01*
X196910000Y-110430000D02*
X194250000Y-110430000D01*
D10*
X215698605Y-100838000D02*
G75*
G03X215698605Y-100838000I-179605J0D01*
G01*
X218567000Y-119761000D02*
X215900000Y-119761000D01*
X218567000Y-101219000D02*
X218567000Y-119761000D01*
X215900000Y-101219000D02*
X218567000Y-101219000D01*
D12*
X212150000Y-87570000D02*
X212150000Y-88900000D01*
X210820000Y-87570000D02*
X212150000Y-87570000D01*
X209550000Y-87570000D02*
X209550000Y-90230000D01*
X209550000Y-90230000D02*
X201870000Y-90230000D01*
X209550000Y-87570000D02*
X201870000Y-87570000D01*
X201870000Y-87570000D02*
X201870000Y-90230000D01*
X212150000Y-90110000D02*
X212150000Y-91440000D01*
X210820000Y-90110000D02*
X212150000Y-90110000D01*
X209550000Y-90110000D02*
X209550000Y-92770000D01*
X209550000Y-92770000D02*
X201870000Y-92770000D01*
X209550000Y-90110000D02*
X201870000Y-90110000D01*
X201870000Y-90110000D02*
X201870000Y-92770000D01*
D10*
X206799000Y-82888000D02*
X206799000Y-80688000D01*
X208999000Y-82888000D02*
X206799000Y-82888000D01*
X208999000Y-80688000D02*
X208999000Y-82888000D01*
X206799000Y-80688000D02*
X208999000Y-80688000D01*
X212260000Y-82888000D02*
X212260000Y-80688000D01*
X214460000Y-82888000D02*
X212260000Y-82888000D01*
X214460000Y-80688000D02*
X214460000Y-82888000D01*
X212260000Y-80688000D02*
X214460000Y-80688000D01*
D12*
X181670000Y-87570000D02*
X181670000Y-88900000D01*
X180340000Y-87570000D02*
X181670000Y-87570000D01*
X179070000Y-87570000D02*
X179070000Y-90230000D01*
X179070000Y-90230000D02*
X171390000Y-90230000D01*
X179070000Y-87570000D02*
X171390000Y-87570000D01*
X171390000Y-87570000D02*
X171390000Y-90230000D01*
M02*
