M48
; DRILL file {KiCad (5.1.5)-3} date 25-Jan-20 21:01:38
; FORMAT={-:-/ absolute / metric / decimal}
; #@! TF.CreationDate,2020-01-25T21:01:38+03:00
; #@! TF.GenerationSoftware,Kicad,Pcbnew,(5.1.5)-3
; #@! TF.FileFunction,Plated,1,2,PTH
FMAT,2
METRIC
T1C0.300
T2C1.000
%
G90
G05
T1
X167.64Y-78.486
X167.64Y-81.534
X167.64Y-84.582
X167.64Y-87.63
X167.64Y-91.44
X167.64Y-95.25
X167.64Y-99.314
X167.64Y-103.632
X167.64Y-107.95
X167.64Y-112.268
X167.64Y-116.84
X167.64Y-121.158
X167.64Y-125.222
X167.64Y-129.286
X171.196Y-121.158
X171.27Y-90.35
X171.27Y-95.43
X171.27Y-99.26
X171.45Y-84.836
X171.45Y-107.95
X171.45Y-112.268
X171.45Y-116.84
X171.45Y-125.222
X171.45Y-129.286
X171.704Y-78.486
X171.704Y-103.632
X173.61Y-101.6
X175.006Y-98.044
X175.26Y-112.776
X175.26Y-129.286
X175.514Y-78.486
X176.276Y-84.836
X176.624Y-99.996
X176.71Y-125.91
X178.054Y-112.776
X178.308Y-98.044
X179.07Y-129.286
X179.578Y-78.486
X180.594Y-85.344
X181.864Y-112.522
X182.118Y-98.298
X182.499Y-88.9
X182.626Y-129.286
X183.388Y-94.234
X183.642Y-78.486
X183.896Y-115.824
X184.658Y-108.712
X185.166Y-88.9
X185.373Y-97.126
X185.42Y-85.344
X185.42Y-104.648
X185.674Y-100.838
X185.801Y-91.44
X186.055Y-121.285
X186.055Y-122.504
X186.436Y-129.286
X187.198Y-112.014
X187.452Y-78.486
X188.999Y-99.996
X189.992Y-85.344
X190.246Y-108.712
X190.246Y-129.286
X190.5Y-100.016
X190.603Y-101.6
X190.754Y-78.486
X191.008Y-104.14
X191.008Y-116.078
X192.532Y-111.506
X193.294Y-85.344
X193.802Y-78.486
X194.31Y-129.286
X196.596Y-78.486
X197.104Y-85.598
X197.739Y-93.599
X197.866Y-129.286
X198.12Y-91.567
X198.247Y-88.9
X199.009Y-102.87
X199.898Y-78.486
X200.914Y-97.663
X201.168Y-129.286
X201.422Y-88.9
X201.93Y-85.344
X202.057Y-102.108
X202.057Y-107.823
X202.692Y-113.284
X203.454Y-78.486
X204.47Y-83.058
X204.47Y-92.329
X204.978Y-129.286
X205.232Y-105.41
X205.671Y-96.665
X205.74Y-85.09
X206.248Y-78.486
X206.248Y-80.137
X206.248Y-81.788
X206.248Y-83.439
X207.01Y-92.329
X207.01Y-94.539
X207.01Y-120.015
X207.772Y-107.95
X207.899Y-80.137
X207.899Y-83.439
X208.255Y-97.003
X208.28Y-129.286
X209.55Y-80.137
X209.55Y-81.788
X209.55Y-83.439
X209.804Y-78.486
X210.566Y-85.598
X210.693Y-114.935
X210.82Y-117.475
X211.201Y-112.649
X211.455Y-108.91
X211.582Y-78.486
X211.709Y-80.137
X211.709Y-81.788
X211.709Y-83.439
X211.74Y-125.91
X211.836Y-129.286
X212.217Y-110.871
X213.232Y-107.004
X213.233Y-98.044
X213.36Y-80.137
X213.36Y-83.439
X213.86Y-102.203
X213.868Y-110.363
X214.122Y-88.138
X214.264Y-103.567
X214.376Y-93.472
X214.617Y-104.797
X214.63Y-108.585
X214.947Y-83.376
X215.011Y-80.137
X215.011Y-81.788
X215.011Y-110.236
X215.138Y-78.486
X215.138Y-129.286
X215.265Y-106.045
X215.9Y-97.282
X215.9Y-100.33
X216.154Y-91.186
X216.154Y-94.488
X217.17Y-85.598
X217.17Y-100.584
X217.17Y-120.48
X218.186Y-78.486
X218.186Y-81.788
X218.186Y-84.328
X218.186Y-87.63
X218.186Y-91.694
X218.186Y-94.742
X218.186Y-97.282
X218.186Y-100.584
X218.186Y-121.158
X218.186Y-123.698
X218.186Y-126.492
X218.186Y-129.286
T2
X195.58Y-111.76
X195.58Y-114.3
X195.58Y-116.84
X195.58Y-119.38
X198.12Y-111.76
X198.12Y-114.3
X198.12Y-116.84
X198.12Y-119.38
X203.2Y-91.44
X205.74Y-91.44
X208.28Y-91.44
X210.82Y-91.44
X198.12Y-101.6
X198.12Y-104.14
X198.12Y-106.68
X198.12Y-109.22
X195.58Y-101.6
X195.58Y-104.14
X195.58Y-106.68
X195.58Y-109.22
X175.26Y-116.84
X175.26Y-119.38
X175.26Y-121.92
X175.26Y-124.46
X177.8Y-116.84
X177.8Y-119.38
X177.8Y-121.92
X177.8Y-124.46
X187.96Y-88.9
X190.5Y-88.9
X193.04Y-88.9
X195.58Y-88.9
X177.8Y-101.6
X177.8Y-104.14
X177.8Y-106.68
X177.8Y-109.22
X172.72Y-91.44
X175.26Y-91.44
X177.8Y-91.44
X180.34Y-91.44
X203.2Y-88.9
X205.74Y-88.9
X208.28Y-88.9
X210.82Y-88.9
X172.72Y-88.9
X175.26Y-88.9
X177.8Y-88.9
X180.34Y-88.9
X175.26Y-101.6
X175.26Y-104.14
X175.26Y-106.68
X175.26Y-109.22
X187.96Y-91.44
X190.5Y-91.44
X193.04Y-91.44
X195.58Y-91.44
T0
M30
