G04 #@! TF.GenerationSoftware,KiCad,Pcbnew,(5.1.5)-3*
G04 #@! TF.CreationDate,2020-01-02T02:10:15+03:00*
G04 #@! TF.ProjectId,Sharp 11Pin Breadboard,53686172-7020-4313-9150-696e20427265,rev?*
G04 #@! TF.SameCoordinates,Original*
G04 #@! TF.FileFunction,Legend,Top*
G04 #@! TF.FilePolarity,Positive*
%FSLAX46Y46*%
G04 Gerber Fmt 4.6, Leading zero omitted, Abs format (unit mm)*
G04 Created by KiCad (PCBNEW (5.1.5)-3) date 2020-01-02 02:10:15*
%MOMM*%
%LPD*%
G04 APERTURE LIST*
%ADD10C,0.150000*%
%ADD11C,0.200000*%
%ADD12C,0.120000*%
%ADD13C,0.250000*%
%ADD14C,0.500000*%
%ADD15C,0.300000*%
%ADD16C,0.010000*%
G04 APERTURE END LIST*
D10*
X130890309Y-91638380D02*
X130890309Y-90638380D01*
X130890309Y-91019333D02*
X130985547Y-90971714D01*
X131176023Y-90971714D01*
X131271261Y-91019333D01*
X131318880Y-91066952D01*
X131366500Y-91162190D01*
X131366500Y-91447904D01*
X131318880Y-91543142D01*
X131271261Y-91590761D01*
X131176023Y-91638380D01*
X130985547Y-91638380D01*
X130890309Y-91590761D01*
X131699833Y-90971714D02*
X131937928Y-91638380D01*
X132176023Y-90971714D02*
X131937928Y-91638380D01*
X131842690Y-91876476D01*
X131795071Y-91924095D01*
X131699833Y-91971714D01*
X133318880Y-91638380D02*
X133318880Y-90638380D01*
X133318880Y-91114571D02*
X133890309Y-91114571D01*
X133890309Y-91638380D02*
X133890309Y-90638380D01*
X134271261Y-90638380D02*
X134509357Y-91638380D01*
X134699833Y-90924095D01*
X134890309Y-91638380D01*
X135128404Y-90638380D01*
X136080785Y-91638380D02*
X135747452Y-91162190D01*
X135509357Y-91638380D02*
X135509357Y-90638380D01*
X135890309Y-90638380D01*
X135985547Y-90686000D01*
X136033166Y-90733619D01*
X136080785Y-90828857D01*
X136080785Y-90971714D01*
X136033166Y-91066952D01*
X135985547Y-91114571D01*
X135890309Y-91162190D01*
X135509357Y-91162190D01*
X136699833Y-90638380D02*
X136795071Y-90638380D01*
X136890309Y-90686000D01*
X136937928Y-90733619D01*
X136985547Y-90828857D01*
X137033166Y-91019333D01*
X137033166Y-91257428D01*
X136985547Y-91447904D01*
X136937928Y-91543142D01*
X136890309Y-91590761D01*
X136795071Y-91638380D01*
X136699833Y-91638380D01*
X136604595Y-91590761D01*
X136556976Y-91543142D01*
X136509357Y-91447904D01*
X136461738Y-91257428D01*
X136461738Y-91019333D01*
X136509357Y-90828857D01*
X136556976Y-90733619D01*
X136604595Y-90686000D01*
X136699833Y-90638380D01*
X138985547Y-90971714D02*
X138223642Y-91257428D01*
X138985547Y-91543142D01*
X139842690Y-91590761D02*
X139747452Y-91638380D01*
X139556976Y-91638380D01*
X139461738Y-91590761D01*
X139414119Y-91495523D01*
X139414119Y-91114571D01*
X139461738Y-91019333D01*
X139556976Y-90971714D01*
X139747452Y-90971714D01*
X139842690Y-91019333D01*
X139890309Y-91114571D01*
X139890309Y-91209809D01*
X139414119Y-91305047D01*
X140223642Y-90971714D02*
X140461738Y-91638380D01*
X140699833Y-90971714D01*
X141080785Y-91638380D02*
X141080785Y-90971714D01*
X141080785Y-90638380D02*
X141033166Y-90686000D01*
X141080785Y-90733619D01*
X141128404Y-90686000D01*
X141080785Y-90638380D01*
X141080785Y-90733619D01*
X141699833Y-91638380D02*
X141604595Y-91590761D01*
X141556976Y-91495523D01*
X141556976Y-90638380D01*
X142080785Y-91638380D02*
X142080785Y-90638380D01*
X142509357Y-91638380D02*
X142509357Y-91114571D01*
X142461738Y-91019333D01*
X142366500Y-90971714D01*
X142223642Y-90971714D01*
X142128404Y-91019333D01*
X142080785Y-91066952D01*
X143414119Y-91638380D02*
X143414119Y-91114571D01*
X143366500Y-91019333D01*
X143271261Y-90971714D01*
X143080785Y-90971714D01*
X142985547Y-91019333D01*
X143414119Y-91590761D02*
X143318880Y-91638380D01*
X143080785Y-91638380D01*
X142985547Y-91590761D01*
X142937928Y-91495523D01*
X142937928Y-91400285D01*
X142985547Y-91305047D01*
X143080785Y-91257428D01*
X143318880Y-91257428D01*
X143414119Y-91209809D01*
X143890309Y-91638380D02*
X143890309Y-90971714D01*
X143890309Y-91162190D02*
X143937928Y-91066952D01*
X143985547Y-91019333D01*
X144080785Y-90971714D01*
X144176023Y-90971714D01*
X144937928Y-91638380D02*
X144937928Y-90638380D01*
X144937928Y-91590761D02*
X144842690Y-91638380D01*
X144652214Y-91638380D01*
X144556976Y-91590761D01*
X144509357Y-91543142D01*
X144461738Y-91447904D01*
X144461738Y-91162190D01*
X144509357Y-91066952D01*
X144556976Y-91019333D01*
X144652214Y-90971714D01*
X144842690Y-90971714D01*
X144937928Y-91019333D01*
X145318880Y-90971714D02*
X145509357Y-91638380D01*
X145699833Y-91162190D01*
X145890309Y-91638380D01*
X146080785Y-90971714D01*
X146890309Y-91638380D02*
X146890309Y-91114571D01*
X146842690Y-91019333D01*
X146747452Y-90971714D01*
X146556976Y-90971714D01*
X146461738Y-91019333D01*
X146890309Y-91590761D02*
X146795071Y-91638380D01*
X146556976Y-91638380D01*
X146461738Y-91590761D01*
X146414119Y-91495523D01*
X146414119Y-91400285D01*
X146461738Y-91305047D01*
X146556976Y-91257428D01*
X146795071Y-91257428D01*
X146890309Y-91209809D01*
X147366500Y-91638380D02*
X147366500Y-90971714D01*
X147366500Y-91162190D02*
X147414119Y-91066952D01*
X147461738Y-91019333D01*
X147556976Y-90971714D01*
X147652214Y-90971714D01*
X148366500Y-91590761D02*
X148271261Y-91638380D01*
X148080785Y-91638380D01*
X147985547Y-91590761D01*
X147937928Y-91495523D01*
X147937928Y-91114571D01*
X147985547Y-91019333D01*
X148080785Y-90971714D01*
X148271261Y-90971714D01*
X148366500Y-91019333D01*
X148414119Y-91114571D01*
X148414119Y-91209809D01*
X147937928Y-91305047D01*
X149461738Y-91162190D02*
X149414119Y-91114571D01*
X149318880Y-91066952D01*
X149223642Y-91066952D01*
X149128404Y-91114571D01*
X149080785Y-91162190D01*
X149033166Y-91257428D01*
X149033166Y-91352666D01*
X149080785Y-91447904D01*
X149128404Y-91495523D01*
X149223642Y-91543142D01*
X149318880Y-91543142D01*
X149414119Y-91495523D01*
X149461738Y-91447904D01*
X149461738Y-91066952D02*
X149461738Y-91447904D01*
X149509357Y-91495523D01*
X149556976Y-91495523D01*
X149652214Y-91447904D01*
X149699833Y-91352666D01*
X149699833Y-91114571D01*
X149604595Y-90971714D01*
X149461738Y-90876476D01*
X149271261Y-90828857D01*
X149080785Y-90876476D01*
X148937928Y-90971714D01*
X148842690Y-91114571D01*
X148795071Y-91305047D01*
X148842690Y-91495523D01*
X148937928Y-91638380D01*
X149080785Y-91733619D01*
X149271261Y-91781238D01*
X149461738Y-91733619D01*
X149604595Y-91638380D01*
X150128404Y-91638380D02*
X150128404Y-90971714D01*
X150128404Y-91066952D02*
X150176023Y-91019333D01*
X150271261Y-90971714D01*
X150414119Y-90971714D01*
X150509357Y-91019333D01*
X150556976Y-91114571D01*
X150556976Y-91638380D01*
X150556976Y-91114571D02*
X150604595Y-91019333D01*
X150699833Y-90971714D01*
X150842690Y-90971714D01*
X150937928Y-91019333D01*
X150985547Y-91114571D01*
X150985547Y-91638380D01*
X151890309Y-91638380D02*
X151890309Y-91114571D01*
X151842690Y-91019333D01*
X151747452Y-90971714D01*
X151556976Y-90971714D01*
X151461738Y-91019333D01*
X151890309Y-91590761D02*
X151795071Y-91638380D01*
X151556976Y-91638380D01*
X151461738Y-91590761D01*
X151414119Y-91495523D01*
X151414119Y-91400285D01*
X151461738Y-91305047D01*
X151556976Y-91257428D01*
X151795071Y-91257428D01*
X151890309Y-91209809D01*
X152366500Y-91638380D02*
X152366500Y-90971714D01*
X152366500Y-90638380D02*
X152318880Y-90686000D01*
X152366500Y-90733619D01*
X152414119Y-90686000D01*
X152366500Y-90638380D01*
X152366500Y-90733619D01*
X152985547Y-91638380D02*
X152890309Y-91590761D01*
X152842690Y-91495523D01*
X152842690Y-90638380D01*
X153366500Y-91543142D02*
X153414119Y-91590761D01*
X153366500Y-91638380D01*
X153318880Y-91590761D01*
X153366500Y-91543142D01*
X153366500Y-91638380D01*
X153842690Y-91638380D02*
X153842690Y-90971714D01*
X153842690Y-91162190D02*
X153890309Y-91066952D01*
X153937928Y-91019333D01*
X154033166Y-90971714D01*
X154128404Y-90971714D01*
X154890309Y-90971714D02*
X154890309Y-91638380D01*
X154461738Y-90971714D02*
X154461738Y-91495523D01*
X154509357Y-91590761D01*
X154604595Y-91638380D01*
X154747452Y-91638380D01*
X154842690Y-91590761D01*
X154890309Y-91543142D01*
X155366500Y-90971714D02*
X156128404Y-91257428D01*
X155366500Y-91543142D01*
D11*
X98260476Y-48966380D02*
X98260476Y-47966380D01*
X98641428Y-47966380D01*
X98736666Y-48014000D01*
X98784285Y-48061619D01*
X98831904Y-48156857D01*
X98831904Y-48299714D01*
X98784285Y-48394952D01*
X98736666Y-48442571D01*
X98641428Y-48490190D01*
X98260476Y-48490190D01*
X99260476Y-48966380D02*
X99260476Y-48299714D01*
X99260476Y-48490190D02*
X99308095Y-48394952D01*
X99355714Y-48347333D01*
X99450952Y-48299714D01*
X99546190Y-48299714D01*
X100022380Y-48966380D02*
X99927142Y-48918761D01*
X99879523Y-48871142D01*
X99831904Y-48775904D01*
X99831904Y-48490190D01*
X99879523Y-48394952D01*
X99927142Y-48347333D01*
X100022380Y-48299714D01*
X100165238Y-48299714D01*
X100260476Y-48347333D01*
X100308095Y-48394952D01*
X100355714Y-48490190D01*
X100355714Y-48775904D01*
X100308095Y-48871142D01*
X100260476Y-48918761D01*
X100165238Y-48966380D01*
X100022380Y-48966380D01*
X100641428Y-48299714D02*
X101022380Y-48299714D01*
X100784285Y-47966380D02*
X100784285Y-48823523D01*
X100831904Y-48918761D01*
X100927142Y-48966380D01*
X101022380Y-48966380D01*
X101498571Y-48966380D02*
X101403333Y-48918761D01*
X101355714Y-48871142D01*
X101308095Y-48775904D01*
X101308095Y-48490190D01*
X101355714Y-48394952D01*
X101403333Y-48347333D01*
X101498571Y-48299714D01*
X101641428Y-48299714D01*
X101736666Y-48347333D01*
X101784285Y-48394952D01*
X101831904Y-48490190D01*
X101831904Y-48775904D01*
X101784285Y-48871142D01*
X101736666Y-48918761D01*
X101641428Y-48966380D01*
X101498571Y-48966380D01*
X102117619Y-48299714D02*
X102498571Y-48299714D01*
X102260476Y-47966380D02*
X102260476Y-48823523D01*
X102308095Y-48918761D01*
X102403333Y-48966380D01*
X102498571Y-48966380D01*
X102736666Y-48299714D02*
X102974761Y-48966380D01*
X103212857Y-48299714D02*
X102974761Y-48966380D01*
X102879523Y-49204476D01*
X102831904Y-49252095D01*
X102736666Y-49299714D01*
X103593809Y-48299714D02*
X103593809Y-49299714D01*
X103593809Y-48347333D02*
X103689047Y-48299714D01*
X103879523Y-48299714D01*
X103974761Y-48347333D01*
X104022380Y-48394952D01*
X104070000Y-48490190D01*
X104070000Y-48775904D01*
X104022380Y-48871142D01*
X103974761Y-48918761D01*
X103879523Y-48966380D01*
X103689047Y-48966380D01*
X103593809Y-48918761D01*
X104498571Y-48966380D02*
X104498571Y-48299714D01*
X104498571Y-47966380D02*
X104450952Y-48014000D01*
X104498571Y-48061619D01*
X104546190Y-48014000D01*
X104498571Y-47966380D01*
X104498571Y-48061619D01*
X104974761Y-48299714D02*
X104974761Y-48966380D01*
X104974761Y-48394952D02*
X105022380Y-48347333D01*
X105117619Y-48299714D01*
X105260476Y-48299714D01*
X105355714Y-48347333D01*
X105403333Y-48442571D01*
X105403333Y-48966380D01*
X106308095Y-48299714D02*
X106308095Y-49109238D01*
X106260476Y-49204476D01*
X106212857Y-49252095D01*
X106117619Y-49299714D01*
X105974761Y-49299714D01*
X105879523Y-49252095D01*
X106308095Y-48918761D02*
X106212857Y-48966380D01*
X106022380Y-48966380D01*
X105927142Y-48918761D01*
X105879523Y-48871142D01*
X105831904Y-48775904D01*
X105831904Y-48490190D01*
X105879523Y-48394952D01*
X105927142Y-48347333D01*
X106022380Y-48299714D01*
X106212857Y-48299714D01*
X106308095Y-48347333D01*
X107879523Y-48442571D02*
X108022380Y-48490190D01*
X108070000Y-48537809D01*
X108117619Y-48633047D01*
X108117619Y-48775904D01*
X108070000Y-48871142D01*
X108022380Y-48918761D01*
X107927142Y-48966380D01*
X107546190Y-48966380D01*
X107546190Y-47966380D01*
X107879523Y-47966380D01*
X107974761Y-48014000D01*
X108022380Y-48061619D01*
X108070000Y-48156857D01*
X108070000Y-48252095D01*
X108022380Y-48347333D01*
X107974761Y-48394952D01*
X107879523Y-48442571D01*
X107546190Y-48442571D01*
X108689047Y-48966380D02*
X108593809Y-48918761D01*
X108546190Y-48871142D01*
X108498571Y-48775904D01*
X108498571Y-48490190D01*
X108546190Y-48394952D01*
X108593809Y-48347333D01*
X108689047Y-48299714D01*
X108831904Y-48299714D01*
X108927142Y-48347333D01*
X108974761Y-48394952D01*
X109022380Y-48490190D01*
X109022380Y-48775904D01*
X108974761Y-48871142D01*
X108927142Y-48918761D01*
X108831904Y-48966380D01*
X108689047Y-48966380D01*
X109879523Y-48966380D02*
X109879523Y-48442571D01*
X109831904Y-48347333D01*
X109736666Y-48299714D01*
X109546190Y-48299714D01*
X109450952Y-48347333D01*
X109879523Y-48918761D02*
X109784285Y-48966380D01*
X109546190Y-48966380D01*
X109450952Y-48918761D01*
X109403333Y-48823523D01*
X109403333Y-48728285D01*
X109450952Y-48633047D01*
X109546190Y-48585428D01*
X109784285Y-48585428D01*
X109879523Y-48537809D01*
X110355714Y-48966380D02*
X110355714Y-48299714D01*
X110355714Y-48490190D02*
X110403333Y-48394952D01*
X110450952Y-48347333D01*
X110546190Y-48299714D01*
X110641428Y-48299714D01*
X111403333Y-48966380D02*
X111403333Y-47966380D01*
X111403333Y-48918761D02*
X111308095Y-48966380D01*
X111117619Y-48966380D01*
X111022380Y-48918761D01*
X110974761Y-48871142D01*
X110927142Y-48775904D01*
X110927142Y-48490190D01*
X110974761Y-48394952D01*
X111022380Y-48347333D01*
X111117619Y-48299714D01*
X111308095Y-48299714D01*
X111403333Y-48347333D01*
X112498571Y-48299714D02*
X112879523Y-48299714D01*
X112641428Y-48966380D02*
X112641428Y-48109238D01*
X112689047Y-48014000D01*
X112784285Y-47966380D01*
X112879523Y-47966380D01*
X113355714Y-48966380D02*
X113260476Y-48918761D01*
X113212857Y-48871142D01*
X113165238Y-48775904D01*
X113165238Y-48490190D01*
X113212857Y-48394952D01*
X113260476Y-48347333D01*
X113355714Y-48299714D01*
X113498571Y-48299714D01*
X113593809Y-48347333D01*
X113641428Y-48394952D01*
X113689047Y-48490190D01*
X113689047Y-48775904D01*
X113641428Y-48871142D01*
X113593809Y-48918761D01*
X113498571Y-48966380D01*
X113355714Y-48966380D01*
X114117619Y-48966380D02*
X114117619Y-48299714D01*
X114117619Y-48490190D02*
X114165238Y-48394952D01*
X114212857Y-48347333D01*
X114308095Y-48299714D01*
X114403333Y-48299714D01*
X116022380Y-48966380D02*
X115450952Y-48966380D01*
X115736666Y-48966380D02*
X115736666Y-47966380D01*
X115641428Y-48109238D01*
X115546190Y-48204476D01*
X115450952Y-48252095D01*
X116974761Y-48966380D02*
X116403333Y-48966380D01*
X116689047Y-48966380D02*
X116689047Y-47966380D01*
X116593809Y-48109238D01*
X116498571Y-48204476D01*
X116403333Y-48252095D01*
X117403333Y-48585428D02*
X118165238Y-48585428D01*
X118641428Y-48299714D02*
X118641428Y-49299714D01*
X118641428Y-48347333D02*
X118736666Y-48299714D01*
X118927142Y-48299714D01*
X119022380Y-48347333D01*
X119070000Y-48394952D01*
X119117619Y-48490190D01*
X119117619Y-48775904D01*
X119070000Y-48871142D01*
X119022380Y-48918761D01*
X118927142Y-48966380D01*
X118736666Y-48966380D01*
X118641428Y-48918761D01*
X119546190Y-48966380D02*
X119546190Y-48299714D01*
X119546190Y-47966380D02*
X119498571Y-48014000D01*
X119546190Y-48061619D01*
X119593809Y-48014000D01*
X119546190Y-47966380D01*
X119546190Y-48061619D01*
X120022380Y-48299714D02*
X120022380Y-48966380D01*
X120022380Y-48394952D02*
X120070000Y-48347333D01*
X120165238Y-48299714D01*
X120308095Y-48299714D01*
X120403333Y-48347333D01*
X120450952Y-48442571D01*
X120450952Y-48966380D01*
X121641428Y-48918761D02*
X121784285Y-48966380D01*
X122022380Y-48966380D01*
X122117619Y-48918761D01*
X122165238Y-48871142D01*
X122212857Y-48775904D01*
X122212857Y-48680666D01*
X122165238Y-48585428D01*
X122117619Y-48537809D01*
X122022380Y-48490190D01*
X121831904Y-48442571D01*
X121736666Y-48394952D01*
X121689047Y-48347333D01*
X121641428Y-48252095D01*
X121641428Y-48156857D01*
X121689047Y-48061619D01*
X121736666Y-48014000D01*
X121831904Y-47966380D01*
X122070000Y-47966380D01*
X122212857Y-48014000D01*
X122641428Y-48966380D02*
X122641428Y-47966380D01*
X123070000Y-48966380D02*
X123070000Y-48442571D01*
X123022380Y-48347333D01*
X122927142Y-48299714D01*
X122784285Y-48299714D01*
X122689047Y-48347333D01*
X122641428Y-48394952D01*
X123974761Y-48966380D02*
X123974761Y-48442571D01*
X123927142Y-48347333D01*
X123831904Y-48299714D01*
X123641428Y-48299714D01*
X123546190Y-48347333D01*
X123974761Y-48918761D02*
X123879523Y-48966380D01*
X123641428Y-48966380D01*
X123546190Y-48918761D01*
X123498571Y-48823523D01*
X123498571Y-48728285D01*
X123546190Y-48633047D01*
X123641428Y-48585428D01*
X123879523Y-48585428D01*
X123974761Y-48537809D01*
X124450952Y-48966380D02*
X124450952Y-48299714D01*
X124450952Y-48490190D02*
X124498571Y-48394952D01*
X124546190Y-48347333D01*
X124641428Y-48299714D01*
X124736666Y-48299714D01*
X125070000Y-48299714D02*
X125070000Y-49299714D01*
X125070000Y-48347333D02*
X125165238Y-48299714D01*
X125355714Y-48299714D01*
X125450952Y-48347333D01*
X125498571Y-48394952D01*
X125546190Y-48490190D01*
X125546190Y-48775904D01*
X125498571Y-48871142D01*
X125450952Y-48918761D01*
X125355714Y-48966380D01*
X125165238Y-48966380D01*
X125070000Y-48918761D01*
X126736666Y-48966380D02*
X126736666Y-47966380D01*
X127212857Y-48299714D02*
X127212857Y-48966380D01*
X127212857Y-48394952D02*
X127260476Y-48347333D01*
X127355714Y-48299714D01*
X127498571Y-48299714D01*
X127593809Y-48347333D01*
X127641428Y-48442571D01*
X127641428Y-48966380D01*
X127974761Y-48299714D02*
X128355714Y-48299714D01*
X128117619Y-47966380D02*
X128117619Y-48823523D01*
X128165238Y-48918761D01*
X128260476Y-48966380D01*
X128355714Y-48966380D01*
X129069999Y-48918761D02*
X128974761Y-48966380D01*
X128784285Y-48966380D01*
X128689047Y-48918761D01*
X128641428Y-48823523D01*
X128641428Y-48442571D01*
X128689047Y-48347333D01*
X128784285Y-48299714D01*
X128974761Y-48299714D01*
X129069999Y-48347333D01*
X129117619Y-48442571D01*
X129117619Y-48537809D01*
X128641428Y-48633047D01*
X129546190Y-48966380D02*
X129546190Y-48299714D01*
X129546190Y-48490190D02*
X129593809Y-48394952D01*
X129641428Y-48347333D01*
X129736666Y-48299714D01*
X129831904Y-48299714D01*
X130022380Y-48299714D02*
X130403333Y-48299714D01*
X130165238Y-48966380D02*
X130165238Y-48109238D01*
X130212857Y-48014000D01*
X130308095Y-47966380D01*
X130403333Y-47966380D01*
X131165238Y-48966380D02*
X131165238Y-48442571D01*
X131117619Y-48347333D01*
X131022380Y-48299714D01*
X130831904Y-48299714D01*
X130736666Y-48347333D01*
X131165238Y-48918761D02*
X131069999Y-48966380D01*
X130831904Y-48966380D01*
X130736666Y-48918761D01*
X130689047Y-48823523D01*
X130689047Y-48728285D01*
X130736666Y-48633047D01*
X130831904Y-48585428D01*
X131069999Y-48585428D01*
X131165238Y-48537809D01*
X132069999Y-48918761D02*
X131974761Y-48966380D01*
X131784285Y-48966380D01*
X131689047Y-48918761D01*
X131641428Y-48871142D01*
X131593809Y-48775904D01*
X131593809Y-48490190D01*
X131641428Y-48394952D01*
X131689047Y-48347333D01*
X131784285Y-48299714D01*
X131974761Y-48299714D01*
X132069999Y-48347333D01*
X132879523Y-48918761D02*
X132784285Y-48966380D01*
X132593809Y-48966380D01*
X132498571Y-48918761D01*
X132450952Y-48823523D01*
X132450952Y-48442571D01*
X132498571Y-48347333D01*
X132593809Y-48299714D01*
X132784285Y-48299714D01*
X132879523Y-48347333D01*
X132927142Y-48442571D01*
X132927142Y-48537809D01*
X132450952Y-48633047D01*
D10*
X164941428Y-54300380D02*
X164941428Y-53300380D01*
X165322380Y-53300380D01*
X165417619Y-53348000D01*
X165465238Y-53395619D01*
X165512857Y-53490857D01*
X165512857Y-53633714D01*
X165465238Y-53728952D01*
X165417619Y-53776571D01*
X165322380Y-53824190D01*
X164941428Y-53824190D01*
X165941428Y-54300380D02*
X165941428Y-53633714D01*
X165941428Y-53300380D02*
X165893809Y-53348000D01*
X165941428Y-53395619D01*
X165989047Y-53348000D01*
X165941428Y-53300380D01*
X165941428Y-53395619D01*
X166417619Y-53633714D02*
X166417619Y-54300380D01*
X166417619Y-53728952D02*
X166465238Y-53681333D01*
X166560476Y-53633714D01*
X166703333Y-53633714D01*
X166798571Y-53681333D01*
X166846190Y-53776571D01*
X166846190Y-54300380D01*
X167846190Y-54300380D02*
X167274761Y-54300380D01*
X167560476Y-54300380D02*
X167560476Y-53300380D01*
X167465238Y-53443238D01*
X167370000Y-53538476D01*
X167274761Y-53586095D01*
D12*
X97282000Y-53340000D02*
X97028000Y-53340000D01*
X97282000Y-53340000D02*
X97536000Y-53340000D01*
X97282000Y-50546000D02*
X97282000Y-51054000D01*
X97028000Y-50800000D02*
X97536000Y-50800000D01*
X154940000Y-52070000D02*
X156210000Y-52070000D01*
X156210000Y-54610000D02*
X154686000Y-54610000D01*
X156210000Y-49530000D02*
X156210000Y-54610000D01*
X154940000Y-49530000D02*
X156210000Y-49530000D01*
X148590000Y-80010000D02*
X168910000Y-80010000D01*
X148590000Y-77470000D02*
X168910000Y-77470000D01*
X148590000Y-74930000D02*
X168910000Y-74930000D01*
X148590000Y-72390000D02*
X168910000Y-72390000D01*
X148590000Y-69850000D02*
X168910000Y-69850000D01*
X148590000Y-67310000D02*
X168910000Y-67310000D01*
X148590000Y-64770000D02*
X168910000Y-64770000D01*
X148590000Y-82550000D02*
X168910000Y-82550000D01*
X148590000Y-62230000D02*
X148590000Y-82550000D01*
X148590000Y-62230000D02*
X168910000Y-62230000D01*
X97790000Y-52070000D02*
X154940000Y-52070000D01*
X97790000Y-49530000D02*
X154940000Y-49530000D01*
X97790000Y-54610000D02*
X97790000Y-49530000D01*
X154940000Y-54610000D02*
X97790000Y-54610000D01*
D10*
X157831404Y-81732380D02*
X157259976Y-81732380D01*
X157545690Y-81732380D02*
X157545690Y-80732380D01*
X157450452Y-80875238D01*
X157355214Y-80970476D01*
X157259976Y-81018095D01*
X158783785Y-81732380D02*
X158212357Y-81732380D01*
X158498071Y-81732380D02*
X158498071Y-80732380D01*
X158402833Y-80875238D01*
X158307595Y-80970476D01*
X158212357Y-81018095D01*
X159212357Y-81637142D02*
X159259976Y-81684761D01*
X159212357Y-81732380D01*
X159164738Y-81684761D01*
X159212357Y-81637142D01*
X159212357Y-81732380D01*
X159212357Y-81113333D02*
X159259976Y-81160952D01*
X159212357Y-81208571D01*
X159164738Y-81160952D01*
X159212357Y-81113333D01*
X159212357Y-81208571D01*
X157783785Y-65492380D02*
X157307595Y-65492380D01*
X157259976Y-65968571D01*
X157307595Y-65920952D01*
X157402833Y-65873333D01*
X157640928Y-65873333D01*
X157736166Y-65920952D01*
X157783785Y-65968571D01*
X157831404Y-66063809D01*
X157831404Y-66301904D01*
X157783785Y-66397142D01*
X157736166Y-66444761D01*
X157640928Y-66492380D01*
X157402833Y-66492380D01*
X157307595Y-66444761D01*
X157259976Y-66397142D01*
X158259976Y-66397142D02*
X158307595Y-66444761D01*
X158259976Y-66492380D01*
X158212357Y-66444761D01*
X158259976Y-66397142D01*
X158259976Y-66492380D01*
X158259976Y-65873333D02*
X158307595Y-65920952D01*
X158259976Y-65968571D01*
X158212357Y-65920952D01*
X158259976Y-65873333D01*
X158259976Y-65968571D01*
X157736166Y-68032380D02*
X157545690Y-68032380D01*
X157450452Y-68080000D01*
X157402833Y-68127619D01*
X157307595Y-68270476D01*
X157259976Y-68460952D01*
X157259976Y-68841904D01*
X157307595Y-68937142D01*
X157355214Y-68984761D01*
X157450452Y-69032380D01*
X157640928Y-69032380D01*
X157736166Y-68984761D01*
X157783785Y-68937142D01*
X157831404Y-68841904D01*
X157831404Y-68603809D01*
X157783785Y-68508571D01*
X157736166Y-68460952D01*
X157640928Y-68413333D01*
X157450452Y-68413333D01*
X157355214Y-68460952D01*
X157307595Y-68508571D01*
X157259976Y-68603809D01*
X158259976Y-68937142D02*
X158307595Y-68984761D01*
X158259976Y-69032380D01*
X158212357Y-68984761D01*
X158259976Y-68937142D01*
X158259976Y-69032380D01*
X158259976Y-68413333D02*
X158307595Y-68460952D01*
X158259976Y-68508571D01*
X158212357Y-68460952D01*
X158259976Y-68413333D01*
X158259976Y-68508571D01*
X157212357Y-70572380D02*
X157879023Y-70572380D01*
X157450452Y-71572380D01*
X158259976Y-71477142D02*
X158307595Y-71524761D01*
X158259976Y-71572380D01*
X158212357Y-71524761D01*
X158259976Y-71477142D01*
X158259976Y-71572380D01*
X158259976Y-70953333D02*
X158307595Y-71000952D01*
X158259976Y-71048571D01*
X158212357Y-71000952D01*
X158259976Y-70953333D01*
X158259976Y-71048571D01*
X157450452Y-73540952D02*
X157355214Y-73493333D01*
X157307595Y-73445714D01*
X157259976Y-73350476D01*
X157259976Y-73302857D01*
X157307595Y-73207619D01*
X157355214Y-73160000D01*
X157450452Y-73112380D01*
X157640928Y-73112380D01*
X157736166Y-73160000D01*
X157783785Y-73207619D01*
X157831404Y-73302857D01*
X157831404Y-73350476D01*
X157783785Y-73445714D01*
X157736166Y-73493333D01*
X157640928Y-73540952D01*
X157450452Y-73540952D01*
X157355214Y-73588571D01*
X157307595Y-73636190D01*
X157259976Y-73731428D01*
X157259976Y-73921904D01*
X157307595Y-74017142D01*
X157355214Y-74064761D01*
X157450452Y-74112380D01*
X157640928Y-74112380D01*
X157736166Y-74064761D01*
X157783785Y-74017142D01*
X157831404Y-73921904D01*
X157831404Y-73731428D01*
X157783785Y-73636190D01*
X157736166Y-73588571D01*
X157640928Y-73540952D01*
X158259976Y-74017142D02*
X158307595Y-74064761D01*
X158259976Y-74112380D01*
X158212357Y-74064761D01*
X158259976Y-74017142D01*
X158259976Y-74112380D01*
X158259976Y-73493333D02*
X158307595Y-73540952D01*
X158259976Y-73588571D01*
X158212357Y-73540952D01*
X158259976Y-73493333D01*
X158259976Y-73588571D01*
X157355214Y-76652380D02*
X157545690Y-76652380D01*
X157640928Y-76604761D01*
X157688547Y-76557142D01*
X157783785Y-76414285D01*
X157831404Y-76223809D01*
X157831404Y-75842857D01*
X157783785Y-75747619D01*
X157736166Y-75700000D01*
X157640928Y-75652380D01*
X157450452Y-75652380D01*
X157355214Y-75700000D01*
X157307595Y-75747619D01*
X157259976Y-75842857D01*
X157259976Y-76080952D01*
X157307595Y-76176190D01*
X157355214Y-76223809D01*
X157450452Y-76271428D01*
X157640928Y-76271428D01*
X157736166Y-76223809D01*
X157783785Y-76176190D01*
X157831404Y-76080952D01*
X158259976Y-76557142D02*
X158307595Y-76604761D01*
X158259976Y-76652380D01*
X158212357Y-76604761D01*
X158259976Y-76557142D01*
X158259976Y-76652380D01*
X158259976Y-76033333D02*
X158307595Y-76080952D01*
X158259976Y-76128571D01*
X158212357Y-76080952D01*
X158259976Y-76033333D01*
X158259976Y-76128571D01*
X157831404Y-79192380D02*
X157259976Y-79192380D01*
X157545690Y-79192380D02*
X157545690Y-78192380D01*
X157450452Y-78335238D01*
X157355214Y-78430476D01*
X157259976Y-78478095D01*
X158450452Y-78192380D02*
X158545690Y-78192380D01*
X158640928Y-78240000D01*
X158688547Y-78287619D01*
X158736166Y-78382857D01*
X158783785Y-78573333D01*
X158783785Y-78811428D01*
X158736166Y-79001904D01*
X158688547Y-79097142D01*
X158640928Y-79144761D01*
X158545690Y-79192380D01*
X158450452Y-79192380D01*
X158355214Y-79144761D01*
X158307595Y-79097142D01*
X158259976Y-79001904D01*
X158212357Y-78811428D01*
X158212357Y-78573333D01*
X158259976Y-78382857D01*
X158307595Y-78287619D01*
X158355214Y-78240000D01*
X158450452Y-78192380D01*
X159212357Y-79097142D02*
X159259976Y-79144761D01*
X159212357Y-79192380D01*
X159164738Y-79144761D01*
X159212357Y-79097142D01*
X159212357Y-79192380D01*
X159212357Y-78573333D02*
X159259976Y-78620952D01*
X159212357Y-78668571D01*
X159164738Y-78620952D01*
X159212357Y-78573333D01*
X159212357Y-78668571D01*
X157736166Y-63285714D02*
X157736166Y-63952380D01*
X157498071Y-62904761D02*
X157259976Y-63619047D01*
X157879023Y-63619047D01*
X158259976Y-63857142D02*
X158307595Y-63904761D01*
X158259976Y-63952380D01*
X158212357Y-63904761D01*
X158259976Y-63857142D01*
X158259976Y-63952380D01*
X158259976Y-63333333D02*
X158307595Y-63380952D01*
X158259976Y-63428571D01*
X158212357Y-63380952D01*
X158259976Y-63333333D01*
X158259976Y-63428571D01*
X156248571Y-55332380D02*
X156515238Y-56332380D01*
X156781904Y-55332380D01*
X157505714Y-56237142D02*
X157467619Y-56284761D01*
X157353333Y-56332380D01*
X157277142Y-56332380D01*
X157162857Y-56284761D01*
X157086666Y-56189523D01*
X157048571Y-56094285D01*
X157010476Y-55903809D01*
X157010476Y-55760952D01*
X157048571Y-55570476D01*
X157086666Y-55475238D01*
X157162857Y-55380000D01*
X157277142Y-55332380D01*
X157353333Y-55332380D01*
X157467619Y-55380000D01*
X157505714Y-55427619D01*
X158305714Y-56237142D02*
X158267619Y-56284761D01*
X158153333Y-56332380D01*
X158077142Y-56332380D01*
X157962857Y-56284761D01*
X157886666Y-56189523D01*
X157848571Y-56094285D01*
X157810476Y-55903809D01*
X157810476Y-55760952D01*
X157848571Y-55570476D01*
X157886666Y-55475238D01*
X157962857Y-55380000D01*
X158077142Y-55332380D01*
X158153333Y-55332380D01*
X158267619Y-55380000D01*
X158305714Y-55427619D01*
X159715238Y-56237142D02*
X159677142Y-56284761D01*
X159562857Y-56332380D01*
X159486666Y-56332380D01*
X159372380Y-56284761D01*
X159296190Y-56189523D01*
X159258095Y-56094285D01*
X159220000Y-55903809D01*
X159220000Y-55760952D01*
X159258095Y-55570476D01*
X159296190Y-55475238D01*
X159372380Y-55380000D01*
X159486666Y-55332380D01*
X159562857Y-55332380D01*
X159677142Y-55380000D01*
X159715238Y-55427619D01*
X160172380Y-56332380D02*
X160096190Y-56284761D01*
X160058095Y-56237142D01*
X160020000Y-56141904D01*
X160020000Y-55856190D01*
X160058095Y-55760952D01*
X160096190Y-55713333D01*
X160172380Y-55665714D01*
X160286666Y-55665714D01*
X160362857Y-55713333D01*
X160400952Y-55760952D01*
X160439047Y-55856190D01*
X160439047Y-56141904D01*
X160400952Y-56237142D01*
X160362857Y-56284761D01*
X160286666Y-56332380D01*
X160172380Y-56332380D01*
X160781904Y-55665714D02*
X160781904Y-56332380D01*
X160781904Y-55760952D02*
X160820000Y-55713333D01*
X160896190Y-55665714D01*
X161010476Y-55665714D01*
X161086666Y-55713333D01*
X161124761Y-55808571D01*
X161124761Y-56332380D01*
X161505714Y-55665714D02*
X161505714Y-56332380D01*
X161505714Y-55760952D02*
X161543809Y-55713333D01*
X161620000Y-55665714D01*
X161734285Y-55665714D01*
X161810476Y-55713333D01*
X161848571Y-55808571D01*
X161848571Y-56332380D01*
X162534285Y-56284761D02*
X162458095Y-56332380D01*
X162305714Y-56332380D01*
X162229523Y-56284761D01*
X162191428Y-56189523D01*
X162191428Y-55808571D01*
X162229523Y-55713333D01*
X162305714Y-55665714D01*
X162458095Y-55665714D01*
X162534285Y-55713333D01*
X162572380Y-55808571D01*
X162572380Y-55903809D01*
X162191428Y-55999047D01*
X163258095Y-56284761D02*
X163181904Y-56332380D01*
X163029523Y-56332380D01*
X162953333Y-56284761D01*
X162915238Y-56237142D01*
X162877142Y-56141904D01*
X162877142Y-55856190D01*
X162915238Y-55760952D01*
X162953333Y-55713333D01*
X163029523Y-55665714D01*
X163181904Y-55665714D01*
X163258095Y-55713333D01*
X163486666Y-55665714D02*
X163791428Y-55665714D01*
X163600952Y-55332380D02*
X163600952Y-56189523D01*
X163639047Y-56284761D01*
X163715238Y-56332380D01*
X163791428Y-56332380D01*
X161795833Y-81637142D02*
X161748214Y-81684761D01*
X161605357Y-81732380D01*
X161510119Y-81732380D01*
X161367261Y-81684761D01*
X161272023Y-81589523D01*
X161224404Y-81494285D01*
X161176785Y-81303809D01*
X161176785Y-81160952D01*
X161224404Y-80970476D01*
X161272023Y-80875238D01*
X161367261Y-80780000D01*
X161510119Y-80732380D01*
X161605357Y-80732380D01*
X161748214Y-80780000D01*
X161795833Y-80827619D01*
X162224404Y-81732380D02*
X162224404Y-80732380D01*
X159748214Y-79192380D02*
X159748214Y-78192380D01*
X159986309Y-78192380D01*
X160129166Y-78240000D01*
X160224404Y-78335238D01*
X160272023Y-78430476D01*
X160319642Y-78620952D01*
X160319642Y-78763809D01*
X160272023Y-78954285D01*
X160224404Y-79049523D01*
X160129166Y-79144761D01*
X159986309Y-79192380D01*
X159748214Y-79192380D01*
X160700595Y-79144761D02*
X160843452Y-79192380D01*
X161081547Y-79192380D01*
X161176785Y-79144761D01*
X161224404Y-79097142D01*
X161272023Y-79001904D01*
X161272023Y-78906666D01*
X161224404Y-78811428D01*
X161176785Y-78763809D01*
X161081547Y-78716190D01*
X160891071Y-78668571D01*
X160795833Y-78620952D01*
X160748214Y-78573333D01*
X160700595Y-78478095D01*
X160700595Y-78382857D01*
X160748214Y-78287619D01*
X160795833Y-78240000D01*
X160891071Y-78192380D01*
X161129166Y-78192380D01*
X161272023Y-78240000D01*
X162272023Y-79192380D02*
X161938690Y-78716190D01*
X161700595Y-79192380D02*
X161700595Y-78192380D01*
X162081547Y-78192380D01*
X162176785Y-78240000D01*
X162224404Y-78287619D01*
X162272023Y-78382857D01*
X162272023Y-78525714D01*
X162224404Y-78620952D01*
X162176785Y-78668571D01*
X162081547Y-78716190D01*
X161700595Y-78716190D01*
X160557738Y-76557142D02*
X160510119Y-76604761D01*
X160367261Y-76652380D01*
X160272023Y-76652380D01*
X160129166Y-76604761D01*
X160033928Y-76509523D01*
X159986309Y-76414285D01*
X159938690Y-76223809D01*
X159938690Y-76080952D01*
X159986309Y-75890476D01*
X160033928Y-75795238D01*
X160129166Y-75700000D01*
X160272023Y-75652380D01*
X160367261Y-75652380D01*
X160510119Y-75700000D01*
X160557738Y-75747619D01*
X160843452Y-75652380D02*
X161414880Y-75652380D01*
X161129166Y-76652380D02*
X161129166Y-75652380D01*
X161700595Y-76604761D02*
X161843452Y-76652380D01*
X162081547Y-76652380D01*
X162176785Y-76604761D01*
X162224404Y-76557142D01*
X162272023Y-76461904D01*
X162272023Y-76366666D01*
X162224404Y-76271428D01*
X162176785Y-76223809D01*
X162081547Y-76176190D01*
X161891071Y-76128571D01*
X161795833Y-76080952D01*
X161748214Y-76033333D01*
X161700595Y-75938095D01*
X161700595Y-75842857D01*
X161748214Y-75747619D01*
X161795833Y-75700000D01*
X161891071Y-75652380D01*
X162129166Y-75652380D01*
X162272023Y-75700000D01*
X161353523Y-74017142D02*
X161305904Y-74064761D01*
X161163047Y-74112380D01*
X161067809Y-74112380D01*
X160924952Y-74064761D01*
X160829714Y-73969523D01*
X160782095Y-73874285D01*
X160734476Y-73683809D01*
X160734476Y-73540952D01*
X160782095Y-73350476D01*
X160829714Y-73255238D01*
X160924952Y-73160000D01*
X161067809Y-73112380D01*
X161163047Y-73112380D01*
X161305904Y-73160000D01*
X161353523Y-73207619D01*
X161782095Y-74112380D02*
X161782095Y-73112380D01*
X162020190Y-73112380D01*
X162163047Y-73160000D01*
X162258285Y-73255238D01*
X162305904Y-73350476D01*
X162353523Y-73540952D01*
X162353523Y-73683809D01*
X162305904Y-73874285D01*
X162258285Y-73969523D01*
X162163047Y-74064761D01*
X162020190Y-74112380D01*
X161782095Y-74112380D01*
X159843452Y-70572380D02*
X160414880Y-70572380D01*
X160129166Y-71572380D02*
X160129166Y-70572380D01*
X160652976Y-70572380D02*
X161319642Y-71572380D01*
X161319642Y-70572380D02*
X160652976Y-71572380D01*
X161700595Y-71572380D02*
X161700595Y-70572380D01*
X161938690Y-70572380D01*
X162081547Y-70620000D01*
X162176785Y-70715238D01*
X162224404Y-70810476D01*
X162272023Y-71000952D01*
X162272023Y-71143809D01*
X162224404Y-71334285D01*
X162176785Y-71429523D01*
X162081547Y-71524761D01*
X161938690Y-71572380D01*
X161700595Y-71572380D01*
X160369333Y-69032380D02*
X160036000Y-68556190D01*
X159797904Y-69032380D02*
X159797904Y-68032380D01*
X160178857Y-68032380D01*
X160274095Y-68080000D01*
X160321714Y-68127619D01*
X160369333Y-68222857D01*
X160369333Y-68365714D01*
X160321714Y-68460952D01*
X160274095Y-68508571D01*
X160178857Y-68556190D01*
X159797904Y-68556190D01*
X160702666Y-68032380D02*
X161369333Y-69032380D01*
X161369333Y-68032380D02*
X160702666Y-69032380D01*
X161750285Y-69032380D02*
X161750285Y-68032380D01*
X161988380Y-68032380D01*
X162131238Y-68080000D01*
X162226476Y-68175238D01*
X162274095Y-68270476D01*
X162321714Y-68460952D01*
X162321714Y-68603809D01*
X162274095Y-68794285D01*
X162226476Y-68889523D01*
X162131238Y-68984761D01*
X161988380Y-69032380D01*
X161750285Y-69032380D01*
X159938690Y-66492380D02*
X159938690Y-65492380D01*
X160176785Y-65492380D01*
X160319642Y-65540000D01*
X160414880Y-65635238D01*
X160462500Y-65730476D01*
X160510119Y-65920952D01*
X160510119Y-66063809D01*
X160462500Y-66254285D01*
X160414880Y-66349523D01*
X160319642Y-66444761D01*
X160176785Y-66492380D01*
X159938690Y-66492380D01*
X160795833Y-65492380D02*
X161367261Y-65492380D01*
X161081547Y-66492380D02*
X161081547Y-65492380D01*
X162272023Y-66492380D02*
X161938690Y-66016190D01*
X161700595Y-66492380D02*
X161700595Y-65492380D01*
X162081547Y-65492380D01*
X162176785Y-65540000D01*
X162224404Y-65587619D01*
X162272023Y-65682857D01*
X162272023Y-65825714D01*
X162224404Y-65920952D01*
X162176785Y-65968571D01*
X162081547Y-66016190D01*
X161700595Y-66016190D01*
X160557738Y-63952380D02*
X160224404Y-63476190D01*
X159986309Y-63952380D02*
X159986309Y-62952380D01*
X160367261Y-62952380D01*
X160462500Y-63000000D01*
X160510119Y-63047619D01*
X160557738Y-63142857D01*
X160557738Y-63285714D01*
X160510119Y-63380952D01*
X160462500Y-63428571D01*
X160367261Y-63476190D01*
X159986309Y-63476190D01*
X160843452Y-62952380D02*
X161414880Y-62952380D01*
X161129166Y-63952380D02*
X161129166Y-62952380D01*
X161700595Y-63904761D02*
X161843452Y-63952380D01*
X162081547Y-63952380D01*
X162176785Y-63904761D01*
X162224404Y-63857142D01*
X162272023Y-63761904D01*
X162272023Y-63666666D01*
X162224404Y-63571428D01*
X162176785Y-63523809D01*
X162081547Y-63476190D01*
X161891071Y-63428571D01*
X161795833Y-63380952D01*
X161748214Y-63333333D01*
X161700595Y-63238095D01*
X161700595Y-63142857D01*
X161748214Y-63047619D01*
X161795833Y-63000000D01*
X161891071Y-62952380D01*
X162129166Y-62952380D01*
X162272023Y-63000000D01*
X160176785Y-60460000D02*
X160081547Y-60412380D01*
X159938690Y-60412380D01*
X159795833Y-60460000D01*
X159700595Y-60555238D01*
X159652976Y-60650476D01*
X159605357Y-60840952D01*
X159605357Y-60983809D01*
X159652976Y-61174285D01*
X159700595Y-61269523D01*
X159795833Y-61364761D01*
X159938690Y-61412380D01*
X160033928Y-61412380D01*
X160176785Y-61364761D01*
X160224404Y-61317142D01*
X160224404Y-60983809D01*
X160033928Y-60983809D01*
X160652976Y-61412380D02*
X160652976Y-60412380D01*
X161224404Y-61412380D01*
X161224404Y-60412380D01*
X161700595Y-61412380D02*
X161700595Y-60412380D01*
X161938690Y-60412380D01*
X162081547Y-60460000D01*
X162176785Y-60555238D01*
X162224404Y-60650476D01*
X162272023Y-60840952D01*
X162272023Y-60983809D01*
X162224404Y-61174285D01*
X162176785Y-61269523D01*
X162081547Y-61364761D01*
X161938690Y-61412380D01*
X161700595Y-61412380D01*
D13*
X157023357Y-52792380D02*
X157642404Y-52792380D01*
X157309071Y-53173333D01*
X157451928Y-53173333D01*
X157547166Y-53220952D01*
X157594785Y-53268571D01*
X157642404Y-53363809D01*
X157642404Y-53601904D01*
X157594785Y-53697142D01*
X157547166Y-53744761D01*
X157451928Y-53792380D01*
X157166214Y-53792380D01*
X157070976Y-53744761D01*
X157023357Y-53697142D01*
X158070976Y-53697142D02*
X158118595Y-53744761D01*
X158070976Y-53792380D01*
X158023357Y-53744761D01*
X158070976Y-53697142D01*
X158070976Y-53792380D01*
X158070976Y-53173333D02*
X158118595Y-53220952D01*
X158070976Y-53268571D01*
X158023357Y-53220952D01*
X158070976Y-53173333D01*
X158070976Y-53268571D01*
X159832880Y-52840000D02*
X159737642Y-52792380D01*
X159594785Y-52792380D01*
X159451928Y-52840000D01*
X159356690Y-52935238D01*
X159309071Y-53030476D01*
X159261452Y-53220952D01*
X159261452Y-53363809D01*
X159309071Y-53554285D01*
X159356690Y-53649523D01*
X159451928Y-53744761D01*
X159594785Y-53792380D01*
X159690023Y-53792380D01*
X159832880Y-53744761D01*
X159880500Y-53697142D01*
X159880500Y-53363809D01*
X159690023Y-53363809D01*
X160309071Y-53792380D02*
X160309071Y-52792380D01*
X160880500Y-53792380D01*
X160880500Y-52792380D01*
X161356690Y-53792380D02*
X161356690Y-52792380D01*
X161594785Y-52792380D01*
X161737642Y-52840000D01*
X161832880Y-52935238D01*
X161880500Y-53030476D01*
X161928119Y-53220952D01*
X161928119Y-53363809D01*
X161880500Y-53554285D01*
X161832880Y-53649523D01*
X161737642Y-53744761D01*
X161594785Y-53792380D01*
X161356690Y-53792380D01*
X157070976Y-50347619D02*
X157118595Y-50300000D01*
X157213833Y-50252380D01*
X157451928Y-50252380D01*
X157547166Y-50300000D01*
X157594785Y-50347619D01*
X157642404Y-50442857D01*
X157642404Y-50538095D01*
X157594785Y-50680952D01*
X157023357Y-51252380D01*
X157642404Y-51252380D01*
X158070976Y-51157142D02*
X158118595Y-51204761D01*
X158070976Y-51252380D01*
X158023357Y-51204761D01*
X158070976Y-51157142D01*
X158070976Y-51252380D01*
X158070976Y-50633333D02*
X158118595Y-50680952D01*
X158070976Y-50728571D01*
X158023357Y-50680952D01*
X158070976Y-50633333D01*
X158070976Y-50728571D01*
X159166214Y-50252380D02*
X159499547Y-51252380D01*
X159832880Y-50252380D01*
X160737642Y-51157142D02*
X160690023Y-51204761D01*
X160547166Y-51252380D01*
X160451928Y-51252380D01*
X160309071Y-51204761D01*
X160213833Y-51109523D01*
X160166214Y-51014285D01*
X160118595Y-50823809D01*
X160118595Y-50680952D01*
X160166214Y-50490476D01*
X160213833Y-50395238D01*
X160309071Y-50300000D01*
X160451928Y-50252380D01*
X160547166Y-50252380D01*
X160690023Y-50300000D01*
X160737642Y-50347619D01*
X161737642Y-51157142D02*
X161690023Y-51204761D01*
X161547166Y-51252380D01*
X161451928Y-51252380D01*
X161309071Y-51204761D01*
X161213833Y-51109523D01*
X161166214Y-51014285D01*
X161118595Y-50823809D01*
X161118595Y-50680952D01*
X161166214Y-50490476D01*
X161213833Y-50395238D01*
X161309071Y-50300000D01*
X161451928Y-50252380D01*
X161547166Y-50252380D01*
X161690023Y-50300000D01*
X161737642Y-50347619D01*
D14*
X167640000Y-60960000D02*
X163068000Y-60960000D01*
X167640000Y-58420000D02*
X163068000Y-58420000D01*
D15*
X167640000Y-81280000D02*
X163068000Y-81280000D01*
X167640000Y-78740000D02*
X163068000Y-78740000D01*
X167640000Y-76200000D02*
X163068000Y-76200000D01*
X167640000Y-73660000D02*
X163068000Y-73660000D01*
X167640000Y-71120000D02*
X163068000Y-71120000D01*
X167640000Y-68580000D02*
X163068000Y-68580000D01*
X167640000Y-66040000D02*
X163068000Y-66040000D01*
X167640000Y-63500000D02*
X163068000Y-63500000D01*
X149860000Y-81280000D02*
X156972000Y-81280000D01*
X149860000Y-78740000D02*
X156972000Y-78740000D01*
X149860000Y-76200000D02*
X156972000Y-76200000D01*
X149860000Y-73660000D02*
X156972000Y-73660000D01*
X149860000Y-71120000D02*
X156972000Y-71120000D01*
X149860000Y-68580000D02*
X156972000Y-68580000D01*
X149860000Y-66040000D02*
X156972000Y-66040000D01*
X149860000Y-63500000D02*
X156972000Y-63500000D01*
D14*
X99060000Y-53340000D02*
X154940000Y-53340000D01*
X99060000Y-50800000D02*
X154940000Y-50800000D01*
D16*
G36*
X160805776Y-87510978D02*
G01*
X160813121Y-87514901D01*
X160813313Y-87515734D01*
X160818206Y-87521829D01*
X160820118Y-87522086D01*
X160830893Y-87526897D01*
X160841127Y-87537457D01*
X160845071Y-87547039D01*
X160850208Y-87553074D01*
X160854599Y-87553844D01*
X160863019Y-87558928D01*
X160864126Y-87563371D01*
X160867556Y-87571824D01*
X160870477Y-87572899D01*
X160873428Y-87578937D01*
X160875561Y-87595833D01*
X160876694Y-87621756D01*
X160876829Y-87636415D01*
X160876829Y-87699931D01*
X160860950Y-87699931D01*
X160848179Y-87696618D01*
X160845071Y-87690403D01*
X160841641Y-87681951D01*
X160838720Y-87680876D01*
X160833187Y-87675689D01*
X160832368Y-87670713D01*
X160827710Y-87659511D01*
X160816194Y-87644914D01*
X160801509Y-87630608D01*
X160787340Y-87620281D01*
X160779015Y-87617360D01*
X160772094Y-87620894D01*
X160769149Y-87633174D01*
X160768852Y-87642766D01*
X160770261Y-87658676D01*
X160773780Y-87667525D01*
X160775204Y-87668173D01*
X160779978Y-87673608D01*
X160781555Y-87684052D01*
X160784868Y-87696823D01*
X160791083Y-87699931D01*
X160798489Y-87705015D01*
X160800976Y-87717439D01*
X160798833Y-87732954D01*
X160792350Y-87747313D01*
X160787470Y-87752819D01*
X160780168Y-87758256D01*
X160773677Y-87758933D01*
X160765258Y-87753546D01*
X160752172Y-87740793D01*
X160743743Y-87732000D01*
X160724818Y-87713647D01*
X160710220Y-87703653D01*
X160696869Y-87700059D01*
X160693367Y-87699931D01*
X160680082Y-87701100D01*
X160674633Y-87707186D01*
X160673578Y-87722055D01*
X160673578Y-87722161D01*
X160675174Y-87736855D01*
X160679096Y-87744200D01*
X160679930Y-87744392D01*
X160685678Y-87749486D01*
X160686281Y-87753239D01*
X160691405Y-87763045D01*
X160695809Y-87765743D01*
X160703029Y-87775249D01*
X160705336Y-87795005D01*
X160706977Y-87812148D01*
X160713507Y-87826389D01*
X160727341Y-87842573D01*
X160730743Y-87846017D01*
X160746970Y-87860100D01*
X160761714Y-87869326D01*
X160768852Y-87871423D01*
X160779197Y-87875395D01*
X160781555Y-87880951D01*
X160785751Y-87887575D01*
X160799657Y-87890305D01*
X160806962Y-87890478D01*
X160832368Y-87890478D01*
X160832368Y-87861969D01*
X160835931Y-87836634D01*
X160845623Y-87818029D01*
X160859946Y-87808594D01*
X160865537Y-87807908D01*
X160874632Y-87812540D01*
X160876829Y-87823786D01*
X160880142Y-87836558D01*
X160886356Y-87839665D01*
X160894777Y-87844750D01*
X160895884Y-87849193D01*
X160899553Y-87857642D01*
X160902689Y-87858720D01*
X160913464Y-87863531D01*
X160923697Y-87874091D01*
X160927642Y-87883673D01*
X160930865Y-87890112D01*
X160939624Y-87886334D01*
X160949470Y-87876524D01*
X160956664Y-87864991D01*
X160954057Y-87860115D01*
X160948386Y-87852633D01*
X160946697Y-87842312D01*
X160943288Y-87829938D01*
X160937169Y-87826962D01*
X160930123Y-87822142D01*
X160927659Y-87806756D01*
X160927642Y-87804732D01*
X160928603Y-87789897D01*
X160934068Y-87783763D01*
X160947911Y-87782506D01*
X160950161Y-87782501D01*
X160971263Y-87787199D01*
X160989611Y-87799230D01*
X161001444Y-87815500D01*
X161003861Y-87826674D01*
X161007765Y-87837245D01*
X161013388Y-87839665D01*
X161021074Y-87845149D01*
X161022916Y-87854865D01*
X161026463Y-87868037D01*
X161032443Y-87873720D01*
X161039694Y-87882180D01*
X161041970Y-87893455D01*
X161044120Y-87905486D01*
X161048322Y-87909533D01*
X161051522Y-87915444D01*
X161053753Y-87931444D01*
X161054668Y-87954936D01*
X161054674Y-87957170D01*
X161053885Y-87981173D01*
X161051752Y-87997903D01*
X161048620Y-88004762D01*
X161048322Y-88004807D01*
X161042821Y-88010006D01*
X161041970Y-88015172D01*
X161037613Y-88025372D01*
X161026547Y-88039536D01*
X161019288Y-88046930D01*
X160996605Y-88068323D01*
X160336944Y-88068323D01*
X160336944Y-88038881D01*
X160338755Y-88017346D01*
X160345516Y-88002628D01*
X160352823Y-87994723D01*
X160363740Y-87981780D01*
X160368677Y-87970345D01*
X160368702Y-87969750D01*
X160373057Y-87959563D01*
X160384091Y-87945479D01*
X160390933Y-87938526D01*
X160404117Y-87924019D01*
X160412086Y-87911253D01*
X160413163Y-87906996D01*
X160418148Y-87895805D01*
X160422691Y-87892775D01*
X160431132Y-87884778D01*
X160431944Y-87881404D01*
X160610062Y-87881404D01*
X160613568Y-87901995D01*
X160622690Y-87916748D01*
X160635015Y-87922236D01*
X160641050Y-87927373D01*
X160641820Y-87931763D01*
X160645250Y-87940216D01*
X160648172Y-87941291D01*
X160653807Y-87936146D01*
X160654524Y-87931763D01*
X160659608Y-87923343D01*
X160664051Y-87922236D01*
X160672509Y-87919167D01*
X160673578Y-87916564D01*
X160668524Y-87909621D01*
X160664051Y-87907236D01*
X160656205Y-87898620D01*
X160654524Y-87890678D01*
X160650162Y-87879955D01*
X160641621Y-87877775D01*
X160629408Y-87873636D01*
X160625062Y-87868248D01*
X160619044Y-87859183D01*
X160613652Y-87861451D01*
X160610414Y-87873716D01*
X160610062Y-87881404D01*
X160431944Y-87881404D01*
X160432218Y-87880271D01*
X160435875Y-87872264D01*
X160438570Y-87871423D01*
X160443703Y-87866095D01*
X160444921Y-87858521D01*
X160449060Y-87846307D01*
X160454448Y-87841962D01*
X160462384Y-87833324D01*
X160463976Y-87825829D01*
X160468356Y-87811259D01*
X160478619Y-87799323D01*
X160488929Y-87795204D01*
X160494043Y-87789772D01*
X160495734Y-87779325D01*
X160497908Y-87767389D01*
X160502085Y-87763446D01*
X160506860Y-87758011D01*
X160508437Y-87747567D01*
X160511750Y-87734796D01*
X160517964Y-87731688D01*
X160526385Y-87726604D01*
X160527492Y-87722161D01*
X160530921Y-87713709D01*
X160533843Y-87712634D01*
X160539398Y-87707456D01*
X160540195Y-87702611D01*
X160544571Y-87694816D01*
X160556421Y-87680384D01*
X160573824Y-87661230D01*
X160594862Y-87639270D01*
X160617613Y-87616420D01*
X160640159Y-87594596D01*
X160660581Y-87575712D01*
X160676957Y-87561685D01*
X160687370Y-87554429D01*
X160689280Y-87553844D01*
X160698482Y-87548702D01*
X160701558Y-87543596D01*
X160710093Y-87536206D01*
X160718505Y-87536751D01*
X160730916Y-87535881D01*
X160734986Y-87531120D01*
X160743329Y-87524105D01*
X160753653Y-87522086D01*
X160765260Y-87519824D01*
X160768852Y-87515734D01*
X160774436Y-87511536D01*
X160788165Y-87509438D01*
X160791083Y-87509383D01*
X160805776Y-87510978D01*
G37*
X160805776Y-87510978D02*
X160813121Y-87514901D01*
X160813313Y-87515734D01*
X160818206Y-87521829D01*
X160820118Y-87522086D01*
X160830893Y-87526897D01*
X160841127Y-87537457D01*
X160845071Y-87547039D01*
X160850208Y-87553074D01*
X160854599Y-87553844D01*
X160863019Y-87558928D01*
X160864126Y-87563371D01*
X160867556Y-87571824D01*
X160870477Y-87572899D01*
X160873428Y-87578937D01*
X160875561Y-87595833D01*
X160876694Y-87621756D01*
X160876829Y-87636415D01*
X160876829Y-87699931D01*
X160860950Y-87699931D01*
X160848179Y-87696618D01*
X160845071Y-87690403D01*
X160841641Y-87681951D01*
X160838720Y-87680876D01*
X160833187Y-87675689D01*
X160832368Y-87670713D01*
X160827710Y-87659511D01*
X160816194Y-87644914D01*
X160801509Y-87630608D01*
X160787340Y-87620281D01*
X160779015Y-87617360D01*
X160772094Y-87620894D01*
X160769149Y-87633174D01*
X160768852Y-87642766D01*
X160770261Y-87658676D01*
X160773780Y-87667525D01*
X160775204Y-87668173D01*
X160779978Y-87673608D01*
X160781555Y-87684052D01*
X160784868Y-87696823D01*
X160791083Y-87699931D01*
X160798489Y-87705015D01*
X160800976Y-87717439D01*
X160798833Y-87732954D01*
X160792350Y-87747313D01*
X160787470Y-87752819D01*
X160780168Y-87758256D01*
X160773677Y-87758933D01*
X160765258Y-87753546D01*
X160752172Y-87740793D01*
X160743743Y-87732000D01*
X160724818Y-87713647D01*
X160710220Y-87703653D01*
X160696869Y-87700059D01*
X160693367Y-87699931D01*
X160680082Y-87701100D01*
X160674633Y-87707186D01*
X160673578Y-87722055D01*
X160673578Y-87722161D01*
X160675174Y-87736855D01*
X160679096Y-87744200D01*
X160679930Y-87744392D01*
X160685678Y-87749486D01*
X160686281Y-87753239D01*
X160691405Y-87763045D01*
X160695809Y-87765743D01*
X160703029Y-87775249D01*
X160705336Y-87795005D01*
X160706977Y-87812148D01*
X160713507Y-87826389D01*
X160727341Y-87842573D01*
X160730743Y-87846017D01*
X160746970Y-87860100D01*
X160761714Y-87869326D01*
X160768852Y-87871423D01*
X160779197Y-87875395D01*
X160781555Y-87880951D01*
X160785751Y-87887575D01*
X160799657Y-87890305D01*
X160806962Y-87890478D01*
X160832368Y-87890478D01*
X160832368Y-87861969D01*
X160835931Y-87836634D01*
X160845623Y-87818029D01*
X160859946Y-87808594D01*
X160865537Y-87807908D01*
X160874632Y-87812540D01*
X160876829Y-87823786D01*
X160880142Y-87836558D01*
X160886356Y-87839665D01*
X160894777Y-87844750D01*
X160895884Y-87849193D01*
X160899553Y-87857642D01*
X160902689Y-87858720D01*
X160913464Y-87863531D01*
X160923697Y-87874091D01*
X160927642Y-87883673D01*
X160930865Y-87890112D01*
X160939624Y-87886334D01*
X160949470Y-87876524D01*
X160956664Y-87864991D01*
X160954057Y-87860115D01*
X160948386Y-87852633D01*
X160946697Y-87842312D01*
X160943288Y-87829938D01*
X160937169Y-87826962D01*
X160930123Y-87822142D01*
X160927659Y-87806756D01*
X160927642Y-87804732D01*
X160928603Y-87789897D01*
X160934068Y-87783763D01*
X160947911Y-87782506D01*
X160950161Y-87782501D01*
X160971263Y-87787199D01*
X160989611Y-87799230D01*
X161001444Y-87815500D01*
X161003861Y-87826674D01*
X161007765Y-87837245D01*
X161013388Y-87839665D01*
X161021074Y-87845149D01*
X161022916Y-87854865D01*
X161026463Y-87868037D01*
X161032443Y-87873720D01*
X161039694Y-87882180D01*
X161041970Y-87893455D01*
X161044120Y-87905486D01*
X161048322Y-87909533D01*
X161051522Y-87915444D01*
X161053753Y-87931444D01*
X161054668Y-87954936D01*
X161054674Y-87957170D01*
X161053885Y-87981173D01*
X161051752Y-87997903D01*
X161048620Y-88004762D01*
X161048322Y-88004807D01*
X161042821Y-88010006D01*
X161041970Y-88015172D01*
X161037613Y-88025372D01*
X161026547Y-88039536D01*
X161019288Y-88046930D01*
X160996605Y-88068323D01*
X160336944Y-88068323D01*
X160336944Y-88038881D01*
X160338755Y-88017346D01*
X160345516Y-88002628D01*
X160352823Y-87994723D01*
X160363740Y-87981780D01*
X160368677Y-87970345D01*
X160368702Y-87969750D01*
X160373057Y-87959563D01*
X160384091Y-87945479D01*
X160390933Y-87938526D01*
X160404117Y-87924019D01*
X160412086Y-87911253D01*
X160413163Y-87906996D01*
X160418148Y-87895805D01*
X160422691Y-87892775D01*
X160431132Y-87884778D01*
X160431944Y-87881404D01*
X160610062Y-87881404D01*
X160613568Y-87901995D01*
X160622690Y-87916748D01*
X160635015Y-87922236D01*
X160641050Y-87927373D01*
X160641820Y-87931763D01*
X160645250Y-87940216D01*
X160648172Y-87941291D01*
X160653807Y-87936146D01*
X160654524Y-87931763D01*
X160659608Y-87923343D01*
X160664051Y-87922236D01*
X160672509Y-87919167D01*
X160673578Y-87916564D01*
X160668524Y-87909621D01*
X160664051Y-87907236D01*
X160656205Y-87898620D01*
X160654524Y-87890678D01*
X160650162Y-87879955D01*
X160641621Y-87877775D01*
X160629408Y-87873636D01*
X160625062Y-87868248D01*
X160619044Y-87859183D01*
X160613652Y-87861451D01*
X160610414Y-87873716D01*
X160610062Y-87881404D01*
X160431944Y-87881404D01*
X160432218Y-87880271D01*
X160435875Y-87872264D01*
X160438570Y-87871423D01*
X160443703Y-87866095D01*
X160444921Y-87858521D01*
X160449060Y-87846307D01*
X160454448Y-87841962D01*
X160462384Y-87833324D01*
X160463976Y-87825829D01*
X160468356Y-87811259D01*
X160478619Y-87799323D01*
X160488929Y-87795204D01*
X160494043Y-87789772D01*
X160495734Y-87779325D01*
X160497908Y-87767389D01*
X160502085Y-87763446D01*
X160506860Y-87758011D01*
X160508437Y-87747567D01*
X160511750Y-87734796D01*
X160517964Y-87731688D01*
X160526385Y-87726604D01*
X160527492Y-87722161D01*
X160530921Y-87713709D01*
X160533843Y-87712634D01*
X160539398Y-87707456D01*
X160540195Y-87702611D01*
X160544571Y-87694816D01*
X160556421Y-87680384D01*
X160573824Y-87661230D01*
X160594862Y-87639270D01*
X160617613Y-87616420D01*
X160640159Y-87594596D01*
X160660581Y-87575712D01*
X160676957Y-87561685D01*
X160687370Y-87554429D01*
X160689280Y-87553844D01*
X160698482Y-87548702D01*
X160701558Y-87543596D01*
X160710093Y-87536206D01*
X160718505Y-87536751D01*
X160730916Y-87535881D01*
X160734986Y-87531120D01*
X160743329Y-87524105D01*
X160753653Y-87522086D01*
X160765260Y-87519824D01*
X160768852Y-87515734D01*
X160774436Y-87511536D01*
X160788165Y-87509438D01*
X160791083Y-87509383D01*
X160805776Y-87510978D01*
G36*
X160959400Y-86439594D02*
G01*
X160955249Y-86462695D01*
X160942730Y-86476263D01*
X160923158Y-86480426D01*
X160903468Y-86486304D01*
X160887909Y-86499976D01*
X160874583Y-86512769D01*
X160861149Y-86517693D01*
X160844098Y-86517602D01*
X160824608Y-86518065D01*
X160815206Y-86522661D01*
X160814848Y-86523458D01*
X160807250Y-86529455D01*
X160796905Y-86531238D01*
X160785227Y-86533639D01*
X160781555Y-86538044D01*
X160775739Y-86550990D01*
X160759509Y-86559614D01*
X160734696Y-86562982D01*
X160732724Y-86562996D01*
X160712347Y-86561755D01*
X160700279Y-86557026D01*
X160693296Y-86548994D01*
X160688250Y-86537363D01*
X160691768Y-86532585D01*
X160697764Y-86525079D01*
X160698985Y-86517807D01*
X160703289Y-86505821D01*
X160708512Y-86501777D01*
X160716953Y-86493780D01*
X160718039Y-86489273D01*
X160721951Y-86481271D01*
X160724845Y-86480426D01*
X160735620Y-86475615D01*
X160745853Y-86465055D01*
X160749797Y-86455473D01*
X160754935Y-86449438D01*
X160759325Y-86448668D01*
X160767777Y-86445238D01*
X160768852Y-86442316D01*
X160774436Y-86438118D01*
X160788165Y-86436019D01*
X160791083Y-86435965D01*
X160807525Y-86433899D01*
X160813273Y-86427305D01*
X160813313Y-86426437D01*
X160815265Y-86422253D01*
X160822437Y-86419468D01*
X160836808Y-86417822D01*
X160860356Y-86417059D01*
X160886356Y-86416910D01*
X160959400Y-86416910D01*
X160959400Y-86439594D01*
G37*
X160959400Y-86439594D02*
X160955249Y-86462695D01*
X160942730Y-86476263D01*
X160923158Y-86480426D01*
X160903468Y-86486304D01*
X160887909Y-86499976D01*
X160874583Y-86512769D01*
X160861149Y-86517693D01*
X160844098Y-86517602D01*
X160824608Y-86518065D01*
X160815206Y-86522661D01*
X160814848Y-86523458D01*
X160807250Y-86529455D01*
X160796905Y-86531238D01*
X160785227Y-86533639D01*
X160781555Y-86538044D01*
X160775739Y-86550990D01*
X160759509Y-86559614D01*
X160734696Y-86562982D01*
X160732724Y-86562996D01*
X160712347Y-86561755D01*
X160700279Y-86557026D01*
X160693296Y-86548994D01*
X160688250Y-86537363D01*
X160691768Y-86532585D01*
X160697764Y-86525079D01*
X160698985Y-86517807D01*
X160703289Y-86505821D01*
X160708512Y-86501777D01*
X160716953Y-86493780D01*
X160718039Y-86489273D01*
X160721951Y-86481271D01*
X160724845Y-86480426D01*
X160735620Y-86475615D01*
X160745853Y-86465055D01*
X160749797Y-86455473D01*
X160754935Y-86449438D01*
X160759325Y-86448668D01*
X160767777Y-86445238D01*
X160768852Y-86442316D01*
X160774436Y-86438118D01*
X160788165Y-86436019D01*
X160791083Y-86435965D01*
X160807525Y-86433899D01*
X160813273Y-86427305D01*
X160813313Y-86426437D01*
X160815265Y-86422253D01*
X160822437Y-86419468D01*
X160836808Y-86417822D01*
X160860356Y-86417059D01*
X160886356Y-86416910D01*
X160959400Y-86416910D01*
X160959400Y-86439594D01*
G36*
X161893836Y-85108810D02*
G01*
X161929191Y-85109763D01*
X161953897Y-85111302D01*
X161967162Y-85113383D01*
X161969302Y-85114834D01*
X161975076Y-85118232D01*
X161990110Y-85120530D01*
X162006732Y-85121186D01*
X162030182Y-85122246D01*
X162043290Y-85125769D01*
X162047818Y-85130713D01*
X162051242Y-85134475D01*
X162059367Y-85137132D01*
X162074006Y-85138857D01*
X162096976Y-85139825D01*
X162130088Y-85140211D01*
X162146947Y-85140241D01*
X162185827Y-85140651D01*
X162215404Y-85141833D01*
X162234594Y-85143716D01*
X162242316Y-85146227D01*
X162242420Y-85146592D01*
X162248004Y-85150790D01*
X162261734Y-85152889D01*
X162264651Y-85152944D01*
X162281093Y-85155010D01*
X162286841Y-85161603D01*
X162286882Y-85162471D01*
X162291077Y-85169096D01*
X162304984Y-85171826D01*
X162312288Y-85171999D01*
X162329954Y-85173572D01*
X162337233Y-85178787D01*
X162337694Y-85181526D01*
X162339793Y-85185969D01*
X162347483Y-85188821D01*
X162362853Y-85190396D01*
X162387992Y-85191008D01*
X162401210Y-85191053D01*
X162430717Y-85191657D01*
X162452049Y-85193347D01*
X162463378Y-85195939D01*
X162464726Y-85197405D01*
X162470162Y-85202180D01*
X162480605Y-85203756D01*
X162493376Y-85207069D01*
X162496484Y-85213284D01*
X162500679Y-85219909D01*
X162514586Y-85222638D01*
X162521890Y-85222811D01*
X162537800Y-85224220D01*
X162546649Y-85227739D01*
X162547297Y-85229163D01*
X162553208Y-85232363D01*
X162569208Y-85234594D01*
X162592700Y-85235508D01*
X162594934Y-85235514D01*
X162618937Y-85236303D01*
X162635667Y-85238436D01*
X162642526Y-85241568D01*
X162642571Y-85241866D01*
X162647899Y-85247000D01*
X162655473Y-85248218D01*
X162667687Y-85252356D01*
X162672032Y-85257745D01*
X162677321Y-85262969D01*
X162689760Y-85265971D01*
X162711670Y-85267187D01*
X162722645Y-85267272D01*
X162746395Y-85268071D01*
X162762919Y-85270228D01*
X162769574Y-85273387D01*
X162769602Y-85273624D01*
X162774931Y-85278758D01*
X162782505Y-85279976D01*
X162794718Y-85284114D01*
X162799063Y-85289503D01*
X162807590Y-85297002D01*
X162817389Y-85299030D01*
X162829826Y-85301865D01*
X162834544Y-85306485D01*
X162842634Y-85310912D01*
X162862885Y-85312633D01*
X162879566Y-85312398D01*
X162903563Y-85312170D01*
X162917665Y-85313979D01*
X162924583Y-85318318D01*
X162925927Y-85320822D01*
X162933834Y-85329534D01*
X162938599Y-85330788D01*
X162946426Y-85335887D01*
X162947447Y-85340316D01*
X162952267Y-85347362D01*
X162967653Y-85349826D01*
X162969677Y-85349843D01*
X162984371Y-85351438D01*
X162991716Y-85355361D01*
X162991908Y-85356195D01*
X162997678Y-85359596D01*
X163012687Y-85361896D01*
X163029128Y-85362546D01*
X163051206Y-85363287D01*
X163064785Y-85366407D01*
X163074025Y-85373249D01*
X163078272Y-85378425D01*
X163091387Y-85390205D01*
X163109671Y-85394217D01*
X163114096Y-85394304D01*
X163131188Y-85396085D01*
X163137779Y-85401894D01*
X163137994Y-85403832D01*
X163143516Y-85411494D01*
X163153873Y-85413359D01*
X163165810Y-85415533D01*
X163169752Y-85419710D01*
X163175188Y-85424485D01*
X163185631Y-85426062D01*
X163198402Y-85429375D01*
X163201510Y-85435589D01*
X163205706Y-85442214D01*
X163219612Y-85444944D01*
X163226917Y-85445117D01*
X163242826Y-85446526D01*
X163251675Y-85450045D01*
X163252323Y-85451468D01*
X163257643Y-85456629D01*
X163265026Y-85457820D01*
X163275372Y-85461791D01*
X163277729Y-85467347D01*
X163283251Y-85475010D01*
X163293608Y-85476875D01*
X163305545Y-85479049D01*
X163309487Y-85483226D01*
X163315042Y-85487580D01*
X163328573Y-85489661D01*
X163330130Y-85489688D01*
X163353488Y-85495853D01*
X163365730Y-85505567D01*
X163385916Y-85518862D01*
X163402252Y-85521336D01*
X163418428Y-85523536D01*
X163423808Y-85530486D01*
X163423816Y-85530863D01*
X163429337Y-85538526D01*
X163439695Y-85540391D01*
X163451631Y-85542565D01*
X163455574Y-85546742D01*
X163460718Y-85552377D01*
X163465101Y-85553094D01*
X163473522Y-85558178D01*
X163474629Y-85562621D01*
X163479449Y-85569668D01*
X163494834Y-85572131D01*
X163496859Y-85572149D01*
X163511553Y-85573744D01*
X163518898Y-85577667D01*
X163519090Y-85578500D01*
X163524422Y-85583620D01*
X163532096Y-85584852D01*
X163545228Y-85589302D01*
X163559203Y-85600078D01*
X163559819Y-85600731D01*
X163579969Y-85614227D01*
X163594449Y-85616610D01*
X163609947Y-85619204D01*
X163614363Y-85626137D01*
X163619448Y-85634558D01*
X163623891Y-85635664D01*
X163632343Y-85639094D01*
X163633418Y-85642016D01*
X163638670Y-85647376D01*
X163644710Y-85648368D01*
X163660254Y-85654175D01*
X163671669Y-85669971D01*
X163677458Y-85693316D01*
X163677879Y-85702429D01*
X163679132Y-85721241D01*
X163683391Y-85729794D01*
X163687407Y-85730938D01*
X163695827Y-85736023D01*
X163696934Y-85740466D01*
X163700364Y-85748918D01*
X163703286Y-85749993D01*
X163707484Y-85755577D01*
X163709582Y-85769306D01*
X163709637Y-85772224D01*
X163711703Y-85788666D01*
X163718297Y-85794414D01*
X163719165Y-85794454D01*
X163723813Y-85796682D01*
X163726708Y-85804812D01*
X163728212Y-85821016D01*
X163728687Y-85847464D01*
X163728692Y-85851618D01*
X163729063Y-85879507D01*
X163730418Y-85896878D01*
X163733119Y-85905903D01*
X163737527Y-85908753D01*
X163738219Y-85908783D01*
X163745882Y-85914304D01*
X163747747Y-85924662D01*
X163749921Y-85936598D01*
X163754098Y-85940541D01*
X163756094Y-85946820D01*
X163757733Y-85965377D01*
X163758999Y-85995790D01*
X163759879Y-86037640D01*
X163760359Y-86090505D01*
X163760450Y-86131088D01*
X163760241Y-86190971D01*
X163759622Y-86240115D01*
X163758608Y-86278099D01*
X163757213Y-86304504D01*
X163755451Y-86318908D01*
X163754098Y-86321636D01*
X163749345Y-86327078D01*
X163747747Y-86337714D01*
X163744383Y-86351241D01*
X163738219Y-86357449D01*
X163733275Y-86362311D01*
X163730305Y-86373768D01*
X163728922Y-86394095D01*
X163728692Y-86413734D01*
X163728155Y-86441252D01*
X163726288Y-86458379D01*
X163722704Y-86467392D01*
X163719165Y-86470019D01*
X163711959Y-86479209D01*
X163709637Y-86496105D01*
X163708055Y-86510878D01*
X163704161Y-86518322D01*
X163703286Y-86518535D01*
X163699035Y-86524106D01*
X163696971Y-86537752D01*
X163696934Y-86540086D01*
X163694138Y-86557434D01*
X163687407Y-86565293D01*
X163679561Y-86573909D01*
X163677879Y-86581852D01*
X163675256Y-86592281D01*
X163671528Y-86594754D01*
X163665893Y-86599899D01*
X163665176Y-86604282D01*
X163660092Y-86612702D01*
X163655649Y-86613809D01*
X163647228Y-86608725D01*
X163646121Y-86604282D01*
X163642692Y-86595829D01*
X163639770Y-86594754D01*
X163636569Y-86588843D01*
X163634339Y-86572843D01*
X163633424Y-86549351D01*
X163633418Y-86547117D01*
X163632919Y-86521990D01*
X163631116Y-86507241D01*
X163627548Y-86500572D01*
X163623891Y-86499480D01*
X163615470Y-86494396D01*
X163614363Y-86489953D01*
X163610934Y-86481501D01*
X163608012Y-86480426D01*
X163602377Y-86485570D01*
X163601660Y-86489953D01*
X163596576Y-86498374D01*
X163592133Y-86499480D01*
X163586141Y-86502880D01*
X163583215Y-86514651D01*
X163582606Y-86531238D01*
X163581463Y-86549354D01*
X163578542Y-86560853D01*
X163576254Y-86562996D01*
X163571403Y-86568410D01*
X163569902Y-86578196D01*
X163566355Y-86591368D01*
X163560375Y-86597051D01*
X163554582Y-86603330D01*
X163551582Y-86618013D01*
X163550848Y-86639016D01*
X163549888Y-86659397D01*
X163547378Y-86673223D01*
X163544496Y-86677325D01*
X163539721Y-86682760D01*
X163538144Y-86693204D01*
X163534832Y-86705975D01*
X163528617Y-86709083D01*
X163520954Y-86714604D01*
X163519090Y-86724962D01*
X163516915Y-86736898D01*
X163512738Y-86740841D01*
X163509115Y-86746553D01*
X163506815Y-86761159D01*
X163506386Y-86772599D01*
X163505367Y-86792570D01*
X163501835Y-86802324D01*
X163496859Y-86804357D01*
X163489196Y-86809878D01*
X163487332Y-86820236D01*
X163485157Y-86832172D01*
X163480980Y-86836115D01*
X163476205Y-86841550D01*
X163474629Y-86851994D01*
X163471316Y-86864765D01*
X163465101Y-86867873D01*
X163458120Y-86872591D01*
X163455606Y-86887747D01*
X163455574Y-86890557D01*
X163452068Y-86911147D01*
X163442946Y-86925900D01*
X163430621Y-86931388D01*
X163426554Y-86937191D01*
X163424167Y-86952485D01*
X163423816Y-86963146D01*
X163422673Y-86981262D01*
X163419752Y-86992761D01*
X163417464Y-86994904D01*
X163412690Y-87000340D01*
X163411113Y-87010783D01*
X163407800Y-87023554D01*
X163401585Y-87026662D01*
X163393165Y-87031746D01*
X163392058Y-87036190D01*
X163388628Y-87044642D01*
X163385706Y-87045717D01*
X163381264Y-87051241D01*
X163379356Y-87064569D01*
X163379355Y-87064971D01*
X163376375Y-87080549D01*
X163369827Y-87087881D01*
X163361386Y-87095878D01*
X163360300Y-87100385D01*
X163355201Y-87108212D01*
X163350773Y-87109233D01*
X163343110Y-87114754D01*
X163341245Y-87125112D01*
X163339071Y-87137048D01*
X163334894Y-87140991D01*
X163330643Y-87146562D01*
X163328579Y-87160207D01*
X163328542Y-87162542D01*
X163325746Y-87179890D01*
X163319015Y-87187749D01*
X163311764Y-87196208D01*
X163309487Y-87207483D01*
X163307338Y-87219515D01*
X163303136Y-87223561D01*
X163297975Y-87228881D01*
X163296784Y-87236265D01*
X163292813Y-87246610D01*
X163287257Y-87248968D01*
X163278941Y-87254086D01*
X163277729Y-87258937D01*
X163272985Y-87266478D01*
X163263438Y-87266876D01*
X163257231Y-87265361D01*
X163253062Y-87261416D01*
X163250439Y-87252796D01*
X163248870Y-87237254D01*
X163247864Y-87212543D01*
X163247351Y-87193391D01*
X163246360Y-87162159D01*
X163245004Y-87141514D01*
X163242902Y-87129340D01*
X163239671Y-87123522D01*
X163234932Y-87121943D01*
X163234472Y-87121936D01*
X163220739Y-87127352D01*
X163208480Y-87140414D01*
X163201818Y-87156346D01*
X163201510Y-87160118D01*
X163197522Y-87170406D01*
X163191983Y-87172749D01*
X163184320Y-87178270D01*
X163182455Y-87188628D01*
X163180281Y-87200564D01*
X163176104Y-87204507D01*
X163171854Y-87210078D01*
X163169790Y-87223723D01*
X163169752Y-87226058D01*
X163166956Y-87243406D01*
X163160225Y-87251265D01*
X163153019Y-87260454D01*
X163150698Y-87277351D01*
X163149115Y-87292123D01*
X163145221Y-87299567D01*
X163144346Y-87299780D01*
X163139571Y-87305216D01*
X163137994Y-87315659D01*
X163134682Y-87328431D01*
X163128467Y-87331538D01*
X163121842Y-87335734D01*
X163119113Y-87349641D01*
X163118940Y-87356945D01*
X163117531Y-87372854D01*
X163114012Y-87381703D01*
X163112588Y-87382351D01*
X163107454Y-87387680D01*
X163106236Y-87395254D01*
X163102098Y-87407467D01*
X163096709Y-87411812D01*
X163089306Y-87420313D01*
X163087182Y-87430668D01*
X163084919Y-87442275D01*
X163080830Y-87445867D01*
X163076632Y-87451451D01*
X163074533Y-87465180D01*
X163074478Y-87468098D01*
X163072412Y-87484540D01*
X163065819Y-87490288D01*
X163064951Y-87490328D01*
X163056530Y-87495412D01*
X163055424Y-87499856D01*
X163051994Y-87508308D01*
X163049072Y-87509383D01*
X163044630Y-87514907D01*
X163042722Y-87528235D01*
X163042721Y-87528637D01*
X163039741Y-87544215D01*
X163033193Y-87551547D01*
X163025226Y-87560193D01*
X163023666Y-87567530D01*
X163019234Y-87580158D01*
X163008498Y-87593902D01*
X163007787Y-87594573D01*
X162994290Y-87614724D01*
X162991908Y-87629204D01*
X162990141Y-87642950D01*
X162985859Y-87649095D01*
X162985556Y-87649118D01*
X162979921Y-87654262D01*
X162979205Y-87658645D01*
X162974120Y-87667066D01*
X162969677Y-87668173D01*
X162962015Y-87673694D01*
X162960150Y-87684052D01*
X162957976Y-87695988D01*
X162953798Y-87699931D01*
X162949024Y-87705366D01*
X162947447Y-87715810D01*
X162944134Y-87728581D01*
X162937919Y-87731688D01*
X162930257Y-87737210D01*
X162928392Y-87747567D01*
X162926218Y-87759504D01*
X162922040Y-87763446D01*
X162917266Y-87768882D01*
X162915689Y-87779325D01*
X162913539Y-87791262D01*
X162909410Y-87795204D01*
X162897625Y-87800166D01*
X162885586Y-87811659D01*
X162878177Y-87824596D01*
X162877579Y-87828374D01*
X162874625Y-87837903D01*
X162871228Y-87839665D01*
X162866195Y-87845026D01*
X162864876Y-87853352D01*
X162860362Y-87865558D01*
X162848642Y-87881603D01*
X162839470Y-87891207D01*
X162825234Y-87906990D01*
X162816014Y-87921511D01*
X162814063Y-87928333D01*
X162811450Y-87938792D01*
X162807712Y-87941291D01*
X162802937Y-87946726D01*
X162801360Y-87957170D01*
X162799032Y-87969104D01*
X162794555Y-87973049D01*
X162783012Y-87978253D01*
X162773092Y-87990136D01*
X162769602Y-88001481D01*
X162765227Y-88012606D01*
X162754607Y-88025646D01*
X162753723Y-88026481D01*
X162742711Y-88040501D01*
X162737856Y-88054232D01*
X162737844Y-88054760D01*
X162734070Y-88065775D01*
X162728317Y-88068323D01*
X162720604Y-88073755D01*
X162718790Y-88082694D01*
X162713950Y-88096643D01*
X162702911Y-88108990D01*
X162691599Y-88121028D01*
X162687032Y-88132728D01*
X162684194Y-88142556D01*
X162680680Y-88144542D01*
X162675045Y-88149686D01*
X162674328Y-88154069D01*
X162669244Y-88162490D01*
X162664801Y-88163596D01*
X162657088Y-88169028D01*
X162655274Y-88177968D01*
X162650434Y-88191917D01*
X162639395Y-88204264D01*
X162628071Y-88216456D01*
X162623516Y-88228456D01*
X162619117Y-88242893D01*
X162608836Y-88254768D01*
X162598563Y-88258870D01*
X162593153Y-88264221D01*
X162591758Y-88272411D01*
X162587337Y-88284661D01*
X162576152Y-88300053D01*
X162569527Y-88306919D01*
X162556273Y-88322025D01*
X162548319Y-88336121D01*
X162547297Y-88341014D01*
X162543424Y-88351694D01*
X162537769Y-88354144D01*
X162529349Y-88359228D01*
X162528242Y-88363671D01*
X162523158Y-88372092D01*
X162518715Y-88373199D01*
X162510966Y-88378538D01*
X162509187Y-88386356D01*
X162504867Y-88401354D01*
X162494666Y-88413482D01*
X162484235Y-88417660D01*
X162478200Y-88422797D01*
X162477429Y-88427187D01*
X162474000Y-88435640D01*
X162471078Y-88436715D01*
X162466303Y-88442150D01*
X162464726Y-88452594D01*
X162462398Y-88464528D01*
X162457921Y-88468473D01*
X162448165Y-88472554D01*
X162442042Y-88477546D01*
X162434475Y-88488174D01*
X162432968Y-88493425D01*
X162427535Y-88498540D01*
X162417089Y-88500231D01*
X162404318Y-88496918D01*
X162401210Y-88490703D01*
X162397541Y-88482255D01*
X162394405Y-88481176D01*
X162384649Y-88477095D01*
X162378526Y-88472102D01*
X162370959Y-88461475D01*
X162369452Y-88456223D01*
X162364572Y-88449697D01*
X162362647Y-88449418D01*
X162352891Y-88445337D01*
X162346768Y-88440344D01*
X162339202Y-88429717D01*
X162337694Y-88424465D01*
X162332815Y-88417939D01*
X162330889Y-88417660D01*
X162321133Y-88413579D01*
X162315010Y-88408586D01*
X162307444Y-88397959D01*
X162305936Y-88392707D01*
X162300799Y-88386673D01*
X162296409Y-88385902D01*
X162287956Y-88382472D01*
X162286882Y-88379550D01*
X162281446Y-88374776D01*
X162271003Y-88373199D01*
X162259069Y-88370871D01*
X162255124Y-88366394D01*
X162250313Y-88355619D01*
X162239753Y-88345385D01*
X162230171Y-88341441D01*
X162224136Y-88336304D01*
X162223366Y-88331914D01*
X162217994Y-88324175D01*
X162209825Y-88322386D01*
X162197575Y-88317965D01*
X162182183Y-88306780D01*
X162175317Y-88300156D01*
X162161156Y-88287012D01*
X162149155Y-88279034D01*
X162145287Y-88277925D01*
X162135352Y-88273237D01*
X162124298Y-88262046D01*
X162111082Y-88250477D01*
X162097803Y-88246167D01*
X162084889Y-88242475D01*
X162079576Y-88236640D01*
X162071075Y-88229236D01*
X162060721Y-88227112D01*
X162049116Y-88224690D01*
X162045521Y-88220307D01*
X162039784Y-88207724D01*
X162024858Y-88198709D01*
X162004690Y-88195354D01*
X161989818Y-88193677D01*
X161982249Y-88189543D01*
X161982005Y-88188549D01*
X161976268Y-88175966D01*
X161961343Y-88166951D01*
X161941174Y-88163596D01*
X161924553Y-88161615D01*
X161918565Y-88155249D01*
X161918489Y-88154069D01*
X161914294Y-88147444D01*
X161900387Y-88144715D01*
X161893083Y-88144542D01*
X161877174Y-88143133D01*
X161868325Y-88139614D01*
X161867677Y-88138190D01*
X161862093Y-88133992D01*
X161848364Y-88131893D01*
X161845446Y-88131839D01*
X161829004Y-88129773D01*
X161823256Y-88123179D01*
X161823216Y-88122311D01*
X161817694Y-88114648D01*
X161807337Y-88112784D01*
X161798536Y-88111977D01*
X161793785Y-88107567D01*
X161791840Y-88096573D01*
X161791458Y-88076010D01*
X161791458Y-88074674D01*
X161790494Y-88054375D01*
X161787975Y-88040613D01*
X161785106Y-88036565D01*
X161780923Y-88030978D01*
X161778815Y-88017224D01*
X161778755Y-88014135D01*
X161776026Y-87996123D01*
X161769227Y-87988049D01*
X161761824Y-87979548D01*
X161759700Y-87969193D01*
X161756263Y-87956933D01*
X161750172Y-87953994D01*
X161743126Y-87949173D01*
X161740662Y-87933788D01*
X161740645Y-87931763D01*
X161739050Y-87917070D01*
X161735127Y-87909725D01*
X161734293Y-87909533D01*
X161729443Y-87904119D01*
X161727942Y-87894334D01*
X161724394Y-87881161D01*
X161718414Y-87875478D01*
X161711164Y-87867019D01*
X161708887Y-87855744D01*
X161706737Y-87843712D01*
X161702536Y-87839665D01*
X161697761Y-87834230D01*
X161696184Y-87823786D01*
X161693817Y-87811853D01*
X161689266Y-87807908D01*
X161681508Y-87803651D01*
X161668236Y-87792572D01*
X161654569Y-87779325D01*
X161632829Y-87759733D01*
X161616532Y-87751157D01*
X161605899Y-87753625D01*
X161601154Y-87767163D01*
X161600910Y-87772974D01*
X161602505Y-87787668D01*
X161606428Y-87795012D01*
X161607262Y-87795204D01*
X161609534Y-87801441D01*
X161611336Y-87819704D01*
X161612637Y-87849326D01*
X161613404Y-87889639D01*
X161613613Y-87931763D01*
X161613323Y-87980628D01*
X161612474Y-88019371D01*
X161611096Y-88047322D01*
X161609221Y-88063814D01*
X161607262Y-88068323D01*
X161603063Y-88073906D01*
X161600965Y-88087636D01*
X161600910Y-88090553D01*
X161598844Y-88106995D01*
X161592250Y-88112744D01*
X161591383Y-88112784D01*
X161583720Y-88118305D01*
X161581855Y-88128663D01*
X161579681Y-88140599D01*
X161575504Y-88144542D01*
X161571526Y-88150177D01*
X161569314Y-88164253D01*
X161569152Y-88169948D01*
X161567643Y-88185856D01*
X161563873Y-88194706D01*
X161562347Y-88195354D01*
X161550691Y-88200617D01*
X161540833Y-88212732D01*
X161537394Y-88224466D01*
X161533037Y-88234733D01*
X161521843Y-88249361D01*
X161511988Y-88259599D01*
X161497823Y-88274824D01*
X161488600Y-88288095D01*
X161486582Y-88294003D01*
X161481168Y-88308636D01*
X161468460Y-88319655D01*
X161458150Y-88322386D01*
X161447024Y-88326761D01*
X161433984Y-88337381D01*
X161433149Y-88338265D01*
X161419129Y-88349277D01*
X161405399Y-88354133D01*
X161404870Y-88354144D01*
X161393856Y-88357919D01*
X161391308Y-88363671D01*
X161387908Y-88369663D01*
X161376137Y-88372589D01*
X161359550Y-88373199D01*
X161341434Y-88374341D01*
X161329935Y-88377263D01*
X161327792Y-88379550D01*
X161322378Y-88384401D01*
X161312592Y-88385902D01*
X161299420Y-88389450D01*
X161293737Y-88395429D01*
X161289689Y-88399758D01*
X161280125Y-88402599D01*
X161262970Y-88404222D01*
X161236152Y-88404893D01*
X161220014Y-88404957D01*
X161188428Y-88405507D01*
X161165304Y-88407062D01*
X161152262Y-88409473D01*
X161149947Y-88411308D01*
X161143748Y-88413760D01*
X161125740Y-88415659D01*
X161096806Y-88416955D01*
X161057832Y-88417597D01*
X161038795Y-88417660D01*
X160995889Y-88417306D01*
X160962655Y-88416277D01*
X160939976Y-88414623D01*
X160928738Y-88412396D01*
X160927642Y-88411308D01*
X160921527Y-88408557D01*
X160904101Y-88406511D01*
X160876742Y-88405280D01*
X160848247Y-88404957D01*
X160814615Y-88404732D01*
X160791770Y-88403904D01*
X160777801Y-88402245D01*
X160770799Y-88399524D01*
X160768853Y-88395514D01*
X160768852Y-88395429D01*
X160764657Y-88388805D01*
X160750750Y-88386075D01*
X160743446Y-88385902D01*
X160727536Y-88384493D01*
X160718687Y-88380974D01*
X160718039Y-88379550D01*
X160711875Y-88376962D01*
X160694104Y-88374993D01*
X160665815Y-88373717D01*
X160628091Y-88373205D01*
X160622766Y-88373199D01*
X160585477Y-88373026D01*
X160559123Y-88372390D01*
X160541937Y-88371114D01*
X160532155Y-88369021D01*
X160528009Y-88365936D01*
X160527492Y-88363671D01*
X160524736Y-88358327D01*
X160514887Y-88355357D01*
X160495576Y-88354214D01*
X160486206Y-88354144D01*
X160464632Y-88353247D01*
X160449862Y-88350869D01*
X160444921Y-88347793D01*
X160439136Y-88344409D01*
X160424022Y-88342116D01*
X160406812Y-88341441D01*
X160384683Y-88340709D01*
X160372802Y-88338115D01*
X160368777Y-88333061D01*
X160368702Y-88331914D01*
X160367191Y-88328731D01*
X160361660Y-88326329D01*
X160350611Y-88324605D01*
X160332545Y-88323454D01*
X160305965Y-88322770D01*
X160269371Y-88322450D01*
X160232143Y-88322386D01*
X160183278Y-88322096D01*
X160144536Y-88321247D01*
X160116584Y-88319869D01*
X160100092Y-88317994D01*
X160095584Y-88316035D01*
X160089397Y-88313531D01*
X160071474Y-88311605D01*
X160042772Y-88310315D01*
X160004248Y-88309718D01*
X159990783Y-88309683D01*
X159951438Y-88309532D01*
X159923102Y-88308976D01*
X159904083Y-88307861D01*
X159892688Y-88306034D01*
X159887225Y-88303341D01*
X159885981Y-88300156D01*
X159881161Y-88293109D01*
X159865775Y-88290645D01*
X159863751Y-88290628D01*
X159847309Y-88292694D01*
X159841560Y-88299288D01*
X159841520Y-88300156D01*
X159835999Y-88307818D01*
X159825641Y-88309683D01*
X159813705Y-88311857D01*
X159809762Y-88316035D01*
X159804082Y-88319806D01*
X159789693Y-88322082D01*
X159780877Y-88322386D01*
X159759355Y-88324318D01*
X159744515Y-88331477D01*
X159737275Y-88338265D01*
X159723255Y-88349277D01*
X159709525Y-88354133D01*
X159708996Y-88354144D01*
X159697982Y-88357919D01*
X159695434Y-88363671D01*
X159691238Y-88370296D01*
X159677332Y-88373026D01*
X159670027Y-88373199D01*
X159652362Y-88371626D01*
X159645082Y-88366411D01*
X159644621Y-88363671D01*
X159641191Y-88355219D01*
X159638269Y-88354144D01*
X159634071Y-88348561D01*
X159631973Y-88334831D01*
X159631918Y-88331914D01*
X159629852Y-88315471D01*
X159623258Y-88309723D01*
X159622390Y-88309683D01*
X159616320Y-88304199D01*
X159612953Y-88290635D01*
X159612291Y-88273325D01*
X159614331Y-88256599D01*
X159619076Y-88244791D01*
X159622390Y-88242112D01*
X159630326Y-88233474D01*
X159631918Y-88225979D01*
X159637425Y-88208923D01*
X159652910Y-88198359D01*
X159672749Y-88195354D01*
X159689370Y-88193373D01*
X159695358Y-88187007D01*
X159695434Y-88185827D01*
X159700955Y-88178164D01*
X159711313Y-88176300D01*
X159723249Y-88174125D01*
X159727192Y-88169948D01*
X159732627Y-88165173D01*
X159743071Y-88163596D01*
X159755842Y-88160284D01*
X159758950Y-88154069D01*
X159760498Y-88150783D01*
X159766176Y-88148332D01*
X159777532Y-88146603D01*
X159796118Y-88145477D01*
X159823481Y-88144839D01*
X159861171Y-88144572D01*
X159885981Y-88144542D01*
X159932683Y-88144230D01*
X159969415Y-88143321D01*
X159995438Y-88141851D01*
X160010015Y-88139857D01*
X160013013Y-88138190D01*
X160019274Y-88136061D01*
X160037703Y-88134343D01*
X160067774Y-88133055D01*
X160108957Y-88132218D01*
X160160725Y-88131853D01*
X160174979Y-88131839D01*
X160229262Y-88132084D01*
X160273090Y-88132807D01*
X160305935Y-88133986D01*
X160327269Y-88135601D01*
X160336563Y-88137631D01*
X160336944Y-88138190D01*
X160343272Y-88139624D01*
X160362165Y-88140879D01*
X160393484Y-88141953D01*
X160437094Y-88142844D01*
X160492856Y-88143550D01*
X160560632Y-88144069D01*
X160640286Y-88144399D01*
X160731680Y-88144537D01*
X160752973Y-88144542D01*
X160846888Y-88144445D01*
X160929092Y-88144157D01*
X160999448Y-88143678D01*
X161057820Y-88143013D01*
X161104069Y-88142161D01*
X161138057Y-88141127D01*
X161159649Y-88139911D01*
X161168705Y-88138515D01*
X161169002Y-88138190D01*
X161174438Y-88133415D01*
X161184881Y-88131839D01*
X161197652Y-88128526D01*
X161200760Y-88122311D01*
X161203687Y-88116779D01*
X161214062Y-88113809D01*
X161234278Y-88112803D01*
X161238870Y-88112784D01*
X161259169Y-88111820D01*
X161272931Y-88109301D01*
X161276979Y-88106432D01*
X161282415Y-88101658D01*
X161292858Y-88100081D01*
X161304945Y-88097457D01*
X161308670Y-88087128D01*
X161308737Y-88084202D01*
X161312050Y-88071431D01*
X161318264Y-88068323D01*
X161326685Y-88063238D01*
X161327792Y-88058795D01*
X161331221Y-88050343D01*
X161334143Y-88049268D01*
X161339277Y-88043939D01*
X161340495Y-88036365D01*
X161344634Y-88024152D01*
X161350022Y-88019807D01*
X161354573Y-88015483D01*
X161357470Y-88005279D01*
X161359023Y-87987033D01*
X161359542Y-87958586D01*
X161359550Y-87953315D01*
X161359230Y-87923877D01*
X161358057Y-87905034D01*
X161355714Y-87894687D01*
X161351883Y-87890738D01*
X161350022Y-87890478D01*
X161343398Y-87886283D01*
X161340668Y-87872376D01*
X161340495Y-87865072D01*
X161339086Y-87849162D01*
X161335567Y-87840313D01*
X161334143Y-87839665D01*
X161329010Y-87834337D01*
X161327792Y-87826763D01*
X161323653Y-87814549D01*
X161318264Y-87810204D01*
X161312399Y-87803788D01*
X161309407Y-87788799D01*
X161308737Y-87769118D01*
X161308737Y-87731688D01*
X161334143Y-87731688D01*
X161350512Y-87732555D01*
X161357788Y-87736643D01*
X161359541Y-87746185D01*
X161359550Y-87747567D01*
X161362173Y-87759655D01*
X161372502Y-87763379D01*
X161375429Y-87763446D01*
X161387740Y-87766289D01*
X161391304Y-87776529D01*
X161391308Y-87777037D01*
X161396993Y-87792969D01*
X161411595Y-87804188D01*
X161427829Y-87807706D01*
X161438076Y-87805501D01*
X161441828Y-87796072D01*
X161442120Y-87788653D01*
X161439141Y-87773076D01*
X161432593Y-87765743D01*
X161425190Y-87757243D01*
X161423066Y-87746888D01*
X161420803Y-87735280D01*
X161416714Y-87731688D01*
X161411580Y-87726360D01*
X161410362Y-87718786D01*
X161406224Y-87706572D01*
X161400835Y-87702227D01*
X161392394Y-87694230D01*
X161391308Y-87689724D01*
X161387396Y-87681721D01*
X161384502Y-87680876D01*
X161373728Y-87676065D01*
X161363494Y-87665505D01*
X161359550Y-87655923D01*
X161354670Y-87649397D01*
X161352744Y-87649118D01*
X161341970Y-87644307D01*
X161331736Y-87633747D01*
X161327792Y-87624165D01*
X161322912Y-87617639D01*
X161320987Y-87617360D01*
X161310212Y-87612549D01*
X161299978Y-87601989D01*
X161296034Y-87592407D01*
X161291154Y-87585881D01*
X161289229Y-87585602D01*
X161278919Y-87581054D01*
X161268665Y-87571124D01*
X161264276Y-87561723D01*
X161259273Y-87554878D01*
X161248397Y-87547492D01*
X161236793Y-87538584D01*
X161232518Y-87530540D01*
X161228451Y-87522805D01*
X161225713Y-87522086D01*
X161214938Y-87517275D01*
X161204705Y-87506715D01*
X161200760Y-87497133D01*
X161195880Y-87490607D01*
X161193955Y-87490328D01*
X161183180Y-87485517D01*
X161172947Y-87474957D01*
X161169002Y-87465375D01*
X161163569Y-87460261D01*
X161153123Y-87458570D01*
X161141187Y-87456396D01*
X161137244Y-87452219D01*
X161132100Y-87446584D01*
X161127717Y-87445867D01*
X161119296Y-87440783D01*
X161118189Y-87436340D01*
X161112853Y-87428590D01*
X161105060Y-87426812D01*
X161093070Y-87422399D01*
X161077842Y-87411234D01*
X161070964Y-87404582D01*
X161056457Y-87391397D01*
X161043690Y-87383428D01*
X161039433Y-87382351D01*
X161028243Y-87377367D01*
X161025213Y-87372824D01*
X161016679Y-87365296D01*
X161007037Y-87363296D01*
X160994143Y-87359592D01*
X160988861Y-87353769D01*
X160980245Y-87345923D01*
X160972302Y-87344242D01*
X160961873Y-87341619D01*
X160959400Y-87337890D01*
X160953964Y-87333115D01*
X160943521Y-87331538D01*
X160930750Y-87328226D01*
X160927642Y-87322011D01*
X160922120Y-87314348D01*
X160911763Y-87312484D01*
X160899826Y-87310309D01*
X160895884Y-87306132D01*
X160890171Y-87302509D01*
X160875566Y-87300209D01*
X160864126Y-87299780D01*
X160844155Y-87298761D01*
X160834400Y-87295229D01*
X160832368Y-87290253D01*
X160829612Y-87284909D01*
X160819763Y-87281939D01*
X160800452Y-87280795D01*
X160791083Y-87280726D01*
X160767925Y-87281362D01*
X160755054Y-87283635D01*
X160750100Y-87288091D01*
X160749797Y-87290253D01*
X160744977Y-87297300D01*
X160729591Y-87299763D01*
X160727567Y-87299780D01*
X160712873Y-87301376D01*
X160705528Y-87305299D01*
X160705336Y-87306132D01*
X160710170Y-87312299D01*
X160711688Y-87312484D01*
X160717323Y-87317628D01*
X160718039Y-87322011D01*
X160720643Y-87327174D01*
X160730011Y-87330136D01*
X160748475Y-87331393D01*
X160762766Y-87331538D01*
X160789019Y-87332367D01*
X160806134Y-87335341D01*
X160817600Y-87341193D01*
X160820507Y-87343663D01*
X160831481Y-87358388D01*
X160830397Y-87370091D01*
X160817698Y-87378000D01*
X160798965Y-87381111D01*
X160781389Y-87383378D01*
X160770540Y-87386965D01*
X160768852Y-87389051D01*
X160763216Y-87392810D01*
X160749138Y-87394901D01*
X160743446Y-87395054D01*
X160725780Y-87396628D01*
X160718500Y-87401843D01*
X160718039Y-87404582D01*
X160712518Y-87412244D01*
X160702160Y-87414109D01*
X160690224Y-87416283D01*
X160686281Y-87420461D01*
X160680755Y-87424893D01*
X160667411Y-87426810D01*
X160666923Y-87426812D01*
X160644936Y-87432913D01*
X160632849Y-87442691D01*
X160618829Y-87453703D01*
X160605099Y-87458559D01*
X160604570Y-87458570D01*
X160593794Y-87461255D01*
X160591008Y-87465375D01*
X160586196Y-87476150D01*
X160575637Y-87486384D01*
X160566055Y-87490328D01*
X160560020Y-87495465D01*
X160559250Y-87499856D01*
X160556574Y-87508318D01*
X160554314Y-87509383D01*
X160544375Y-87514123D01*
X160531315Y-87525721D01*
X160518714Y-87540241D01*
X160510150Y-87553746D01*
X160508437Y-87559838D01*
X160505843Y-87570352D01*
X160502085Y-87572899D01*
X160497311Y-87578334D01*
X160495734Y-87588778D01*
X160493406Y-87600712D01*
X160488929Y-87604657D01*
X160477057Y-87610032D01*
X160467332Y-87622629D01*
X160463976Y-87635281D01*
X160459705Y-87647312D01*
X160454448Y-87651415D01*
X160446603Y-87660031D01*
X160444921Y-87667973D01*
X160442298Y-87678402D01*
X160438570Y-87680876D01*
X160432935Y-87686020D01*
X160432218Y-87690403D01*
X160428788Y-87698856D01*
X160425866Y-87699931D01*
X160420732Y-87705259D01*
X160419515Y-87712833D01*
X160415376Y-87725047D01*
X160409987Y-87729392D01*
X160402020Y-87738037D01*
X160400460Y-87745374D01*
X160396029Y-87758003D01*
X160385292Y-87771747D01*
X160384581Y-87772418D01*
X160373680Y-87785185D01*
X160368729Y-87796245D01*
X160368702Y-87796841D01*
X160363564Y-87807422D01*
X160359175Y-87810204D01*
X160351329Y-87818820D01*
X160349647Y-87826763D01*
X160347024Y-87837192D01*
X160343296Y-87839665D01*
X160337661Y-87844810D01*
X160336944Y-87849193D01*
X160331860Y-87857614D01*
X160327417Y-87858720D01*
X160319667Y-87864056D01*
X160317889Y-87871838D01*
X160313253Y-87883471D01*
X160301260Y-87899754D01*
X160284790Y-87917810D01*
X160266719Y-87934762D01*
X160249924Y-87947733D01*
X160237283Y-87953844D01*
X160235733Y-87953994D01*
X160225192Y-87956761D01*
X160222616Y-87960799D01*
X160216878Y-87973382D01*
X160201953Y-87982398D01*
X160181784Y-87985752D01*
X160165163Y-87987734D01*
X160159175Y-87994099D01*
X160159100Y-87995279D01*
X160153578Y-88002942D01*
X160143221Y-88004807D01*
X160131284Y-88006981D01*
X160127342Y-88011158D01*
X160121369Y-88014248D01*
X160104935Y-88016438D01*
X160080267Y-88017465D01*
X160073154Y-88017510D01*
X160045225Y-88018019D01*
X160027707Y-88019793D01*
X160018338Y-88023206D01*
X160015310Y-88027037D01*
X160010491Y-88031951D01*
X159999135Y-88034918D01*
X159978974Y-88036316D01*
X159958345Y-88036565D01*
X159932292Y-88037275D01*
X159913872Y-88039227D01*
X159905355Y-88042150D01*
X159905036Y-88042916D01*
X159898831Y-88045343D01*
X159880784Y-88047229D01*
X159851745Y-88048527D01*
X159812567Y-88049190D01*
X159790708Y-88049268D01*
X159747022Y-88048923D01*
X159713072Y-88047921D01*
X159689711Y-88046307D01*
X159677789Y-88044131D01*
X159676379Y-88042916D01*
X159670795Y-88038718D01*
X159657066Y-88036620D01*
X159654148Y-88036565D01*
X159639455Y-88038160D01*
X159632110Y-88042083D01*
X159631918Y-88042916D01*
X159626482Y-88047691D01*
X159616039Y-88049268D01*
X159603268Y-88052581D01*
X159600160Y-88058795D01*
X159594677Y-88066481D01*
X159584960Y-88068323D01*
X159571788Y-88071870D01*
X159566105Y-88077850D01*
X159557489Y-88085696D01*
X159549547Y-88087377D01*
X159539118Y-88090000D01*
X159536644Y-88093729D01*
X159531500Y-88099364D01*
X159527117Y-88100081D01*
X159518664Y-88103510D01*
X159517589Y-88106432D01*
X159513077Y-88112510D01*
X159501760Y-88111810D01*
X159486965Y-88105216D01*
X159473070Y-88094629D01*
X159459751Y-88078605D01*
X159454559Y-88060941D01*
X159454073Y-88049714D01*
X159450857Y-88026876D01*
X159442209Y-88011007D01*
X159429633Y-88004815D01*
X159429121Y-88004807D01*
X159425054Y-87999004D01*
X159422667Y-87983710D01*
X159422315Y-87973049D01*
X159421173Y-87954933D01*
X159418252Y-87943434D01*
X159415964Y-87941291D01*
X159411189Y-87935855D01*
X159409612Y-87925412D01*
X159406299Y-87912641D01*
X159400085Y-87909533D01*
X159392400Y-87904050D01*
X159390558Y-87894334D01*
X159386875Y-87881104D01*
X159380679Y-87875344D01*
X159374473Y-87869226D01*
X159372311Y-87855448D01*
X159372740Y-87841318D01*
X159374679Y-87811083D01*
X159414376Y-87809192D01*
X159436010Y-87808421D01*
X159447886Y-87809429D01*
X159452927Y-87813269D01*
X159454059Y-87820992D01*
X159454073Y-87823483D01*
X159455062Y-87833083D01*
X159460198Y-87837872D01*
X159472733Y-87839508D01*
X159485831Y-87839665D01*
X159503947Y-87838523D01*
X159515446Y-87835602D01*
X159517589Y-87833314D01*
X159522734Y-87827679D01*
X159527117Y-87826962D01*
X159534876Y-87821670D01*
X159536644Y-87814284D01*
X159540968Y-87807206D01*
X159553080Y-87792585D01*
X159571686Y-87771740D01*
X159595494Y-87745995D01*
X159623212Y-87716670D01*
X159653546Y-87685087D01*
X159685204Y-87652567D01*
X159716893Y-87620433D01*
X159747322Y-87590005D01*
X159775197Y-87562605D01*
X159799225Y-87539555D01*
X159818114Y-87522176D01*
X159830572Y-87511790D01*
X159834871Y-87509383D01*
X159839869Y-87503949D01*
X159841520Y-87493504D01*
X159843694Y-87481567D01*
X159847872Y-87477625D01*
X159852920Y-87472270D01*
X159854223Y-87464062D01*
X159858689Y-87450518D01*
X159869496Y-87436355D01*
X159870102Y-87435783D01*
X159883546Y-87415794D01*
X159885981Y-87401510D01*
X159888936Y-87385695D01*
X159895509Y-87378296D01*
X159903195Y-87369721D01*
X159905036Y-87360949D01*
X159909849Y-87347539D01*
X159920915Y-87335332D01*
X159931647Y-87324224D01*
X159936177Y-87309227D01*
X159936794Y-87295715D01*
X159938094Y-87278980D01*
X159941371Y-87269130D01*
X159943146Y-87268023D01*
X159949046Y-87263904D01*
X159947038Y-87254167D01*
X159940424Y-87245338D01*
X159929273Y-87238736D01*
X159916430Y-87236411D01*
X159906973Y-87238754D01*
X159905036Y-87242616D01*
X159899726Y-87247806D01*
X159892552Y-87248968D01*
X159880967Y-87253174D01*
X159866168Y-87263464D01*
X159852181Y-87276348D01*
X159843032Y-87288334D01*
X159841520Y-87293215D01*
X159835929Y-87297519D01*
X159822147Y-87299710D01*
X159818836Y-87299780D01*
X159798245Y-87303287D01*
X159783493Y-87312408D01*
X159778004Y-87324733D01*
X159772371Y-87328994D01*
X159758297Y-87331365D01*
X159752598Y-87331538D01*
X159736689Y-87332947D01*
X159727840Y-87336466D01*
X159727192Y-87337890D01*
X159721605Y-87342073D01*
X159707851Y-87344181D01*
X159704762Y-87344242D01*
X159686750Y-87346970D01*
X159678676Y-87353769D01*
X159670175Y-87361172D01*
X159659820Y-87363296D01*
X159647560Y-87366734D01*
X159644621Y-87372824D01*
X159641221Y-87378815D01*
X159629450Y-87381741D01*
X159612863Y-87382351D01*
X159594747Y-87383494D01*
X159583248Y-87386415D01*
X159581105Y-87388703D01*
X159575777Y-87393837D01*
X159568203Y-87395054D01*
X159555989Y-87399193D01*
X159551644Y-87404582D01*
X159543143Y-87411985D01*
X159532789Y-87414109D01*
X159521181Y-87416372D01*
X159517589Y-87420461D01*
X159512154Y-87425235D01*
X159501710Y-87426812D01*
X159488939Y-87430125D01*
X159485831Y-87436340D01*
X159480399Y-87444052D01*
X159471460Y-87445867D01*
X159457511Y-87450707D01*
X159445164Y-87461746D01*
X159433126Y-87473058D01*
X159421426Y-87477625D01*
X159411598Y-87480463D01*
X159409612Y-87483977D01*
X159404468Y-87489612D01*
X159400085Y-87490328D01*
X159391664Y-87495412D01*
X159390558Y-87499856D01*
X159388330Y-87504504D01*
X159380199Y-87507399D01*
X159363996Y-87508903D01*
X159337547Y-87509378D01*
X159333393Y-87509383D01*
X159304046Y-87508832D01*
X159285861Y-87507039D01*
X159277340Y-87503793D01*
X159276229Y-87501363D01*
X159271570Y-87492203D01*
X159260365Y-87481430D01*
X159260350Y-87481419D01*
X159252326Y-87474318D01*
X159247575Y-87465748D01*
X159245252Y-87452409D01*
X159244512Y-87431000D01*
X159244471Y-87419372D01*
X159245059Y-87392520D01*
X159247095Y-87376030D01*
X159250987Y-87367601D01*
X159253998Y-87365593D01*
X159262440Y-87357596D01*
X159263526Y-87353089D01*
X159267183Y-87345083D01*
X159269877Y-87344242D01*
X159274652Y-87338806D01*
X159276229Y-87328363D01*
X159278557Y-87316429D01*
X159283034Y-87312484D01*
X159293809Y-87307673D01*
X159304042Y-87297113D01*
X159307987Y-87287531D01*
X159312867Y-87281005D01*
X159314792Y-87280726D01*
X159326747Y-87275306D01*
X159336414Y-87262508D01*
X159339745Y-87249421D01*
X159343611Y-87238721D01*
X159349272Y-87236265D01*
X159357721Y-87232595D01*
X159358800Y-87229459D01*
X159363611Y-87218684D01*
X159374171Y-87208451D01*
X159383752Y-87204507D01*
X159389787Y-87199369D01*
X159390558Y-87194979D01*
X159394227Y-87186531D01*
X159397363Y-87185452D01*
X159408138Y-87180641D01*
X159418371Y-87170081D01*
X159422315Y-87160499D01*
X159427195Y-87153973D01*
X159429121Y-87153694D01*
X159439896Y-87148883D01*
X159450129Y-87138323D01*
X159454073Y-87128741D01*
X159458953Y-87122215D01*
X159460879Y-87121936D01*
X159471654Y-87117125D01*
X159481887Y-87106565D01*
X159485831Y-87096983D01*
X159490711Y-87090457D01*
X159492637Y-87090178D01*
X159503411Y-87085367D01*
X159513645Y-87074807D01*
X159517589Y-87065225D01*
X159522469Y-87058699D01*
X159524395Y-87058420D01*
X159535169Y-87053609D01*
X159545403Y-87043049D01*
X159549347Y-87033467D01*
X159554659Y-87027929D01*
X159561974Y-87026662D01*
X159572156Y-87022322D01*
X159588035Y-87010739D01*
X159606765Y-86994066D01*
X159612357Y-86988553D01*
X159632603Y-86969685D01*
X159649996Y-86956392D01*
X159662022Y-86950558D01*
X159663246Y-86950443D01*
X159673928Y-86946572D01*
X159676379Y-86940916D01*
X159680685Y-86932478D01*
X159684399Y-86931388D01*
X159693559Y-86926729D01*
X159704332Y-86915525D01*
X159704343Y-86915509D01*
X159715418Y-86904275D01*
X159725209Y-86899630D01*
X159735355Y-86895292D01*
X159747923Y-86884749D01*
X159748866Y-86883751D01*
X159761761Y-86872839D01*
X159773094Y-86867898D01*
X159773690Y-86867873D01*
X159782481Y-86863617D01*
X159796816Y-86852633D01*
X159813870Y-86837591D01*
X159830822Y-86821164D01*
X159844847Y-86806023D01*
X159853122Y-86794841D01*
X159854223Y-86791655D01*
X159859659Y-86786879D01*
X159870102Y-86785302D01*
X159882039Y-86783128D01*
X159885981Y-86778950D01*
X159891417Y-86774176D01*
X159901860Y-86772599D01*
X159914631Y-86769286D01*
X159917739Y-86763071D01*
X159922824Y-86754651D01*
X159927267Y-86753544D01*
X159935719Y-86750114D01*
X159936794Y-86747192D01*
X159941985Y-86741670D01*
X159947022Y-86740841D01*
X159957303Y-86736279D01*
X159972023Y-86724715D01*
X159988027Y-86709332D01*
X160002161Y-86693312D01*
X160011271Y-86679838D01*
X160013013Y-86674250D01*
X160018156Y-86663381D01*
X160022541Y-86660567D01*
X160031096Y-86653977D01*
X160029890Y-86647548D01*
X160022541Y-86645567D01*
X160014878Y-86640045D01*
X160013013Y-86629688D01*
X160010839Y-86617751D01*
X160006662Y-86613809D01*
X160001027Y-86608664D01*
X160000310Y-86604282D01*
X159994788Y-86596619D01*
X159984431Y-86594754D01*
X159972494Y-86592580D01*
X159968552Y-86588403D01*
X159963407Y-86582768D01*
X159959025Y-86582051D01*
X159950604Y-86576967D01*
X159949497Y-86572524D01*
X159946068Y-86564071D01*
X159943146Y-86562996D01*
X159938371Y-86557561D01*
X159936794Y-86547117D01*
X159934466Y-86535183D01*
X159929989Y-86531238D01*
X159918011Y-86525807D01*
X159908360Y-86512950D01*
X159905036Y-86499735D01*
X159901029Y-86487328D01*
X159895509Y-86482723D01*
X159888105Y-86474222D01*
X159887483Y-86471189D01*
X160190858Y-86471189D01*
X160194151Y-86491552D01*
X160205657Y-86506100D01*
X160206737Y-86506967D01*
X160217967Y-86519148D01*
X160222616Y-86530810D01*
X160227365Y-86542455D01*
X160238494Y-86554087D01*
X160249891Y-86567025D01*
X160254373Y-86580383D01*
X160257975Y-86592017D01*
X160263901Y-86594754D01*
X160272350Y-86598424D01*
X160273428Y-86601560D01*
X160278239Y-86612334D01*
X160288799Y-86622568D01*
X160298381Y-86626512D01*
X160304416Y-86631649D01*
X160305186Y-86636040D01*
X160310708Y-86643702D01*
X160321065Y-86645567D01*
X160333002Y-86647741D01*
X160336944Y-86651919D01*
X160342915Y-86655012D01*
X160359337Y-86657202D01*
X160383974Y-86658227D01*
X160390933Y-86658270D01*
X160417076Y-86658416D01*
X160433032Y-86659346D01*
X160441315Y-86661801D01*
X160444439Y-86666521D01*
X160444921Y-86674149D01*
X160443260Y-86684887D01*
X160435786Y-86689283D01*
X160422691Y-86690028D01*
X160406248Y-86692094D01*
X160400500Y-86698688D01*
X160400460Y-86699555D01*
X160395087Y-86707293D01*
X160386897Y-86709083D01*
X160373353Y-86713549D01*
X160359190Y-86724356D01*
X160358618Y-86724962D01*
X160338764Y-86738359D01*
X160324544Y-86740841D01*
X160311035Y-86742654D01*
X160305192Y-86747032D01*
X160305186Y-86747192D01*
X160300042Y-86752827D01*
X160295659Y-86753544D01*
X160288678Y-86758262D01*
X160286163Y-86773419D01*
X160286131Y-86776228D01*
X160282213Y-86798256D01*
X160271568Y-86812642D01*
X160258003Y-86817060D01*
X160246370Y-86821280D01*
X160235319Y-86829763D01*
X160222616Y-86842466D01*
X160235319Y-86855169D01*
X160248869Y-86864492D01*
X160262233Y-86867576D01*
X160271483Y-86864094D01*
X160273428Y-86858345D01*
X160275527Y-86853902D01*
X160283217Y-86851050D01*
X160298587Y-86849475D01*
X160323726Y-86848863D01*
X160336944Y-86848818D01*
X160365839Y-86848649D01*
X160384335Y-86847832D01*
X160394734Y-86845898D01*
X160399339Y-86842381D01*
X160400452Y-86836811D01*
X160400460Y-86835915D01*
X160396321Y-86823702D01*
X160390933Y-86819357D01*
X160383738Y-86810271D01*
X160381405Y-86794150D01*
X160381405Y-86772599D01*
X160429042Y-86772599D01*
X160453045Y-86773387D01*
X160469775Y-86775520D01*
X160476634Y-86778652D01*
X160476679Y-86778950D01*
X160482471Y-86782325D01*
X160497633Y-86784616D01*
X160515215Y-86785302D01*
X160537472Y-86784684D01*
X160551909Y-86781616D01*
X160563394Y-86774281D01*
X160574717Y-86763071D01*
X160589782Y-86750287D01*
X160604826Y-86742415D01*
X160616787Y-86740468D01*
X160622606Y-86745456D01*
X160622766Y-86747192D01*
X160627910Y-86752827D01*
X160632293Y-86753544D01*
X160640714Y-86758628D01*
X160641820Y-86763071D01*
X160645506Y-86769307D01*
X160658076Y-86772179D01*
X160670856Y-86772599D01*
X160695148Y-86775670D01*
X160711601Y-86784111D01*
X160718021Y-86796761D01*
X160718039Y-86797551D01*
X160723382Y-86802989D01*
X160731376Y-86804357D01*
X160741672Y-86809158D01*
X160759756Y-86823333D01*
X160785232Y-86846538D01*
X160817704Y-86878432D01*
X160822964Y-86883751D01*
X160848555Y-86909488D01*
X160871114Y-86931745D01*
X160889127Y-86949062D01*
X160901082Y-86959983D01*
X160905355Y-86963146D01*
X160913921Y-86967822D01*
X160923083Y-86977960D01*
X160927629Y-86987724D01*
X160927642Y-86988099D01*
X160932522Y-86994625D01*
X160934447Y-86994904D01*
X160945222Y-86999715D01*
X160955455Y-87010275D01*
X160959400Y-87019857D01*
X160964537Y-87025892D01*
X160968927Y-87026662D01*
X160977177Y-87031801D01*
X160978454Y-87036911D01*
X160981566Y-87043862D01*
X160992824Y-87044925D01*
X160998098Y-87044276D01*
X161014745Y-87044656D01*
X161021008Y-87049906D01*
X161029435Y-87055839D01*
X161046727Y-87058393D01*
X161049002Y-87058420D01*
X161066410Y-87060082D01*
X161073387Y-87065552D01*
X161073728Y-87067948D01*
X161075289Y-87071269D01*
X161081017Y-87073735D01*
X161092479Y-87075466D01*
X161111240Y-87076582D01*
X161138867Y-87077205D01*
X161176928Y-87077453D01*
X161197784Y-87077475D01*
X161241370Y-87077341D01*
X161273858Y-87076860D01*
X161296854Y-87075912D01*
X161311959Y-87074378D01*
X161320779Y-87072137D01*
X161324917Y-87069071D01*
X161325495Y-87067948D01*
X161334029Y-87060420D01*
X161343671Y-87058420D01*
X161356632Y-87054554D01*
X161362001Y-87048490D01*
X161368458Y-87042033D01*
X161372573Y-87042739D01*
X161379654Y-87040321D01*
X161393009Y-87030357D01*
X161410339Y-87014677D01*
X161420002Y-87005032D01*
X161438220Y-86986675D01*
X161453132Y-86972408D01*
X161462563Y-86964274D01*
X161464552Y-86963146D01*
X161473551Y-86958139D01*
X161482395Y-86946959D01*
X161486575Y-86935366D01*
X161486582Y-86935002D01*
X161490841Y-86926312D01*
X161502248Y-86911433D01*
X161518745Y-86892930D01*
X161527867Y-86883516D01*
X161548904Y-86861377D01*
X161561726Y-86845018D01*
X161567914Y-86832128D01*
X161569152Y-86823192D01*
X161571012Y-86809908D01*
X161575485Y-86804357D01*
X161575504Y-86804357D01*
X161581139Y-86799212D01*
X161581855Y-86794829D01*
X161586940Y-86786409D01*
X161591383Y-86785302D01*
X161599045Y-86779780D01*
X161600910Y-86769423D01*
X161603084Y-86757486D01*
X161607262Y-86753544D01*
X161610212Y-86747505D01*
X161612346Y-86730609D01*
X161613478Y-86704686D01*
X161613613Y-86690028D01*
X161613928Y-86660409D01*
X161615082Y-86641393D01*
X161617387Y-86630891D01*
X161621158Y-86626813D01*
X161623141Y-86626512D01*
X161630187Y-86621692D01*
X161632651Y-86606306D01*
X161632668Y-86604282D01*
X161630602Y-86587840D01*
X161624008Y-86582091D01*
X161623141Y-86582051D01*
X161614720Y-86576967D01*
X161613613Y-86572524D01*
X161608793Y-86565477D01*
X161593407Y-86563014D01*
X161591383Y-86562996D01*
X161576061Y-86564417D01*
X161569879Y-86569965D01*
X161569152Y-86575699D01*
X161564266Y-86593904D01*
X161549249Y-86606087D01*
X161523565Y-86612542D01*
X161499285Y-86613809D01*
X161474532Y-86612886D01*
X161459175Y-86610297D01*
X161454824Y-86607004D01*
X161450012Y-86596229D01*
X161439453Y-86585996D01*
X161429871Y-86582051D01*
X161423345Y-86577171D01*
X161423066Y-86575246D01*
X161418255Y-86564471D01*
X161407695Y-86554238D01*
X161398113Y-86550293D01*
X161392078Y-86545156D01*
X161391308Y-86540766D01*
X161386776Y-86532333D01*
X161382854Y-86531238D01*
X161373963Y-86526171D01*
X161365901Y-86515359D01*
X161356993Y-86503755D01*
X161348949Y-86499480D01*
X161342487Y-86494012D01*
X161340495Y-86483601D01*
X161337872Y-86471514D01*
X161327542Y-86467790D01*
X161324616Y-86467722D01*
X161312298Y-86464874D01*
X161308740Y-86454632D01*
X161308737Y-86454181D01*
X161304316Y-86441931D01*
X161293131Y-86426540D01*
X161286507Y-86419674D01*
X161273425Y-86406031D01*
X161265435Y-86395179D01*
X161264276Y-86391930D01*
X161258843Y-86386836D01*
X161248397Y-86385152D01*
X161236460Y-86382978D01*
X161232518Y-86378800D01*
X161227373Y-86373165D01*
X161222991Y-86372449D01*
X161214542Y-86368779D01*
X161213463Y-86365643D01*
X161207726Y-86353060D01*
X161192800Y-86344045D01*
X161172632Y-86340691D01*
X161156011Y-86338709D01*
X161150023Y-86332343D01*
X161149947Y-86331163D01*
X161146518Y-86322711D01*
X161143596Y-86321636D01*
X161139398Y-86316052D01*
X161137299Y-86302323D01*
X161137244Y-86299405D01*
X161138839Y-86284712D01*
X161142762Y-86277367D01*
X161143596Y-86277175D01*
X161149231Y-86272030D01*
X161149947Y-86267647D01*
X161151899Y-86263464D01*
X161159071Y-86260678D01*
X161173443Y-86259032D01*
X161196990Y-86258269D01*
X161222991Y-86258120D01*
X161296034Y-86258120D01*
X161296034Y-86242241D01*
X161293188Y-86229926D01*
X161282947Y-86226365D01*
X161282471Y-86226362D01*
X161268927Y-86221896D01*
X161254764Y-86211089D01*
X161254192Y-86210483D01*
X161240356Y-86199487D01*
X161227017Y-86194618D01*
X161226470Y-86194604D01*
X161215985Y-86192000D01*
X161213463Y-86188253D01*
X161208135Y-86183119D01*
X161200561Y-86181901D01*
X161188347Y-86177762D01*
X161184002Y-86172374D01*
X161175335Y-86165252D01*
X161161668Y-86162846D01*
X161140689Y-86156903D01*
X161128273Y-86146967D01*
X161122518Y-86141150D01*
X161116350Y-86136961D01*
X161107725Y-86134134D01*
X161094602Y-86132401D01*
X161074939Y-86131493D01*
X161046692Y-86131145D01*
X161007820Y-86131088D01*
X161007037Y-86131088D01*
X160967962Y-86131143D01*
X160939547Y-86131483D01*
X160919752Y-86132378D01*
X160906532Y-86134095D01*
X160897847Y-86136901D01*
X160891653Y-86141064D01*
X160885908Y-86146850D01*
X160885800Y-86146967D01*
X160871964Y-86157964D01*
X160858625Y-86162833D01*
X160858078Y-86162846D01*
X160847596Y-86165634D01*
X160845071Y-86169652D01*
X160840260Y-86180426D01*
X160829700Y-86190660D01*
X160820118Y-86194604D01*
X160813592Y-86199484D01*
X160813313Y-86201409D01*
X160808502Y-86212184D01*
X160797942Y-86222418D01*
X160788361Y-86226362D01*
X160781834Y-86231242D01*
X160781555Y-86233167D01*
X160776744Y-86243942D01*
X160766184Y-86254175D01*
X160756603Y-86258120D01*
X160751065Y-86263432D01*
X160749797Y-86270751D01*
X160745164Y-86286556D01*
X160734002Y-86300751D01*
X160720416Y-86308545D01*
X160717070Y-86308933D01*
X160707435Y-86314473D01*
X160704190Y-86323159D01*
X160697985Y-86335312D01*
X160690437Y-86339621D01*
X160673700Y-86346936D01*
X160660255Y-86359620D01*
X160654530Y-86373449D01*
X160654524Y-86373860D01*
X160649891Y-86382954D01*
X160638645Y-86385152D01*
X160626710Y-86387480D01*
X160622766Y-86391957D01*
X160617954Y-86402732D01*
X160607395Y-86412965D01*
X160597813Y-86416910D01*
X160591287Y-86421790D01*
X160591008Y-86423715D01*
X160586196Y-86434490D01*
X160575637Y-86444723D01*
X160566055Y-86448668D01*
X160560020Y-86453805D01*
X160559250Y-86458195D01*
X160553819Y-86465925D01*
X160544959Y-86467785D01*
X160531174Y-86472966D01*
X160514209Y-86486942D01*
X160508437Y-86493129D01*
X160493822Y-86507506D01*
X160480695Y-86516694D01*
X160475091Y-86518473D01*
X160465663Y-86521523D01*
X160463976Y-86524887D01*
X160458831Y-86530522D01*
X160454448Y-86531238D01*
X160446000Y-86534908D01*
X160444921Y-86538044D01*
X160440975Y-86549804D01*
X160428294Y-86557580D01*
X160405614Y-86561824D01*
X160375054Y-86562996D01*
X160342125Y-86561587D01*
X160320352Y-86557058D01*
X160308469Y-86548958D01*
X160305186Y-86538044D01*
X160300306Y-86531517D01*
X160298381Y-86531238D01*
X160287606Y-86526427D01*
X160277373Y-86515867D01*
X160273428Y-86506286D01*
X160268291Y-86500251D01*
X160263901Y-86499480D01*
X160255480Y-86494396D01*
X160254373Y-86489953D01*
X160251178Y-86481497D01*
X160248464Y-86480426D01*
X160243078Y-86475025D01*
X160240524Y-86466135D01*
X160236466Y-86456142D01*
X160225621Y-86451271D01*
X160214676Y-86449872D01*
X160199114Y-86449268D01*
X160192438Y-86453220D01*
X160190886Y-86465093D01*
X160190858Y-86471189D01*
X159887483Y-86471189D01*
X159885981Y-86463867D01*
X159883188Y-86452248D01*
X159872448Y-86448711D01*
X159870102Y-86448668D01*
X159862227Y-86449209D01*
X159857512Y-86452562D01*
X159855146Y-86461317D01*
X159854320Y-86478066D01*
X159854223Y-86499480D01*
X159853966Y-86524782D01*
X159852759Y-86539944D01*
X159849953Y-86547527D01*
X159844898Y-86550092D01*
X159841321Y-86550293D01*
X159829107Y-86546154D01*
X159824762Y-86540766D01*
X159816124Y-86532831D01*
X159808629Y-86531238D01*
X159792006Y-86525799D01*
X159780505Y-86512434D01*
X159777942Y-86501522D01*
X159773389Y-86490970D01*
X159761809Y-86476617D01*
X159752598Y-86467722D01*
X159736196Y-86450405D01*
X159727859Y-86435216D01*
X159727254Y-86431201D01*
X159724643Y-86420048D01*
X159720386Y-86416910D01*
X159709612Y-86412099D01*
X159699378Y-86401539D01*
X159695434Y-86391957D01*
X159690296Y-86385922D01*
X159685906Y-86385152D01*
X159677651Y-86380014D01*
X159676379Y-86374924D01*
X159681096Y-86363959D01*
X159693085Y-86348945D01*
X159709100Y-86332961D01*
X159725897Y-86319083D01*
X159740232Y-86310389D01*
X159745946Y-86308933D01*
X159756527Y-86305031D01*
X159758950Y-86299405D01*
X159762619Y-86290957D01*
X159765755Y-86289878D01*
X159775511Y-86285797D01*
X159781634Y-86280804D01*
X159789200Y-86270177D01*
X159790708Y-86264925D01*
X159795587Y-86258399D01*
X159797513Y-86258120D01*
X159807269Y-86254039D01*
X159813392Y-86249046D01*
X159820958Y-86238419D01*
X159822465Y-86233167D01*
X159827603Y-86227133D01*
X159831993Y-86226362D01*
X159840448Y-86223093D01*
X159841520Y-86220313D01*
X159845719Y-86213118D01*
X159856757Y-86199916D01*
X159872302Y-86183485D01*
X159873278Y-86182506D01*
X159889102Y-86165366D01*
X159900480Y-86150532D01*
X159905030Y-86141122D01*
X159905036Y-86140918D01*
X159908374Y-86132273D01*
X159911388Y-86131088D01*
X159917023Y-86125944D01*
X159917739Y-86121561D01*
X159921200Y-86113109D01*
X159924149Y-86112034D01*
X159934101Y-86107379D01*
X159947178Y-86096087D01*
X159959571Y-86082166D01*
X159967473Y-86069624D01*
X159968552Y-86065297D01*
X159971721Y-86056282D01*
X159974904Y-86054869D01*
X159980539Y-86049725D01*
X159981255Y-86045342D01*
X159986339Y-86036921D01*
X159990783Y-86035815D01*
X159998527Y-86030460D01*
X160000310Y-86022481D01*
X160004802Y-86011030D01*
X160016786Y-85994545D01*
X160032068Y-85978052D01*
X160047969Y-85961127D01*
X160059361Y-85946417D01*
X160063824Y-85937056D01*
X160063826Y-85936943D01*
X160068415Y-85923970D01*
X160078861Y-85912747D01*
X160088778Y-85908783D01*
X160094813Y-85903645D01*
X160095584Y-85899255D01*
X160100668Y-85890835D01*
X160105111Y-85889728D01*
X160112820Y-85884289D01*
X160114639Y-85875251D01*
X160119528Y-85860333D01*
X160127342Y-85851618D01*
X160137285Y-85839822D01*
X160140045Y-85830261D01*
X160144420Y-85818931D01*
X160155073Y-85804542D01*
X160168296Y-85791143D01*
X160180381Y-85782787D01*
X160184448Y-85781751D01*
X160189558Y-85776401D01*
X160190858Y-85768313D01*
X160195509Y-85756513D01*
X160208053Y-85739796D01*
X160222616Y-85724587D01*
X160240021Y-85706018D01*
X160251253Y-85689998D01*
X160254373Y-85680860D01*
X160258176Y-85669942D01*
X160263901Y-85667422D01*
X160272350Y-85663753D01*
X160273428Y-85660617D01*
X160277509Y-85650861D01*
X160282502Y-85644738D01*
X160293129Y-85637172D01*
X160298381Y-85635664D01*
X160304907Y-85630785D01*
X160305186Y-85628859D01*
X160309267Y-85619103D01*
X160314260Y-85612980D01*
X160324887Y-85605414D01*
X160330139Y-85603907D01*
X160336665Y-85599027D01*
X160336944Y-85597101D01*
X160341025Y-85587345D01*
X160346018Y-85581222D01*
X160356645Y-85573656D01*
X160361897Y-85572149D01*
X160368423Y-85567269D01*
X160368702Y-85565343D01*
X160373513Y-85554568D01*
X160384073Y-85544335D01*
X160393655Y-85540391D01*
X160399881Y-85535338D01*
X160400460Y-85531937D01*
X160405528Y-85523046D01*
X160416339Y-85514984D01*
X160427943Y-85506076D01*
X160432218Y-85498032D01*
X160437535Y-85491249D01*
X160445348Y-85489578D01*
X160457338Y-85485165D01*
X160472566Y-85473999D01*
X160479443Y-85467347D01*
X160494648Y-85454082D01*
X160508959Y-85446131D01*
X160513951Y-85445117D01*
X160524715Y-85442428D01*
X160527492Y-85438312D01*
X160532303Y-85427537D01*
X160542863Y-85417303D01*
X160552444Y-85413359D01*
X160558479Y-85408222D01*
X160559250Y-85403832D01*
X160564623Y-85396094D01*
X160572812Y-85394304D01*
X160586357Y-85389838D01*
X160600520Y-85379031D01*
X160601091Y-85378425D01*
X160614043Y-85367508D01*
X160625496Y-85362571D01*
X160626092Y-85362546D01*
X160639245Y-85357979D01*
X160650547Y-85347550D01*
X160654524Y-85337594D01*
X160659934Y-85332398D01*
X160669723Y-85330788D01*
X160682895Y-85327241D01*
X160688578Y-85321261D01*
X160696819Y-85315094D01*
X160712163Y-85311997D01*
X160729349Y-85312146D01*
X160743110Y-85315717D01*
X160747371Y-85319298D01*
X160747435Y-85327414D01*
X160744570Y-85329355D01*
X160738810Y-85336869D01*
X160737094Y-85347197D01*
X160733685Y-85359570D01*
X160727567Y-85362546D01*
X160719116Y-85366060D01*
X160718039Y-85369056D01*
X160713772Y-85376215D01*
X160702410Y-85389597D01*
X160686111Y-85406721D01*
X160679930Y-85412856D01*
X160660322Y-85433672D01*
X160647058Y-85451138D01*
X160641840Y-85462995D01*
X160641820Y-85463511D01*
X160643104Y-85474227D01*
X160648074Y-85475240D01*
X160658413Y-85466355D01*
X160663495Y-85460996D01*
X160675483Y-85450167D01*
X160684880Y-85445158D01*
X160685438Y-85445117D01*
X160692865Y-85440888D01*
X160706717Y-85429557D01*
X160724594Y-85413158D01*
X160734154Y-85403832D01*
X160757970Y-85381501D01*
X160775765Y-85368201D01*
X160789137Y-85362798D01*
X160792278Y-85362546D01*
X160809012Y-85357228D01*
X160828857Y-85340812D01*
X160833086Y-85336362D01*
X160850790Y-85319843D01*
X160863704Y-85313548D01*
X160867045Y-85313932D01*
X160875424Y-85313178D01*
X160876829Y-85308358D01*
X160881918Y-85300112D01*
X160886356Y-85299030D01*
X160894777Y-85293946D01*
X160895884Y-85289503D01*
X160901405Y-85281840D01*
X160911763Y-85279976D01*
X160923699Y-85277801D01*
X160927642Y-85273624D01*
X160933277Y-85269647D01*
X160947353Y-85267434D01*
X160953048Y-85267272D01*
X160968956Y-85265763D01*
X160977806Y-85261994D01*
X160978454Y-85260467D01*
X160984263Y-85247620D01*
X161000224Y-85238919D01*
X161024143Y-85235524D01*
X161025638Y-85235514D01*
X161042840Y-85234271D01*
X161053253Y-85231121D01*
X161054674Y-85229163D01*
X161060261Y-85224980D01*
X161074014Y-85222872D01*
X161077103Y-85222811D01*
X161095115Y-85220083D01*
X161103189Y-85213284D01*
X161112207Y-85206098D01*
X161127867Y-85203756D01*
X161142877Y-85201773D01*
X161151107Y-85196946D01*
X161151330Y-85196432D01*
X161159243Y-85192337D01*
X161179563Y-85190423D01*
X161205892Y-85190485D01*
X161232690Y-85190741D01*
X161249326Y-85189524D01*
X161258296Y-85186454D01*
X161261824Y-85181931D01*
X161271179Y-85174246D01*
X161286507Y-85171999D01*
X161303337Y-85169149D01*
X161311034Y-85162471D01*
X161317313Y-85156678D01*
X161331996Y-85153678D01*
X161352999Y-85152944D01*
X161373379Y-85151984D01*
X161387206Y-85149474D01*
X161391308Y-85146592D01*
X161397495Y-85144088D01*
X161415417Y-85142162D01*
X161444119Y-85140872D01*
X161482644Y-85140276D01*
X161496109Y-85140241D01*
X161535454Y-85140089D01*
X161563790Y-85139534D01*
X161582809Y-85138419D01*
X161594204Y-85136592D01*
X161599667Y-85133898D01*
X161600910Y-85130713D01*
X161603009Y-85126270D01*
X161610699Y-85123418D01*
X161626068Y-85121843D01*
X161651208Y-85121231D01*
X161664426Y-85121186D01*
X161693932Y-85120582D01*
X161715265Y-85118892D01*
X161726594Y-85116300D01*
X161727942Y-85114834D01*
X161734157Y-85112455D01*
X161752275Y-85110594D01*
X161781505Y-85109293D01*
X161821056Y-85108595D01*
X161848622Y-85108483D01*
X161893836Y-85108810D01*
G37*
X161893836Y-85108810D02*
X161929191Y-85109763D01*
X161953897Y-85111302D01*
X161967162Y-85113383D01*
X161969302Y-85114834D01*
X161975076Y-85118232D01*
X161990110Y-85120530D01*
X162006732Y-85121186D01*
X162030182Y-85122246D01*
X162043290Y-85125769D01*
X162047818Y-85130713D01*
X162051242Y-85134475D01*
X162059367Y-85137132D01*
X162074006Y-85138857D01*
X162096976Y-85139825D01*
X162130088Y-85140211D01*
X162146947Y-85140241D01*
X162185827Y-85140651D01*
X162215404Y-85141833D01*
X162234594Y-85143716D01*
X162242316Y-85146227D01*
X162242420Y-85146592D01*
X162248004Y-85150790D01*
X162261734Y-85152889D01*
X162264651Y-85152944D01*
X162281093Y-85155010D01*
X162286841Y-85161603D01*
X162286882Y-85162471D01*
X162291077Y-85169096D01*
X162304984Y-85171826D01*
X162312288Y-85171999D01*
X162329954Y-85173572D01*
X162337233Y-85178787D01*
X162337694Y-85181526D01*
X162339793Y-85185969D01*
X162347483Y-85188821D01*
X162362853Y-85190396D01*
X162387992Y-85191008D01*
X162401210Y-85191053D01*
X162430717Y-85191657D01*
X162452049Y-85193347D01*
X162463378Y-85195939D01*
X162464726Y-85197405D01*
X162470162Y-85202180D01*
X162480605Y-85203756D01*
X162493376Y-85207069D01*
X162496484Y-85213284D01*
X162500679Y-85219909D01*
X162514586Y-85222638D01*
X162521890Y-85222811D01*
X162537800Y-85224220D01*
X162546649Y-85227739D01*
X162547297Y-85229163D01*
X162553208Y-85232363D01*
X162569208Y-85234594D01*
X162592700Y-85235508D01*
X162594934Y-85235514D01*
X162618937Y-85236303D01*
X162635667Y-85238436D01*
X162642526Y-85241568D01*
X162642571Y-85241866D01*
X162647899Y-85247000D01*
X162655473Y-85248218D01*
X162667687Y-85252356D01*
X162672032Y-85257745D01*
X162677321Y-85262969D01*
X162689760Y-85265971D01*
X162711670Y-85267187D01*
X162722645Y-85267272D01*
X162746395Y-85268071D01*
X162762919Y-85270228D01*
X162769574Y-85273387D01*
X162769602Y-85273624D01*
X162774931Y-85278758D01*
X162782505Y-85279976D01*
X162794718Y-85284114D01*
X162799063Y-85289503D01*
X162807590Y-85297002D01*
X162817389Y-85299030D01*
X162829826Y-85301865D01*
X162834544Y-85306485D01*
X162842634Y-85310912D01*
X162862885Y-85312633D01*
X162879566Y-85312398D01*
X162903563Y-85312170D01*
X162917665Y-85313979D01*
X162924583Y-85318318D01*
X162925927Y-85320822D01*
X162933834Y-85329534D01*
X162938599Y-85330788D01*
X162946426Y-85335887D01*
X162947447Y-85340316D01*
X162952267Y-85347362D01*
X162967653Y-85349826D01*
X162969677Y-85349843D01*
X162984371Y-85351438D01*
X162991716Y-85355361D01*
X162991908Y-85356195D01*
X162997678Y-85359596D01*
X163012687Y-85361896D01*
X163029128Y-85362546D01*
X163051206Y-85363287D01*
X163064785Y-85366407D01*
X163074025Y-85373249D01*
X163078272Y-85378425D01*
X163091387Y-85390205D01*
X163109671Y-85394217D01*
X163114096Y-85394304D01*
X163131188Y-85396085D01*
X163137779Y-85401894D01*
X163137994Y-85403832D01*
X163143516Y-85411494D01*
X163153873Y-85413359D01*
X163165810Y-85415533D01*
X163169752Y-85419710D01*
X163175188Y-85424485D01*
X163185631Y-85426062D01*
X163198402Y-85429375D01*
X163201510Y-85435589D01*
X163205706Y-85442214D01*
X163219612Y-85444944D01*
X163226917Y-85445117D01*
X163242826Y-85446526D01*
X163251675Y-85450045D01*
X163252323Y-85451468D01*
X163257643Y-85456629D01*
X163265026Y-85457820D01*
X163275372Y-85461791D01*
X163277729Y-85467347D01*
X163283251Y-85475010D01*
X163293608Y-85476875D01*
X163305545Y-85479049D01*
X163309487Y-85483226D01*
X163315042Y-85487580D01*
X163328573Y-85489661D01*
X163330130Y-85489688D01*
X163353488Y-85495853D01*
X163365730Y-85505567D01*
X163385916Y-85518862D01*
X163402252Y-85521336D01*
X163418428Y-85523536D01*
X163423808Y-85530486D01*
X163423816Y-85530863D01*
X163429337Y-85538526D01*
X163439695Y-85540391D01*
X163451631Y-85542565D01*
X163455574Y-85546742D01*
X163460718Y-85552377D01*
X163465101Y-85553094D01*
X163473522Y-85558178D01*
X163474629Y-85562621D01*
X163479449Y-85569668D01*
X163494834Y-85572131D01*
X163496859Y-85572149D01*
X163511553Y-85573744D01*
X163518898Y-85577667D01*
X163519090Y-85578500D01*
X163524422Y-85583620D01*
X163532096Y-85584852D01*
X163545228Y-85589302D01*
X163559203Y-85600078D01*
X163559819Y-85600731D01*
X163579969Y-85614227D01*
X163594449Y-85616610D01*
X163609947Y-85619204D01*
X163614363Y-85626137D01*
X163619448Y-85634558D01*
X163623891Y-85635664D01*
X163632343Y-85639094D01*
X163633418Y-85642016D01*
X163638670Y-85647376D01*
X163644710Y-85648368D01*
X163660254Y-85654175D01*
X163671669Y-85669971D01*
X163677458Y-85693316D01*
X163677879Y-85702429D01*
X163679132Y-85721241D01*
X163683391Y-85729794D01*
X163687407Y-85730938D01*
X163695827Y-85736023D01*
X163696934Y-85740466D01*
X163700364Y-85748918D01*
X163703286Y-85749993D01*
X163707484Y-85755577D01*
X163709582Y-85769306D01*
X163709637Y-85772224D01*
X163711703Y-85788666D01*
X163718297Y-85794414D01*
X163719165Y-85794454D01*
X163723813Y-85796682D01*
X163726708Y-85804812D01*
X163728212Y-85821016D01*
X163728687Y-85847464D01*
X163728692Y-85851618D01*
X163729063Y-85879507D01*
X163730418Y-85896878D01*
X163733119Y-85905903D01*
X163737527Y-85908753D01*
X163738219Y-85908783D01*
X163745882Y-85914304D01*
X163747747Y-85924662D01*
X163749921Y-85936598D01*
X163754098Y-85940541D01*
X163756094Y-85946820D01*
X163757733Y-85965377D01*
X163758999Y-85995790D01*
X163759879Y-86037640D01*
X163760359Y-86090505D01*
X163760450Y-86131088D01*
X163760241Y-86190971D01*
X163759622Y-86240115D01*
X163758608Y-86278099D01*
X163757213Y-86304504D01*
X163755451Y-86318908D01*
X163754098Y-86321636D01*
X163749345Y-86327078D01*
X163747747Y-86337714D01*
X163744383Y-86351241D01*
X163738219Y-86357449D01*
X163733275Y-86362311D01*
X163730305Y-86373768D01*
X163728922Y-86394095D01*
X163728692Y-86413734D01*
X163728155Y-86441252D01*
X163726288Y-86458379D01*
X163722704Y-86467392D01*
X163719165Y-86470019D01*
X163711959Y-86479209D01*
X163709637Y-86496105D01*
X163708055Y-86510878D01*
X163704161Y-86518322D01*
X163703286Y-86518535D01*
X163699035Y-86524106D01*
X163696971Y-86537752D01*
X163696934Y-86540086D01*
X163694138Y-86557434D01*
X163687407Y-86565293D01*
X163679561Y-86573909D01*
X163677879Y-86581852D01*
X163675256Y-86592281D01*
X163671528Y-86594754D01*
X163665893Y-86599899D01*
X163665176Y-86604282D01*
X163660092Y-86612702D01*
X163655649Y-86613809D01*
X163647228Y-86608725D01*
X163646121Y-86604282D01*
X163642692Y-86595829D01*
X163639770Y-86594754D01*
X163636569Y-86588843D01*
X163634339Y-86572843D01*
X163633424Y-86549351D01*
X163633418Y-86547117D01*
X163632919Y-86521990D01*
X163631116Y-86507241D01*
X163627548Y-86500572D01*
X163623891Y-86499480D01*
X163615470Y-86494396D01*
X163614363Y-86489953D01*
X163610934Y-86481501D01*
X163608012Y-86480426D01*
X163602377Y-86485570D01*
X163601660Y-86489953D01*
X163596576Y-86498374D01*
X163592133Y-86499480D01*
X163586141Y-86502880D01*
X163583215Y-86514651D01*
X163582606Y-86531238D01*
X163581463Y-86549354D01*
X163578542Y-86560853D01*
X163576254Y-86562996D01*
X163571403Y-86568410D01*
X163569902Y-86578196D01*
X163566355Y-86591368D01*
X163560375Y-86597051D01*
X163554582Y-86603330D01*
X163551582Y-86618013D01*
X163550848Y-86639016D01*
X163549888Y-86659397D01*
X163547378Y-86673223D01*
X163544496Y-86677325D01*
X163539721Y-86682760D01*
X163538144Y-86693204D01*
X163534832Y-86705975D01*
X163528617Y-86709083D01*
X163520954Y-86714604D01*
X163519090Y-86724962D01*
X163516915Y-86736898D01*
X163512738Y-86740841D01*
X163509115Y-86746553D01*
X163506815Y-86761159D01*
X163506386Y-86772599D01*
X163505367Y-86792570D01*
X163501835Y-86802324D01*
X163496859Y-86804357D01*
X163489196Y-86809878D01*
X163487332Y-86820236D01*
X163485157Y-86832172D01*
X163480980Y-86836115D01*
X163476205Y-86841550D01*
X163474629Y-86851994D01*
X163471316Y-86864765D01*
X163465101Y-86867873D01*
X163458120Y-86872591D01*
X163455606Y-86887747D01*
X163455574Y-86890557D01*
X163452068Y-86911147D01*
X163442946Y-86925900D01*
X163430621Y-86931388D01*
X163426554Y-86937191D01*
X163424167Y-86952485D01*
X163423816Y-86963146D01*
X163422673Y-86981262D01*
X163419752Y-86992761D01*
X163417464Y-86994904D01*
X163412690Y-87000340D01*
X163411113Y-87010783D01*
X163407800Y-87023554D01*
X163401585Y-87026662D01*
X163393165Y-87031746D01*
X163392058Y-87036190D01*
X163388628Y-87044642D01*
X163385706Y-87045717D01*
X163381264Y-87051241D01*
X163379356Y-87064569D01*
X163379355Y-87064971D01*
X163376375Y-87080549D01*
X163369827Y-87087881D01*
X163361386Y-87095878D01*
X163360300Y-87100385D01*
X163355201Y-87108212D01*
X163350773Y-87109233D01*
X163343110Y-87114754D01*
X163341245Y-87125112D01*
X163339071Y-87137048D01*
X163334894Y-87140991D01*
X163330643Y-87146562D01*
X163328579Y-87160207D01*
X163328542Y-87162542D01*
X163325746Y-87179890D01*
X163319015Y-87187749D01*
X163311764Y-87196208D01*
X163309487Y-87207483D01*
X163307338Y-87219515D01*
X163303136Y-87223561D01*
X163297975Y-87228881D01*
X163296784Y-87236265D01*
X163292813Y-87246610D01*
X163287257Y-87248968D01*
X163278941Y-87254086D01*
X163277729Y-87258937D01*
X163272985Y-87266478D01*
X163263438Y-87266876D01*
X163257231Y-87265361D01*
X163253062Y-87261416D01*
X163250439Y-87252796D01*
X163248870Y-87237254D01*
X163247864Y-87212543D01*
X163247351Y-87193391D01*
X163246360Y-87162159D01*
X163245004Y-87141514D01*
X163242902Y-87129340D01*
X163239671Y-87123522D01*
X163234932Y-87121943D01*
X163234472Y-87121936D01*
X163220739Y-87127352D01*
X163208480Y-87140414D01*
X163201818Y-87156346D01*
X163201510Y-87160118D01*
X163197522Y-87170406D01*
X163191983Y-87172749D01*
X163184320Y-87178270D01*
X163182455Y-87188628D01*
X163180281Y-87200564D01*
X163176104Y-87204507D01*
X163171854Y-87210078D01*
X163169790Y-87223723D01*
X163169752Y-87226058D01*
X163166956Y-87243406D01*
X163160225Y-87251265D01*
X163153019Y-87260454D01*
X163150698Y-87277351D01*
X163149115Y-87292123D01*
X163145221Y-87299567D01*
X163144346Y-87299780D01*
X163139571Y-87305216D01*
X163137994Y-87315659D01*
X163134682Y-87328431D01*
X163128467Y-87331538D01*
X163121842Y-87335734D01*
X163119113Y-87349641D01*
X163118940Y-87356945D01*
X163117531Y-87372854D01*
X163114012Y-87381703D01*
X163112588Y-87382351D01*
X163107454Y-87387680D01*
X163106236Y-87395254D01*
X163102098Y-87407467D01*
X163096709Y-87411812D01*
X163089306Y-87420313D01*
X163087182Y-87430668D01*
X163084919Y-87442275D01*
X163080830Y-87445867D01*
X163076632Y-87451451D01*
X163074533Y-87465180D01*
X163074478Y-87468098D01*
X163072412Y-87484540D01*
X163065819Y-87490288D01*
X163064951Y-87490328D01*
X163056530Y-87495412D01*
X163055424Y-87499856D01*
X163051994Y-87508308D01*
X163049072Y-87509383D01*
X163044630Y-87514907D01*
X163042722Y-87528235D01*
X163042721Y-87528637D01*
X163039741Y-87544215D01*
X163033193Y-87551547D01*
X163025226Y-87560193D01*
X163023666Y-87567530D01*
X163019234Y-87580158D01*
X163008498Y-87593902D01*
X163007787Y-87594573D01*
X162994290Y-87614724D01*
X162991908Y-87629204D01*
X162990141Y-87642950D01*
X162985859Y-87649095D01*
X162985556Y-87649118D01*
X162979921Y-87654262D01*
X162979205Y-87658645D01*
X162974120Y-87667066D01*
X162969677Y-87668173D01*
X162962015Y-87673694D01*
X162960150Y-87684052D01*
X162957976Y-87695988D01*
X162953798Y-87699931D01*
X162949024Y-87705366D01*
X162947447Y-87715810D01*
X162944134Y-87728581D01*
X162937919Y-87731688D01*
X162930257Y-87737210D01*
X162928392Y-87747567D01*
X162926218Y-87759504D01*
X162922040Y-87763446D01*
X162917266Y-87768882D01*
X162915689Y-87779325D01*
X162913539Y-87791262D01*
X162909410Y-87795204D01*
X162897625Y-87800166D01*
X162885586Y-87811659D01*
X162878177Y-87824596D01*
X162877579Y-87828374D01*
X162874625Y-87837903D01*
X162871228Y-87839665D01*
X162866195Y-87845026D01*
X162864876Y-87853352D01*
X162860362Y-87865558D01*
X162848642Y-87881603D01*
X162839470Y-87891207D01*
X162825234Y-87906990D01*
X162816014Y-87921511D01*
X162814063Y-87928333D01*
X162811450Y-87938792D01*
X162807712Y-87941291D01*
X162802937Y-87946726D01*
X162801360Y-87957170D01*
X162799032Y-87969104D01*
X162794555Y-87973049D01*
X162783012Y-87978253D01*
X162773092Y-87990136D01*
X162769602Y-88001481D01*
X162765227Y-88012606D01*
X162754607Y-88025646D01*
X162753723Y-88026481D01*
X162742711Y-88040501D01*
X162737856Y-88054232D01*
X162737844Y-88054760D01*
X162734070Y-88065775D01*
X162728317Y-88068323D01*
X162720604Y-88073755D01*
X162718790Y-88082694D01*
X162713950Y-88096643D01*
X162702911Y-88108990D01*
X162691599Y-88121028D01*
X162687032Y-88132728D01*
X162684194Y-88142556D01*
X162680680Y-88144542D01*
X162675045Y-88149686D01*
X162674328Y-88154069D01*
X162669244Y-88162490D01*
X162664801Y-88163596D01*
X162657088Y-88169028D01*
X162655274Y-88177968D01*
X162650434Y-88191917D01*
X162639395Y-88204264D01*
X162628071Y-88216456D01*
X162623516Y-88228456D01*
X162619117Y-88242893D01*
X162608836Y-88254768D01*
X162598563Y-88258870D01*
X162593153Y-88264221D01*
X162591758Y-88272411D01*
X162587337Y-88284661D01*
X162576152Y-88300053D01*
X162569527Y-88306919D01*
X162556273Y-88322025D01*
X162548319Y-88336121D01*
X162547297Y-88341014D01*
X162543424Y-88351694D01*
X162537769Y-88354144D01*
X162529349Y-88359228D01*
X162528242Y-88363671D01*
X162523158Y-88372092D01*
X162518715Y-88373199D01*
X162510966Y-88378538D01*
X162509187Y-88386356D01*
X162504867Y-88401354D01*
X162494666Y-88413482D01*
X162484235Y-88417660D01*
X162478200Y-88422797D01*
X162477429Y-88427187D01*
X162474000Y-88435640D01*
X162471078Y-88436715D01*
X162466303Y-88442150D01*
X162464726Y-88452594D01*
X162462398Y-88464528D01*
X162457921Y-88468473D01*
X162448165Y-88472554D01*
X162442042Y-88477546D01*
X162434475Y-88488174D01*
X162432968Y-88493425D01*
X162427535Y-88498540D01*
X162417089Y-88500231D01*
X162404318Y-88496918D01*
X162401210Y-88490703D01*
X162397541Y-88482255D01*
X162394405Y-88481176D01*
X162384649Y-88477095D01*
X162378526Y-88472102D01*
X162370959Y-88461475D01*
X162369452Y-88456223D01*
X162364572Y-88449697D01*
X162362647Y-88449418D01*
X162352891Y-88445337D01*
X162346768Y-88440344D01*
X162339202Y-88429717D01*
X162337694Y-88424465D01*
X162332815Y-88417939D01*
X162330889Y-88417660D01*
X162321133Y-88413579D01*
X162315010Y-88408586D01*
X162307444Y-88397959D01*
X162305936Y-88392707D01*
X162300799Y-88386673D01*
X162296409Y-88385902D01*
X162287956Y-88382472D01*
X162286882Y-88379550D01*
X162281446Y-88374776D01*
X162271003Y-88373199D01*
X162259069Y-88370871D01*
X162255124Y-88366394D01*
X162250313Y-88355619D01*
X162239753Y-88345385D01*
X162230171Y-88341441D01*
X162224136Y-88336304D01*
X162223366Y-88331914D01*
X162217994Y-88324175D01*
X162209825Y-88322386D01*
X162197575Y-88317965D01*
X162182183Y-88306780D01*
X162175317Y-88300156D01*
X162161156Y-88287012D01*
X162149155Y-88279034D01*
X162145287Y-88277925D01*
X162135352Y-88273237D01*
X162124298Y-88262046D01*
X162111082Y-88250477D01*
X162097803Y-88246167D01*
X162084889Y-88242475D01*
X162079576Y-88236640D01*
X162071075Y-88229236D01*
X162060721Y-88227112D01*
X162049116Y-88224690D01*
X162045521Y-88220307D01*
X162039784Y-88207724D01*
X162024858Y-88198709D01*
X162004690Y-88195354D01*
X161989818Y-88193677D01*
X161982249Y-88189543D01*
X161982005Y-88188549D01*
X161976268Y-88175966D01*
X161961343Y-88166951D01*
X161941174Y-88163596D01*
X161924553Y-88161615D01*
X161918565Y-88155249D01*
X161918489Y-88154069D01*
X161914294Y-88147444D01*
X161900387Y-88144715D01*
X161893083Y-88144542D01*
X161877174Y-88143133D01*
X161868325Y-88139614D01*
X161867677Y-88138190D01*
X161862093Y-88133992D01*
X161848364Y-88131893D01*
X161845446Y-88131839D01*
X161829004Y-88129773D01*
X161823256Y-88123179D01*
X161823216Y-88122311D01*
X161817694Y-88114648D01*
X161807337Y-88112784D01*
X161798536Y-88111977D01*
X161793785Y-88107567D01*
X161791840Y-88096573D01*
X161791458Y-88076010D01*
X161791458Y-88074674D01*
X161790494Y-88054375D01*
X161787975Y-88040613D01*
X161785106Y-88036565D01*
X161780923Y-88030978D01*
X161778815Y-88017224D01*
X161778755Y-88014135D01*
X161776026Y-87996123D01*
X161769227Y-87988049D01*
X161761824Y-87979548D01*
X161759700Y-87969193D01*
X161756263Y-87956933D01*
X161750172Y-87953994D01*
X161743126Y-87949173D01*
X161740662Y-87933788D01*
X161740645Y-87931763D01*
X161739050Y-87917070D01*
X161735127Y-87909725D01*
X161734293Y-87909533D01*
X161729443Y-87904119D01*
X161727942Y-87894334D01*
X161724394Y-87881161D01*
X161718414Y-87875478D01*
X161711164Y-87867019D01*
X161708887Y-87855744D01*
X161706737Y-87843712D01*
X161702536Y-87839665D01*
X161697761Y-87834230D01*
X161696184Y-87823786D01*
X161693817Y-87811853D01*
X161689266Y-87807908D01*
X161681508Y-87803651D01*
X161668236Y-87792572D01*
X161654569Y-87779325D01*
X161632829Y-87759733D01*
X161616532Y-87751157D01*
X161605899Y-87753625D01*
X161601154Y-87767163D01*
X161600910Y-87772974D01*
X161602505Y-87787668D01*
X161606428Y-87795012D01*
X161607262Y-87795204D01*
X161609534Y-87801441D01*
X161611336Y-87819704D01*
X161612637Y-87849326D01*
X161613404Y-87889639D01*
X161613613Y-87931763D01*
X161613323Y-87980628D01*
X161612474Y-88019371D01*
X161611096Y-88047322D01*
X161609221Y-88063814D01*
X161607262Y-88068323D01*
X161603063Y-88073906D01*
X161600965Y-88087636D01*
X161600910Y-88090553D01*
X161598844Y-88106995D01*
X161592250Y-88112744D01*
X161591383Y-88112784D01*
X161583720Y-88118305D01*
X161581855Y-88128663D01*
X161579681Y-88140599D01*
X161575504Y-88144542D01*
X161571526Y-88150177D01*
X161569314Y-88164253D01*
X161569152Y-88169948D01*
X161567643Y-88185856D01*
X161563873Y-88194706D01*
X161562347Y-88195354D01*
X161550691Y-88200617D01*
X161540833Y-88212732D01*
X161537394Y-88224466D01*
X161533037Y-88234733D01*
X161521843Y-88249361D01*
X161511988Y-88259599D01*
X161497823Y-88274824D01*
X161488600Y-88288095D01*
X161486582Y-88294003D01*
X161481168Y-88308636D01*
X161468460Y-88319655D01*
X161458150Y-88322386D01*
X161447024Y-88326761D01*
X161433984Y-88337381D01*
X161433149Y-88338265D01*
X161419129Y-88349277D01*
X161405399Y-88354133D01*
X161404870Y-88354144D01*
X161393856Y-88357919D01*
X161391308Y-88363671D01*
X161387908Y-88369663D01*
X161376137Y-88372589D01*
X161359550Y-88373199D01*
X161341434Y-88374341D01*
X161329935Y-88377263D01*
X161327792Y-88379550D01*
X161322378Y-88384401D01*
X161312592Y-88385902D01*
X161299420Y-88389450D01*
X161293737Y-88395429D01*
X161289689Y-88399758D01*
X161280125Y-88402599D01*
X161262970Y-88404222D01*
X161236152Y-88404893D01*
X161220014Y-88404957D01*
X161188428Y-88405507D01*
X161165304Y-88407062D01*
X161152262Y-88409473D01*
X161149947Y-88411308D01*
X161143748Y-88413760D01*
X161125740Y-88415659D01*
X161096806Y-88416955D01*
X161057832Y-88417597D01*
X161038795Y-88417660D01*
X160995889Y-88417306D01*
X160962655Y-88416277D01*
X160939976Y-88414623D01*
X160928738Y-88412396D01*
X160927642Y-88411308D01*
X160921527Y-88408557D01*
X160904101Y-88406511D01*
X160876742Y-88405280D01*
X160848247Y-88404957D01*
X160814615Y-88404732D01*
X160791770Y-88403904D01*
X160777801Y-88402245D01*
X160770799Y-88399524D01*
X160768853Y-88395514D01*
X160768852Y-88395429D01*
X160764657Y-88388805D01*
X160750750Y-88386075D01*
X160743446Y-88385902D01*
X160727536Y-88384493D01*
X160718687Y-88380974D01*
X160718039Y-88379550D01*
X160711875Y-88376962D01*
X160694104Y-88374993D01*
X160665815Y-88373717D01*
X160628091Y-88373205D01*
X160622766Y-88373199D01*
X160585477Y-88373026D01*
X160559123Y-88372390D01*
X160541937Y-88371114D01*
X160532155Y-88369021D01*
X160528009Y-88365936D01*
X160527492Y-88363671D01*
X160524736Y-88358327D01*
X160514887Y-88355357D01*
X160495576Y-88354214D01*
X160486206Y-88354144D01*
X160464632Y-88353247D01*
X160449862Y-88350869D01*
X160444921Y-88347793D01*
X160439136Y-88344409D01*
X160424022Y-88342116D01*
X160406812Y-88341441D01*
X160384683Y-88340709D01*
X160372802Y-88338115D01*
X160368777Y-88333061D01*
X160368702Y-88331914D01*
X160367191Y-88328731D01*
X160361660Y-88326329D01*
X160350611Y-88324605D01*
X160332545Y-88323454D01*
X160305965Y-88322770D01*
X160269371Y-88322450D01*
X160232143Y-88322386D01*
X160183278Y-88322096D01*
X160144536Y-88321247D01*
X160116584Y-88319869D01*
X160100092Y-88317994D01*
X160095584Y-88316035D01*
X160089397Y-88313531D01*
X160071474Y-88311605D01*
X160042772Y-88310315D01*
X160004248Y-88309718D01*
X159990783Y-88309683D01*
X159951438Y-88309532D01*
X159923102Y-88308976D01*
X159904083Y-88307861D01*
X159892688Y-88306034D01*
X159887225Y-88303341D01*
X159885981Y-88300156D01*
X159881161Y-88293109D01*
X159865775Y-88290645D01*
X159863751Y-88290628D01*
X159847309Y-88292694D01*
X159841560Y-88299288D01*
X159841520Y-88300156D01*
X159835999Y-88307818D01*
X159825641Y-88309683D01*
X159813705Y-88311857D01*
X159809762Y-88316035D01*
X159804082Y-88319806D01*
X159789693Y-88322082D01*
X159780877Y-88322386D01*
X159759355Y-88324318D01*
X159744515Y-88331477D01*
X159737275Y-88338265D01*
X159723255Y-88349277D01*
X159709525Y-88354133D01*
X159708996Y-88354144D01*
X159697982Y-88357919D01*
X159695434Y-88363671D01*
X159691238Y-88370296D01*
X159677332Y-88373026D01*
X159670027Y-88373199D01*
X159652362Y-88371626D01*
X159645082Y-88366411D01*
X159644621Y-88363671D01*
X159641191Y-88355219D01*
X159638269Y-88354144D01*
X159634071Y-88348561D01*
X159631973Y-88334831D01*
X159631918Y-88331914D01*
X159629852Y-88315471D01*
X159623258Y-88309723D01*
X159622390Y-88309683D01*
X159616320Y-88304199D01*
X159612953Y-88290635D01*
X159612291Y-88273325D01*
X159614331Y-88256599D01*
X159619076Y-88244791D01*
X159622390Y-88242112D01*
X159630326Y-88233474D01*
X159631918Y-88225979D01*
X159637425Y-88208923D01*
X159652910Y-88198359D01*
X159672749Y-88195354D01*
X159689370Y-88193373D01*
X159695358Y-88187007D01*
X159695434Y-88185827D01*
X159700955Y-88178164D01*
X159711313Y-88176300D01*
X159723249Y-88174125D01*
X159727192Y-88169948D01*
X159732627Y-88165173D01*
X159743071Y-88163596D01*
X159755842Y-88160284D01*
X159758950Y-88154069D01*
X159760498Y-88150783D01*
X159766176Y-88148332D01*
X159777532Y-88146603D01*
X159796118Y-88145477D01*
X159823481Y-88144839D01*
X159861171Y-88144572D01*
X159885981Y-88144542D01*
X159932683Y-88144230D01*
X159969415Y-88143321D01*
X159995438Y-88141851D01*
X160010015Y-88139857D01*
X160013013Y-88138190D01*
X160019274Y-88136061D01*
X160037703Y-88134343D01*
X160067774Y-88133055D01*
X160108957Y-88132218D01*
X160160725Y-88131853D01*
X160174979Y-88131839D01*
X160229262Y-88132084D01*
X160273090Y-88132807D01*
X160305935Y-88133986D01*
X160327269Y-88135601D01*
X160336563Y-88137631D01*
X160336944Y-88138190D01*
X160343272Y-88139624D01*
X160362165Y-88140879D01*
X160393484Y-88141953D01*
X160437094Y-88142844D01*
X160492856Y-88143550D01*
X160560632Y-88144069D01*
X160640286Y-88144399D01*
X160731680Y-88144537D01*
X160752973Y-88144542D01*
X160846888Y-88144445D01*
X160929092Y-88144157D01*
X160999448Y-88143678D01*
X161057820Y-88143013D01*
X161104069Y-88142161D01*
X161138057Y-88141127D01*
X161159649Y-88139911D01*
X161168705Y-88138515D01*
X161169002Y-88138190D01*
X161174438Y-88133415D01*
X161184881Y-88131839D01*
X161197652Y-88128526D01*
X161200760Y-88122311D01*
X161203687Y-88116779D01*
X161214062Y-88113809D01*
X161234278Y-88112803D01*
X161238870Y-88112784D01*
X161259169Y-88111820D01*
X161272931Y-88109301D01*
X161276979Y-88106432D01*
X161282415Y-88101658D01*
X161292858Y-88100081D01*
X161304945Y-88097457D01*
X161308670Y-88087128D01*
X161308737Y-88084202D01*
X161312050Y-88071431D01*
X161318264Y-88068323D01*
X161326685Y-88063238D01*
X161327792Y-88058795D01*
X161331221Y-88050343D01*
X161334143Y-88049268D01*
X161339277Y-88043939D01*
X161340495Y-88036365D01*
X161344634Y-88024152D01*
X161350022Y-88019807D01*
X161354573Y-88015483D01*
X161357470Y-88005279D01*
X161359023Y-87987033D01*
X161359542Y-87958586D01*
X161359550Y-87953315D01*
X161359230Y-87923877D01*
X161358057Y-87905034D01*
X161355714Y-87894687D01*
X161351883Y-87890738D01*
X161350022Y-87890478D01*
X161343398Y-87886283D01*
X161340668Y-87872376D01*
X161340495Y-87865072D01*
X161339086Y-87849162D01*
X161335567Y-87840313D01*
X161334143Y-87839665D01*
X161329010Y-87834337D01*
X161327792Y-87826763D01*
X161323653Y-87814549D01*
X161318264Y-87810204D01*
X161312399Y-87803788D01*
X161309407Y-87788799D01*
X161308737Y-87769118D01*
X161308737Y-87731688D01*
X161334143Y-87731688D01*
X161350512Y-87732555D01*
X161357788Y-87736643D01*
X161359541Y-87746185D01*
X161359550Y-87747567D01*
X161362173Y-87759655D01*
X161372502Y-87763379D01*
X161375429Y-87763446D01*
X161387740Y-87766289D01*
X161391304Y-87776529D01*
X161391308Y-87777037D01*
X161396993Y-87792969D01*
X161411595Y-87804188D01*
X161427829Y-87807706D01*
X161438076Y-87805501D01*
X161441828Y-87796072D01*
X161442120Y-87788653D01*
X161439141Y-87773076D01*
X161432593Y-87765743D01*
X161425190Y-87757243D01*
X161423066Y-87746888D01*
X161420803Y-87735280D01*
X161416714Y-87731688D01*
X161411580Y-87726360D01*
X161410362Y-87718786D01*
X161406224Y-87706572D01*
X161400835Y-87702227D01*
X161392394Y-87694230D01*
X161391308Y-87689724D01*
X161387396Y-87681721D01*
X161384502Y-87680876D01*
X161373728Y-87676065D01*
X161363494Y-87665505D01*
X161359550Y-87655923D01*
X161354670Y-87649397D01*
X161352744Y-87649118D01*
X161341970Y-87644307D01*
X161331736Y-87633747D01*
X161327792Y-87624165D01*
X161322912Y-87617639D01*
X161320987Y-87617360D01*
X161310212Y-87612549D01*
X161299978Y-87601989D01*
X161296034Y-87592407D01*
X161291154Y-87585881D01*
X161289229Y-87585602D01*
X161278919Y-87581054D01*
X161268665Y-87571124D01*
X161264276Y-87561723D01*
X161259273Y-87554878D01*
X161248397Y-87547492D01*
X161236793Y-87538584D01*
X161232518Y-87530540D01*
X161228451Y-87522805D01*
X161225713Y-87522086D01*
X161214938Y-87517275D01*
X161204705Y-87506715D01*
X161200760Y-87497133D01*
X161195880Y-87490607D01*
X161193955Y-87490328D01*
X161183180Y-87485517D01*
X161172947Y-87474957D01*
X161169002Y-87465375D01*
X161163569Y-87460261D01*
X161153123Y-87458570D01*
X161141187Y-87456396D01*
X161137244Y-87452219D01*
X161132100Y-87446584D01*
X161127717Y-87445867D01*
X161119296Y-87440783D01*
X161118189Y-87436340D01*
X161112853Y-87428590D01*
X161105060Y-87426812D01*
X161093070Y-87422399D01*
X161077842Y-87411234D01*
X161070964Y-87404582D01*
X161056457Y-87391397D01*
X161043690Y-87383428D01*
X161039433Y-87382351D01*
X161028243Y-87377367D01*
X161025213Y-87372824D01*
X161016679Y-87365296D01*
X161007037Y-87363296D01*
X160994143Y-87359592D01*
X160988861Y-87353769D01*
X160980245Y-87345923D01*
X160972302Y-87344242D01*
X160961873Y-87341619D01*
X160959400Y-87337890D01*
X160953964Y-87333115D01*
X160943521Y-87331538D01*
X160930750Y-87328226D01*
X160927642Y-87322011D01*
X160922120Y-87314348D01*
X160911763Y-87312484D01*
X160899826Y-87310309D01*
X160895884Y-87306132D01*
X160890171Y-87302509D01*
X160875566Y-87300209D01*
X160864126Y-87299780D01*
X160844155Y-87298761D01*
X160834400Y-87295229D01*
X160832368Y-87290253D01*
X160829612Y-87284909D01*
X160819763Y-87281939D01*
X160800452Y-87280795D01*
X160791083Y-87280726D01*
X160767925Y-87281362D01*
X160755054Y-87283635D01*
X160750100Y-87288091D01*
X160749797Y-87290253D01*
X160744977Y-87297300D01*
X160729591Y-87299763D01*
X160727567Y-87299780D01*
X160712873Y-87301376D01*
X160705528Y-87305299D01*
X160705336Y-87306132D01*
X160710170Y-87312299D01*
X160711688Y-87312484D01*
X160717323Y-87317628D01*
X160718039Y-87322011D01*
X160720643Y-87327174D01*
X160730011Y-87330136D01*
X160748475Y-87331393D01*
X160762766Y-87331538D01*
X160789019Y-87332367D01*
X160806134Y-87335341D01*
X160817600Y-87341193D01*
X160820507Y-87343663D01*
X160831481Y-87358388D01*
X160830397Y-87370091D01*
X160817698Y-87378000D01*
X160798965Y-87381111D01*
X160781389Y-87383378D01*
X160770540Y-87386965D01*
X160768852Y-87389051D01*
X160763216Y-87392810D01*
X160749138Y-87394901D01*
X160743446Y-87395054D01*
X160725780Y-87396628D01*
X160718500Y-87401843D01*
X160718039Y-87404582D01*
X160712518Y-87412244D01*
X160702160Y-87414109D01*
X160690224Y-87416283D01*
X160686281Y-87420461D01*
X160680755Y-87424893D01*
X160667411Y-87426810D01*
X160666923Y-87426812D01*
X160644936Y-87432913D01*
X160632849Y-87442691D01*
X160618829Y-87453703D01*
X160605099Y-87458559D01*
X160604570Y-87458570D01*
X160593794Y-87461255D01*
X160591008Y-87465375D01*
X160586196Y-87476150D01*
X160575637Y-87486384D01*
X160566055Y-87490328D01*
X160560020Y-87495465D01*
X160559250Y-87499856D01*
X160556574Y-87508318D01*
X160554314Y-87509383D01*
X160544375Y-87514123D01*
X160531315Y-87525721D01*
X160518714Y-87540241D01*
X160510150Y-87553746D01*
X160508437Y-87559838D01*
X160505843Y-87570352D01*
X160502085Y-87572899D01*
X160497311Y-87578334D01*
X160495734Y-87588778D01*
X160493406Y-87600712D01*
X160488929Y-87604657D01*
X160477057Y-87610032D01*
X160467332Y-87622629D01*
X160463976Y-87635281D01*
X160459705Y-87647312D01*
X160454448Y-87651415D01*
X160446603Y-87660031D01*
X160444921Y-87667973D01*
X160442298Y-87678402D01*
X160438570Y-87680876D01*
X160432935Y-87686020D01*
X160432218Y-87690403D01*
X160428788Y-87698856D01*
X160425866Y-87699931D01*
X160420732Y-87705259D01*
X160419515Y-87712833D01*
X160415376Y-87725047D01*
X160409987Y-87729392D01*
X160402020Y-87738037D01*
X160400460Y-87745374D01*
X160396029Y-87758003D01*
X160385292Y-87771747D01*
X160384581Y-87772418D01*
X160373680Y-87785185D01*
X160368729Y-87796245D01*
X160368702Y-87796841D01*
X160363564Y-87807422D01*
X160359175Y-87810204D01*
X160351329Y-87818820D01*
X160349647Y-87826763D01*
X160347024Y-87837192D01*
X160343296Y-87839665D01*
X160337661Y-87844810D01*
X160336944Y-87849193D01*
X160331860Y-87857614D01*
X160327417Y-87858720D01*
X160319667Y-87864056D01*
X160317889Y-87871838D01*
X160313253Y-87883471D01*
X160301260Y-87899754D01*
X160284790Y-87917810D01*
X160266719Y-87934762D01*
X160249924Y-87947733D01*
X160237283Y-87953844D01*
X160235733Y-87953994D01*
X160225192Y-87956761D01*
X160222616Y-87960799D01*
X160216878Y-87973382D01*
X160201953Y-87982398D01*
X160181784Y-87985752D01*
X160165163Y-87987734D01*
X160159175Y-87994099D01*
X160159100Y-87995279D01*
X160153578Y-88002942D01*
X160143221Y-88004807D01*
X160131284Y-88006981D01*
X160127342Y-88011158D01*
X160121369Y-88014248D01*
X160104935Y-88016438D01*
X160080267Y-88017465D01*
X160073154Y-88017510D01*
X160045225Y-88018019D01*
X160027707Y-88019793D01*
X160018338Y-88023206D01*
X160015310Y-88027037D01*
X160010491Y-88031951D01*
X159999135Y-88034918D01*
X159978974Y-88036316D01*
X159958345Y-88036565D01*
X159932292Y-88037275D01*
X159913872Y-88039227D01*
X159905355Y-88042150D01*
X159905036Y-88042916D01*
X159898831Y-88045343D01*
X159880784Y-88047229D01*
X159851745Y-88048527D01*
X159812567Y-88049190D01*
X159790708Y-88049268D01*
X159747022Y-88048923D01*
X159713072Y-88047921D01*
X159689711Y-88046307D01*
X159677789Y-88044131D01*
X159676379Y-88042916D01*
X159670795Y-88038718D01*
X159657066Y-88036620D01*
X159654148Y-88036565D01*
X159639455Y-88038160D01*
X159632110Y-88042083D01*
X159631918Y-88042916D01*
X159626482Y-88047691D01*
X159616039Y-88049268D01*
X159603268Y-88052581D01*
X159600160Y-88058795D01*
X159594677Y-88066481D01*
X159584960Y-88068323D01*
X159571788Y-88071870D01*
X159566105Y-88077850D01*
X159557489Y-88085696D01*
X159549547Y-88087377D01*
X159539118Y-88090000D01*
X159536644Y-88093729D01*
X159531500Y-88099364D01*
X159527117Y-88100081D01*
X159518664Y-88103510D01*
X159517589Y-88106432D01*
X159513077Y-88112510D01*
X159501760Y-88111810D01*
X159486965Y-88105216D01*
X159473070Y-88094629D01*
X159459751Y-88078605D01*
X159454559Y-88060941D01*
X159454073Y-88049714D01*
X159450857Y-88026876D01*
X159442209Y-88011007D01*
X159429633Y-88004815D01*
X159429121Y-88004807D01*
X159425054Y-87999004D01*
X159422667Y-87983710D01*
X159422315Y-87973049D01*
X159421173Y-87954933D01*
X159418252Y-87943434D01*
X159415964Y-87941291D01*
X159411189Y-87935855D01*
X159409612Y-87925412D01*
X159406299Y-87912641D01*
X159400085Y-87909533D01*
X159392400Y-87904050D01*
X159390558Y-87894334D01*
X159386875Y-87881104D01*
X159380679Y-87875344D01*
X159374473Y-87869226D01*
X159372311Y-87855448D01*
X159372740Y-87841318D01*
X159374679Y-87811083D01*
X159414376Y-87809192D01*
X159436010Y-87808421D01*
X159447886Y-87809429D01*
X159452927Y-87813269D01*
X159454059Y-87820992D01*
X159454073Y-87823483D01*
X159455062Y-87833083D01*
X159460198Y-87837872D01*
X159472733Y-87839508D01*
X159485831Y-87839665D01*
X159503947Y-87838523D01*
X159515446Y-87835602D01*
X159517589Y-87833314D01*
X159522734Y-87827679D01*
X159527117Y-87826962D01*
X159534876Y-87821670D01*
X159536644Y-87814284D01*
X159540968Y-87807206D01*
X159553080Y-87792585D01*
X159571686Y-87771740D01*
X159595494Y-87745995D01*
X159623212Y-87716670D01*
X159653546Y-87685087D01*
X159685204Y-87652567D01*
X159716893Y-87620433D01*
X159747322Y-87590005D01*
X159775197Y-87562605D01*
X159799225Y-87539555D01*
X159818114Y-87522176D01*
X159830572Y-87511790D01*
X159834871Y-87509383D01*
X159839869Y-87503949D01*
X159841520Y-87493504D01*
X159843694Y-87481567D01*
X159847872Y-87477625D01*
X159852920Y-87472270D01*
X159854223Y-87464062D01*
X159858689Y-87450518D01*
X159869496Y-87436355D01*
X159870102Y-87435783D01*
X159883546Y-87415794D01*
X159885981Y-87401510D01*
X159888936Y-87385695D01*
X159895509Y-87378296D01*
X159903195Y-87369721D01*
X159905036Y-87360949D01*
X159909849Y-87347539D01*
X159920915Y-87335332D01*
X159931647Y-87324224D01*
X159936177Y-87309227D01*
X159936794Y-87295715D01*
X159938094Y-87278980D01*
X159941371Y-87269130D01*
X159943146Y-87268023D01*
X159949046Y-87263904D01*
X159947038Y-87254167D01*
X159940424Y-87245338D01*
X159929273Y-87238736D01*
X159916430Y-87236411D01*
X159906973Y-87238754D01*
X159905036Y-87242616D01*
X159899726Y-87247806D01*
X159892552Y-87248968D01*
X159880967Y-87253174D01*
X159866168Y-87263464D01*
X159852181Y-87276348D01*
X159843032Y-87288334D01*
X159841520Y-87293215D01*
X159835929Y-87297519D01*
X159822147Y-87299710D01*
X159818836Y-87299780D01*
X159798245Y-87303287D01*
X159783493Y-87312408D01*
X159778004Y-87324733D01*
X159772371Y-87328994D01*
X159758297Y-87331365D01*
X159752598Y-87331538D01*
X159736689Y-87332947D01*
X159727840Y-87336466D01*
X159727192Y-87337890D01*
X159721605Y-87342073D01*
X159707851Y-87344181D01*
X159704762Y-87344242D01*
X159686750Y-87346970D01*
X159678676Y-87353769D01*
X159670175Y-87361172D01*
X159659820Y-87363296D01*
X159647560Y-87366734D01*
X159644621Y-87372824D01*
X159641221Y-87378815D01*
X159629450Y-87381741D01*
X159612863Y-87382351D01*
X159594747Y-87383494D01*
X159583248Y-87386415D01*
X159581105Y-87388703D01*
X159575777Y-87393837D01*
X159568203Y-87395054D01*
X159555989Y-87399193D01*
X159551644Y-87404582D01*
X159543143Y-87411985D01*
X159532789Y-87414109D01*
X159521181Y-87416372D01*
X159517589Y-87420461D01*
X159512154Y-87425235D01*
X159501710Y-87426812D01*
X159488939Y-87430125D01*
X159485831Y-87436340D01*
X159480399Y-87444052D01*
X159471460Y-87445867D01*
X159457511Y-87450707D01*
X159445164Y-87461746D01*
X159433126Y-87473058D01*
X159421426Y-87477625D01*
X159411598Y-87480463D01*
X159409612Y-87483977D01*
X159404468Y-87489612D01*
X159400085Y-87490328D01*
X159391664Y-87495412D01*
X159390558Y-87499856D01*
X159388330Y-87504504D01*
X159380199Y-87507399D01*
X159363996Y-87508903D01*
X159337547Y-87509378D01*
X159333393Y-87509383D01*
X159304046Y-87508832D01*
X159285861Y-87507039D01*
X159277340Y-87503793D01*
X159276229Y-87501363D01*
X159271570Y-87492203D01*
X159260365Y-87481430D01*
X159260350Y-87481419D01*
X159252326Y-87474318D01*
X159247575Y-87465748D01*
X159245252Y-87452409D01*
X159244512Y-87431000D01*
X159244471Y-87419372D01*
X159245059Y-87392520D01*
X159247095Y-87376030D01*
X159250987Y-87367601D01*
X159253998Y-87365593D01*
X159262440Y-87357596D01*
X159263526Y-87353089D01*
X159267183Y-87345083D01*
X159269877Y-87344242D01*
X159274652Y-87338806D01*
X159276229Y-87328363D01*
X159278557Y-87316429D01*
X159283034Y-87312484D01*
X159293809Y-87307673D01*
X159304042Y-87297113D01*
X159307987Y-87287531D01*
X159312867Y-87281005D01*
X159314792Y-87280726D01*
X159326747Y-87275306D01*
X159336414Y-87262508D01*
X159339745Y-87249421D01*
X159343611Y-87238721D01*
X159349272Y-87236265D01*
X159357721Y-87232595D01*
X159358800Y-87229459D01*
X159363611Y-87218684D01*
X159374171Y-87208451D01*
X159383752Y-87204507D01*
X159389787Y-87199369D01*
X159390558Y-87194979D01*
X159394227Y-87186531D01*
X159397363Y-87185452D01*
X159408138Y-87180641D01*
X159418371Y-87170081D01*
X159422315Y-87160499D01*
X159427195Y-87153973D01*
X159429121Y-87153694D01*
X159439896Y-87148883D01*
X159450129Y-87138323D01*
X159454073Y-87128741D01*
X159458953Y-87122215D01*
X159460879Y-87121936D01*
X159471654Y-87117125D01*
X159481887Y-87106565D01*
X159485831Y-87096983D01*
X159490711Y-87090457D01*
X159492637Y-87090178D01*
X159503411Y-87085367D01*
X159513645Y-87074807D01*
X159517589Y-87065225D01*
X159522469Y-87058699D01*
X159524395Y-87058420D01*
X159535169Y-87053609D01*
X159545403Y-87043049D01*
X159549347Y-87033467D01*
X159554659Y-87027929D01*
X159561974Y-87026662D01*
X159572156Y-87022322D01*
X159588035Y-87010739D01*
X159606765Y-86994066D01*
X159612357Y-86988553D01*
X159632603Y-86969685D01*
X159649996Y-86956392D01*
X159662022Y-86950558D01*
X159663246Y-86950443D01*
X159673928Y-86946572D01*
X159676379Y-86940916D01*
X159680685Y-86932478D01*
X159684399Y-86931388D01*
X159693559Y-86926729D01*
X159704332Y-86915525D01*
X159704343Y-86915509D01*
X159715418Y-86904275D01*
X159725209Y-86899630D01*
X159735355Y-86895292D01*
X159747923Y-86884749D01*
X159748866Y-86883751D01*
X159761761Y-86872839D01*
X159773094Y-86867898D01*
X159773690Y-86867873D01*
X159782481Y-86863617D01*
X159796816Y-86852633D01*
X159813870Y-86837591D01*
X159830822Y-86821164D01*
X159844847Y-86806023D01*
X159853122Y-86794841D01*
X159854223Y-86791655D01*
X159859659Y-86786879D01*
X159870102Y-86785302D01*
X159882039Y-86783128D01*
X159885981Y-86778950D01*
X159891417Y-86774176D01*
X159901860Y-86772599D01*
X159914631Y-86769286D01*
X159917739Y-86763071D01*
X159922824Y-86754651D01*
X159927267Y-86753544D01*
X159935719Y-86750114D01*
X159936794Y-86747192D01*
X159941985Y-86741670D01*
X159947022Y-86740841D01*
X159957303Y-86736279D01*
X159972023Y-86724715D01*
X159988027Y-86709332D01*
X160002161Y-86693312D01*
X160011271Y-86679838D01*
X160013013Y-86674250D01*
X160018156Y-86663381D01*
X160022541Y-86660567D01*
X160031096Y-86653977D01*
X160029890Y-86647548D01*
X160022541Y-86645567D01*
X160014878Y-86640045D01*
X160013013Y-86629688D01*
X160010839Y-86617751D01*
X160006662Y-86613809D01*
X160001027Y-86608664D01*
X160000310Y-86604282D01*
X159994788Y-86596619D01*
X159984431Y-86594754D01*
X159972494Y-86592580D01*
X159968552Y-86588403D01*
X159963407Y-86582768D01*
X159959025Y-86582051D01*
X159950604Y-86576967D01*
X159949497Y-86572524D01*
X159946068Y-86564071D01*
X159943146Y-86562996D01*
X159938371Y-86557561D01*
X159936794Y-86547117D01*
X159934466Y-86535183D01*
X159929989Y-86531238D01*
X159918011Y-86525807D01*
X159908360Y-86512950D01*
X159905036Y-86499735D01*
X159901029Y-86487328D01*
X159895509Y-86482723D01*
X159888105Y-86474222D01*
X159887483Y-86471189D01*
X160190858Y-86471189D01*
X160194151Y-86491552D01*
X160205657Y-86506100D01*
X160206737Y-86506967D01*
X160217967Y-86519148D01*
X160222616Y-86530810D01*
X160227365Y-86542455D01*
X160238494Y-86554087D01*
X160249891Y-86567025D01*
X160254373Y-86580383D01*
X160257975Y-86592017D01*
X160263901Y-86594754D01*
X160272350Y-86598424D01*
X160273428Y-86601560D01*
X160278239Y-86612334D01*
X160288799Y-86622568D01*
X160298381Y-86626512D01*
X160304416Y-86631649D01*
X160305186Y-86636040D01*
X160310708Y-86643702D01*
X160321065Y-86645567D01*
X160333002Y-86647741D01*
X160336944Y-86651919D01*
X160342915Y-86655012D01*
X160359337Y-86657202D01*
X160383974Y-86658227D01*
X160390933Y-86658270D01*
X160417076Y-86658416D01*
X160433032Y-86659346D01*
X160441315Y-86661801D01*
X160444439Y-86666521D01*
X160444921Y-86674149D01*
X160443260Y-86684887D01*
X160435786Y-86689283D01*
X160422691Y-86690028D01*
X160406248Y-86692094D01*
X160400500Y-86698688D01*
X160400460Y-86699555D01*
X160395087Y-86707293D01*
X160386897Y-86709083D01*
X160373353Y-86713549D01*
X160359190Y-86724356D01*
X160358618Y-86724962D01*
X160338764Y-86738359D01*
X160324544Y-86740841D01*
X160311035Y-86742654D01*
X160305192Y-86747032D01*
X160305186Y-86747192D01*
X160300042Y-86752827D01*
X160295659Y-86753544D01*
X160288678Y-86758262D01*
X160286163Y-86773419D01*
X160286131Y-86776228D01*
X160282213Y-86798256D01*
X160271568Y-86812642D01*
X160258003Y-86817060D01*
X160246370Y-86821280D01*
X160235319Y-86829763D01*
X160222616Y-86842466D01*
X160235319Y-86855169D01*
X160248869Y-86864492D01*
X160262233Y-86867576D01*
X160271483Y-86864094D01*
X160273428Y-86858345D01*
X160275527Y-86853902D01*
X160283217Y-86851050D01*
X160298587Y-86849475D01*
X160323726Y-86848863D01*
X160336944Y-86848818D01*
X160365839Y-86848649D01*
X160384335Y-86847832D01*
X160394734Y-86845898D01*
X160399339Y-86842381D01*
X160400452Y-86836811D01*
X160400460Y-86835915D01*
X160396321Y-86823702D01*
X160390933Y-86819357D01*
X160383738Y-86810271D01*
X160381405Y-86794150D01*
X160381405Y-86772599D01*
X160429042Y-86772599D01*
X160453045Y-86773387D01*
X160469775Y-86775520D01*
X160476634Y-86778652D01*
X160476679Y-86778950D01*
X160482471Y-86782325D01*
X160497633Y-86784616D01*
X160515215Y-86785302D01*
X160537472Y-86784684D01*
X160551909Y-86781616D01*
X160563394Y-86774281D01*
X160574717Y-86763071D01*
X160589782Y-86750287D01*
X160604826Y-86742415D01*
X160616787Y-86740468D01*
X160622606Y-86745456D01*
X160622766Y-86747192D01*
X160627910Y-86752827D01*
X160632293Y-86753544D01*
X160640714Y-86758628D01*
X160641820Y-86763071D01*
X160645506Y-86769307D01*
X160658076Y-86772179D01*
X160670856Y-86772599D01*
X160695148Y-86775670D01*
X160711601Y-86784111D01*
X160718021Y-86796761D01*
X160718039Y-86797551D01*
X160723382Y-86802989D01*
X160731376Y-86804357D01*
X160741672Y-86809158D01*
X160759756Y-86823333D01*
X160785232Y-86846538D01*
X160817704Y-86878432D01*
X160822964Y-86883751D01*
X160848555Y-86909488D01*
X160871114Y-86931745D01*
X160889127Y-86949062D01*
X160901082Y-86959983D01*
X160905355Y-86963146D01*
X160913921Y-86967822D01*
X160923083Y-86977960D01*
X160927629Y-86987724D01*
X160927642Y-86988099D01*
X160932522Y-86994625D01*
X160934447Y-86994904D01*
X160945222Y-86999715D01*
X160955455Y-87010275D01*
X160959400Y-87019857D01*
X160964537Y-87025892D01*
X160968927Y-87026662D01*
X160977177Y-87031801D01*
X160978454Y-87036911D01*
X160981566Y-87043862D01*
X160992824Y-87044925D01*
X160998098Y-87044276D01*
X161014745Y-87044656D01*
X161021008Y-87049906D01*
X161029435Y-87055839D01*
X161046727Y-87058393D01*
X161049002Y-87058420D01*
X161066410Y-87060082D01*
X161073387Y-87065552D01*
X161073728Y-87067948D01*
X161075289Y-87071269D01*
X161081017Y-87073735D01*
X161092479Y-87075466D01*
X161111240Y-87076582D01*
X161138867Y-87077205D01*
X161176928Y-87077453D01*
X161197784Y-87077475D01*
X161241370Y-87077341D01*
X161273858Y-87076860D01*
X161296854Y-87075912D01*
X161311959Y-87074378D01*
X161320779Y-87072137D01*
X161324917Y-87069071D01*
X161325495Y-87067948D01*
X161334029Y-87060420D01*
X161343671Y-87058420D01*
X161356632Y-87054554D01*
X161362001Y-87048490D01*
X161368458Y-87042033D01*
X161372573Y-87042739D01*
X161379654Y-87040321D01*
X161393009Y-87030357D01*
X161410339Y-87014677D01*
X161420002Y-87005032D01*
X161438220Y-86986675D01*
X161453132Y-86972408D01*
X161462563Y-86964274D01*
X161464552Y-86963146D01*
X161473551Y-86958139D01*
X161482395Y-86946959D01*
X161486575Y-86935366D01*
X161486582Y-86935002D01*
X161490841Y-86926312D01*
X161502248Y-86911433D01*
X161518745Y-86892930D01*
X161527867Y-86883516D01*
X161548904Y-86861377D01*
X161561726Y-86845018D01*
X161567914Y-86832128D01*
X161569152Y-86823192D01*
X161571012Y-86809908D01*
X161575485Y-86804357D01*
X161575504Y-86804357D01*
X161581139Y-86799212D01*
X161581855Y-86794829D01*
X161586940Y-86786409D01*
X161591383Y-86785302D01*
X161599045Y-86779780D01*
X161600910Y-86769423D01*
X161603084Y-86757486D01*
X161607262Y-86753544D01*
X161610212Y-86747505D01*
X161612346Y-86730609D01*
X161613478Y-86704686D01*
X161613613Y-86690028D01*
X161613928Y-86660409D01*
X161615082Y-86641393D01*
X161617387Y-86630891D01*
X161621158Y-86626813D01*
X161623141Y-86626512D01*
X161630187Y-86621692D01*
X161632651Y-86606306D01*
X161632668Y-86604282D01*
X161630602Y-86587840D01*
X161624008Y-86582091D01*
X161623141Y-86582051D01*
X161614720Y-86576967D01*
X161613613Y-86572524D01*
X161608793Y-86565477D01*
X161593407Y-86563014D01*
X161591383Y-86562996D01*
X161576061Y-86564417D01*
X161569879Y-86569965D01*
X161569152Y-86575699D01*
X161564266Y-86593904D01*
X161549249Y-86606087D01*
X161523565Y-86612542D01*
X161499285Y-86613809D01*
X161474532Y-86612886D01*
X161459175Y-86610297D01*
X161454824Y-86607004D01*
X161450012Y-86596229D01*
X161439453Y-86585996D01*
X161429871Y-86582051D01*
X161423345Y-86577171D01*
X161423066Y-86575246D01*
X161418255Y-86564471D01*
X161407695Y-86554238D01*
X161398113Y-86550293D01*
X161392078Y-86545156D01*
X161391308Y-86540766D01*
X161386776Y-86532333D01*
X161382854Y-86531238D01*
X161373963Y-86526171D01*
X161365901Y-86515359D01*
X161356993Y-86503755D01*
X161348949Y-86499480D01*
X161342487Y-86494012D01*
X161340495Y-86483601D01*
X161337872Y-86471514D01*
X161327542Y-86467790D01*
X161324616Y-86467722D01*
X161312298Y-86464874D01*
X161308740Y-86454632D01*
X161308737Y-86454181D01*
X161304316Y-86441931D01*
X161293131Y-86426540D01*
X161286507Y-86419674D01*
X161273425Y-86406031D01*
X161265435Y-86395179D01*
X161264276Y-86391930D01*
X161258843Y-86386836D01*
X161248397Y-86385152D01*
X161236460Y-86382978D01*
X161232518Y-86378800D01*
X161227373Y-86373165D01*
X161222991Y-86372449D01*
X161214542Y-86368779D01*
X161213463Y-86365643D01*
X161207726Y-86353060D01*
X161192800Y-86344045D01*
X161172632Y-86340691D01*
X161156011Y-86338709D01*
X161150023Y-86332343D01*
X161149947Y-86331163D01*
X161146518Y-86322711D01*
X161143596Y-86321636D01*
X161139398Y-86316052D01*
X161137299Y-86302323D01*
X161137244Y-86299405D01*
X161138839Y-86284712D01*
X161142762Y-86277367D01*
X161143596Y-86277175D01*
X161149231Y-86272030D01*
X161149947Y-86267647D01*
X161151899Y-86263464D01*
X161159071Y-86260678D01*
X161173443Y-86259032D01*
X161196990Y-86258269D01*
X161222991Y-86258120D01*
X161296034Y-86258120D01*
X161296034Y-86242241D01*
X161293188Y-86229926D01*
X161282947Y-86226365D01*
X161282471Y-86226362D01*
X161268927Y-86221896D01*
X161254764Y-86211089D01*
X161254192Y-86210483D01*
X161240356Y-86199487D01*
X161227017Y-86194618D01*
X161226470Y-86194604D01*
X161215985Y-86192000D01*
X161213463Y-86188253D01*
X161208135Y-86183119D01*
X161200561Y-86181901D01*
X161188347Y-86177762D01*
X161184002Y-86172374D01*
X161175335Y-86165252D01*
X161161668Y-86162846D01*
X161140689Y-86156903D01*
X161128273Y-86146967D01*
X161122518Y-86141150D01*
X161116350Y-86136961D01*
X161107725Y-86134134D01*
X161094602Y-86132401D01*
X161074939Y-86131493D01*
X161046692Y-86131145D01*
X161007820Y-86131088D01*
X161007037Y-86131088D01*
X160967962Y-86131143D01*
X160939547Y-86131483D01*
X160919752Y-86132378D01*
X160906532Y-86134095D01*
X160897847Y-86136901D01*
X160891653Y-86141064D01*
X160885908Y-86146850D01*
X160885800Y-86146967D01*
X160871964Y-86157964D01*
X160858625Y-86162833D01*
X160858078Y-86162846D01*
X160847596Y-86165634D01*
X160845071Y-86169652D01*
X160840260Y-86180426D01*
X160829700Y-86190660D01*
X160820118Y-86194604D01*
X160813592Y-86199484D01*
X160813313Y-86201409D01*
X160808502Y-86212184D01*
X160797942Y-86222418D01*
X160788361Y-86226362D01*
X160781834Y-86231242D01*
X160781555Y-86233167D01*
X160776744Y-86243942D01*
X160766184Y-86254175D01*
X160756603Y-86258120D01*
X160751065Y-86263432D01*
X160749797Y-86270751D01*
X160745164Y-86286556D01*
X160734002Y-86300751D01*
X160720416Y-86308545D01*
X160717070Y-86308933D01*
X160707435Y-86314473D01*
X160704190Y-86323159D01*
X160697985Y-86335312D01*
X160690437Y-86339621D01*
X160673700Y-86346936D01*
X160660255Y-86359620D01*
X160654530Y-86373449D01*
X160654524Y-86373860D01*
X160649891Y-86382954D01*
X160638645Y-86385152D01*
X160626710Y-86387480D01*
X160622766Y-86391957D01*
X160617954Y-86402732D01*
X160607395Y-86412965D01*
X160597813Y-86416910D01*
X160591287Y-86421790D01*
X160591008Y-86423715D01*
X160586196Y-86434490D01*
X160575637Y-86444723D01*
X160566055Y-86448668D01*
X160560020Y-86453805D01*
X160559250Y-86458195D01*
X160553819Y-86465925D01*
X160544959Y-86467785D01*
X160531174Y-86472966D01*
X160514209Y-86486942D01*
X160508437Y-86493129D01*
X160493822Y-86507506D01*
X160480695Y-86516694D01*
X160475091Y-86518473D01*
X160465663Y-86521523D01*
X160463976Y-86524887D01*
X160458831Y-86530522D01*
X160454448Y-86531238D01*
X160446000Y-86534908D01*
X160444921Y-86538044D01*
X160440975Y-86549804D01*
X160428294Y-86557580D01*
X160405614Y-86561824D01*
X160375054Y-86562996D01*
X160342125Y-86561587D01*
X160320352Y-86557058D01*
X160308469Y-86548958D01*
X160305186Y-86538044D01*
X160300306Y-86531517D01*
X160298381Y-86531238D01*
X160287606Y-86526427D01*
X160277373Y-86515867D01*
X160273428Y-86506286D01*
X160268291Y-86500251D01*
X160263901Y-86499480D01*
X160255480Y-86494396D01*
X160254373Y-86489953D01*
X160251178Y-86481497D01*
X160248464Y-86480426D01*
X160243078Y-86475025D01*
X160240524Y-86466135D01*
X160236466Y-86456142D01*
X160225621Y-86451271D01*
X160214676Y-86449872D01*
X160199114Y-86449268D01*
X160192438Y-86453220D01*
X160190886Y-86465093D01*
X160190858Y-86471189D01*
X159887483Y-86471189D01*
X159885981Y-86463867D01*
X159883188Y-86452248D01*
X159872448Y-86448711D01*
X159870102Y-86448668D01*
X159862227Y-86449209D01*
X159857512Y-86452562D01*
X159855146Y-86461317D01*
X159854320Y-86478066D01*
X159854223Y-86499480D01*
X159853966Y-86524782D01*
X159852759Y-86539944D01*
X159849953Y-86547527D01*
X159844898Y-86550092D01*
X159841321Y-86550293D01*
X159829107Y-86546154D01*
X159824762Y-86540766D01*
X159816124Y-86532831D01*
X159808629Y-86531238D01*
X159792006Y-86525799D01*
X159780505Y-86512434D01*
X159777942Y-86501522D01*
X159773389Y-86490970D01*
X159761809Y-86476617D01*
X159752598Y-86467722D01*
X159736196Y-86450405D01*
X159727859Y-86435216D01*
X159727254Y-86431201D01*
X159724643Y-86420048D01*
X159720386Y-86416910D01*
X159709612Y-86412099D01*
X159699378Y-86401539D01*
X159695434Y-86391957D01*
X159690296Y-86385922D01*
X159685906Y-86385152D01*
X159677651Y-86380014D01*
X159676379Y-86374924D01*
X159681096Y-86363959D01*
X159693085Y-86348945D01*
X159709100Y-86332961D01*
X159725897Y-86319083D01*
X159740232Y-86310389D01*
X159745946Y-86308933D01*
X159756527Y-86305031D01*
X159758950Y-86299405D01*
X159762619Y-86290957D01*
X159765755Y-86289878D01*
X159775511Y-86285797D01*
X159781634Y-86280804D01*
X159789200Y-86270177D01*
X159790708Y-86264925D01*
X159795587Y-86258399D01*
X159797513Y-86258120D01*
X159807269Y-86254039D01*
X159813392Y-86249046D01*
X159820958Y-86238419D01*
X159822465Y-86233167D01*
X159827603Y-86227133D01*
X159831993Y-86226362D01*
X159840448Y-86223093D01*
X159841520Y-86220313D01*
X159845719Y-86213118D01*
X159856757Y-86199916D01*
X159872302Y-86183485D01*
X159873278Y-86182506D01*
X159889102Y-86165366D01*
X159900480Y-86150532D01*
X159905030Y-86141122D01*
X159905036Y-86140918D01*
X159908374Y-86132273D01*
X159911388Y-86131088D01*
X159917023Y-86125944D01*
X159917739Y-86121561D01*
X159921200Y-86113109D01*
X159924149Y-86112034D01*
X159934101Y-86107379D01*
X159947178Y-86096087D01*
X159959571Y-86082166D01*
X159967473Y-86069624D01*
X159968552Y-86065297D01*
X159971721Y-86056282D01*
X159974904Y-86054869D01*
X159980539Y-86049725D01*
X159981255Y-86045342D01*
X159986339Y-86036921D01*
X159990783Y-86035815D01*
X159998527Y-86030460D01*
X160000310Y-86022481D01*
X160004802Y-86011030D01*
X160016786Y-85994545D01*
X160032068Y-85978052D01*
X160047969Y-85961127D01*
X160059361Y-85946417D01*
X160063824Y-85937056D01*
X160063826Y-85936943D01*
X160068415Y-85923970D01*
X160078861Y-85912747D01*
X160088778Y-85908783D01*
X160094813Y-85903645D01*
X160095584Y-85899255D01*
X160100668Y-85890835D01*
X160105111Y-85889728D01*
X160112820Y-85884289D01*
X160114639Y-85875251D01*
X160119528Y-85860333D01*
X160127342Y-85851618D01*
X160137285Y-85839822D01*
X160140045Y-85830261D01*
X160144420Y-85818931D01*
X160155073Y-85804542D01*
X160168296Y-85791143D01*
X160180381Y-85782787D01*
X160184448Y-85781751D01*
X160189558Y-85776401D01*
X160190858Y-85768313D01*
X160195509Y-85756513D01*
X160208053Y-85739796D01*
X160222616Y-85724587D01*
X160240021Y-85706018D01*
X160251253Y-85689998D01*
X160254373Y-85680860D01*
X160258176Y-85669942D01*
X160263901Y-85667422D01*
X160272350Y-85663753D01*
X160273428Y-85660617D01*
X160277509Y-85650861D01*
X160282502Y-85644738D01*
X160293129Y-85637172D01*
X160298381Y-85635664D01*
X160304907Y-85630785D01*
X160305186Y-85628859D01*
X160309267Y-85619103D01*
X160314260Y-85612980D01*
X160324887Y-85605414D01*
X160330139Y-85603907D01*
X160336665Y-85599027D01*
X160336944Y-85597101D01*
X160341025Y-85587345D01*
X160346018Y-85581222D01*
X160356645Y-85573656D01*
X160361897Y-85572149D01*
X160368423Y-85567269D01*
X160368702Y-85565343D01*
X160373513Y-85554568D01*
X160384073Y-85544335D01*
X160393655Y-85540391D01*
X160399881Y-85535338D01*
X160400460Y-85531937D01*
X160405528Y-85523046D01*
X160416339Y-85514984D01*
X160427943Y-85506076D01*
X160432218Y-85498032D01*
X160437535Y-85491249D01*
X160445348Y-85489578D01*
X160457338Y-85485165D01*
X160472566Y-85473999D01*
X160479443Y-85467347D01*
X160494648Y-85454082D01*
X160508959Y-85446131D01*
X160513951Y-85445117D01*
X160524715Y-85442428D01*
X160527492Y-85438312D01*
X160532303Y-85427537D01*
X160542863Y-85417303D01*
X160552444Y-85413359D01*
X160558479Y-85408222D01*
X160559250Y-85403832D01*
X160564623Y-85396094D01*
X160572812Y-85394304D01*
X160586357Y-85389838D01*
X160600520Y-85379031D01*
X160601091Y-85378425D01*
X160614043Y-85367508D01*
X160625496Y-85362571D01*
X160626092Y-85362546D01*
X160639245Y-85357979D01*
X160650547Y-85347550D01*
X160654524Y-85337594D01*
X160659934Y-85332398D01*
X160669723Y-85330788D01*
X160682895Y-85327241D01*
X160688578Y-85321261D01*
X160696819Y-85315094D01*
X160712163Y-85311997D01*
X160729349Y-85312146D01*
X160743110Y-85315717D01*
X160747371Y-85319298D01*
X160747435Y-85327414D01*
X160744570Y-85329355D01*
X160738810Y-85336869D01*
X160737094Y-85347197D01*
X160733685Y-85359570D01*
X160727567Y-85362546D01*
X160719116Y-85366060D01*
X160718039Y-85369056D01*
X160713772Y-85376215D01*
X160702410Y-85389597D01*
X160686111Y-85406721D01*
X160679930Y-85412856D01*
X160660322Y-85433672D01*
X160647058Y-85451138D01*
X160641840Y-85462995D01*
X160641820Y-85463511D01*
X160643104Y-85474227D01*
X160648074Y-85475240D01*
X160658413Y-85466355D01*
X160663495Y-85460996D01*
X160675483Y-85450167D01*
X160684880Y-85445158D01*
X160685438Y-85445117D01*
X160692865Y-85440888D01*
X160706717Y-85429557D01*
X160724594Y-85413158D01*
X160734154Y-85403832D01*
X160757970Y-85381501D01*
X160775765Y-85368201D01*
X160789137Y-85362798D01*
X160792278Y-85362546D01*
X160809012Y-85357228D01*
X160828857Y-85340812D01*
X160833086Y-85336362D01*
X160850790Y-85319843D01*
X160863704Y-85313548D01*
X160867045Y-85313932D01*
X160875424Y-85313178D01*
X160876829Y-85308358D01*
X160881918Y-85300112D01*
X160886356Y-85299030D01*
X160894777Y-85293946D01*
X160895884Y-85289503D01*
X160901405Y-85281840D01*
X160911763Y-85279976D01*
X160923699Y-85277801D01*
X160927642Y-85273624D01*
X160933277Y-85269647D01*
X160947353Y-85267434D01*
X160953048Y-85267272D01*
X160968956Y-85265763D01*
X160977806Y-85261994D01*
X160978454Y-85260467D01*
X160984263Y-85247620D01*
X161000224Y-85238919D01*
X161024143Y-85235524D01*
X161025638Y-85235514D01*
X161042840Y-85234271D01*
X161053253Y-85231121D01*
X161054674Y-85229163D01*
X161060261Y-85224980D01*
X161074014Y-85222872D01*
X161077103Y-85222811D01*
X161095115Y-85220083D01*
X161103189Y-85213284D01*
X161112207Y-85206098D01*
X161127867Y-85203756D01*
X161142877Y-85201773D01*
X161151107Y-85196946D01*
X161151330Y-85196432D01*
X161159243Y-85192337D01*
X161179563Y-85190423D01*
X161205892Y-85190485D01*
X161232690Y-85190741D01*
X161249326Y-85189524D01*
X161258296Y-85186454D01*
X161261824Y-85181931D01*
X161271179Y-85174246D01*
X161286507Y-85171999D01*
X161303337Y-85169149D01*
X161311034Y-85162471D01*
X161317313Y-85156678D01*
X161331996Y-85153678D01*
X161352999Y-85152944D01*
X161373379Y-85151984D01*
X161387206Y-85149474D01*
X161391308Y-85146592D01*
X161397495Y-85144088D01*
X161415417Y-85142162D01*
X161444119Y-85140872D01*
X161482644Y-85140276D01*
X161496109Y-85140241D01*
X161535454Y-85140089D01*
X161563790Y-85139534D01*
X161582809Y-85138419D01*
X161594204Y-85136592D01*
X161599667Y-85133898D01*
X161600910Y-85130713D01*
X161603009Y-85126270D01*
X161610699Y-85123418D01*
X161626068Y-85121843D01*
X161651208Y-85121231D01*
X161664426Y-85121186D01*
X161693932Y-85120582D01*
X161715265Y-85118892D01*
X161726594Y-85116300D01*
X161727942Y-85114834D01*
X161734157Y-85112455D01*
X161752275Y-85110594D01*
X161781505Y-85109293D01*
X161821056Y-85108595D01*
X161848622Y-85108483D01*
X161893836Y-85108810D01*
D12*
X166370000Y-54610000D02*
X167640000Y-54610000D01*
X166370000Y-55880000D02*
X166370000Y-54610000D01*
X168682929Y-81660000D02*
X169080000Y-81660000D01*
X168682929Y-80900000D02*
X169080000Y-80900000D01*
X177740000Y-81660000D02*
X171740000Y-81660000D01*
X177740000Y-80900000D02*
X177740000Y-81660000D01*
X171740000Y-80900000D02*
X177740000Y-80900000D01*
X169080000Y-80010000D02*
X171740000Y-80010000D01*
X168682929Y-79120000D02*
X169080000Y-79120000D01*
X168682929Y-78360000D02*
X169080000Y-78360000D01*
X177740000Y-79120000D02*
X171740000Y-79120000D01*
X177740000Y-78360000D02*
X177740000Y-79120000D01*
X171740000Y-78360000D02*
X177740000Y-78360000D01*
X169080000Y-77470000D02*
X171740000Y-77470000D01*
X168682929Y-76580000D02*
X169080000Y-76580000D01*
X168682929Y-75820000D02*
X169080000Y-75820000D01*
X177740000Y-76580000D02*
X171740000Y-76580000D01*
X177740000Y-75820000D02*
X177740000Y-76580000D01*
X171740000Y-75820000D02*
X177740000Y-75820000D01*
X169080000Y-74930000D02*
X171740000Y-74930000D01*
X168682929Y-74040000D02*
X169080000Y-74040000D01*
X168682929Y-73280000D02*
X169080000Y-73280000D01*
X177740000Y-74040000D02*
X171740000Y-74040000D01*
X177740000Y-73280000D02*
X177740000Y-74040000D01*
X171740000Y-73280000D02*
X177740000Y-73280000D01*
X169080000Y-72390000D02*
X171740000Y-72390000D01*
X168682929Y-71500000D02*
X169080000Y-71500000D01*
X168682929Y-70740000D02*
X169080000Y-70740000D01*
X177740000Y-71500000D02*
X171740000Y-71500000D01*
X177740000Y-70740000D02*
X177740000Y-71500000D01*
X171740000Y-70740000D02*
X177740000Y-70740000D01*
X169080000Y-69850000D02*
X171740000Y-69850000D01*
X168682929Y-68960000D02*
X169080000Y-68960000D01*
X168682929Y-68200000D02*
X169080000Y-68200000D01*
X177740000Y-68960000D02*
X171740000Y-68960000D01*
X177740000Y-68200000D02*
X177740000Y-68960000D01*
X171740000Y-68200000D02*
X177740000Y-68200000D01*
X169080000Y-67310000D02*
X171740000Y-67310000D01*
X168682929Y-66420000D02*
X169080000Y-66420000D01*
X168682929Y-65660000D02*
X169080000Y-65660000D01*
X177740000Y-66420000D02*
X171740000Y-66420000D01*
X177740000Y-65660000D02*
X177740000Y-66420000D01*
X171740000Y-65660000D02*
X177740000Y-65660000D01*
X169080000Y-64770000D02*
X171740000Y-64770000D01*
X168682929Y-63880000D02*
X169080000Y-63880000D01*
X168682929Y-63120000D02*
X169080000Y-63120000D01*
X177740000Y-63880000D02*
X171740000Y-63880000D01*
X177740000Y-63120000D02*
X177740000Y-63880000D01*
X171740000Y-63120000D02*
X177740000Y-63120000D01*
X169080000Y-62230000D02*
X171740000Y-62230000D01*
X168682929Y-61340000D02*
X169080000Y-61340000D01*
X168682929Y-60580000D02*
X169080000Y-60580000D01*
X177740000Y-61340000D02*
X171740000Y-61340000D01*
X177740000Y-60580000D02*
X177740000Y-61340000D01*
X171740000Y-60580000D02*
X177740000Y-60580000D01*
X169080000Y-59690000D02*
X171740000Y-59690000D01*
X168682929Y-58800000D02*
X169080000Y-58800000D01*
X168682929Y-58040000D02*
X169080000Y-58040000D01*
X177740000Y-58800000D02*
X171740000Y-58800000D01*
X177740000Y-58040000D02*
X177740000Y-58800000D01*
X171740000Y-58040000D02*
X177740000Y-58040000D01*
X169080000Y-57150000D02*
X171740000Y-57150000D01*
X168750000Y-56260000D02*
X169080000Y-56260000D01*
X168750000Y-55500000D02*
X169080000Y-55500000D01*
X171740000Y-56160000D02*
X177740000Y-56160000D01*
X171740000Y-56040000D02*
X177740000Y-56040000D01*
X171740000Y-55920000D02*
X177740000Y-55920000D01*
X171740000Y-55800000D02*
X177740000Y-55800000D01*
X171740000Y-55680000D02*
X177740000Y-55680000D01*
X171740000Y-55560000D02*
X177740000Y-55560000D01*
X177740000Y-56260000D02*
X171740000Y-56260000D01*
X177740000Y-55500000D02*
X177740000Y-56260000D01*
X171740000Y-55500000D02*
X177740000Y-55500000D01*
X171740000Y-54550000D02*
X169080000Y-54550000D01*
X171740000Y-82610000D02*
X171740000Y-54550000D01*
X169080000Y-82610000D02*
X171740000Y-82610000D01*
X169080000Y-54550000D02*
X169080000Y-82610000D01*
X159970000Y-57420000D02*
X161370000Y-57420000D01*
X162070000Y-58120000D02*
X162070000Y-58720000D01*
X161370000Y-59420000D02*
X159970000Y-59420000D01*
X159270000Y-58720000D02*
X159270000Y-58120000D01*
X159270000Y-58120000D02*
G75*
G02X159970000Y-57420000I700000J0D01*
G01*
X159970000Y-59420000D02*
G75*
G02X159270000Y-58720000I0J700000D01*
G01*
X162070000Y-58720000D02*
G75*
G02X161370000Y-59420000I-700000J0D01*
G01*
X161370000Y-57420000D02*
G75*
G02X162070000Y-58120000I0J-700000D01*
G01*
D10*
X165425000Y-51270000D02*
X164775000Y-51270000D01*
X165900000Y-51745000D02*
X165425000Y-51270000D01*
X165900000Y-52395000D02*
X165900000Y-51745000D01*
X165425000Y-52870000D02*
X165900000Y-52395000D01*
X164775000Y-52870000D02*
X165425000Y-52870000D01*
X164300000Y-52395000D02*
X164775000Y-52870000D01*
X164300000Y-51745000D02*
X164300000Y-52395000D01*
X164775000Y-51270000D02*
X164300000Y-51745000D01*
X171215476Y-53062380D02*
X171215476Y-53776666D01*
X171167857Y-53919523D01*
X171072619Y-54014761D01*
X170929761Y-54062380D01*
X170834523Y-54062380D01*
X171644047Y-53157619D02*
X171691666Y-53110000D01*
X171786904Y-53062380D01*
X172025000Y-53062380D01*
X172120238Y-53110000D01*
X172167857Y-53157619D01*
X172215476Y-53252857D01*
X172215476Y-53348095D01*
X172167857Y-53490952D01*
X171596428Y-54062380D01*
X172215476Y-54062380D01*
X173072619Y-53062380D02*
X172882142Y-53062380D01*
X172786904Y-53110000D01*
X172739285Y-53157619D01*
X172644047Y-53300476D01*
X172596428Y-53490952D01*
X172596428Y-53871904D01*
X172644047Y-53967142D01*
X172691666Y-54014761D01*
X172786904Y-54062380D01*
X172977380Y-54062380D01*
X173072619Y-54014761D01*
X173120238Y-53967142D01*
X173167857Y-53871904D01*
X173167857Y-53633809D01*
X173120238Y-53538571D01*
X173072619Y-53490952D01*
X172977380Y-53443333D01*
X172786904Y-53443333D01*
X172691666Y-53490952D01*
X172644047Y-53538571D01*
X172596428Y-53633809D01*
M02*
