G04 #@! TF.GenerationSoftware,KiCad,Pcbnew,(5.1.5)-3*
G04 #@! TF.CreationDate,2020-01-25T22:14:14+03:00*
G04 #@! TF.ProjectId,Sharp_11pin_to_15pin_Adapter,53686172-705f-4313-9170-696e5f746f5f,rev?*
G04 #@! TF.SameCoordinates,Original*
G04 #@! TF.FileFunction,Soldermask,Top*
G04 #@! TF.FilePolarity,Negative*
%FSLAX46Y46*%
G04 Gerber Fmt 4.6, Leading zero omitted, Abs format (unit mm)*
G04 Created by KiCad (PCBNEW (5.1.5)-3) date 2020-01-25 22:14:14*
%MOMM*%
%LPD*%
G04 APERTURE LIST*
%ADD10C,0.010000*%
%ADD11C,0.100000*%
G04 APERTURE END LIST*
D10*
G36*
X136757149Y-117728349D02*
G01*
X136797028Y-117728641D01*
X136826919Y-117729221D01*
X136848181Y-117730166D01*
X136862169Y-117731553D01*
X136870242Y-117733459D01*
X136873756Y-117735961D01*
X136874242Y-117737797D01*
X136879763Y-117745459D01*
X136890121Y-117747324D01*
X136902058Y-117749498D01*
X136906000Y-117753675D01*
X136911435Y-117758450D01*
X136921879Y-117760027D01*
X136934650Y-117763340D01*
X136937758Y-117769554D01*
X136940685Y-117775087D01*
X136951060Y-117778057D01*
X136971276Y-117779063D01*
X136975867Y-117779082D01*
X136996167Y-117780046D01*
X137009929Y-117782565D01*
X137013977Y-117785433D01*
X137019121Y-117791068D01*
X137023504Y-117791785D01*
X137031953Y-117795454D01*
X137033032Y-117798590D01*
X137038451Y-117810545D01*
X137051250Y-117820212D01*
X137064336Y-117823543D01*
X137074898Y-117826302D01*
X137077493Y-117830348D01*
X137082939Y-117842355D01*
X137095868Y-117851984D01*
X137109251Y-117855301D01*
X137122784Y-117858913D01*
X137135182Y-117867257D01*
X137140989Y-117876593D01*
X137141009Y-117877078D01*
X137145504Y-117884821D01*
X137155749Y-117895137D01*
X137166885Y-117903615D01*
X137172990Y-117906114D01*
X137185663Y-117910254D01*
X137199372Y-117919993D01*
X137209156Y-117931307D01*
X137211078Y-117937014D01*
X137214705Y-117949630D01*
X137222716Y-117962218D01*
X137231436Y-117969338D01*
X137233107Y-117969629D01*
X137241489Y-117974789D01*
X137249974Y-117986641D01*
X137254895Y-117999749D01*
X137255135Y-118002296D01*
X137260374Y-118013447D01*
X137264865Y-118016387D01*
X137272115Y-118024847D01*
X137274392Y-118036122D01*
X137276542Y-118048153D01*
X137280744Y-118052200D01*
X137282719Y-118058482D01*
X137284345Y-118077056D01*
X137285606Y-118107518D01*
X137286492Y-118149460D01*
X137286987Y-118202477D01*
X137287095Y-118247688D01*
X137287127Y-118302721D01*
X137287280Y-118346448D01*
X137287640Y-118380267D01*
X137288294Y-118405575D01*
X137289328Y-118423769D01*
X137290830Y-118436247D01*
X137292885Y-118444405D01*
X137295580Y-118449642D01*
X137299001Y-118453354D01*
X137299871Y-118454114D01*
X137315749Y-118462266D01*
X137331629Y-118465053D01*
X137346703Y-118467903D01*
X137350611Y-118474581D01*
X137356132Y-118482243D01*
X137366490Y-118484108D01*
X137378427Y-118486282D01*
X137382369Y-118490460D01*
X137388081Y-118494083D01*
X137402687Y-118496383D01*
X137414127Y-118496811D01*
X137432243Y-118497954D01*
X137443742Y-118500875D01*
X137445885Y-118503163D01*
X137451565Y-118506934D01*
X137465954Y-118509210D01*
X137474770Y-118509514D01*
X137496292Y-118511446D01*
X137511132Y-118518605D01*
X137518372Y-118525393D01*
X137531655Y-118536103D01*
X137548415Y-118540661D01*
X137562530Y-118541272D01*
X137581679Y-118542450D01*
X137590588Y-118546476D01*
X137591971Y-118550800D01*
X137596792Y-118557846D01*
X137612177Y-118560310D01*
X137614202Y-118560327D01*
X137628896Y-118561922D01*
X137636240Y-118565845D01*
X137636432Y-118566679D01*
X137641577Y-118572314D01*
X137645960Y-118573030D01*
X137654381Y-118578115D01*
X137655487Y-118582558D01*
X137658414Y-118588090D01*
X137668789Y-118591060D01*
X137689005Y-118592066D01*
X137693597Y-118592085D01*
X137713896Y-118593049D01*
X137727658Y-118595568D01*
X137731706Y-118598437D01*
X137737120Y-118603287D01*
X137746906Y-118604788D01*
X137760078Y-118608336D01*
X137765761Y-118614316D01*
X137774377Y-118622161D01*
X137782320Y-118623843D01*
X137792749Y-118626466D01*
X137795222Y-118630195D01*
X137800857Y-118634172D01*
X137814933Y-118636384D01*
X137820629Y-118636546D01*
X137838294Y-118638119D01*
X137845574Y-118643335D01*
X137846035Y-118646074D01*
X137851567Y-118653730D01*
X137862113Y-118655601D01*
X137875640Y-118658965D01*
X137881848Y-118665128D01*
X137890933Y-118672323D01*
X137907055Y-118674656D01*
X137921476Y-118676298D01*
X137928479Y-118680319D01*
X137928606Y-118681007D01*
X137934041Y-118685782D01*
X137944484Y-118687359D01*
X137956416Y-118689819D01*
X137960363Y-118694553D01*
X137965968Y-118706735D01*
X137979890Y-118717352D01*
X137997787Y-118723753D01*
X138009249Y-118724419D01*
X138025955Y-118725402D01*
X138037547Y-118730249D01*
X138037707Y-118730404D01*
X138050507Y-118737161D01*
X138057361Y-118738172D01*
X138071555Y-118742603D01*
X138083322Y-118752917D01*
X138087395Y-118763124D01*
X138093006Y-118767493D01*
X138106923Y-118769815D01*
X138111294Y-118769930D01*
X138131153Y-118772766D01*
X138144811Y-118782912D01*
X138147117Y-118785809D01*
X138162241Y-118798500D01*
X138180383Y-118801687D01*
X138194719Y-118803344D01*
X138201615Y-118807398D01*
X138201724Y-118808039D01*
X138207159Y-118812814D01*
X138217603Y-118814391D01*
X138229537Y-118816719D01*
X138233482Y-118821196D01*
X138238857Y-118833068D01*
X138251454Y-118842792D01*
X138264106Y-118846149D01*
X138276137Y-118850419D01*
X138280240Y-118855676D01*
X138288856Y-118863522D01*
X138296798Y-118865203D01*
X138307227Y-118867826D01*
X138309701Y-118871555D01*
X138314845Y-118877190D01*
X138319228Y-118877907D01*
X138327649Y-118882991D01*
X138328756Y-118887434D01*
X138334277Y-118895097D01*
X138344635Y-118896961D01*
X138356571Y-118899136D01*
X138360514Y-118903313D01*
X138365949Y-118908088D01*
X138376392Y-118909664D01*
X138389164Y-118912977D01*
X138392271Y-118919192D01*
X138397793Y-118926854D01*
X138408150Y-118928719D01*
X138420087Y-118930893D01*
X138424029Y-118935071D01*
X138429465Y-118939845D01*
X138439908Y-118941422D01*
X138451844Y-118943669D01*
X138455787Y-118947988D01*
X138460364Y-118957100D01*
X138471471Y-118969707D01*
X138485176Y-118982101D01*
X138497547Y-118990575D01*
X138502716Y-118992235D01*
X138512628Y-118996265D01*
X138526057Y-119006159D01*
X138528230Y-119008114D01*
X138541711Y-119018654D01*
X138552517Y-119023872D01*
X138553674Y-119023993D01*
X138563050Y-119028660D01*
X138573910Y-119039872D01*
X138585805Y-119051173D01*
X138597229Y-119055751D01*
X138608788Y-119060398D01*
X138612280Y-119065278D01*
X138620277Y-119073720D01*
X138624784Y-119074806D01*
X138632791Y-119078463D01*
X138633632Y-119081157D01*
X138639067Y-119085932D01*
X138649511Y-119087509D01*
X138662282Y-119090822D01*
X138665390Y-119097036D01*
X138670911Y-119104699D01*
X138681269Y-119106564D01*
X138693205Y-119108738D01*
X138697148Y-119112915D01*
X138702040Y-119119010D01*
X138703953Y-119119267D01*
X138714728Y-119124078D01*
X138724961Y-119134638D01*
X138728906Y-119144220D01*
X138734338Y-119149334D01*
X138744785Y-119151025D01*
X138756719Y-119153353D01*
X138760664Y-119157830D01*
X138765868Y-119169376D01*
X138777756Y-119179294D01*
X138789107Y-119182783D01*
X138799407Y-119186966D01*
X138814080Y-119197610D01*
X138822293Y-119205013D01*
X138837384Y-119217933D01*
X138850192Y-119225952D01*
X138854719Y-119227244D01*
X138864150Y-119231576D01*
X138878205Y-119242711D01*
X138888424Y-119252650D01*
X138903116Y-119266745D01*
X138915195Y-119275971D01*
X138920182Y-119278057D01*
X138928481Y-119282354D01*
X138941753Y-119293409D01*
X138951940Y-119303463D01*
X138967266Y-119317641D01*
X138980763Y-119326863D01*
X138986840Y-119328869D01*
X138995761Y-119333308D01*
X139010397Y-119345161D01*
X139028153Y-119362234D01*
X139035661Y-119370155D01*
X139053598Y-119388662D01*
X139069020Y-119402878D01*
X139079497Y-119410632D01*
X139081832Y-119411440D01*
X139090666Y-119415751D01*
X139103883Y-119426686D01*
X139110882Y-119433670D01*
X139125937Y-119446933D01*
X139139912Y-119454918D01*
X139144744Y-119455963D01*
X139156088Y-119460540D01*
X139170968Y-119472176D01*
X139179868Y-119481307D01*
X139194483Y-119495685D01*
X139207610Y-119504873D01*
X139213214Y-119506651D01*
X139222642Y-119509702D01*
X139224329Y-119513065D01*
X139229474Y-119518700D01*
X139233857Y-119519417D01*
X139242306Y-119523086D01*
X139243384Y-119526222D01*
X139248195Y-119536997D01*
X139258755Y-119547230D01*
X139268337Y-119551175D01*
X139274863Y-119556055D01*
X139275142Y-119557980D01*
X139279953Y-119568755D01*
X139290513Y-119578988D01*
X139300095Y-119582933D01*
X139306625Y-119587499D01*
X139306900Y-119589284D01*
X139312027Y-119594960D01*
X139316182Y-119595636D01*
X139325512Y-119599885D01*
X139339718Y-119610828D01*
X139350618Y-119621042D01*
X139365572Y-119635001D01*
X139377632Y-119644229D01*
X139382621Y-119646449D01*
X139386403Y-119647022D01*
X139391322Y-119649610D01*
X139398874Y-119655514D01*
X139410555Y-119666034D01*
X139427860Y-119682470D01*
X139452284Y-119706125D01*
X139461126Y-119714728D01*
X139481814Y-119733940D01*
X139500084Y-119749223D01*
X139513543Y-119758665D01*
X139518817Y-119760777D01*
X139527329Y-119766128D01*
X139529206Y-119776656D01*
X139532029Y-119788953D01*
X139542438Y-119792710D01*
X139543497Y-119792737D01*
X139559097Y-119796342D01*
X139572868Y-119804634D01*
X139579859Y-119814466D01*
X139580018Y-119815981D01*
X139585032Y-119823150D01*
X139595897Y-119830645D01*
X139607501Y-119839553D01*
X139611776Y-119847597D01*
X139615579Y-119855336D01*
X139618128Y-119856051D01*
X139624223Y-119860944D01*
X139624479Y-119862856D01*
X139629291Y-119873631D01*
X139639850Y-119883864D01*
X139649432Y-119887809D01*
X139655958Y-119892689D01*
X139656237Y-119894614D01*
X139661684Y-119906621D01*
X139674613Y-119916250D01*
X139687995Y-119919567D01*
X139701796Y-119923272D01*
X139714185Y-119931862D01*
X139719748Y-119941546D01*
X139719753Y-119941798D01*
X139724427Y-119950319D01*
X139734557Y-119959457D01*
X139744307Y-119964014D01*
X139744706Y-119964028D01*
X139751232Y-119968908D01*
X139751511Y-119970833D01*
X139756322Y-119981608D01*
X139766882Y-119991841D01*
X139776464Y-119995786D01*
X139782499Y-120000923D01*
X139783269Y-120005313D01*
X139788561Y-120013073D01*
X139795940Y-120014841D01*
X139806591Y-120019089D01*
X139822528Y-120030250D01*
X139840373Y-120045944D01*
X139841045Y-120046599D01*
X139857774Y-120062248D01*
X139871320Y-120073590D01*
X139878931Y-120078331D01*
X139879186Y-120078357D01*
X139884254Y-120083511D01*
X139884895Y-120087884D01*
X139887753Y-120096344D01*
X139890173Y-120097411D01*
X139896678Y-120102403D01*
X139903949Y-120113290D01*
X139912858Y-120124894D01*
X139920902Y-120129169D01*
X139928637Y-120133237D01*
X139929356Y-120135975D01*
X139934167Y-120146749D01*
X139944727Y-120156983D01*
X139954308Y-120160927D01*
X139960835Y-120165807D01*
X139961114Y-120167733D01*
X139965925Y-120178507D01*
X139976485Y-120188741D01*
X139986066Y-120192685D01*
X139992592Y-120197565D01*
X139992872Y-120199490D01*
X139997683Y-120210265D01*
X140008243Y-120220499D01*
X140017824Y-120224443D01*
X140024354Y-120229010D01*
X140024630Y-120230795D01*
X140029522Y-120236889D01*
X140031435Y-120237146D01*
X140042210Y-120241957D01*
X140052443Y-120252517D01*
X140056387Y-120262099D01*
X140061440Y-120268326D01*
X140064842Y-120268904D01*
X140073732Y-120273972D01*
X140081794Y-120284783D01*
X140090335Y-120296364D01*
X140097673Y-120300662D01*
X140105754Y-120305705D01*
X140113552Y-120316541D01*
X140122460Y-120328145D01*
X140130504Y-120332420D01*
X140138251Y-120335653D01*
X140138958Y-120337801D01*
X140143067Y-120344542D01*
X140154036Y-120357927D01*
X140169833Y-120375531D01*
X140177068Y-120383233D01*
X140194229Y-120401848D01*
X140207378Y-120417216D01*
X140214483Y-120426914D01*
X140215177Y-120428664D01*
X140220336Y-120433443D01*
X140224705Y-120434046D01*
X140233125Y-120439130D01*
X140234232Y-120443573D01*
X140237662Y-120452025D01*
X140240584Y-120453100D01*
X140246219Y-120458245D01*
X140246935Y-120462628D01*
X140243219Y-120468888D01*
X140230566Y-120471754D01*
X140218154Y-120472155D01*
X140196777Y-120474116D01*
X140186452Y-120480206D01*
X140185716Y-120481682D01*
X140177344Y-120490130D01*
X140172541Y-120491210D01*
X140161841Y-120495068D01*
X140147224Y-120504637D01*
X140143525Y-120507616D01*
X140122901Y-120519980D01*
X140108761Y-120521105D01*
X140095031Y-120521995D01*
X140090141Y-120526929D01*
X140081760Y-120534253D01*
X140074563Y-120535671D01*
X140062642Y-120540025D01*
X140058684Y-120545198D01*
X140050046Y-120553134D01*
X140042551Y-120554726D01*
X140027804Y-120559054D01*
X140020488Y-120564311D01*
X140010790Y-120570745D01*
X140005902Y-120570807D01*
X139999249Y-120573293D01*
X139989047Y-120583337D01*
X139986410Y-120586628D01*
X139971150Y-120600807D01*
X139956988Y-120605538D01*
X139945514Y-120607838D01*
X139942059Y-120611890D01*
X139936711Y-120616962D01*
X139928682Y-120618242D01*
X139915449Y-120622977D01*
X139902815Y-120634121D01*
X139891293Y-120645297D01*
X139881023Y-120649999D01*
X139880955Y-120650000D01*
X139870497Y-120654349D01*
X139857777Y-120664917D01*
X139856869Y-120665879D01*
X139842849Y-120676891D01*
X139829118Y-120681746D01*
X139828590Y-120681757D01*
X139817826Y-120685083D01*
X139815027Y-120690212D01*
X139809959Y-120699102D01*
X139799148Y-120707164D01*
X139787544Y-120716072D01*
X139783269Y-120724116D01*
X139777958Y-120730921D01*
X139770266Y-120732570D01*
X139759126Y-120736836D01*
X139743156Y-120747939D01*
X139728271Y-120761152D01*
X139712449Y-120775942D01*
X139699836Y-120786269D01*
X139693637Y-120789734D01*
X139688629Y-120794889D01*
X139687995Y-120799262D01*
X139682474Y-120806925D01*
X139672116Y-120808789D01*
X139660182Y-120811118D01*
X139656237Y-120815595D01*
X139652074Y-120825159D01*
X139643049Y-120835417D01*
X139634363Y-120840531D01*
X139634007Y-120840547D01*
X139625486Y-120845221D01*
X139616347Y-120855351D01*
X139611791Y-120865101D01*
X139611776Y-120865500D01*
X139606724Y-120871727D01*
X139603322Y-120872305D01*
X139594432Y-120877373D01*
X139586370Y-120888184D01*
X139573828Y-120901301D01*
X139563066Y-120904063D01*
X139551653Y-120906380D01*
X139548260Y-120910415D01*
X139544525Y-120918777D01*
X139536010Y-120928869D01*
X139526752Y-120936628D01*
X139520826Y-120938028D01*
X139515991Y-120940782D01*
X139508003Y-120951520D01*
X139506225Y-120954436D01*
X139496750Y-120967413D01*
X139488542Y-120973794D01*
X139487624Y-120973931D01*
X139479765Y-120978966D01*
X139472041Y-120989810D01*
X139463500Y-121001390D01*
X139456162Y-121005688D01*
X139448081Y-121010731D01*
X139440283Y-121021567D01*
X139431375Y-121033171D01*
X139423331Y-121037446D01*
X139415596Y-121041514D01*
X139414877Y-121044252D01*
X139410066Y-121055027D01*
X139399506Y-121065260D01*
X139389924Y-121069204D01*
X139383394Y-121073771D01*
X139383119Y-121075556D01*
X139378227Y-121081651D01*
X139376314Y-121081908D01*
X139365539Y-121086719D01*
X139355306Y-121097278D01*
X139351361Y-121106860D01*
X139346309Y-121113087D01*
X139342907Y-121113665D01*
X139334017Y-121118733D01*
X139325955Y-121129544D01*
X139318123Y-121141077D01*
X139312178Y-121145423D01*
X139307107Y-121150343D01*
X139306900Y-121152229D01*
X139302089Y-121163004D01*
X139291529Y-121173237D01*
X139281947Y-121177181D01*
X139275721Y-121182234D01*
X139275142Y-121185635D01*
X139270074Y-121194526D01*
X139259263Y-121202588D01*
X139247683Y-121211129D01*
X139243384Y-121218467D01*
X139238342Y-121226548D01*
X139227505Y-121234346D01*
X139215931Y-121242786D01*
X139211626Y-121249928D01*
X139206648Y-121257585D01*
X139194435Y-121267119D01*
X139192132Y-121268529D01*
X139180145Y-121276811D01*
X139175481Y-121282531D01*
X139175724Y-121283131D01*
X139174155Y-121289076D01*
X139166470Y-121298427D01*
X139156728Y-121306987D01*
X139149184Y-121310565D01*
X139142679Y-121315557D01*
X139135407Y-121326444D01*
X139127292Y-121337996D01*
X139120788Y-121342323D01*
X139112257Y-121346951D01*
X139101580Y-121357570D01*
X139093153Y-121369282D01*
X139090946Y-121375582D01*
X139086734Y-121383123D01*
X139076024Y-121395653D01*
X139068716Y-121403080D01*
X139055546Y-121418377D01*
X139047574Y-121432474D01*
X139046485Y-121437484D01*
X139043846Y-121447866D01*
X139040133Y-121450300D01*
X139034039Y-121455192D01*
X139033782Y-121457105D01*
X139028971Y-121467880D01*
X139018411Y-121478113D01*
X139008829Y-121482058D01*
X139002303Y-121486937D01*
X139002024Y-121488863D01*
X138997213Y-121499638D01*
X138986653Y-121509871D01*
X138977071Y-121513816D01*
X138971957Y-121519248D01*
X138970266Y-121529694D01*
X138967938Y-121541629D01*
X138963461Y-121545573D01*
X138953705Y-121549654D01*
X138947582Y-121554647D01*
X138940015Y-121565274D01*
X138938508Y-121570526D01*
X138933455Y-121576753D01*
X138930054Y-121577331D01*
X138921164Y-121582399D01*
X138913102Y-121593210D01*
X138904661Y-121604784D01*
X138897519Y-121609089D01*
X138889831Y-121614064D01*
X138880341Y-121626243D01*
X138879112Y-121628256D01*
X138870154Y-121639992D01*
X138862756Y-121644078D01*
X138861864Y-121643760D01*
X138856296Y-121643994D01*
X138855937Y-121645680D01*
X138851690Y-121654582D01*
X138841405Y-121667468D01*
X138828764Y-121680440D01*
X138817452Y-121689598D01*
X138812498Y-121691660D01*
X138806817Y-121697053D01*
X138805125Y-121706466D01*
X138799202Y-121721865D01*
X138789246Y-121729769D01*
X138777642Y-121738678D01*
X138773367Y-121746722D01*
X138769564Y-121754461D01*
X138767015Y-121755176D01*
X138760920Y-121760068D01*
X138760664Y-121761981D01*
X138756583Y-121771737D01*
X138751590Y-121777860D01*
X138740963Y-121785427D01*
X138735711Y-121786934D01*
X138729185Y-121791814D01*
X138728906Y-121793739D01*
X138724094Y-121804514D01*
X138713535Y-121814747D01*
X138703953Y-121818692D01*
X138698838Y-121824124D01*
X138697148Y-121834571D01*
X138694819Y-121846505D01*
X138690342Y-121850450D01*
X138679568Y-121855261D01*
X138669334Y-121865821D01*
X138665390Y-121875402D01*
X138660510Y-121881928D01*
X138658584Y-121882208D01*
X138647810Y-121887019D01*
X138637576Y-121897579D01*
X138633632Y-121907160D01*
X138628495Y-121913195D01*
X138624104Y-121913966D01*
X138615648Y-121917140D01*
X138614577Y-121919836D01*
X138610356Y-121926038D01*
X138598964Y-121939143D01*
X138582311Y-121957193D01*
X138562306Y-121978231D01*
X138540857Y-122000298D01*
X138519873Y-122021435D01*
X138501264Y-122039685D01*
X138486938Y-122053089D01*
X138478804Y-122059690D01*
X138477892Y-122060052D01*
X138469471Y-122064720D01*
X138460385Y-122074834D01*
X138455806Y-122084553D01*
X138455787Y-122085005D01*
X138450908Y-122091531D01*
X138448982Y-122091810D01*
X138438207Y-122096621D01*
X138427974Y-122107181D01*
X138424029Y-122116763D01*
X138419150Y-122123289D01*
X138417224Y-122123568D01*
X138406449Y-122128379D01*
X138396216Y-122138939D01*
X138392271Y-122148521D01*
X138387392Y-122155047D01*
X138385466Y-122155326D01*
X138374691Y-122160137D01*
X138364458Y-122170697D01*
X138360514Y-122180279D01*
X138355634Y-122186805D01*
X138353708Y-122187084D01*
X138342933Y-122191895D01*
X138332700Y-122202455D01*
X138328756Y-122212036D01*
X138323876Y-122218563D01*
X138321950Y-122218842D01*
X138312386Y-122223006D01*
X138302128Y-122232030D01*
X138297014Y-122240717D01*
X138296998Y-122241072D01*
X138291556Y-122250993D01*
X138278607Y-122259488D01*
X138263209Y-122263294D01*
X138262518Y-122263303D01*
X138250361Y-122265139D01*
X138246185Y-122268801D01*
X138241777Y-122276819D01*
X138230188Y-122290715D01*
X138213868Y-122308088D01*
X138195271Y-122326533D01*
X138176846Y-122343649D01*
X138161045Y-122357033D01*
X138150321Y-122364282D01*
X138148104Y-122364928D01*
X138134610Y-122369453D01*
X138123156Y-122379848D01*
X138119153Y-122389881D01*
X138114273Y-122396407D01*
X138112348Y-122396686D01*
X138101573Y-122401497D01*
X138091340Y-122412057D01*
X138087395Y-122421639D01*
X138082515Y-122428165D01*
X138080590Y-122428444D01*
X138069815Y-122433255D01*
X138059582Y-122443815D01*
X138055637Y-122453397D01*
X138050205Y-122458511D01*
X138039758Y-122460202D01*
X138027824Y-122462530D01*
X138023879Y-122467007D01*
X138019758Y-122476484D01*
X138010831Y-122486740D01*
X138002259Y-122491937D01*
X138001837Y-122491960D01*
X137994868Y-122495846D01*
X137984307Y-122504663D01*
X137970950Y-122513984D01*
X137960273Y-122517366D01*
X137949049Y-122521720D01*
X137935869Y-122532294D01*
X137934957Y-122533245D01*
X137922935Y-122544041D01*
X137913623Y-122549076D01*
X137913031Y-122549124D01*
X137904062Y-122553703D01*
X137893269Y-122564070D01*
X137885447Y-122575168D01*
X137884144Y-122579585D01*
X137879218Y-122585781D01*
X137867153Y-122594503D01*
X137865090Y-122595751D01*
X137852312Y-122604856D01*
X137846139Y-122612312D01*
X137846035Y-122612999D01*
X137840677Y-122617763D01*
X137832472Y-122618992D01*
X137818928Y-122623457D01*
X137804765Y-122634265D01*
X137804193Y-122634871D01*
X137791487Y-122645766D01*
X137780557Y-122650721D01*
X137779962Y-122650750D01*
X137769101Y-122655723D01*
X137764566Y-122661258D01*
X137755497Y-122668389D01*
X137749306Y-122668168D01*
X137739042Y-122669973D01*
X137727684Y-122678786D01*
X137719996Y-122690340D01*
X137719003Y-122695283D01*
X137713857Y-122700854D01*
X137709476Y-122701562D01*
X137701023Y-122704992D01*
X137699948Y-122707914D01*
X137694670Y-122713198D01*
X137688135Y-122714266D01*
X137676143Y-122719028D01*
X137664397Y-122730145D01*
X137651716Y-122741505D01*
X137638780Y-122746024D01*
X137626232Y-122749938D01*
X137621432Y-122755551D01*
X137612765Y-122763607D01*
X137605858Y-122765078D01*
X137592774Y-122769545D01*
X137582401Y-122777829D01*
X137568068Y-122789935D01*
X137549623Y-122801070D01*
X137532363Y-122808295D01*
X137525194Y-122809539D01*
X137516298Y-122814189D01*
X137505641Y-122825373D01*
X137505607Y-122825418D01*
X137492492Y-122837198D01*
X137474208Y-122841210D01*
X137469784Y-122841297D01*
X137454442Y-122842895D01*
X137446288Y-122846858D01*
X137445885Y-122848103D01*
X137440489Y-122860013D01*
X137427801Y-122869711D01*
X137414955Y-122873055D01*
X137402608Y-122875873D01*
X137398248Y-122879407D01*
X137389802Y-122883702D01*
X137374410Y-122885734D01*
X137372467Y-122885758D01*
X137356174Y-122887898D01*
X137350630Y-122894689D01*
X137350611Y-122895286D01*
X137345527Y-122903707D01*
X137341084Y-122904813D01*
X137332631Y-122908243D01*
X137331556Y-122911165D01*
X137326135Y-122915990D01*
X137316131Y-122917516D01*
X137300019Y-122921319D01*
X137291178Y-122927044D01*
X137278503Y-122934966D01*
X137270996Y-122936571D01*
X137259806Y-122941233D01*
X137247857Y-122952442D01*
X137247851Y-122952450D01*
X137234870Y-122963919D01*
X137217182Y-122968129D01*
X137210112Y-122968329D01*
X137188812Y-122971246D01*
X137172477Y-122981896D01*
X137168658Y-122985796D01*
X137155186Y-122996829D01*
X137142891Y-123001496D01*
X137141161Y-123001408D01*
X137129814Y-123004454D01*
X137126111Y-123009348D01*
X137118095Y-123016230D01*
X137099929Y-123019024D01*
X137093372Y-123019142D01*
X137071954Y-123021069D01*
X137061549Y-123027069D01*
X137060735Y-123028669D01*
X137052073Y-123036702D01*
X137045055Y-123038197D01*
X137035109Y-123040990D01*
X137033032Y-123044548D01*
X137027618Y-123049399D01*
X137017832Y-123050900D01*
X137004660Y-123054447D01*
X136998977Y-123060427D01*
X136989787Y-123067633D01*
X136972891Y-123069955D01*
X136958118Y-123071537D01*
X136950675Y-123075431D01*
X136950461Y-123076306D01*
X136945025Y-123081081D01*
X136934582Y-123082658D01*
X136922645Y-123084832D01*
X136918703Y-123089009D01*
X136912991Y-123092633D01*
X136898385Y-123094932D01*
X136886945Y-123095361D01*
X136866974Y-123096381D01*
X136857219Y-123099912D01*
X136855187Y-123104888D01*
X136849666Y-123112551D01*
X136839308Y-123114416D01*
X136827372Y-123116590D01*
X136823429Y-123120767D01*
X136818015Y-123125618D01*
X136808230Y-123127119D01*
X136795058Y-123130667D01*
X136789374Y-123136646D01*
X136783095Y-123142440D01*
X136768413Y-123145440D01*
X136747410Y-123146174D01*
X136727029Y-123147133D01*
X136713203Y-123149643D01*
X136709101Y-123152525D01*
X136703772Y-123157659D01*
X136696198Y-123158877D01*
X136683985Y-123163016D01*
X136679640Y-123168404D01*
X136670554Y-123175599D01*
X136654433Y-123177932D01*
X136640011Y-123179573D01*
X136633008Y-123183595D01*
X136632882Y-123184283D01*
X136627175Y-123187932D01*
X136612607Y-123190229D01*
X136601653Y-123190635D01*
X136583199Y-123191518D01*
X136570922Y-123193770D01*
X136568307Y-123195398D01*
X136558791Y-123204359D01*
X136540763Y-123212820D01*
X136518375Y-123219302D01*
X136495780Y-123222328D01*
X136492433Y-123222393D01*
X136470476Y-123223970D01*
X136459180Y-123229007D01*
X136457334Y-123231920D01*
X136448882Y-123239143D01*
X136437437Y-123241447D01*
X136422650Y-123243692D01*
X136404648Y-123249292D01*
X136387584Y-123256546D01*
X136375609Y-123263750D01*
X136372466Y-123268076D01*
X136366696Y-123270781D01*
X136351697Y-123272640D01*
X136334357Y-123273205D01*
X136314058Y-123274170D01*
X136300295Y-123276689D01*
X136296247Y-123279557D01*
X136290812Y-123284332D01*
X136280368Y-123285909D01*
X136267597Y-123289221D01*
X136264489Y-123295436D01*
X136260177Y-123302144D01*
X136245979Y-123304832D01*
X136239763Y-123304963D01*
X136220042Y-123307528D01*
X136211380Y-123314491D01*
X136204478Y-123320598D01*
X136188430Y-123323549D01*
X136172966Y-123324018D01*
X136153016Y-123325093D01*
X136138686Y-123327857D01*
X136134282Y-123330370D01*
X136125337Y-123335676D01*
X136117829Y-123336721D01*
X136105776Y-123340976D01*
X136101645Y-123346249D01*
X136094686Y-123352384D01*
X136078513Y-123355329D01*
X136063511Y-123355776D01*
X136036659Y-123358072D01*
X136016376Y-123364302D01*
X136013427Y-123366002D01*
X135999280Y-123372347D01*
X135988861Y-123372789D01*
X135979106Y-123375134D01*
X135967069Y-123386155D01*
X135965631Y-123387970D01*
X135957049Y-123397895D01*
X135947917Y-123403483D01*
X135934406Y-123405967D01*
X135912687Y-123406581D01*
X135907851Y-123406589D01*
X135885408Y-123407445D01*
X135869942Y-123409731D01*
X135864339Y-123412940D01*
X135858916Y-123417756D01*
X135848835Y-123419292D01*
X135835387Y-123421634D01*
X135829406Y-123425643D01*
X135820399Y-123431081D01*
X135813831Y-123431995D01*
X135802161Y-123436548D01*
X135798527Y-123441522D01*
X135792248Y-123447316D01*
X135777565Y-123450316D01*
X135756562Y-123451050D01*
X135736181Y-123452010D01*
X135722355Y-123454519D01*
X135718253Y-123457401D01*
X135712839Y-123462252D01*
X135703054Y-123463753D01*
X135689881Y-123467301D01*
X135684198Y-123473280D01*
X135675655Y-123480108D01*
X135656242Y-123482752D01*
X135651761Y-123482808D01*
X135634646Y-123484061D01*
X135624338Y-123487234D01*
X135622979Y-123489159D01*
X135617396Y-123493358D01*
X135603666Y-123495456D01*
X135600749Y-123495511D01*
X135584306Y-123497577D01*
X135578558Y-123504171D01*
X135578518Y-123505038D01*
X135573434Y-123513459D01*
X135568991Y-123514566D01*
X135560538Y-123517995D01*
X135559463Y-123520917D01*
X135553845Y-123524968D01*
X135539882Y-123527148D01*
X135535164Y-123527269D01*
X135513006Y-123523666D01*
X135495758Y-123511187D01*
X135495507Y-123510921D01*
X135485853Y-123499676D01*
X135484627Y-123493448D01*
X135491109Y-123488439D01*
X135491224Y-123488375D01*
X135500492Y-123478104D01*
X135502299Y-123470987D01*
X135506420Y-123458332D01*
X135515002Y-123446161D01*
X135524388Y-123429689D01*
X135527705Y-123413007D01*
X135530663Y-123397221D01*
X135537233Y-123389831D01*
X135545517Y-123381111D01*
X135546760Y-123375258D01*
X135551128Y-123363655D01*
X135561732Y-123350295D01*
X135562639Y-123349424D01*
X135573568Y-123335954D01*
X135578495Y-123323553D01*
X135578518Y-123322911D01*
X135581606Y-123313210D01*
X135585323Y-123311315D01*
X135597195Y-123305939D01*
X135606920Y-123293343D01*
X135610276Y-123280690D01*
X135614547Y-123268659D01*
X135619803Y-123264557D01*
X135627576Y-123255960D01*
X135629331Y-123247640D01*
X135633888Y-123236177D01*
X135646070Y-123219778D01*
X135661089Y-123203930D01*
X135676983Y-123187769D01*
X135688374Y-123174427D01*
X135692844Y-123166741D01*
X135692847Y-123166658D01*
X135697023Y-123159281D01*
X135708161Y-123145500D01*
X135724173Y-123127830D01*
X135730956Y-123120767D01*
X135748228Y-123102419D01*
X135761417Y-123087187D01*
X135768443Y-123077521D01*
X135769066Y-123075827D01*
X135774136Y-123070448D01*
X135777520Y-123069955D01*
X135786410Y-123064887D01*
X135794472Y-123054076D01*
X135803380Y-123042472D01*
X135811424Y-123038197D01*
X135819164Y-123034394D01*
X135819878Y-123031845D01*
X135825314Y-123027070D01*
X135835757Y-123025493D01*
X135848528Y-123022181D01*
X135851636Y-123015966D01*
X135855306Y-123007517D01*
X135858442Y-123006439D01*
X135869216Y-123001628D01*
X135879450Y-122991068D01*
X135883394Y-122981486D01*
X135888447Y-122975259D01*
X135891848Y-122974681D01*
X135900739Y-122969613D01*
X135908801Y-122958802D01*
X135918955Y-122947123D01*
X135929343Y-122942923D01*
X135939423Y-122938637D01*
X135955015Y-122927313D01*
X135973020Y-122911249D01*
X135975906Y-122908403D01*
X136010426Y-122873884D01*
X136010426Y-122613429D01*
X136010271Y-122542757D01*
X136009813Y-122482355D01*
X136009062Y-122432657D01*
X136008030Y-122394096D01*
X136006725Y-122367105D01*
X136005159Y-122352117D01*
X136004074Y-122349049D01*
X135999158Y-122340294D01*
X135997723Y-122329620D01*
X135999945Y-122317864D01*
X136004074Y-122314116D01*
X136008301Y-122308539D01*
X136010381Y-122294855D01*
X136010426Y-122292260D01*
X136008743Y-122276439D01*
X136004635Y-122266910D01*
X136004074Y-122266479D01*
X135998768Y-122257534D01*
X135997723Y-122250026D01*
X135993468Y-122237973D01*
X135988195Y-122233842D01*
X135980079Y-122225160D01*
X135978668Y-122218537D01*
X135975589Y-122206662D01*
X135972316Y-122202963D01*
X135966655Y-122193853D01*
X135965965Y-122188801D01*
X135961180Y-122178133D01*
X135948784Y-122163033D01*
X135931716Y-122146144D01*
X135912915Y-122130112D01*
X135895318Y-122117580D01*
X135881865Y-122111193D01*
X135879356Y-122110865D01*
X135870629Y-122111942D01*
X135866153Y-122117271D01*
X135864529Y-122129997D01*
X135864339Y-122144585D01*
X135866233Y-122168439D01*
X135871245Y-122186464D01*
X135873665Y-122190634D01*
X135881111Y-122205418D01*
X135882897Y-122219814D01*
X135879002Y-122229617D01*
X135873867Y-122231545D01*
X135866204Y-122237066D01*
X135864339Y-122247424D01*
X135862531Y-122259366D01*
X135859061Y-122263303D01*
X135852556Y-122258311D01*
X135845285Y-122247424D01*
X135837301Y-122235881D01*
X135831055Y-122231545D01*
X135820037Y-122226187D01*
X135810735Y-122213652D01*
X135807175Y-122200241D01*
X135803309Y-122189540D01*
X135797648Y-122187084D01*
X135789199Y-122183414D01*
X135788120Y-122180279D01*
X135783309Y-122169504D01*
X135772749Y-122159270D01*
X135763168Y-122155326D01*
X135756642Y-122150446D01*
X135756362Y-122148521D01*
X135751551Y-122137746D01*
X135740992Y-122127513D01*
X135731410Y-122123568D01*
X135724884Y-122118688D01*
X135724605Y-122116763D01*
X135719793Y-122105988D01*
X135709234Y-122095755D01*
X135699652Y-122091810D01*
X135693126Y-122086930D01*
X135692847Y-122085005D01*
X135688035Y-122074230D01*
X135677476Y-122063997D01*
X135667894Y-122060052D01*
X135661445Y-122055120D01*
X135661089Y-122052813D01*
X135655511Y-122041570D01*
X135641491Y-122033383D01*
X135623097Y-122029109D01*
X135604396Y-122029601D01*
X135589457Y-122035716D01*
X135587592Y-122037368D01*
X135580805Y-122049954D01*
X135578711Y-122065739D01*
X135581667Y-122078795D01*
X135584870Y-122082283D01*
X135588930Y-122090611D01*
X135591105Y-122106407D01*
X135591221Y-122111240D01*
X135590449Y-122127370D01*
X135586237Y-122134479D01*
X135575739Y-122136238D01*
X135571808Y-122136271D01*
X135558181Y-122133788D01*
X135543746Y-122125063D01*
X135525497Y-122108179D01*
X135521946Y-122104513D01*
X135505187Y-122088529D01*
X135490492Y-122077122D01*
X135481034Y-122072755D01*
X135481019Y-122072755D01*
X135471973Y-122069599D01*
X135470541Y-122066404D01*
X135465396Y-122060769D01*
X135461014Y-122060052D01*
X135452593Y-122054968D01*
X135451486Y-122050525D01*
X135445965Y-122042862D01*
X135435607Y-122040997D01*
X135423671Y-122038823D01*
X135419728Y-122034646D01*
X135414293Y-122029871D01*
X135403849Y-122028294D01*
X135391915Y-122025966D01*
X135387970Y-122021489D01*
X135382539Y-122009511D01*
X135369682Y-121999861D01*
X135356467Y-121996536D01*
X135344060Y-121992529D01*
X135339455Y-121987009D01*
X135331017Y-121979946D01*
X135318351Y-121977481D01*
X135301311Y-121973034D01*
X135284265Y-121962056D01*
X135283769Y-121961602D01*
X135268974Y-121950936D01*
X135255398Y-121945805D01*
X135254036Y-121945723D01*
X135239469Y-121942311D01*
X135225770Y-121935458D01*
X135209983Y-121929012D01*
X135197023Y-121928614D01*
X135184561Y-121927772D01*
X135180476Y-121923000D01*
X135171523Y-121916401D01*
X135152731Y-121913966D01*
X135152282Y-121913966D01*
X135136625Y-121912521D01*
X135128086Y-121908922D01*
X135127555Y-121907614D01*
X135121584Y-121904521D01*
X135105162Y-121902330D01*
X135080525Y-121901306D01*
X135073567Y-121901262D01*
X135019578Y-121901262D01*
X135019578Y-121923493D01*
X135021174Y-121938187D01*
X135025096Y-121945531D01*
X135025930Y-121945723D01*
X135030704Y-121951159D01*
X135032281Y-121961602D01*
X135031076Y-121971449D01*
X135025177Y-121976082D01*
X135011162Y-121977429D01*
X135004074Y-121977481D01*
X134986123Y-121976166D01*
X134974068Y-121972853D01*
X134971941Y-121971130D01*
X134962996Y-121965823D01*
X134955488Y-121964778D01*
X134943436Y-121960524D01*
X134939305Y-121955251D01*
X134934798Y-121950561D01*
X134924168Y-121947634D01*
X134905207Y-121946134D01*
X134876766Y-121945723D01*
X134846251Y-121945155D01*
X134826189Y-121943240D01*
X134814370Y-121939664D01*
X134809976Y-121936196D01*
X134798287Y-121929673D01*
X134780001Y-121926703D01*
X134777815Y-121926669D01*
X134761165Y-121925147D01*
X134750635Y-121921381D01*
X134749636Y-121920317D01*
X134740622Y-121914865D01*
X134734160Y-121913966D01*
X134720471Y-121909368D01*
X134714702Y-121904438D01*
X134701387Y-121897588D01*
X134676606Y-121894940D01*
X134673014Y-121894911D01*
X134653351Y-121893806D01*
X134639344Y-121890972D01*
X134635307Y-121888559D01*
X134626552Y-121883643D01*
X134615878Y-121882208D01*
X134603388Y-121878827D01*
X134600373Y-121872680D01*
X134594852Y-121865018D01*
X134584494Y-121863153D01*
X134572558Y-121860979D01*
X134568616Y-121856801D01*
X134562939Y-121853009D01*
X134548582Y-121850738D01*
X134540106Y-121850450D01*
X134512960Y-121853853D01*
X134495697Y-121864685D01*
X134487280Y-121883875D01*
X134486045Y-121899123D01*
X134484609Y-121916660D01*
X134481015Y-121928264D01*
X134479456Y-121929991D01*
X134471360Y-121928438D01*
X134458658Y-121919758D01*
X134452844Y-121914487D01*
X134440237Y-121903487D01*
X134428042Y-121897597D01*
X134411521Y-121895263D01*
X134393116Y-121894911D01*
X134371764Y-121893966D01*
X134355873Y-121891507D01*
X134349486Y-121888559D01*
X134340731Y-121883643D01*
X134330056Y-121882208D01*
X134318300Y-121879986D01*
X134314552Y-121875856D01*
X134308965Y-121871673D01*
X134295211Y-121869565D01*
X134292122Y-121869504D01*
X134274110Y-121866776D01*
X134266036Y-121859977D01*
X134259072Y-121853839D01*
X134242888Y-121850895D01*
X134227927Y-121850450D01*
X134205242Y-121849175D01*
X134192997Y-121845012D01*
X134189817Y-121840922D01*
X134181316Y-121833519D01*
X134170962Y-121831395D01*
X134159354Y-121829132D01*
X134155762Y-121825043D01*
X134150191Y-121820793D01*
X134136546Y-121818729D01*
X134134211Y-121818692D01*
X134116863Y-121815896D01*
X134109004Y-121809164D01*
X134100432Y-121802065D01*
X134087201Y-121799637D01*
X134067264Y-121793979D01*
X134054137Y-121783758D01*
X134033800Y-121770280D01*
X134018471Y-121767879D01*
X134003045Y-121766109D01*
X133994000Y-121761821D01*
X133993797Y-121761527D01*
X133984629Y-121755735D01*
X133980416Y-121755176D01*
X133969895Y-121750824D01*
X133957145Y-121740251D01*
X133956244Y-121739297D01*
X133942224Y-121728285D01*
X133928493Y-121723429D01*
X133927965Y-121723418D01*
X133917446Y-121720086D01*
X133914404Y-121708096D01*
X133914402Y-121707539D01*
X133911779Y-121695452D01*
X133901449Y-121691727D01*
X133898523Y-121691660D01*
X133885752Y-121688347D01*
X133882644Y-121682133D01*
X133879214Y-121673680D01*
X133876292Y-121672605D01*
X133871038Y-121667316D01*
X133869941Y-121660582D01*
X133865520Y-121648747D01*
X133860413Y-121644902D01*
X133852744Y-121636331D01*
X133850886Y-121627469D01*
X133846050Y-121614527D01*
X133833574Y-121599211D01*
X133828656Y-121594704D01*
X133815229Y-121581067D01*
X133807319Y-121568845D01*
X133806425Y-121565109D01*
X133802125Y-121555025D01*
X133791064Y-121540373D01*
X133781019Y-121529694D01*
X133766899Y-121513969D01*
X133757674Y-121499977D01*
X133755612Y-121493472D01*
X133752480Y-121483875D01*
X133748807Y-121482058D01*
X133736801Y-121476611D01*
X133727171Y-121463682D01*
X133723854Y-121450300D01*
X133719575Y-121435019D01*
X133709416Y-121422763D01*
X133698902Y-121418542D01*
X133694641Y-121412908D01*
X133692270Y-121398834D01*
X133692096Y-121393135D01*
X133690688Y-121377226D01*
X133687169Y-121368377D01*
X133685745Y-121367729D01*
X133681738Y-121362101D01*
X133679538Y-121348070D01*
X133679393Y-121342776D01*
X133677064Y-121324146D01*
X133671317Y-121310039D01*
X133669866Y-121308296D01*
X133661958Y-121295868D01*
X133660338Y-121288588D01*
X133655193Y-121277581D01*
X133650811Y-121274752D01*
X133644914Y-121268274D01*
X133641926Y-121253148D01*
X133641284Y-121234041D01*
X133640274Y-121213430D01*
X133637660Y-121198361D01*
X133634932Y-121193060D01*
X133630375Y-121184484D01*
X133628581Y-121170256D01*
X133625570Y-121154973D01*
X133619053Y-121147720D01*
X133611834Y-121138295D01*
X133609526Y-121119338D01*
X133608081Y-121103681D01*
X133604483Y-121095142D01*
X133603174Y-121094611D01*
X133599777Y-121088837D01*
X133597479Y-121073803D01*
X133596823Y-121057181D01*
X133595762Y-121033731D01*
X133592239Y-121020623D01*
X133587295Y-121016095D01*
X133579449Y-121007479D01*
X133577768Y-120999536D01*
X133575145Y-120989107D01*
X133571416Y-120986634D01*
X133567158Y-120981064D01*
X133565100Y-120967432D01*
X133565065Y-120965181D01*
X133562396Y-120948113D01*
X133555933Y-120936168D01*
X133555537Y-120935821D01*
X133548834Y-120923392D01*
X133546035Y-120902506D01*
X133546010Y-120900110D01*
X133544616Y-120883098D01*
X133541064Y-120873324D01*
X133539205Y-120872305D01*
X133526175Y-120866483D01*
X133517617Y-120850016D01*
X133514272Y-120824403D01*
X133514252Y-120821946D01*
X133513125Y-120803682D01*
X133510238Y-120792008D01*
X133507900Y-120789734D01*
X133504431Y-120783990D01*
X133502124Y-120769164D01*
X133501549Y-120754601D01*
X133500329Y-120731745D01*
X133496329Y-120719299D01*
X133492021Y-120715812D01*
X133485106Y-120708731D01*
X133482547Y-120698121D01*
X133485002Y-120689715D01*
X133488846Y-120688109D01*
X133493029Y-120682522D01*
X133495137Y-120668768D01*
X133495197Y-120665679D01*
X133497926Y-120647667D01*
X133504725Y-120639593D01*
X133512128Y-120631093D01*
X133514252Y-120620738D01*
X133516675Y-120609133D01*
X133521057Y-120605538D01*
X133532957Y-120600148D01*
X133542663Y-120587486D01*
X133546010Y-120574695D01*
X133550727Y-120561976D01*
X133561889Y-120549509D01*
X133573174Y-120536642D01*
X133577768Y-120523642D01*
X133579888Y-120512954D01*
X133583063Y-120510265D01*
X133591974Y-120505814D01*
X133605442Y-120494670D01*
X133620195Y-120480147D01*
X133632964Y-120465560D01*
X133640480Y-120454220D01*
X133641284Y-120451263D01*
X133645753Y-120442031D01*
X133657758Y-120426614D01*
X133675189Y-120407098D01*
X133695941Y-120385570D01*
X133717906Y-120364116D01*
X133738978Y-120344821D01*
X133757049Y-120329773D01*
X133770011Y-120321056D01*
X133774148Y-120319717D01*
X133784899Y-120315866D01*
X133787370Y-120310190D01*
X133791040Y-120301741D01*
X133794175Y-120300662D01*
X133804950Y-120295851D01*
X133815184Y-120285291D01*
X133819128Y-120275710D01*
X133824008Y-120269183D01*
X133825933Y-120268904D01*
X133836708Y-120264093D01*
X133846942Y-120253533D01*
X133850886Y-120243952D01*
X133856023Y-120237917D01*
X133860413Y-120237146D01*
X133868866Y-120233717D01*
X133869941Y-120230795D01*
X133875376Y-120226020D01*
X133885820Y-120224443D01*
X133897767Y-120222810D01*
X133901707Y-120219679D01*
X133906495Y-120209220D01*
X133917940Y-120196437D01*
X133931701Y-120185367D01*
X133943436Y-120180044D01*
X133944421Y-120179982D01*
X133957053Y-120175197D01*
X133969008Y-120164103D01*
X133980417Y-120152841D01*
X133990878Y-120148224D01*
X133999795Y-120143827D01*
X134014153Y-120132221D01*
X134031058Y-120115782D01*
X134033408Y-120113290D01*
X134052507Y-120094710D01*
X134068782Y-120082423D01*
X134079120Y-120078357D01*
X134089669Y-120075774D01*
X134092246Y-120072005D01*
X134097498Y-120066645D01*
X134103538Y-120065653D01*
X134116040Y-120061114D01*
X134125769Y-120052878D01*
X134132121Y-120040646D01*
X134135840Y-120024515D01*
X134136573Y-120008870D01*
X134133967Y-119998098D01*
X134130356Y-119995786D01*
X134125581Y-119990350D01*
X134124004Y-119979907D01*
X134120692Y-119967136D01*
X134114477Y-119964028D01*
X134106739Y-119958655D01*
X134104950Y-119950465D01*
X134100484Y-119936921D01*
X134089677Y-119922758D01*
X134089071Y-119922186D01*
X134075673Y-119902332D01*
X134073192Y-119888112D01*
X134071378Y-119874603D01*
X134067000Y-119868760D01*
X134066840Y-119868754D01*
X134062014Y-119863333D01*
X134060488Y-119853336D01*
X134055339Y-119837661D01*
X134044610Y-119825428D01*
X134035092Y-119815919D01*
X134030316Y-119803904D01*
X134028783Y-119784914D01*
X134028731Y-119778108D01*
X134027039Y-119754024D01*
X134022332Y-119738821D01*
X134020092Y-119736108D01*
X134014397Y-119724536D01*
X134014465Y-119713179D01*
X134013466Y-119698699D01*
X134007225Y-119693485D01*
X133999118Y-119684715D01*
X133996973Y-119675031D01*
X133993268Y-119662138D01*
X133987445Y-119656855D01*
X133980582Y-119648346D01*
X133977829Y-119633357D01*
X133979187Y-119617429D01*
X133984656Y-119606101D01*
X133987445Y-119604284D01*
X133995876Y-119596886D01*
X133996973Y-119592854D01*
X134002024Y-119584476D01*
X134012852Y-119576581D01*
X134024456Y-119567673D01*
X134028731Y-119559629D01*
X134032798Y-119551894D01*
X134035536Y-119551175D01*
X134046311Y-119546364D01*
X134056544Y-119535804D01*
X134060488Y-119526222D01*
X134065368Y-119519696D01*
X134067294Y-119519417D01*
X134078069Y-119514606D01*
X134088302Y-119504046D01*
X134092246Y-119494464D01*
X134097126Y-119487938D01*
X134099052Y-119487659D01*
X134109827Y-119482848D01*
X134120060Y-119472288D01*
X134124004Y-119462706D01*
X134128884Y-119456180D01*
X134130810Y-119455901D01*
X134141585Y-119451090D01*
X134151818Y-119440530D01*
X134155762Y-119430948D01*
X134160642Y-119424422D01*
X134162568Y-119424143D01*
X134172209Y-119419942D01*
X134182467Y-119410830D01*
X134187510Y-119402043D01*
X134187520Y-119401748D01*
X134191809Y-119395702D01*
X134203226Y-119383325D01*
X134219594Y-119366938D01*
X134225630Y-119361124D01*
X134243292Y-119343022D01*
X134256609Y-119327008D01*
X134263339Y-119315856D01*
X134263739Y-119313906D01*
X134268606Y-119302592D01*
X134273267Y-119299408D01*
X134281649Y-119290667D01*
X134282794Y-119285252D01*
X134286881Y-119273831D01*
X134296896Y-119259608D01*
X134298673Y-119257626D01*
X134309264Y-119243638D01*
X134314448Y-119231755D01*
X134314552Y-119230498D01*
X134319695Y-119219650D01*
X134324079Y-119216838D01*
X134332490Y-119210353D01*
X134333607Y-119207056D01*
X134338380Y-119196859D01*
X134348821Y-119186890D01*
X134358559Y-119182783D01*
X134363755Y-119177372D01*
X134365365Y-119167583D01*
X134368912Y-119154411D01*
X134374892Y-119148728D01*
X134382738Y-119140112D01*
X134384419Y-119132169D01*
X134387043Y-119121741D01*
X134390771Y-119119267D01*
X134396406Y-119114122D01*
X134397123Y-119109739D01*
X134400552Y-119101287D01*
X134403474Y-119100212D01*
X134409043Y-119095040D01*
X134409826Y-119090275D01*
X134414371Y-119080027D01*
X134425623Y-119067191D01*
X134428881Y-119064304D01*
X134441258Y-119050960D01*
X134447682Y-119038316D01*
X134447935Y-119036132D01*
X134450706Y-119026121D01*
X134454287Y-119023993D01*
X134459338Y-119018639D01*
X134460639Y-119010452D01*
X134465060Y-118998202D01*
X134476244Y-118982810D01*
X134482869Y-118975945D01*
X134496111Y-118960947D01*
X134504067Y-118947092D01*
X134505100Y-118942310D01*
X134509816Y-118929611D01*
X134520979Y-118917151D01*
X134532264Y-118904284D01*
X134536858Y-118891283D01*
X134539398Y-118880602D01*
X134543211Y-118877907D01*
X134550579Y-118873604D01*
X134563630Y-118862518D01*
X134579631Y-118847381D01*
X134595848Y-118830925D01*
X134609551Y-118815882D01*
X134618005Y-118804984D01*
X134619428Y-118801702D01*
X134623746Y-118794945D01*
X134635333Y-118781596D01*
X134652137Y-118763694D01*
X134672106Y-118743279D01*
X134693188Y-118722391D01*
X134713334Y-118703068D01*
X134730490Y-118687352D01*
X134742605Y-118677281D01*
X134747222Y-118674656D01*
X134756301Y-118670006D01*
X134769797Y-118658203D01*
X134784795Y-118642469D01*
X134798377Y-118626025D01*
X134807630Y-118612092D01*
X134809976Y-118605322D01*
X134805373Y-118591513D01*
X134800448Y-118585733D01*
X134792296Y-118573193D01*
X134790921Y-118565901D01*
X134788107Y-118556010D01*
X134784570Y-118553976D01*
X134779795Y-118548540D01*
X134778218Y-118538097D01*
X134776044Y-118526160D01*
X134771866Y-118522218D01*
X134766655Y-118516915D01*
X134765515Y-118509889D01*
X134762598Y-118497730D01*
X134759163Y-118493635D01*
X134756674Y-118485910D01*
X134754707Y-118467276D01*
X134753384Y-118439526D01*
X134752823Y-118404447D01*
X134752812Y-118398362D01*
X134753242Y-118362290D01*
X134754453Y-118333265D01*
X134756326Y-118313074D01*
X134758741Y-118303509D01*
X134759163Y-118303088D01*
X134763459Y-118294642D01*
X134765490Y-118279250D01*
X134765515Y-118277307D01*
X134767135Y-118262762D01*
X134771112Y-118255605D01*
X134771866Y-118255451D01*
X134777501Y-118250306D01*
X134778218Y-118245924D01*
X134781887Y-118237475D01*
X134785023Y-118236396D01*
X134794588Y-118232232D01*
X134804845Y-118223207D01*
X134809960Y-118214521D01*
X134809976Y-118214166D01*
X134814650Y-118205644D01*
X134824780Y-118196506D01*
X134834529Y-118191949D01*
X134834929Y-118191935D01*
X134840043Y-118186502D01*
X134841734Y-118176056D01*
X134844357Y-118163969D01*
X134854687Y-118160244D01*
X134857613Y-118160177D01*
X134869750Y-118157266D01*
X134873492Y-118151723D01*
X134878559Y-118142833D01*
X134889371Y-118134771D01*
X134900951Y-118126229D01*
X134905250Y-118118892D01*
X134910292Y-118110810D01*
X134921129Y-118103013D01*
X134932661Y-118095181D01*
X134937008Y-118089236D01*
X134942428Y-118085203D01*
X134952207Y-118083958D01*
X134965379Y-118080410D01*
X134971062Y-118074431D01*
X134979698Y-118066506D01*
X134987246Y-118064903D01*
X134999488Y-118062031D01*
X135003699Y-118058552D01*
X135012644Y-118053245D01*
X135020152Y-118052200D01*
X135032205Y-118047945D01*
X135036336Y-118042673D01*
X135041155Y-118037759D01*
X135052511Y-118034792D01*
X135072672Y-118033394D01*
X135093301Y-118033145D01*
X135119354Y-118032435D01*
X135137774Y-118030483D01*
X135146291Y-118027560D01*
X135146610Y-118026794D01*
X135152683Y-118023928D01*
X135169822Y-118021831D01*
X135196402Y-118020650D01*
X135216477Y-118020442D01*
X135248002Y-118020994D01*
X135271072Y-118022552D01*
X135284063Y-118024969D01*
X135286345Y-118026794D01*
X135292219Y-118030053D01*
X135307957Y-118032305D01*
X135330729Y-118033145D01*
X135354338Y-118033485D01*
X135369577Y-118035577D01*
X135380779Y-118041035D01*
X135392278Y-118051468D01*
X135399009Y-118058541D01*
X135414302Y-118072759D01*
X135427898Y-118081980D01*
X135434019Y-118083948D01*
X135443430Y-118087824D01*
X135445135Y-118092196D01*
X135449393Y-118100906D01*
X135460357Y-118114604D01*
X135470541Y-118125243D01*
X135484569Y-118140265D01*
X135493796Y-118152685D01*
X135495947Y-118157963D01*
X135499965Y-118167543D01*
X135509833Y-118180794D01*
X135511826Y-118183008D01*
X135522966Y-118199915D01*
X135527699Y-118217084D01*
X135527705Y-118217589D01*
X135530833Y-118231724D01*
X135537233Y-118238693D01*
X135545157Y-118247328D01*
X135546760Y-118254877D01*
X135549632Y-118267119D01*
X135553112Y-118271330D01*
X135557984Y-118280063D01*
X135559463Y-118291134D01*
X135561531Y-118301742D01*
X135565860Y-118303060D01*
X135573121Y-118304430D01*
X135576067Y-118309037D01*
X135584885Y-118317486D01*
X135591585Y-118318967D01*
X135604334Y-118323957D01*
X135609956Y-118330082D01*
X135615760Y-118337728D01*
X135621255Y-118335011D01*
X135625263Y-118330082D01*
X135637994Y-118321795D01*
X135653320Y-118318967D01*
X135667737Y-118316757D01*
X135675242Y-118311438D01*
X135675255Y-118311403D01*
X135683362Y-118306729D01*
X135703019Y-118305211D01*
X135713335Y-118305486D01*
X135735951Y-118305484D01*
X135748928Y-118302473D01*
X135754418Y-118297261D01*
X135757322Y-118294501D01*
X135763474Y-118292264D01*
X135774148Y-118290480D01*
X135790613Y-118289081D01*
X135814144Y-118287996D01*
X135846012Y-118287157D01*
X135887489Y-118286493D01*
X135939846Y-118285936D01*
X135966167Y-118285711D01*
X136172391Y-118284033D01*
X136174129Y-118174468D01*
X136175111Y-118134436D01*
X136176609Y-118102218D01*
X136178525Y-118079195D01*
X136180757Y-118066745D01*
X136182069Y-118064903D01*
X136186731Y-118059467D01*
X136188270Y-118049024D01*
X136190445Y-118037088D01*
X136194622Y-118033145D01*
X136199397Y-118027710D01*
X136200974Y-118017266D01*
X136204286Y-118004495D01*
X136210501Y-118001387D01*
X136217604Y-117996478D01*
X136220020Y-117980900D01*
X136220028Y-117979532D01*
X136221711Y-117963711D01*
X136225820Y-117954182D01*
X136226380Y-117953750D01*
X136232098Y-117944615D01*
X136232732Y-117939924D01*
X136237248Y-117931135D01*
X136249297Y-117916396D01*
X136266627Y-117897860D01*
X136286988Y-117877681D01*
X136308130Y-117858012D01*
X136327802Y-117841007D01*
X136343753Y-117828818D01*
X136353732Y-117823599D01*
X136354368Y-117823543D01*
X136364155Y-117820490D01*
X136366115Y-117816738D01*
X136371690Y-117804481D01*
X136385331Y-117795065D01*
X136400595Y-117791785D01*
X136412747Y-117789666D01*
X136416928Y-117785433D01*
X136422511Y-117781235D01*
X136436241Y-117779137D01*
X136439158Y-117779082D01*
X136455600Y-117777016D01*
X136461349Y-117770422D01*
X136461389Y-117769554D01*
X136466910Y-117761892D01*
X136477268Y-117760027D01*
X136489204Y-117757853D01*
X136493147Y-117753675D01*
X136498730Y-117749477D01*
X136512460Y-117747379D01*
X136515377Y-117747324D01*
X136531819Y-117745258D01*
X136537568Y-117738664D01*
X136537608Y-117737797D01*
X136539024Y-117734897D01*
X136544176Y-117732640D01*
X136554423Y-117730948D01*
X136571122Y-117729744D01*
X136595630Y-117728953D01*
X136629304Y-117728496D01*
X136673501Y-117728297D01*
X136705925Y-117728269D01*
X136757149Y-117728349D01*
G37*
X136757149Y-117728349D02*
X136797028Y-117728641D01*
X136826919Y-117729221D01*
X136848181Y-117730166D01*
X136862169Y-117731553D01*
X136870242Y-117733459D01*
X136873756Y-117735961D01*
X136874242Y-117737797D01*
X136879763Y-117745459D01*
X136890121Y-117747324D01*
X136902058Y-117749498D01*
X136906000Y-117753675D01*
X136911435Y-117758450D01*
X136921879Y-117760027D01*
X136934650Y-117763340D01*
X136937758Y-117769554D01*
X136940685Y-117775087D01*
X136951060Y-117778057D01*
X136971276Y-117779063D01*
X136975867Y-117779082D01*
X136996167Y-117780046D01*
X137009929Y-117782565D01*
X137013977Y-117785433D01*
X137019121Y-117791068D01*
X137023504Y-117791785D01*
X137031953Y-117795454D01*
X137033032Y-117798590D01*
X137038451Y-117810545D01*
X137051250Y-117820212D01*
X137064336Y-117823543D01*
X137074898Y-117826302D01*
X137077493Y-117830348D01*
X137082939Y-117842355D01*
X137095868Y-117851984D01*
X137109251Y-117855301D01*
X137122784Y-117858913D01*
X137135182Y-117867257D01*
X137140989Y-117876593D01*
X137141009Y-117877078D01*
X137145504Y-117884821D01*
X137155749Y-117895137D01*
X137166885Y-117903615D01*
X137172990Y-117906114D01*
X137185663Y-117910254D01*
X137199372Y-117919993D01*
X137209156Y-117931307D01*
X137211078Y-117937014D01*
X137214705Y-117949630D01*
X137222716Y-117962218D01*
X137231436Y-117969338D01*
X137233107Y-117969629D01*
X137241489Y-117974789D01*
X137249974Y-117986641D01*
X137254895Y-117999749D01*
X137255135Y-118002296D01*
X137260374Y-118013447D01*
X137264865Y-118016387D01*
X137272115Y-118024847D01*
X137274392Y-118036122D01*
X137276542Y-118048153D01*
X137280744Y-118052200D01*
X137282719Y-118058482D01*
X137284345Y-118077056D01*
X137285606Y-118107518D01*
X137286492Y-118149460D01*
X137286987Y-118202477D01*
X137287095Y-118247688D01*
X137287127Y-118302721D01*
X137287280Y-118346448D01*
X137287640Y-118380267D01*
X137288294Y-118405575D01*
X137289328Y-118423769D01*
X137290830Y-118436247D01*
X137292885Y-118444405D01*
X137295580Y-118449642D01*
X137299001Y-118453354D01*
X137299871Y-118454114D01*
X137315749Y-118462266D01*
X137331629Y-118465053D01*
X137346703Y-118467903D01*
X137350611Y-118474581D01*
X137356132Y-118482243D01*
X137366490Y-118484108D01*
X137378427Y-118486282D01*
X137382369Y-118490460D01*
X137388081Y-118494083D01*
X137402687Y-118496383D01*
X137414127Y-118496811D01*
X137432243Y-118497954D01*
X137443742Y-118500875D01*
X137445885Y-118503163D01*
X137451565Y-118506934D01*
X137465954Y-118509210D01*
X137474770Y-118509514D01*
X137496292Y-118511446D01*
X137511132Y-118518605D01*
X137518372Y-118525393D01*
X137531655Y-118536103D01*
X137548415Y-118540661D01*
X137562530Y-118541272D01*
X137581679Y-118542450D01*
X137590588Y-118546476D01*
X137591971Y-118550800D01*
X137596792Y-118557846D01*
X137612177Y-118560310D01*
X137614202Y-118560327D01*
X137628896Y-118561922D01*
X137636240Y-118565845D01*
X137636432Y-118566679D01*
X137641577Y-118572314D01*
X137645960Y-118573030D01*
X137654381Y-118578115D01*
X137655487Y-118582558D01*
X137658414Y-118588090D01*
X137668789Y-118591060D01*
X137689005Y-118592066D01*
X137693597Y-118592085D01*
X137713896Y-118593049D01*
X137727658Y-118595568D01*
X137731706Y-118598437D01*
X137737120Y-118603287D01*
X137746906Y-118604788D01*
X137760078Y-118608336D01*
X137765761Y-118614316D01*
X137774377Y-118622161D01*
X137782320Y-118623843D01*
X137792749Y-118626466D01*
X137795222Y-118630195D01*
X137800857Y-118634172D01*
X137814933Y-118636384D01*
X137820629Y-118636546D01*
X137838294Y-118638119D01*
X137845574Y-118643335D01*
X137846035Y-118646074D01*
X137851567Y-118653730D01*
X137862113Y-118655601D01*
X137875640Y-118658965D01*
X137881848Y-118665128D01*
X137890933Y-118672323D01*
X137907055Y-118674656D01*
X137921476Y-118676298D01*
X137928479Y-118680319D01*
X137928606Y-118681007D01*
X137934041Y-118685782D01*
X137944484Y-118687359D01*
X137956416Y-118689819D01*
X137960363Y-118694553D01*
X137965968Y-118706735D01*
X137979890Y-118717352D01*
X137997787Y-118723753D01*
X138009249Y-118724419D01*
X138025955Y-118725402D01*
X138037547Y-118730249D01*
X138037707Y-118730404D01*
X138050507Y-118737161D01*
X138057361Y-118738172D01*
X138071555Y-118742603D01*
X138083322Y-118752917D01*
X138087395Y-118763124D01*
X138093006Y-118767493D01*
X138106923Y-118769815D01*
X138111294Y-118769930D01*
X138131153Y-118772766D01*
X138144811Y-118782912D01*
X138147117Y-118785809D01*
X138162241Y-118798500D01*
X138180383Y-118801687D01*
X138194719Y-118803344D01*
X138201615Y-118807398D01*
X138201724Y-118808039D01*
X138207159Y-118812814D01*
X138217603Y-118814391D01*
X138229537Y-118816719D01*
X138233482Y-118821196D01*
X138238857Y-118833068D01*
X138251454Y-118842792D01*
X138264106Y-118846149D01*
X138276137Y-118850419D01*
X138280240Y-118855676D01*
X138288856Y-118863522D01*
X138296798Y-118865203D01*
X138307227Y-118867826D01*
X138309701Y-118871555D01*
X138314845Y-118877190D01*
X138319228Y-118877907D01*
X138327649Y-118882991D01*
X138328756Y-118887434D01*
X138334277Y-118895097D01*
X138344635Y-118896961D01*
X138356571Y-118899136D01*
X138360514Y-118903313D01*
X138365949Y-118908088D01*
X138376392Y-118909664D01*
X138389164Y-118912977D01*
X138392271Y-118919192D01*
X138397793Y-118926854D01*
X138408150Y-118928719D01*
X138420087Y-118930893D01*
X138424029Y-118935071D01*
X138429465Y-118939845D01*
X138439908Y-118941422D01*
X138451844Y-118943669D01*
X138455787Y-118947988D01*
X138460364Y-118957100D01*
X138471471Y-118969707D01*
X138485176Y-118982101D01*
X138497547Y-118990575D01*
X138502716Y-118992235D01*
X138512628Y-118996265D01*
X138526057Y-119006159D01*
X138528230Y-119008114D01*
X138541711Y-119018654D01*
X138552517Y-119023872D01*
X138553674Y-119023993D01*
X138563050Y-119028660D01*
X138573910Y-119039872D01*
X138585805Y-119051173D01*
X138597229Y-119055751D01*
X138608788Y-119060398D01*
X138612280Y-119065278D01*
X138620277Y-119073720D01*
X138624784Y-119074806D01*
X138632791Y-119078463D01*
X138633632Y-119081157D01*
X138639067Y-119085932D01*
X138649511Y-119087509D01*
X138662282Y-119090822D01*
X138665390Y-119097036D01*
X138670911Y-119104699D01*
X138681269Y-119106564D01*
X138693205Y-119108738D01*
X138697148Y-119112915D01*
X138702040Y-119119010D01*
X138703953Y-119119267D01*
X138714728Y-119124078D01*
X138724961Y-119134638D01*
X138728906Y-119144220D01*
X138734338Y-119149334D01*
X138744785Y-119151025D01*
X138756719Y-119153353D01*
X138760664Y-119157830D01*
X138765868Y-119169376D01*
X138777756Y-119179294D01*
X138789107Y-119182783D01*
X138799407Y-119186966D01*
X138814080Y-119197610D01*
X138822293Y-119205013D01*
X138837384Y-119217933D01*
X138850192Y-119225952D01*
X138854719Y-119227244D01*
X138864150Y-119231576D01*
X138878205Y-119242711D01*
X138888424Y-119252650D01*
X138903116Y-119266745D01*
X138915195Y-119275971D01*
X138920182Y-119278057D01*
X138928481Y-119282354D01*
X138941753Y-119293409D01*
X138951940Y-119303463D01*
X138967266Y-119317641D01*
X138980763Y-119326863D01*
X138986840Y-119328869D01*
X138995761Y-119333308D01*
X139010397Y-119345161D01*
X139028153Y-119362234D01*
X139035661Y-119370155D01*
X139053598Y-119388662D01*
X139069020Y-119402878D01*
X139079497Y-119410632D01*
X139081832Y-119411440D01*
X139090666Y-119415751D01*
X139103883Y-119426686D01*
X139110882Y-119433670D01*
X139125937Y-119446933D01*
X139139912Y-119454918D01*
X139144744Y-119455963D01*
X139156088Y-119460540D01*
X139170968Y-119472176D01*
X139179868Y-119481307D01*
X139194483Y-119495685D01*
X139207610Y-119504873D01*
X139213214Y-119506651D01*
X139222642Y-119509702D01*
X139224329Y-119513065D01*
X139229474Y-119518700D01*
X139233857Y-119519417D01*
X139242306Y-119523086D01*
X139243384Y-119526222D01*
X139248195Y-119536997D01*
X139258755Y-119547230D01*
X139268337Y-119551175D01*
X139274863Y-119556055D01*
X139275142Y-119557980D01*
X139279953Y-119568755D01*
X139290513Y-119578988D01*
X139300095Y-119582933D01*
X139306625Y-119587499D01*
X139306900Y-119589284D01*
X139312027Y-119594960D01*
X139316182Y-119595636D01*
X139325512Y-119599885D01*
X139339718Y-119610828D01*
X139350618Y-119621042D01*
X139365572Y-119635001D01*
X139377632Y-119644229D01*
X139382621Y-119646449D01*
X139386403Y-119647022D01*
X139391322Y-119649610D01*
X139398874Y-119655514D01*
X139410555Y-119666034D01*
X139427860Y-119682470D01*
X139452284Y-119706125D01*
X139461126Y-119714728D01*
X139481814Y-119733940D01*
X139500084Y-119749223D01*
X139513543Y-119758665D01*
X139518817Y-119760777D01*
X139527329Y-119766128D01*
X139529206Y-119776656D01*
X139532029Y-119788953D01*
X139542438Y-119792710D01*
X139543497Y-119792737D01*
X139559097Y-119796342D01*
X139572868Y-119804634D01*
X139579859Y-119814466D01*
X139580018Y-119815981D01*
X139585032Y-119823150D01*
X139595897Y-119830645D01*
X139607501Y-119839553D01*
X139611776Y-119847597D01*
X139615579Y-119855336D01*
X139618128Y-119856051D01*
X139624223Y-119860944D01*
X139624479Y-119862856D01*
X139629291Y-119873631D01*
X139639850Y-119883864D01*
X139649432Y-119887809D01*
X139655958Y-119892689D01*
X139656237Y-119894614D01*
X139661684Y-119906621D01*
X139674613Y-119916250D01*
X139687995Y-119919567D01*
X139701796Y-119923272D01*
X139714185Y-119931862D01*
X139719748Y-119941546D01*
X139719753Y-119941798D01*
X139724427Y-119950319D01*
X139734557Y-119959457D01*
X139744307Y-119964014D01*
X139744706Y-119964028D01*
X139751232Y-119968908D01*
X139751511Y-119970833D01*
X139756322Y-119981608D01*
X139766882Y-119991841D01*
X139776464Y-119995786D01*
X139782499Y-120000923D01*
X139783269Y-120005313D01*
X139788561Y-120013073D01*
X139795940Y-120014841D01*
X139806591Y-120019089D01*
X139822528Y-120030250D01*
X139840373Y-120045944D01*
X139841045Y-120046599D01*
X139857774Y-120062248D01*
X139871320Y-120073590D01*
X139878931Y-120078331D01*
X139879186Y-120078357D01*
X139884254Y-120083511D01*
X139884895Y-120087884D01*
X139887753Y-120096344D01*
X139890173Y-120097411D01*
X139896678Y-120102403D01*
X139903949Y-120113290D01*
X139912858Y-120124894D01*
X139920902Y-120129169D01*
X139928637Y-120133237D01*
X139929356Y-120135975D01*
X139934167Y-120146749D01*
X139944727Y-120156983D01*
X139954308Y-120160927D01*
X139960835Y-120165807D01*
X139961114Y-120167733D01*
X139965925Y-120178507D01*
X139976485Y-120188741D01*
X139986066Y-120192685D01*
X139992592Y-120197565D01*
X139992872Y-120199490D01*
X139997683Y-120210265D01*
X140008243Y-120220499D01*
X140017824Y-120224443D01*
X140024354Y-120229010D01*
X140024630Y-120230795D01*
X140029522Y-120236889D01*
X140031435Y-120237146D01*
X140042210Y-120241957D01*
X140052443Y-120252517D01*
X140056387Y-120262099D01*
X140061440Y-120268326D01*
X140064842Y-120268904D01*
X140073732Y-120273972D01*
X140081794Y-120284783D01*
X140090335Y-120296364D01*
X140097673Y-120300662D01*
X140105754Y-120305705D01*
X140113552Y-120316541D01*
X140122460Y-120328145D01*
X140130504Y-120332420D01*
X140138251Y-120335653D01*
X140138958Y-120337801D01*
X140143067Y-120344542D01*
X140154036Y-120357927D01*
X140169833Y-120375531D01*
X140177068Y-120383233D01*
X140194229Y-120401848D01*
X140207378Y-120417216D01*
X140214483Y-120426914D01*
X140215177Y-120428664D01*
X140220336Y-120433443D01*
X140224705Y-120434046D01*
X140233125Y-120439130D01*
X140234232Y-120443573D01*
X140237662Y-120452025D01*
X140240584Y-120453100D01*
X140246219Y-120458245D01*
X140246935Y-120462628D01*
X140243219Y-120468888D01*
X140230566Y-120471754D01*
X140218154Y-120472155D01*
X140196777Y-120474116D01*
X140186452Y-120480206D01*
X140185716Y-120481682D01*
X140177344Y-120490130D01*
X140172541Y-120491210D01*
X140161841Y-120495068D01*
X140147224Y-120504637D01*
X140143525Y-120507616D01*
X140122901Y-120519980D01*
X140108761Y-120521105D01*
X140095031Y-120521995D01*
X140090141Y-120526929D01*
X140081760Y-120534253D01*
X140074563Y-120535671D01*
X140062642Y-120540025D01*
X140058684Y-120545198D01*
X140050046Y-120553134D01*
X140042551Y-120554726D01*
X140027804Y-120559054D01*
X140020488Y-120564311D01*
X140010790Y-120570745D01*
X140005902Y-120570807D01*
X139999249Y-120573293D01*
X139989047Y-120583337D01*
X139986410Y-120586628D01*
X139971150Y-120600807D01*
X139956988Y-120605538D01*
X139945514Y-120607838D01*
X139942059Y-120611890D01*
X139936711Y-120616962D01*
X139928682Y-120618242D01*
X139915449Y-120622977D01*
X139902815Y-120634121D01*
X139891293Y-120645297D01*
X139881023Y-120649999D01*
X139880955Y-120650000D01*
X139870497Y-120654349D01*
X139857777Y-120664917D01*
X139856869Y-120665879D01*
X139842849Y-120676891D01*
X139829118Y-120681746D01*
X139828590Y-120681757D01*
X139817826Y-120685083D01*
X139815027Y-120690212D01*
X139809959Y-120699102D01*
X139799148Y-120707164D01*
X139787544Y-120716072D01*
X139783269Y-120724116D01*
X139777958Y-120730921D01*
X139770266Y-120732570D01*
X139759126Y-120736836D01*
X139743156Y-120747939D01*
X139728271Y-120761152D01*
X139712449Y-120775942D01*
X139699836Y-120786269D01*
X139693637Y-120789734D01*
X139688629Y-120794889D01*
X139687995Y-120799262D01*
X139682474Y-120806925D01*
X139672116Y-120808789D01*
X139660182Y-120811118D01*
X139656237Y-120815595D01*
X139652074Y-120825159D01*
X139643049Y-120835417D01*
X139634363Y-120840531D01*
X139634007Y-120840547D01*
X139625486Y-120845221D01*
X139616347Y-120855351D01*
X139611791Y-120865101D01*
X139611776Y-120865500D01*
X139606724Y-120871727D01*
X139603322Y-120872305D01*
X139594432Y-120877373D01*
X139586370Y-120888184D01*
X139573828Y-120901301D01*
X139563066Y-120904063D01*
X139551653Y-120906380D01*
X139548260Y-120910415D01*
X139544525Y-120918777D01*
X139536010Y-120928869D01*
X139526752Y-120936628D01*
X139520826Y-120938028D01*
X139515991Y-120940782D01*
X139508003Y-120951520D01*
X139506225Y-120954436D01*
X139496750Y-120967413D01*
X139488542Y-120973794D01*
X139487624Y-120973931D01*
X139479765Y-120978966D01*
X139472041Y-120989810D01*
X139463500Y-121001390D01*
X139456162Y-121005688D01*
X139448081Y-121010731D01*
X139440283Y-121021567D01*
X139431375Y-121033171D01*
X139423331Y-121037446D01*
X139415596Y-121041514D01*
X139414877Y-121044252D01*
X139410066Y-121055027D01*
X139399506Y-121065260D01*
X139389924Y-121069204D01*
X139383394Y-121073771D01*
X139383119Y-121075556D01*
X139378227Y-121081651D01*
X139376314Y-121081908D01*
X139365539Y-121086719D01*
X139355306Y-121097278D01*
X139351361Y-121106860D01*
X139346309Y-121113087D01*
X139342907Y-121113665D01*
X139334017Y-121118733D01*
X139325955Y-121129544D01*
X139318123Y-121141077D01*
X139312178Y-121145423D01*
X139307107Y-121150343D01*
X139306900Y-121152229D01*
X139302089Y-121163004D01*
X139291529Y-121173237D01*
X139281947Y-121177181D01*
X139275721Y-121182234D01*
X139275142Y-121185635D01*
X139270074Y-121194526D01*
X139259263Y-121202588D01*
X139247683Y-121211129D01*
X139243384Y-121218467D01*
X139238342Y-121226548D01*
X139227505Y-121234346D01*
X139215931Y-121242786D01*
X139211626Y-121249928D01*
X139206648Y-121257585D01*
X139194435Y-121267119D01*
X139192132Y-121268529D01*
X139180145Y-121276811D01*
X139175481Y-121282531D01*
X139175724Y-121283131D01*
X139174155Y-121289076D01*
X139166470Y-121298427D01*
X139156728Y-121306987D01*
X139149184Y-121310565D01*
X139142679Y-121315557D01*
X139135407Y-121326444D01*
X139127292Y-121337996D01*
X139120788Y-121342323D01*
X139112257Y-121346951D01*
X139101580Y-121357570D01*
X139093153Y-121369282D01*
X139090946Y-121375582D01*
X139086734Y-121383123D01*
X139076024Y-121395653D01*
X139068716Y-121403080D01*
X139055546Y-121418377D01*
X139047574Y-121432474D01*
X139046485Y-121437484D01*
X139043846Y-121447866D01*
X139040133Y-121450300D01*
X139034039Y-121455192D01*
X139033782Y-121457105D01*
X139028971Y-121467880D01*
X139018411Y-121478113D01*
X139008829Y-121482058D01*
X139002303Y-121486937D01*
X139002024Y-121488863D01*
X138997213Y-121499638D01*
X138986653Y-121509871D01*
X138977071Y-121513816D01*
X138971957Y-121519248D01*
X138970266Y-121529694D01*
X138967938Y-121541629D01*
X138963461Y-121545573D01*
X138953705Y-121549654D01*
X138947582Y-121554647D01*
X138940015Y-121565274D01*
X138938508Y-121570526D01*
X138933455Y-121576753D01*
X138930054Y-121577331D01*
X138921164Y-121582399D01*
X138913102Y-121593210D01*
X138904661Y-121604784D01*
X138897519Y-121609089D01*
X138889831Y-121614064D01*
X138880341Y-121626243D01*
X138879112Y-121628256D01*
X138870154Y-121639992D01*
X138862756Y-121644078D01*
X138861864Y-121643760D01*
X138856296Y-121643994D01*
X138855937Y-121645680D01*
X138851690Y-121654582D01*
X138841405Y-121667468D01*
X138828764Y-121680440D01*
X138817452Y-121689598D01*
X138812498Y-121691660D01*
X138806817Y-121697053D01*
X138805125Y-121706466D01*
X138799202Y-121721865D01*
X138789246Y-121729769D01*
X138777642Y-121738678D01*
X138773367Y-121746722D01*
X138769564Y-121754461D01*
X138767015Y-121755176D01*
X138760920Y-121760068D01*
X138760664Y-121761981D01*
X138756583Y-121771737D01*
X138751590Y-121777860D01*
X138740963Y-121785427D01*
X138735711Y-121786934D01*
X138729185Y-121791814D01*
X138728906Y-121793739D01*
X138724094Y-121804514D01*
X138713535Y-121814747D01*
X138703953Y-121818692D01*
X138698838Y-121824124D01*
X138697148Y-121834571D01*
X138694819Y-121846505D01*
X138690342Y-121850450D01*
X138679568Y-121855261D01*
X138669334Y-121865821D01*
X138665390Y-121875402D01*
X138660510Y-121881928D01*
X138658584Y-121882208D01*
X138647810Y-121887019D01*
X138637576Y-121897579D01*
X138633632Y-121907160D01*
X138628495Y-121913195D01*
X138624104Y-121913966D01*
X138615648Y-121917140D01*
X138614577Y-121919836D01*
X138610356Y-121926038D01*
X138598964Y-121939143D01*
X138582311Y-121957193D01*
X138562306Y-121978231D01*
X138540857Y-122000298D01*
X138519873Y-122021435D01*
X138501264Y-122039685D01*
X138486938Y-122053089D01*
X138478804Y-122059690D01*
X138477892Y-122060052D01*
X138469471Y-122064720D01*
X138460385Y-122074834D01*
X138455806Y-122084553D01*
X138455787Y-122085005D01*
X138450908Y-122091531D01*
X138448982Y-122091810D01*
X138438207Y-122096621D01*
X138427974Y-122107181D01*
X138424029Y-122116763D01*
X138419150Y-122123289D01*
X138417224Y-122123568D01*
X138406449Y-122128379D01*
X138396216Y-122138939D01*
X138392271Y-122148521D01*
X138387392Y-122155047D01*
X138385466Y-122155326D01*
X138374691Y-122160137D01*
X138364458Y-122170697D01*
X138360514Y-122180279D01*
X138355634Y-122186805D01*
X138353708Y-122187084D01*
X138342933Y-122191895D01*
X138332700Y-122202455D01*
X138328756Y-122212036D01*
X138323876Y-122218563D01*
X138321950Y-122218842D01*
X138312386Y-122223006D01*
X138302128Y-122232030D01*
X138297014Y-122240717D01*
X138296998Y-122241072D01*
X138291556Y-122250993D01*
X138278607Y-122259488D01*
X138263209Y-122263294D01*
X138262518Y-122263303D01*
X138250361Y-122265139D01*
X138246185Y-122268801D01*
X138241777Y-122276819D01*
X138230188Y-122290715D01*
X138213868Y-122308088D01*
X138195271Y-122326533D01*
X138176846Y-122343649D01*
X138161045Y-122357033D01*
X138150321Y-122364282D01*
X138148104Y-122364928D01*
X138134610Y-122369453D01*
X138123156Y-122379848D01*
X138119153Y-122389881D01*
X138114273Y-122396407D01*
X138112348Y-122396686D01*
X138101573Y-122401497D01*
X138091340Y-122412057D01*
X138087395Y-122421639D01*
X138082515Y-122428165D01*
X138080590Y-122428444D01*
X138069815Y-122433255D01*
X138059582Y-122443815D01*
X138055637Y-122453397D01*
X138050205Y-122458511D01*
X138039758Y-122460202D01*
X138027824Y-122462530D01*
X138023879Y-122467007D01*
X138019758Y-122476484D01*
X138010831Y-122486740D01*
X138002259Y-122491937D01*
X138001837Y-122491960D01*
X137994868Y-122495846D01*
X137984307Y-122504663D01*
X137970950Y-122513984D01*
X137960273Y-122517366D01*
X137949049Y-122521720D01*
X137935869Y-122532294D01*
X137934957Y-122533245D01*
X137922935Y-122544041D01*
X137913623Y-122549076D01*
X137913031Y-122549124D01*
X137904062Y-122553703D01*
X137893269Y-122564070D01*
X137885447Y-122575168D01*
X137884144Y-122579585D01*
X137879218Y-122585781D01*
X137867153Y-122594503D01*
X137865090Y-122595751D01*
X137852312Y-122604856D01*
X137846139Y-122612312D01*
X137846035Y-122612999D01*
X137840677Y-122617763D01*
X137832472Y-122618992D01*
X137818928Y-122623457D01*
X137804765Y-122634265D01*
X137804193Y-122634871D01*
X137791487Y-122645766D01*
X137780557Y-122650721D01*
X137779962Y-122650750D01*
X137769101Y-122655723D01*
X137764566Y-122661258D01*
X137755497Y-122668389D01*
X137749306Y-122668168D01*
X137739042Y-122669973D01*
X137727684Y-122678786D01*
X137719996Y-122690340D01*
X137719003Y-122695283D01*
X137713857Y-122700854D01*
X137709476Y-122701562D01*
X137701023Y-122704992D01*
X137699948Y-122707914D01*
X137694670Y-122713198D01*
X137688135Y-122714266D01*
X137676143Y-122719028D01*
X137664397Y-122730145D01*
X137651716Y-122741505D01*
X137638780Y-122746024D01*
X137626232Y-122749938D01*
X137621432Y-122755551D01*
X137612765Y-122763607D01*
X137605858Y-122765078D01*
X137592774Y-122769545D01*
X137582401Y-122777829D01*
X137568068Y-122789935D01*
X137549623Y-122801070D01*
X137532363Y-122808295D01*
X137525194Y-122809539D01*
X137516298Y-122814189D01*
X137505641Y-122825373D01*
X137505607Y-122825418D01*
X137492492Y-122837198D01*
X137474208Y-122841210D01*
X137469784Y-122841297D01*
X137454442Y-122842895D01*
X137446288Y-122846858D01*
X137445885Y-122848103D01*
X137440489Y-122860013D01*
X137427801Y-122869711D01*
X137414955Y-122873055D01*
X137402608Y-122875873D01*
X137398248Y-122879407D01*
X137389802Y-122883702D01*
X137374410Y-122885734D01*
X137372467Y-122885758D01*
X137356174Y-122887898D01*
X137350630Y-122894689D01*
X137350611Y-122895286D01*
X137345527Y-122903707D01*
X137341084Y-122904813D01*
X137332631Y-122908243D01*
X137331556Y-122911165D01*
X137326135Y-122915990D01*
X137316131Y-122917516D01*
X137300019Y-122921319D01*
X137291178Y-122927044D01*
X137278503Y-122934966D01*
X137270996Y-122936571D01*
X137259806Y-122941233D01*
X137247857Y-122952442D01*
X137247851Y-122952450D01*
X137234870Y-122963919D01*
X137217182Y-122968129D01*
X137210112Y-122968329D01*
X137188812Y-122971246D01*
X137172477Y-122981896D01*
X137168658Y-122985796D01*
X137155186Y-122996829D01*
X137142891Y-123001496D01*
X137141161Y-123001408D01*
X137129814Y-123004454D01*
X137126111Y-123009348D01*
X137118095Y-123016230D01*
X137099929Y-123019024D01*
X137093372Y-123019142D01*
X137071954Y-123021069D01*
X137061549Y-123027069D01*
X137060735Y-123028669D01*
X137052073Y-123036702D01*
X137045055Y-123038197D01*
X137035109Y-123040990D01*
X137033032Y-123044548D01*
X137027618Y-123049399D01*
X137017832Y-123050900D01*
X137004660Y-123054447D01*
X136998977Y-123060427D01*
X136989787Y-123067633D01*
X136972891Y-123069955D01*
X136958118Y-123071537D01*
X136950675Y-123075431D01*
X136950461Y-123076306D01*
X136945025Y-123081081D01*
X136934582Y-123082658D01*
X136922645Y-123084832D01*
X136918703Y-123089009D01*
X136912991Y-123092633D01*
X136898385Y-123094932D01*
X136886945Y-123095361D01*
X136866974Y-123096381D01*
X136857219Y-123099912D01*
X136855187Y-123104888D01*
X136849666Y-123112551D01*
X136839308Y-123114416D01*
X136827372Y-123116590D01*
X136823429Y-123120767D01*
X136818015Y-123125618D01*
X136808230Y-123127119D01*
X136795058Y-123130667D01*
X136789374Y-123136646D01*
X136783095Y-123142440D01*
X136768413Y-123145440D01*
X136747410Y-123146174D01*
X136727029Y-123147133D01*
X136713203Y-123149643D01*
X136709101Y-123152525D01*
X136703772Y-123157659D01*
X136696198Y-123158877D01*
X136683985Y-123163016D01*
X136679640Y-123168404D01*
X136670554Y-123175599D01*
X136654433Y-123177932D01*
X136640011Y-123179573D01*
X136633008Y-123183595D01*
X136632882Y-123184283D01*
X136627175Y-123187932D01*
X136612607Y-123190229D01*
X136601653Y-123190635D01*
X136583199Y-123191518D01*
X136570922Y-123193770D01*
X136568307Y-123195398D01*
X136558791Y-123204359D01*
X136540763Y-123212820D01*
X136518375Y-123219302D01*
X136495780Y-123222328D01*
X136492433Y-123222393D01*
X136470476Y-123223970D01*
X136459180Y-123229007D01*
X136457334Y-123231920D01*
X136448882Y-123239143D01*
X136437437Y-123241447D01*
X136422650Y-123243692D01*
X136404648Y-123249292D01*
X136387584Y-123256546D01*
X136375609Y-123263750D01*
X136372466Y-123268076D01*
X136366696Y-123270781D01*
X136351697Y-123272640D01*
X136334357Y-123273205D01*
X136314058Y-123274170D01*
X136300295Y-123276689D01*
X136296247Y-123279557D01*
X136290812Y-123284332D01*
X136280368Y-123285909D01*
X136267597Y-123289221D01*
X136264489Y-123295436D01*
X136260177Y-123302144D01*
X136245979Y-123304832D01*
X136239763Y-123304963D01*
X136220042Y-123307528D01*
X136211380Y-123314491D01*
X136204478Y-123320598D01*
X136188430Y-123323549D01*
X136172966Y-123324018D01*
X136153016Y-123325093D01*
X136138686Y-123327857D01*
X136134282Y-123330370D01*
X136125337Y-123335676D01*
X136117829Y-123336721D01*
X136105776Y-123340976D01*
X136101645Y-123346249D01*
X136094686Y-123352384D01*
X136078513Y-123355329D01*
X136063511Y-123355776D01*
X136036659Y-123358072D01*
X136016376Y-123364302D01*
X136013427Y-123366002D01*
X135999280Y-123372347D01*
X135988861Y-123372789D01*
X135979106Y-123375134D01*
X135967069Y-123386155D01*
X135965631Y-123387970D01*
X135957049Y-123397895D01*
X135947917Y-123403483D01*
X135934406Y-123405967D01*
X135912687Y-123406581D01*
X135907851Y-123406589D01*
X135885408Y-123407445D01*
X135869942Y-123409731D01*
X135864339Y-123412940D01*
X135858916Y-123417756D01*
X135848835Y-123419292D01*
X135835387Y-123421634D01*
X135829406Y-123425643D01*
X135820399Y-123431081D01*
X135813831Y-123431995D01*
X135802161Y-123436548D01*
X135798527Y-123441522D01*
X135792248Y-123447316D01*
X135777565Y-123450316D01*
X135756562Y-123451050D01*
X135736181Y-123452010D01*
X135722355Y-123454519D01*
X135718253Y-123457401D01*
X135712839Y-123462252D01*
X135703054Y-123463753D01*
X135689881Y-123467301D01*
X135684198Y-123473280D01*
X135675655Y-123480108D01*
X135656242Y-123482752D01*
X135651761Y-123482808D01*
X135634646Y-123484061D01*
X135624338Y-123487234D01*
X135622979Y-123489159D01*
X135617396Y-123493358D01*
X135603666Y-123495456D01*
X135600749Y-123495511D01*
X135584306Y-123497577D01*
X135578558Y-123504171D01*
X135578518Y-123505038D01*
X135573434Y-123513459D01*
X135568991Y-123514566D01*
X135560538Y-123517995D01*
X135559463Y-123520917D01*
X135553845Y-123524968D01*
X135539882Y-123527148D01*
X135535164Y-123527269D01*
X135513006Y-123523666D01*
X135495758Y-123511187D01*
X135495507Y-123510921D01*
X135485853Y-123499676D01*
X135484627Y-123493448D01*
X135491109Y-123488439D01*
X135491224Y-123488375D01*
X135500492Y-123478104D01*
X135502299Y-123470987D01*
X135506420Y-123458332D01*
X135515002Y-123446161D01*
X135524388Y-123429689D01*
X135527705Y-123413007D01*
X135530663Y-123397221D01*
X135537233Y-123389831D01*
X135545517Y-123381111D01*
X135546760Y-123375258D01*
X135551128Y-123363655D01*
X135561732Y-123350295D01*
X135562639Y-123349424D01*
X135573568Y-123335954D01*
X135578495Y-123323553D01*
X135578518Y-123322911D01*
X135581606Y-123313210D01*
X135585323Y-123311315D01*
X135597195Y-123305939D01*
X135606920Y-123293343D01*
X135610276Y-123280690D01*
X135614547Y-123268659D01*
X135619803Y-123264557D01*
X135627576Y-123255960D01*
X135629331Y-123247640D01*
X135633888Y-123236177D01*
X135646070Y-123219778D01*
X135661089Y-123203930D01*
X135676983Y-123187769D01*
X135688374Y-123174427D01*
X135692844Y-123166741D01*
X135692847Y-123166658D01*
X135697023Y-123159281D01*
X135708161Y-123145500D01*
X135724173Y-123127830D01*
X135730956Y-123120767D01*
X135748228Y-123102419D01*
X135761417Y-123087187D01*
X135768443Y-123077521D01*
X135769066Y-123075827D01*
X135774136Y-123070448D01*
X135777520Y-123069955D01*
X135786410Y-123064887D01*
X135794472Y-123054076D01*
X135803380Y-123042472D01*
X135811424Y-123038197D01*
X135819164Y-123034394D01*
X135819878Y-123031845D01*
X135825314Y-123027070D01*
X135835757Y-123025493D01*
X135848528Y-123022181D01*
X135851636Y-123015966D01*
X135855306Y-123007517D01*
X135858442Y-123006439D01*
X135869216Y-123001628D01*
X135879450Y-122991068D01*
X135883394Y-122981486D01*
X135888447Y-122975259D01*
X135891848Y-122974681D01*
X135900739Y-122969613D01*
X135908801Y-122958802D01*
X135918955Y-122947123D01*
X135929343Y-122942923D01*
X135939423Y-122938637D01*
X135955015Y-122927313D01*
X135973020Y-122911249D01*
X135975906Y-122908403D01*
X136010426Y-122873884D01*
X136010426Y-122613429D01*
X136010271Y-122542757D01*
X136009813Y-122482355D01*
X136009062Y-122432657D01*
X136008030Y-122394096D01*
X136006725Y-122367105D01*
X136005159Y-122352117D01*
X136004074Y-122349049D01*
X135999158Y-122340294D01*
X135997723Y-122329620D01*
X135999945Y-122317864D01*
X136004074Y-122314116D01*
X136008301Y-122308539D01*
X136010381Y-122294855D01*
X136010426Y-122292260D01*
X136008743Y-122276439D01*
X136004635Y-122266910D01*
X136004074Y-122266479D01*
X135998768Y-122257534D01*
X135997723Y-122250026D01*
X135993468Y-122237973D01*
X135988195Y-122233842D01*
X135980079Y-122225160D01*
X135978668Y-122218537D01*
X135975589Y-122206662D01*
X135972316Y-122202963D01*
X135966655Y-122193853D01*
X135965965Y-122188801D01*
X135961180Y-122178133D01*
X135948784Y-122163033D01*
X135931716Y-122146144D01*
X135912915Y-122130112D01*
X135895318Y-122117580D01*
X135881865Y-122111193D01*
X135879356Y-122110865D01*
X135870629Y-122111942D01*
X135866153Y-122117271D01*
X135864529Y-122129997D01*
X135864339Y-122144585D01*
X135866233Y-122168439D01*
X135871245Y-122186464D01*
X135873665Y-122190634D01*
X135881111Y-122205418D01*
X135882897Y-122219814D01*
X135879002Y-122229617D01*
X135873867Y-122231545D01*
X135866204Y-122237066D01*
X135864339Y-122247424D01*
X135862531Y-122259366D01*
X135859061Y-122263303D01*
X135852556Y-122258311D01*
X135845285Y-122247424D01*
X135837301Y-122235881D01*
X135831055Y-122231545D01*
X135820037Y-122226187D01*
X135810735Y-122213652D01*
X135807175Y-122200241D01*
X135803309Y-122189540D01*
X135797648Y-122187084D01*
X135789199Y-122183414D01*
X135788120Y-122180279D01*
X135783309Y-122169504D01*
X135772749Y-122159270D01*
X135763168Y-122155326D01*
X135756642Y-122150446D01*
X135756362Y-122148521D01*
X135751551Y-122137746D01*
X135740992Y-122127513D01*
X135731410Y-122123568D01*
X135724884Y-122118688D01*
X135724605Y-122116763D01*
X135719793Y-122105988D01*
X135709234Y-122095755D01*
X135699652Y-122091810D01*
X135693126Y-122086930D01*
X135692847Y-122085005D01*
X135688035Y-122074230D01*
X135677476Y-122063997D01*
X135667894Y-122060052D01*
X135661445Y-122055120D01*
X135661089Y-122052813D01*
X135655511Y-122041570D01*
X135641491Y-122033383D01*
X135623097Y-122029109D01*
X135604396Y-122029601D01*
X135589457Y-122035716D01*
X135587592Y-122037368D01*
X135580805Y-122049954D01*
X135578711Y-122065739D01*
X135581667Y-122078795D01*
X135584870Y-122082283D01*
X135588930Y-122090611D01*
X135591105Y-122106407D01*
X135591221Y-122111240D01*
X135590449Y-122127370D01*
X135586237Y-122134479D01*
X135575739Y-122136238D01*
X135571808Y-122136271D01*
X135558181Y-122133788D01*
X135543746Y-122125063D01*
X135525497Y-122108179D01*
X135521946Y-122104513D01*
X135505187Y-122088529D01*
X135490492Y-122077122D01*
X135481034Y-122072755D01*
X135481019Y-122072755D01*
X135471973Y-122069599D01*
X135470541Y-122066404D01*
X135465396Y-122060769D01*
X135461014Y-122060052D01*
X135452593Y-122054968D01*
X135451486Y-122050525D01*
X135445965Y-122042862D01*
X135435607Y-122040997D01*
X135423671Y-122038823D01*
X135419728Y-122034646D01*
X135414293Y-122029871D01*
X135403849Y-122028294D01*
X135391915Y-122025966D01*
X135387970Y-122021489D01*
X135382539Y-122009511D01*
X135369682Y-121999861D01*
X135356467Y-121996536D01*
X135344060Y-121992529D01*
X135339455Y-121987009D01*
X135331017Y-121979946D01*
X135318351Y-121977481D01*
X135301311Y-121973034D01*
X135284265Y-121962056D01*
X135283769Y-121961602D01*
X135268974Y-121950936D01*
X135255398Y-121945805D01*
X135254036Y-121945723D01*
X135239469Y-121942311D01*
X135225770Y-121935458D01*
X135209983Y-121929012D01*
X135197023Y-121928614D01*
X135184561Y-121927772D01*
X135180476Y-121923000D01*
X135171523Y-121916401D01*
X135152731Y-121913966D01*
X135152282Y-121913966D01*
X135136625Y-121912521D01*
X135128086Y-121908922D01*
X135127555Y-121907614D01*
X135121584Y-121904521D01*
X135105162Y-121902330D01*
X135080525Y-121901306D01*
X135073567Y-121901262D01*
X135019578Y-121901262D01*
X135019578Y-121923493D01*
X135021174Y-121938187D01*
X135025096Y-121945531D01*
X135025930Y-121945723D01*
X135030704Y-121951159D01*
X135032281Y-121961602D01*
X135031076Y-121971449D01*
X135025177Y-121976082D01*
X135011162Y-121977429D01*
X135004074Y-121977481D01*
X134986123Y-121976166D01*
X134974068Y-121972853D01*
X134971941Y-121971130D01*
X134962996Y-121965823D01*
X134955488Y-121964778D01*
X134943436Y-121960524D01*
X134939305Y-121955251D01*
X134934798Y-121950561D01*
X134924168Y-121947634D01*
X134905207Y-121946134D01*
X134876766Y-121945723D01*
X134846251Y-121945155D01*
X134826189Y-121943240D01*
X134814370Y-121939664D01*
X134809976Y-121936196D01*
X134798287Y-121929673D01*
X134780001Y-121926703D01*
X134777815Y-121926669D01*
X134761165Y-121925147D01*
X134750635Y-121921381D01*
X134749636Y-121920317D01*
X134740622Y-121914865D01*
X134734160Y-121913966D01*
X134720471Y-121909368D01*
X134714702Y-121904438D01*
X134701387Y-121897588D01*
X134676606Y-121894940D01*
X134673014Y-121894911D01*
X134653351Y-121893806D01*
X134639344Y-121890972D01*
X134635307Y-121888559D01*
X134626552Y-121883643D01*
X134615878Y-121882208D01*
X134603388Y-121878827D01*
X134600373Y-121872680D01*
X134594852Y-121865018D01*
X134584494Y-121863153D01*
X134572558Y-121860979D01*
X134568616Y-121856801D01*
X134562939Y-121853009D01*
X134548582Y-121850738D01*
X134540106Y-121850450D01*
X134512960Y-121853853D01*
X134495697Y-121864685D01*
X134487280Y-121883875D01*
X134486045Y-121899123D01*
X134484609Y-121916660D01*
X134481015Y-121928264D01*
X134479456Y-121929991D01*
X134471360Y-121928438D01*
X134458658Y-121919758D01*
X134452844Y-121914487D01*
X134440237Y-121903487D01*
X134428042Y-121897597D01*
X134411521Y-121895263D01*
X134393116Y-121894911D01*
X134371764Y-121893966D01*
X134355873Y-121891507D01*
X134349486Y-121888559D01*
X134340731Y-121883643D01*
X134330056Y-121882208D01*
X134318300Y-121879986D01*
X134314552Y-121875856D01*
X134308965Y-121871673D01*
X134295211Y-121869565D01*
X134292122Y-121869504D01*
X134274110Y-121866776D01*
X134266036Y-121859977D01*
X134259072Y-121853839D01*
X134242888Y-121850895D01*
X134227927Y-121850450D01*
X134205242Y-121849175D01*
X134192997Y-121845012D01*
X134189817Y-121840922D01*
X134181316Y-121833519D01*
X134170962Y-121831395D01*
X134159354Y-121829132D01*
X134155762Y-121825043D01*
X134150191Y-121820793D01*
X134136546Y-121818729D01*
X134134211Y-121818692D01*
X134116863Y-121815896D01*
X134109004Y-121809164D01*
X134100432Y-121802065D01*
X134087201Y-121799637D01*
X134067264Y-121793979D01*
X134054137Y-121783758D01*
X134033800Y-121770280D01*
X134018471Y-121767879D01*
X134003045Y-121766109D01*
X133994000Y-121761821D01*
X133993797Y-121761527D01*
X133984629Y-121755735D01*
X133980416Y-121755176D01*
X133969895Y-121750824D01*
X133957145Y-121740251D01*
X133956244Y-121739297D01*
X133942224Y-121728285D01*
X133928493Y-121723429D01*
X133927965Y-121723418D01*
X133917446Y-121720086D01*
X133914404Y-121708096D01*
X133914402Y-121707539D01*
X133911779Y-121695452D01*
X133901449Y-121691727D01*
X133898523Y-121691660D01*
X133885752Y-121688347D01*
X133882644Y-121682133D01*
X133879214Y-121673680D01*
X133876292Y-121672605D01*
X133871038Y-121667316D01*
X133869941Y-121660582D01*
X133865520Y-121648747D01*
X133860413Y-121644902D01*
X133852744Y-121636331D01*
X133850886Y-121627469D01*
X133846050Y-121614527D01*
X133833574Y-121599211D01*
X133828656Y-121594704D01*
X133815229Y-121581067D01*
X133807319Y-121568845D01*
X133806425Y-121565109D01*
X133802125Y-121555025D01*
X133791064Y-121540373D01*
X133781019Y-121529694D01*
X133766899Y-121513969D01*
X133757674Y-121499977D01*
X133755612Y-121493472D01*
X133752480Y-121483875D01*
X133748807Y-121482058D01*
X133736801Y-121476611D01*
X133727171Y-121463682D01*
X133723854Y-121450300D01*
X133719575Y-121435019D01*
X133709416Y-121422763D01*
X133698902Y-121418542D01*
X133694641Y-121412908D01*
X133692270Y-121398834D01*
X133692096Y-121393135D01*
X133690688Y-121377226D01*
X133687169Y-121368377D01*
X133685745Y-121367729D01*
X133681738Y-121362101D01*
X133679538Y-121348070D01*
X133679393Y-121342776D01*
X133677064Y-121324146D01*
X133671317Y-121310039D01*
X133669866Y-121308296D01*
X133661958Y-121295868D01*
X133660338Y-121288588D01*
X133655193Y-121277581D01*
X133650811Y-121274752D01*
X133644914Y-121268274D01*
X133641926Y-121253148D01*
X133641284Y-121234041D01*
X133640274Y-121213430D01*
X133637660Y-121198361D01*
X133634932Y-121193060D01*
X133630375Y-121184484D01*
X133628581Y-121170256D01*
X133625570Y-121154973D01*
X133619053Y-121147720D01*
X133611834Y-121138295D01*
X133609526Y-121119338D01*
X133608081Y-121103681D01*
X133604483Y-121095142D01*
X133603174Y-121094611D01*
X133599777Y-121088837D01*
X133597479Y-121073803D01*
X133596823Y-121057181D01*
X133595762Y-121033731D01*
X133592239Y-121020623D01*
X133587295Y-121016095D01*
X133579449Y-121007479D01*
X133577768Y-120999536D01*
X133575145Y-120989107D01*
X133571416Y-120986634D01*
X133567158Y-120981064D01*
X133565100Y-120967432D01*
X133565065Y-120965181D01*
X133562396Y-120948113D01*
X133555933Y-120936168D01*
X133555537Y-120935821D01*
X133548834Y-120923392D01*
X133546035Y-120902506D01*
X133546010Y-120900110D01*
X133544616Y-120883098D01*
X133541064Y-120873324D01*
X133539205Y-120872305D01*
X133526175Y-120866483D01*
X133517617Y-120850016D01*
X133514272Y-120824403D01*
X133514252Y-120821946D01*
X133513125Y-120803682D01*
X133510238Y-120792008D01*
X133507900Y-120789734D01*
X133504431Y-120783990D01*
X133502124Y-120769164D01*
X133501549Y-120754601D01*
X133500329Y-120731745D01*
X133496329Y-120719299D01*
X133492021Y-120715812D01*
X133485106Y-120708731D01*
X133482547Y-120698121D01*
X133485002Y-120689715D01*
X133488846Y-120688109D01*
X133493029Y-120682522D01*
X133495137Y-120668768D01*
X133495197Y-120665679D01*
X133497926Y-120647667D01*
X133504725Y-120639593D01*
X133512128Y-120631093D01*
X133514252Y-120620738D01*
X133516675Y-120609133D01*
X133521057Y-120605538D01*
X133532957Y-120600148D01*
X133542663Y-120587486D01*
X133546010Y-120574695D01*
X133550727Y-120561976D01*
X133561889Y-120549509D01*
X133573174Y-120536642D01*
X133577768Y-120523642D01*
X133579888Y-120512954D01*
X133583063Y-120510265D01*
X133591974Y-120505814D01*
X133605442Y-120494670D01*
X133620195Y-120480147D01*
X133632964Y-120465560D01*
X133640480Y-120454220D01*
X133641284Y-120451263D01*
X133645753Y-120442031D01*
X133657758Y-120426614D01*
X133675189Y-120407098D01*
X133695941Y-120385570D01*
X133717906Y-120364116D01*
X133738978Y-120344821D01*
X133757049Y-120329773D01*
X133770011Y-120321056D01*
X133774148Y-120319717D01*
X133784899Y-120315866D01*
X133787370Y-120310190D01*
X133791040Y-120301741D01*
X133794175Y-120300662D01*
X133804950Y-120295851D01*
X133815184Y-120285291D01*
X133819128Y-120275710D01*
X133824008Y-120269183D01*
X133825933Y-120268904D01*
X133836708Y-120264093D01*
X133846942Y-120253533D01*
X133850886Y-120243952D01*
X133856023Y-120237917D01*
X133860413Y-120237146D01*
X133868866Y-120233717D01*
X133869941Y-120230795D01*
X133875376Y-120226020D01*
X133885820Y-120224443D01*
X133897767Y-120222810D01*
X133901707Y-120219679D01*
X133906495Y-120209220D01*
X133917940Y-120196437D01*
X133931701Y-120185367D01*
X133943436Y-120180044D01*
X133944421Y-120179982D01*
X133957053Y-120175197D01*
X133969008Y-120164103D01*
X133980417Y-120152841D01*
X133990878Y-120148224D01*
X133999795Y-120143827D01*
X134014153Y-120132221D01*
X134031058Y-120115782D01*
X134033408Y-120113290D01*
X134052507Y-120094710D01*
X134068782Y-120082423D01*
X134079120Y-120078357D01*
X134089669Y-120075774D01*
X134092246Y-120072005D01*
X134097498Y-120066645D01*
X134103538Y-120065653D01*
X134116040Y-120061114D01*
X134125769Y-120052878D01*
X134132121Y-120040646D01*
X134135840Y-120024515D01*
X134136573Y-120008870D01*
X134133967Y-119998098D01*
X134130356Y-119995786D01*
X134125581Y-119990350D01*
X134124004Y-119979907D01*
X134120692Y-119967136D01*
X134114477Y-119964028D01*
X134106739Y-119958655D01*
X134104950Y-119950465D01*
X134100484Y-119936921D01*
X134089677Y-119922758D01*
X134089071Y-119922186D01*
X134075673Y-119902332D01*
X134073192Y-119888112D01*
X134071378Y-119874603D01*
X134067000Y-119868760D01*
X134066840Y-119868754D01*
X134062014Y-119863333D01*
X134060488Y-119853336D01*
X134055339Y-119837661D01*
X134044610Y-119825428D01*
X134035092Y-119815919D01*
X134030316Y-119803904D01*
X134028783Y-119784914D01*
X134028731Y-119778108D01*
X134027039Y-119754024D01*
X134022332Y-119738821D01*
X134020092Y-119736108D01*
X134014397Y-119724536D01*
X134014465Y-119713179D01*
X134013466Y-119698699D01*
X134007225Y-119693485D01*
X133999118Y-119684715D01*
X133996973Y-119675031D01*
X133993268Y-119662138D01*
X133987445Y-119656855D01*
X133980582Y-119648346D01*
X133977829Y-119633357D01*
X133979187Y-119617429D01*
X133984656Y-119606101D01*
X133987445Y-119604284D01*
X133995876Y-119596886D01*
X133996973Y-119592854D01*
X134002024Y-119584476D01*
X134012852Y-119576581D01*
X134024456Y-119567673D01*
X134028731Y-119559629D01*
X134032798Y-119551894D01*
X134035536Y-119551175D01*
X134046311Y-119546364D01*
X134056544Y-119535804D01*
X134060488Y-119526222D01*
X134065368Y-119519696D01*
X134067294Y-119519417D01*
X134078069Y-119514606D01*
X134088302Y-119504046D01*
X134092246Y-119494464D01*
X134097126Y-119487938D01*
X134099052Y-119487659D01*
X134109827Y-119482848D01*
X134120060Y-119472288D01*
X134124004Y-119462706D01*
X134128884Y-119456180D01*
X134130810Y-119455901D01*
X134141585Y-119451090D01*
X134151818Y-119440530D01*
X134155762Y-119430948D01*
X134160642Y-119424422D01*
X134162568Y-119424143D01*
X134172209Y-119419942D01*
X134182467Y-119410830D01*
X134187510Y-119402043D01*
X134187520Y-119401748D01*
X134191809Y-119395702D01*
X134203226Y-119383325D01*
X134219594Y-119366938D01*
X134225630Y-119361124D01*
X134243292Y-119343022D01*
X134256609Y-119327008D01*
X134263339Y-119315856D01*
X134263739Y-119313906D01*
X134268606Y-119302592D01*
X134273267Y-119299408D01*
X134281649Y-119290667D01*
X134282794Y-119285252D01*
X134286881Y-119273831D01*
X134296896Y-119259608D01*
X134298673Y-119257626D01*
X134309264Y-119243638D01*
X134314448Y-119231755D01*
X134314552Y-119230498D01*
X134319695Y-119219650D01*
X134324079Y-119216838D01*
X134332490Y-119210353D01*
X134333607Y-119207056D01*
X134338380Y-119196859D01*
X134348821Y-119186890D01*
X134358559Y-119182783D01*
X134363755Y-119177372D01*
X134365365Y-119167583D01*
X134368912Y-119154411D01*
X134374892Y-119148728D01*
X134382738Y-119140112D01*
X134384419Y-119132169D01*
X134387043Y-119121741D01*
X134390771Y-119119267D01*
X134396406Y-119114122D01*
X134397123Y-119109739D01*
X134400552Y-119101287D01*
X134403474Y-119100212D01*
X134409043Y-119095040D01*
X134409826Y-119090275D01*
X134414371Y-119080027D01*
X134425623Y-119067191D01*
X134428881Y-119064304D01*
X134441258Y-119050960D01*
X134447682Y-119038316D01*
X134447935Y-119036132D01*
X134450706Y-119026121D01*
X134454287Y-119023993D01*
X134459338Y-119018639D01*
X134460639Y-119010452D01*
X134465060Y-118998202D01*
X134476244Y-118982810D01*
X134482869Y-118975945D01*
X134496111Y-118960947D01*
X134504067Y-118947092D01*
X134505100Y-118942310D01*
X134509816Y-118929611D01*
X134520979Y-118917151D01*
X134532264Y-118904284D01*
X134536858Y-118891283D01*
X134539398Y-118880602D01*
X134543211Y-118877907D01*
X134550579Y-118873604D01*
X134563630Y-118862518D01*
X134579631Y-118847381D01*
X134595848Y-118830925D01*
X134609551Y-118815882D01*
X134618005Y-118804984D01*
X134619428Y-118801702D01*
X134623746Y-118794945D01*
X134635333Y-118781596D01*
X134652137Y-118763694D01*
X134672106Y-118743279D01*
X134693188Y-118722391D01*
X134713334Y-118703068D01*
X134730490Y-118687352D01*
X134742605Y-118677281D01*
X134747222Y-118674656D01*
X134756301Y-118670006D01*
X134769797Y-118658203D01*
X134784795Y-118642469D01*
X134798377Y-118626025D01*
X134807630Y-118612092D01*
X134809976Y-118605322D01*
X134805373Y-118591513D01*
X134800448Y-118585733D01*
X134792296Y-118573193D01*
X134790921Y-118565901D01*
X134788107Y-118556010D01*
X134784570Y-118553976D01*
X134779795Y-118548540D01*
X134778218Y-118538097D01*
X134776044Y-118526160D01*
X134771866Y-118522218D01*
X134766655Y-118516915D01*
X134765515Y-118509889D01*
X134762598Y-118497730D01*
X134759163Y-118493635D01*
X134756674Y-118485910D01*
X134754707Y-118467276D01*
X134753384Y-118439526D01*
X134752823Y-118404447D01*
X134752812Y-118398362D01*
X134753242Y-118362290D01*
X134754453Y-118333265D01*
X134756326Y-118313074D01*
X134758741Y-118303509D01*
X134759163Y-118303088D01*
X134763459Y-118294642D01*
X134765490Y-118279250D01*
X134765515Y-118277307D01*
X134767135Y-118262762D01*
X134771112Y-118255605D01*
X134771866Y-118255451D01*
X134777501Y-118250306D01*
X134778218Y-118245924D01*
X134781887Y-118237475D01*
X134785023Y-118236396D01*
X134794588Y-118232232D01*
X134804845Y-118223207D01*
X134809960Y-118214521D01*
X134809976Y-118214166D01*
X134814650Y-118205644D01*
X134824780Y-118196506D01*
X134834529Y-118191949D01*
X134834929Y-118191935D01*
X134840043Y-118186502D01*
X134841734Y-118176056D01*
X134844357Y-118163969D01*
X134854687Y-118160244D01*
X134857613Y-118160177D01*
X134869750Y-118157266D01*
X134873492Y-118151723D01*
X134878559Y-118142833D01*
X134889371Y-118134771D01*
X134900951Y-118126229D01*
X134905250Y-118118892D01*
X134910292Y-118110810D01*
X134921129Y-118103013D01*
X134932661Y-118095181D01*
X134937008Y-118089236D01*
X134942428Y-118085203D01*
X134952207Y-118083958D01*
X134965379Y-118080410D01*
X134971062Y-118074431D01*
X134979698Y-118066506D01*
X134987246Y-118064903D01*
X134999488Y-118062031D01*
X135003699Y-118058552D01*
X135012644Y-118053245D01*
X135020152Y-118052200D01*
X135032205Y-118047945D01*
X135036336Y-118042673D01*
X135041155Y-118037759D01*
X135052511Y-118034792D01*
X135072672Y-118033394D01*
X135093301Y-118033145D01*
X135119354Y-118032435D01*
X135137774Y-118030483D01*
X135146291Y-118027560D01*
X135146610Y-118026794D01*
X135152683Y-118023928D01*
X135169822Y-118021831D01*
X135196402Y-118020650D01*
X135216477Y-118020442D01*
X135248002Y-118020994D01*
X135271072Y-118022552D01*
X135284063Y-118024969D01*
X135286345Y-118026794D01*
X135292219Y-118030053D01*
X135307957Y-118032305D01*
X135330729Y-118033145D01*
X135354338Y-118033485D01*
X135369577Y-118035577D01*
X135380779Y-118041035D01*
X135392278Y-118051468D01*
X135399009Y-118058541D01*
X135414302Y-118072759D01*
X135427898Y-118081980D01*
X135434019Y-118083948D01*
X135443430Y-118087824D01*
X135445135Y-118092196D01*
X135449393Y-118100906D01*
X135460357Y-118114604D01*
X135470541Y-118125243D01*
X135484569Y-118140265D01*
X135493796Y-118152685D01*
X135495947Y-118157963D01*
X135499965Y-118167543D01*
X135509833Y-118180794D01*
X135511826Y-118183008D01*
X135522966Y-118199915D01*
X135527699Y-118217084D01*
X135527705Y-118217589D01*
X135530833Y-118231724D01*
X135537233Y-118238693D01*
X135545157Y-118247328D01*
X135546760Y-118254877D01*
X135549632Y-118267119D01*
X135553112Y-118271330D01*
X135557984Y-118280063D01*
X135559463Y-118291134D01*
X135561531Y-118301742D01*
X135565860Y-118303060D01*
X135573121Y-118304430D01*
X135576067Y-118309037D01*
X135584885Y-118317486D01*
X135591585Y-118318967D01*
X135604334Y-118323957D01*
X135609956Y-118330082D01*
X135615760Y-118337728D01*
X135621255Y-118335011D01*
X135625263Y-118330082D01*
X135637994Y-118321795D01*
X135653320Y-118318967D01*
X135667737Y-118316757D01*
X135675242Y-118311438D01*
X135675255Y-118311403D01*
X135683362Y-118306729D01*
X135703019Y-118305211D01*
X135713335Y-118305486D01*
X135735951Y-118305484D01*
X135748928Y-118302473D01*
X135754418Y-118297261D01*
X135757322Y-118294501D01*
X135763474Y-118292264D01*
X135774148Y-118290480D01*
X135790613Y-118289081D01*
X135814144Y-118287996D01*
X135846012Y-118287157D01*
X135887489Y-118286493D01*
X135939846Y-118285936D01*
X135966167Y-118285711D01*
X136172391Y-118284033D01*
X136174129Y-118174468D01*
X136175111Y-118134436D01*
X136176609Y-118102218D01*
X136178525Y-118079195D01*
X136180757Y-118066745D01*
X136182069Y-118064903D01*
X136186731Y-118059467D01*
X136188270Y-118049024D01*
X136190445Y-118037088D01*
X136194622Y-118033145D01*
X136199397Y-118027710D01*
X136200974Y-118017266D01*
X136204286Y-118004495D01*
X136210501Y-118001387D01*
X136217604Y-117996478D01*
X136220020Y-117980900D01*
X136220028Y-117979532D01*
X136221711Y-117963711D01*
X136225820Y-117954182D01*
X136226380Y-117953750D01*
X136232098Y-117944615D01*
X136232732Y-117939924D01*
X136237248Y-117931135D01*
X136249297Y-117916396D01*
X136266627Y-117897860D01*
X136286988Y-117877681D01*
X136308130Y-117858012D01*
X136327802Y-117841007D01*
X136343753Y-117828818D01*
X136353732Y-117823599D01*
X136354368Y-117823543D01*
X136364155Y-117820490D01*
X136366115Y-117816738D01*
X136371690Y-117804481D01*
X136385331Y-117795065D01*
X136400595Y-117791785D01*
X136412747Y-117789666D01*
X136416928Y-117785433D01*
X136422511Y-117781235D01*
X136436241Y-117779137D01*
X136439158Y-117779082D01*
X136455600Y-117777016D01*
X136461349Y-117770422D01*
X136461389Y-117769554D01*
X136466910Y-117761892D01*
X136477268Y-117760027D01*
X136489204Y-117757853D01*
X136493147Y-117753675D01*
X136498730Y-117749477D01*
X136512460Y-117747379D01*
X136515377Y-117747324D01*
X136531819Y-117745258D01*
X136537568Y-117738664D01*
X136537608Y-117737797D01*
X136539024Y-117734897D01*
X136544176Y-117732640D01*
X136554423Y-117730948D01*
X136571122Y-117729744D01*
X136595630Y-117728953D01*
X136629304Y-117728496D01*
X136673501Y-117728297D01*
X136705925Y-117728269D01*
X136757149Y-117728349D01*
D11*
G36*
X145681000Y-127901000D02*
G01*
X143879000Y-127901000D01*
X143879000Y-126099000D01*
X145681000Y-126099000D01*
X145681000Y-127901000D01*
G37*
G36*
X144893512Y-123563927D02*
G01*
X145042812Y-123593624D01*
X145206784Y-123661544D01*
X145354354Y-123760147D01*
X145479853Y-123885646D01*
X145578456Y-124033216D01*
X145646376Y-124197188D01*
X145681000Y-124371259D01*
X145681000Y-124548741D01*
X145646376Y-124722812D01*
X145578456Y-124886784D01*
X145479853Y-125034354D01*
X145354354Y-125159853D01*
X145206784Y-125258456D01*
X145042812Y-125326376D01*
X144893512Y-125356073D01*
X144868742Y-125361000D01*
X144691258Y-125361000D01*
X144666488Y-125356073D01*
X144517188Y-125326376D01*
X144353216Y-125258456D01*
X144205646Y-125159853D01*
X144080147Y-125034354D01*
X143981544Y-124886784D01*
X143913624Y-124722812D01*
X143879000Y-124548741D01*
X143879000Y-124371259D01*
X143913624Y-124197188D01*
X143981544Y-124033216D01*
X144080147Y-123885646D01*
X144205646Y-123760147D01*
X144353216Y-123661544D01*
X144517188Y-123593624D01*
X144666488Y-123563927D01*
X144691258Y-123559000D01*
X144868742Y-123559000D01*
X144893512Y-123563927D01*
G37*
G36*
X140067999Y-123659737D02*
G01*
X140077608Y-123662652D01*
X140086472Y-123667390D01*
X140094237Y-123673763D01*
X140104448Y-123686206D01*
X140111378Y-123696575D01*
X140128705Y-123713902D01*
X140149080Y-123727515D01*
X140171720Y-123736891D01*
X140195753Y-123741671D01*
X140220257Y-123741670D01*
X140244290Y-123736888D01*
X140266929Y-123727510D01*
X140287302Y-123713895D01*
X140304629Y-123696568D01*
X140311558Y-123686198D01*
X140321763Y-123673763D01*
X140329528Y-123667390D01*
X140338392Y-123662652D01*
X140348001Y-123659737D01*
X140364140Y-123658148D01*
X140851861Y-123658148D01*
X140870199Y-123659954D01*
X140882450Y-123660556D01*
X140900869Y-123660556D01*
X140923149Y-123662750D01*
X141007233Y-123679476D01*
X141028660Y-123685976D01*
X141107858Y-123718780D01*
X141113303Y-123721691D01*
X141113309Y-123721693D01*
X141122169Y-123726429D01*
X141122173Y-123726432D01*
X141127614Y-123729340D01*
X141198899Y-123776971D01*
X141216204Y-123791172D01*
X141276828Y-123851796D01*
X141291029Y-123869101D01*
X141338660Y-123940386D01*
X141341568Y-123945827D01*
X141341571Y-123945831D01*
X141346307Y-123954691D01*
X141346309Y-123954697D01*
X141349220Y-123960142D01*
X141382024Y-124039340D01*
X141388524Y-124060767D01*
X141405250Y-124144851D01*
X141407444Y-124167131D01*
X141407444Y-124185550D01*
X141408046Y-124197801D01*
X141409852Y-124216139D01*
X141409852Y-124703862D01*
X141408046Y-124722199D01*
X141407444Y-124734450D01*
X141407444Y-124752869D01*
X141405250Y-124775149D01*
X141388524Y-124859233D01*
X141382024Y-124880660D01*
X141349220Y-124959858D01*
X141346309Y-124965303D01*
X141346307Y-124965309D01*
X141341571Y-124974169D01*
X141341568Y-124974173D01*
X141338660Y-124979614D01*
X141291029Y-125050899D01*
X141276828Y-125068204D01*
X141216204Y-125128828D01*
X141198899Y-125143029D01*
X141127614Y-125190660D01*
X141122173Y-125193568D01*
X141122169Y-125193571D01*
X141113309Y-125198307D01*
X141113303Y-125198309D01*
X141107858Y-125201220D01*
X141028660Y-125234024D01*
X141007233Y-125240524D01*
X140923149Y-125257250D01*
X140900869Y-125259444D01*
X140882450Y-125259444D01*
X140870199Y-125260046D01*
X140851862Y-125261852D01*
X140364140Y-125261852D01*
X140348001Y-125260263D01*
X140338392Y-125257348D01*
X140329528Y-125252610D01*
X140321763Y-125246237D01*
X140311552Y-125233794D01*
X140304622Y-125223425D01*
X140287295Y-125206098D01*
X140266920Y-125192485D01*
X140244280Y-125183109D01*
X140220247Y-125178329D01*
X140195743Y-125178330D01*
X140171710Y-125183112D01*
X140149071Y-125192490D01*
X140128698Y-125206105D01*
X140111371Y-125223432D01*
X140104442Y-125233802D01*
X140094237Y-125246237D01*
X140086472Y-125252610D01*
X140077608Y-125257348D01*
X140067999Y-125260263D01*
X140051860Y-125261852D01*
X139564138Y-125261852D01*
X139545801Y-125260046D01*
X139533550Y-125259444D01*
X139515131Y-125259444D01*
X139492851Y-125257250D01*
X139408767Y-125240524D01*
X139387340Y-125234024D01*
X139308142Y-125201220D01*
X139302697Y-125198309D01*
X139302691Y-125198307D01*
X139293831Y-125193571D01*
X139293827Y-125193568D01*
X139288386Y-125190660D01*
X139217101Y-125143029D01*
X139199796Y-125128828D01*
X139139172Y-125068204D01*
X139124971Y-125050899D01*
X139077340Y-124979614D01*
X139074432Y-124974173D01*
X139074429Y-124974169D01*
X139069693Y-124965309D01*
X139069691Y-124965303D01*
X139066780Y-124959858D01*
X139033976Y-124880660D01*
X139027476Y-124859233D01*
X139010750Y-124775149D01*
X139008556Y-124752869D01*
X139008556Y-124734450D01*
X139007954Y-124722199D01*
X139006148Y-124703862D01*
X139006148Y-124216139D01*
X139007954Y-124197801D01*
X139008556Y-124185550D01*
X139008556Y-124167131D01*
X139010750Y-124144851D01*
X139027476Y-124060767D01*
X139033976Y-124039340D01*
X139066780Y-123960142D01*
X139069691Y-123954697D01*
X139069693Y-123954691D01*
X139074429Y-123945831D01*
X139074432Y-123945827D01*
X139077340Y-123940386D01*
X139124971Y-123869101D01*
X139139172Y-123851796D01*
X139199796Y-123791172D01*
X139217101Y-123776971D01*
X139288386Y-123729340D01*
X139293827Y-123726432D01*
X139293831Y-123726429D01*
X139302691Y-123721693D01*
X139302697Y-123721691D01*
X139308142Y-123718780D01*
X139387340Y-123685976D01*
X139408767Y-123679476D01*
X139492851Y-123662750D01*
X139515131Y-123660556D01*
X139533550Y-123660556D01*
X139545801Y-123659954D01*
X139564139Y-123658148D01*
X140051860Y-123658148D01*
X140067999Y-123659737D01*
G37*
G36*
X128431000Y-105961000D02*
G01*
X128207782Y-105961000D01*
X128183396Y-105963402D01*
X128159947Y-105970515D01*
X128138336Y-105982066D01*
X128119394Y-105997611D01*
X128103849Y-106016553D01*
X128092298Y-106038164D01*
X128085185Y-106061613D01*
X128082783Y-106085999D01*
X128085185Y-106110385D01*
X128092298Y-106133834D01*
X128103849Y-106155445D01*
X128119394Y-106174387D01*
X128138336Y-106189932D01*
X128199816Y-106231012D01*
X128231242Y-106252010D01*
X128307990Y-106328758D01*
X128307991Y-106328760D01*
X128368291Y-106419005D01*
X128409826Y-106519279D01*
X128431000Y-106625730D01*
X128431000Y-106734270D01*
X128409826Y-106840721D01*
X128368291Y-106940995D01*
X128367077Y-106942812D01*
X128307990Y-107031242D01*
X128231242Y-107107990D01*
X128185812Y-107138345D01*
X128140995Y-107168291D01*
X128065611Y-107199516D01*
X128044000Y-107211067D01*
X128025059Y-107226612D01*
X128009513Y-107245554D01*
X127997962Y-107267165D01*
X127990849Y-107290614D01*
X127988447Y-107315000D01*
X127990849Y-107339386D01*
X127997962Y-107362835D01*
X128009513Y-107384446D01*
X128025058Y-107403387D01*
X128044000Y-107418933D01*
X128065611Y-107430484D01*
X128140995Y-107461709D01*
X128185812Y-107491655D01*
X128231242Y-107522010D01*
X128307990Y-107598758D01*
X128307991Y-107598760D01*
X128368291Y-107689005D01*
X128409826Y-107789279D01*
X128431000Y-107895730D01*
X128431000Y-108004270D01*
X128409826Y-108110721D01*
X128368291Y-108210995D01*
X128368290Y-108210996D01*
X128307990Y-108301242D01*
X128231242Y-108377990D01*
X128185812Y-108408345D01*
X128140995Y-108438291D01*
X128065611Y-108469516D01*
X128044000Y-108481067D01*
X128025059Y-108496612D01*
X128009513Y-108515554D01*
X127997962Y-108537165D01*
X127990849Y-108560614D01*
X127988447Y-108585000D01*
X127990849Y-108609386D01*
X127997962Y-108632835D01*
X128009513Y-108654446D01*
X128025058Y-108673387D01*
X128044000Y-108688933D01*
X128065611Y-108700484D01*
X128140995Y-108731709D01*
X128140996Y-108731710D01*
X128231242Y-108792010D01*
X128307990Y-108868758D01*
X128307991Y-108868760D01*
X128368291Y-108959005D01*
X128409826Y-109059279D01*
X128431000Y-109165730D01*
X128431000Y-109274270D01*
X128409826Y-109380721D01*
X128368291Y-109480995D01*
X128367077Y-109482812D01*
X128307990Y-109571242D01*
X128231242Y-109647990D01*
X128185812Y-109678345D01*
X128140995Y-109708291D01*
X128065611Y-109739516D01*
X128044000Y-109751067D01*
X128025059Y-109766612D01*
X128009513Y-109785554D01*
X127997962Y-109807165D01*
X127990849Y-109830614D01*
X127988447Y-109855000D01*
X127990849Y-109879386D01*
X127997962Y-109902835D01*
X128009513Y-109924446D01*
X128025058Y-109943387D01*
X128044000Y-109958933D01*
X128065611Y-109970484D01*
X128140995Y-110001709D01*
X128185812Y-110031655D01*
X128231242Y-110062010D01*
X128307990Y-110138758D01*
X128307991Y-110138760D01*
X128368291Y-110229005D01*
X128409826Y-110329279D01*
X128431000Y-110435730D01*
X128431000Y-110544270D01*
X128409826Y-110650721D01*
X128368291Y-110750995D01*
X128368290Y-110750996D01*
X128307990Y-110841242D01*
X128231242Y-110917990D01*
X128185812Y-110948345D01*
X128140995Y-110978291D01*
X128065611Y-111009516D01*
X128044000Y-111021067D01*
X128025059Y-111036612D01*
X128009513Y-111055554D01*
X127997962Y-111077165D01*
X127990849Y-111100614D01*
X127988447Y-111125000D01*
X127990849Y-111149386D01*
X127997962Y-111172835D01*
X128009513Y-111194446D01*
X128025058Y-111213387D01*
X128044000Y-111228933D01*
X128065611Y-111240484D01*
X128140995Y-111271709D01*
X128140996Y-111271710D01*
X128231242Y-111332010D01*
X128307990Y-111408758D01*
X128307991Y-111408760D01*
X128368291Y-111499005D01*
X128409826Y-111599279D01*
X128431000Y-111705730D01*
X128431000Y-111814270D01*
X128409826Y-111920721D01*
X128368291Y-112020995D01*
X128367077Y-112022812D01*
X128307990Y-112111242D01*
X128231242Y-112187990D01*
X128185812Y-112218345D01*
X128140995Y-112248291D01*
X128065611Y-112279516D01*
X128044000Y-112291067D01*
X128025059Y-112306612D01*
X128009513Y-112325554D01*
X127997962Y-112347165D01*
X127990849Y-112370614D01*
X127988447Y-112395000D01*
X127990849Y-112419386D01*
X127997962Y-112442835D01*
X128009513Y-112464446D01*
X128025058Y-112483387D01*
X128044000Y-112498933D01*
X128065611Y-112510484D01*
X128140995Y-112541709D01*
X128185812Y-112571655D01*
X128231242Y-112602010D01*
X128307990Y-112678758D01*
X128307991Y-112678760D01*
X128368291Y-112769005D01*
X128409826Y-112869279D01*
X128431000Y-112975730D01*
X128431000Y-113084270D01*
X128409826Y-113190721D01*
X128368291Y-113290995D01*
X128368290Y-113290996D01*
X128307990Y-113381242D01*
X128231242Y-113457990D01*
X128192988Y-113483550D01*
X128140995Y-113518291D01*
X128065611Y-113549516D01*
X128044000Y-113561067D01*
X128025059Y-113576612D01*
X128009513Y-113595554D01*
X127997962Y-113617165D01*
X127990849Y-113640614D01*
X127988447Y-113665000D01*
X127990849Y-113689386D01*
X127997962Y-113712835D01*
X128009513Y-113734446D01*
X128025058Y-113753387D01*
X128044000Y-113768933D01*
X128065611Y-113780484D01*
X128140995Y-113811709D01*
X128140996Y-113811710D01*
X128231242Y-113872010D01*
X128307990Y-113948758D01*
X128307991Y-113948760D01*
X128368291Y-114039005D01*
X128409826Y-114139279D01*
X128431000Y-114245730D01*
X128431000Y-114354270D01*
X128409826Y-114460721D01*
X128368291Y-114560995D01*
X128367077Y-114562812D01*
X128307990Y-114651242D01*
X128231242Y-114727990D01*
X128185812Y-114758345D01*
X128140995Y-114788291D01*
X128065611Y-114819516D01*
X128044000Y-114831067D01*
X128025059Y-114846612D01*
X128009513Y-114865554D01*
X127997962Y-114887165D01*
X127990849Y-114910614D01*
X127988447Y-114935000D01*
X127990849Y-114959386D01*
X127997962Y-114982835D01*
X128009513Y-115004446D01*
X128025058Y-115023387D01*
X128044000Y-115038933D01*
X128065611Y-115050484D01*
X128140995Y-115081709D01*
X128185812Y-115111655D01*
X128231242Y-115142010D01*
X128307990Y-115218758D01*
X128307991Y-115218760D01*
X128368291Y-115309005D01*
X128409826Y-115409279D01*
X128431000Y-115515730D01*
X128431000Y-115624270D01*
X128409826Y-115730721D01*
X128368291Y-115830995D01*
X128368290Y-115830996D01*
X128307990Y-115921242D01*
X128231242Y-115997990D01*
X128185812Y-116028345D01*
X128140995Y-116058291D01*
X128065611Y-116089516D01*
X128044000Y-116101067D01*
X128025059Y-116116612D01*
X128009513Y-116135554D01*
X127997962Y-116157165D01*
X127990849Y-116180614D01*
X127988447Y-116205000D01*
X127990849Y-116229386D01*
X127997962Y-116252835D01*
X128009513Y-116274446D01*
X128025058Y-116293387D01*
X128044000Y-116308933D01*
X128065611Y-116320484D01*
X128140995Y-116351709D01*
X128171615Y-116372169D01*
X128231242Y-116412010D01*
X128307990Y-116488758D01*
X128307991Y-116488760D01*
X128368291Y-116579005D01*
X128409826Y-116679279D01*
X128431000Y-116785730D01*
X128431000Y-116894270D01*
X128409826Y-117000721D01*
X128368291Y-117100995D01*
X128367077Y-117102812D01*
X128307990Y-117191242D01*
X128231242Y-117267990D01*
X128185812Y-117298345D01*
X128140995Y-117328291D01*
X128065611Y-117359516D01*
X128044000Y-117371067D01*
X128025059Y-117386612D01*
X128009513Y-117405554D01*
X127997962Y-117427165D01*
X127990849Y-117450614D01*
X127988447Y-117475000D01*
X127990849Y-117499386D01*
X127997962Y-117522835D01*
X128009513Y-117544446D01*
X128025058Y-117563387D01*
X128044000Y-117578933D01*
X128065611Y-117590484D01*
X128140995Y-117621709D01*
X128185812Y-117651655D01*
X128231242Y-117682010D01*
X128307990Y-117758758D01*
X128307991Y-117758760D01*
X128368291Y-117849005D01*
X128409826Y-117949279D01*
X128431000Y-118055730D01*
X128431000Y-118164270D01*
X128409826Y-118270721D01*
X128368291Y-118370995D01*
X128368290Y-118370996D01*
X128307990Y-118461242D01*
X128231242Y-118537990D01*
X128185812Y-118568345D01*
X128140995Y-118598291D01*
X128065611Y-118629516D01*
X128044000Y-118641067D01*
X128025059Y-118656612D01*
X128009513Y-118675554D01*
X127997962Y-118697165D01*
X127990849Y-118720614D01*
X127988447Y-118745000D01*
X127990849Y-118769386D01*
X127997962Y-118792835D01*
X128009513Y-118814446D01*
X128025058Y-118833387D01*
X128044000Y-118848933D01*
X128065611Y-118860484D01*
X128140995Y-118891709D01*
X128140996Y-118891710D01*
X128231242Y-118952010D01*
X128307990Y-119028758D01*
X128307991Y-119028760D01*
X128368291Y-119119005D01*
X128409826Y-119219279D01*
X128431000Y-119325730D01*
X128431000Y-119434270D01*
X128409826Y-119540721D01*
X128368291Y-119640995D01*
X128367077Y-119642812D01*
X128307990Y-119731242D01*
X128231242Y-119807990D01*
X128185812Y-119838345D01*
X128140995Y-119868291D01*
X128065611Y-119899516D01*
X128044000Y-119911067D01*
X128025059Y-119926612D01*
X128009513Y-119945554D01*
X127997962Y-119967165D01*
X127990849Y-119990614D01*
X127988447Y-120015000D01*
X127990849Y-120039386D01*
X127997962Y-120062835D01*
X128009513Y-120084446D01*
X128025058Y-120103387D01*
X128044000Y-120118933D01*
X128065611Y-120130484D01*
X128140995Y-120161709D01*
X128185812Y-120191655D01*
X128231242Y-120222010D01*
X128307990Y-120298758D01*
X128307991Y-120298760D01*
X128368291Y-120389005D01*
X128409826Y-120489279D01*
X128431000Y-120595730D01*
X128431000Y-120704270D01*
X128409826Y-120810721D01*
X128368291Y-120910995D01*
X128368290Y-120910996D01*
X128307990Y-121001242D01*
X128231242Y-121077990D01*
X128185812Y-121108345D01*
X128140995Y-121138291D01*
X128065611Y-121169516D01*
X128044000Y-121181067D01*
X128025059Y-121196612D01*
X128009513Y-121215554D01*
X127997962Y-121237165D01*
X127990849Y-121260614D01*
X127988447Y-121285000D01*
X127990849Y-121309386D01*
X127997962Y-121332835D01*
X128009513Y-121354446D01*
X128025058Y-121373387D01*
X128044000Y-121388933D01*
X128065611Y-121400484D01*
X128140995Y-121431709D01*
X128140996Y-121431710D01*
X128231242Y-121492010D01*
X128307990Y-121568758D01*
X128307991Y-121568760D01*
X128368291Y-121659005D01*
X128409826Y-121759279D01*
X128431000Y-121865730D01*
X128431000Y-121974270D01*
X128409826Y-122080721D01*
X128368291Y-122180995D01*
X128367077Y-122182812D01*
X128307990Y-122271242D01*
X128231242Y-122347990D01*
X128185812Y-122378345D01*
X128140995Y-122408291D01*
X128065611Y-122439516D01*
X128044000Y-122451067D01*
X128025059Y-122466612D01*
X128009513Y-122485554D01*
X127997962Y-122507165D01*
X127990849Y-122530614D01*
X127988447Y-122555000D01*
X127990849Y-122579386D01*
X127997962Y-122602835D01*
X128009513Y-122624446D01*
X128025058Y-122643387D01*
X128044000Y-122658933D01*
X128065611Y-122670484D01*
X128140995Y-122701709D01*
X128185812Y-122731655D01*
X128231242Y-122762010D01*
X128307990Y-122838758D01*
X128307991Y-122838760D01*
X128368291Y-122929005D01*
X128409826Y-123029279D01*
X128431000Y-123135730D01*
X128431000Y-123244270D01*
X128409826Y-123350721D01*
X128368291Y-123450995D01*
X128368290Y-123450996D01*
X128307990Y-123541242D01*
X128231242Y-123617990D01*
X128185812Y-123648345D01*
X128140995Y-123678291D01*
X128040721Y-123719826D01*
X127934270Y-123741000D01*
X127825730Y-123741000D01*
X127719279Y-123719826D01*
X127619005Y-123678291D01*
X127574188Y-123648345D01*
X127528758Y-123617990D01*
X127452010Y-123541242D01*
X127391710Y-123450996D01*
X127391709Y-123450995D01*
X127350174Y-123350721D01*
X127329000Y-123244270D01*
X127329000Y-123135730D01*
X127350174Y-123029279D01*
X127391709Y-122929005D01*
X127452009Y-122838760D01*
X127452010Y-122838758D01*
X127528758Y-122762010D01*
X127574188Y-122731655D01*
X127619005Y-122701709D01*
X127694389Y-122670484D01*
X127716000Y-122658933D01*
X127734941Y-122643388D01*
X127750487Y-122624446D01*
X127762038Y-122602835D01*
X127769151Y-122579386D01*
X127771553Y-122555000D01*
X127769151Y-122530614D01*
X127762038Y-122507165D01*
X127750487Y-122485554D01*
X127734942Y-122466613D01*
X127716000Y-122451067D01*
X127694389Y-122439516D01*
X127619005Y-122408291D01*
X127574188Y-122378345D01*
X127528758Y-122347990D01*
X127452010Y-122271242D01*
X127392923Y-122182812D01*
X127391709Y-122180995D01*
X127350174Y-122080721D01*
X127329000Y-121974270D01*
X127329000Y-121865730D01*
X127350174Y-121759279D01*
X127391709Y-121659005D01*
X127452009Y-121568760D01*
X127452010Y-121568758D01*
X127528758Y-121492010D01*
X127619004Y-121431710D01*
X127619005Y-121431709D01*
X127694389Y-121400484D01*
X127716000Y-121388933D01*
X127734941Y-121373388D01*
X127750487Y-121354446D01*
X127762038Y-121332835D01*
X127769151Y-121309386D01*
X127771553Y-121285000D01*
X127769151Y-121260614D01*
X127762038Y-121237165D01*
X127750487Y-121215554D01*
X127734942Y-121196613D01*
X127716000Y-121181067D01*
X127694389Y-121169516D01*
X127619005Y-121138291D01*
X127574188Y-121108345D01*
X127528758Y-121077990D01*
X127452010Y-121001242D01*
X127391710Y-120910996D01*
X127391709Y-120910995D01*
X127350174Y-120810721D01*
X127329000Y-120704270D01*
X127329000Y-120595730D01*
X127350174Y-120489279D01*
X127391709Y-120389005D01*
X127452009Y-120298760D01*
X127452010Y-120298758D01*
X127528758Y-120222010D01*
X127574188Y-120191655D01*
X127619005Y-120161709D01*
X127694389Y-120130484D01*
X127716000Y-120118933D01*
X127734941Y-120103388D01*
X127750487Y-120084446D01*
X127762038Y-120062835D01*
X127769151Y-120039386D01*
X127771553Y-120015000D01*
X127769151Y-119990614D01*
X127762038Y-119967165D01*
X127750487Y-119945554D01*
X127734942Y-119926613D01*
X127716000Y-119911067D01*
X127694389Y-119899516D01*
X127619005Y-119868291D01*
X127574188Y-119838345D01*
X127528758Y-119807990D01*
X127452010Y-119731242D01*
X127392923Y-119642812D01*
X127391709Y-119640995D01*
X127350174Y-119540721D01*
X127329000Y-119434270D01*
X127329000Y-119325730D01*
X127350174Y-119219279D01*
X127391709Y-119119005D01*
X127452009Y-119028760D01*
X127452010Y-119028758D01*
X127528758Y-118952010D01*
X127619004Y-118891710D01*
X127619005Y-118891709D01*
X127694389Y-118860484D01*
X127716000Y-118848933D01*
X127734941Y-118833388D01*
X127750487Y-118814446D01*
X127762038Y-118792835D01*
X127769151Y-118769386D01*
X127771553Y-118745000D01*
X127769151Y-118720614D01*
X127762038Y-118697165D01*
X127750487Y-118675554D01*
X127734942Y-118656613D01*
X127716000Y-118641067D01*
X127694389Y-118629516D01*
X127619005Y-118598291D01*
X127574188Y-118568345D01*
X127528758Y-118537990D01*
X127452010Y-118461242D01*
X127391710Y-118370996D01*
X127391709Y-118370995D01*
X127350174Y-118270721D01*
X127329000Y-118164270D01*
X127329000Y-118055730D01*
X127350174Y-117949279D01*
X127391709Y-117849005D01*
X127452009Y-117758760D01*
X127452010Y-117758758D01*
X127528758Y-117682010D01*
X127574188Y-117651655D01*
X127619005Y-117621709D01*
X127694389Y-117590484D01*
X127716000Y-117578933D01*
X127734941Y-117563388D01*
X127750487Y-117544446D01*
X127762038Y-117522835D01*
X127769151Y-117499386D01*
X127771553Y-117475000D01*
X127769151Y-117450614D01*
X127762038Y-117427165D01*
X127750487Y-117405554D01*
X127734942Y-117386613D01*
X127716000Y-117371067D01*
X127694389Y-117359516D01*
X127619005Y-117328291D01*
X127574188Y-117298345D01*
X127528758Y-117267990D01*
X127452010Y-117191242D01*
X127392923Y-117102812D01*
X127391709Y-117100995D01*
X127350174Y-117000721D01*
X127329000Y-116894270D01*
X127329000Y-116785730D01*
X127350174Y-116679279D01*
X127391709Y-116579005D01*
X127452009Y-116488760D01*
X127452010Y-116488758D01*
X127528758Y-116412010D01*
X127588385Y-116372169D01*
X127619005Y-116351709D01*
X127694389Y-116320484D01*
X127716000Y-116308933D01*
X127734941Y-116293388D01*
X127750487Y-116274446D01*
X127762038Y-116252835D01*
X127769151Y-116229386D01*
X127771553Y-116205000D01*
X127769151Y-116180614D01*
X127762038Y-116157165D01*
X127750487Y-116135554D01*
X127734942Y-116116613D01*
X127716000Y-116101067D01*
X127694389Y-116089516D01*
X127619005Y-116058291D01*
X127574188Y-116028345D01*
X127528758Y-115997990D01*
X127452010Y-115921242D01*
X127391710Y-115830996D01*
X127391709Y-115830995D01*
X127350174Y-115730721D01*
X127329000Y-115624270D01*
X127329000Y-115515730D01*
X127350174Y-115409279D01*
X127391709Y-115309005D01*
X127452009Y-115218760D01*
X127452010Y-115218758D01*
X127528758Y-115142010D01*
X127574188Y-115111655D01*
X127619005Y-115081709D01*
X127694389Y-115050484D01*
X127716000Y-115038933D01*
X127734941Y-115023388D01*
X127750487Y-115004446D01*
X127762038Y-114982835D01*
X127769151Y-114959386D01*
X127771553Y-114935000D01*
X127769151Y-114910614D01*
X127762038Y-114887165D01*
X127750487Y-114865554D01*
X127734942Y-114846613D01*
X127716000Y-114831067D01*
X127694389Y-114819516D01*
X127619005Y-114788291D01*
X127574188Y-114758345D01*
X127528758Y-114727990D01*
X127452010Y-114651242D01*
X127392923Y-114562812D01*
X127391709Y-114560995D01*
X127350174Y-114460721D01*
X127329000Y-114354270D01*
X127329000Y-114245730D01*
X127350174Y-114139279D01*
X127391709Y-114039005D01*
X127452009Y-113948760D01*
X127452010Y-113948758D01*
X127528758Y-113872010D01*
X127619004Y-113811710D01*
X127619005Y-113811709D01*
X127694389Y-113780484D01*
X127716000Y-113768933D01*
X127734941Y-113753388D01*
X127750487Y-113734446D01*
X127762038Y-113712835D01*
X127769151Y-113689386D01*
X127771553Y-113665000D01*
X127769151Y-113640614D01*
X127762038Y-113617165D01*
X127750487Y-113595554D01*
X127734942Y-113576613D01*
X127716000Y-113561067D01*
X127694389Y-113549516D01*
X127619005Y-113518291D01*
X127567012Y-113483550D01*
X127528758Y-113457990D01*
X127452010Y-113381242D01*
X127391710Y-113290996D01*
X127391709Y-113290995D01*
X127350174Y-113190721D01*
X127329000Y-113084270D01*
X127329000Y-112975730D01*
X127350174Y-112869279D01*
X127391709Y-112769005D01*
X127452009Y-112678760D01*
X127452010Y-112678758D01*
X127528758Y-112602010D01*
X127574188Y-112571655D01*
X127619005Y-112541709D01*
X127694389Y-112510484D01*
X127716000Y-112498933D01*
X127734941Y-112483388D01*
X127750487Y-112464446D01*
X127762038Y-112442835D01*
X127769151Y-112419386D01*
X127771553Y-112395000D01*
X127769151Y-112370614D01*
X127762038Y-112347165D01*
X127750487Y-112325554D01*
X127734942Y-112306613D01*
X127716000Y-112291067D01*
X127694389Y-112279516D01*
X127619005Y-112248291D01*
X127574188Y-112218345D01*
X127528758Y-112187990D01*
X127452010Y-112111242D01*
X127392923Y-112022812D01*
X127391709Y-112020995D01*
X127350174Y-111920721D01*
X127329000Y-111814270D01*
X127329000Y-111705730D01*
X127350174Y-111599279D01*
X127391709Y-111499005D01*
X127452009Y-111408760D01*
X127452010Y-111408758D01*
X127528758Y-111332010D01*
X127619004Y-111271710D01*
X127619005Y-111271709D01*
X127694389Y-111240484D01*
X127716000Y-111228933D01*
X127734941Y-111213388D01*
X127750487Y-111194446D01*
X127762038Y-111172835D01*
X127769151Y-111149386D01*
X127771553Y-111125000D01*
X127769151Y-111100614D01*
X127762038Y-111077165D01*
X127750487Y-111055554D01*
X127734942Y-111036613D01*
X127716000Y-111021067D01*
X127694389Y-111009516D01*
X127619005Y-110978291D01*
X127574188Y-110948345D01*
X127528758Y-110917990D01*
X127452010Y-110841242D01*
X127391710Y-110750996D01*
X127391709Y-110750995D01*
X127350174Y-110650721D01*
X127329000Y-110544270D01*
X127329000Y-110435730D01*
X127350174Y-110329279D01*
X127391709Y-110229005D01*
X127452009Y-110138760D01*
X127452010Y-110138758D01*
X127528758Y-110062010D01*
X127574188Y-110031655D01*
X127619005Y-110001709D01*
X127694389Y-109970484D01*
X127716000Y-109958933D01*
X127734941Y-109943388D01*
X127750487Y-109924446D01*
X127762038Y-109902835D01*
X127769151Y-109879386D01*
X127771553Y-109855000D01*
X127769151Y-109830614D01*
X127762038Y-109807165D01*
X127750487Y-109785554D01*
X127734942Y-109766613D01*
X127716000Y-109751067D01*
X127694389Y-109739516D01*
X127619005Y-109708291D01*
X127574188Y-109678345D01*
X127528758Y-109647990D01*
X127452010Y-109571242D01*
X127392923Y-109482812D01*
X127391709Y-109480995D01*
X127350174Y-109380721D01*
X127329000Y-109274270D01*
X127329000Y-109165730D01*
X127350174Y-109059279D01*
X127391709Y-108959005D01*
X127452009Y-108868760D01*
X127452010Y-108868758D01*
X127528758Y-108792010D01*
X127619004Y-108731710D01*
X127619005Y-108731709D01*
X127694389Y-108700484D01*
X127716000Y-108688933D01*
X127734941Y-108673388D01*
X127750487Y-108654446D01*
X127762038Y-108632835D01*
X127769151Y-108609386D01*
X127771553Y-108585000D01*
X127769151Y-108560614D01*
X127762038Y-108537165D01*
X127750487Y-108515554D01*
X127734942Y-108496613D01*
X127716000Y-108481067D01*
X127694389Y-108469516D01*
X127619005Y-108438291D01*
X127574188Y-108408345D01*
X127528758Y-108377990D01*
X127452010Y-108301242D01*
X127391710Y-108210996D01*
X127391709Y-108210995D01*
X127350174Y-108110721D01*
X127329000Y-108004270D01*
X127329000Y-107895730D01*
X127350174Y-107789279D01*
X127391709Y-107689005D01*
X127452009Y-107598760D01*
X127452010Y-107598758D01*
X127528758Y-107522010D01*
X127574188Y-107491655D01*
X127619005Y-107461709D01*
X127694389Y-107430484D01*
X127716000Y-107418933D01*
X127734941Y-107403388D01*
X127750487Y-107384446D01*
X127762038Y-107362835D01*
X127769151Y-107339386D01*
X127771553Y-107315000D01*
X127769151Y-107290614D01*
X127762038Y-107267165D01*
X127750487Y-107245554D01*
X127734942Y-107226613D01*
X127716000Y-107211067D01*
X127694389Y-107199516D01*
X127619005Y-107168291D01*
X127574188Y-107138345D01*
X127528758Y-107107990D01*
X127452010Y-107031242D01*
X127392923Y-106942812D01*
X127391709Y-106940995D01*
X127350174Y-106840721D01*
X127329000Y-106734270D01*
X127329000Y-106625730D01*
X127350174Y-106519279D01*
X127391709Y-106419005D01*
X127452009Y-106328760D01*
X127452010Y-106328758D01*
X127528758Y-106252010D01*
X127560184Y-106231012D01*
X127621664Y-106189932D01*
X127640606Y-106174386D01*
X127656151Y-106155444D01*
X127667702Y-106133833D01*
X127674815Y-106110385D01*
X127677217Y-106085998D01*
X127674815Y-106061612D01*
X127667702Y-106038163D01*
X127656151Y-106016553D01*
X127640605Y-105997611D01*
X127621663Y-105982066D01*
X127600052Y-105970515D01*
X127576604Y-105963402D01*
X127552218Y-105961000D01*
X127329000Y-105961000D01*
X127329000Y-104859000D01*
X128431000Y-104859000D01*
X128431000Y-105961000D01*
G37*
G36*
X144893512Y-121023927D02*
G01*
X145042812Y-121053624D01*
X145206784Y-121121544D01*
X145354354Y-121220147D01*
X145479853Y-121345646D01*
X145578456Y-121493216D01*
X145646376Y-121657188D01*
X145681000Y-121831259D01*
X145681000Y-122008741D01*
X145646376Y-122182812D01*
X145578456Y-122346784D01*
X145479853Y-122494354D01*
X145354354Y-122619853D01*
X145206784Y-122718456D01*
X145042812Y-122786376D01*
X144893512Y-122816073D01*
X144868742Y-122821000D01*
X144691258Y-122821000D01*
X144666488Y-122816073D01*
X144517188Y-122786376D01*
X144353216Y-122718456D01*
X144205646Y-122619853D01*
X144080147Y-122494354D01*
X143981544Y-122346784D01*
X143913624Y-122182812D01*
X143879000Y-122008741D01*
X143879000Y-121831259D01*
X143913624Y-121657188D01*
X143981544Y-121493216D01*
X144080147Y-121345646D01*
X144205646Y-121220147D01*
X144353216Y-121121544D01*
X144517188Y-121053624D01*
X144666488Y-121023927D01*
X144691258Y-121019000D01*
X144868742Y-121019000D01*
X144893512Y-121023927D01*
G37*
G36*
X144893512Y-118483927D02*
G01*
X145042812Y-118513624D01*
X145206784Y-118581544D01*
X145354354Y-118680147D01*
X145479853Y-118805646D01*
X145578456Y-118953216D01*
X145646376Y-119117188D01*
X145681000Y-119291259D01*
X145681000Y-119468741D01*
X145646376Y-119642812D01*
X145578456Y-119806784D01*
X145479853Y-119954354D01*
X145354354Y-120079853D01*
X145206784Y-120178456D01*
X145042812Y-120246376D01*
X144893512Y-120276073D01*
X144868742Y-120281000D01*
X144691258Y-120281000D01*
X144666488Y-120276073D01*
X144517188Y-120246376D01*
X144353216Y-120178456D01*
X144205646Y-120079853D01*
X144080147Y-119954354D01*
X143981544Y-119806784D01*
X143913624Y-119642812D01*
X143879000Y-119468741D01*
X143879000Y-119291259D01*
X143913624Y-119117188D01*
X143981544Y-118953216D01*
X144080147Y-118805646D01*
X144205646Y-118680147D01*
X144353216Y-118581544D01*
X144517188Y-118513624D01*
X144666488Y-118483927D01*
X144691258Y-118479000D01*
X144868742Y-118479000D01*
X144893512Y-118483927D01*
G37*
G36*
X144893512Y-115943927D02*
G01*
X145042812Y-115973624D01*
X145206784Y-116041544D01*
X145354354Y-116140147D01*
X145479853Y-116265646D01*
X145578456Y-116413216D01*
X145646376Y-116577188D01*
X145681000Y-116751259D01*
X145681000Y-116928741D01*
X145646376Y-117102812D01*
X145578456Y-117266784D01*
X145479853Y-117414354D01*
X145354354Y-117539853D01*
X145206784Y-117638456D01*
X145042812Y-117706376D01*
X144893512Y-117736073D01*
X144868742Y-117741000D01*
X144691258Y-117741000D01*
X144666488Y-117736073D01*
X144517188Y-117706376D01*
X144353216Y-117638456D01*
X144205646Y-117539853D01*
X144080147Y-117414354D01*
X143981544Y-117266784D01*
X143913624Y-117102812D01*
X143879000Y-116928741D01*
X143879000Y-116751259D01*
X143913624Y-116577188D01*
X143981544Y-116413216D01*
X144080147Y-116265646D01*
X144205646Y-116140147D01*
X144353216Y-116041544D01*
X144517188Y-115973624D01*
X144666488Y-115943927D01*
X144691258Y-115939000D01*
X144868742Y-115939000D01*
X144893512Y-115943927D01*
G37*
G36*
X135898199Y-112957954D02*
G01*
X135910450Y-112958556D01*
X135928869Y-112958556D01*
X135951149Y-112960750D01*
X136035233Y-112977476D01*
X136056660Y-112983976D01*
X136135858Y-113016780D01*
X136141303Y-113019691D01*
X136141309Y-113019693D01*
X136150169Y-113024429D01*
X136150173Y-113024432D01*
X136155614Y-113027340D01*
X136226899Y-113074971D01*
X136244204Y-113089172D01*
X136304828Y-113149796D01*
X136319029Y-113167101D01*
X136366660Y-113238386D01*
X136369568Y-113243827D01*
X136369571Y-113243831D01*
X136374307Y-113252691D01*
X136374309Y-113252697D01*
X136377220Y-113258142D01*
X136410024Y-113337340D01*
X136416524Y-113358767D01*
X136433250Y-113442851D01*
X136435444Y-113465131D01*
X136435444Y-113483550D01*
X136436046Y-113495801D01*
X136437852Y-113514139D01*
X136437852Y-114051860D01*
X136436263Y-114067999D01*
X136431855Y-114082528D01*
X136426394Y-114095711D01*
X136421612Y-114119745D01*
X136421611Y-114144249D01*
X136426391Y-114168282D01*
X136435768Y-114190921D01*
X136437000Y-114192765D01*
X136437000Y-115424050D01*
X136430525Y-115436164D01*
X136423412Y-115459613D01*
X136421010Y-115483999D01*
X136423412Y-115508385D01*
X136430525Y-115531834D01*
X136432848Y-115536746D01*
X136436263Y-115548001D01*
X136437852Y-115564140D01*
X136437852Y-116101862D01*
X136436046Y-116120199D01*
X136435444Y-116132450D01*
X136435444Y-116150869D01*
X136433250Y-116173149D01*
X136416524Y-116257233D01*
X136410024Y-116278660D01*
X136377220Y-116357858D01*
X136374309Y-116363303D01*
X136374307Y-116363309D01*
X136369571Y-116372169D01*
X136369568Y-116372173D01*
X136366660Y-116377614D01*
X136319029Y-116448899D01*
X136304828Y-116466204D01*
X136244204Y-116526828D01*
X136226899Y-116541029D01*
X136155614Y-116588660D01*
X136150173Y-116591568D01*
X136150169Y-116591571D01*
X136141309Y-116596307D01*
X136141303Y-116596309D01*
X136135858Y-116599220D01*
X136056660Y-116632024D01*
X136035233Y-116638524D01*
X135951149Y-116655250D01*
X135928869Y-116657444D01*
X135910450Y-116657444D01*
X135898199Y-116658046D01*
X135879862Y-116659852D01*
X135392138Y-116659852D01*
X135373801Y-116658046D01*
X135361550Y-116657444D01*
X135343131Y-116657444D01*
X135320851Y-116655250D01*
X135236767Y-116638524D01*
X135215340Y-116632024D01*
X135136142Y-116599220D01*
X135130697Y-116596309D01*
X135130691Y-116596307D01*
X135121831Y-116591571D01*
X135121827Y-116591568D01*
X135116386Y-116588660D01*
X135045101Y-116541029D01*
X135027796Y-116526828D01*
X134967172Y-116466204D01*
X134952971Y-116448899D01*
X134905340Y-116377614D01*
X134902432Y-116372173D01*
X134902429Y-116372169D01*
X134897693Y-116363309D01*
X134897691Y-116363303D01*
X134894780Y-116357858D01*
X134861976Y-116278660D01*
X134855476Y-116257233D01*
X134838750Y-116173149D01*
X134836556Y-116150869D01*
X134836556Y-116132450D01*
X134835954Y-116120199D01*
X134834148Y-116101862D01*
X134834148Y-115564140D01*
X134835737Y-115548001D01*
X134840145Y-115533472D01*
X134845606Y-115520289D01*
X134850388Y-115496255D01*
X134850389Y-115471751D01*
X134845609Y-115447718D01*
X134836232Y-115425079D01*
X134835000Y-115423235D01*
X134835000Y-114191950D01*
X134841475Y-114179836D01*
X134848588Y-114156387D01*
X134850990Y-114132001D01*
X134848588Y-114107615D01*
X134841475Y-114084166D01*
X134839152Y-114079254D01*
X134835737Y-114067999D01*
X134834148Y-114051860D01*
X134834148Y-113514139D01*
X134835954Y-113495801D01*
X134836556Y-113483550D01*
X134836556Y-113465131D01*
X134838750Y-113442851D01*
X134855476Y-113358767D01*
X134861976Y-113337340D01*
X134894780Y-113258142D01*
X134897691Y-113252697D01*
X134897693Y-113252691D01*
X134902429Y-113243831D01*
X134902432Y-113243827D01*
X134905340Y-113238386D01*
X134952971Y-113167101D01*
X134967172Y-113149796D01*
X135027796Y-113089172D01*
X135045101Y-113074971D01*
X135116386Y-113027340D01*
X135121827Y-113024432D01*
X135121831Y-113024429D01*
X135130691Y-113019693D01*
X135130697Y-113019691D01*
X135136142Y-113016780D01*
X135215340Y-112983976D01*
X135236767Y-112977476D01*
X135320851Y-112960750D01*
X135343131Y-112958556D01*
X135361550Y-112958556D01*
X135373801Y-112957954D01*
X135392139Y-112956148D01*
X135879861Y-112956148D01*
X135898199Y-112957954D01*
G37*
G36*
X144893512Y-113403927D02*
G01*
X145042812Y-113433624D01*
X145206784Y-113501544D01*
X145354354Y-113600147D01*
X145479853Y-113725646D01*
X145578456Y-113873216D01*
X145646376Y-114037188D01*
X145681000Y-114211259D01*
X145681000Y-114388741D01*
X145646376Y-114562812D01*
X145578456Y-114726784D01*
X145479853Y-114874354D01*
X145354354Y-114999853D01*
X145206784Y-115098456D01*
X145042812Y-115166376D01*
X144893512Y-115196073D01*
X144868742Y-115201000D01*
X144691258Y-115201000D01*
X144666488Y-115196073D01*
X144517188Y-115166376D01*
X144353216Y-115098456D01*
X144205646Y-114999853D01*
X144080147Y-114874354D01*
X143981544Y-114726784D01*
X143913624Y-114562812D01*
X143879000Y-114388741D01*
X143879000Y-114211259D01*
X143913624Y-114037188D01*
X143981544Y-113873216D01*
X144080147Y-113725646D01*
X144205646Y-113600147D01*
X144353216Y-113501544D01*
X144517188Y-113433624D01*
X144666488Y-113403927D01*
X144691258Y-113399000D01*
X144868742Y-113399000D01*
X144893512Y-113403927D01*
G37*
G36*
X144893512Y-110863927D02*
G01*
X145042812Y-110893624D01*
X145206784Y-110961544D01*
X145354354Y-111060147D01*
X145479853Y-111185646D01*
X145578456Y-111333216D01*
X145646376Y-111497188D01*
X145681000Y-111671259D01*
X145681000Y-111848741D01*
X145646376Y-112022812D01*
X145578456Y-112186784D01*
X145479853Y-112334354D01*
X145354354Y-112459853D01*
X145206784Y-112558456D01*
X145042812Y-112626376D01*
X144893512Y-112656073D01*
X144868742Y-112661000D01*
X144691258Y-112661000D01*
X144666488Y-112656073D01*
X144517188Y-112626376D01*
X144353216Y-112558456D01*
X144205646Y-112459853D01*
X144080147Y-112334354D01*
X143981544Y-112186784D01*
X143913624Y-112022812D01*
X143879000Y-111848741D01*
X143879000Y-111671259D01*
X143913624Y-111497188D01*
X143981544Y-111333216D01*
X144080147Y-111185646D01*
X144205646Y-111060147D01*
X144353216Y-110961544D01*
X144517188Y-110893624D01*
X144666488Y-110863927D01*
X144691258Y-110859000D01*
X144868742Y-110859000D01*
X144893512Y-110863927D01*
G37*
G36*
X144893512Y-108323927D02*
G01*
X145042812Y-108353624D01*
X145206784Y-108421544D01*
X145354354Y-108520147D01*
X145479853Y-108645646D01*
X145578456Y-108793216D01*
X145646376Y-108957188D01*
X145681000Y-109131259D01*
X145681000Y-109308741D01*
X145646376Y-109482812D01*
X145578456Y-109646784D01*
X145479853Y-109794354D01*
X145354354Y-109919853D01*
X145206784Y-110018456D01*
X145042812Y-110086376D01*
X144893512Y-110116073D01*
X144868742Y-110121000D01*
X144691258Y-110121000D01*
X144666488Y-110116073D01*
X144517188Y-110086376D01*
X144353216Y-110018456D01*
X144205646Y-109919853D01*
X144080147Y-109794354D01*
X143981544Y-109646784D01*
X143913624Y-109482812D01*
X143879000Y-109308741D01*
X143879000Y-109131259D01*
X143913624Y-108957188D01*
X143981544Y-108793216D01*
X144080147Y-108645646D01*
X144205646Y-108520147D01*
X144353216Y-108421544D01*
X144517188Y-108353624D01*
X144666488Y-108323927D01*
X144691258Y-108319000D01*
X144868742Y-108319000D01*
X144893512Y-108323927D01*
G37*
G36*
X144893512Y-105783927D02*
G01*
X145042812Y-105813624D01*
X145206784Y-105881544D01*
X145354354Y-105980147D01*
X145479853Y-106105646D01*
X145578456Y-106253216D01*
X145646376Y-106417188D01*
X145681000Y-106591259D01*
X145681000Y-106768741D01*
X145646376Y-106942812D01*
X145578456Y-107106784D01*
X145479853Y-107254354D01*
X145354354Y-107379853D01*
X145206784Y-107478456D01*
X145042812Y-107546376D01*
X144893512Y-107576073D01*
X144868742Y-107581000D01*
X144691258Y-107581000D01*
X144666488Y-107576073D01*
X144517188Y-107546376D01*
X144353216Y-107478456D01*
X144205646Y-107379853D01*
X144080147Y-107254354D01*
X143981544Y-107106784D01*
X143913624Y-106942812D01*
X143879000Y-106768741D01*
X143879000Y-106591259D01*
X143913624Y-106417188D01*
X143981544Y-106253216D01*
X144080147Y-106105646D01*
X144205646Y-105980147D01*
X144353216Y-105881544D01*
X144517188Y-105813624D01*
X144666488Y-105783927D01*
X144691258Y-105779000D01*
X144868742Y-105779000D01*
X144893512Y-105783927D01*
G37*
G36*
X144893512Y-103243927D02*
G01*
X145042812Y-103273624D01*
X145206784Y-103341544D01*
X145354354Y-103440147D01*
X145479853Y-103565646D01*
X145578456Y-103713216D01*
X145646376Y-103877188D01*
X145681000Y-104051259D01*
X145681000Y-104228741D01*
X145646376Y-104402812D01*
X145578456Y-104566784D01*
X145479853Y-104714354D01*
X145354354Y-104839853D01*
X145206784Y-104938456D01*
X145042812Y-105006376D01*
X144893512Y-105036073D01*
X144868742Y-105041000D01*
X144691258Y-105041000D01*
X144666488Y-105036073D01*
X144517188Y-105006376D01*
X144353216Y-104938456D01*
X144205646Y-104839853D01*
X144080147Y-104714354D01*
X143981544Y-104566784D01*
X143913624Y-104402812D01*
X143879000Y-104228741D01*
X143879000Y-104051259D01*
X143913624Y-103877188D01*
X143981544Y-103713216D01*
X144080147Y-103565646D01*
X144205646Y-103440147D01*
X144353216Y-103341544D01*
X144517188Y-103273624D01*
X144666488Y-103243927D01*
X144691258Y-103239000D01*
X144868742Y-103239000D01*
X144893512Y-103243927D01*
G37*
G36*
X144893512Y-100703927D02*
G01*
X145042812Y-100733624D01*
X145206784Y-100801544D01*
X145354354Y-100900147D01*
X145479853Y-101025646D01*
X145578456Y-101173216D01*
X145646376Y-101337188D01*
X145681000Y-101511259D01*
X145681000Y-101688741D01*
X145646376Y-101862812D01*
X145578456Y-102026784D01*
X145479853Y-102174354D01*
X145354354Y-102299853D01*
X145206784Y-102398456D01*
X145042812Y-102466376D01*
X144893512Y-102496073D01*
X144868742Y-102501000D01*
X144691258Y-102501000D01*
X144666488Y-102496073D01*
X144517188Y-102466376D01*
X144353216Y-102398456D01*
X144205646Y-102299853D01*
X144080147Y-102174354D01*
X143981544Y-102026784D01*
X143913624Y-101862812D01*
X143879000Y-101688741D01*
X143879000Y-101511259D01*
X143913624Y-101337188D01*
X143981544Y-101173216D01*
X144080147Y-101025646D01*
X144205646Y-100900147D01*
X144353216Y-100801544D01*
X144517188Y-100733624D01*
X144666488Y-100703927D01*
X144691258Y-100699000D01*
X144868742Y-100699000D01*
X144893512Y-100703927D01*
G37*
M02*
