G04 #@! TF.GenerationSoftware,KiCad,Pcbnew,(5.1.5)-3*
G04 #@! TF.CreationDate,2020-01-25T19:38:27+03:00*
G04 #@! TF.ProjectId,Sharp PC-1600 MemCard,53686172-7020-4504-932d-31363030204d,rev?*
G04 #@! TF.SameCoordinates,Original*
G04 #@! TF.FileFunction,Copper,L2,Bot*
G04 #@! TF.FilePolarity,Positive*
%FSLAX46Y46*%
G04 Gerber Fmt 4.6, Leading zero omitted, Abs format (unit mm)*
G04 Created by KiCad (PCBNEW (5.1.5)-3) date 2020-01-25 19:38:27*
%MOMM*%
%LPD*%
G04 APERTURE LIST*
%ADD10R,1.700000X1.700000*%
%ADD11O,1.700000X1.700000*%
%ADD12C,0.800000*%
%ADD13C,0.800000*%
%ADD14C,0.250000*%
%ADD15C,0.200000*%
%ADD16C,0.254000*%
G04 APERTURE END LIST*
D10*
X149860000Y-66675000D03*
D11*
X149860000Y-69215000D03*
X149860000Y-71755000D03*
X149860000Y-74295000D03*
X149860000Y-76835000D03*
X149860000Y-79375000D03*
X149860000Y-81915000D03*
X149860000Y-84455000D03*
X149860000Y-86995000D03*
X149860000Y-89535000D03*
D10*
X146050000Y-66675000D03*
D11*
X146050000Y-69215000D03*
X146050000Y-71755000D03*
X146050000Y-74295000D03*
X146050000Y-76835000D03*
X146050000Y-79375000D03*
X146050000Y-81915000D03*
X146050000Y-84455000D03*
X146050000Y-86995000D03*
X146050000Y-89535000D03*
D10*
X135255000Y-66675000D03*
D11*
X135255000Y-69215000D03*
X135255000Y-71755000D03*
X135255000Y-74295000D03*
X135255000Y-76835000D03*
X135255000Y-79375000D03*
X135255000Y-81915000D03*
X135255000Y-84455000D03*
X135255000Y-86995000D03*
X135255000Y-89535000D03*
D10*
X160655000Y-66675000D03*
D11*
X160655000Y-69215000D03*
X160655000Y-71755000D03*
X160655000Y-74295000D03*
X160655000Y-76835000D03*
X160655000Y-79375000D03*
X160655000Y-81915000D03*
X160655000Y-84455000D03*
X160655000Y-86995000D03*
X160655000Y-89535000D03*
D12*
X146050000Y-64135000D03*
X160655000Y-64135000D03*
X154940000Y-64135000D03*
X161290000Y-96520000D03*
X135255000Y-64135000D03*
X136525000Y-64135000D03*
X159385000Y-64135000D03*
X149860000Y-64135000D03*
X140335000Y-64135000D03*
X134620000Y-96520000D03*
X134620000Y-95250000D03*
X161290000Y-95250000D03*
X147955000Y-88265000D03*
X147955000Y-78105000D03*
X147955000Y-68580000D03*
X150495000Y-93345000D03*
X146050000Y-93345000D03*
D13*
X158750000Y-99045000D02*
X158750000Y-106045000D01*
X157480000Y-99045000D02*
X157480000Y-106045000D01*
X156210000Y-99045000D02*
X156210000Y-106045000D01*
X154940000Y-99045000D02*
X154940000Y-106045000D01*
X153670000Y-99045000D02*
X153670000Y-106045000D01*
X152400000Y-99045000D02*
X152400000Y-106045000D01*
X151130000Y-99045000D02*
X151130000Y-106045000D01*
X149860000Y-99045000D02*
X149860000Y-106045000D01*
X148590000Y-99045000D02*
X148590000Y-106045000D01*
X147320000Y-99045000D02*
X147320000Y-106045000D01*
X146050000Y-99045000D02*
X146050000Y-106045000D01*
X144780000Y-99045000D02*
X144780000Y-106045000D01*
X143510000Y-99045000D02*
X143510000Y-106045000D01*
X142240000Y-99045000D02*
X142240000Y-106045000D01*
X140970000Y-99045000D02*
X140970000Y-106045000D01*
X139700000Y-99045000D02*
X139700000Y-106045000D01*
X138430000Y-99045000D02*
X138430000Y-106045000D01*
X137160000Y-99045000D02*
X137160000Y-106045000D01*
D14*
X147320000Y-90805000D02*
X146050000Y-89535000D01*
X147320000Y-99045000D02*
X147320000Y-90805000D01*
X148590000Y-90805000D02*
X149860000Y-89535000D01*
X148590000Y-99045000D02*
X148590000Y-90805000D01*
X153670000Y-99045000D02*
X153670000Y-83185000D01*
X153670000Y-83185000D02*
X149860000Y-79375000D01*
X152400000Y-99045000D02*
X152400000Y-98425000D01*
X152400000Y-98425000D02*
X153035000Y-97790000D01*
X153035000Y-97790000D02*
X153035000Y-85090000D01*
X153035000Y-85090000D02*
X149860000Y-81915000D01*
X151130000Y-98425000D02*
X151130000Y-99045000D01*
X152400000Y-97155000D02*
X151130000Y-98425000D01*
X149860000Y-84455000D02*
X152400000Y-86995000D01*
X152400000Y-86995000D02*
X152400000Y-97155000D01*
X149860000Y-99045000D02*
X149860000Y-98425000D01*
X149860000Y-98425000D02*
X151765000Y-96520000D01*
X151765000Y-96520000D02*
X151765000Y-88900000D01*
X151765000Y-88900000D02*
X149860000Y-86995000D01*
X154940000Y-99045000D02*
X154940000Y-98425000D01*
X154940000Y-98425000D02*
X154305000Y-97790000D01*
X154305000Y-97790000D02*
X154305000Y-81280000D01*
X154305000Y-81280000D02*
X149860000Y-76835000D01*
X156210000Y-99045000D02*
X156210000Y-98425000D01*
X156210000Y-98425000D02*
X154940000Y-97155000D01*
X154940000Y-97155000D02*
X154940000Y-79375000D01*
X154940000Y-79375000D02*
X149860000Y-74295000D01*
X157480000Y-99045000D02*
X157480000Y-98425000D01*
X157480000Y-98425000D02*
X155575000Y-96520000D01*
X155575000Y-96520000D02*
X155575000Y-77470000D01*
X155575000Y-77470000D02*
X149860000Y-71755000D01*
X158750000Y-99045000D02*
X158750000Y-98425000D01*
X158750000Y-98425000D02*
X156210000Y-95885000D01*
X156210000Y-95885000D02*
X156210000Y-75565000D01*
X156210000Y-75565000D02*
X149860000Y-69215000D01*
X142240000Y-99045000D02*
X142240000Y-83185000D01*
X142240000Y-83185000D02*
X146050000Y-79375000D01*
X143510000Y-99045000D02*
X143510000Y-98425000D01*
X143510000Y-98425000D02*
X142875000Y-97790000D01*
X142875000Y-97790000D02*
X142875000Y-85090000D01*
X142875000Y-85090000D02*
X146050000Y-81915000D01*
X144780000Y-99045000D02*
X144780000Y-98425000D01*
X144780000Y-98425000D02*
X143510000Y-97155000D01*
X143510000Y-97155000D02*
X143510000Y-86995000D01*
X143510000Y-86995000D02*
X146050000Y-84455000D01*
X146050000Y-99045000D02*
X146050000Y-98425000D01*
X146050000Y-98425000D02*
X144145000Y-96520000D01*
X144145000Y-96520000D02*
X144145000Y-88900000D01*
X144145000Y-88900000D02*
X146050000Y-86995000D01*
X140970000Y-99045000D02*
X140970000Y-98425000D01*
X140970000Y-98425000D02*
X141605000Y-97790000D01*
X141605000Y-97790000D02*
X141605000Y-81280000D01*
X141605000Y-81280000D02*
X146050000Y-76835000D01*
X139700000Y-99045000D02*
X139700000Y-98425000D01*
X139700000Y-98425000D02*
X140970000Y-97155000D01*
X140970000Y-97155000D02*
X140970000Y-79375000D01*
X140970000Y-79375000D02*
X146050000Y-74295000D01*
X138430000Y-99045000D02*
X138430000Y-98425000D01*
X138430000Y-98425000D02*
X140335000Y-96520000D01*
X140335000Y-96520000D02*
X140335000Y-77470000D01*
X140335000Y-77470000D02*
X146050000Y-71755000D01*
X137160000Y-99045000D02*
X137160000Y-98425000D01*
X137160000Y-98425000D02*
X139700000Y-95885000D01*
X139700000Y-95885000D02*
X139700000Y-75565000D01*
X139700000Y-75565000D02*
X146050000Y-69215000D01*
D13*
X135890000Y-99045000D02*
X135890000Y-106645000D01*
D14*
X135890000Y-99045000D02*
X135890000Y-98425000D01*
X135890000Y-98425000D02*
X139065000Y-95250000D01*
X139065000Y-95250000D02*
X139065000Y-73660000D01*
X139065000Y-73660000D02*
X146050000Y-66675000D01*
D13*
X160020000Y-99045000D02*
X160020000Y-106645000D01*
X160020000Y-99045000D02*
X160020000Y-97790000D01*
D15*
G36*
X151140000Y-96261117D02*
G01*
X149439772Y-97961346D01*
X149415921Y-97980920D01*
X149337818Y-98076089D01*
X149279781Y-98184666D01*
X149244043Y-98302479D01*
X149241825Y-98325000D01*
X149215000Y-98325000D01*
X149215000Y-91063882D01*
X149451754Y-90827128D01*
X149466220Y-90833120D01*
X149727037Y-90885000D01*
X149992963Y-90885000D01*
X150253780Y-90833120D01*
X150499465Y-90731354D01*
X150720575Y-90583613D01*
X150908613Y-90395575D01*
X151056354Y-90174465D01*
X151140001Y-89972524D01*
X151140000Y-96261117D01*
G37*
X151140000Y-96261117D02*
X149439772Y-97961346D01*
X149415921Y-97980920D01*
X149337818Y-98076089D01*
X149279781Y-98184666D01*
X149244043Y-98302479D01*
X149241825Y-98325000D01*
X149215000Y-98325000D01*
X149215000Y-91063882D01*
X149451754Y-90827128D01*
X149466220Y-90833120D01*
X149727037Y-90885000D01*
X149992963Y-90885000D01*
X150253780Y-90833120D01*
X150499465Y-90731354D01*
X150720575Y-90583613D01*
X150908613Y-90395575D01*
X151056354Y-90174465D01*
X151140001Y-89972524D01*
X151140000Y-96261117D01*
G36*
X144853646Y-90174465D02*
G01*
X145001387Y-90395575D01*
X145189425Y-90583613D01*
X145410535Y-90731354D01*
X145656220Y-90833120D01*
X145917037Y-90885000D01*
X146182963Y-90885000D01*
X146443780Y-90833120D01*
X146458246Y-90827128D01*
X146695001Y-91063884D01*
X146695000Y-98325000D01*
X146668175Y-98325000D01*
X146665957Y-98302479D01*
X146630219Y-98184666D01*
X146572183Y-98076089D01*
X146494080Y-97980920D01*
X146470229Y-97961346D01*
X144770000Y-96261118D01*
X144770000Y-89972526D01*
X144853646Y-90174465D01*
G37*
X144853646Y-90174465D02*
X145001387Y-90395575D01*
X145189425Y-90583613D01*
X145410535Y-90731354D01*
X145656220Y-90833120D01*
X145917037Y-90885000D01*
X146182963Y-90885000D01*
X146443780Y-90833120D01*
X146458246Y-90827128D01*
X146695001Y-91063884D01*
X146695000Y-98325000D01*
X146668175Y-98325000D01*
X146665957Y-98302479D01*
X146630219Y-98184666D01*
X146572183Y-98076089D01*
X146494080Y-97980920D01*
X146470229Y-97961346D01*
X144770000Y-96261118D01*
X144770000Y-89972526D01*
X144853646Y-90174465D01*
G36*
X145623690Y-63337430D02*
G01*
X145476283Y-63435924D01*
X145350924Y-63561283D01*
X145252430Y-63708690D01*
X145184586Y-63872480D01*
X145150000Y-64046358D01*
X145150000Y-64223642D01*
X145184586Y-64397520D01*
X145252430Y-64561310D01*
X145350924Y-64708717D01*
X145476283Y-64834076D01*
X145623690Y-64932570D01*
X145787480Y-65000414D01*
X145961358Y-65035000D01*
X146138642Y-65035000D01*
X146312520Y-65000414D01*
X146476310Y-64932570D01*
X146623717Y-64834076D01*
X146749076Y-64708717D01*
X146847570Y-64561310D01*
X146915414Y-64397520D01*
X146950000Y-64223642D01*
X146950000Y-64046358D01*
X146915414Y-63872480D01*
X146847570Y-63708690D01*
X146749076Y-63561283D01*
X146623717Y-63435924D01*
X146476310Y-63337430D01*
X146313519Y-63270000D01*
X162185000Y-63270000D01*
X162185001Y-97220000D01*
X160985788Y-97220000D01*
X160960000Y-97217460D01*
X160934212Y-97220000D01*
X160857082Y-97227597D01*
X160758119Y-97257617D01*
X160666914Y-97306367D01*
X160586973Y-97371973D01*
X160521367Y-97451914D01*
X160472617Y-97543119D01*
X160442597Y-97642082D01*
X160432460Y-97745000D01*
X160435001Y-97770798D01*
X160435001Y-98325000D01*
X159368175Y-98325000D01*
X159365957Y-98302479D01*
X159330219Y-98184666D01*
X159305762Y-98138910D01*
X159272182Y-98076087D01*
X159213652Y-98004768D01*
X159213649Y-98004765D01*
X159194080Y-97980920D01*
X159170235Y-97961351D01*
X156835000Y-95626118D01*
X156835000Y-75595693D01*
X156838023Y-75564999D01*
X156835000Y-75534305D01*
X156835000Y-75534296D01*
X156825957Y-75442479D01*
X156790219Y-75324666D01*
X156732183Y-75216089D01*
X156732182Y-75216087D01*
X156693273Y-75168677D01*
X156654080Y-75120920D01*
X156630229Y-75101346D01*
X151152128Y-69623246D01*
X151158120Y-69608780D01*
X151210000Y-69347963D01*
X151210000Y-69082037D01*
X151158120Y-68821220D01*
X151056354Y-68575535D01*
X150908613Y-68354425D01*
X150720575Y-68166387D01*
X150674725Y-68135751D01*
X150710000Y-68135942D01*
X150829189Y-68124203D01*
X150943797Y-68089437D01*
X151049421Y-68032980D01*
X151142001Y-67957001D01*
X151217980Y-67864421D01*
X151274437Y-67758797D01*
X151309203Y-67644189D01*
X151320942Y-67525000D01*
X151318000Y-66981000D01*
X151166000Y-66829000D01*
X150014000Y-66829000D01*
X150014000Y-66849000D01*
X149706000Y-66849000D01*
X149706000Y-66829000D01*
X148554000Y-66829000D01*
X148402000Y-66981000D01*
X148399058Y-67525000D01*
X148410797Y-67644189D01*
X148445563Y-67758797D01*
X148502020Y-67864421D01*
X148577999Y-67957001D01*
X148670579Y-68032980D01*
X148776203Y-68089437D01*
X148890811Y-68124203D01*
X149010000Y-68135942D01*
X149045275Y-68135751D01*
X148999425Y-68166387D01*
X148811387Y-68354425D01*
X148663646Y-68575535D01*
X148561880Y-68821220D01*
X148510000Y-69082037D01*
X148510000Y-69347963D01*
X148561880Y-69608780D01*
X148663646Y-69854465D01*
X148811387Y-70075575D01*
X148999425Y-70263613D01*
X149220535Y-70411354D01*
X149398332Y-70485000D01*
X149220535Y-70558646D01*
X148999425Y-70706387D01*
X148811387Y-70894425D01*
X148663646Y-71115535D01*
X148561880Y-71361220D01*
X148510000Y-71622037D01*
X148510000Y-71887963D01*
X148561880Y-72148780D01*
X148663646Y-72394465D01*
X148811387Y-72615575D01*
X148999425Y-72803613D01*
X149220535Y-72951354D01*
X149398332Y-73025000D01*
X149220535Y-73098646D01*
X148999425Y-73246387D01*
X148811387Y-73434425D01*
X148663646Y-73655535D01*
X148561880Y-73901220D01*
X148510000Y-74162037D01*
X148510000Y-74427963D01*
X148561880Y-74688780D01*
X148663646Y-74934465D01*
X148811387Y-75155575D01*
X148999425Y-75343613D01*
X149220535Y-75491354D01*
X149398332Y-75565000D01*
X149220535Y-75638646D01*
X148999425Y-75786387D01*
X148811387Y-75974425D01*
X148663646Y-76195535D01*
X148561880Y-76441220D01*
X148510000Y-76702037D01*
X148510000Y-76967963D01*
X148561880Y-77228780D01*
X148663646Y-77474465D01*
X148811387Y-77695575D01*
X148999425Y-77883613D01*
X149220535Y-78031354D01*
X149398332Y-78105000D01*
X149220535Y-78178646D01*
X148999425Y-78326387D01*
X148811387Y-78514425D01*
X148663646Y-78735535D01*
X148561880Y-78981220D01*
X148510000Y-79242037D01*
X148510000Y-79507963D01*
X148561880Y-79768780D01*
X148663646Y-80014465D01*
X148811387Y-80235575D01*
X148999425Y-80423613D01*
X149220535Y-80571354D01*
X149398332Y-80645000D01*
X149220535Y-80718646D01*
X148999425Y-80866387D01*
X148811387Y-81054425D01*
X148663646Y-81275535D01*
X148561880Y-81521220D01*
X148510000Y-81782037D01*
X148510000Y-82047963D01*
X148561880Y-82308780D01*
X148663646Y-82554465D01*
X148811387Y-82775575D01*
X148999425Y-82963613D01*
X149220535Y-83111354D01*
X149398332Y-83185000D01*
X149220535Y-83258646D01*
X148999425Y-83406387D01*
X148811387Y-83594425D01*
X148663646Y-83815535D01*
X148561880Y-84061220D01*
X148510000Y-84322037D01*
X148510000Y-84587963D01*
X148561880Y-84848780D01*
X148663646Y-85094465D01*
X148811387Y-85315575D01*
X148999425Y-85503613D01*
X149220535Y-85651354D01*
X149398332Y-85725000D01*
X149220535Y-85798646D01*
X148999425Y-85946387D01*
X148811387Y-86134425D01*
X148663646Y-86355535D01*
X148561880Y-86601220D01*
X148510000Y-86862037D01*
X148510000Y-87127963D01*
X148561880Y-87388780D01*
X148663646Y-87634465D01*
X148811387Y-87855575D01*
X148999425Y-88043613D01*
X149220535Y-88191354D01*
X149398332Y-88265000D01*
X149220535Y-88338646D01*
X148999425Y-88486387D01*
X148811387Y-88674425D01*
X148663646Y-88895535D01*
X148561880Y-89141220D01*
X148510000Y-89402037D01*
X148510000Y-89667963D01*
X148561880Y-89928780D01*
X148567872Y-89943246D01*
X148169772Y-90341346D01*
X148145921Y-90360920D01*
X148067820Y-90456087D01*
X148067818Y-90456089D01*
X148009782Y-90564666D01*
X147974044Y-90682479D01*
X147961977Y-90805000D01*
X147965001Y-90835704D01*
X147965000Y-98325000D01*
X147945000Y-98325000D01*
X147945000Y-90835693D01*
X147948023Y-90804999D01*
X147945000Y-90774305D01*
X147945000Y-90774296D01*
X147935957Y-90682479D01*
X147900219Y-90564666D01*
X147842183Y-90456089D01*
X147842182Y-90456087D01*
X147803273Y-90408677D01*
X147764080Y-90360920D01*
X147740229Y-90341346D01*
X147342128Y-89943246D01*
X147348120Y-89928780D01*
X147400000Y-89667963D01*
X147400000Y-89402037D01*
X147348120Y-89141220D01*
X147246354Y-88895535D01*
X147098613Y-88674425D01*
X146910575Y-88486387D01*
X146689465Y-88338646D01*
X146511668Y-88265000D01*
X146689465Y-88191354D01*
X146910575Y-88043613D01*
X147098613Y-87855575D01*
X147246354Y-87634465D01*
X147348120Y-87388780D01*
X147400000Y-87127963D01*
X147400000Y-86862037D01*
X147348120Y-86601220D01*
X147246354Y-86355535D01*
X147098613Y-86134425D01*
X146910575Y-85946387D01*
X146689465Y-85798646D01*
X146511668Y-85725000D01*
X146689465Y-85651354D01*
X146910575Y-85503613D01*
X147098613Y-85315575D01*
X147246354Y-85094465D01*
X147348120Y-84848780D01*
X147400000Y-84587963D01*
X147400000Y-84322037D01*
X147348120Y-84061220D01*
X147246354Y-83815535D01*
X147098613Y-83594425D01*
X146910575Y-83406387D01*
X146689465Y-83258646D01*
X146511668Y-83185000D01*
X146689465Y-83111354D01*
X146910575Y-82963613D01*
X147098613Y-82775575D01*
X147246354Y-82554465D01*
X147348120Y-82308780D01*
X147400000Y-82047963D01*
X147400000Y-81782037D01*
X147348120Y-81521220D01*
X147246354Y-81275535D01*
X147098613Y-81054425D01*
X146910575Y-80866387D01*
X146689465Y-80718646D01*
X146511668Y-80645000D01*
X146689465Y-80571354D01*
X146910575Y-80423613D01*
X147098613Y-80235575D01*
X147246354Y-80014465D01*
X147348120Y-79768780D01*
X147400000Y-79507963D01*
X147400000Y-79242037D01*
X147348120Y-78981220D01*
X147246354Y-78735535D01*
X147098613Y-78514425D01*
X146910575Y-78326387D01*
X146689465Y-78178646D01*
X146511668Y-78105000D01*
X146689465Y-78031354D01*
X146910575Y-77883613D01*
X147098613Y-77695575D01*
X147246354Y-77474465D01*
X147348120Y-77228780D01*
X147400000Y-76967963D01*
X147400000Y-76702037D01*
X147348120Y-76441220D01*
X147246354Y-76195535D01*
X147098613Y-75974425D01*
X146910575Y-75786387D01*
X146689465Y-75638646D01*
X146511668Y-75565000D01*
X146689465Y-75491354D01*
X146910575Y-75343613D01*
X147098613Y-75155575D01*
X147246354Y-74934465D01*
X147348120Y-74688780D01*
X147400000Y-74427963D01*
X147400000Y-74162037D01*
X147348120Y-73901220D01*
X147246354Y-73655535D01*
X147098613Y-73434425D01*
X146910575Y-73246387D01*
X146689465Y-73098646D01*
X146511668Y-73025000D01*
X146689465Y-72951354D01*
X146910575Y-72803613D01*
X147098613Y-72615575D01*
X147246354Y-72394465D01*
X147348120Y-72148780D01*
X147400000Y-71887963D01*
X147400000Y-71622037D01*
X147348120Y-71361220D01*
X147246354Y-71115535D01*
X147098613Y-70894425D01*
X146910575Y-70706387D01*
X146689465Y-70558646D01*
X146511668Y-70485000D01*
X146689465Y-70411354D01*
X146910575Y-70263613D01*
X147098613Y-70075575D01*
X147246354Y-69854465D01*
X147348120Y-69608780D01*
X147400000Y-69347963D01*
X147400000Y-69082037D01*
X147348120Y-68821220D01*
X147246354Y-68575535D01*
X147098613Y-68354425D01*
X146910575Y-68166387D01*
X146702595Y-68027419D01*
X146900000Y-68027419D01*
X146998017Y-68017765D01*
X147092267Y-67989175D01*
X147179129Y-67942746D01*
X147255264Y-67880264D01*
X147317746Y-67804129D01*
X147364175Y-67717267D01*
X147392765Y-67623017D01*
X147402419Y-67525000D01*
X147402419Y-65825000D01*
X148399058Y-65825000D01*
X148402000Y-66369000D01*
X148554000Y-66521000D01*
X149706000Y-66521000D01*
X149706000Y-65369000D01*
X150014000Y-65369000D01*
X150014000Y-66521000D01*
X151166000Y-66521000D01*
X151318000Y-66369000D01*
X151320942Y-65825000D01*
X159302581Y-65825000D01*
X159302581Y-67525000D01*
X159312235Y-67623017D01*
X159340825Y-67717267D01*
X159387254Y-67804129D01*
X159449736Y-67880264D01*
X159525871Y-67942746D01*
X159612733Y-67989175D01*
X159706983Y-68017765D01*
X159805000Y-68027419D01*
X160002405Y-68027419D01*
X159794425Y-68166387D01*
X159606387Y-68354425D01*
X159458646Y-68575535D01*
X159356880Y-68821220D01*
X159305000Y-69082037D01*
X159305000Y-69347963D01*
X159356880Y-69608780D01*
X159458646Y-69854465D01*
X159606387Y-70075575D01*
X159794425Y-70263613D01*
X160015535Y-70411354D01*
X160193332Y-70485000D01*
X160015535Y-70558646D01*
X159794425Y-70706387D01*
X159606387Y-70894425D01*
X159458646Y-71115535D01*
X159356880Y-71361220D01*
X159305000Y-71622037D01*
X159305000Y-71887963D01*
X159356880Y-72148780D01*
X159458646Y-72394465D01*
X159606387Y-72615575D01*
X159794425Y-72803613D01*
X160015535Y-72951354D01*
X160193332Y-73025000D01*
X160015535Y-73098646D01*
X159794425Y-73246387D01*
X159606387Y-73434425D01*
X159458646Y-73655535D01*
X159356880Y-73901220D01*
X159305000Y-74162037D01*
X159305000Y-74427963D01*
X159356880Y-74688780D01*
X159458646Y-74934465D01*
X159606387Y-75155575D01*
X159794425Y-75343613D01*
X160015535Y-75491354D01*
X160193332Y-75565000D01*
X160015535Y-75638646D01*
X159794425Y-75786387D01*
X159606387Y-75974425D01*
X159458646Y-76195535D01*
X159356880Y-76441220D01*
X159305000Y-76702037D01*
X159305000Y-76967963D01*
X159356880Y-77228780D01*
X159458646Y-77474465D01*
X159606387Y-77695575D01*
X159794425Y-77883613D01*
X160015535Y-78031354D01*
X160193332Y-78105000D01*
X160015535Y-78178646D01*
X159794425Y-78326387D01*
X159606387Y-78514425D01*
X159458646Y-78735535D01*
X159356880Y-78981220D01*
X159305000Y-79242037D01*
X159305000Y-79507963D01*
X159356880Y-79768780D01*
X159458646Y-80014465D01*
X159606387Y-80235575D01*
X159794425Y-80423613D01*
X160015535Y-80571354D01*
X160193332Y-80645000D01*
X160015535Y-80718646D01*
X159794425Y-80866387D01*
X159606387Y-81054425D01*
X159458646Y-81275535D01*
X159356880Y-81521220D01*
X159305000Y-81782037D01*
X159305000Y-82047963D01*
X159356880Y-82308780D01*
X159458646Y-82554465D01*
X159606387Y-82775575D01*
X159794425Y-82963613D01*
X160015535Y-83111354D01*
X160193332Y-83185000D01*
X160015535Y-83258646D01*
X159794425Y-83406387D01*
X159606387Y-83594425D01*
X159458646Y-83815535D01*
X159356880Y-84061220D01*
X159305000Y-84322037D01*
X159305000Y-84587963D01*
X159356880Y-84848780D01*
X159458646Y-85094465D01*
X159606387Y-85315575D01*
X159794425Y-85503613D01*
X160015535Y-85651354D01*
X160193332Y-85725000D01*
X160015535Y-85798646D01*
X159794425Y-85946387D01*
X159606387Y-86134425D01*
X159458646Y-86355535D01*
X159356880Y-86601220D01*
X159305000Y-86862037D01*
X159305000Y-87127963D01*
X159356880Y-87388780D01*
X159458646Y-87634465D01*
X159606387Y-87855575D01*
X159794425Y-88043613D01*
X160015535Y-88191354D01*
X160193332Y-88265000D01*
X160015535Y-88338646D01*
X159794425Y-88486387D01*
X159606387Y-88674425D01*
X159458646Y-88895535D01*
X159356880Y-89141220D01*
X159305000Y-89402037D01*
X159305000Y-89667963D01*
X159356880Y-89928780D01*
X159458646Y-90174465D01*
X159606387Y-90395575D01*
X159794425Y-90583613D01*
X160015535Y-90731354D01*
X160261220Y-90833120D01*
X160522037Y-90885000D01*
X160787963Y-90885000D01*
X161048780Y-90833120D01*
X161294465Y-90731354D01*
X161515575Y-90583613D01*
X161703613Y-90395575D01*
X161851354Y-90174465D01*
X161953120Y-89928780D01*
X162005000Y-89667963D01*
X162005000Y-89402037D01*
X161953120Y-89141220D01*
X161851354Y-88895535D01*
X161703613Y-88674425D01*
X161515575Y-88486387D01*
X161294465Y-88338646D01*
X161116668Y-88265000D01*
X161294465Y-88191354D01*
X161515575Y-88043613D01*
X161703613Y-87855575D01*
X161851354Y-87634465D01*
X161953120Y-87388780D01*
X162005000Y-87127963D01*
X162005000Y-86862037D01*
X161953120Y-86601220D01*
X161851354Y-86355535D01*
X161703613Y-86134425D01*
X161515575Y-85946387D01*
X161294465Y-85798646D01*
X161116668Y-85725000D01*
X161294465Y-85651354D01*
X161515575Y-85503613D01*
X161703613Y-85315575D01*
X161851354Y-85094465D01*
X161953120Y-84848780D01*
X162005000Y-84587963D01*
X162005000Y-84322037D01*
X161953120Y-84061220D01*
X161851354Y-83815535D01*
X161703613Y-83594425D01*
X161515575Y-83406387D01*
X161294465Y-83258646D01*
X161116668Y-83185000D01*
X161294465Y-83111354D01*
X161515575Y-82963613D01*
X161703613Y-82775575D01*
X161851354Y-82554465D01*
X161953120Y-82308780D01*
X162005000Y-82047963D01*
X162005000Y-81782037D01*
X161953120Y-81521220D01*
X161851354Y-81275535D01*
X161703613Y-81054425D01*
X161515575Y-80866387D01*
X161294465Y-80718646D01*
X161116668Y-80645000D01*
X161294465Y-80571354D01*
X161515575Y-80423613D01*
X161703613Y-80235575D01*
X161851354Y-80014465D01*
X161953120Y-79768780D01*
X162005000Y-79507963D01*
X162005000Y-79242037D01*
X161953120Y-78981220D01*
X161851354Y-78735535D01*
X161703613Y-78514425D01*
X161515575Y-78326387D01*
X161294465Y-78178646D01*
X161116668Y-78105000D01*
X161294465Y-78031354D01*
X161515575Y-77883613D01*
X161703613Y-77695575D01*
X161851354Y-77474465D01*
X161953120Y-77228780D01*
X162005000Y-76967963D01*
X162005000Y-76702037D01*
X161953120Y-76441220D01*
X161851354Y-76195535D01*
X161703613Y-75974425D01*
X161515575Y-75786387D01*
X161294465Y-75638646D01*
X161116668Y-75565000D01*
X161294465Y-75491354D01*
X161515575Y-75343613D01*
X161703613Y-75155575D01*
X161851354Y-74934465D01*
X161953120Y-74688780D01*
X162005000Y-74427963D01*
X162005000Y-74162037D01*
X161953120Y-73901220D01*
X161851354Y-73655535D01*
X161703613Y-73434425D01*
X161515575Y-73246387D01*
X161294465Y-73098646D01*
X161116668Y-73025000D01*
X161294465Y-72951354D01*
X161515575Y-72803613D01*
X161703613Y-72615575D01*
X161851354Y-72394465D01*
X161953120Y-72148780D01*
X162005000Y-71887963D01*
X162005000Y-71622037D01*
X161953120Y-71361220D01*
X161851354Y-71115535D01*
X161703613Y-70894425D01*
X161515575Y-70706387D01*
X161294465Y-70558646D01*
X161116668Y-70485000D01*
X161294465Y-70411354D01*
X161515575Y-70263613D01*
X161703613Y-70075575D01*
X161851354Y-69854465D01*
X161953120Y-69608780D01*
X162005000Y-69347963D01*
X162005000Y-69082037D01*
X161953120Y-68821220D01*
X161851354Y-68575535D01*
X161703613Y-68354425D01*
X161515575Y-68166387D01*
X161307595Y-68027419D01*
X161505000Y-68027419D01*
X161603017Y-68017765D01*
X161697267Y-67989175D01*
X161784129Y-67942746D01*
X161860264Y-67880264D01*
X161922746Y-67804129D01*
X161969175Y-67717267D01*
X161997765Y-67623017D01*
X162007419Y-67525000D01*
X162007419Y-65825000D01*
X161997765Y-65726983D01*
X161969175Y-65632733D01*
X161922746Y-65545871D01*
X161860264Y-65469736D01*
X161784129Y-65407254D01*
X161697267Y-65360825D01*
X161603017Y-65332235D01*
X161505000Y-65322581D01*
X159805000Y-65322581D01*
X159706983Y-65332235D01*
X159612733Y-65360825D01*
X159525871Y-65407254D01*
X159449736Y-65469736D01*
X159387254Y-65545871D01*
X159340825Y-65632733D01*
X159312235Y-65726983D01*
X159302581Y-65825000D01*
X151320942Y-65825000D01*
X151309203Y-65705811D01*
X151274437Y-65591203D01*
X151217980Y-65485579D01*
X151142001Y-65392999D01*
X151049421Y-65317020D01*
X150943797Y-65260563D01*
X150829189Y-65225797D01*
X150710000Y-65214058D01*
X150166000Y-65217000D01*
X150014000Y-65369000D01*
X149706000Y-65369000D01*
X149554000Y-65217000D01*
X149010000Y-65214058D01*
X148890811Y-65225797D01*
X148776203Y-65260563D01*
X148670579Y-65317020D01*
X148577999Y-65392999D01*
X148502020Y-65485579D01*
X148445563Y-65591203D01*
X148410797Y-65705811D01*
X148399058Y-65825000D01*
X147402419Y-65825000D01*
X147392765Y-65726983D01*
X147364175Y-65632733D01*
X147317746Y-65545871D01*
X147255264Y-65469736D01*
X147179129Y-65407254D01*
X147092267Y-65360825D01*
X146998017Y-65332235D01*
X146900000Y-65322581D01*
X145200000Y-65322581D01*
X145101983Y-65332235D01*
X145007733Y-65360825D01*
X144920871Y-65407254D01*
X144844736Y-65469736D01*
X144782254Y-65545871D01*
X144735825Y-65632733D01*
X144707235Y-65726983D01*
X144697581Y-65825000D01*
X144697581Y-67143536D01*
X138644772Y-73196346D01*
X138620921Y-73215920D01*
X138542818Y-73311089D01*
X138484782Y-73419666D01*
X138449044Y-73537479D01*
X138436977Y-73660000D01*
X138440001Y-73690704D01*
X138440000Y-94991117D01*
X135485000Y-97946118D01*
X135485000Y-97770788D01*
X135487540Y-97745000D01*
X135477403Y-97642082D01*
X135447383Y-97543119D01*
X135398633Y-97451914D01*
X135333027Y-97371973D01*
X135253086Y-97306367D01*
X135161881Y-97257617D01*
X135062918Y-97227597D01*
X134985788Y-97220000D01*
X134960000Y-97217460D01*
X134934212Y-97220000D01*
X133735000Y-97220000D01*
X133735000Y-65825000D01*
X133902581Y-65825000D01*
X133902581Y-67525000D01*
X133912235Y-67623017D01*
X133940825Y-67717267D01*
X133987254Y-67804129D01*
X134049736Y-67880264D01*
X134125871Y-67942746D01*
X134212733Y-67989175D01*
X134306983Y-68017765D01*
X134405000Y-68027419D01*
X134602405Y-68027419D01*
X134394425Y-68166387D01*
X134206387Y-68354425D01*
X134058646Y-68575535D01*
X133956880Y-68821220D01*
X133905000Y-69082037D01*
X133905000Y-69347963D01*
X133956880Y-69608780D01*
X134058646Y-69854465D01*
X134206387Y-70075575D01*
X134394425Y-70263613D01*
X134615535Y-70411354D01*
X134793332Y-70485000D01*
X134615535Y-70558646D01*
X134394425Y-70706387D01*
X134206387Y-70894425D01*
X134058646Y-71115535D01*
X133956880Y-71361220D01*
X133905000Y-71622037D01*
X133905000Y-71887963D01*
X133956880Y-72148780D01*
X134058646Y-72394465D01*
X134206387Y-72615575D01*
X134394425Y-72803613D01*
X134615535Y-72951354D01*
X134793332Y-73025000D01*
X134615535Y-73098646D01*
X134394425Y-73246387D01*
X134206387Y-73434425D01*
X134058646Y-73655535D01*
X133956880Y-73901220D01*
X133905000Y-74162037D01*
X133905000Y-74427963D01*
X133956880Y-74688780D01*
X134058646Y-74934465D01*
X134206387Y-75155575D01*
X134394425Y-75343613D01*
X134615535Y-75491354D01*
X134793332Y-75565000D01*
X134615535Y-75638646D01*
X134394425Y-75786387D01*
X134206387Y-75974425D01*
X134058646Y-76195535D01*
X133956880Y-76441220D01*
X133905000Y-76702037D01*
X133905000Y-76967963D01*
X133956880Y-77228780D01*
X134058646Y-77474465D01*
X134206387Y-77695575D01*
X134394425Y-77883613D01*
X134615535Y-78031354D01*
X134793332Y-78105000D01*
X134615535Y-78178646D01*
X134394425Y-78326387D01*
X134206387Y-78514425D01*
X134058646Y-78735535D01*
X133956880Y-78981220D01*
X133905000Y-79242037D01*
X133905000Y-79507963D01*
X133956880Y-79768780D01*
X134058646Y-80014465D01*
X134206387Y-80235575D01*
X134394425Y-80423613D01*
X134615535Y-80571354D01*
X134793332Y-80645000D01*
X134615535Y-80718646D01*
X134394425Y-80866387D01*
X134206387Y-81054425D01*
X134058646Y-81275535D01*
X133956880Y-81521220D01*
X133905000Y-81782037D01*
X133905000Y-82047963D01*
X133956880Y-82308780D01*
X134058646Y-82554465D01*
X134206387Y-82775575D01*
X134394425Y-82963613D01*
X134615535Y-83111354D01*
X134793332Y-83185000D01*
X134615535Y-83258646D01*
X134394425Y-83406387D01*
X134206387Y-83594425D01*
X134058646Y-83815535D01*
X133956880Y-84061220D01*
X133905000Y-84322037D01*
X133905000Y-84587963D01*
X133956880Y-84848780D01*
X134058646Y-85094465D01*
X134206387Y-85315575D01*
X134394425Y-85503613D01*
X134615535Y-85651354D01*
X134793332Y-85725000D01*
X134615535Y-85798646D01*
X134394425Y-85946387D01*
X134206387Y-86134425D01*
X134058646Y-86355535D01*
X133956880Y-86601220D01*
X133905000Y-86862037D01*
X133905000Y-87127963D01*
X133956880Y-87388780D01*
X134058646Y-87634465D01*
X134206387Y-87855575D01*
X134394425Y-88043613D01*
X134615535Y-88191354D01*
X134793332Y-88265000D01*
X134615535Y-88338646D01*
X134394425Y-88486387D01*
X134206387Y-88674425D01*
X134058646Y-88895535D01*
X133956880Y-89141220D01*
X133905000Y-89402037D01*
X133905000Y-89667963D01*
X133956880Y-89928780D01*
X134058646Y-90174465D01*
X134206387Y-90395575D01*
X134394425Y-90583613D01*
X134615535Y-90731354D01*
X134861220Y-90833120D01*
X135122037Y-90885000D01*
X135387963Y-90885000D01*
X135648780Y-90833120D01*
X135894465Y-90731354D01*
X136115575Y-90583613D01*
X136303613Y-90395575D01*
X136451354Y-90174465D01*
X136553120Y-89928780D01*
X136605000Y-89667963D01*
X136605000Y-89402037D01*
X136553120Y-89141220D01*
X136451354Y-88895535D01*
X136303613Y-88674425D01*
X136115575Y-88486387D01*
X135894465Y-88338646D01*
X135716668Y-88265000D01*
X135894465Y-88191354D01*
X136115575Y-88043613D01*
X136303613Y-87855575D01*
X136451354Y-87634465D01*
X136553120Y-87388780D01*
X136605000Y-87127963D01*
X136605000Y-86862037D01*
X136553120Y-86601220D01*
X136451354Y-86355535D01*
X136303613Y-86134425D01*
X136115575Y-85946387D01*
X135894465Y-85798646D01*
X135716668Y-85725000D01*
X135894465Y-85651354D01*
X136115575Y-85503613D01*
X136303613Y-85315575D01*
X136451354Y-85094465D01*
X136553120Y-84848780D01*
X136605000Y-84587963D01*
X136605000Y-84322037D01*
X136553120Y-84061220D01*
X136451354Y-83815535D01*
X136303613Y-83594425D01*
X136115575Y-83406387D01*
X135894465Y-83258646D01*
X135716668Y-83185000D01*
X135894465Y-83111354D01*
X136115575Y-82963613D01*
X136303613Y-82775575D01*
X136451354Y-82554465D01*
X136553120Y-82308780D01*
X136605000Y-82047963D01*
X136605000Y-81782037D01*
X136553120Y-81521220D01*
X136451354Y-81275535D01*
X136303613Y-81054425D01*
X136115575Y-80866387D01*
X135894465Y-80718646D01*
X135716668Y-80645000D01*
X135894465Y-80571354D01*
X136115575Y-80423613D01*
X136303613Y-80235575D01*
X136451354Y-80014465D01*
X136553120Y-79768780D01*
X136605000Y-79507963D01*
X136605000Y-79242037D01*
X136553120Y-78981220D01*
X136451354Y-78735535D01*
X136303613Y-78514425D01*
X136115575Y-78326387D01*
X135894465Y-78178646D01*
X135716668Y-78105000D01*
X135894465Y-78031354D01*
X136115575Y-77883613D01*
X136303613Y-77695575D01*
X136451354Y-77474465D01*
X136553120Y-77228780D01*
X136605000Y-76967963D01*
X136605000Y-76702037D01*
X136553120Y-76441220D01*
X136451354Y-76195535D01*
X136303613Y-75974425D01*
X136115575Y-75786387D01*
X135894465Y-75638646D01*
X135716668Y-75565000D01*
X135894465Y-75491354D01*
X136115575Y-75343613D01*
X136303613Y-75155575D01*
X136451354Y-74934465D01*
X136553120Y-74688780D01*
X136605000Y-74427963D01*
X136605000Y-74162037D01*
X136553120Y-73901220D01*
X136451354Y-73655535D01*
X136303613Y-73434425D01*
X136115575Y-73246387D01*
X135894465Y-73098646D01*
X135716668Y-73025000D01*
X135894465Y-72951354D01*
X136115575Y-72803613D01*
X136303613Y-72615575D01*
X136451354Y-72394465D01*
X136553120Y-72148780D01*
X136605000Y-71887963D01*
X136605000Y-71622037D01*
X136553120Y-71361220D01*
X136451354Y-71115535D01*
X136303613Y-70894425D01*
X136115575Y-70706387D01*
X135894465Y-70558646D01*
X135716668Y-70485000D01*
X135894465Y-70411354D01*
X136115575Y-70263613D01*
X136303613Y-70075575D01*
X136451354Y-69854465D01*
X136553120Y-69608780D01*
X136605000Y-69347963D01*
X136605000Y-69082037D01*
X136553120Y-68821220D01*
X136451354Y-68575535D01*
X136303613Y-68354425D01*
X136115575Y-68166387D01*
X135907595Y-68027419D01*
X136105000Y-68027419D01*
X136203017Y-68017765D01*
X136297267Y-67989175D01*
X136384129Y-67942746D01*
X136460264Y-67880264D01*
X136522746Y-67804129D01*
X136569175Y-67717267D01*
X136597765Y-67623017D01*
X136607419Y-67525000D01*
X136607419Y-65825000D01*
X136597765Y-65726983D01*
X136569175Y-65632733D01*
X136522746Y-65545871D01*
X136460264Y-65469736D01*
X136384129Y-65407254D01*
X136297267Y-65360825D01*
X136203017Y-65332235D01*
X136105000Y-65322581D01*
X134405000Y-65322581D01*
X134306983Y-65332235D01*
X134212733Y-65360825D01*
X134125871Y-65407254D01*
X134049736Y-65469736D01*
X133987254Y-65545871D01*
X133940825Y-65632733D01*
X133912235Y-65726983D01*
X133902581Y-65825000D01*
X133735000Y-65825000D01*
X133735000Y-63270000D01*
X145786481Y-63270000D01*
X145623690Y-63337430D01*
G37*
X145623690Y-63337430D02*
X145476283Y-63435924D01*
X145350924Y-63561283D01*
X145252430Y-63708690D01*
X145184586Y-63872480D01*
X145150000Y-64046358D01*
X145150000Y-64223642D01*
X145184586Y-64397520D01*
X145252430Y-64561310D01*
X145350924Y-64708717D01*
X145476283Y-64834076D01*
X145623690Y-64932570D01*
X145787480Y-65000414D01*
X145961358Y-65035000D01*
X146138642Y-65035000D01*
X146312520Y-65000414D01*
X146476310Y-64932570D01*
X146623717Y-64834076D01*
X146749076Y-64708717D01*
X146847570Y-64561310D01*
X146915414Y-64397520D01*
X146950000Y-64223642D01*
X146950000Y-64046358D01*
X146915414Y-63872480D01*
X146847570Y-63708690D01*
X146749076Y-63561283D01*
X146623717Y-63435924D01*
X146476310Y-63337430D01*
X146313519Y-63270000D01*
X162185000Y-63270000D01*
X162185001Y-97220000D01*
X160985788Y-97220000D01*
X160960000Y-97217460D01*
X160934212Y-97220000D01*
X160857082Y-97227597D01*
X160758119Y-97257617D01*
X160666914Y-97306367D01*
X160586973Y-97371973D01*
X160521367Y-97451914D01*
X160472617Y-97543119D01*
X160442597Y-97642082D01*
X160432460Y-97745000D01*
X160435001Y-97770798D01*
X160435001Y-98325000D01*
X159368175Y-98325000D01*
X159365957Y-98302479D01*
X159330219Y-98184666D01*
X159305762Y-98138910D01*
X159272182Y-98076087D01*
X159213652Y-98004768D01*
X159213649Y-98004765D01*
X159194080Y-97980920D01*
X159170235Y-97961351D01*
X156835000Y-95626118D01*
X156835000Y-75595693D01*
X156838023Y-75564999D01*
X156835000Y-75534305D01*
X156835000Y-75534296D01*
X156825957Y-75442479D01*
X156790219Y-75324666D01*
X156732183Y-75216089D01*
X156732182Y-75216087D01*
X156693273Y-75168677D01*
X156654080Y-75120920D01*
X156630229Y-75101346D01*
X151152128Y-69623246D01*
X151158120Y-69608780D01*
X151210000Y-69347963D01*
X151210000Y-69082037D01*
X151158120Y-68821220D01*
X151056354Y-68575535D01*
X150908613Y-68354425D01*
X150720575Y-68166387D01*
X150674725Y-68135751D01*
X150710000Y-68135942D01*
X150829189Y-68124203D01*
X150943797Y-68089437D01*
X151049421Y-68032980D01*
X151142001Y-67957001D01*
X151217980Y-67864421D01*
X151274437Y-67758797D01*
X151309203Y-67644189D01*
X151320942Y-67525000D01*
X151318000Y-66981000D01*
X151166000Y-66829000D01*
X150014000Y-66829000D01*
X150014000Y-66849000D01*
X149706000Y-66849000D01*
X149706000Y-66829000D01*
X148554000Y-66829000D01*
X148402000Y-66981000D01*
X148399058Y-67525000D01*
X148410797Y-67644189D01*
X148445563Y-67758797D01*
X148502020Y-67864421D01*
X148577999Y-67957001D01*
X148670579Y-68032980D01*
X148776203Y-68089437D01*
X148890811Y-68124203D01*
X149010000Y-68135942D01*
X149045275Y-68135751D01*
X148999425Y-68166387D01*
X148811387Y-68354425D01*
X148663646Y-68575535D01*
X148561880Y-68821220D01*
X148510000Y-69082037D01*
X148510000Y-69347963D01*
X148561880Y-69608780D01*
X148663646Y-69854465D01*
X148811387Y-70075575D01*
X148999425Y-70263613D01*
X149220535Y-70411354D01*
X149398332Y-70485000D01*
X149220535Y-70558646D01*
X148999425Y-70706387D01*
X148811387Y-70894425D01*
X148663646Y-71115535D01*
X148561880Y-71361220D01*
X148510000Y-71622037D01*
X148510000Y-71887963D01*
X148561880Y-72148780D01*
X148663646Y-72394465D01*
X148811387Y-72615575D01*
X148999425Y-72803613D01*
X149220535Y-72951354D01*
X149398332Y-73025000D01*
X149220535Y-73098646D01*
X148999425Y-73246387D01*
X148811387Y-73434425D01*
X148663646Y-73655535D01*
X148561880Y-73901220D01*
X148510000Y-74162037D01*
X148510000Y-74427963D01*
X148561880Y-74688780D01*
X148663646Y-74934465D01*
X148811387Y-75155575D01*
X148999425Y-75343613D01*
X149220535Y-75491354D01*
X149398332Y-75565000D01*
X149220535Y-75638646D01*
X148999425Y-75786387D01*
X148811387Y-75974425D01*
X148663646Y-76195535D01*
X148561880Y-76441220D01*
X148510000Y-76702037D01*
X148510000Y-76967963D01*
X148561880Y-77228780D01*
X148663646Y-77474465D01*
X148811387Y-77695575D01*
X148999425Y-77883613D01*
X149220535Y-78031354D01*
X149398332Y-78105000D01*
X149220535Y-78178646D01*
X148999425Y-78326387D01*
X148811387Y-78514425D01*
X148663646Y-78735535D01*
X148561880Y-78981220D01*
X148510000Y-79242037D01*
X148510000Y-79507963D01*
X148561880Y-79768780D01*
X148663646Y-80014465D01*
X148811387Y-80235575D01*
X148999425Y-80423613D01*
X149220535Y-80571354D01*
X149398332Y-80645000D01*
X149220535Y-80718646D01*
X148999425Y-80866387D01*
X148811387Y-81054425D01*
X148663646Y-81275535D01*
X148561880Y-81521220D01*
X148510000Y-81782037D01*
X148510000Y-82047963D01*
X148561880Y-82308780D01*
X148663646Y-82554465D01*
X148811387Y-82775575D01*
X148999425Y-82963613D01*
X149220535Y-83111354D01*
X149398332Y-83185000D01*
X149220535Y-83258646D01*
X148999425Y-83406387D01*
X148811387Y-83594425D01*
X148663646Y-83815535D01*
X148561880Y-84061220D01*
X148510000Y-84322037D01*
X148510000Y-84587963D01*
X148561880Y-84848780D01*
X148663646Y-85094465D01*
X148811387Y-85315575D01*
X148999425Y-85503613D01*
X149220535Y-85651354D01*
X149398332Y-85725000D01*
X149220535Y-85798646D01*
X148999425Y-85946387D01*
X148811387Y-86134425D01*
X148663646Y-86355535D01*
X148561880Y-86601220D01*
X148510000Y-86862037D01*
X148510000Y-87127963D01*
X148561880Y-87388780D01*
X148663646Y-87634465D01*
X148811387Y-87855575D01*
X148999425Y-88043613D01*
X149220535Y-88191354D01*
X149398332Y-88265000D01*
X149220535Y-88338646D01*
X148999425Y-88486387D01*
X148811387Y-88674425D01*
X148663646Y-88895535D01*
X148561880Y-89141220D01*
X148510000Y-89402037D01*
X148510000Y-89667963D01*
X148561880Y-89928780D01*
X148567872Y-89943246D01*
X148169772Y-90341346D01*
X148145921Y-90360920D01*
X148067820Y-90456087D01*
X148067818Y-90456089D01*
X148009782Y-90564666D01*
X147974044Y-90682479D01*
X147961977Y-90805000D01*
X147965001Y-90835704D01*
X147965000Y-98325000D01*
X147945000Y-98325000D01*
X147945000Y-90835693D01*
X147948023Y-90804999D01*
X147945000Y-90774305D01*
X147945000Y-90774296D01*
X147935957Y-90682479D01*
X147900219Y-90564666D01*
X147842183Y-90456089D01*
X147842182Y-90456087D01*
X147803273Y-90408677D01*
X147764080Y-90360920D01*
X147740229Y-90341346D01*
X147342128Y-89943246D01*
X147348120Y-89928780D01*
X147400000Y-89667963D01*
X147400000Y-89402037D01*
X147348120Y-89141220D01*
X147246354Y-88895535D01*
X147098613Y-88674425D01*
X146910575Y-88486387D01*
X146689465Y-88338646D01*
X146511668Y-88265000D01*
X146689465Y-88191354D01*
X146910575Y-88043613D01*
X147098613Y-87855575D01*
X147246354Y-87634465D01*
X147348120Y-87388780D01*
X147400000Y-87127963D01*
X147400000Y-86862037D01*
X147348120Y-86601220D01*
X147246354Y-86355535D01*
X147098613Y-86134425D01*
X146910575Y-85946387D01*
X146689465Y-85798646D01*
X146511668Y-85725000D01*
X146689465Y-85651354D01*
X146910575Y-85503613D01*
X147098613Y-85315575D01*
X147246354Y-85094465D01*
X147348120Y-84848780D01*
X147400000Y-84587963D01*
X147400000Y-84322037D01*
X147348120Y-84061220D01*
X147246354Y-83815535D01*
X147098613Y-83594425D01*
X146910575Y-83406387D01*
X146689465Y-83258646D01*
X146511668Y-83185000D01*
X146689465Y-83111354D01*
X146910575Y-82963613D01*
X147098613Y-82775575D01*
X147246354Y-82554465D01*
X147348120Y-82308780D01*
X147400000Y-82047963D01*
X147400000Y-81782037D01*
X147348120Y-81521220D01*
X147246354Y-81275535D01*
X147098613Y-81054425D01*
X146910575Y-80866387D01*
X146689465Y-80718646D01*
X146511668Y-80645000D01*
X146689465Y-80571354D01*
X146910575Y-80423613D01*
X147098613Y-80235575D01*
X147246354Y-80014465D01*
X147348120Y-79768780D01*
X147400000Y-79507963D01*
X147400000Y-79242037D01*
X147348120Y-78981220D01*
X147246354Y-78735535D01*
X147098613Y-78514425D01*
X146910575Y-78326387D01*
X146689465Y-78178646D01*
X146511668Y-78105000D01*
X146689465Y-78031354D01*
X146910575Y-77883613D01*
X147098613Y-77695575D01*
X147246354Y-77474465D01*
X147348120Y-77228780D01*
X147400000Y-76967963D01*
X147400000Y-76702037D01*
X147348120Y-76441220D01*
X147246354Y-76195535D01*
X147098613Y-75974425D01*
X146910575Y-75786387D01*
X146689465Y-75638646D01*
X146511668Y-75565000D01*
X146689465Y-75491354D01*
X146910575Y-75343613D01*
X147098613Y-75155575D01*
X147246354Y-74934465D01*
X147348120Y-74688780D01*
X147400000Y-74427963D01*
X147400000Y-74162037D01*
X147348120Y-73901220D01*
X147246354Y-73655535D01*
X147098613Y-73434425D01*
X146910575Y-73246387D01*
X146689465Y-73098646D01*
X146511668Y-73025000D01*
X146689465Y-72951354D01*
X146910575Y-72803613D01*
X147098613Y-72615575D01*
X147246354Y-72394465D01*
X147348120Y-72148780D01*
X147400000Y-71887963D01*
X147400000Y-71622037D01*
X147348120Y-71361220D01*
X147246354Y-71115535D01*
X147098613Y-70894425D01*
X146910575Y-70706387D01*
X146689465Y-70558646D01*
X146511668Y-70485000D01*
X146689465Y-70411354D01*
X146910575Y-70263613D01*
X147098613Y-70075575D01*
X147246354Y-69854465D01*
X147348120Y-69608780D01*
X147400000Y-69347963D01*
X147400000Y-69082037D01*
X147348120Y-68821220D01*
X147246354Y-68575535D01*
X147098613Y-68354425D01*
X146910575Y-68166387D01*
X146702595Y-68027419D01*
X146900000Y-68027419D01*
X146998017Y-68017765D01*
X147092267Y-67989175D01*
X147179129Y-67942746D01*
X147255264Y-67880264D01*
X147317746Y-67804129D01*
X147364175Y-67717267D01*
X147392765Y-67623017D01*
X147402419Y-67525000D01*
X147402419Y-65825000D01*
X148399058Y-65825000D01*
X148402000Y-66369000D01*
X148554000Y-66521000D01*
X149706000Y-66521000D01*
X149706000Y-65369000D01*
X150014000Y-65369000D01*
X150014000Y-66521000D01*
X151166000Y-66521000D01*
X151318000Y-66369000D01*
X151320942Y-65825000D01*
X159302581Y-65825000D01*
X159302581Y-67525000D01*
X159312235Y-67623017D01*
X159340825Y-67717267D01*
X159387254Y-67804129D01*
X159449736Y-67880264D01*
X159525871Y-67942746D01*
X159612733Y-67989175D01*
X159706983Y-68017765D01*
X159805000Y-68027419D01*
X160002405Y-68027419D01*
X159794425Y-68166387D01*
X159606387Y-68354425D01*
X159458646Y-68575535D01*
X159356880Y-68821220D01*
X159305000Y-69082037D01*
X159305000Y-69347963D01*
X159356880Y-69608780D01*
X159458646Y-69854465D01*
X159606387Y-70075575D01*
X159794425Y-70263613D01*
X160015535Y-70411354D01*
X160193332Y-70485000D01*
X160015535Y-70558646D01*
X159794425Y-70706387D01*
X159606387Y-70894425D01*
X159458646Y-71115535D01*
X159356880Y-71361220D01*
X159305000Y-71622037D01*
X159305000Y-71887963D01*
X159356880Y-72148780D01*
X159458646Y-72394465D01*
X159606387Y-72615575D01*
X159794425Y-72803613D01*
X160015535Y-72951354D01*
X160193332Y-73025000D01*
X160015535Y-73098646D01*
X159794425Y-73246387D01*
X159606387Y-73434425D01*
X159458646Y-73655535D01*
X159356880Y-73901220D01*
X159305000Y-74162037D01*
X159305000Y-74427963D01*
X159356880Y-74688780D01*
X159458646Y-74934465D01*
X159606387Y-75155575D01*
X159794425Y-75343613D01*
X160015535Y-75491354D01*
X160193332Y-75565000D01*
X160015535Y-75638646D01*
X159794425Y-75786387D01*
X159606387Y-75974425D01*
X159458646Y-76195535D01*
X159356880Y-76441220D01*
X159305000Y-76702037D01*
X159305000Y-76967963D01*
X159356880Y-77228780D01*
X159458646Y-77474465D01*
X159606387Y-77695575D01*
X159794425Y-77883613D01*
X160015535Y-78031354D01*
X160193332Y-78105000D01*
X160015535Y-78178646D01*
X159794425Y-78326387D01*
X159606387Y-78514425D01*
X159458646Y-78735535D01*
X159356880Y-78981220D01*
X159305000Y-79242037D01*
X159305000Y-79507963D01*
X159356880Y-79768780D01*
X159458646Y-80014465D01*
X159606387Y-80235575D01*
X159794425Y-80423613D01*
X160015535Y-80571354D01*
X160193332Y-80645000D01*
X160015535Y-80718646D01*
X159794425Y-80866387D01*
X159606387Y-81054425D01*
X159458646Y-81275535D01*
X159356880Y-81521220D01*
X159305000Y-81782037D01*
X159305000Y-82047963D01*
X159356880Y-82308780D01*
X159458646Y-82554465D01*
X159606387Y-82775575D01*
X159794425Y-82963613D01*
X160015535Y-83111354D01*
X160193332Y-83185000D01*
X160015535Y-83258646D01*
X159794425Y-83406387D01*
X159606387Y-83594425D01*
X159458646Y-83815535D01*
X159356880Y-84061220D01*
X159305000Y-84322037D01*
X159305000Y-84587963D01*
X159356880Y-84848780D01*
X159458646Y-85094465D01*
X159606387Y-85315575D01*
X159794425Y-85503613D01*
X160015535Y-85651354D01*
X160193332Y-85725000D01*
X160015535Y-85798646D01*
X159794425Y-85946387D01*
X159606387Y-86134425D01*
X159458646Y-86355535D01*
X159356880Y-86601220D01*
X159305000Y-86862037D01*
X159305000Y-87127963D01*
X159356880Y-87388780D01*
X159458646Y-87634465D01*
X159606387Y-87855575D01*
X159794425Y-88043613D01*
X160015535Y-88191354D01*
X160193332Y-88265000D01*
X160015535Y-88338646D01*
X159794425Y-88486387D01*
X159606387Y-88674425D01*
X159458646Y-88895535D01*
X159356880Y-89141220D01*
X159305000Y-89402037D01*
X159305000Y-89667963D01*
X159356880Y-89928780D01*
X159458646Y-90174465D01*
X159606387Y-90395575D01*
X159794425Y-90583613D01*
X160015535Y-90731354D01*
X160261220Y-90833120D01*
X160522037Y-90885000D01*
X160787963Y-90885000D01*
X161048780Y-90833120D01*
X161294465Y-90731354D01*
X161515575Y-90583613D01*
X161703613Y-90395575D01*
X161851354Y-90174465D01*
X161953120Y-89928780D01*
X162005000Y-89667963D01*
X162005000Y-89402037D01*
X161953120Y-89141220D01*
X161851354Y-88895535D01*
X161703613Y-88674425D01*
X161515575Y-88486387D01*
X161294465Y-88338646D01*
X161116668Y-88265000D01*
X161294465Y-88191354D01*
X161515575Y-88043613D01*
X161703613Y-87855575D01*
X161851354Y-87634465D01*
X161953120Y-87388780D01*
X162005000Y-87127963D01*
X162005000Y-86862037D01*
X161953120Y-86601220D01*
X161851354Y-86355535D01*
X161703613Y-86134425D01*
X161515575Y-85946387D01*
X161294465Y-85798646D01*
X161116668Y-85725000D01*
X161294465Y-85651354D01*
X161515575Y-85503613D01*
X161703613Y-85315575D01*
X161851354Y-85094465D01*
X161953120Y-84848780D01*
X162005000Y-84587963D01*
X162005000Y-84322037D01*
X161953120Y-84061220D01*
X161851354Y-83815535D01*
X161703613Y-83594425D01*
X161515575Y-83406387D01*
X161294465Y-83258646D01*
X161116668Y-83185000D01*
X161294465Y-83111354D01*
X161515575Y-82963613D01*
X161703613Y-82775575D01*
X161851354Y-82554465D01*
X161953120Y-82308780D01*
X162005000Y-82047963D01*
X162005000Y-81782037D01*
X161953120Y-81521220D01*
X161851354Y-81275535D01*
X161703613Y-81054425D01*
X161515575Y-80866387D01*
X161294465Y-80718646D01*
X161116668Y-80645000D01*
X161294465Y-80571354D01*
X161515575Y-80423613D01*
X161703613Y-80235575D01*
X161851354Y-80014465D01*
X161953120Y-79768780D01*
X162005000Y-79507963D01*
X162005000Y-79242037D01*
X161953120Y-78981220D01*
X161851354Y-78735535D01*
X161703613Y-78514425D01*
X161515575Y-78326387D01*
X161294465Y-78178646D01*
X161116668Y-78105000D01*
X161294465Y-78031354D01*
X161515575Y-77883613D01*
X161703613Y-77695575D01*
X161851354Y-77474465D01*
X161953120Y-77228780D01*
X162005000Y-76967963D01*
X162005000Y-76702037D01*
X161953120Y-76441220D01*
X161851354Y-76195535D01*
X161703613Y-75974425D01*
X161515575Y-75786387D01*
X161294465Y-75638646D01*
X161116668Y-75565000D01*
X161294465Y-75491354D01*
X161515575Y-75343613D01*
X161703613Y-75155575D01*
X161851354Y-74934465D01*
X161953120Y-74688780D01*
X162005000Y-74427963D01*
X162005000Y-74162037D01*
X161953120Y-73901220D01*
X161851354Y-73655535D01*
X161703613Y-73434425D01*
X161515575Y-73246387D01*
X161294465Y-73098646D01*
X161116668Y-73025000D01*
X161294465Y-72951354D01*
X161515575Y-72803613D01*
X161703613Y-72615575D01*
X161851354Y-72394465D01*
X161953120Y-72148780D01*
X162005000Y-71887963D01*
X162005000Y-71622037D01*
X161953120Y-71361220D01*
X161851354Y-71115535D01*
X161703613Y-70894425D01*
X161515575Y-70706387D01*
X161294465Y-70558646D01*
X161116668Y-70485000D01*
X161294465Y-70411354D01*
X161515575Y-70263613D01*
X161703613Y-70075575D01*
X161851354Y-69854465D01*
X161953120Y-69608780D01*
X162005000Y-69347963D01*
X162005000Y-69082037D01*
X161953120Y-68821220D01*
X161851354Y-68575535D01*
X161703613Y-68354425D01*
X161515575Y-68166387D01*
X161307595Y-68027419D01*
X161505000Y-68027419D01*
X161603017Y-68017765D01*
X161697267Y-67989175D01*
X161784129Y-67942746D01*
X161860264Y-67880264D01*
X161922746Y-67804129D01*
X161969175Y-67717267D01*
X161997765Y-67623017D01*
X162007419Y-67525000D01*
X162007419Y-65825000D01*
X161997765Y-65726983D01*
X161969175Y-65632733D01*
X161922746Y-65545871D01*
X161860264Y-65469736D01*
X161784129Y-65407254D01*
X161697267Y-65360825D01*
X161603017Y-65332235D01*
X161505000Y-65322581D01*
X159805000Y-65322581D01*
X159706983Y-65332235D01*
X159612733Y-65360825D01*
X159525871Y-65407254D01*
X159449736Y-65469736D01*
X159387254Y-65545871D01*
X159340825Y-65632733D01*
X159312235Y-65726983D01*
X159302581Y-65825000D01*
X151320942Y-65825000D01*
X151309203Y-65705811D01*
X151274437Y-65591203D01*
X151217980Y-65485579D01*
X151142001Y-65392999D01*
X151049421Y-65317020D01*
X150943797Y-65260563D01*
X150829189Y-65225797D01*
X150710000Y-65214058D01*
X150166000Y-65217000D01*
X150014000Y-65369000D01*
X149706000Y-65369000D01*
X149554000Y-65217000D01*
X149010000Y-65214058D01*
X148890811Y-65225797D01*
X148776203Y-65260563D01*
X148670579Y-65317020D01*
X148577999Y-65392999D01*
X148502020Y-65485579D01*
X148445563Y-65591203D01*
X148410797Y-65705811D01*
X148399058Y-65825000D01*
X147402419Y-65825000D01*
X147392765Y-65726983D01*
X147364175Y-65632733D01*
X147317746Y-65545871D01*
X147255264Y-65469736D01*
X147179129Y-65407254D01*
X147092267Y-65360825D01*
X146998017Y-65332235D01*
X146900000Y-65322581D01*
X145200000Y-65322581D01*
X145101983Y-65332235D01*
X145007733Y-65360825D01*
X144920871Y-65407254D01*
X144844736Y-65469736D01*
X144782254Y-65545871D01*
X144735825Y-65632733D01*
X144707235Y-65726983D01*
X144697581Y-65825000D01*
X144697581Y-67143536D01*
X138644772Y-73196346D01*
X138620921Y-73215920D01*
X138542818Y-73311089D01*
X138484782Y-73419666D01*
X138449044Y-73537479D01*
X138436977Y-73660000D01*
X138440001Y-73690704D01*
X138440000Y-94991117D01*
X135485000Y-97946118D01*
X135485000Y-97770788D01*
X135487540Y-97745000D01*
X135477403Y-97642082D01*
X135447383Y-97543119D01*
X135398633Y-97451914D01*
X135333027Y-97371973D01*
X135253086Y-97306367D01*
X135161881Y-97257617D01*
X135062918Y-97227597D01*
X134985788Y-97220000D01*
X134960000Y-97217460D01*
X134934212Y-97220000D01*
X133735000Y-97220000D01*
X133735000Y-65825000D01*
X133902581Y-65825000D01*
X133902581Y-67525000D01*
X133912235Y-67623017D01*
X133940825Y-67717267D01*
X133987254Y-67804129D01*
X134049736Y-67880264D01*
X134125871Y-67942746D01*
X134212733Y-67989175D01*
X134306983Y-68017765D01*
X134405000Y-68027419D01*
X134602405Y-68027419D01*
X134394425Y-68166387D01*
X134206387Y-68354425D01*
X134058646Y-68575535D01*
X133956880Y-68821220D01*
X133905000Y-69082037D01*
X133905000Y-69347963D01*
X133956880Y-69608780D01*
X134058646Y-69854465D01*
X134206387Y-70075575D01*
X134394425Y-70263613D01*
X134615535Y-70411354D01*
X134793332Y-70485000D01*
X134615535Y-70558646D01*
X134394425Y-70706387D01*
X134206387Y-70894425D01*
X134058646Y-71115535D01*
X133956880Y-71361220D01*
X133905000Y-71622037D01*
X133905000Y-71887963D01*
X133956880Y-72148780D01*
X134058646Y-72394465D01*
X134206387Y-72615575D01*
X134394425Y-72803613D01*
X134615535Y-72951354D01*
X134793332Y-73025000D01*
X134615535Y-73098646D01*
X134394425Y-73246387D01*
X134206387Y-73434425D01*
X134058646Y-73655535D01*
X133956880Y-73901220D01*
X133905000Y-74162037D01*
X133905000Y-74427963D01*
X133956880Y-74688780D01*
X134058646Y-74934465D01*
X134206387Y-75155575D01*
X134394425Y-75343613D01*
X134615535Y-75491354D01*
X134793332Y-75565000D01*
X134615535Y-75638646D01*
X134394425Y-75786387D01*
X134206387Y-75974425D01*
X134058646Y-76195535D01*
X133956880Y-76441220D01*
X133905000Y-76702037D01*
X133905000Y-76967963D01*
X133956880Y-77228780D01*
X134058646Y-77474465D01*
X134206387Y-77695575D01*
X134394425Y-77883613D01*
X134615535Y-78031354D01*
X134793332Y-78105000D01*
X134615535Y-78178646D01*
X134394425Y-78326387D01*
X134206387Y-78514425D01*
X134058646Y-78735535D01*
X133956880Y-78981220D01*
X133905000Y-79242037D01*
X133905000Y-79507963D01*
X133956880Y-79768780D01*
X134058646Y-80014465D01*
X134206387Y-80235575D01*
X134394425Y-80423613D01*
X134615535Y-80571354D01*
X134793332Y-80645000D01*
X134615535Y-80718646D01*
X134394425Y-80866387D01*
X134206387Y-81054425D01*
X134058646Y-81275535D01*
X133956880Y-81521220D01*
X133905000Y-81782037D01*
X133905000Y-82047963D01*
X133956880Y-82308780D01*
X134058646Y-82554465D01*
X134206387Y-82775575D01*
X134394425Y-82963613D01*
X134615535Y-83111354D01*
X134793332Y-83185000D01*
X134615535Y-83258646D01*
X134394425Y-83406387D01*
X134206387Y-83594425D01*
X134058646Y-83815535D01*
X133956880Y-84061220D01*
X133905000Y-84322037D01*
X133905000Y-84587963D01*
X133956880Y-84848780D01*
X134058646Y-85094465D01*
X134206387Y-85315575D01*
X134394425Y-85503613D01*
X134615535Y-85651354D01*
X134793332Y-85725000D01*
X134615535Y-85798646D01*
X134394425Y-85946387D01*
X134206387Y-86134425D01*
X134058646Y-86355535D01*
X133956880Y-86601220D01*
X133905000Y-86862037D01*
X133905000Y-87127963D01*
X133956880Y-87388780D01*
X134058646Y-87634465D01*
X134206387Y-87855575D01*
X134394425Y-88043613D01*
X134615535Y-88191354D01*
X134793332Y-88265000D01*
X134615535Y-88338646D01*
X134394425Y-88486387D01*
X134206387Y-88674425D01*
X134058646Y-88895535D01*
X133956880Y-89141220D01*
X133905000Y-89402037D01*
X133905000Y-89667963D01*
X133956880Y-89928780D01*
X134058646Y-90174465D01*
X134206387Y-90395575D01*
X134394425Y-90583613D01*
X134615535Y-90731354D01*
X134861220Y-90833120D01*
X135122037Y-90885000D01*
X135387963Y-90885000D01*
X135648780Y-90833120D01*
X135894465Y-90731354D01*
X136115575Y-90583613D01*
X136303613Y-90395575D01*
X136451354Y-90174465D01*
X136553120Y-89928780D01*
X136605000Y-89667963D01*
X136605000Y-89402037D01*
X136553120Y-89141220D01*
X136451354Y-88895535D01*
X136303613Y-88674425D01*
X136115575Y-88486387D01*
X135894465Y-88338646D01*
X135716668Y-88265000D01*
X135894465Y-88191354D01*
X136115575Y-88043613D01*
X136303613Y-87855575D01*
X136451354Y-87634465D01*
X136553120Y-87388780D01*
X136605000Y-87127963D01*
X136605000Y-86862037D01*
X136553120Y-86601220D01*
X136451354Y-86355535D01*
X136303613Y-86134425D01*
X136115575Y-85946387D01*
X135894465Y-85798646D01*
X135716668Y-85725000D01*
X135894465Y-85651354D01*
X136115575Y-85503613D01*
X136303613Y-85315575D01*
X136451354Y-85094465D01*
X136553120Y-84848780D01*
X136605000Y-84587963D01*
X136605000Y-84322037D01*
X136553120Y-84061220D01*
X136451354Y-83815535D01*
X136303613Y-83594425D01*
X136115575Y-83406387D01*
X135894465Y-83258646D01*
X135716668Y-83185000D01*
X135894465Y-83111354D01*
X136115575Y-82963613D01*
X136303613Y-82775575D01*
X136451354Y-82554465D01*
X136553120Y-82308780D01*
X136605000Y-82047963D01*
X136605000Y-81782037D01*
X136553120Y-81521220D01*
X136451354Y-81275535D01*
X136303613Y-81054425D01*
X136115575Y-80866387D01*
X135894465Y-80718646D01*
X135716668Y-80645000D01*
X135894465Y-80571354D01*
X136115575Y-80423613D01*
X136303613Y-80235575D01*
X136451354Y-80014465D01*
X136553120Y-79768780D01*
X136605000Y-79507963D01*
X136605000Y-79242037D01*
X136553120Y-78981220D01*
X136451354Y-78735535D01*
X136303613Y-78514425D01*
X136115575Y-78326387D01*
X135894465Y-78178646D01*
X135716668Y-78105000D01*
X135894465Y-78031354D01*
X136115575Y-77883613D01*
X136303613Y-77695575D01*
X136451354Y-77474465D01*
X136553120Y-77228780D01*
X136605000Y-76967963D01*
X136605000Y-76702037D01*
X136553120Y-76441220D01*
X136451354Y-76195535D01*
X136303613Y-75974425D01*
X136115575Y-75786387D01*
X135894465Y-75638646D01*
X135716668Y-75565000D01*
X135894465Y-75491354D01*
X136115575Y-75343613D01*
X136303613Y-75155575D01*
X136451354Y-74934465D01*
X136553120Y-74688780D01*
X136605000Y-74427963D01*
X136605000Y-74162037D01*
X136553120Y-73901220D01*
X136451354Y-73655535D01*
X136303613Y-73434425D01*
X136115575Y-73246387D01*
X135894465Y-73098646D01*
X135716668Y-73025000D01*
X135894465Y-72951354D01*
X136115575Y-72803613D01*
X136303613Y-72615575D01*
X136451354Y-72394465D01*
X136553120Y-72148780D01*
X136605000Y-71887963D01*
X136605000Y-71622037D01*
X136553120Y-71361220D01*
X136451354Y-71115535D01*
X136303613Y-70894425D01*
X136115575Y-70706387D01*
X135894465Y-70558646D01*
X135716668Y-70485000D01*
X135894465Y-70411354D01*
X136115575Y-70263613D01*
X136303613Y-70075575D01*
X136451354Y-69854465D01*
X136553120Y-69608780D01*
X136605000Y-69347963D01*
X136605000Y-69082037D01*
X136553120Y-68821220D01*
X136451354Y-68575535D01*
X136303613Y-68354425D01*
X136115575Y-68166387D01*
X135907595Y-68027419D01*
X136105000Y-68027419D01*
X136203017Y-68017765D01*
X136297267Y-67989175D01*
X136384129Y-67942746D01*
X136460264Y-67880264D01*
X136522746Y-67804129D01*
X136569175Y-67717267D01*
X136597765Y-67623017D01*
X136607419Y-67525000D01*
X136607419Y-65825000D01*
X136597765Y-65726983D01*
X136569175Y-65632733D01*
X136522746Y-65545871D01*
X136460264Y-65469736D01*
X136384129Y-65407254D01*
X136297267Y-65360825D01*
X136203017Y-65332235D01*
X136105000Y-65322581D01*
X134405000Y-65322581D01*
X134306983Y-65332235D01*
X134212733Y-65360825D01*
X134125871Y-65407254D01*
X134049736Y-65469736D01*
X133987254Y-65545871D01*
X133940825Y-65632733D01*
X133912235Y-65726983D01*
X133902581Y-65825000D01*
X133735000Y-65825000D01*
X133735000Y-63270000D01*
X145786481Y-63270000D01*
X145623690Y-63337430D01*
D16*
G36*
X151005000Y-96205198D02*
G01*
X149350000Y-97860199D01*
X149350000Y-91119801D01*
X149493592Y-90976209D01*
X149713740Y-91020000D01*
X150006260Y-91020000D01*
X150293158Y-90962932D01*
X150563411Y-90850990D01*
X150806632Y-90688475D01*
X151005001Y-90490106D01*
X151005000Y-96205198D01*
G37*
X151005000Y-96205198D02*
X149350000Y-97860199D01*
X149350000Y-91119801D01*
X149493592Y-90976209D01*
X149713740Y-91020000D01*
X150006260Y-91020000D01*
X150293158Y-90962932D01*
X150563411Y-90850990D01*
X150806632Y-90688475D01*
X151005001Y-90490106D01*
X151005000Y-96205198D01*
G36*
X145103368Y-90688475D02*
G01*
X145346589Y-90850990D01*
X145616842Y-90962932D01*
X145903740Y-91020000D01*
X146196260Y-91020000D01*
X146416408Y-90976210D01*
X146560001Y-91119803D01*
X146560000Y-97860198D01*
X144905000Y-96205199D01*
X144905000Y-90490107D01*
X145103368Y-90688475D01*
G37*
X145103368Y-90688475D02*
X145346589Y-90850990D01*
X145616842Y-90962932D01*
X145903740Y-91020000D01*
X146196260Y-91020000D01*
X146416408Y-90976210D01*
X146560001Y-91119803D01*
X146560000Y-97860198D01*
X144905000Y-96205199D01*
X144905000Y-90490107D01*
X145103368Y-90688475D01*
G36*
X157988000Y-96588198D02*
G01*
X156970000Y-95570199D01*
X156970000Y-88392000D01*
X157988000Y-88392000D01*
X157988000Y-96588198D01*
G37*
X157988000Y-96588198D02*
X156970000Y-95570199D01*
X156970000Y-88392000D01*
X157988000Y-88392000D01*
X157988000Y-96588198D01*
G36*
X148706525Y-88588368D02*
G01*
X148544010Y-88831589D01*
X148432068Y-89101842D01*
X148375000Y-89388740D01*
X148375000Y-89681260D01*
X148418791Y-89901408D01*
X148078998Y-90241201D01*
X148050000Y-90264999D01*
X148026202Y-90293997D01*
X148026201Y-90293998D01*
X147955026Y-90380724D01*
X147955000Y-90380773D01*
X147954974Y-90380724D01*
X147860001Y-90264999D01*
X147831003Y-90241201D01*
X147491210Y-89901408D01*
X147535000Y-89681260D01*
X147535000Y-89388740D01*
X147477932Y-89101842D01*
X147365990Y-88831589D01*
X147203475Y-88588368D01*
X147007107Y-88392000D01*
X148902893Y-88392000D01*
X148706525Y-88588368D01*
G37*
X148706525Y-88588368D02*
X148544010Y-88831589D01*
X148432068Y-89101842D01*
X148375000Y-89388740D01*
X148375000Y-89681260D01*
X148418791Y-89901408D01*
X148078998Y-90241201D01*
X148050000Y-90264999D01*
X148026202Y-90293997D01*
X148026201Y-90293998D01*
X147955026Y-90380724D01*
X147955000Y-90380773D01*
X147954974Y-90380724D01*
X147860001Y-90264999D01*
X147831003Y-90241201D01*
X147491210Y-89901408D01*
X147535000Y-89681260D01*
X147535000Y-89388740D01*
X147477932Y-89101842D01*
X147365990Y-88831589D01*
X147203475Y-88588368D01*
X147007107Y-88392000D01*
X148902893Y-88392000D01*
X148706525Y-88588368D01*
M02*
