M48
; DRILL file {KiCad (5.1.5)-3} date 25-Jan-20 19:38:30
; FORMAT={-:-/ absolute / metric / decimal}
; #@! TF.CreationDate,2020-01-25T19:38:30+03:00
; #@! TF.GenerationSoftware,Kicad,Pcbnew,(5.1.5)-3
; #@! TF.FileFunction,Plated,1,2,PTH
FMAT,2
METRIC
T1C0.400
T2C1.000
%
G90
G05
T1
X134.62Y-95.25
X134.62Y-96.52
X135.255Y-64.135
X136.525Y-64.135
X140.335Y-64.135
X146.05Y-64.135
X146.05Y-93.345
X147.955Y-68.58
X147.955Y-78.105
X147.955Y-88.265
X149.86Y-64.135
X150.495Y-93.345
X154.94Y-64.135
X159.385Y-64.135
X160.655Y-64.135
X161.29Y-95.25
X161.29Y-96.52
T2
X149.86Y-66.675
X149.86Y-69.215
X149.86Y-71.755
X149.86Y-74.295
X149.86Y-76.835
X149.86Y-79.375
X149.86Y-81.915
X149.86Y-84.455
X149.86Y-86.995
X149.86Y-89.535
X146.05Y-66.675
X146.05Y-69.215
X146.05Y-71.755
X146.05Y-74.295
X146.05Y-76.835
X146.05Y-79.375
X146.05Y-81.915
X146.05Y-84.455
X146.05Y-86.995
X146.05Y-89.535
X160.655Y-66.675
X160.655Y-69.215
X160.655Y-71.755
X160.655Y-74.295
X160.655Y-76.835
X160.655Y-79.375
X160.655Y-81.915
X160.655Y-84.455
X160.655Y-86.995
X160.655Y-89.535
X135.255Y-66.675
X135.255Y-69.215
X135.255Y-71.755
X135.255Y-74.295
X135.255Y-76.835
X135.255Y-79.375
X135.255Y-81.915
X135.255Y-84.455
X135.255Y-86.995
X135.255Y-89.535
T0
M30
