G04 #@! TF.GenerationSoftware,KiCad,Pcbnew,(5.1.5)-3*
G04 #@! TF.CreationDate,2020-01-25T19:38:27+03:00*
G04 #@! TF.ProjectId,Sharp PC-1600 MemCard,53686172-7020-4504-932d-31363030204d,rev?*
G04 #@! TF.SameCoordinates,Original*
G04 #@! TF.FileFunction,Soldermask,Top*
G04 #@! TF.FilePolarity,Negative*
%FSLAX46Y46*%
G04 Gerber Fmt 4.6, Leading zero omitted, Abs format (unit mm)*
G04 Created by KiCad (PCBNEW (5.1.5)-3) date 2020-01-25 19:38:27*
%MOMM*%
%LPD*%
G04 APERTURE LIST*
%ADD10C,0.100000*%
G04 APERTURE END LIST*
D10*
G36*
X165100000Y-109220000D02*
G01*
X129540000Y-109220000D01*
X129540000Y-100076000D01*
X165100000Y-100076000D01*
X165100000Y-109220000D01*
G37*
X165100000Y-109220000D02*
X129540000Y-109220000D01*
X129540000Y-100076000D01*
X165100000Y-100076000D01*
X165100000Y-109220000D01*
G36*
X160768512Y-88638927D02*
G01*
X160917812Y-88668624D01*
X161081784Y-88736544D01*
X161229354Y-88835147D01*
X161354853Y-88960646D01*
X161453456Y-89108216D01*
X161521376Y-89272188D01*
X161556000Y-89446259D01*
X161556000Y-89623741D01*
X161521376Y-89797812D01*
X161453456Y-89961784D01*
X161354853Y-90109354D01*
X161229354Y-90234853D01*
X161081784Y-90333456D01*
X160917812Y-90401376D01*
X160768512Y-90431073D01*
X160743742Y-90436000D01*
X160566258Y-90436000D01*
X160541488Y-90431073D01*
X160392188Y-90401376D01*
X160228216Y-90333456D01*
X160080646Y-90234853D01*
X159955147Y-90109354D01*
X159856544Y-89961784D01*
X159788624Y-89797812D01*
X159754000Y-89623741D01*
X159754000Y-89446259D01*
X159788624Y-89272188D01*
X159856544Y-89108216D01*
X159955147Y-88960646D01*
X160080646Y-88835147D01*
X160228216Y-88736544D01*
X160392188Y-88668624D01*
X160541488Y-88638927D01*
X160566258Y-88634000D01*
X160743742Y-88634000D01*
X160768512Y-88638927D01*
G37*
G36*
X149973512Y-88638927D02*
G01*
X150122812Y-88668624D01*
X150286784Y-88736544D01*
X150434354Y-88835147D01*
X150559853Y-88960646D01*
X150658456Y-89108216D01*
X150726376Y-89272188D01*
X150761000Y-89446259D01*
X150761000Y-89623741D01*
X150726376Y-89797812D01*
X150658456Y-89961784D01*
X150559853Y-90109354D01*
X150434354Y-90234853D01*
X150286784Y-90333456D01*
X150122812Y-90401376D01*
X149973512Y-90431073D01*
X149948742Y-90436000D01*
X149771258Y-90436000D01*
X149746488Y-90431073D01*
X149597188Y-90401376D01*
X149433216Y-90333456D01*
X149285646Y-90234853D01*
X149160147Y-90109354D01*
X149061544Y-89961784D01*
X148993624Y-89797812D01*
X148959000Y-89623741D01*
X148959000Y-89446259D01*
X148993624Y-89272188D01*
X149061544Y-89108216D01*
X149160147Y-88960646D01*
X149285646Y-88835147D01*
X149433216Y-88736544D01*
X149597188Y-88668624D01*
X149746488Y-88638927D01*
X149771258Y-88634000D01*
X149948742Y-88634000D01*
X149973512Y-88638927D01*
G37*
G36*
X146163512Y-88638927D02*
G01*
X146312812Y-88668624D01*
X146476784Y-88736544D01*
X146624354Y-88835147D01*
X146749853Y-88960646D01*
X146848456Y-89108216D01*
X146916376Y-89272188D01*
X146951000Y-89446259D01*
X146951000Y-89623741D01*
X146916376Y-89797812D01*
X146848456Y-89961784D01*
X146749853Y-90109354D01*
X146624354Y-90234853D01*
X146476784Y-90333456D01*
X146312812Y-90401376D01*
X146163512Y-90431073D01*
X146138742Y-90436000D01*
X145961258Y-90436000D01*
X145936488Y-90431073D01*
X145787188Y-90401376D01*
X145623216Y-90333456D01*
X145475646Y-90234853D01*
X145350147Y-90109354D01*
X145251544Y-89961784D01*
X145183624Y-89797812D01*
X145149000Y-89623741D01*
X145149000Y-89446259D01*
X145183624Y-89272188D01*
X145251544Y-89108216D01*
X145350147Y-88960646D01*
X145475646Y-88835147D01*
X145623216Y-88736544D01*
X145787188Y-88668624D01*
X145936488Y-88638927D01*
X145961258Y-88634000D01*
X146138742Y-88634000D01*
X146163512Y-88638927D01*
G37*
G36*
X135368512Y-88638927D02*
G01*
X135517812Y-88668624D01*
X135681784Y-88736544D01*
X135829354Y-88835147D01*
X135954853Y-88960646D01*
X136053456Y-89108216D01*
X136121376Y-89272188D01*
X136156000Y-89446259D01*
X136156000Y-89623741D01*
X136121376Y-89797812D01*
X136053456Y-89961784D01*
X135954853Y-90109354D01*
X135829354Y-90234853D01*
X135681784Y-90333456D01*
X135517812Y-90401376D01*
X135368512Y-90431073D01*
X135343742Y-90436000D01*
X135166258Y-90436000D01*
X135141488Y-90431073D01*
X134992188Y-90401376D01*
X134828216Y-90333456D01*
X134680646Y-90234853D01*
X134555147Y-90109354D01*
X134456544Y-89961784D01*
X134388624Y-89797812D01*
X134354000Y-89623741D01*
X134354000Y-89446259D01*
X134388624Y-89272188D01*
X134456544Y-89108216D01*
X134555147Y-88960646D01*
X134680646Y-88835147D01*
X134828216Y-88736544D01*
X134992188Y-88668624D01*
X135141488Y-88638927D01*
X135166258Y-88634000D01*
X135343742Y-88634000D01*
X135368512Y-88638927D01*
G37*
G36*
X146163512Y-86098927D02*
G01*
X146312812Y-86128624D01*
X146476784Y-86196544D01*
X146624354Y-86295147D01*
X146749853Y-86420646D01*
X146848456Y-86568216D01*
X146916376Y-86732188D01*
X146951000Y-86906259D01*
X146951000Y-87083741D01*
X146916376Y-87257812D01*
X146848456Y-87421784D01*
X146749853Y-87569354D01*
X146624354Y-87694853D01*
X146476784Y-87793456D01*
X146312812Y-87861376D01*
X146163512Y-87891073D01*
X146138742Y-87896000D01*
X145961258Y-87896000D01*
X145936488Y-87891073D01*
X145787188Y-87861376D01*
X145623216Y-87793456D01*
X145475646Y-87694853D01*
X145350147Y-87569354D01*
X145251544Y-87421784D01*
X145183624Y-87257812D01*
X145149000Y-87083741D01*
X145149000Y-86906259D01*
X145183624Y-86732188D01*
X145251544Y-86568216D01*
X145350147Y-86420646D01*
X145475646Y-86295147D01*
X145623216Y-86196544D01*
X145787188Y-86128624D01*
X145936488Y-86098927D01*
X145961258Y-86094000D01*
X146138742Y-86094000D01*
X146163512Y-86098927D01*
G37*
G36*
X160768512Y-86098927D02*
G01*
X160917812Y-86128624D01*
X161081784Y-86196544D01*
X161229354Y-86295147D01*
X161354853Y-86420646D01*
X161453456Y-86568216D01*
X161521376Y-86732188D01*
X161556000Y-86906259D01*
X161556000Y-87083741D01*
X161521376Y-87257812D01*
X161453456Y-87421784D01*
X161354853Y-87569354D01*
X161229354Y-87694853D01*
X161081784Y-87793456D01*
X160917812Y-87861376D01*
X160768512Y-87891073D01*
X160743742Y-87896000D01*
X160566258Y-87896000D01*
X160541488Y-87891073D01*
X160392188Y-87861376D01*
X160228216Y-87793456D01*
X160080646Y-87694853D01*
X159955147Y-87569354D01*
X159856544Y-87421784D01*
X159788624Y-87257812D01*
X159754000Y-87083741D01*
X159754000Y-86906259D01*
X159788624Y-86732188D01*
X159856544Y-86568216D01*
X159955147Y-86420646D01*
X160080646Y-86295147D01*
X160228216Y-86196544D01*
X160392188Y-86128624D01*
X160541488Y-86098927D01*
X160566258Y-86094000D01*
X160743742Y-86094000D01*
X160768512Y-86098927D01*
G37*
G36*
X135368512Y-86098927D02*
G01*
X135517812Y-86128624D01*
X135681784Y-86196544D01*
X135829354Y-86295147D01*
X135954853Y-86420646D01*
X136053456Y-86568216D01*
X136121376Y-86732188D01*
X136156000Y-86906259D01*
X136156000Y-87083741D01*
X136121376Y-87257812D01*
X136053456Y-87421784D01*
X135954853Y-87569354D01*
X135829354Y-87694853D01*
X135681784Y-87793456D01*
X135517812Y-87861376D01*
X135368512Y-87891073D01*
X135343742Y-87896000D01*
X135166258Y-87896000D01*
X135141488Y-87891073D01*
X134992188Y-87861376D01*
X134828216Y-87793456D01*
X134680646Y-87694853D01*
X134555147Y-87569354D01*
X134456544Y-87421784D01*
X134388624Y-87257812D01*
X134354000Y-87083741D01*
X134354000Y-86906259D01*
X134388624Y-86732188D01*
X134456544Y-86568216D01*
X134555147Y-86420646D01*
X134680646Y-86295147D01*
X134828216Y-86196544D01*
X134992188Y-86128624D01*
X135141488Y-86098927D01*
X135166258Y-86094000D01*
X135343742Y-86094000D01*
X135368512Y-86098927D01*
G37*
G36*
X149973512Y-86098927D02*
G01*
X150122812Y-86128624D01*
X150286784Y-86196544D01*
X150434354Y-86295147D01*
X150559853Y-86420646D01*
X150658456Y-86568216D01*
X150726376Y-86732188D01*
X150761000Y-86906259D01*
X150761000Y-87083741D01*
X150726376Y-87257812D01*
X150658456Y-87421784D01*
X150559853Y-87569354D01*
X150434354Y-87694853D01*
X150286784Y-87793456D01*
X150122812Y-87861376D01*
X149973512Y-87891073D01*
X149948742Y-87896000D01*
X149771258Y-87896000D01*
X149746488Y-87891073D01*
X149597188Y-87861376D01*
X149433216Y-87793456D01*
X149285646Y-87694853D01*
X149160147Y-87569354D01*
X149061544Y-87421784D01*
X148993624Y-87257812D01*
X148959000Y-87083741D01*
X148959000Y-86906259D01*
X148993624Y-86732188D01*
X149061544Y-86568216D01*
X149160147Y-86420646D01*
X149285646Y-86295147D01*
X149433216Y-86196544D01*
X149597188Y-86128624D01*
X149746488Y-86098927D01*
X149771258Y-86094000D01*
X149948742Y-86094000D01*
X149973512Y-86098927D01*
G37*
G36*
X160768512Y-83558927D02*
G01*
X160917812Y-83588624D01*
X161081784Y-83656544D01*
X161229354Y-83755147D01*
X161354853Y-83880646D01*
X161453456Y-84028216D01*
X161521376Y-84192188D01*
X161556000Y-84366259D01*
X161556000Y-84543741D01*
X161521376Y-84717812D01*
X161453456Y-84881784D01*
X161354853Y-85029354D01*
X161229354Y-85154853D01*
X161081784Y-85253456D01*
X160917812Y-85321376D01*
X160768512Y-85351073D01*
X160743742Y-85356000D01*
X160566258Y-85356000D01*
X160541488Y-85351073D01*
X160392188Y-85321376D01*
X160228216Y-85253456D01*
X160080646Y-85154853D01*
X159955147Y-85029354D01*
X159856544Y-84881784D01*
X159788624Y-84717812D01*
X159754000Y-84543741D01*
X159754000Y-84366259D01*
X159788624Y-84192188D01*
X159856544Y-84028216D01*
X159955147Y-83880646D01*
X160080646Y-83755147D01*
X160228216Y-83656544D01*
X160392188Y-83588624D01*
X160541488Y-83558927D01*
X160566258Y-83554000D01*
X160743742Y-83554000D01*
X160768512Y-83558927D01*
G37*
G36*
X149973512Y-83558927D02*
G01*
X150122812Y-83588624D01*
X150286784Y-83656544D01*
X150434354Y-83755147D01*
X150559853Y-83880646D01*
X150658456Y-84028216D01*
X150726376Y-84192188D01*
X150761000Y-84366259D01*
X150761000Y-84543741D01*
X150726376Y-84717812D01*
X150658456Y-84881784D01*
X150559853Y-85029354D01*
X150434354Y-85154853D01*
X150286784Y-85253456D01*
X150122812Y-85321376D01*
X149973512Y-85351073D01*
X149948742Y-85356000D01*
X149771258Y-85356000D01*
X149746488Y-85351073D01*
X149597188Y-85321376D01*
X149433216Y-85253456D01*
X149285646Y-85154853D01*
X149160147Y-85029354D01*
X149061544Y-84881784D01*
X148993624Y-84717812D01*
X148959000Y-84543741D01*
X148959000Y-84366259D01*
X148993624Y-84192188D01*
X149061544Y-84028216D01*
X149160147Y-83880646D01*
X149285646Y-83755147D01*
X149433216Y-83656544D01*
X149597188Y-83588624D01*
X149746488Y-83558927D01*
X149771258Y-83554000D01*
X149948742Y-83554000D01*
X149973512Y-83558927D01*
G37*
G36*
X135368512Y-83558927D02*
G01*
X135517812Y-83588624D01*
X135681784Y-83656544D01*
X135829354Y-83755147D01*
X135954853Y-83880646D01*
X136053456Y-84028216D01*
X136121376Y-84192188D01*
X136156000Y-84366259D01*
X136156000Y-84543741D01*
X136121376Y-84717812D01*
X136053456Y-84881784D01*
X135954853Y-85029354D01*
X135829354Y-85154853D01*
X135681784Y-85253456D01*
X135517812Y-85321376D01*
X135368512Y-85351073D01*
X135343742Y-85356000D01*
X135166258Y-85356000D01*
X135141488Y-85351073D01*
X134992188Y-85321376D01*
X134828216Y-85253456D01*
X134680646Y-85154853D01*
X134555147Y-85029354D01*
X134456544Y-84881784D01*
X134388624Y-84717812D01*
X134354000Y-84543741D01*
X134354000Y-84366259D01*
X134388624Y-84192188D01*
X134456544Y-84028216D01*
X134555147Y-83880646D01*
X134680646Y-83755147D01*
X134828216Y-83656544D01*
X134992188Y-83588624D01*
X135141488Y-83558927D01*
X135166258Y-83554000D01*
X135343742Y-83554000D01*
X135368512Y-83558927D01*
G37*
G36*
X146163512Y-83558927D02*
G01*
X146312812Y-83588624D01*
X146476784Y-83656544D01*
X146624354Y-83755147D01*
X146749853Y-83880646D01*
X146848456Y-84028216D01*
X146916376Y-84192188D01*
X146951000Y-84366259D01*
X146951000Y-84543741D01*
X146916376Y-84717812D01*
X146848456Y-84881784D01*
X146749853Y-85029354D01*
X146624354Y-85154853D01*
X146476784Y-85253456D01*
X146312812Y-85321376D01*
X146163512Y-85351073D01*
X146138742Y-85356000D01*
X145961258Y-85356000D01*
X145936488Y-85351073D01*
X145787188Y-85321376D01*
X145623216Y-85253456D01*
X145475646Y-85154853D01*
X145350147Y-85029354D01*
X145251544Y-84881784D01*
X145183624Y-84717812D01*
X145149000Y-84543741D01*
X145149000Y-84366259D01*
X145183624Y-84192188D01*
X145251544Y-84028216D01*
X145350147Y-83880646D01*
X145475646Y-83755147D01*
X145623216Y-83656544D01*
X145787188Y-83588624D01*
X145936488Y-83558927D01*
X145961258Y-83554000D01*
X146138742Y-83554000D01*
X146163512Y-83558927D01*
G37*
G36*
X149973512Y-81018927D02*
G01*
X150122812Y-81048624D01*
X150286784Y-81116544D01*
X150434354Y-81215147D01*
X150559853Y-81340646D01*
X150658456Y-81488216D01*
X150726376Y-81652188D01*
X150761000Y-81826259D01*
X150761000Y-82003741D01*
X150726376Y-82177812D01*
X150658456Y-82341784D01*
X150559853Y-82489354D01*
X150434354Y-82614853D01*
X150286784Y-82713456D01*
X150122812Y-82781376D01*
X149973512Y-82811073D01*
X149948742Y-82816000D01*
X149771258Y-82816000D01*
X149746488Y-82811073D01*
X149597188Y-82781376D01*
X149433216Y-82713456D01*
X149285646Y-82614853D01*
X149160147Y-82489354D01*
X149061544Y-82341784D01*
X148993624Y-82177812D01*
X148959000Y-82003741D01*
X148959000Y-81826259D01*
X148993624Y-81652188D01*
X149061544Y-81488216D01*
X149160147Y-81340646D01*
X149285646Y-81215147D01*
X149433216Y-81116544D01*
X149597188Y-81048624D01*
X149746488Y-81018927D01*
X149771258Y-81014000D01*
X149948742Y-81014000D01*
X149973512Y-81018927D01*
G37*
G36*
X146163512Y-81018927D02*
G01*
X146312812Y-81048624D01*
X146476784Y-81116544D01*
X146624354Y-81215147D01*
X146749853Y-81340646D01*
X146848456Y-81488216D01*
X146916376Y-81652188D01*
X146951000Y-81826259D01*
X146951000Y-82003741D01*
X146916376Y-82177812D01*
X146848456Y-82341784D01*
X146749853Y-82489354D01*
X146624354Y-82614853D01*
X146476784Y-82713456D01*
X146312812Y-82781376D01*
X146163512Y-82811073D01*
X146138742Y-82816000D01*
X145961258Y-82816000D01*
X145936488Y-82811073D01*
X145787188Y-82781376D01*
X145623216Y-82713456D01*
X145475646Y-82614853D01*
X145350147Y-82489354D01*
X145251544Y-82341784D01*
X145183624Y-82177812D01*
X145149000Y-82003741D01*
X145149000Y-81826259D01*
X145183624Y-81652188D01*
X145251544Y-81488216D01*
X145350147Y-81340646D01*
X145475646Y-81215147D01*
X145623216Y-81116544D01*
X145787188Y-81048624D01*
X145936488Y-81018927D01*
X145961258Y-81014000D01*
X146138742Y-81014000D01*
X146163512Y-81018927D01*
G37*
G36*
X160768512Y-81018927D02*
G01*
X160917812Y-81048624D01*
X161081784Y-81116544D01*
X161229354Y-81215147D01*
X161354853Y-81340646D01*
X161453456Y-81488216D01*
X161521376Y-81652188D01*
X161556000Y-81826259D01*
X161556000Y-82003741D01*
X161521376Y-82177812D01*
X161453456Y-82341784D01*
X161354853Y-82489354D01*
X161229354Y-82614853D01*
X161081784Y-82713456D01*
X160917812Y-82781376D01*
X160768512Y-82811073D01*
X160743742Y-82816000D01*
X160566258Y-82816000D01*
X160541488Y-82811073D01*
X160392188Y-82781376D01*
X160228216Y-82713456D01*
X160080646Y-82614853D01*
X159955147Y-82489354D01*
X159856544Y-82341784D01*
X159788624Y-82177812D01*
X159754000Y-82003741D01*
X159754000Y-81826259D01*
X159788624Y-81652188D01*
X159856544Y-81488216D01*
X159955147Y-81340646D01*
X160080646Y-81215147D01*
X160228216Y-81116544D01*
X160392188Y-81048624D01*
X160541488Y-81018927D01*
X160566258Y-81014000D01*
X160743742Y-81014000D01*
X160768512Y-81018927D01*
G37*
G36*
X135368512Y-81018927D02*
G01*
X135517812Y-81048624D01*
X135681784Y-81116544D01*
X135829354Y-81215147D01*
X135954853Y-81340646D01*
X136053456Y-81488216D01*
X136121376Y-81652188D01*
X136156000Y-81826259D01*
X136156000Y-82003741D01*
X136121376Y-82177812D01*
X136053456Y-82341784D01*
X135954853Y-82489354D01*
X135829354Y-82614853D01*
X135681784Y-82713456D01*
X135517812Y-82781376D01*
X135368512Y-82811073D01*
X135343742Y-82816000D01*
X135166258Y-82816000D01*
X135141488Y-82811073D01*
X134992188Y-82781376D01*
X134828216Y-82713456D01*
X134680646Y-82614853D01*
X134555147Y-82489354D01*
X134456544Y-82341784D01*
X134388624Y-82177812D01*
X134354000Y-82003741D01*
X134354000Y-81826259D01*
X134388624Y-81652188D01*
X134456544Y-81488216D01*
X134555147Y-81340646D01*
X134680646Y-81215147D01*
X134828216Y-81116544D01*
X134992188Y-81048624D01*
X135141488Y-81018927D01*
X135166258Y-81014000D01*
X135343742Y-81014000D01*
X135368512Y-81018927D01*
G37*
G36*
X160768512Y-78478927D02*
G01*
X160917812Y-78508624D01*
X161081784Y-78576544D01*
X161229354Y-78675147D01*
X161354853Y-78800646D01*
X161453456Y-78948216D01*
X161521376Y-79112188D01*
X161556000Y-79286259D01*
X161556000Y-79463741D01*
X161521376Y-79637812D01*
X161453456Y-79801784D01*
X161354853Y-79949354D01*
X161229354Y-80074853D01*
X161081784Y-80173456D01*
X160917812Y-80241376D01*
X160768512Y-80271073D01*
X160743742Y-80276000D01*
X160566258Y-80276000D01*
X160541488Y-80271073D01*
X160392188Y-80241376D01*
X160228216Y-80173456D01*
X160080646Y-80074853D01*
X159955147Y-79949354D01*
X159856544Y-79801784D01*
X159788624Y-79637812D01*
X159754000Y-79463741D01*
X159754000Y-79286259D01*
X159788624Y-79112188D01*
X159856544Y-78948216D01*
X159955147Y-78800646D01*
X160080646Y-78675147D01*
X160228216Y-78576544D01*
X160392188Y-78508624D01*
X160541488Y-78478927D01*
X160566258Y-78474000D01*
X160743742Y-78474000D01*
X160768512Y-78478927D01*
G37*
G36*
X149973512Y-78478927D02*
G01*
X150122812Y-78508624D01*
X150286784Y-78576544D01*
X150434354Y-78675147D01*
X150559853Y-78800646D01*
X150658456Y-78948216D01*
X150726376Y-79112188D01*
X150761000Y-79286259D01*
X150761000Y-79463741D01*
X150726376Y-79637812D01*
X150658456Y-79801784D01*
X150559853Y-79949354D01*
X150434354Y-80074853D01*
X150286784Y-80173456D01*
X150122812Y-80241376D01*
X149973512Y-80271073D01*
X149948742Y-80276000D01*
X149771258Y-80276000D01*
X149746488Y-80271073D01*
X149597188Y-80241376D01*
X149433216Y-80173456D01*
X149285646Y-80074853D01*
X149160147Y-79949354D01*
X149061544Y-79801784D01*
X148993624Y-79637812D01*
X148959000Y-79463741D01*
X148959000Y-79286259D01*
X148993624Y-79112188D01*
X149061544Y-78948216D01*
X149160147Y-78800646D01*
X149285646Y-78675147D01*
X149433216Y-78576544D01*
X149597188Y-78508624D01*
X149746488Y-78478927D01*
X149771258Y-78474000D01*
X149948742Y-78474000D01*
X149973512Y-78478927D01*
G37*
G36*
X146163512Y-78478927D02*
G01*
X146312812Y-78508624D01*
X146476784Y-78576544D01*
X146624354Y-78675147D01*
X146749853Y-78800646D01*
X146848456Y-78948216D01*
X146916376Y-79112188D01*
X146951000Y-79286259D01*
X146951000Y-79463741D01*
X146916376Y-79637812D01*
X146848456Y-79801784D01*
X146749853Y-79949354D01*
X146624354Y-80074853D01*
X146476784Y-80173456D01*
X146312812Y-80241376D01*
X146163512Y-80271073D01*
X146138742Y-80276000D01*
X145961258Y-80276000D01*
X145936488Y-80271073D01*
X145787188Y-80241376D01*
X145623216Y-80173456D01*
X145475646Y-80074853D01*
X145350147Y-79949354D01*
X145251544Y-79801784D01*
X145183624Y-79637812D01*
X145149000Y-79463741D01*
X145149000Y-79286259D01*
X145183624Y-79112188D01*
X145251544Y-78948216D01*
X145350147Y-78800646D01*
X145475646Y-78675147D01*
X145623216Y-78576544D01*
X145787188Y-78508624D01*
X145936488Y-78478927D01*
X145961258Y-78474000D01*
X146138742Y-78474000D01*
X146163512Y-78478927D01*
G37*
G36*
X135368512Y-78478927D02*
G01*
X135517812Y-78508624D01*
X135681784Y-78576544D01*
X135829354Y-78675147D01*
X135954853Y-78800646D01*
X136053456Y-78948216D01*
X136121376Y-79112188D01*
X136156000Y-79286259D01*
X136156000Y-79463741D01*
X136121376Y-79637812D01*
X136053456Y-79801784D01*
X135954853Y-79949354D01*
X135829354Y-80074853D01*
X135681784Y-80173456D01*
X135517812Y-80241376D01*
X135368512Y-80271073D01*
X135343742Y-80276000D01*
X135166258Y-80276000D01*
X135141488Y-80271073D01*
X134992188Y-80241376D01*
X134828216Y-80173456D01*
X134680646Y-80074853D01*
X134555147Y-79949354D01*
X134456544Y-79801784D01*
X134388624Y-79637812D01*
X134354000Y-79463741D01*
X134354000Y-79286259D01*
X134388624Y-79112188D01*
X134456544Y-78948216D01*
X134555147Y-78800646D01*
X134680646Y-78675147D01*
X134828216Y-78576544D01*
X134992188Y-78508624D01*
X135141488Y-78478927D01*
X135166258Y-78474000D01*
X135343742Y-78474000D01*
X135368512Y-78478927D01*
G37*
G36*
X160768512Y-75938927D02*
G01*
X160917812Y-75968624D01*
X161081784Y-76036544D01*
X161229354Y-76135147D01*
X161354853Y-76260646D01*
X161453456Y-76408216D01*
X161521376Y-76572188D01*
X161556000Y-76746259D01*
X161556000Y-76923741D01*
X161521376Y-77097812D01*
X161453456Y-77261784D01*
X161354853Y-77409354D01*
X161229354Y-77534853D01*
X161081784Y-77633456D01*
X160917812Y-77701376D01*
X160768512Y-77731073D01*
X160743742Y-77736000D01*
X160566258Y-77736000D01*
X160541488Y-77731073D01*
X160392188Y-77701376D01*
X160228216Y-77633456D01*
X160080646Y-77534853D01*
X159955147Y-77409354D01*
X159856544Y-77261784D01*
X159788624Y-77097812D01*
X159754000Y-76923741D01*
X159754000Y-76746259D01*
X159788624Y-76572188D01*
X159856544Y-76408216D01*
X159955147Y-76260646D01*
X160080646Y-76135147D01*
X160228216Y-76036544D01*
X160392188Y-75968624D01*
X160541488Y-75938927D01*
X160566258Y-75934000D01*
X160743742Y-75934000D01*
X160768512Y-75938927D01*
G37*
G36*
X149973512Y-75938927D02*
G01*
X150122812Y-75968624D01*
X150286784Y-76036544D01*
X150434354Y-76135147D01*
X150559853Y-76260646D01*
X150658456Y-76408216D01*
X150726376Y-76572188D01*
X150761000Y-76746259D01*
X150761000Y-76923741D01*
X150726376Y-77097812D01*
X150658456Y-77261784D01*
X150559853Y-77409354D01*
X150434354Y-77534853D01*
X150286784Y-77633456D01*
X150122812Y-77701376D01*
X149973512Y-77731073D01*
X149948742Y-77736000D01*
X149771258Y-77736000D01*
X149746488Y-77731073D01*
X149597188Y-77701376D01*
X149433216Y-77633456D01*
X149285646Y-77534853D01*
X149160147Y-77409354D01*
X149061544Y-77261784D01*
X148993624Y-77097812D01*
X148959000Y-76923741D01*
X148959000Y-76746259D01*
X148993624Y-76572188D01*
X149061544Y-76408216D01*
X149160147Y-76260646D01*
X149285646Y-76135147D01*
X149433216Y-76036544D01*
X149597188Y-75968624D01*
X149746488Y-75938927D01*
X149771258Y-75934000D01*
X149948742Y-75934000D01*
X149973512Y-75938927D01*
G37*
G36*
X146163512Y-75938927D02*
G01*
X146312812Y-75968624D01*
X146476784Y-76036544D01*
X146624354Y-76135147D01*
X146749853Y-76260646D01*
X146848456Y-76408216D01*
X146916376Y-76572188D01*
X146951000Y-76746259D01*
X146951000Y-76923741D01*
X146916376Y-77097812D01*
X146848456Y-77261784D01*
X146749853Y-77409354D01*
X146624354Y-77534853D01*
X146476784Y-77633456D01*
X146312812Y-77701376D01*
X146163512Y-77731073D01*
X146138742Y-77736000D01*
X145961258Y-77736000D01*
X145936488Y-77731073D01*
X145787188Y-77701376D01*
X145623216Y-77633456D01*
X145475646Y-77534853D01*
X145350147Y-77409354D01*
X145251544Y-77261784D01*
X145183624Y-77097812D01*
X145149000Y-76923741D01*
X145149000Y-76746259D01*
X145183624Y-76572188D01*
X145251544Y-76408216D01*
X145350147Y-76260646D01*
X145475646Y-76135147D01*
X145623216Y-76036544D01*
X145787188Y-75968624D01*
X145936488Y-75938927D01*
X145961258Y-75934000D01*
X146138742Y-75934000D01*
X146163512Y-75938927D01*
G37*
G36*
X135368512Y-75938927D02*
G01*
X135517812Y-75968624D01*
X135681784Y-76036544D01*
X135829354Y-76135147D01*
X135954853Y-76260646D01*
X136053456Y-76408216D01*
X136121376Y-76572188D01*
X136156000Y-76746259D01*
X136156000Y-76923741D01*
X136121376Y-77097812D01*
X136053456Y-77261784D01*
X135954853Y-77409354D01*
X135829354Y-77534853D01*
X135681784Y-77633456D01*
X135517812Y-77701376D01*
X135368512Y-77731073D01*
X135343742Y-77736000D01*
X135166258Y-77736000D01*
X135141488Y-77731073D01*
X134992188Y-77701376D01*
X134828216Y-77633456D01*
X134680646Y-77534853D01*
X134555147Y-77409354D01*
X134456544Y-77261784D01*
X134388624Y-77097812D01*
X134354000Y-76923741D01*
X134354000Y-76746259D01*
X134388624Y-76572188D01*
X134456544Y-76408216D01*
X134555147Y-76260646D01*
X134680646Y-76135147D01*
X134828216Y-76036544D01*
X134992188Y-75968624D01*
X135141488Y-75938927D01*
X135166258Y-75934000D01*
X135343742Y-75934000D01*
X135368512Y-75938927D01*
G37*
G36*
X135368512Y-73398927D02*
G01*
X135517812Y-73428624D01*
X135681784Y-73496544D01*
X135829354Y-73595147D01*
X135954853Y-73720646D01*
X136053456Y-73868216D01*
X136121376Y-74032188D01*
X136156000Y-74206259D01*
X136156000Y-74383741D01*
X136121376Y-74557812D01*
X136053456Y-74721784D01*
X135954853Y-74869354D01*
X135829354Y-74994853D01*
X135681784Y-75093456D01*
X135517812Y-75161376D01*
X135368512Y-75191073D01*
X135343742Y-75196000D01*
X135166258Y-75196000D01*
X135141488Y-75191073D01*
X134992188Y-75161376D01*
X134828216Y-75093456D01*
X134680646Y-74994853D01*
X134555147Y-74869354D01*
X134456544Y-74721784D01*
X134388624Y-74557812D01*
X134354000Y-74383741D01*
X134354000Y-74206259D01*
X134388624Y-74032188D01*
X134456544Y-73868216D01*
X134555147Y-73720646D01*
X134680646Y-73595147D01*
X134828216Y-73496544D01*
X134992188Y-73428624D01*
X135141488Y-73398927D01*
X135166258Y-73394000D01*
X135343742Y-73394000D01*
X135368512Y-73398927D01*
G37*
G36*
X160768512Y-73398927D02*
G01*
X160917812Y-73428624D01*
X161081784Y-73496544D01*
X161229354Y-73595147D01*
X161354853Y-73720646D01*
X161453456Y-73868216D01*
X161521376Y-74032188D01*
X161556000Y-74206259D01*
X161556000Y-74383741D01*
X161521376Y-74557812D01*
X161453456Y-74721784D01*
X161354853Y-74869354D01*
X161229354Y-74994853D01*
X161081784Y-75093456D01*
X160917812Y-75161376D01*
X160768512Y-75191073D01*
X160743742Y-75196000D01*
X160566258Y-75196000D01*
X160541488Y-75191073D01*
X160392188Y-75161376D01*
X160228216Y-75093456D01*
X160080646Y-74994853D01*
X159955147Y-74869354D01*
X159856544Y-74721784D01*
X159788624Y-74557812D01*
X159754000Y-74383741D01*
X159754000Y-74206259D01*
X159788624Y-74032188D01*
X159856544Y-73868216D01*
X159955147Y-73720646D01*
X160080646Y-73595147D01*
X160228216Y-73496544D01*
X160392188Y-73428624D01*
X160541488Y-73398927D01*
X160566258Y-73394000D01*
X160743742Y-73394000D01*
X160768512Y-73398927D01*
G37*
G36*
X149973512Y-73398927D02*
G01*
X150122812Y-73428624D01*
X150286784Y-73496544D01*
X150434354Y-73595147D01*
X150559853Y-73720646D01*
X150658456Y-73868216D01*
X150726376Y-74032188D01*
X150761000Y-74206259D01*
X150761000Y-74383741D01*
X150726376Y-74557812D01*
X150658456Y-74721784D01*
X150559853Y-74869354D01*
X150434354Y-74994853D01*
X150286784Y-75093456D01*
X150122812Y-75161376D01*
X149973512Y-75191073D01*
X149948742Y-75196000D01*
X149771258Y-75196000D01*
X149746488Y-75191073D01*
X149597188Y-75161376D01*
X149433216Y-75093456D01*
X149285646Y-74994853D01*
X149160147Y-74869354D01*
X149061544Y-74721784D01*
X148993624Y-74557812D01*
X148959000Y-74383741D01*
X148959000Y-74206259D01*
X148993624Y-74032188D01*
X149061544Y-73868216D01*
X149160147Y-73720646D01*
X149285646Y-73595147D01*
X149433216Y-73496544D01*
X149597188Y-73428624D01*
X149746488Y-73398927D01*
X149771258Y-73394000D01*
X149948742Y-73394000D01*
X149973512Y-73398927D01*
G37*
G36*
X146163512Y-73398927D02*
G01*
X146312812Y-73428624D01*
X146476784Y-73496544D01*
X146624354Y-73595147D01*
X146749853Y-73720646D01*
X146848456Y-73868216D01*
X146916376Y-74032188D01*
X146951000Y-74206259D01*
X146951000Y-74383741D01*
X146916376Y-74557812D01*
X146848456Y-74721784D01*
X146749853Y-74869354D01*
X146624354Y-74994853D01*
X146476784Y-75093456D01*
X146312812Y-75161376D01*
X146163512Y-75191073D01*
X146138742Y-75196000D01*
X145961258Y-75196000D01*
X145936488Y-75191073D01*
X145787188Y-75161376D01*
X145623216Y-75093456D01*
X145475646Y-74994853D01*
X145350147Y-74869354D01*
X145251544Y-74721784D01*
X145183624Y-74557812D01*
X145149000Y-74383741D01*
X145149000Y-74206259D01*
X145183624Y-74032188D01*
X145251544Y-73868216D01*
X145350147Y-73720646D01*
X145475646Y-73595147D01*
X145623216Y-73496544D01*
X145787188Y-73428624D01*
X145936488Y-73398927D01*
X145961258Y-73394000D01*
X146138742Y-73394000D01*
X146163512Y-73398927D01*
G37*
G36*
X160768512Y-70858927D02*
G01*
X160917812Y-70888624D01*
X161081784Y-70956544D01*
X161229354Y-71055147D01*
X161354853Y-71180646D01*
X161453456Y-71328216D01*
X161521376Y-71492188D01*
X161556000Y-71666259D01*
X161556000Y-71843741D01*
X161521376Y-72017812D01*
X161453456Y-72181784D01*
X161354853Y-72329354D01*
X161229354Y-72454853D01*
X161081784Y-72553456D01*
X160917812Y-72621376D01*
X160768512Y-72651073D01*
X160743742Y-72656000D01*
X160566258Y-72656000D01*
X160541488Y-72651073D01*
X160392188Y-72621376D01*
X160228216Y-72553456D01*
X160080646Y-72454853D01*
X159955147Y-72329354D01*
X159856544Y-72181784D01*
X159788624Y-72017812D01*
X159754000Y-71843741D01*
X159754000Y-71666259D01*
X159788624Y-71492188D01*
X159856544Y-71328216D01*
X159955147Y-71180646D01*
X160080646Y-71055147D01*
X160228216Y-70956544D01*
X160392188Y-70888624D01*
X160541488Y-70858927D01*
X160566258Y-70854000D01*
X160743742Y-70854000D01*
X160768512Y-70858927D01*
G37*
G36*
X146163512Y-70858927D02*
G01*
X146312812Y-70888624D01*
X146476784Y-70956544D01*
X146624354Y-71055147D01*
X146749853Y-71180646D01*
X146848456Y-71328216D01*
X146916376Y-71492188D01*
X146951000Y-71666259D01*
X146951000Y-71843741D01*
X146916376Y-72017812D01*
X146848456Y-72181784D01*
X146749853Y-72329354D01*
X146624354Y-72454853D01*
X146476784Y-72553456D01*
X146312812Y-72621376D01*
X146163512Y-72651073D01*
X146138742Y-72656000D01*
X145961258Y-72656000D01*
X145936488Y-72651073D01*
X145787188Y-72621376D01*
X145623216Y-72553456D01*
X145475646Y-72454853D01*
X145350147Y-72329354D01*
X145251544Y-72181784D01*
X145183624Y-72017812D01*
X145149000Y-71843741D01*
X145149000Y-71666259D01*
X145183624Y-71492188D01*
X145251544Y-71328216D01*
X145350147Y-71180646D01*
X145475646Y-71055147D01*
X145623216Y-70956544D01*
X145787188Y-70888624D01*
X145936488Y-70858927D01*
X145961258Y-70854000D01*
X146138742Y-70854000D01*
X146163512Y-70858927D01*
G37*
G36*
X135368512Y-70858927D02*
G01*
X135517812Y-70888624D01*
X135681784Y-70956544D01*
X135829354Y-71055147D01*
X135954853Y-71180646D01*
X136053456Y-71328216D01*
X136121376Y-71492188D01*
X136156000Y-71666259D01*
X136156000Y-71843741D01*
X136121376Y-72017812D01*
X136053456Y-72181784D01*
X135954853Y-72329354D01*
X135829354Y-72454853D01*
X135681784Y-72553456D01*
X135517812Y-72621376D01*
X135368512Y-72651073D01*
X135343742Y-72656000D01*
X135166258Y-72656000D01*
X135141488Y-72651073D01*
X134992188Y-72621376D01*
X134828216Y-72553456D01*
X134680646Y-72454853D01*
X134555147Y-72329354D01*
X134456544Y-72181784D01*
X134388624Y-72017812D01*
X134354000Y-71843741D01*
X134354000Y-71666259D01*
X134388624Y-71492188D01*
X134456544Y-71328216D01*
X134555147Y-71180646D01*
X134680646Y-71055147D01*
X134828216Y-70956544D01*
X134992188Y-70888624D01*
X135141488Y-70858927D01*
X135166258Y-70854000D01*
X135343742Y-70854000D01*
X135368512Y-70858927D01*
G37*
G36*
X149973512Y-70858927D02*
G01*
X150122812Y-70888624D01*
X150286784Y-70956544D01*
X150434354Y-71055147D01*
X150559853Y-71180646D01*
X150658456Y-71328216D01*
X150726376Y-71492188D01*
X150761000Y-71666259D01*
X150761000Y-71843741D01*
X150726376Y-72017812D01*
X150658456Y-72181784D01*
X150559853Y-72329354D01*
X150434354Y-72454853D01*
X150286784Y-72553456D01*
X150122812Y-72621376D01*
X149973512Y-72651073D01*
X149948742Y-72656000D01*
X149771258Y-72656000D01*
X149746488Y-72651073D01*
X149597188Y-72621376D01*
X149433216Y-72553456D01*
X149285646Y-72454853D01*
X149160147Y-72329354D01*
X149061544Y-72181784D01*
X148993624Y-72017812D01*
X148959000Y-71843741D01*
X148959000Y-71666259D01*
X148993624Y-71492188D01*
X149061544Y-71328216D01*
X149160147Y-71180646D01*
X149285646Y-71055147D01*
X149433216Y-70956544D01*
X149597188Y-70888624D01*
X149746488Y-70858927D01*
X149771258Y-70854000D01*
X149948742Y-70854000D01*
X149973512Y-70858927D01*
G37*
G36*
X160768512Y-68318927D02*
G01*
X160917812Y-68348624D01*
X161081784Y-68416544D01*
X161229354Y-68515147D01*
X161354853Y-68640646D01*
X161453456Y-68788216D01*
X161521376Y-68952188D01*
X161556000Y-69126259D01*
X161556000Y-69303741D01*
X161521376Y-69477812D01*
X161453456Y-69641784D01*
X161354853Y-69789354D01*
X161229354Y-69914853D01*
X161081784Y-70013456D01*
X160917812Y-70081376D01*
X160768512Y-70111073D01*
X160743742Y-70116000D01*
X160566258Y-70116000D01*
X160541488Y-70111073D01*
X160392188Y-70081376D01*
X160228216Y-70013456D01*
X160080646Y-69914853D01*
X159955147Y-69789354D01*
X159856544Y-69641784D01*
X159788624Y-69477812D01*
X159754000Y-69303741D01*
X159754000Y-69126259D01*
X159788624Y-68952188D01*
X159856544Y-68788216D01*
X159955147Y-68640646D01*
X160080646Y-68515147D01*
X160228216Y-68416544D01*
X160392188Y-68348624D01*
X160541488Y-68318927D01*
X160566258Y-68314000D01*
X160743742Y-68314000D01*
X160768512Y-68318927D01*
G37*
G36*
X149973512Y-68318927D02*
G01*
X150122812Y-68348624D01*
X150286784Y-68416544D01*
X150434354Y-68515147D01*
X150559853Y-68640646D01*
X150658456Y-68788216D01*
X150726376Y-68952188D01*
X150761000Y-69126259D01*
X150761000Y-69303741D01*
X150726376Y-69477812D01*
X150658456Y-69641784D01*
X150559853Y-69789354D01*
X150434354Y-69914853D01*
X150286784Y-70013456D01*
X150122812Y-70081376D01*
X149973512Y-70111073D01*
X149948742Y-70116000D01*
X149771258Y-70116000D01*
X149746488Y-70111073D01*
X149597188Y-70081376D01*
X149433216Y-70013456D01*
X149285646Y-69914853D01*
X149160147Y-69789354D01*
X149061544Y-69641784D01*
X148993624Y-69477812D01*
X148959000Y-69303741D01*
X148959000Y-69126259D01*
X148993624Y-68952188D01*
X149061544Y-68788216D01*
X149160147Y-68640646D01*
X149285646Y-68515147D01*
X149433216Y-68416544D01*
X149597188Y-68348624D01*
X149746488Y-68318927D01*
X149771258Y-68314000D01*
X149948742Y-68314000D01*
X149973512Y-68318927D01*
G37*
G36*
X146163512Y-68318927D02*
G01*
X146312812Y-68348624D01*
X146476784Y-68416544D01*
X146624354Y-68515147D01*
X146749853Y-68640646D01*
X146848456Y-68788216D01*
X146916376Y-68952188D01*
X146951000Y-69126259D01*
X146951000Y-69303741D01*
X146916376Y-69477812D01*
X146848456Y-69641784D01*
X146749853Y-69789354D01*
X146624354Y-69914853D01*
X146476784Y-70013456D01*
X146312812Y-70081376D01*
X146163512Y-70111073D01*
X146138742Y-70116000D01*
X145961258Y-70116000D01*
X145936488Y-70111073D01*
X145787188Y-70081376D01*
X145623216Y-70013456D01*
X145475646Y-69914853D01*
X145350147Y-69789354D01*
X145251544Y-69641784D01*
X145183624Y-69477812D01*
X145149000Y-69303741D01*
X145149000Y-69126259D01*
X145183624Y-68952188D01*
X145251544Y-68788216D01*
X145350147Y-68640646D01*
X145475646Y-68515147D01*
X145623216Y-68416544D01*
X145787188Y-68348624D01*
X145936488Y-68318927D01*
X145961258Y-68314000D01*
X146138742Y-68314000D01*
X146163512Y-68318927D01*
G37*
G36*
X135368512Y-68318927D02*
G01*
X135517812Y-68348624D01*
X135681784Y-68416544D01*
X135829354Y-68515147D01*
X135954853Y-68640646D01*
X136053456Y-68788216D01*
X136121376Y-68952188D01*
X136156000Y-69126259D01*
X136156000Y-69303741D01*
X136121376Y-69477812D01*
X136053456Y-69641784D01*
X135954853Y-69789354D01*
X135829354Y-69914853D01*
X135681784Y-70013456D01*
X135517812Y-70081376D01*
X135368512Y-70111073D01*
X135343742Y-70116000D01*
X135166258Y-70116000D01*
X135141488Y-70111073D01*
X134992188Y-70081376D01*
X134828216Y-70013456D01*
X134680646Y-69914853D01*
X134555147Y-69789354D01*
X134456544Y-69641784D01*
X134388624Y-69477812D01*
X134354000Y-69303741D01*
X134354000Y-69126259D01*
X134388624Y-68952188D01*
X134456544Y-68788216D01*
X134555147Y-68640646D01*
X134680646Y-68515147D01*
X134828216Y-68416544D01*
X134992188Y-68348624D01*
X135141488Y-68318927D01*
X135166258Y-68314000D01*
X135343742Y-68314000D01*
X135368512Y-68318927D01*
G37*
G36*
X161556000Y-67576000D02*
G01*
X159754000Y-67576000D01*
X159754000Y-65774000D01*
X161556000Y-65774000D01*
X161556000Y-67576000D01*
G37*
G36*
X150761000Y-67576000D02*
G01*
X148959000Y-67576000D01*
X148959000Y-65774000D01*
X150761000Y-65774000D01*
X150761000Y-67576000D01*
G37*
G36*
X146951000Y-67576000D02*
G01*
X145149000Y-67576000D01*
X145149000Y-65774000D01*
X146951000Y-65774000D01*
X146951000Y-67576000D01*
G37*
G36*
X136156000Y-67576000D02*
G01*
X134354000Y-67576000D01*
X134354000Y-65774000D01*
X136156000Y-65774000D01*
X136156000Y-67576000D01*
G37*
G36*
X147799999Y-63334737D02*
G01*
X147809608Y-63337652D01*
X147818472Y-63342390D01*
X147826237Y-63348763D01*
X147836448Y-63361206D01*
X147843378Y-63371575D01*
X147860705Y-63388902D01*
X147881080Y-63402515D01*
X147903720Y-63411891D01*
X147927753Y-63416671D01*
X147952257Y-63416670D01*
X147976290Y-63411888D01*
X147998929Y-63402510D01*
X148019302Y-63388895D01*
X148036629Y-63371568D01*
X148043558Y-63361198D01*
X148053763Y-63348763D01*
X148061528Y-63342390D01*
X148070392Y-63337652D01*
X148080001Y-63334737D01*
X148096140Y-63333148D01*
X148583861Y-63333148D01*
X148602199Y-63334954D01*
X148614450Y-63335556D01*
X148632869Y-63335556D01*
X148655149Y-63337750D01*
X148739233Y-63354476D01*
X148760660Y-63360976D01*
X148839858Y-63393780D01*
X148845303Y-63396691D01*
X148845309Y-63396693D01*
X148854169Y-63401429D01*
X148854173Y-63401432D01*
X148859614Y-63404340D01*
X148930899Y-63451971D01*
X148948204Y-63466172D01*
X149008828Y-63526796D01*
X149023029Y-63544101D01*
X149070660Y-63615386D01*
X149073568Y-63620827D01*
X149073571Y-63620831D01*
X149078307Y-63629691D01*
X149078309Y-63629697D01*
X149081220Y-63635142D01*
X149114024Y-63714340D01*
X149120524Y-63735767D01*
X149137250Y-63819851D01*
X149139444Y-63842131D01*
X149139444Y-63860550D01*
X149140046Y-63872801D01*
X149141852Y-63891139D01*
X149141852Y-64378862D01*
X149140046Y-64397199D01*
X149139444Y-64409450D01*
X149139444Y-64427869D01*
X149137250Y-64450149D01*
X149120524Y-64534233D01*
X149114024Y-64555660D01*
X149081220Y-64634858D01*
X149078309Y-64640303D01*
X149078307Y-64640309D01*
X149073571Y-64649169D01*
X149073568Y-64649173D01*
X149070660Y-64654614D01*
X149023029Y-64725899D01*
X149008828Y-64743204D01*
X148948204Y-64803828D01*
X148930899Y-64818029D01*
X148859614Y-64865660D01*
X148854173Y-64868568D01*
X148854169Y-64868571D01*
X148845309Y-64873307D01*
X148845303Y-64873309D01*
X148839858Y-64876220D01*
X148760660Y-64909024D01*
X148739233Y-64915524D01*
X148655149Y-64932250D01*
X148632869Y-64934444D01*
X148614450Y-64934444D01*
X148602199Y-64935046D01*
X148583862Y-64936852D01*
X148096140Y-64936852D01*
X148080001Y-64935263D01*
X148070392Y-64932348D01*
X148061528Y-64927610D01*
X148053763Y-64921237D01*
X148043552Y-64908794D01*
X148036622Y-64898425D01*
X148019295Y-64881098D01*
X147998920Y-64867485D01*
X147976280Y-64858109D01*
X147952247Y-64853329D01*
X147927743Y-64853330D01*
X147903710Y-64858112D01*
X147881071Y-64867490D01*
X147860698Y-64881105D01*
X147843371Y-64898432D01*
X147836442Y-64908802D01*
X147826237Y-64921237D01*
X147818472Y-64927610D01*
X147809608Y-64932348D01*
X147799999Y-64935263D01*
X147783860Y-64936852D01*
X147296138Y-64936852D01*
X147277801Y-64935046D01*
X147265550Y-64934444D01*
X147247131Y-64934444D01*
X147224851Y-64932250D01*
X147140767Y-64915524D01*
X147119340Y-64909024D01*
X147040142Y-64876220D01*
X147034697Y-64873309D01*
X147034691Y-64873307D01*
X147025831Y-64868571D01*
X147025827Y-64868568D01*
X147020386Y-64865660D01*
X146949101Y-64818029D01*
X146931796Y-64803828D01*
X146871172Y-64743204D01*
X146856971Y-64725899D01*
X146809340Y-64654614D01*
X146806432Y-64649173D01*
X146806429Y-64649169D01*
X146801693Y-64640309D01*
X146801691Y-64640303D01*
X146798780Y-64634858D01*
X146765976Y-64555660D01*
X146759476Y-64534233D01*
X146742750Y-64450149D01*
X146740556Y-64427869D01*
X146740556Y-64409450D01*
X146739954Y-64397199D01*
X146738148Y-64378862D01*
X146738148Y-63891139D01*
X146739954Y-63872801D01*
X146740556Y-63860550D01*
X146740556Y-63842131D01*
X146742750Y-63819851D01*
X146759476Y-63735767D01*
X146765976Y-63714340D01*
X146798780Y-63635142D01*
X146801691Y-63629697D01*
X146801693Y-63629691D01*
X146806429Y-63620831D01*
X146806432Y-63620827D01*
X146809340Y-63615386D01*
X146856971Y-63544101D01*
X146871172Y-63526796D01*
X146931796Y-63466172D01*
X146949101Y-63451971D01*
X147020386Y-63404340D01*
X147025827Y-63401432D01*
X147025831Y-63401429D01*
X147034691Y-63396693D01*
X147034697Y-63396691D01*
X147040142Y-63393780D01*
X147119340Y-63360976D01*
X147140767Y-63354476D01*
X147224851Y-63337750D01*
X147247131Y-63335556D01*
X147265550Y-63335556D01*
X147277801Y-63334954D01*
X147296139Y-63333148D01*
X147783860Y-63333148D01*
X147799999Y-63334737D01*
G37*
M02*
