%TF.GenerationSoftware,KiCad,Pcbnew,(5.1.6)-1*%
%TF.CreationDate,2020-08-25T07:27:34+03:00*%
%TF.ProjectId,15pinproto,31357069-6e70-4726-9f74-6f2e6b696361,rev?*%
%TF.SameCoordinates,Original*%
%TF.FileFunction,Soldermask,Bot*%
%TF.FilePolarity,Negative*%
%FSLAX46Y46*%
G04 Gerber Fmt 4.6, Leading zero omitted, Abs format (unit mm)*
G04 Created by KiCad (PCBNEW (5.1.6)-1) date 2020-08-25 07:27:34*
%MOMM*%
%LPD*%
G01*
G04 APERTURE LIST*
%ADD10C,0.010000*%
%ADD11R,1.100000X1.100000*%
%ADD12O,1.100000X1.100000*%
%ADD13O,1.800000X1.800000*%
%ADD14R,1.800000X1.800000*%
%ADD15C,5.100000*%
G04 APERTURE END LIST*
D10*
%TO.C,G\u002A\u002A\u002A*%
G36*
X125208973Y-141952198D02*
G01*
X125121215Y-141975716D01*
X125041988Y-142016733D01*
X124973237Y-142073671D01*
X124916910Y-142144947D01*
X124874952Y-142228981D01*
X124850915Y-142315126D01*
X124846012Y-142396625D01*
X124859432Y-142480184D01*
X124889239Y-142561708D01*
X124933495Y-142637102D01*
X124990263Y-142702269D01*
X125057606Y-142753116D01*
X125058273Y-142753506D01*
X125140101Y-142789698D01*
X125229904Y-142808973D01*
X125322175Y-142810740D01*
X125411404Y-142794409D01*
X125418751Y-142792142D01*
X125503279Y-142754710D01*
X125576531Y-142701419D01*
X125636658Y-142634972D01*
X125681810Y-142558071D01*
X125710136Y-142473420D01*
X125719787Y-142383721D01*
X125719490Y-142376269D01*
X125583889Y-142376269D01*
X125579201Y-142444600D01*
X125563601Y-142500978D01*
X125534783Y-142552800D01*
X125524472Y-142566924D01*
X125472623Y-142618247D01*
X125408883Y-142654991D01*
X125337612Y-142676157D01*
X125263167Y-142680744D01*
X125189909Y-142667751D01*
X125151292Y-142652553D01*
X125086199Y-142610662D01*
X125036703Y-142557430D01*
X125002797Y-142495830D01*
X124984473Y-142428835D01*
X124981723Y-142359419D01*
X124994539Y-142290553D01*
X125022914Y-142225212D01*
X125066840Y-142166368D01*
X125126309Y-142116993D01*
X125152720Y-142101471D01*
X125202162Y-142084288D01*
X125262354Y-142076580D01*
X125325110Y-142078346D01*
X125382246Y-142089586D01*
X125411544Y-142101464D01*
X125482435Y-142148426D01*
X125534287Y-142204371D01*
X125567572Y-142270051D01*
X125582760Y-142346218D01*
X125583889Y-142376269D01*
X125719490Y-142376269D01*
X125718600Y-142354012D01*
X125707176Y-142272939D01*
X125684691Y-142204650D01*
X125648209Y-142142797D01*
X125594795Y-142081032D01*
X125590188Y-142076389D01*
X125529419Y-142022269D01*
X125469866Y-141985011D01*
X125405139Y-141961752D01*
X125328849Y-141949625D01*
X125303314Y-141947762D01*
X125208973Y-141952198D01*
G37*
X125208973Y-141952198D02*
X125121215Y-141975716D01*
X125041988Y-142016733D01*
X124973237Y-142073671D01*
X124916910Y-142144947D01*
X124874952Y-142228981D01*
X124850915Y-142315126D01*
X124846012Y-142396625D01*
X124859432Y-142480184D01*
X124889239Y-142561708D01*
X124933495Y-142637102D01*
X124990263Y-142702269D01*
X125057606Y-142753116D01*
X125058273Y-142753506D01*
X125140101Y-142789698D01*
X125229904Y-142808973D01*
X125322175Y-142810740D01*
X125411404Y-142794409D01*
X125418751Y-142792142D01*
X125503279Y-142754710D01*
X125576531Y-142701419D01*
X125636658Y-142634972D01*
X125681810Y-142558071D01*
X125710136Y-142473420D01*
X125719787Y-142383721D01*
X125719490Y-142376269D01*
X125583889Y-142376269D01*
X125579201Y-142444600D01*
X125563601Y-142500978D01*
X125534783Y-142552800D01*
X125524472Y-142566924D01*
X125472623Y-142618247D01*
X125408883Y-142654991D01*
X125337612Y-142676157D01*
X125263167Y-142680744D01*
X125189909Y-142667751D01*
X125151292Y-142652553D01*
X125086199Y-142610662D01*
X125036703Y-142557430D01*
X125002797Y-142495830D01*
X124984473Y-142428835D01*
X124981723Y-142359419D01*
X124994539Y-142290553D01*
X125022914Y-142225212D01*
X125066840Y-142166368D01*
X125126309Y-142116993D01*
X125152720Y-142101471D01*
X125202162Y-142084288D01*
X125262354Y-142076580D01*
X125325110Y-142078346D01*
X125382246Y-142089586D01*
X125411544Y-142101464D01*
X125482435Y-142148426D01*
X125534287Y-142204371D01*
X125567572Y-142270051D01*
X125582760Y-142346218D01*
X125583889Y-142376269D01*
X125719490Y-142376269D01*
X125718600Y-142354012D01*
X125707176Y-142272939D01*
X125684691Y-142204650D01*
X125648209Y-142142797D01*
X125594795Y-142081032D01*
X125590188Y-142076389D01*
X125529419Y-142022269D01*
X125469866Y-141985011D01*
X125405139Y-141961752D01*
X125328849Y-141949625D01*
X125303314Y-141947762D01*
X125208973Y-141952198D01*
G36*
X116126395Y-142522777D02*
G01*
X116099563Y-142527460D01*
X115952256Y-142558609D01*
X115809887Y-142597822D01*
X115674897Y-142644021D01*
X115549727Y-142696123D01*
X115436816Y-142753050D01*
X115338605Y-142813721D01*
X115257535Y-142877055D01*
X115215434Y-142918863D01*
X115168521Y-142977514D01*
X115138244Y-143032605D01*
X115122189Y-143089822D01*
X115117903Y-143148550D01*
X115118855Y-143190353D01*
X115122835Y-143217681D01*
X115131526Y-143237193D01*
X115144373Y-143253145D01*
X115176813Y-143280038D01*
X115215459Y-143300564D01*
X115251406Y-143310225D01*
X115257851Y-143310451D01*
X115280751Y-143306014D01*
X115308483Y-143296161D01*
X115348401Y-143273306D01*
X115390117Y-143237947D01*
X115436283Y-143187598D01*
X115472283Y-143142604D01*
X115580078Y-143018248D01*
X115705268Y-142902155D01*
X115844948Y-142796559D01*
X115996213Y-142703693D01*
X116129033Y-142637635D01*
X116174257Y-142617001D01*
X116203340Y-142602042D01*
X116219669Y-142590241D01*
X116226629Y-142579079D01*
X116227607Y-142566039D01*
X116227496Y-142564404D01*
X116224027Y-142539596D01*
X116215723Y-142524051D01*
X116199043Y-142516748D01*
X116170447Y-142516664D01*
X116126395Y-142522777D01*
G37*
X116126395Y-142522777D02*
X116099563Y-142527460D01*
X115952256Y-142558609D01*
X115809887Y-142597822D01*
X115674897Y-142644021D01*
X115549727Y-142696123D01*
X115436816Y-142753050D01*
X115338605Y-142813721D01*
X115257535Y-142877055D01*
X115215434Y-142918863D01*
X115168521Y-142977514D01*
X115138244Y-143032605D01*
X115122189Y-143089822D01*
X115117903Y-143148550D01*
X115118855Y-143190353D01*
X115122835Y-143217681D01*
X115131526Y-143237193D01*
X115144373Y-143253145D01*
X115176813Y-143280038D01*
X115215459Y-143300564D01*
X115251406Y-143310225D01*
X115257851Y-143310451D01*
X115280751Y-143306014D01*
X115308483Y-143296161D01*
X115348401Y-143273306D01*
X115390117Y-143237947D01*
X115436283Y-143187598D01*
X115472283Y-143142604D01*
X115580078Y-143018248D01*
X115705268Y-142902155D01*
X115844948Y-142796559D01*
X115996213Y-142703693D01*
X116129033Y-142637635D01*
X116174257Y-142617001D01*
X116203340Y-142602042D01*
X116219669Y-142590241D01*
X116226629Y-142579079D01*
X116227607Y-142566039D01*
X116227496Y-142564404D01*
X116224027Y-142539596D01*
X116215723Y-142524051D01*
X116199043Y-142516748D01*
X116170447Y-142516664D01*
X116126395Y-142522777D01*
G36*
X125715827Y-143788450D02*
G01*
X125564021Y-143879250D01*
X125427426Y-143975354D01*
X125300091Y-144081320D01*
X125176065Y-144201707D01*
X125175484Y-144202311D01*
X125082916Y-144307040D01*
X125010924Y-144407585D01*
X124959378Y-144504190D01*
X124928150Y-144597102D01*
X124917107Y-144686565D01*
X124917085Y-144689705D01*
X124922232Y-144757089D01*
X124937574Y-144810747D01*
X124962273Y-144848419D01*
X124981174Y-144862377D01*
X125024713Y-144875183D01*
X125073856Y-144875291D01*
X125117662Y-144862781D01*
X125120317Y-144861396D01*
X125145296Y-144841140D01*
X125170803Y-144806341D01*
X125197934Y-144755121D01*
X125227787Y-144685599D01*
X125237749Y-144660081D01*
X125305773Y-144505520D01*
X125389819Y-144356356D01*
X125491999Y-144208976D01*
X125530659Y-144159366D01*
X125581750Y-144098874D01*
X125640124Y-144035247D01*
X125701543Y-143972700D01*
X125761765Y-143915444D01*
X125816550Y-143867692D01*
X125851230Y-143840858D01*
X125878239Y-143820489D01*
X125896494Y-143804697D01*
X125901522Y-143798184D01*
X125894573Y-143787436D01*
X125877002Y-143768004D01*
X125866702Y-143757720D01*
X125831883Y-143723972D01*
X125715827Y-143788450D01*
G37*
X125715827Y-143788450D02*
X125564021Y-143879250D01*
X125427426Y-143975354D01*
X125300091Y-144081320D01*
X125176065Y-144201707D01*
X125175484Y-144202311D01*
X125082916Y-144307040D01*
X125010924Y-144407585D01*
X124959378Y-144504190D01*
X124928150Y-144597102D01*
X124917107Y-144686565D01*
X124917085Y-144689705D01*
X124922232Y-144757089D01*
X124937574Y-144810747D01*
X124962273Y-144848419D01*
X124981174Y-144862377D01*
X125024713Y-144875183D01*
X125073856Y-144875291D01*
X125117662Y-144862781D01*
X125120317Y-144861396D01*
X125145296Y-144841140D01*
X125170803Y-144806341D01*
X125197934Y-144755121D01*
X125227787Y-144685599D01*
X125237749Y-144660081D01*
X125305773Y-144505520D01*
X125389819Y-144356356D01*
X125491999Y-144208976D01*
X125530659Y-144159366D01*
X125581750Y-144098874D01*
X125640124Y-144035247D01*
X125701543Y-143972700D01*
X125761765Y-143915444D01*
X125816550Y-143867692D01*
X125851230Y-143840858D01*
X125878239Y-143820489D01*
X125896494Y-143804697D01*
X125901522Y-143798184D01*
X125894573Y-143787436D01*
X125877002Y-143768004D01*
X125866702Y-143757720D01*
X125831883Y-143723972D01*
X125715827Y-143788450D01*
G36*
X127256753Y-143917292D02*
G01*
X127264190Y-144083048D01*
X127286652Y-144234168D01*
X127324369Y-144371163D01*
X127377569Y-144494546D01*
X127446481Y-144604828D01*
X127531335Y-144702520D01*
X127632357Y-144788135D01*
X127652583Y-144802514D01*
X127725197Y-144844812D01*
X127801655Y-144875222D01*
X127877368Y-144892617D01*
X127947749Y-144895871D01*
X127997895Y-144887307D01*
X128031557Y-144871928D01*
X128063151Y-144849628D01*
X128065032Y-144847902D01*
X128083193Y-144828188D01*
X128091015Y-144808680D01*
X128091312Y-144780370D01*
X128090214Y-144767310D01*
X128078650Y-144721347D01*
X128052106Y-144684950D01*
X128008331Y-144655725D01*
X127970199Y-144639667D01*
X127840421Y-144584535D01*
X127728270Y-144518745D01*
X127632394Y-144441036D01*
X127551445Y-144350148D01*
X127484073Y-144244822D01*
X127435416Y-144140368D01*
X127417860Y-144090895D01*
X127400540Y-144032383D01*
X127384925Y-143970957D01*
X127372484Y-143912740D01*
X127364686Y-143863854D01*
X127362769Y-143837606D01*
X127361280Y-143820355D01*
X127353387Y-143811751D01*
X127333626Y-143808799D01*
X127309692Y-143808490D01*
X127256753Y-143808490D01*
X127256753Y-143917292D01*
G37*
X127256753Y-143917292D02*
X127264190Y-144083048D01*
X127286652Y-144234168D01*
X127324369Y-144371163D01*
X127377569Y-144494546D01*
X127446481Y-144604828D01*
X127531335Y-144702520D01*
X127632357Y-144788135D01*
X127652583Y-144802514D01*
X127725197Y-144844812D01*
X127801655Y-144875222D01*
X127877368Y-144892617D01*
X127947749Y-144895871D01*
X127997895Y-144887307D01*
X128031557Y-144871928D01*
X128063151Y-144849628D01*
X128065032Y-144847902D01*
X128083193Y-144828188D01*
X128091015Y-144808680D01*
X128091312Y-144780370D01*
X128090214Y-144767310D01*
X128078650Y-144721347D01*
X128052106Y-144684950D01*
X128008331Y-144655725D01*
X127970199Y-144639667D01*
X127840421Y-144584535D01*
X127728270Y-144518745D01*
X127632394Y-144441036D01*
X127551445Y-144350148D01*
X127484073Y-144244822D01*
X127435416Y-144140368D01*
X127417860Y-144090895D01*
X127400540Y-144032383D01*
X127384925Y-143970957D01*
X127372484Y-143912740D01*
X127364686Y-143863854D01*
X127362769Y-143837606D01*
X127361280Y-143820355D01*
X127353387Y-143811751D01*
X127333626Y-143808799D01*
X127309692Y-143808490D01*
X127256753Y-143808490D01*
X127256753Y-143917292D01*
G36*
X119996461Y-142652640D02*
G01*
X119983667Y-142673949D01*
X119983139Y-142675197D01*
X119964319Y-142705135D01*
X119932629Y-142740522D01*
X119893541Y-142776223D01*
X119852525Y-142807101D01*
X119825645Y-142823070D01*
X119794011Y-142838328D01*
X119763417Y-142850563D01*
X119731184Y-142860043D01*
X119694634Y-142867034D01*
X119651090Y-142871804D01*
X119597873Y-142874621D01*
X119532305Y-142875752D01*
X119451709Y-142875463D01*
X119353407Y-142874024D01*
X119321238Y-142873429D01*
X119097407Y-142867541D01*
X118859172Y-142858257D01*
X118612975Y-142845899D01*
X118365259Y-142830789D01*
X118129264Y-142813782D01*
X118042485Y-142806734D01*
X117973769Y-142800181D01*
X117920038Y-142793371D01*
X117878216Y-142785549D01*
X117845227Y-142775965D01*
X117817995Y-142763865D01*
X117793441Y-142748496D01*
X117768491Y-142729107D01*
X117762432Y-142724050D01*
X117723817Y-142695714D01*
X117690517Y-142683472D01*
X117655401Y-142686288D01*
X117613063Y-142702333D01*
X117560534Y-142730246D01*
X117507447Y-142765194D01*
X117457032Y-142804269D01*
X117412519Y-142844568D01*
X117377136Y-142883184D01*
X117354112Y-142917213D01*
X117346624Y-142942039D01*
X117356761Y-142977006D01*
X117385401Y-143008164D01*
X117424528Y-143030345D01*
X117463389Y-143052978D01*
X117488766Y-143085256D01*
X117504670Y-143130874D01*
X117508049Y-143151371D01*
X117513053Y-143190518D01*
X117519422Y-143245875D01*
X117526894Y-143314999D01*
X117535211Y-143395450D01*
X117544113Y-143484788D01*
X117553338Y-143580570D01*
X117558825Y-143639086D01*
X117572416Y-143784653D01*
X117584436Y-143911334D01*
X117595119Y-144021342D01*
X117604702Y-144116887D01*
X117613418Y-144200184D01*
X117621504Y-144273443D01*
X117629194Y-144338877D01*
X117636723Y-144398699D01*
X117644327Y-144455120D01*
X117649236Y-144489742D01*
X117655630Y-144536324D01*
X117660231Y-144574401D01*
X117662551Y-144599591D01*
X117662385Y-144607580D01*
X117651838Y-144613577D01*
X117627955Y-144626051D01*
X117602421Y-144639016D01*
X117546585Y-144672597D01*
X117498173Y-144712218D01*
X117461432Y-144753819D01*
X117440610Y-144793335D01*
X117440410Y-144793992D01*
X117434826Y-144833940D01*
X117446158Y-144863805D01*
X117475618Y-144885177D01*
X117520349Y-144898826D01*
X117545347Y-144903509D01*
X117568104Y-144905893D01*
X117592723Y-144905595D01*
X117623310Y-144902232D01*
X117663967Y-144895422D01*
X117718800Y-144884783D01*
X117759546Y-144876537D01*
X117842214Y-144863729D01*
X117943984Y-144854851D01*
X118063154Y-144849893D01*
X118198020Y-144848844D01*
X118346880Y-144851691D01*
X118508030Y-144858423D01*
X118679768Y-144869029D01*
X118860390Y-144883497D01*
X118865965Y-144883994D01*
X119043762Y-144901301D01*
X119200601Y-144919560D01*
X119336449Y-144938766D01*
X119451270Y-144958912D01*
X119545028Y-144979993D01*
X119617687Y-145002002D01*
X119652133Y-145016115D01*
X119724210Y-145041414D01*
X119792136Y-145046750D01*
X119858613Y-145032195D01*
X119882389Y-145022251D01*
X119943233Y-144985573D01*
X120002820Y-144935052D01*
X120057021Y-144875499D01*
X120101707Y-144811729D01*
X120132750Y-144748553D01*
X120141510Y-144720195D01*
X120148216Y-144683185D01*
X120147238Y-144651021D01*
X120138134Y-144611956D01*
X120137322Y-144609143D01*
X120123393Y-144572404D01*
X120104515Y-144536624D01*
X120084130Y-144507102D01*
X120065682Y-144489140D01*
X120057388Y-144486106D01*
X120048711Y-144494866D01*
X120034509Y-144517677D01*
X120020085Y-144545172D01*
X119977752Y-144614242D01*
X119925455Y-144666517D01*
X119860648Y-144703831D01*
X119780786Y-144728017D01*
X119761025Y-144731745D01*
X119745047Y-144733997D01*
X119725732Y-144735639D01*
X119701620Y-144736614D01*
X119671250Y-144736861D01*
X119633163Y-144736322D01*
X119585897Y-144734939D01*
X119527994Y-144732652D01*
X119457992Y-144729402D01*
X119374431Y-144725132D01*
X119275851Y-144719781D01*
X119160792Y-144713292D01*
X119027794Y-144705606D01*
X118875396Y-144696662D01*
X118844537Y-144694841D01*
X118675066Y-144684720D01*
X118525934Y-144675576D01*
X118396330Y-144667350D01*
X118285444Y-144659982D01*
X118192464Y-144653412D01*
X118116579Y-144647580D01*
X118056979Y-144642426D01*
X118012852Y-144637891D01*
X117983387Y-144633914D01*
X117967774Y-144630436D01*
X117966951Y-144630117D01*
X117937708Y-144611277D01*
X117925014Y-144585024D01*
X117919801Y-144551856D01*
X117913521Y-144499851D01*
X117906356Y-144431308D01*
X117898485Y-144348528D01*
X117890088Y-144253811D01*
X117881347Y-144149460D01*
X117872440Y-144037773D01*
X117863550Y-143921052D01*
X117854856Y-143801597D01*
X117846538Y-143681709D01*
X117838777Y-143563689D01*
X117831753Y-143449837D01*
X117825647Y-143342454D01*
X117821870Y-143269428D01*
X117809163Y-143010941D01*
X117834190Y-142990675D01*
X117848740Y-142981014D01*
X117866244Y-142975626D01*
X117891935Y-142973907D01*
X117931048Y-142975254D01*
X117954962Y-142976734D01*
X118177318Y-142991709D01*
X118379515Y-143005955D01*
X118562556Y-143019579D01*
X118727440Y-143032688D01*
X118875170Y-143045386D01*
X119006746Y-143057780D01*
X119123169Y-143069976D01*
X119225441Y-143082080D01*
X119314563Y-143094198D01*
X119391534Y-143106437D01*
X119457358Y-143118901D01*
X119513034Y-143131698D01*
X119559564Y-143144933D01*
X119567561Y-143147542D01*
X119615386Y-143162607D01*
X119658611Y-143174614D01*
X119691585Y-143182081D01*
X119705770Y-143183813D01*
X119750530Y-143174848D01*
X119801597Y-143150067D01*
X119855907Y-143112645D01*
X119910393Y-143065754D01*
X119961991Y-143012566D01*
X120007635Y-142956256D01*
X120044259Y-142899995D01*
X120068797Y-142846957D01*
X120078186Y-142800315D01*
X120078203Y-142798316D01*
X120073772Y-142752793D01*
X120062102Y-142709728D01*
X120045379Y-142674011D01*
X120025792Y-142650531D01*
X120009085Y-142643838D01*
X119996461Y-142652640D01*
G37*
X119996461Y-142652640D02*
X119983667Y-142673949D01*
X119983139Y-142675197D01*
X119964319Y-142705135D01*
X119932629Y-142740522D01*
X119893541Y-142776223D01*
X119852525Y-142807101D01*
X119825645Y-142823070D01*
X119794011Y-142838328D01*
X119763417Y-142850563D01*
X119731184Y-142860043D01*
X119694634Y-142867034D01*
X119651090Y-142871804D01*
X119597873Y-142874621D01*
X119532305Y-142875752D01*
X119451709Y-142875463D01*
X119353407Y-142874024D01*
X119321238Y-142873429D01*
X119097407Y-142867541D01*
X118859172Y-142858257D01*
X118612975Y-142845899D01*
X118365259Y-142830789D01*
X118129264Y-142813782D01*
X118042485Y-142806734D01*
X117973769Y-142800181D01*
X117920038Y-142793371D01*
X117878216Y-142785549D01*
X117845227Y-142775965D01*
X117817995Y-142763865D01*
X117793441Y-142748496D01*
X117768491Y-142729107D01*
X117762432Y-142724050D01*
X117723817Y-142695714D01*
X117690517Y-142683472D01*
X117655401Y-142686288D01*
X117613063Y-142702333D01*
X117560534Y-142730246D01*
X117507447Y-142765194D01*
X117457032Y-142804269D01*
X117412519Y-142844568D01*
X117377136Y-142883184D01*
X117354112Y-142917213D01*
X117346624Y-142942039D01*
X117356761Y-142977006D01*
X117385401Y-143008164D01*
X117424528Y-143030345D01*
X117463389Y-143052978D01*
X117488766Y-143085256D01*
X117504670Y-143130874D01*
X117508049Y-143151371D01*
X117513053Y-143190518D01*
X117519422Y-143245875D01*
X117526894Y-143314999D01*
X117535211Y-143395450D01*
X117544113Y-143484788D01*
X117553338Y-143580570D01*
X117558825Y-143639086D01*
X117572416Y-143784653D01*
X117584436Y-143911334D01*
X117595119Y-144021342D01*
X117604702Y-144116887D01*
X117613418Y-144200184D01*
X117621504Y-144273443D01*
X117629194Y-144338877D01*
X117636723Y-144398699D01*
X117644327Y-144455120D01*
X117649236Y-144489742D01*
X117655630Y-144536324D01*
X117660231Y-144574401D01*
X117662551Y-144599591D01*
X117662385Y-144607580D01*
X117651838Y-144613577D01*
X117627955Y-144626051D01*
X117602421Y-144639016D01*
X117546585Y-144672597D01*
X117498173Y-144712218D01*
X117461432Y-144753819D01*
X117440610Y-144793335D01*
X117440410Y-144793992D01*
X117434826Y-144833940D01*
X117446158Y-144863805D01*
X117475618Y-144885177D01*
X117520349Y-144898826D01*
X117545347Y-144903509D01*
X117568104Y-144905893D01*
X117592723Y-144905595D01*
X117623310Y-144902232D01*
X117663967Y-144895422D01*
X117718800Y-144884783D01*
X117759546Y-144876537D01*
X117842214Y-144863729D01*
X117943984Y-144854851D01*
X118063154Y-144849893D01*
X118198020Y-144848844D01*
X118346880Y-144851691D01*
X118508030Y-144858423D01*
X118679768Y-144869029D01*
X118860390Y-144883497D01*
X118865965Y-144883994D01*
X119043762Y-144901301D01*
X119200601Y-144919560D01*
X119336449Y-144938766D01*
X119451270Y-144958912D01*
X119545028Y-144979993D01*
X119617687Y-145002002D01*
X119652133Y-145016115D01*
X119724210Y-145041414D01*
X119792136Y-145046750D01*
X119858613Y-145032195D01*
X119882389Y-145022251D01*
X119943233Y-144985573D01*
X120002820Y-144935052D01*
X120057021Y-144875499D01*
X120101707Y-144811729D01*
X120132750Y-144748553D01*
X120141510Y-144720195D01*
X120148216Y-144683185D01*
X120147238Y-144651021D01*
X120138134Y-144611956D01*
X120137322Y-144609143D01*
X120123393Y-144572404D01*
X120104515Y-144536624D01*
X120084130Y-144507102D01*
X120065682Y-144489140D01*
X120057388Y-144486106D01*
X120048711Y-144494866D01*
X120034509Y-144517677D01*
X120020085Y-144545172D01*
X119977752Y-144614242D01*
X119925455Y-144666517D01*
X119860648Y-144703831D01*
X119780786Y-144728017D01*
X119761025Y-144731745D01*
X119745047Y-144733997D01*
X119725732Y-144735639D01*
X119701620Y-144736614D01*
X119671250Y-144736861D01*
X119633163Y-144736322D01*
X119585897Y-144734939D01*
X119527994Y-144732652D01*
X119457992Y-144729402D01*
X119374431Y-144725132D01*
X119275851Y-144719781D01*
X119160792Y-144713292D01*
X119027794Y-144705606D01*
X118875396Y-144696662D01*
X118844537Y-144694841D01*
X118675066Y-144684720D01*
X118525934Y-144675576D01*
X118396330Y-144667350D01*
X118285444Y-144659982D01*
X118192464Y-144653412D01*
X118116579Y-144647580D01*
X118056979Y-144642426D01*
X118012852Y-144637891D01*
X117983387Y-144633914D01*
X117967774Y-144630436D01*
X117966951Y-144630117D01*
X117937708Y-144611277D01*
X117925014Y-144585024D01*
X117919801Y-144551856D01*
X117913521Y-144499851D01*
X117906356Y-144431308D01*
X117898485Y-144348528D01*
X117890088Y-144253811D01*
X117881347Y-144149460D01*
X117872440Y-144037773D01*
X117863550Y-143921052D01*
X117854856Y-143801597D01*
X117846538Y-143681709D01*
X117838777Y-143563689D01*
X117831753Y-143449837D01*
X117825647Y-143342454D01*
X117821870Y-143269428D01*
X117809163Y-143010941D01*
X117834190Y-142990675D01*
X117848740Y-142981014D01*
X117866244Y-142975626D01*
X117891935Y-142973907D01*
X117931048Y-142975254D01*
X117954962Y-142976734D01*
X118177318Y-142991709D01*
X118379515Y-143005955D01*
X118562556Y-143019579D01*
X118727440Y-143032688D01*
X118875170Y-143045386D01*
X119006746Y-143057780D01*
X119123169Y-143069976D01*
X119225441Y-143082080D01*
X119314563Y-143094198D01*
X119391534Y-143106437D01*
X119457358Y-143118901D01*
X119513034Y-143131698D01*
X119559564Y-143144933D01*
X119567561Y-143147542D01*
X119615386Y-143162607D01*
X119658611Y-143174614D01*
X119691585Y-143182081D01*
X119705770Y-143183813D01*
X119750530Y-143174848D01*
X119801597Y-143150067D01*
X119855907Y-143112645D01*
X119910393Y-143065754D01*
X119961991Y-143012566D01*
X120007635Y-142956256D01*
X120044259Y-142899995D01*
X120068797Y-142846957D01*
X120078186Y-142800315D01*
X120078203Y-142798316D01*
X120073772Y-142752793D01*
X120062102Y-142709728D01*
X120045379Y-142674011D01*
X120025792Y-142650531D01*
X120009085Y-142643838D01*
X119996461Y-142652640D01*
G36*
X113230005Y-142777398D02*
G01*
X113204290Y-142793759D01*
X113188278Y-142805921D01*
X113185640Y-142809360D01*
X113190140Y-142820227D01*
X113202569Y-142846668D01*
X113221317Y-142885347D01*
X113244775Y-142932931D01*
X113260721Y-142964929D01*
X113406109Y-143231977D01*
X113569321Y-143487814D01*
X113750008Y-143732100D01*
X113947823Y-143964496D01*
X114162419Y-144184664D01*
X114393449Y-144392264D01*
X114640564Y-144586958D01*
X114903417Y-144768406D01*
X115181661Y-144936270D01*
X115403743Y-145054825D01*
X115475303Y-145091729D01*
X115531072Y-145122377D01*
X115574651Y-145149008D01*
X115609646Y-145173865D01*
X115639660Y-145199189D01*
X115647262Y-145206288D01*
X115690824Y-145246188D01*
X115724548Y-145272128D01*
X115752710Y-145285934D01*
X115779586Y-145289431D01*
X115809454Y-145284442D01*
X115821988Y-145280852D01*
X115887963Y-145252830D01*
X115957985Y-145209047D01*
X116026861Y-145152797D01*
X116033012Y-145147060D01*
X116103390Y-145072506D01*
X116154202Y-145000383D01*
X116185293Y-144931290D01*
X116196504Y-144865826D01*
X116187680Y-144804589D01*
X116158662Y-144748179D01*
X116142694Y-144728560D01*
X116104555Y-144686345D01*
X116074315Y-144749351D01*
X116032302Y-144817162D01*
X115980410Y-144866813D01*
X115919402Y-144897774D01*
X115850042Y-144909518D01*
X115842742Y-144909615D01*
X115789418Y-144903514D01*
X115721000Y-144885846D01*
X115639476Y-144857560D01*
X115546831Y-144819608D01*
X115445051Y-144772941D01*
X115336121Y-144718509D01*
X115222029Y-144657264D01*
X115104760Y-144590156D01*
X114986299Y-144518136D01*
X114874385Y-144445979D01*
X114706660Y-144329995D01*
X114546751Y-144209452D01*
X114390513Y-144080914D01*
X114233802Y-143940947D01*
X114072475Y-143786113D01*
X114042583Y-143756356D01*
X113897093Y-143606222D01*
X113767261Y-143462099D01*
X113650027Y-143320100D01*
X113542330Y-143176338D01*
X113441109Y-143026926D01*
X113344165Y-142869441D01*
X113274370Y-142750942D01*
X113230005Y-142777398D01*
G37*
X113230005Y-142777398D02*
X113204290Y-142793759D01*
X113188278Y-142805921D01*
X113185640Y-142809360D01*
X113190140Y-142820227D01*
X113202569Y-142846668D01*
X113221317Y-142885347D01*
X113244775Y-142932931D01*
X113260721Y-142964929D01*
X113406109Y-143231977D01*
X113569321Y-143487814D01*
X113750008Y-143732100D01*
X113947823Y-143964496D01*
X114162419Y-144184664D01*
X114393449Y-144392264D01*
X114640564Y-144586958D01*
X114903417Y-144768406D01*
X115181661Y-144936270D01*
X115403743Y-145054825D01*
X115475303Y-145091729D01*
X115531072Y-145122377D01*
X115574651Y-145149008D01*
X115609646Y-145173865D01*
X115639660Y-145199189D01*
X115647262Y-145206288D01*
X115690824Y-145246188D01*
X115724548Y-145272128D01*
X115752710Y-145285934D01*
X115779586Y-145289431D01*
X115809454Y-145284442D01*
X115821988Y-145280852D01*
X115887963Y-145252830D01*
X115957985Y-145209047D01*
X116026861Y-145152797D01*
X116033012Y-145147060D01*
X116103390Y-145072506D01*
X116154202Y-145000383D01*
X116185293Y-144931290D01*
X116196504Y-144865826D01*
X116187680Y-144804589D01*
X116158662Y-144748179D01*
X116142694Y-144728560D01*
X116104555Y-144686345D01*
X116074315Y-144749351D01*
X116032302Y-144817162D01*
X115980410Y-144866813D01*
X115919402Y-144897774D01*
X115850042Y-144909518D01*
X115842742Y-144909615D01*
X115789418Y-144903514D01*
X115721000Y-144885846D01*
X115639476Y-144857560D01*
X115546831Y-144819608D01*
X115445051Y-144772941D01*
X115336121Y-144718509D01*
X115222029Y-144657264D01*
X115104760Y-144590156D01*
X114986299Y-144518136D01*
X114874385Y-144445979D01*
X114706660Y-144329995D01*
X114546751Y-144209452D01*
X114390513Y-144080914D01*
X114233802Y-143940947D01*
X114072475Y-143786113D01*
X114042583Y-143756356D01*
X113897093Y-143606222D01*
X113767261Y-143462099D01*
X113650027Y-143320100D01*
X113542330Y-143176338D01*
X113441109Y-143026926D01*
X113344165Y-142869441D01*
X113274370Y-142750942D01*
X113230005Y-142777398D01*
G36*
X126665761Y-142224449D02*
G01*
X126587091Y-142240083D01*
X126510103Y-142264083D01*
X126439482Y-142295404D01*
X126379914Y-142333000D01*
X126358538Y-142351142D01*
X126319712Y-142393732D01*
X126299088Y-142433698D01*
X126296098Y-142475438D01*
X126310172Y-142523347D01*
X126330897Y-142564749D01*
X126368526Y-142632036D01*
X126380079Y-142865801D01*
X126383251Y-142933795D01*
X126385716Y-142994310D01*
X126387377Y-143044278D01*
X126388140Y-143080631D01*
X126387908Y-143100302D01*
X126387448Y-143102899D01*
X126375729Y-143103368D01*
X126346236Y-143102196D01*
X126302286Y-143099641D01*
X126247196Y-143095963D01*
X126184282Y-143091419D01*
X126116862Y-143086269D01*
X126048251Y-143080770D01*
X125981767Y-143075183D01*
X125920726Y-143069764D01*
X125868445Y-143064774D01*
X125828239Y-143060470D01*
X125806232Y-143057575D01*
X125723351Y-143041275D01*
X125658576Y-143020959D01*
X125609044Y-142995585D01*
X125584622Y-142976754D01*
X125560849Y-142957471D01*
X125537953Y-142945901D01*
X125511460Y-142941803D01*
X125476896Y-142944934D01*
X125429787Y-142955053D01*
X125387304Y-142966068D01*
X125296230Y-142994179D01*
X125219324Y-143025460D01*
X125157499Y-143058984D01*
X125111666Y-143093824D01*
X125082738Y-143129051D01*
X125071627Y-143163740D01*
X125079245Y-143196962D01*
X125106504Y-143227791D01*
X125120309Y-143237500D01*
X125136508Y-143246687D01*
X125153491Y-143252592D01*
X125175720Y-143255635D01*
X125207658Y-143256241D01*
X125253768Y-143254831D01*
X125287432Y-143253319D01*
X125355392Y-143249736D01*
X125431947Y-143245108D01*
X125505847Y-143240138D01*
X125546832Y-143237081D01*
X125592151Y-143234853D01*
X125654708Y-143233685D01*
X125730596Y-143233493D01*
X125815908Y-143234191D01*
X125906738Y-143235695D01*
X125999179Y-143237922D01*
X126089324Y-143240785D01*
X126173267Y-143244202D01*
X126247101Y-143248087D01*
X126306919Y-143252356D01*
X126323255Y-143253868D01*
X126390299Y-143260580D01*
X126385330Y-144045394D01*
X126384295Y-144198985D01*
X126383240Y-144332927D01*
X126382128Y-144448744D01*
X126380922Y-144547962D01*
X126379584Y-144632106D01*
X126378076Y-144702702D01*
X126376360Y-144761275D01*
X126374400Y-144809351D01*
X126372157Y-144848455D01*
X126369594Y-144880113D01*
X126366674Y-144905850D01*
X126363659Y-144925497D01*
X126352007Y-145003610D01*
X126347635Y-145067583D01*
X126350615Y-145123186D01*
X126361023Y-145176191D01*
X126367129Y-145197465D01*
X126396827Y-145271581D01*
X126435415Y-145333260D01*
X126480468Y-145378939D01*
X126499160Y-145391584D01*
X126545432Y-145412679D01*
X126583736Y-145415742D01*
X126617323Y-145400698D01*
X126631188Y-145388581D01*
X126650883Y-145362464D01*
X126671353Y-145325400D01*
X126684047Y-145295938D01*
X126704627Y-145249371D01*
X126730480Y-145210445D01*
X126766157Y-145173585D01*
X126816208Y-145133218D01*
X126817884Y-145131966D01*
X126862681Y-145101117D01*
X126921731Y-145064206D01*
X126990072Y-145024071D01*
X127062740Y-144983547D01*
X127134775Y-144945471D01*
X127201212Y-144912680D01*
X127202820Y-144911924D01*
X127244799Y-144892101D01*
X127279004Y-144875758D01*
X127301310Y-144864876D01*
X127307779Y-144861471D01*
X127308607Y-144849596D01*
X127302569Y-144827560D01*
X127292714Y-144802941D01*
X127282095Y-144783318D01*
X127273761Y-144776273D01*
X127273517Y-144776360D01*
X127258017Y-144781959D01*
X127225967Y-144792762D01*
X127181014Y-144807596D01*
X127126800Y-144825285D01*
X127066970Y-144844659D01*
X127005168Y-144864543D01*
X126945039Y-144883764D01*
X126890226Y-144901149D01*
X126844373Y-144915525D01*
X126811125Y-144925718D01*
X126796186Y-144930037D01*
X126755920Y-144937611D01*
X126713582Y-144941262D01*
X126709081Y-144941319D01*
X126686465Y-144940450D01*
X126668673Y-144936216D01*
X126654985Y-144926285D01*
X126644681Y-144908321D01*
X126637040Y-144879988D01*
X126631341Y-144838953D01*
X126626864Y-144782879D01*
X126622888Y-144709433D01*
X126620342Y-144653770D01*
X126618473Y-144600618D01*
X126616890Y-144533372D01*
X126615586Y-144454169D01*
X126614554Y-144365148D01*
X126613790Y-144268446D01*
X126613286Y-144166201D01*
X126613037Y-144060550D01*
X126613037Y-143953631D01*
X126613278Y-143847583D01*
X126613757Y-143744542D01*
X126614465Y-143646646D01*
X126615398Y-143556034D01*
X126616548Y-143474842D01*
X126617910Y-143405209D01*
X126619479Y-143349273D01*
X126621247Y-143309170D01*
X126623208Y-143287039D01*
X126624256Y-143283385D01*
X126637588Y-143281353D01*
X126668950Y-143281709D01*
X126715364Y-143284165D01*
X126773855Y-143288432D01*
X126841446Y-143294223D01*
X126915161Y-143301249D01*
X126992023Y-143309222D01*
X127069055Y-143317853D01*
X127143282Y-143326855D01*
X127211727Y-143335938D01*
X127271414Y-143344816D01*
X127289754Y-143347833D01*
X127345904Y-143359889D01*
X127407331Y-143376957D01*
X127461236Y-143395459D01*
X127463805Y-143396479D01*
X127513635Y-143414692D01*
X127551833Y-143423938D01*
X127585193Y-143425685D01*
X127595411Y-143424953D01*
X127659659Y-143410794D01*
X127723424Y-143382473D01*
X127783728Y-143342920D01*
X127837597Y-143295066D01*
X127882055Y-143241841D01*
X127914126Y-143186174D01*
X127930836Y-143130997D01*
X127931744Y-143093746D01*
X127924414Y-143057801D01*
X127912709Y-143026411D01*
X127908973Y-143019856D01*
X127891382Y-143002365D01*
X127871194Y-142993795D01*
X127855109Y-142995632D01*
X127849667Y-143006703D01*
X127841723Y-143027284D01*
X127821144Y-143054621D01*
X127792805Y-143083568D01*
X127761586Y-143108975D01*
X127740420Y-143122005D01*
X127707034Y-143137645D01*
X127672375Y-143150549D01*
X127634568Y-143160774D01*
X127591739Y-143168374D01*
X127542011Y-143173408D01*
X127483511Y-143175930D01*
X127414362Y-143175996D01*
X127332690Y-143173664D01*
X127236619Y-143168988D01*
X127124275Y-143162026D01*
X126993782Y-143152832D01*
X126912651Y-143146774D01*
X126845102Y-143141499D01*
X126782315Y-143136308D01*
X126728285Y-143131554D01*
X126687010Y-143127590D01*
X126662485Y-143124768D01*
X126661192Y-143124575D01*
X126621488Y-143118425D01*
X126621715Y-143021419D01*
X126622822Y-142956256D01*
X126625641Y-142882792D01*
X126629832Y-142805916D01*
X126635055Y-142730518D01*
X126640970Y-142661488D01*
X126647237Y-142603714D01*
X126653517Y-142562086D01*
X126653691Y-142561196D01*
X126673196Y-142490715D01*
X126701703Y-142438038D01*
X126741400Y-142401415D01*
X126794472Y-142379099D01*
X126863105Y-142369338D01*
X126894433Y-142368557D01*
X126937467Y-142368312D01*
X126963201Y-142366822D01*
X126975507Y-142362950D01*
X126978260Y-142355561D01*
X126975702Y-142344734D01*
X126955877Y-142308739D01*
X126920928Y-142273309D01*
X126876369Y-142243753D01*
X126865006Y-142238191D01*
X126809403Y-142222458D01*
X126741426Y-142218226D01*
X126665761Y-142224449D01*
G37*
X126665761Y-142224449D02*
X126587091Y-142240083D01*
X126510103Y-142264083D01*
X126439482Y-142295404D01*
X126379914Y-142333000D01*
X126358538Y-142351142D01*
X126319712Y-142393732D01*
X126299088Y-142433698D01*
X126296098Y-142475438D01*
X126310172Y-142523347D01*
X126330897Y-142564749D01*
X126368526Y-142632036D01*
X126380079Y-142865801D01*
X126383251Y-142933795D01*
X126385716Y-142994310D01*
X126387377Y-143044278D01*
X126388140Y-143080631D01*
X126387908Y-143100302D01*
X126387448Y-143102899D01*
X126375729Y-143103368D01*
X126346236Y-143102196D01*
X126302286Y-143099641D01*
X126247196Y-143095963D01*
X126184282Y-143091419D01*
X126116862Y-143086269D01*
X126048251Y-143080770D01*
X125981767Y-143075183D01*
X125920726Y-143069764D01*
X125868445Y-143064774D01*
X125828239Y-143060470D01*
X125806232Y-143057575D01*
X125723351Y-143041275D01*
X125658576Y-143020959D01*
X125609044Y-142995585D01*
X125584622Y-142976754D01*
X125560849Y-142957471D01*
X125537953Y-142945901D01*
X125511460Y-142941803D01*
X125476896Y-142944934D01*
X125429787Y-142955053D01*
X125387304Y-142966068D01*
X125296230Y-142994179D01*
X125219324Y-143025460D01*
X125157499Y-143058984D01*
X125111666Y-143093824D01*
X125082738Y-143129051D01*
X125071627Y-143163740D01*
X125079245Y-143196962D01*
X125106504Y-143227791D01*
X125120309Y-143237500D01*
X125136508Y-143246687D01*
X125153491Y-143252592D01*
X125175720Y-143255635D01*
X125207658Y-143256241D01*
X125253768Y-143254831D01*
X125287432Y-143253319D01*
X125355392Y-143249736D01*
X125431947Y-143245108D01*
X125505847Y-143240138D01*
X125546832Y-143237081D01*
X125592151Y-143234853D01*
X125654708Y-143233685D01*
X125730596Y-143233493D01*
X125815908Y-143234191D01*
X125906738Y-143235695D01*
X125999179Y-143237922D01*
X126089324Y-143240785D01*
X126173267Y-143244202D01*
X126247101Y-143248087D01*
X126306919Y-143252356D01*
X126323255Y-143253868D01*
X126390299Y-143260580D01*
X126385330Y-144045394D01*
X126384295Y-144198985D01*
X126383240Y-144332927D01*
X126382128Y-144448744D01*
X126380922Y-144547962D01*
X126379584Y-144632106D01*
X126378076Y-144702702D01*
X126376360Y-144761275D01*
X126374400Y-144809351D01*
X126372157Y-144848455D01*
X126369594Y-144880113D01*
X126366674Y-144905850D01*
X126363659Y-144925497D01*
X126352007Y-145003610D01*
X126347635Y-145067583D01*
X126350615Y-145123186D01*
X126361023Y-145176191D01*
X126367129Y-145197465D01*
X126396827Y-145271581D01*
X126435415Y-145333260D01*
X126480468Y-145378939D01*
X126499160Y-145391584D01*
X126545432Y-145412679D01*
X126583736Y-145415742D01*
X126617323Y-145400698D01*
X126631188Y-145388581D01*
X126650883Y-145362464D01*
X126671353Y-145325400D01*
X126684047Y-145295938D01*
X126704627Y-145249371D01*
X126730480Y-145210445D01*
X126766157Y-145173585D01*
X126816208Y-145133218D01*
X126817884Y-145131966D01*
X126862681Y-145101117D01*
X126921731Y-145064206D01*
X126990072Y-145024071D01*
X127062740Y-144983547D01*
X127134775Y-144945471D01*
X127201212Y-144912680D01*
X127202820Y-144911924D01*
X127244799Y-144892101D01*
X127279004Y-144875758D01*
X127301310Y-144864876D01*
X127307779Y-144861471D01*
X127308607Y-144849596D01*
X127302569Y-144827560D01*
X127292714Y-144802941D01*
X127282095Y-144783318D01*
X127273761Y-144776273D01*
X127273517Y-144776360D01*
X127258017Y-144781959D01*
X127225967Y-144792762D01*
X127181014Y-144807596D01*
X127126800Y-144825285D01*
X127066970Y-144844659D01*
X127005168Y-144864543D01*
X126945039Y-144883764D01*
X126890226Y-144901149D01*
X126844373Y-144915525D01*
X126811125Y-144925718D01*
X126796186Y-144930037D01*
X126755920Y-144937611D01*
X126713582Y-144941262D01*
X126709081Y-144941319D01*
X126686465Y-144940450D01*
X126668673Y-144936216D01*
X126654985Y-144926285D01*
X126644681Y-144908321D01*
X126637040Y-144879988D01*
X126631341Y-144838953D01*
X126626864Y-144782879D01*
X126622888Y-144709433D01*
X126620342Y-144653770D01*
X126618473Y-144600618D01*
X126616890Y-144533372D01*
X126615586Y-144454169D01*
X126614554Y-144365148D01*
X126613790Y-144268446D01*
X126613286Y-144166201D01*
X126613037Y-144060550D01*
X126613037Y-143953631D01*
X126613278Y-143847583D01*
X126613757Y-143744542D01*
X126614465Y-143646646D01*
X126615398Y-143556034D01*
X126616548Y-143474842D01*
X126617910Y-143405209D01*
X126619479Y-143349273D01*
X126621247Y-143309170D01*
X126623208Y-143287039D01*
X126624256Y-143283385D01*
X126637588Y-143281353D01*
X126668950Y-143281709D01*
X126715364Y-143284165D01*
X126773855Y-143288432D01*
X126841446Y-143294223D01*
X126915161Y-143301249D01*
X126992023Y-143309222D01*
X127069055Y-143317853D01*
X127143282Y-143326855D01*
X127211727Y-143335938D01*
X127271414Y-143344816D01*
X127289754Y-143347833D01*
X127345904Y-143359889D01*
X127407331Y-143376957D01*
X127461236Y-143395459D01*
X127463805Y-143396479D01*
X127513635Y-143414692D01*
X127551833Y-143423938D01*
X127585193Y-143425685D01*
X127595411Y-143424953D01*
X127659659Y-143410794D01*
X127723424Y-143382473D01*
X127783728Y-143342920D01*
X127837597Y-143295066D01*
X127882055Y-143241841D01*
X127914126Y-143186174D01*
X127930836Y-143130997D01*
X127931744Y-143093746D01*
X127924414Y-143057801D01*
X127912709Y-143026411D01*
X127908973Y-143019856D01*
X127891382Y-143002365D01*
X127871194Y-142993795D01*
X127855109Y-142995632D01*
X127849667Y-143006703D01*
X127841723Y-143027284D01*
X127821144Y-143054621D01*
X127792805Y-143083568D01*
X127761586Y-143108975D01*
X127740420Y-143122005D01*
X127707034Y-143137645D01*
X127672375Y-143150549D01*
X127634568Y-143160774D01*
X127591739Y-143168374D01*
X127542011Y-143173408D01*
X127483511Y-143175930D01*
X127414362Y-143175996D01*
X127332690Y-143173664D01*
X127236619Y-143168988D01*
X127124275Y-143162026D01*
X126993782Y-143152832D01*
X126912651Y-143146774D01*
X126845102Y-143141499D01*
X126782315Y-143136308D01*
X126728285Y-143131554D01*
X126687010Y-143127590D01*
X126662485Y-143124768D01*
X126661192Y-143124575D01*
X126621488Y-143118425D01*
X126621715Y-143021419D01*
X126622822Y-142956256D01*
X126625641Y-142882792D01*
X126629832Y-142805916D01*
X126635055Y-142730518D01*
X126640970Y-142661488D01*
X126647237Y-142603714D01*
X126653517Y-142562086D01*
X126653691Y-142561196D01*
X126673196Y-142490715D01*
X126701703Y-142438038D01*
X126741400Y-142401415D01*
X126794472Y-142379099D01*
X126863105Y-142369338D01*
X126894433Y-142368557D01*
X126937467Y-142368312D01*
X126963201Y-142366822D01*
X126975507Y-142362950D01*
X126978260Y-142355561D01*
X126975702Y-142344734D01*
X126955877Y-142308739D01*
X126920928Y-142273309D01*
X126876369Y-142243753D01*
X126865006Y-142238191D01*
X126809403Y-142222458D01*
X126741426Y-142218226D01*
X126665761Y-142224449D01*
G36*
X123293950Y-142127513D02*
G01*
X123214134Y-142136536D01*
X123137613Y-142153861D01*
X123066860Y-142178073D01*
X123004348Y-142207756D01*
X122952550Y-142241496D01*
X122913939Y-142277877D01*
X122890989Y-142315483D01*
X122886172Y-142352900D01*
X122887567Y-142360093D01*
X122900013Y-142381697D01*
X122923940Y-142406123D01*
X122937563Y-142416624D01*
X122954919Y-142429398D01*
X122969784Y-142443057D01*
X122983736Y-142460372D01*
X122998353Y-142484116D01*
X123015213Y-142517061D01*
X123035895Y-142561979D01*
X123061977Y-142621641D01*
X123085458Y-142676388D01*
X123115834Y-142745432D01*
X123151348Y-142822980D01*
X123187747Y-142899906D01*
X123220775Y-142967081D01*
X123223179Y-142971829D01*
X123248126Y-143021556D01*
X123268936Y-143064167D01*
X123284025Y-143096329D01*
X123291812Y-143114710D01*
X123292457Y-143117707D01*
X123281215Y-143120277D01*
X123254048Y-143124353D01*
X123216088Y-143129190D01*
X123201875Y-143130848D01*
X123146013Y-143134357D01*
X123070725Y-143134545D01*
X122977484Y-143131524D01*
X122867759Y-143125408D01*
X122743021Y-143116310D01*
X122604741Y-143104344D01*
X122454388Y-143089621D01*
X122293435Y-143072257D01*
X122123350Y-143052362D01*
X122026407Y-143040379D01*
X121915531Y-143025545D01*
X121822796Y-143010993D01*
X121745193Y-142995960D01*
X121679713Y-142979680D01*
X121623349Y-142961389D01*
X121573091Y-142940323D01*
X121525931Y-142915716D01*
X121518195Y-142911238D01*
X121490007Y-142896894D01*
X121462031Y-142888777D01*
X121429965Y-142886946D01*
X121389509Y-142891462D01*
X121336360Y-142902387D01*
X121286803Y-142914513D01*
X121202947Y-142939801D01*
X121138663Y-142968538D01*
X121092497Y-143001661D01*
X121062994Y-143040111D01*
X121052855Y-143065531D01*
X121049073Y-143094513D01*
X121059731Y-143118862D01*
X121063977Y-143124516D01*
X121078055Y-143138024D01*
X121098365Y-143148900D01*
X121127300Y-143157522D01*
X121167251Y-143164267D01*
X121220610Y-143169511D01*
X121289769Y-143173632D01*
X121377120Y-143177007D01*
X121401730Y-143177768D01*
X121464182Y-143179953D01*
X121536094Y-143183012D01*
X121614537Y-143186769D01*
X121696583Y-143191045D01*
X121779305Y-143195666D01*
X121859774Y-143200454D01*
X121935063Y-143205231D01*
X122002244Y-143209823D01*
X122058388Y-143214052D01*
X122100567Y-143217740D01*
X122125854Y-143220713D01*
X122130976Y-143221780D01*
X122133154Y-143230045D01*
X122116931Y-143246734D01*
X122104095Y-143256556D01*
X122055328Y-143301224D01*
X122026597Y-143350479D01*
X122019190Y-143378899D01*
X122018682Y-143405696D01*
X122029489Y-143429893D01*
X122044995Y-143449511D01*
X122078868Y-143494245D01*
X122101765Y-143540775D01*
X122117464Y-143597437D01*
X122121459Y-143618360D01*
X122128678Y-143654501D01*
X122139870Y-143704928D01*
X122153609Y-143763449D01*
X122168473Y-143823873D01*
X122171281Y-143834959D01*
X122238757Y-144062445D01*
X122321732Y-144275574D01*
X122420340Y-144474561D01*
X122534713Y-144659621D01*
X122664986Y-144830966D01*
X122811291Y-144988813D01*
X122973763Y-145133373D01*
X122986619Y-145143698D01*
X123033946Y-145179766D01*
X123089894Y-145219705D01*
X123151659Y-145261779D01*
X123216437Y-145304253D01*
X123281425Y-145345390D01*
X123343817Y-145383457D01*
X123400810Y-145416716D01*
X123449599Y-145443433D01*
X123487381Y-145461871D01*
X123511351Y-145470297D01*
X123514866Y-145470635D01*
X123526114Y-145462432D01*
X123542732Y-145442011D01*
X123549153Y-145432571D01*
X123563438Y-145408919D01*
X123570349Y-145394215D01*
X123570328Y-145392212D01*
X123560763Y-145385530D01*
X123537619Y-145369397D01*
X123504694Y-145346461D01*
X123476928Y-145327125D01*
X123291371Y-145185343D01*
X123121531Y-145029653D01*
X122967918Y-144860883D01*
X122831041Y-144679864D01*
X122711412Y-144487423D01*
X122609539Y-144284390D01*
X122525935Y-144071594D01*
X122461108Y-143849863D01*
X122415570Y-143620026D01*
X122412218Y-143597476D01*
X122401399Y-143505093D01*
X122398601Y-143430443D01*
X122404195Y-143371516D01*
X122418547Y-143326301D01*
X122442027Y-143292788D01*
X122472113Y-143270505D01*
X122494670Y-143264102D01*
X122533242Y-143261130D01*
X122588719Y-143261626D01*
X122661990Y-143265632D01*
X122753948Y-143273186D01*
X122865482Y-143284327D01*
X122921071Y-143290385D01*
X123011945Y-143299803D01*
X123085294Y-143305508D01*
X123144471Y-143307323D01*
X123192829Y-143305070D01*
X123233723Y-143298571D01*
X123270505Y-143287649D01*
X123306529Y-143272125D01*
X123311466Y-143269692D01*
X123376344Y-143237333D01*
X123397520Y-143266019D01*
X123509657Y-143411875D01*
X123624575Y-143549841D01*
X123739263Y-143676515D01*
X123850710Y-143788497D01*
X123902217Y-143836074D01*
X123958137Y-143885195D01*
X124014010Y-143932586D01*
X124067269Y-143976229D01*
X124115342Y-144014105D01*
X124155660Y-144044196D01*
X124185655Y-144064483D01*
X124202756Y-144072947D01*
X124203894Y-144073073D01*
X124218032Y-144065668D01*
X124237878Y-144047131D01*
X124243335Y-144040921D01*
X124270481Y-144008659D01*
X124156024Y-143894202D01*
X123980242Y-143705357D01*
X123820418Y-143506722D01*
X123678044Y-143300352D01*
X123554610Y-143088304D01*
X123514184Y-143009115D01*
X123462097Y-142897970D01*
X123416729Y-142790774D01*
X123378608Y-142689428D01*
X123348261Y-142595831D01*
X123326218Y-142511883D01*
X123313005Y-142439485D01*
X123309152Y-142380535D01*
X123315186Y-142336933D01*
X123322732Y-142320455D01*
X123352999Y-142291022D01*
X123397853Y-142268286D01*
X123451105Y-142254846D01*
X123484869Y-142252324D01*
X123520800Y-142249928D01*
X123537650Y-142241923D01*
X123535858Y-142226513D01*
X123515860Y-142201901D01*
X123500750Y-142187071D01*
X123465903Y-142157750D01*
X123431768Y-142138876D01*
X123392647Y-142128810D01*
X123342844Y-142125911D01*
X123293950Y-142127513D01*
G37*
X123293950Y-142127513D02*
X123214134Y-142136536D01*
X123137613Y-142153861D01*
X123066860Y-142178073D01*
X123004348Y-142207756D01*
X122952550Y-142241496D01*
X122913939Y-142277877D01*
X122890989Y-142315483D01*
X122886172Y-142352900D01*
X122887567Y-142360093D01*
X122900013Y-142381697D01*
X122923940Y-142406123D01*
X122937563Y-142416624D01*
X122954919Y-142429398D01*
X122969784Y-142443057D01*
X122983736Y-142460372D01*
X122998353Y-142484116D01*
X123015213Y-142517061D01*
X123035895Y-142561979D01*
X123061977Y-142621641D01*
X123085458Y-142676388D01*
X123115834Y-142745432D01*
X123151348Y-142822980D01*
X123187747Y-142899906D01*
X123220775Y-142967081D01*
X123223179Y-142971829D01*
X123248126Y-143021556D01*
X123268936Y-143064167D01*
X123284025Y-143096329D01*
X123291812Y-143114710D01*
X123292457Y-143117707D01*
X123281215Y-143120277D01*
X123254048Y-143124353D01*
X123216088Y-143129190D01*
X123201875Y-143130848D01*
X123146013Y-143134357D01*
X123070725Y-143134545D01*
X122977484Y-143131524D01*
X122867759Y-143125408D01*
X122743021Y-143116310D01*
X122604741Y-143104344D01*
X122454388Y-143089621D01*
X122293435Y-143072257D01*
X122123350Y-143052362D01*
X122026407Y-143040379D01*
X121915531Y-143025545D01*
X121822796Y-143010993D01*
X121745193Y-142995960D01*
X121679713Y-142979680D01*
X121623349Y-142961389D01*
X121573091Y-142940323D01*
X121525931Y-142915716D01*
X121518195Y-142911238D01*
X121490007Y-142896894D01*
X121462031Y-142888777D01*
X121429965Y-142886946D01*
X121389509Y-142891462D01*
X121336360Y-142902387D01*
X121286803Y-142914513D01*
X121202947Y-142939801D01*
X121138663Y-142968538D01*
X121092497Y-143001661D01*
X121062994Y-143040111D01*
X121052855Y-143065531D01*
X121049073Y-143094513D01*
X121059731Y-143118862D01*
X121063977Y-143124516D01*
X121078055Y-143138024D01*
X121098365Y-143148900D01*
X121127300Y-143157522D01*
X121167251Y-143164267D01*
X121220610Y-143169511D01*
X121289769Y-143173632D01*
X121377120Y-143177007D01*
X121401730Y-143177768D01*
X121464182Y-143179953D01*
X121536094Y-143183012D01*
X121614537Y-143186769D01*
X121696583Y-143191045D01*
X121779305Y-143195666D01*
X121859774Y-143200454D01*
X121935063Y-143205231D01*
X122002244Y-143209823D01*
X122058388Y-143214052D01*
X122100567Y-143217740D01*
X122125854Y-143220713D01*
X122130976Y-143221780D01*
X122133154Y-143230045D01*
X122116931Y-143246734D01*
X122104095Y-143256556D01*
X122055328Y-143301224D01*
X122026597Y-143350479D01*
X122019190Y-143378899D01*
X122018682Y-143405696D01*
X122029489Y-143429893D01*
X122044995Y-143449511D01*
X122078868Y-143494245D01*
X122101765Y-143540775D01*
X122117464Y-143597437D01*
X122121459Y-143618360D01*
X122128678Y-143654501D01*
X122139870Y-143704928D01*
X122153609Y-143763449D01*
X122168473Y-143823873D01*
X122171281Y-143834959D01*
X122238757Y-144062445D01*
X122321732Y-144275574D01*
X122420340Y-144474561D01*
X122534713Y-144659621D01*
X122664986Y-144830966D01*
X122811291Y-144988813D01*
X122973763Y-145133373D01*
X122986619Y-145143698D01*
X123033946Y-145179766D01*
X123089894Y-145219705D01*
X123151659Y-145261779D01*
X123216437Y-145304253D01*
X123281425Y-145345390D01*
X123343817Y-145383457D01*
X123400810Y-145416716D01*
X123449599Y-145443433D01*
X123487381Y-145461871D01*
X123511351Y-145470297D01*
X123514866Y-145470635D01*
X123526114Y-145462432D01*
X123542732Y-145442011D01*
X123549153Y-145432571D01*
X123563438Y-145408919D01*
X123570349Y-145394215D01*
X123570328Y-145392212D01*
X123560763Y-145385530D01*
X123537619Y-145369397D01*
X123504694Y-145346461D01*
X123476928Y-145327125D01*
X123291371Y-145185343D01*
X123121531Y-145029653D01*
X122967918Y-144860883D01*
X122831041Y-144679864D01*
X122711412Y-144487423D01*
X122609539Y-144284390D01*
X122525935Y-144071594D01*
X122461108Y-143849863D01*
X122415570Y-143620026D01*
X122412218Y-143597476D01*
X122401399Y-143505093D01*
X122398601Y-143430443D01*
X122404195Y-143371516D01*
X122418547Y-143326301D01*
X122442027Y-143292788D01*
X122472113Y-143270505D01*
X122494670Y-143264102D01*
X122533242Y-143261130D01*
X122588719Y-143261626D01*
X122661990Y-143265632D01*
X122753948Y-143273186D01*
X122865482Y-143284327D01*
X122921071Y-143290385D01*
X123011945Y-143299803D01*
X123085294Y-143305508D01*
X123144471Y-143307323D01*
X123192829Y-143305070D01*
X123233723Y-143298571D01*
X123270505Y-143287649D01*
X123306529Y-143272125D01*
X123311466Y-143269692D01*
X123376344Y-143237333D01*
X123397520Y-143266019D01*
X123509657Y-143411875D01*
X123624575Y-143549841D01*
X123739263Y-143676515D01*
X123850710Y-143788497D01*
X123902217Y-143836074D01*
X123958137Y-143885195D01*
X124014010Y-143932586D01*
X124067269Y-143976229D01*
X124115342Y-144014105D01*
X124155660Y-144044196D01*
X124185655Y-144064483D01*
X124202756Y-144072947D01*
X124203894Y-144073073D01*
X124218032Y-144065668D01*
X124237878Y-144047131D01*
X124243335Y-144040921D01*
X124270481Y-144008659D01*
X124156024Y-143894202D01*
X123980242Y-143705357D01*
X123820418Y-143506722D01*
X123678044Y-143300352D01*
X123554610Y-143088304D01*
X123514184Y-143009115D01*
X123462097Y-142897970D01*
X123416729Y-142790774D01*
X123378608Y-142689428D01*
X123348261Y-142595831D01*
X123326218Y-142511883D01*
X123313005Y-142439485D01*
X123309152Y-142380535D01*
X123315186Y-142336933D01*
X123322732Y-142320455D01*
X123352999Y-142291022D01*
X123397853Y-142268286D01*
X123451105Y-142254846D01*
X123484869Y-142252324D01*
X123520800Y-142249928D01*
X123537650Y-142241923D01*
X123535858Y-142226513D01*
X123515860Y-142201901D01*
X123500750Y-142187071D01*
X123465903Y-142157750D01*
X123431768Y-142138876D01*
X123392647Y-142128810D01*
X123342844Y-142125911D01*
X123293950Y-142127513D01*
%TD*%
D11*
%TO.C,J33*%
X111760000Y-111760000D03*
D12*
X111760000Y-113030000D03*
X111760000Y-114300000D03*
X111760000Y-115570000D03*
X111760000Y-116840000D03*
X111760000Y-118110000D03*
X111760000Y-119380000D03*
X111760000Y-120650000D03*
X111760000Y-121920000D03*
X111760000Y-123190000D03*
X111760000Y-124460000D03*
X111760000Y-125730000D03*
X111760000Y-127000000D03*
X111760000Y-128270000D03*
X111760000Y-129540000D03*
%TD*%
D13*
%TO.C,J32*%
X210820000Y-144780000D03*
X210820000Y-142240000D03*
X210820000Y-139700000D03*
X210820000Y-137160000D03*
X210820000Y-134620000D03*
X210820000Y-132080000D03*
X210820000Y-129540000D03*
X210820000Y-127000000D03*
X210820000Y-124460000D03*
X210820000Y-121920000D03*
X210820000Y-119380000D03*
X210820000Y-116840000D03*
X210820000Y-114300000D03*
X210820000Y-111760000D03*
X210820000Y-109220000D03*
X210820000Y-106680000D03*
X210820000Y-104140000D03*
X210820000Y-101600000D03*
X210820000Y-99060000D03*
X210820000Y-96520000D03*
D14*
X210820000Y-93980000D03*
%TD*%
D13*
%TO.C,J31*%
X208280000Y-144780000D03*
X208280000Y-142240000D03*
X208280000Y-139700000D03*
X208280000Y-137160000D03*
X208280000Y-134620000D03*
X208280000Y-132080000D03*
X208280000Y-129540000D03*
X208280000Y-127000000D03*
X208280000Y-124460000D03*
X208280000Y-121920000D03*
X208280000Y-119380000D03*
X208280000Y-116840000D03*
X208280000Y-114300000D03*
X208280000Y-111760000D03*
X208280000Y-109220000D03*
X208280000Y-106680000D03*
X208280000Y-104140000D03*
X208280000Y-101600000D03*
X208280000Y-99060000D03*
X208280000Y-96520000D03*
D14*
X208280000Y-93980000D03*
%TD*%
D13*
%TO.C,J30*%
X205740000Y-144780000D03*
X205740000Y-142240000D03*
X205740000Y-139700000D03*
X205740000Y-137160000D03*
X205740000Y-134620000D03*
X205740000Y-132080000D03*
X205740000Y-129540000D03*
X205740000Y-127000000D03*
X205740000Y-124460000D03*
X205740000Y-121920000D03*
X205740000Y-119380000D03*
X205740000Y-116840000D03*
X205740000Y-114300000D03*
X205740000Y-111760000D03*
X205740000Y-109220000D03*
X205740000Y-106680000D03*
X205740000Y-104140000D03*
X205740000Y-101600000D03*
X205740000Y-99060000D03*
X205740000Y-96520000D03*
D14*
X205740000Y-93980000D03*
%TD*%
D13*
%TO.C,J29*%
X203200000Y-144780000D03*
X203200000Y-142240000D03*
X203200000Y-139700000D03*
X203200000Y-137160000D03*
X203200000Y-134620000D03*
X203200000Y-132080000D03*
X203200000Y-129540000D03*
X203200000Y-127000000D03*
X203200000Y-124460000D03*
X203200000Y-121920000D03*
X203200000Y-119380000D03*
X203200000Y-116840000D03*
X203200000Y-114300000D03*
X203200000Y-111760000D03*
X203200000Y-109220000D03*
X203200000Y-106680000D03*
X203200000Y-104140000D03*
X203200000Y-101600000D03*
X203200000Y-99060000D03*
X203200000Y-96520000D03*
D14*
X203200000Y-93980000D03*
%TD*%
D13*
%TO.C,J28*%
X200660000Y-144780000D03*
X200660000Y-142240000D03*
X200660000Y-139700000D03*
X200660000Y-137160000D03*
X200660000Y-134620000D03*
X200660000Y-132080000D03*
X200660000Y-129540000D03*
X200660000Y-127000000D03*
X200660000Y-124460000D03*
X200660000Y-121920000D03*
X200660000Y-119380000D03*
X200660000Y-116840000D03*
X200660000Y-114300000D03*
X200660000Y-111760000D03*
X200660000Y-109220000D03*
X200660000Y-106680000D03*
X200660000Y-104140000D03*
X200660000Y-101600000D03*
X200660000Y-99060000D03*
X200660000Y-96520000D03*
D14*
X200660000Y-93980000D03*
%TD*%
D13*
%TO.C,J27*%
X198120000Y-144780000D03*
X198120000Y-142240000D03*
X198120000Y-139700000D03*
X198120000Y-137160000D03*
X198120000Y-134620000D03*
X198120000Y-132080000D03*
X198120000Y-129540000D03*
X198120000Y-127000000D03*
X198120000Y-124460000D03*
X198120000Y-121920000D03*
X198120000Y-119380000D03*
X198120000Y-116840000D03*
X198120000Y-114300000D03*
X198120000Y-111760000D03*
X198120000Y-109220000D03*
X198120000Y-106680000D03*
X198120000Y-104140000D03*
X198120000Y-101600000D03*
X198120000Y-99060000D03*
X198120000Y-96520000D03*
D14*
X198120000Y-93980000D03*
%TD*%
D13*
%TO.C,J26*%
X195580000Y-144780000D03*
X195580000Y-142240000D03*
X195580000Y-139700000D03*
X195580000Y-137160000D03*
X195580000Y-134620000D03*
X195580000Y-132080000D03*
X195580000Y-129540000D03*
X195580000Y-127000000D03*
X195580000Y-124460000D03*
X195580000Y-121920000D03*
X195580000Y-119380000D03*
X195580000Y-116840000D03*
X195580000Y-114300000D03*
X195580000Y-111760000D03*
X195580000Y-109220000D03*
X195580000Y-106680000D03*
X195580000Y-104140000D03*
X195580000Y-101600000D03*
X195580000Y-99060000D03*
X195580000Y-96520000D03*
D14*
X195580000Y-93980000D03*
%TD*%
D13*
%TO.C,J25*%
X193040000Y-144780000D03*
X193040000Y-142240000D03*
X193040000Y-139700000D03*
X193040000Y-137160000D03*
X193040000Y-134620000D03*
X193040000Y-132080000D03*
X193040000Y-129540000D03*
X193040000Y-127000000D03*
X193040000Y-124460000D03*
X193040000Y-121920000D03*
X193040000Y-119380000D03*
X193040000Y-116840000D03*
X193040000Y-114300000D03*
X193040000Y-111760000D03*
X193040000Y-109220000D03*
X193040000Y-106680000D03*
X193040000Y-104140000D03*
X193040000Y-101600000D03*
X193040000Y-99060000D03*
X193040000Y-96520000D03*
D14*
X193040000Y-93980000D03*
%TD*%
D13*
%TO.C,J24*%
X190500000Y-144780000D03*
X190500000Y-142240000D03*
X190500000Y-139700000D03*
X190500000Y-137160000D03*
X190500000Y-134620000D03*
X190500000Y-132080000D03*
X190500000Y-129540000D03*
X190500000Y-127000000D03*
X190500000Y-124460000D03*
X190500000Y-121920000D03*
X190500000Y-119380000D03*
X190500000Y-116840000D03*
X190500000Y-114300000D03*
X190500000Y-111760000D03*
X190500000Y-109220000D03*
X190500000Y-106680000D03*
X190500000Y-104140000D03*
X190500000Y-101600000D03*
X190500000Y-99060000D03*
X190500000Y-96520000D03*
D14*
X190500000Y-93980000D03*
%TD*%
D13*
%TO.C,J23*%
X187960000Y-144780000D03*
X187960000Y-142240000D03*
X187960000Y-139700000D03*
X187960000Y-137160000D03*
X187960000Y-134620000D03*
X187960000Y-132080000D03*
X187960000Y-129540000D03*
X187960000Y-127000000D03*
X187960000Y-124460000D03*
X187960000Y-121920000D03*
X187960000Y-119380000D03*
X187960000Y-116840000D03*
X187960000Y-114300000D03*
X187960000Y-111760000D03*
X187960000Y-109220000D03*
X187960000Y-106680000D03*
X187960000Y-104140000D03*
X187960000Y-101600000D03*
X187960000Y-99060000D03*
X187960000Y-96520000D03*
D14*
X187960000Y-93980000D03*
%TD*%
D13*
%TO.C,J22*%
X185420000Y-144780000D03*
X185420000Y-142240000D03*
X185420000Y-139700000D03*
X185420000Y-137160000D03*
X185420000Y-134620000D03*
X185420000Y-132080000D03*
X185420000Y-129540000D03*
X185420000Y-127000000D03*
X185420000Y-124460000D03*
X185420000Y-121920000D03*
X185420000Y-119380000D03*
X185420000Y-116840000D03*
X185420000Y-114300000D03*
X185420000Y-111760000D03*
X185420000Y-109220000D03*
X185420000Y-106680000D03*
X185420000Y-104140000D03*
X185420000Y-101600000D03*
X185420000Y-99060000D03*
X185420000Y-96520000D03*
D14*
X185420000Y-93980000D03*
%TD*%
D13*
%TO.C,J21*%
X182880000Y-144780000D03*
X182880000Y-142240000D03*
X182880000Y-139700000D03*
X182880000Y-137160000D03*
X182880000Y-134620000D03*
X182880000Y-132080000D03*
X182880000Y-129540000D03*
X182880000Y-127000000D03*
X182880000Y-124460000D03*
X182880000Y-121920000D03*
X182880000Y-119380000D03*
X182880000Y-116840000D03*
X182880000Y-114300000D03*
X182880000Y-111760000D03*
X182880000Y-109220000D03*
X182880000Y-106680000D03*
X182880000Y-104140000D03*
X182880000Y-101600000D03*
X182880000Y-99060000D03*
X182880000Y-96520000D03*
D14*
X182880000Y-93980000D03*
%TD*%
D13*
%TO.C,J20*%
X180340000Y-144780000D03*
X180340000Y-142240000D03*
X180340000Y-139700000D03*
X180340000Y-137160000D03*
X180340000Y-134620000D03*
X180340000Y-132080000D03*
X180340000Y-129540000D03*
X180340000Y-127000000D03*
X180340000Y-124460000D03*
X180340000Y-121920000D03*
X180340000Y-119380000D03*
X180340000Y-116840000D03*
X180340000Y-114300000D03*
X180340000Y-111760000D03*
X180340000Y-109220000D03*
X180340000Y-106680000D03*
X180340000Y-104140000D03*
X180340000Y-101600000D03*
X180340000Y-99060000D03*
X180340000Y-96520000D03*
D14*
X180340000Y-93980000D03*
%TD*%
D13*
%TO.C,J19*%
X177800000Y-144780000D03*
X177800000Y-142240000D03*
X177800000Y-139700000D03*
X177800000Y-137160000D03*
X177800000Y-134620000D03*
X177800000Y-132080000D03*
X177800000Y-129540000D03*
X177800000Y-127000000D03*
X177800000Y-124460000D03*
X177800000Y-121920000D03*
X177800000Y-119380000D03*
X177800000Y-116840000D03*
X177800000Y-114300000D03*
X177800000Y-111760000D03*
X177800000Y-109220000D03*
X177800000Y-106680000D03*
X177800000Y-104140000D03*
X177800000Y-101600000D03*
X177800000Y-99060000D03*
X177800000Y-96520000D03*
D14*
X177800000Y-93980000D03*
%TD*%
D13*
%TO.C,J18*%
X175260000Y-144780000D03*
X175260000Y-142240000D03*
X175260000Y-139700000D03*
X175260000Y-137160000D03*
X175260000Y-134620000D03*
X175260000Y-132080000D03*
X175260000Y-129540000D03*
X175260000Y-127000000D03*
X175260000Y-124460000D03*
X175260000Y-121920000D03*
X175260000Y-119380000D03*
X175260000Y-116840000D03*
X175260000Y-114300000D03*
X175260000Y-111760000D03*
X175260000Y-109220000D03*
X175260000Y-106680000D03*
X175260000Y-104140000D03*
X175260000Y-101600000D03*
X175260000Y-99060000D03*
X175260000Y-96520000D03*
D14*
X175260000Y-93980000D03*
%TD*%
D13*
%TO.C,J17*%
X172720000Y-144780000D03*
X172720000Y-142240000D03*
X172720000Y-139700000D03*
X172720000Y-137160000D03*
X172720000Y-134620000D03*
X172720000Y-132080000D03*
X172720000Y-129540000D03*
X172720000Y-127000000D03*
X172720000Y-124460000D03*
X172720000Y-121920000D03*
X172720000Y-119380000D03*
X172720000Y-116840000D03*
X172720000Y-114300000D03*
X172720000Y-111760000D03*
X172720000Y-109220000D03*
X172720000Y-106680000D03*
X172720000Y-104140000D03*
X172720000Y-101600000D03*
X172720000Y-99060000D03*
X172720000Y-96520000D03*
D14*
X172720000Y-93980000D03*
%TD*%
D13*
%TO.C,J16*%
X170180000Y-144780000D03*
X170180000Y-142240000D03*
X170180000Y-139700000D03*
X170180000Y-137160000D03*
X170180000Y-134620000D03*
X170180000Y-132080000D03*
X170180000Y-129540000D03*
X170180000Y-127000000D03*
X170180000Y-124460000D03*
X170180000Y-121920000D03*
X170180000Y-119380000D03*
X170180000Y-116840000D03*
X170180000Y-114300000D03*
X170180000Y-111760000D03*
X170180000Y-109220000D03*
X170180000Y-106680000D03*
X170180000Y-104140000D03*
X170180000Y-101600000D03*
X170180000Y-99060000D03*
X170180000Y-96520000D03*
D14*
X170180000Y-93980000D03*
%TD*%
D13*
%TO.C,J15*%
X167640000Y-144780000D03*
X167640000Y-142240000D03*
X167640000Y-139700000D03*
X167640000Y-137160000D03*
X167640000Y-134620000D03*
X167640000Y-132080000D03*
X167640000Y-129540000D03*
X167640000Y-127000000D03*
X167640000Y-124460000D03*
X167640000Y-121920000D03*
X167640000Y-119380000D03*
X167640000Y-116840000D03*
X167640000Y-114300000D03*
X167640000Y-111760000D03*
X167640000Y-109220000D03*
X167640000Y-106680000D03*
X167640000Y-104140000D03*
X167640000Y-101600000D03*
X167640000Y-99060000D03*
X167640000Y-96520000D03*
D14*
X167640000Y-93980000D03*
%TD*%
D13*
%TO.C,J14*%
X165100000Y-144780000D03*
X165100000Y-142240000D03*
X165100000Y-139700000D03*
X165100000Y-137160000D03*
X165100000Y-134620000D03*
X165100000Y-132080000D03*
X165100000Y-129540000D03*
X165100000Y-127000000D03*
X165100000Y-124460000D03*
X165100000Y-121920000D03*
X165100000Y-119380000D03*
X165100000Y-116840000D03*
X165100000Y-114300000D03*
X165100000Y-111760000D03*
X165100000Y-109220000D03*
X165100000Y-106680000D03*
X165100000Y-104140000D03*
X165100000Y-101600000D03*
X165100000Y-99060000D03*
X165100000Y-96520000D03*
D14*
X165100000Y-93980000D03*
%TD*%
D13*
%TO.C,J13*%
X162560000Y-144780000D03*
X162560000Y-142240000D03*
X162560000Y-139700000D03*
X162560000Y-137160000D03*
X162560000Y-134620000D03*
X162560000Y-132080000D03*
X162560000Y-129540000D03*
X162560000Y-127000000D03*
X162560000Y-124460000D03*
X162560000Y-121920000D03*
X162560000Y-119380000D03*
X162560000Y-116840000D03*
X162560000Y-114300000D03*
X162560000Y-111760000D03*
X162560000Y-109220000D03*
X162560000Y-106680000D03*
X162560000Y-104140000D03*
X162560000Y-101600000D03*
X162560000Y-99060000D03*
X162560000Y-96520000D03*
D14*
X162560000Y-93980000D03*
%TD*%
D13*
%TO.C,J12*%
X160020000Y-144780000D03*
X160020000Y-142240000D03*
X160020000Y-139700000D03*
X160020000Y-137160000D03*
X160020000Y-134620000D03*
X160020000Y-132080000D03*
X160020000Y-129540000D03*
X160020000Y-127000000D03*
X160020000Y-124460000D03*
X160020000Y-121920000D03*
X160020000Y-119380000D03*
X160020000Y-116840000D03*
X160020000Y-114300000D03*
X160020000Y-111760000D03*
X160020000Y-109220000D03*
X160020000Y-106680000D03*
X160020000Y-104140000D03*
X160020000Y-101600000D03*
X160020000Y-99060000D03*
X160020000Y-96520000D03*
D14*
X160020000Y-93980000D03*
%TD*%
D13*
%TO.C,J11*%
X157480000Y-144780000D03*
X157480000Y-142240000D03*
X157480000Y-139700000D03*
X157480000Y-137160000D03*
X157480000Y-134620000D03*
X157480000Y-132080000D03*
X157480000Y-129540000D03*
X157480000Y-127000000D03*
X157480000Y-124460000D03*
X157480000Y-121920000D03*
X157480000Y-119380000D03*
X157480000Y-116840000D03*
X157480000Y-114300000D03*
X157480000Y-111760000D03*
X157480000Y-109220000D03*
X157480000Y-106680000D03*
X157480000Y-104140000D03*
X157480000Y-101600000D03*
X157480000Y-99060000D03*
X157480000Y-96520000D03*
D14*
X157480000Y-93980000D03*
%TD*%
D13*
%TO.C,J10*%
X154940000Y-144780000D03*
X154940000Y-142240000D03*
X154940000Y-139700000D03*
X154940000Y-137160000D03*
X154940000Y-134620000D03*
X154940000Y-132080000D03*
X154940000Y-129540000D03*
X154940000Y-127000000D03*
X154940000Y-124460000D03*
X154940000Y-121920000D03*
X154940000Y-119380000D03*
X154940000Y-116840000D03*
X154940000Y-114300000D03*
X154940000Y-111760000D03*
X154940000Y-109220000D03*
X154940000Y-106680000D03*
X154940000Y-104140000D03*
X154940000Y-101600000D03*
X154940000Y-99060000D03*
X154940000Y-96520000D03*
D14*
X154940000Y-93980000D03*
%TD*%
D13*
%TO.C,J9*%
X152400000Y-144780000D03*
X152400000Y-142240000D03*
X152400000Y-139700000D03*
X152400000Y-137160000D03*
X152400000Y-134620000D03*
X152400000Y-132080000D03*
X152400000Y-129540000D03*
X152400000Y-127000000D03*
X152400000Y-124460000D03*
X152400000Y-121920000D03*
X152400000Y-119380000D03*
X152400000Y-116840000D03*
X152400000Y-114300000D03*
X152400000Y-111760000D03*
X152400000Y-109220000D03*
X152400000Y-106680000D03*
X152400000Y-104140000D03*
X152400000Y-101600000D03*
X152400000Y-99060000D03*
X152400000Y-96520000D03*
D14*
X152400000Y-93980000D03*
%TD*%
D13*
%TO.C,J8*%
X149860000Y-144780000D03*
X149860000Y-142240000D03*
X149860000Y-139700000D03*
X149860000Y-137160000D03*
X149860000Y-134620000D03*
X149860000Y-132080000D03*
X149860000Y-129540000D03*
X149860000Y-127000000D03*
X149860000Y-124460000D03*
X149860000Y-121920000D03*
X149860000Y-119380000D03*
X149860000Y-116840000D03*
X149860000Y-114300000D03*
X149860000Y-111760000D03*
X149860000Y-109220000D03*
X149860000Y-106680000D03*
X149860000Y-104140000D03*
X149860000Y-101600000D03*
X149860000Y-99060000D03*
X149860000Y-96520000D03*
D14*
X149860000Y-93980000D03*
%TD*%
D13*
%TO.C,J7*%
X147320000Y-144780000D03*
X147320000Y-142240000D03*
X147320000Y-139700000D03*
X147320000Y-137160000D03*
X147320000Y-134620000D03*
X147320000Y-132080000D03*
X147320000Y-129540000D03*
X147320000Y-127000000D03*
X147320000Y-124460000D03*
X147320000Y-121920000D03*
X147320000Y-119380000D03*
X147320000Y-116840000D03*
X147320000Y-114300000D03*
X147320000Y-111760000D03*
X147320000Y-109220000D03*
X147320000Y-106680000D03*
X147320000Y-104140000D03*
X147320000Y-101600000D03*
X147320000Y-99060000D03*
X147320000Y-96520000D03*
D14*
X147320000Y-93980000D03*
%TD*%
D13*
%TO.C,J6*%
X144780000Y-144780000D03*
X144780000Y-142240000D03*
X144780000Y-139700000D03*
X144780000Y-137160000D03*
X144780000Y-134620000D03*
X144780000Y-132080000D03*
X144780000Y-129540000D03*
X144780000Y-127000000D03*
X144780000Y-124460000D03*
X144780000Y-121920000D03*
X144780000Y-119380000D03*
X144780000Y-116840000D03*
X144780000Y-114300000D03*
X144780000Y-111760000D03*
X144780000Y-109220000D03*
X144780000Y-106680000D03*
X144780000Y-104140000D03*
X144780000Y-101600000D03*
X144780000Y-99060000D03*
X144780000Y-96520000D03*
D14*
X144780000Y-93980000D03*
%TD*%
D13*
%TO.C,J5*%
X142240000Y-144780000D03*
X142240000Y-142240000D03*
X142240000Y-139700000D03*
X142240000Y-137160000D03*
X142240000Y-134620000D03*
X142240000Y-132080000D03*
X142240000Y-129540000D03*
X142240000Y-127000000D03*
X142240000Y-124460000D03*
X142240000Y-121920000D03*
X142240000Y-119380000D03*
X142240000Y-116840000D03*
X142240000Y-114300000D03*
X142240000Y-111760000D03*
X142240000Y-109220000D03*
X142240000Y-106680000D03*
X142240000Y-104140000D03*
X142240000Y-101600000D03*
X142240000Y-99060000D03*
X142240000Y-96520000D03*
D14*
X142240000Y-93980000D03*
%TD*%
D13*
%TO.C,J4*%
X139700000Y-144780000D03*
X139700000Y-142240000D03*
X139700000Y-139700000D03*
X139700000Y-137160000D03*
X139700000Y-134620000D03*
X139700000Y-132080000D03*
X139700000Y-129540000D03*
X139700000Y-127000000D03*
X139700000Y-124460000D03*
X139700000Y-121920000D03*
X139700000Y-119380000D03*
X139700000Y-116840000D03*
X139700000Y-114300000D03*
X139700000Y-111760000D03*
X139700000Y-109220000D03*
X139700000Y-106680000D03*
X139700000Y-104140000D03*
X139700000Y-101600000D03*
X139700000Y-99060000D03*
X139700000Y-96520000D03*
D14*
X139700000Y-93980000D03*
%TD*%
D13*
%TO.C,J3*%
X137160000Y-144780000D03*
X137160000Y-142240000D03*
X137160000Y-139700000D03*
X137160000Y-137160000D03*
X137160000Y-134620000D03*
X137160000Y-132080000D03*
X137160000Y-129540000D03*
X137160000Y-127000000D03*
X137160000Y-124460000D03*
X137160000Y-121920000D03*
X137160000Y-119380000D03*
X137160000Y-116840000D03*
X137160000Y-114300000D03*
X137160000Y-111760000D03*
X137160000Y-109220000D03*
X137160000Y-106680000D03*
X137160000Y-104140000D03*
X137160000Y-101600000D03*
X137160000Y-99060000D03*
X137160000Y-96520000D03*
D14*
X137160000Y-93980000D03*
%TD*%
D13*
%TO.C,J2*%
X134620000Y-144780000D03*
X134620000Y-142240000D03*
X134620000Y-139700000D03*
X134620000Y-137160000D03*
X134620000Y-134620000D03*
X134620000Y-132080000D03*
X134620000Y-129540000D03*
X134620000Y-127000000D03*
X134620000Y-124460000D03*
X134620000Y-121920000D03*
X134620000Y-119380000D03*
X134620000Y-116840000D03*
X134620000Y-114300000D03*
X134620000Y-111760000D03*
X134620000Y-109220000D03*
X134620000Y-106680000D03*
X134620000Y-104140000D03*
X134620000Y-101600000D03*
X134620000Y-99060000D03*
X134620000Y-96520000D03*
D14*
X134620000Y-93980000D03*
%TD*%
D13*
%TO.C,J1*%
X132080000Y-144780000D03*
X132080000Y-142240000D03*
X132080000Y-139700000D03*
X132080000Y-137160000D03*
X132080000Y-134620000D03*
X132080000Y-132080000D03*
X132080000Y-129540000D03*
X132080000Y-127000000D03*
X132080000Y-124460000D03*
X132080000Y-121920000D03*
X132080000Y-119380000D03*
X132080000Y-116840000D03*
X132080000Y-114300000D03*
X132080000Y-111760000D03*
X132080000Y-109220000D03*
X132080000Y-106680000D03*
X132080000Y-104140000D03*
X132080000Y-101600000D03*
X132080000Y-99060000D03*
X132080000Y-96520000D03*
D14*
X132080000Y-93980000D03*
%TD*%
D15*
%TO.C,H4*%
X113792000Y-93980000D03*
%TD*%
%TO.C,H3*%
X218440000Y-149945000D03*
%TD*%
%TO.C,H2*%
X218440000Y-93980000D03*
%TD*%
%TO.C,H1*%
X113792000Y-149860000D03*
%TD*%
M02*
