%TF.GenerationSoftware,KiCad,Pcbnew,(5.1.6)-1*%
%TF.CreationDate,2020-08-25T07:27:34+03:00*%
%TF.ProjectId,15pinproto,31357069-6e70-4726-9f74-6f2e6b696361,rev?*%
%TF.SameCoordinates,Original*%
%TF.FileFunction,Soldermask,Top*%
%TF.FilePolarity,Negative*%
%FSLAX46Y46*%
G04 Gerber Fmt 4.6, Leading zero omitted, Abs format (unit mm)*
G04 Created by KiCad (PCBNEW (5.1.6)-1) date 2020-08-25 07:27:34*
%MOMM*%
%LPD*%
G01*
G04 APERTURE LIST*
%ADD10C,0.010000*%
%ADD11C,0.100000*%
%ADD12R,1.100000X1.100000*%
%ADD13O,1.100000X1.100000*%
%ADD14O,1.800000X1.800000*%
%ADD15R,1.800000X1.800000*%
%ADD16C,5.100000*%
G04 APERTURE END LIST*
D10*
%TO.C,G\u002A\u002A\u002A*%
G36*
X116345027Y-141952198D02*
G01*
X116432785Y-141975716D01*
X116512012Y-142016733D01*
X116580763Y-142073671D01*
X116637090Y-142144947D01*
X116679048Y-142228981D01*
X116703085Y-142315126D01*
X116707988Y-142396625D01*
X116694568Y-142480184D01*
X116664761Y-142561708D01*
X116620505Y-142637102D01*
X116563737Y-142702269D01*
X116496394Y-142753116D01*
X116495727Y-142753506D01*
X116413899Y-142789698D01*
X116324096Y-142808973D01*
X116231825Y-142810740D01*
X116142596Y-142794409D01*
X116135249Y-142792142D01*
X116050721Y-142754710D01*
X115977469Y-142701419D01*
X115917342Y-142634972D01*
X115872190Y-142558071D01*
X115843864Y-142473420D01*
X115834213Y-142383721D01*
X115834510Y-142376269D01*
X115970111Y-142376269D01*
X115974799Y-142444600D01*
X115990399Y-142500978D01*
X116019217Y-142552800D01*
X116029528Y-142566924D01*
X116081377Y-142618247D01*
X116145117Y-142654991D01*
X116216388Y-142676157D01*
X116290833Y-142680744D01*
X116364091Y-142667751D01*
X116402708Y-142652553D01*
X116467801Y-142610662D01*
X116517297Y-142557430D01*
X116551203Y-142495830D01*
X116569527Y-142428835D01*
X116572277Y-142359419D01*
X116559461Y-142290553D01*
X116531086Y-142225212D01*
X116487160Y-142166368D01*
X116427691Y-142116993D01*
X116401280Y-142101471D01*
X116351838Y-142084288D01*
X116291646Y-142076580D01*
X116228890Y-142078346D01*
X116171754Y-142089586D01*
X116142456Y-142101464D01*
X116071565Y-142148426D01*
X116019713Y-142204371D01*
X115986428Y-142270051D01*
X115971240Y-142346218D01*
X115970111Y-142376269D01*
X115834510Y-142376269D01*
X115835400Y-142354012D01*
X115846824Y-142272939D01*
X115869309Y-142204650D01*
X115905791Y-142142797D01*
X115959205Y-142081032D01*
X115963812Y-142076389D01*
X116024581Y-142022269D01*
X116084134Y-141985011D01*
X116148861Y-141961752D01*
X116225151Y-141949625D01*
X116250686Y-141947762D01*
X116345027Y-141952198D01*
G37*
X116345027Y-141952198D02*
X116432785Y-141975716D01*
X116512012Y-142016733D01*
X116580763Y-142073671D01*
X116637090Y-142144947D01*
X116679048Y-142228981D01*
X116703085Y-142315126D01*
X116707988Y-142396625D01*
X116694568Y-142480184D01*
X116664761Y-142561708D01*
X116620505Y-142637102D01*
X116563737Y-142702269D01*
X116496394Y-142753116D01*
X116495727Y-142753506D01*
X116413899Y-142789698D01*
X116324096Y-142808973D01*
X116231825Y-142810740D01*
X116142596Y-142794409D01*
X116135249Y-142792142D01*
X116050721Y-142754710D01*
X115977469Y-142701419D01*
X115917342Y-142634972D01*
X115872190Y-142558071D01*
X115843864Y-142473420D01*
X115834213Y-142383721D01*
X115834510Y-142376269D01*
X115970111Y-142376269D01*
X115974799Y-142444600D01*
X115990399Y-142500978D01*
X116019217Y-142552800D01*
X116029528Y-142566924D01*
X116081377Y-142618247D01*
X116145117Y-142654991D01*
X116216388Y-142676157D01*
X116290833Y-142680744D01*
X116364091Y-142667751D01*
X116402708Y-142652553D01*
X116467801Y-142610662D01*
X116517297Y-142557430D01*
X116551203Y-142495830D01*
X116569527Y-142428835D01*
X116572277Y-142359419D01*
X116559461Y-142290553D01*
X116531086Y-142225212D01*
X116487160Y-142166368D01*
X116427691Y-142116993D01*
X116401280Y-142101471D01*
X116351838Y-142084288D01*
X116291646Y-142076580D01*
X116228890Y-142078346D01*
X116171754Y-142089586D01*
X116142456Y-142101464D01*
X116071565Y-142148426D01*
X116019713Y-142204371D01*
X115986428Y-142270051D01*
X115971240Y-142346218D01*
X115970111Y-142376269D01*
X115834510Y-142376269D01*
X115835400Y-142354012D01*
X115846824Y-142272939D01*
X115869309Y-142204650D01*
X115905791Y-142142797D01*
X115959205Y-142081032D01*
X115963812Y-142076389D01*
X116024581Y-142022269D01*
X116084134Y-141985011D01*
X116148861Y-141961752D01*
X116225151Y-141949625D01*
X116250686Y-141947762D01*
X116345027Y-141952198D01*
G36*
X125427605Y-142522777D02*
G01*
X125454437Y-142527460D01*
X125601744Y-142558609D01*
X125744113Y-142597822D01*
X125879103Y-142644021D01*
X126004273Y-142696123D01*
X126117184Y-142753050D01*
X126215395Y-142813721D01*
X126296465Y-142877055D01*
X126338566Y-142918863D01*
X126385479Y-142977514D01*
X126415756Y-143032605D01*
X126431811Y-143089822D01*
X126436097Y-143148550D01*
X126435145Y-143190353D01*
X126431165Y-143217681D01*
X126422474Y-143237193D01*
X126409627Y-143253145D01*
X126377187Y-143280038D01*
X126338541Y-143300564D01*
X126302594Y-143310225D01*
X126296149Y-143310451D01*
X126273249Y-143306014D01*
X126245517Y-143296161D01*
X126205599Y-143273306D01*
X126163883Y-143237947D01*
X126117717Y-143187598D01*
X126081717Y-143142604D01*
X125973922Y-143018248D01*
X125848732Y-142902155D01*
X125709052Y-142796559D01*
X125557787Y-142703693D01*
X125424967Y-142637635D01*
X125379743Y-142617001D01*
X125350660Y-142602042D01*
X125334331Y-142590241D01*
X125327371Y-142579079D01*
X125326393Y-142566039D01*
X125326504Y-142564404D01*
X125329973Y-142539596D01*
X125338277Y-142524051D01*
X125354957Y-142516748D01*
X125383553Y-142516664D01*
X125427605Y-142522777D01*
G37*
X125427605Y-142522777D02*
X125454437Y-142527460D01*
X125601744Y-142558609D01*
X125744113Y-142597822D01*
X125879103Y-142644021D01*
X126004273Y-142696123D01*
X126117184Y-142753050D01*
X126215395Y-142813721D01*
X126296465Y-142877055D01*
X126338566Y-142918863D01*
X126385479Y-142977514D01*
X126415756Y-143032605D01*
X126431811Y-143089822D01*
X126436097Y-143148550D01*
X126435145Y-143190353D01*
X126431165Y-143217681D01*
X126422474Y-143237193D01*
X126409627Y-143253145D01*
X126377187Y-143280038D01*
X126338541Y-143300564D01*
X126302594Y-143310225D01*
X126296149Y-143310451D01*
X126273249Y-143306014D01*
X126245517Y-143296161D01*
X126205599Y-143273306D01*
X126163883Y-143237947D01*
X126117717Y-143187598D01*
X126081717Y-143142604D01*
X125973922Y-143018248D01*
X125848732Y-142902155D01*
X125709052Y-142796559D01*
X125557787Y-142703693D01*
X125424967Y-142637635D01*
X125379743Y-142617001D01*
X125350660Y-142602042D01*
X125334331Y-142590241D01*
X125327371Y-142579079D01*
X125326393Y-142566039D01*
X125326504Y-142564404D01*
X125329973Y-142539596D01*
X125338277Y-142524051D01*
X125354957Y-142516748D01*
X125383553Y-142516664D01*
X125427605Y-142522777D01*
G36*
X115838173Y-143788450D02*
G01*
X115989979Y-143879250D01*
X116126574Y-143975354D01*
X116253909Y-144081320D01*
X116377935Y-144201707D01*
X116378516Y-144202311D01*
X116471084Y-144307040D01*
X116543076Y-144407585D01*
X116594622Y-144504190D01*
X116625850Y-144597102D01*
X116636893Y-144686565D01*
X116636915Y-144689705D01*
X116631768Y-144757089D01*
X116616426Y-144810747D01*
X116591727Y-144848419D01*
X116572826Y-144862377D01*
X116529287Y-144875183D01*
X116480144Y-144875291D01*
X116436338Y-144862781D01*
X116433683Y-144861396D01*
X116408704Y-144841140D01*
X116383197Y-144806341D01*
X116356066Y-144755121D01*
X116326213Y-144685599D01*
X116316251Y-144660081D01*
X116248227Y-144505520D01*
X116164181Y-144356356D01*
X116062001Y-144208976D01*
X116023341Y-144159366D01*
X115972250Y-144098874D01*
X115913876Y-144035247D01*
X115852457Y-143972700D01*
X115792235Y-143915444D01*
X115737450Y-143867692D01*
X115702770Y-143840858D01*
X115675761Y-143820489D01*
X115657506Y-143804697D01*
X115652478Y-143798184D01*
X115659427Y-143787436D01*
X115676998Y-143768004D01*
X115687298Y-143757720D01*
X115722117Y-143723972D01*
X115838173Y-143788450D01*
G37*
X115838173Y-143788450D02*
X115989979Y-143879250D01*
X116126574Y-143975354D01*
X116253909Y-144081320D01*
X116377935Y-144201707D01*
X116378516Y-144202311D01*
X116471084Y-144307040D01*
X116543076Y-144407585D01*
X116594622Y-144504190D01*
X116625850Y-144597102D01*
X116636893Y-144686565D01*
X116636915Y-144689705D01*
X116631768Y-144757089D01*
X116616426Y-144810747D01*
X116591727Y-144848419D01*
X116572826Y-144862377D01*
X116529287Y-144875183D01*
X116480144Y-144875291D01*
X116436338Y-144862781D01*
X116433683Y-144861396D01*
X116408704Y-144841140D01*
X116383197Y-144806341D01*
X116356066Y-144755121D01*
X116326213Y-144685599D01*
X116316251Y-144660081D01*
X116248227Y-144505520D01*
X116164181Y-144356356D01*
X116062001Y-144208976D01*
X116023341Y-144159366D01*
X115972250Y-144098874D01*
X115913876Y-144035247D01*
X115852457Y-143972700D01*
X115792235Y-143915444D01*
X115737450Y-143867692D01*
X115702770Y-143840858D01*
X115675761Y-143820489D01*
X115657506Y-143804697D01*
X115652478Y-143798184D01*
X115659427Y-143787436D01*
X115676998Y-143768004D01*
X115687298Y-143757720D01*
X115722117Y-143723972D01*
X115838173Y-143788450D01*
G36*
X114297247Y-143917292D02*
G01*
X114289810Y-144083048D01*
X114267348Y-144234168D01*
X114229631Y-144371163D01*
X114176431Y-144494546D01*
X114107519Y-144604828D01*
X114022665Y-144702520D01*
X113921643Y-144788135D01*
X113901417Y-144802514D01*
X113828803Y-144844812D01*
X113752345Y-144875222D01*
X113676632Y-144892617D01*
X113606251Y-144895871D01*
X113556105Y-144887307D01*
X113522443Y-144871928D01*
X113490849Y-144849628D01*
X113488968Y-144847902D01*
X113470807Y-144828188D01*
X113462985Y-144808680D01*
X113462688Y-144780370D01*
X113463786Y-144767310D01*
X113475350Y-144721347D01*
X113501894Y-144684950D01*
X113545669Y-144655725D01*
X113583801Y-144639667D01*
X113713579Y-144584535D01*
X113825730Y-144518745D01*
X113921606Y-144441036D01*
X114002555Y-144350148D01*
X114069927Y-144244822D01*
X114118584Y-144140368D01*
X114136140Y-144090895D01*
X114153460Y-144032383D01*
X114169075Y-143970957D01*
X114181516Y-143912740D01*
X114189314Y-143863854D01*
X114191231Y-143837606D01*
X114192720Y-143820355D01*
X114200613Y-143811751D01*
X114220374Y-143808799D01*
X114244308Y-143808490D01*
X114297247Y-143808490D01*
X114297247Y-143917292D01*
G37*
X114297247Y-143917292D02*
X114289810Y-144083048D01*
X114267348Y-144234168D01*
X114229631Y-144371163D01*
X114176431Y-144494546D01*
X114107519Y-144604828D01*
X114022665Y-144702520D01*
X113921643Y-144788135D01*
X113901417Y-144802514D01*
X113828803Y-144844812D01*
X113752345Y-144875222D01*
X113676632Y-144892617D01*
X113606251Y-144895871D01*
X113556105Y-144887307D01*
X113522443Y-144871928D01*
X113490849Y-144849628D01*
X113488968Y-144847902D01*
X113470807Y-144828188D01*
X113462985Y-144808680D01*
X113462688Y-144780370D01*
X113463786Y-144767310D01*
X113475350Y-144721347D01*
X113501894Y-144684950D01*
X113545669Y-144655725D01*
X113583801Y-144639667D01*
X113713579Y-144584535D01*
X113825730Y-144518745D01*
X113921606Y-144441036D01*
X114002555Y-144350148D01*
X114069927Y-144244822D01*
X114118584Y-144140368D01*
X114136140Y-144090895D01*
X114153460Y-144032383D01*
X114169075Y-143970957D01*
X114181516Y-143912740D01*
X114189314Y-143863854D01*
X114191231Y-143837606D01*
X114192720Y-143820355D01*
X114200613Y-143811751D01*
X114220374Y-143808799D01*
X114244308Y-143808490D01*
X114297247Y-143808490D01*
X114297247Y-143917292D01*
G36*
X121557539Y-142652640D02*
G01*
X121570333Y-142673949D01*
X121570861Y-142675197D01*
X121589681Y-142705135D01*
X121621371Y-142740522D01*
X121660459Y-142776223D01*
X121701475Y-142807101D01*
X121728355Y-142823070D01*
X121759989Y-142838328D01*
X121790583Y-142850563D01*
X121822816Y-142860043D01*
X121859366Y-142867034D01*
X121902910Y-142871804D01*
X121956127Y-142874621D01*
X122021695Y-142875752D01*
X122102291Y-142875463D01*
X122200593Y-142874024D01*
X122232762Y-142873429D01*
X122456593Y-142867541D01*
X122694828Y-142858257D01*
X122941025Y-142845899D01*
X123188741Y-142830789D01*
X123424736Y-142813782D01*
X123511515Y-142806734D01*
X123580231Y-142800181D01*
X123633962Y-142793371D01*
X123675784Y-142785549D01*
X123708773Y-142775965D01*
X123736005Y-142763865D01*
X123760559Y-142748496D01*
X123785509Y-142729107D01*
X123791568Y-142724050D01*
X123830183Y-142695714D01*
X123863483Y-142683472D01*
X123898599Y-142686288D01*
X123940937Y-142702333D01*
X123993466Y-142730246D01*
X124046553Y-142765194D01*
X124096968Y-142804269D01*
X124141481Y-142844568D01*
X124176864Y-142883184D01*
X124199888Y-142917213D01*
X124207376Y-142942039D01*
X124197239Y-142977006D01*
X124168599Y-143008164D01*
X124129472Y-143030345D01*
X124090611Y-143052978D01*
X124065234Y-143085256D01*
X124049330Y-143130874D01*
X124045951Y-143151371D01*
X124040947Y-143190518D01*
X124034578Y-143245875D01*
X124027106Y-143314999D01*
X124018789Y-143395450D01*
X124009887Y-143484788D01*
X124000662Y-143580570D01*
X123995175Y-143639086D01*
X123981584Y-143784653D01*
X123969564Y-143911334D01*
X123958881Y-144021342D01*
X123949298Y-144116887D01*
X123940582Y-144200184D01*
X123932496Y-144273443D01*
X123924806Y-144338877D01*
X123917277Y-144398699D01*
X123909673Y-144455120D01*
X123904764Y-144489742D01*
X123898370Y-144536324D01*
X123893769Y-144574401D01*
X123891449Y-144599591D01*
X123891615Y-144607580D01*
X123902162Y-144613577D01*
X123926045Y-144626051D01*
X123951579Y-144639016D01*
X124007415Y-144672597D01*
X124055827Y-144712218D01*
X124092568Y-144753819D01*
X124113390Y-144793335D01*
X124113590Y-144793992D01*
X124119174Y-144833940D01*
X124107842Y-144863805D01*
X124078382Y-144885177D01*
X124033651Y-144898826D01*
X124008653Y-144903509D01*
X123985896Y-144905893D01*
X123961277Y-144905595D01*
X123930690Y-144902232D01*
X123890033Y-144895422D01*
X123835200Y-144884783D01*
X123794454Y-144876537D01*
X123711786Y-144863729D01*
X123610016Y-144854851D01*
X123490846Y-144849893D01*
X123355980Y-144848844D01*
X123207120Y-144851691D01*
X123045970Y-144858423D01*
X122874232Y-144869029D01*
X122693610Y-144883497D01*
X122688035Y-144883994D01*
X122510238Y-144901301D01*
X122353399Y-144919560D01*
X122217551Y-144938766D01*
X122102730Y-144958912D01*
X122008972Y-144979993D01*
X121936313Y-145002002D01*
X121901867Y-145016115D01*
X121829790Y-145041414D01*
X121761864Y-145046750D01*
X121695387Y-145032195D01*
X121671611Y-145022251D01*
X121610767Y-144985573D01*
X121551180Y-144935052D01*
X121496979Y-144875499D01*
X121452293Y-144811729D01*
X121421250Y-144748553D01*
X121412490Y-144720195D01*
X121405784Y-144683185D01*
X121406762Y-144651021D01*
X121415866Y-144611956D01*
X121416678Y-144609143D01*
X121430607Y-144572404D01*
X121449485Y-144536624D01*
X121469870Y-144507102D01*
X121488318Y-144489140D01*
X121496612Y-144486106D01*
X121505289Y-144494866D01*
X121519491Y-144517677D01*
X121533915Y-144545172D01*
X121576248Y-144614242D01*
X121628545Y-144666517D01*
X121693352Y-144703831D01*
X121773214Y-144728017D01*
X121792975Y-144731745D01*
X121808953Y-144733997D01*
X121828268Y-144735639D01*
X121852380Y-144736614D01*
X121882750Y-144736861D01*
X121920837Y-144736322D01*
X121968103Y-144734939D01*
X122026006Y-144732652D01*
X122096008Y-144729402D01*
X122179569Y-144725132D01*
X122278149Y-144719781D01*
X122393208Y-144713292D01*
X122526206Y-144705606D01*
X122678604Y-144696662D01*
X122709463Y-144694841D01*
X122878934Y-144684720D01*
X123028066Y-144675576D01*
X123157670Y-144667350D01*
X123268556Y-144659982D01*
X123361536Y-144653412D01*
X123437421Y-144647580D01*
X123497021Y-144642426D01*
X123541148Y-144637891D01*
X123570613Y-144633914D01*
X123586226Y-144630436D01*
X123587049Y-144630117D01*
X123616292Y-144611277D01*
X123628986Y-144585024D01*
X123634199Y-144551856D01*
X123640479Y-144499851D01*
X123647644Y-144431308D01*
X123655515Y-144348528D01*
X123663912Y-144253811D01*
X123672653Y-144149460D01*
X123681560Y-144037773D01*
X123690450Y-143921052D01*
X123699144Y-143801597D01*
X123707462Y-143681709D01*
X123715223Y-143563689D01*
X123722247Y-143449837D01*
X123728353Y-143342454D01*
X123732130Y-143269428D01*
X123744837Y-143010941D01*
X123719810Y-142990675D01*
X123705260Y-142981014D01*
X123687756Y-142975626D01*
X123662065Y-142973907D01*
X123622952Y-142975254D01*
X123599038Y-142976734D01*
X123376682Y-142991709D01*
X123174485Y-143005955D01*
X122991444Y-143019579D01*
X122826560Y-143032688D01*
X122678830Y-143045386D01*
X122547254Y-143057780D01*
X122430831Y-143069976D01*
X122328559Y-143082080D01*
X122239437Y-143094198D01*
X122162466Y-143106437D01*
X122096642Y-143118901D01*
X122040966Y-143131698D01*
X121994436Y-143144933D01*
X121986439Y-143147542D01*
X121938614Y-143162607D01*
X121895389Y-143174614D01*
X121862415Y-143182081D01*
X121848230Y-143183813D01*
X121803470Y-143174848D01*
X121752403Y-143150067D01*
X121698093Y-143112645D01*
X121643607Y-143065754D01*
X121592009Y-143012566D01*
X121546365Y-142956256D01*
X121509741Y-142899995D01*
X121485203Y-142846957D01*
X121475814Y-142800315D01*
X121475797Y-142798316D01*
X121480228Y-142752793D01*
X121491898Y-142709728D01*
X121508621Y-142674011D01*
X121528208Y-142650531D01*
X121544915Y-142643838D01*
X121557539Y-142652640D01*
G37*
X121557539Y-142652640D02*
X121570333Y-142673949D01*
X121570861Y-142675197D01*
X121589681Y-142705135D01*
X121621371Y-142740522D01*
X121660459Y-142776223D01*
X121701475Y-142807101D01*
X121728355Y-142823070D01*
X121759989Y-142838328D01*
X121790583Y-142850563D01*
X121822816Y-142860043D01*
X121859366Y-142867034D01*
X121902910Y-142871804D01*
X121956127Y-142874621D01*
X122021695Y-142875752D01*
X122102291Y-142875463D01*
X122200593Y-142874024D01*
X122232762Y-142873429D01*
X122456593Y-142867541D01*
X122694828Y-142858257D01*
X122941025Y-142845899D01*
X123188741Y-142830789D01*
X123424736Y-142813782D01*
X123511515Y-142806734D01*
X123580231Y-142800181D01*
X123633962Y-142793371D01*
X123675784Y-142785549D01*
X123708773Y-142775965D01*
X123736005Y-142763865D01*
X123760559Y-142748496D01*
X123785509Y-142729107D01*
X123791568Y-142724050D01*
X123830183Y-142695714D01*
X123863483Y-142683472D01*
X123898599Y-142686288D01*
X123940937Y-142702333D01*
X123993466Y-142730246D01*
X124046553Y-142765194D01*
X124096968Y-142804269D01*
X124141481Y-142844568D01*
X124176864Y-142883184D01*
X124199888Y-142917213D01*
X124207376Y-142942039D01*
X124197239Y-142977006D01*
X124168599Y-143008164D01*
X124129472Y-143030345D01*
X124090611Y-143052978D01*
X124065234Y-143085256D01*
X124049330Y-143130874D01*
X124045951Y-143151371D01*
X124040947Y-143190518D01*
X124034578Y-143245875D01*
X124027106Y-143314999D01*
X124018789Y-143395450D01*
X124009887Y-143484788D01*
X124000662Y-143580570D01*
X123995175Y-143639086D01*
X123981584Y-143784653D01*
X123969564Y-143911334D01*
X123958881Y-144021342D01*
X123949298Y-144116887D01*
X123940582Y-144200184D01*
X123932496Y-144273443D01*
X123924806Y-144338877D01*
X123917277Y-144398699D01*
X123909673Y-144455120D01*
X123904764Y-144489742D01*
X123898370Y-144536324D01*
X123893769Y-144574401D01*
X123891449Y-144599591D01*
X123891615Y-144607580D01*
X123902162Y-144613577D01*
X123926045Y-144626051D01*
X123951579Y-144639016D01*
X124007415Y-144672597D01*
X124055827Y-144712218D01*
X124092568Y-144753819D01*
X124113390Y-144793335D01*
X124113590Y-144793992D01*
X124119174Y-144833940D01*
X124107842Y-144863805D01*
X124078382Y-144885177D01*
X124033651Y-144898826D01*
X124008653Y-144903509D01*
X123985896Y-144905893D01*
X123961277Y-144905595D01*
X123930690Y-144902232D01*
X123890033Y-144895422D01*
X123835200Y-144884783D01*
X123794454Y-144876537D01*
X123711786Y-144863729D01*
X123610016Y-144854851D01*
X123490846Y-144849893D01*
X123355980Y-144848844D01*
X123207120Y-144851691D01*
X123045970Y-144858423D01*
X122874232Y-144869029D01*
X122693610Y-144883497D01*
X122688035Y-144883994D01*
X122510238Y-144901301D01*
X122353399Y-144919560D01*
X122217551Y-144938766D01*
X122102730Y-144958912D01*
X122008972Y-144979993D01*
X121936313Y-145002002D01*
X121901867Y-145016115D01*
X121829790Y-145041414D01*
X121761864Y-145046750D01*
X121695387Y-145032195D01*
X121671611Y-145022251D01*
X121610767Y-144985573D01*
X121551180Y-144935052D01*
X121496979Y-144875499D01*
X121452293Y-144811729D01*
X121421250Y-144748553D01*
X121412490Y-144720195D01*
X121405784Y-144683185D01*
X121406762Y-144651021D01*
X121415866Y-144611956D01*
X121416678Y-144609143D01*
X121430607Y-144572404D01*
X121449485Y-144536624D01*
X121469870Y-144507102D01*
X121488318Y-144489140D01*
X121496612Y-144486106D01*
X121505289Y-144494866D01*
X121519491Y-144517677D01*
X121533915Y-144545172D01*
X121576248Y-144614242D01*
X121628545Y-144666517D01*
X121693352Y-144703831D01*
X121773214Y-144728017D01*
X121792975Y-144731745D01*
X121808953Y-144733997D01*
X121828268Y-144735639D01*
X121852380Y-144736614D01*
X121882750Y-144736861D01*
X121920837Y-144736322D01*
X121968103Y-144734939D01*
X122026006Y-144732652D01*
X122096008Y-144729402D01*
X122179569Y-144725132D01*
X122278149Y-144719781D01*
X122393208Y-144713292D01*
X122526206Y-144705606D01*
X122678604Y-144696662D01*
X122709463Y-144694841D01*
X122878934Y-144684720D01*
X123028066Y-144675576D01*
X123157670Y-144667350D01*
X123268556Y-144659982D01*
X123361536Y-144653412D01*
X123437421Y-144647580D01*
X123497021Y-144642426D01*
X123541148Y-144637891D01*
X123570613Y-144633914D01*
X123586226Y-144630436D01*
X123587049Y-144630117D01*
X123616292Y-144611277D01*
X123628986Y-144585024D01*
X123634199Y-144551856D01*
X123640479Y-144499851D01*
X123647644Y-144431308D01*
X123655515Y-144348528D01*
X123663912Y-144253811D01*
X123672653Y-144149460D01*
X123681560Y-144037773D01*
X123690450Y-143921052D01*
X123699144Y-143801597D01*
X123707462Y-143681709D01*
X123715223Y-143563689D01*
X123722247Y-143449837D01*
X123728353Y-143342454D01*
X123732130Y-143269428D01*
X123744837Y-143010941D01*
X123719810Y-142990675D01*
X123705260Y-142981014D01*
X123687756Y-142975626D01*
X123662065Y-142973907D01*
X123622952Y-142975254D01*
X123599038Y-142976734D01*
X123376682Y-142991709D01*
X123174485Y-143005955D01*
X122991444Y-143019579D01*
X122826560Y-143032688D01*
X122678830Y-143045386D01*
X122547254Y-143057780D01*
X122430831Y-143069976D01*
X122328559Y-143082080D01*
X122239437Y-143094198D01*
X122162466Y-143106437D01*
X122096642Y-143118901D01*
X122040966Y-143131698D01*
X121994436Y-143144933D01*
X121986439Y-143147542D01*
X121938614Y-143162607D01*
X121895389Y-143174614D01*
X121862415Y-143182081D01*
X121848230Y-143183813D01*
X121803470Y-143174848D01*
X121752403Y-143150067D01*
X121698093Y-143112645D01*
X121643607Y-143065754D01*
X121592009Y-143012566D01*
X121546365Y-142956256D01*
X121509741Y-142899995D01*
X121485203Y-142846957D01*
X121475814Y-142800315D01*
X121475797Y-142798316D01*
X121480228Y-142752793D01*
X121491898Y-142709728D01*
X121508621Y-142674011D01*
X121528208Y-142650531D01*
X121544915Y-142643838D01*
X121557539Y-142652640D01*
G36*
X128323995Y-142777398D02*
G01*
X128349710Y-142793759D01*
X128365722Y-142805921D01*
X128368360Y-142809360D01*
X128363860Y-142820227D01*
X128351431Y-142846668D01*
X128332683Y-142885347D01*
X128309225Y-142932931D01*
X128293279Y-142964929D01*
X128147891Y-143231977D01*
X127984679Y-143487814D01*
X127803992Y-143732100D01*
X127606177Y-143964496D01*
X127391581Y-144184664D01*
X127160551Y-144392264D01*
X126913436Y-144586958D01*
X126650583Y-144768406D01*
X126372339Y-144936270D01*
X126150257Y-145054825D01*
X126078697Y-145091729D01*
X126022928Y-145122377D01*
X125979349Y-145149008D01*
X125944354Y-145173865D01*
X125914340Y-145199189D01*
X125906738Y-145206288D01*
X125863176Y-145246188D01*
X125829452Y-145272128D01*
X125801290Y-145285934D01*
X125774414Y-145289431D01*
X125744546Y-145284442D01*
X125732012Y-145280852D01*
X125666037Y-145252830D01*
X125596015Y-145209047D01*
X125527139Y-145152797D01*
X125520988Y-145147060D01*
X125450610Y-145072506D01*
X125399798Y-145000383D01*
X125368707Y-144931290D01*
X125357496Y-144865826D01*
X125366320Y-144804589D01*
X125395338Y-144748179D01*
X125411306Y-144728560D01*
X125449445Y-144686345D01*
X125479685Y-144749351D01*
X125521698Y-144817162D01*
X125573590Y-144866813D01*
X125634598Y-144897774D01*
X125703958Y-144909518D01*
X125711258Y-144909615D01*
X125764582Y-144903514D01*
X125833000Y-144885846D01*
X125914524Y-144857560D01*
X126007169Y-144819608D01*
X126108949Y-144772941D01*
X126217879Y-144718509D01*
X126331971Y-144657264D01*
X126449240Y-144590156D01*
X126567701Y-144518136D01*
X126679615Y-144445979D01*
X126847340Y-144329995D01*
X127007249Y-144209452D01*
X127163487Y-144080914D01*
X127320198Y-143940947D01*
X127481525Y-143786113D01*
X127511417Y-143756356D01*
X127656907Y-143606222D01*
X127786739Y-143462099D01*
X127903973Y-143320100D01*
X128011670Y-143176338D01*
X128112891Y-143026926D01*
X128209835Y-142869441D01*
X128279630Y-142750942D01*
X128323995Y-142777398D01*
G37*
X128323995Y-142777398D02*
X128349710Y-142793759D01*
X128365722Y-142805921D01*
X128368360Y-142809360D01*
X128363860Y-142820227D01*
X128351431Y-142846668D01*
X128332683Y-142885347D01*
X128309225Y-142932931D01*
X128293279Y-142964929D01*
X128147891Y-143231977D01*
X127984679Y-143487814D01*
X127803992Y-143732100D01*
X127606177Y-143964496D01*
X127391581Y-144184664D01*
X127160551Y-144392264D01*
X126913436Y-144586958D01*
X126650583Y-144768406D01*
X126372339Y-144936270D01*
X126150257Y-145054825D01*
X126078697Y-145091729D01*
X126022928Y-145122377D01*
X125979349Y-145149008D01*
X125944354Y-145173865D01*
X125914340Y-145199189D01*
X125906738Y-145206288D01*
X125863176Y-145246188D01*
X125829452Y-145272128D01*
X125801290Y-145285934D01*
X125774414Y-145289431D01*
X125744546Y-145284442D01*
X125732012Y-145280852D01*
X125666037Y-145252830D01*
X125596015Y-145209047D01*
X125527139Y-145152797D01*
X125520988Y-145147060D01*
X125450610Y-145072506D01*
X125399798Y-145000383D01*
X125368707Y-144931290D01*
X125357496Y-144865826D01*
X125366320Y-144804589D01*
X125395338Y-144748179D01*
X125411306Y-144728560D01*
X125449445Y-144686345D01*
X125479685Y-144749351D01*
X125521698Y-144817162D01*
X125573590Y-144866813D01*
X125634598Y-144897774D01*
X125703958Y-144909518D01*
X125711258Y-144909615D01*
X125764582Y-144903514D01*
X125833000Y-144885846D01*
X125914524Y-144857560D01*
X126007169Y-144819608D01*
X126108949Y-144772941D01*
X126217879Y-144718509D01*
X126331971Y-144657264D01*
X126449240Y-144590156D01*
X126567701Y-144518136D01*
X126679615Y-144445979D01*
X126847340Y-144329995D01*
X127007249Y-144209452D01*
X127163487Y-144080914D01*
X127320198Y-143940947D01*
X127481525Y-143786113D01*
X127511417Y-143756356D01*
X127656907Y-143606222D01*
X127786739Y-143462099D01*
X127903973Y-143320100D01*
X128011670Y-143176338D01*
X128112891Y-143026926D01*
X128209835Y-142869441D01*
X128279630Y-142750942D01*
X128323995Y-142777398D01*
G36*
X114888239Y-142224449D02*
G01*
X114966909Y-142240083D01*
X115043897Y-142264083D01*
X115114518Y-142295404D01*
X115174086Y-142333000D01*
X115195462Y-142351142D01*
X115234288Y-142393732D01*
X115254912Y-142433698D01*
X115257902Y-142475438D01*
X115243828Y-142523347D01*
X115223103Y-142564749D01*
X115185474Y-142632036D01*
X115173921Y-142865801D01*
X115170749Y-142933795D01*
X115168284Y-142994310D01*
X115166623Y-143044278D01*
X115165860Y-143080631D01*
X115166092Y-143100302D01*
X115166552Y-143102899D01*
X115178271Y-143103368D01*
X115207764Y-143102196D01*
X115251714Y-143099641D01*
X115306804Y-143095963D01*
X115369718Y-143091419D01*
X115437138Y-143086269D01*
X115505749Y-143080770D01*
X115572233Y-143075183D01*
X115633274Y-143069764D01*
X115685555Y-143064774D01*
X115725761Y-143060470D01*
X115747768Y-143057575D01*
X115830649Y-143041275D01*
X115895424Y-143020959D01*
X115944956Y-142995585D01*
X115969378Y-142976754D01*
X115993151Y-142957471D01*
X116016047Y-142945901D01*
X116042540Y-142941803D01*
X116077104Y-142944934D01*
X116124213Y-142955053D01*
X116166696Y-142966068D01*
X116257770Y-142994179D01*
X116334676Y-143025460D01*
X116396501Y-143058984D01*
X116442334Y-143093824D01*
X116471262Y-143129051D01*
X116482373Y-143163740D01*
X116474755Y-143196962D01*
X116447496Y-143227791D01*
X116433691Y-143237500D01*
X116417492Y-143246687D01*
X116400509Y-143252592D01*
X116378280Y-143255635D01*
X116346342Y-143256241D01*
X116300232Y-143254831D01*
X116266568Y-143253319D01*
X116198608Y-143249736D01*
X116122053Y-143245108D01*
X116048153Y-143240138D01*
X116007168Y-143237081D01*
X115961849Y-143234853D01*
X115899292Y-143233685D01*
X115823404Y-143233493D01*
X115738092Y-143234191D01*
X115647262Y-143235695D01*
X115554821Y-143237922D01*
X115464676Y-143240785D01*
X115380733Y-143244202D01*
X115306899Y-143248087D01*
X115247081Y-143252356D01*
X115230745Y-143253868D01*
X115163701Y-143260580D01*
X115168670Y-144045394D01*
X115169705Y-144198985D01*
X115170760Y-144332927D01*
X115171872Y-144448744D01*
X115173078Y-144547962D01*
X115174416Y-144632106D01*
X115175924Y-144702702D01*
X115177640Y-144761275D01*
X115179600Y-144809351D01*
X115181843Y-144848455D01*
X115184406Y-144880113D01*
X115187326Y-144905850D01*
X115190341Y-144925497D01*
X115201993Y-145003610D01*
X115206365Y-145067583D01*
X115203385Y-145123186D01*
X115192977Y-145176191D01*
X115186871Y-145197465D01*
X115157173Y-145271581D01*
X115118585Y-145333260D01*
X115073532Y-145378939D01*
X115054840Y-145391584D01*
X115008568Y-145412679D01*
X114970264Y-145415742D01*
X114936677Y-145400698D01*
X114922812Y-145388581D01*
X114903117Y-145362464D01*
X114882647Y-145325400D01*
X114869953Y-145295938D01*
X114849373Y-145249371D01*
X114823520Y-145210445D01*
X114787843Y-145173585D01*
X114737792Y-145133218D01*
X114736116Y-145131966D01*
X114691319Y-145101117D01*
X114632269Y-145064206D01*
X114563928Y-145024071D01*
X114491260Y-144983547D01*
X114419225Y-144945471D01*
X114352788Y-144912680D01*
X114351180Y-144911924D01*
X114309201Y-144892101D01*
X114274996Y-144875758D01*
X114252690Y-144864876D01*
X114246221Y-144861471D01*
X114245393Y-144849596D01*
X114251431Y-144827560D01*
X114261286Y-144802941D01*
X114271905Y-144783318D01*
X114280239Y-144776273D01*
X114280483Y-144776360D01*
X114295983Y-144781959D01*
X114328033Y-144792762D01*
X114372986Y-144807596D01*
X114427200Y-144825285D01*
X114487030Y-144844659D01*
X114548832Y-144864543D01*
X114608961Y-144883764D01*
X114663774Y-144901149D01*
X114709627Y-144915525D01*
X114742875Y-144925718D01*
X114757814Y-144930037D01*
X114798080Y-144937611D01*
X114840418Y-144941262D01*
X114844919Y-144941319D01*
X114867535Y-144940450D01*
X114885327Y-144936216D01*
X114899015Y-144926285D01*
X114909319Y-144908321D01*
X114916960Y-144879988D01*
X114922659Y-144838953D01*
X114927136Y-144782879D01*
X114931112Y-144709433D01*
X114933658Y-144653770D01*
X114935527Y-144600618D01*
X114937110Y-144533372D01*
X114938414Y-144454169D01*
X114939446Y-144365148D01*
X114940210Y-144268446D01*
X114940714Y-144166201D01*
X114940963Y-144060550D01*
X114940963Y-143953631D01*
X114940722Y-143847583D01*
X114940243Y-143744542D01*
X114939535Y-143646646D01*
X114938602Y-143556034D01*
X114937452Y-143474842D01*
X114936090Y-143405209D01*
X114934521Y-143349273D01*
X114932753Y-143309170D01*
X114930792Y-143287039D01*
X114929744Y-143283385D01*
X114916412Y-143281353D01*
X114885050Y-143281709D01*
X114838636Y-143284165D01*
X114780145Y-143288432D01*
X114712554Y-143294223D01*
X114638839Y-143301249D01*
X114561977Y-143309222D01*
X114484945Y-143317853D01*
X114410718Y-143326855D01*
X114342273Y-143335938D01*
X114282586Y-143344816D01*
X114264246Y-143347833D01*
X114208096Y-143359889D01*
X114146669Y-143376957D01*
X114092764Y-143395459D01*
X114090195Y-143396479D01*
X114040365Y-143414692D01*
X114002167Y-143423938D01*
X113968807Y-143425685D01*
X113958589Y-143424953D01*
X113894341Y-143410794D01*
X113830576Y-143382473D01*
X113770272Y-143342920D01*
X113716403Y-143295066D01*
X113671945Y-143241841D01*
X113639874Y-143186174D01*
X113623164Y-143130997D01*
X113622256Y-143093746D01*
X113629586Y-143057801D01*
X113641291Y-143026411D01*
X113645027Y-143019856D01*
X113662618Y-143002365D01*
X113682806Y-142993795D01*
X113698891Y-142995632D01*
X113704333Y-143006703D01*
X113712277Y-143027284D01*
X113732856Y-143054621D01*
X113761195Y-143083568D01*
X113792414Y-143108975D01*
X113813580Y-143122005D01*
X113846966Y-143137645D01*
X113881625Y-143150549D01*
X113919432Y-143160774D01*
X113962261Y-143168374D01*
X114011989Y-143173408D01*
X114070489Y-143175930D01*
X114139638Y-143175996D01*
X114221310Y-143173664D01*
X114317381Y-143168988D01*
X114429725Y-143162026D01*
X114560218Y-143152832D01*
X114641349Y-143146774D01*
X114708898Y-143141499D01*
X114771685Y-143136308D01*
X114825715Y-143131554D01*
X114866990Y-143127590D01*
X114891515Y-143124768D01*
X114892808Y-143124575D01*
X114932512Y-143118425D01*
X114932285Y-143021419D01*
X114931178Y-142956256D01*
X114928359Y-142882792D01*
X114924168Y-142805916D01*
X114918945Y-142730518D01*
X114913030Y-142661488D01*
X114906763Y-142603714D01*
X114900483Y-142562086D01*
X114900309Y-142561196D01*
X114880804Y-142490715D01*
X114852297Y-142438038D01*
X114812600Y-142401415D01*
X114759528Y-142379099D01*
X114690895Y-142369338D01*
X114659567Y-142368557D01*
X114616533Y-142368312D01*
X114590799Y-142366822D01*
X114578493Y-142362950D01*
X114575740Y-142355561D01*
X114578298Y-142344734D01*
X114598123Y-142308739D01*
X114633072Y-142273309D01*
X114677631Y-142243753D01*
X114688994Y-142238191D01*
X114744597Y-142222458D01*
X114812574Y-142218226D01*
X114888239Y-142224449D01*
G37*
X114888239Y-142224449D02*
X114966909Y-142240083D01*
X115043897Y-142264083D01*
X115114518Y-142295404D01*
X115174086Y-142333000D01*
X115195462Y-142351142D01*
X115234288Y-142393732D01*
X115254912Y-142433698D01*
X115257902Y-142475438D01*
X115243828Y-142523347D01*
X115223103Y-142564749D01*
X115185474Y-142632036D01*
X115173921Y-142865801D01*
X115170749Y-142933795D01*
X115168284Y-142994310D01*
X115166623Y-143044278D01*
X115165860Y-143080631D01*
X115166092Y-143100302D01*
X115166552Y-143102899D01*
X115178271Y-143103368D01*
X115207764Y-143102196D01*
X115251714Y-143099641D01*
X115306804Y-143095963D01*
X115369718Y-143091419D01*
X115437138Y-143086269D01*
X115505749Y-143080770D01*
X115572233Y-143075183D01*
X115633274Y-143069764D01*
X115685555Y-143064774D01*
X115725761Y-143060470D01*
X115747768Y-143057575D01*
X115830649Y-143041275D01*
X115895424Y-143020959D01*
X115944956Y-142995585D01*
X115969378Y-142976754D01*
X115993151Y-142957471D01*
X116016047Y-142945901D01*
X116042540Y-142941803D01*
X116077104Y-142944934D01*
X116124213Y-142955053D01*
X116166696Y-142966068D01*
X116257770Y-142994179D01*
X116334676Y-143025460D01*
X116396501Y-143058984D01*
X116442334Y-143093824D01*
X116471262Y-143129051D01*
X116482373Y-143163740D01*
X116474755Y-143196962D01*
X116447496Y-143227791D01*
X116433691Y-143237500D01*
X116417492Y-143246687D01*
X116400509Y-143252592D01*
X116378280Y-143255635D01*
X116346342Y-143256241D01*
X116300232Y-143254831D01*
X116266568Y-143253319D01*
X116198608Y-143249736D01*
X116122053Y-143245108D01*
X116048153Y-143240138D01*
X116007168Y-143237081D01*
X115961849Y-143234853D01*
X115899292Y-143233685D01*
X115823404Y-143233493D01*
X115738092Y-143234191D01*
X115647262Y-143235695D01*
X115554821Y-143237922D01*
X115464676Y-143240785D01*
X115380733Y-143244202D01*
X115306899Y-143248087D01*
X115247081Y-143252356D01*
X115230745Y-143253868D01*
X115163701Y-143260580D01*
X115168670Y-144045394D01*
X115169705Y-144198985D01*
X115170760Y-144332927D01*
X115171872Y-144448744D01*
X115173078Y-144547962D01*
X115174416Y-144632106D01*
X115175924Y-144702702D01*
X115177640Y-144761275D01*
X115179600Y-144809351D01*
X115181843Y-144848455D01*
X115184406Y-144880113D01*
X115187326Y-144905850D01*
X115190341Y-144925497D01*
X115201993Y-145003610D01*
X115206365Y-145067583D01*
X115203385Y-145123186D01*
X115192977Y-145176191D01*
X115186871Y-145197465D01*
X115157173Y-145271581D01*
X115118585Y-145333260D01*
X115073532Y-145378939D01*
X115054840Y-145391584D01*
X115008568Y-145412679D01*
X114970264Y-145415742D01*
X114936677Y-145400698D01*
X114922812Y-145388581D01*
X114903117Y-145362464D01*
X114882647Y-145325400D01*
X114869953Y-145295938D01*
X114849373Y-145249371D01*
X114823520Y-145210445D01*
X114787843Y-145173585D01*
X114737792Y-145133218D01*
X114736116Y-145131966D01*
X114691319Y-145101117D01*
X114632269Y-145064206D01*
X114563928Y-145024071D01*
X114491260Y-144983547D01*
X114419225Y-144945471D01*
X114352788Y-144912680D01*
X114351180Y-144911924D01*
X114309201Y-144892101D01*
X114274996Y-144875758D01*
X114252690Y-144864876D01*
X114246221Y-144861471D01*
X114245393Y-144849596D01*
X114251431Y-144827560D01*
X114261286Y-144802941D01*
X114271905Y-144783318D01*
X114280239Y-144776273D01*
X114280483Y-144776360D01*
X114295983Y-144781959D01*
X114328033Y-144792762D01*
X114372986Y-144807596D01*
X114427200Y-144825285D01*
X114487030Y-144844659D01*
X114548832Y-144864543D01*
X114608961Y-144883764D01*
X114663774Y-144901149D01*
X114709627Y-144915525D01*
X114742875Y-144925718D01*
X114757814Y-144930037D01*
X114798080Y-144937611D01*
X114840418Y-144941262D01*
X114844919Y-144941319D01*
X114867535Y-144940450D01*
X114885327Y-144936216D01*
X114899015Y-144926285D01*
X114909319Y-144908321D01*
X114916960Y-144879988D01*
X114922659Y-144838953D01*
X114927136Y-144782879D01*
X114931112Y-144709433D01*
X114933658Y-144653770D01*
X114935527Y-144600618D01*
X114937110Y-144533372D01*
X114938414Y-144454169D01*
X114939446Y-144365148D01*
X114940210Y-144268446D01*
X114940714Y-144166201D01*
X114940963Y-144060550D01*
X114940963Y-143953631D01*
X114940722Y-143847583D01*
X114940243Y-143744542D01*
X114939535Y-143646646D01*
X114938602Y-143556034D01*
X114937452Y-143474842D01*
X114936090Y-143405209D01*
X114934521Y-143349273D01*
X114932753Y-143309170D01*
X114930792Y-143287039D01*
X114929744Y-143283385D01*
X114916412Y-143281353D01*
X114885050Y-143281709D01*
X114838636Y-143284165D01*
X114780145Y-143288432D01*
X114712554Y-143294223D01*
X114638839Y-143301249D01*
X114561977Y-143309222D01*
X114484945Y-143317853D01*
X114410718Y-143326855D01*
X114342273Y-143335938D01*
X114282586Y-143344816D01*
X114264246Y-143347833D01*
X114208096Y-143359889D01*
X114146669Y-143376957D01*
X114092764Y-143395459D01*
X114090195Y-143396479D01*
X114040365Y-143414692D01*
X114002167Y-143423938D01*
X113968807Y-143425685D01*
X113958589Y-143424953D01*
X113894341Y-143410794D01*
X113830576Y-143382473D01*
X113770272Y-143342920D01*
X113716403Y-143295066D01*
X113671945Y-143241841D01*
X113639874Y-143186174D01*
X113623164Y-143130997D01*
X113622256Y-143093746D01*
X113629586Y-143057801D01*
X113641291Y-143026411D01*
X113645027Y-143019856D01*
X113662618Y-143002365D01*
X113682806Y-142993795D01*
X113698891Y-142995632D01*
X113704333Y-143006703D01*
X113712277Y-143027284D01*
X113732856Y-143054621D01*
X113761195Y-143083568D01*
X113792414Y-143108975D01*
X113813580Y-143122005D01*
X113846966Y-143137645D01*
X113881625Y-143150549D01*
X113919432Y-143160774D01*
X113962261Y-143168374D01*
X114011989Y-143173408D01*
X114070489Y-143175930D01*
X114139638Y-143175996D01*
X114221310Y-143173664D01*
X114317381Y-143168988D01*
X114429725Y-143162026D01*
X114560218Y-143152832D01*
X114641349Y-143146774D01*
X114708898Y-143141499D01*
X114771685Y-143136308D01*
X114825715Y-143131554D01*
X114866990Y-143127590D01*
X114891515Y-143124768D01*
X114892808Y-143124575D01*
X114932512Y-143118425D01*
X114932285Y-143021419D01*
X114931178Y-142956256D01*
X114928359Y-142882792D01*
X114924168Y-142805916D01*
X114918945Y-142730518D01*
X114913030Y-142661488D01*
X114906763Y-142603714D01*
X114900483Y-142562086D01*
X114900309Y-142561196D01*
X114880804Y-142490715D01*
X114852297Y-142438038D01*
X114812600Y-142401415D01*
X114759528Y-142379099D01*
X114690895Y-142369338D01*
X114659567Y-142368557D01*
X114616533Y-142368312D01*
X114590799Y-142366822D01*
X114578493Y-142362950D01*
X114575740Y-142355561D01*
X114578298Y-142344734D01*
X114598123Y-142308739D01*
X114633072Y-142273309D01*
X114677631Y-142243753D01*
X114688994Y-142238191D01*
X114744597Y-142222458D01*
X114812574Y-142218226D01*
X114888239Y-142224449D01*
G36*
X118260050Y-142127513D02*
G01*
X118339866Y-142136536D01*
X118416387Y-142153861D01*
X118487140Y-142178073D01*
X118549652Y-142207756D01*
X118601450Y-142241496D01*
X118640061Y-142277877D01*
X118663011Y-142315483D01*
X118667828Y-142352900D01*
X118666433Y-142360093D01*
X118653987Y-142381697D01*
X118630060Y-142406123D01*
X118616437Y-142416624D01*
X118599081Y-142429398D01*
X118584216Y-142443057D01*
X118570264Y-142460372D01*
X118555647Y-142484116D01*
X118538787Y-142517061D01*
X118518105Y-142561979D01*
X118492023Y-142621641D01*
X118468542Y-142676388D01*
X118438166Y-142745432D01*
X118402652Y-142822980D01*
X118366253Y-142899906D01*
X118333225Y-142967081D01*
X118330821Y-142971829D01*
X118305874Y-143021556D01*
X118285064Y-143064167D01*
X118269975Y-143096329D01*
X118262188Y-143114710D01*
X118261543Y-143117707D01*
X118272785Y-143120277D01*
X118299952Y-143124353D01*
X118337912Y-143129190D01*
X118352125Y-143130848D01*
X118407987Y-143134357D01*
X118483275Y-143134545D01*
X118576516Y-143131524D01*
X118686241Y-143125408D01*
X118810979Y-143116310D01*
X118949259Y-143104344D01*
X119099612Y-143089621D01*
X119260565Y-143072257D01*
X119430650Y-143052362D01*
X119527593Y-143040379D01*
X119638469Y-143025545D01*
X119731204Y-143010993D01*
X119808807Y-142995960D01*
X119874287Y-142979680D01*
X119930651Y-142961389D01*
X119980909Y-142940323D01*
X120028069Y-142915716D01*
X120035805Y-142911238D01*
X120063993Y-142896894D01*
X120091969Y-142888777D01*
X120124035Y-142886946D01*
X120164491Y-142891462D01*
X120217640Y-142902387D01*
X120267197Y-142914513D01*
X120351053Y-142939801D01*
X120415337Y-142968538D01*
X120461503Y-143001661D01*
X120491006Y-143040111D01*
X120501145Y-143065531D01*
X120504927Y-143094513D01*
X120494269Y-143118862D01*
X120490023Y-143124516D01*
X120475945Y-143138024D01*
X120455635Y-143148900D01*
X120426700Y-143157522D01*
X120386749Y-143164267D01*
X120333390Y-143169511D01*
X120264231Y-143173632D01*
X120176880Y-143177007D01*
X120152270Y-143177768D01*
X120089818Y-143179953D01*
X120017906Y-143183012D01*
X119939463Y-143186769D01*
X119857417Y-143191045D01*
X119774695Y-143195666D01*
X119694226Y-143200454D01*
X119618937Y-143205231D01*
X119551756Y-143209823D01*
X119495612Y-143214052D01*
X119453433Y-143217740D01*
X119428146Y-143220713D01*
X119423024Y-143221780D01*
X119420846Y-143230045D01*
X119437069Y-143246734D01*
X119449905Y-143256556D01*
X119498672Y-143301224D01*
X119527403Y-143350479D01*
X119534810Y-143378899D01*
X119535318Y-143405696D01*
X119524511Y-143429893D01*
X119509005Y-143449511D01*
X119475132Y-143494245D01*
X119452235Y-143540775D01*
X119436536Y-143597437D01*
X119432541Y-143618360D01*
X119425322Y-143654501D01*
X119414130Y-143704928D01*
X119400391Y-143763449D01*
X119385527Y-143823873D01*
X119382719Y-143834959D01*
X119315243Y-144062445D01*
X119232268Y-144275574D01*
X119133660Y-144474561D01*
X119019287Y-144659621D01*
X118889014Y-144830966D01*
X118742709Y-144988813D01*
X118580237Y-145133373D01*
X118567381Y-145143698D01*
X118520054Y-145179766D01*
X118464106Y-145219705D01*
X118402341Y-145261779D01*
X118337563Y-145304253D01*
X118272575Y-145345390D01*
X118210183Y-145383457D01*
X118153190Y-145416716D01*
X118104401Y-145443433D01*
X118066619Y-145461871D01*
X118042649Y-145470297D01*
X118039134Y-145470635D01*
X118027886Y-145462432D01*
X118011268Y-145442011D01*
X118004847Y-145432571D01*
X117990562Y-145408919D01*
X117983651Y-145394215D01*
X117983672Y-145392212D01*
X117993237Y-145385530D01*
X118016381Y-145369397D01*
X118049306Y-145346461D01*
X118077072Y-145327125D01*
X118262629Y-145185343D01*
X118432469Y-145029653D01*
X118586082Y-144860883D01*
X118722959Y-144679864D01*
X118842588Y-144487423D01*
X118944461Y-144284390D01*
X119028065Y-144071594D01*
X119092892Y-143849863D01*
X119138430Y-143620026D01*
X119141782Y-143597476D01*
X119152601Y-143505093D01*
X119155399Y-143430443D01*
X119149805Y-143371516D01*
X119135453Y-143326301D01*
X119111973Y-143292788D01*
X119081887Y-143270505D01*
X119059330Y-143264102D01*
X119020758Y-143261130D01*
X118965281Y-143261626D01*
X118892010Y-143265632D01*
X118800052Y-143273186D01*
X118688518Y-143284327D01*
X118632929Y-143290385D01*
X118542055Y-143299803D01*
X118468706Y-143305508D01*
X118409529Y-143307323D01*
X118361171Y-143305070D01*
X118320277Y-143298571D01*
X118283495Y-143287649D01*
X118247471Y-143272125D01*
X118242534Y-143269692D01*
X118177656Y-143237333D01*
X118156480Y-143266019D01*
X118044343Y-143411875D01*
X117929425Y-143549841D01*
X117814737Y-143676515D01*
X117703290Y-143788497D01*
X117651783Y-143836074D01*
X117595863Y-143885195D01*
X117539990Y-143932586D01*
X117486731Y-143976229D01*
X117438658Y-144014105D01*
X117398340Y-144044196D01*
X117368345Y-144064483D01*
X117351244Y-144072947D01*
X117350106Y-144073073D01*
X117335968Y-144065668D01*
X117316122Y-144047131D01*
X117310665Y-144040921D01*
X117283519Y-144008659D01*
X117397976Y-143894202D01*
X117573758Y-143705357D01*
X117733582Y-143506722D01*
X117875956Y-143300352D01*
X117999390Y-143088304D01*
X118039816Y-143009115D01*
X118091903Y-142897970D01*
X118137271Y-142790774D01*
X118175392Y-142689428D01*
X118205739Y-142595831D01*
X118227782Y-142511883D01*
X118240995Y-142439485D01*
X118244848Y-142380535D01*
X118238814Y-142336933D01*
X118231268Y-142320455D01*
X118201001Y-142291022D01*
X118156147Y-142268286D01*
X118102895Y-142254846D01*
X118069131Y-142252324D01*
X118033200Y-142249928D01*
X118016350Y-142241923D01*
X118018142Y-142226513D01*
X118038140Y-142201901D01*
X118053250Y-142187071D01*
X118088097Y-142157750D01*
X118122232Y-142138876D01*
X118161353Y-142128810D01*
X118211156Y-142125911D01*
X118260050Y-142127513D01*
G37*
X118260050Y-142127513D02*
X118339866Y-142136536D01*
X118416387Y-142153861D01*
X118487140Y-142178073D01*
X118549652Y-142207756D01*
X118601450Y-142241496D01*
X118640061Y-142277877D01*
X118663011Y-142315483D01*
X118667828Y-142352900D01*
X118666433Y-142360093D01*
X118653987Y-142381697D01*
X118630060Y-142406123D01*
X118616437Y-142416624D01*
X118599081Y-142429398D01*
X118584216Y-142443057D01*
X118570264Y-142460372D01*
X118555647Y-142484116D01*
X118538787Y-142517061D01*
X118518105Y-142561979D01*
X118492023Y-142621641D01*
X118468542Y-142676388D01*
X118438166Y-142745432D01*
X118402652Y-142822980D01*
X118366253Y-142899906D01*
X118333225Y-142967081D01*
X118330821Y-142971829D01*
X118305874Y-143021556D01*
X118285064Y-143064167D01*
X118269975Y-143096329D01*
X118262188Y-143114710D01*
X118261543Y-143117707D01*
X118272785Y-143120277D01*
X118299952Y-143124353D01*
X118337912Y-143129190D01*
X118352125Y-143130848D01*
X118407987Y-143134357D01*
X118483275Y-143134545D01*
X118576516Y-143131524D01*
X118686241Y-143125408D01*
X118810979Y-143116310D01*
X118949259Y-143104344D01*
X119099612Y-143089621D01*
X119260565Y-143072257D01*
X119430650Y-143052362D01*
X119527593Y-143040379D01*
X119638469Y-143025545D01*
X119731204Y-143010993D01*
X119808807Y-142995960D01*
X119874287Y-142979680D01*
X119930651Y-142961389D01*
X119980909Y-142940323D01*
X120028069Y-142915716D01*
X120035805Y-142911238D01*
X120063993Y-142896894D01*
X120091969Y-142888777D01*
X120124035Y-142886946D01*
X120164491Y-142891462D01*
X120217640Y-142902387D01*
X120267197Y-142914513D01*
X120351053Y-142939801D01*
X120415337Y-142968538D01*
X120461503Y-143001661D01*
X120491006Y-143040111D01*
X120501145Y-143065531D01*
X120504927Y-143094513D01*
X120494269Y-143118862D01*
X120490023Y-143124516D01*
X120475945Y-143138024D01*
X120455635Y-143148900D01*
X120426700Y-143157522D01*
X120386749Y-143164267D01*
X120333390Y-143169511D01*
X120264231Y-143173632D01*
X120176880Y-143177007D01*
X120152270Y-143177768D01*
X120089818Y-143179953D01*
X120017906Y-143183012D01*
X119939463Y-143186769D01*
X119857417Y-143191045D01*
X119774695Y-143195666D01*
X119694226Y-143200454D01*
X119618937Y-143205231D01*
X119551756Y-143209823D01*
X119495612Y-143214052D01*
X119453433Y-143217740D01*
X119428146Y-143220713D01*
X119423024Y-143221780D01*
X119420846Y-143230045D01*
X119437069Y-143246734D01*
X119449905Y-143256556D01*
X119498672Y-143301224D01*
X119527403Y-143350479D01*
X119534810Y-143378899D01*
X119535318Y-143405696D01*
X119524511Y-143429893D01*
X119509005Y-143449511D01*
X119475132Y-143494245D01*
X119452235Y-143540775D01*
X119436536Y-143597437D01*
X119432541Y-143618360D01*
X119425322Y-143654501D01*
X119414130Y-143704928D01*
X119400391Y-143763449D01*
X119385527Y-143823873D01*
X119382719Y-143834959D01*
X119315243Y-144062445D01*
X119232268Y-144275574D01*
X119133660Y-144474561D01*
X119019287Y-144659621D01*
X118889014Y-144830966D01*
X118742709Y-144988813D01*
X118580237Y-145133373D01*
X118567381Y-145143698D01*
X118520054Y-145179766D01*
X118464106Y-145219705D01*
X118402341Y-145261779D01*
X118337563Y-145304253D01*
X118272575Y-145345390D01*
X118210183Y-145383457D01*
X118153190Y-145416716D01*
X118104401Y-145443433D01*
X118066619Y-145461871D01*
X118042649Y-145470297D01*
X118039134Y-145470635D01*
X118027886Y-145462432D01*
X118011268Y-145442011D01*
X118004847Y-145432571D01*
X117990562Y-145408919D01*
X117983651Y-145394215D01*
X117983672Y-145392212D01*
X117993237Y-145385530D01*
X118016381Y-145369397D01*
X118049306Y-145346461D01*
X118077072Y-145327125D01*
X118262629Y-145185343D01*
X118432469Y-145029653D01*
X118586082Y-144860883D01*
X118722959Y-144679864D01*
X118842588Y-144487423D01*
X118944461Y-144284390D01*
X119028065Y-144071594D01*
X119092892Y-143849863D01*
X119138430Y-143620026D01*
X119141782Y-143597476D01*
X119152601Y-143505093D01*
X119155399Y-143430443D01*
X119149805Y-143371516D01*
X119135453Y-143326301D01*
X119111973Y-143292788D01*
X119081887Y-143270505D01*
X119059330Y-143264102D01*
X119020758Y-143261130D01*
X118965281Y-143261626D01*
X118892010Y-143265632D01*
X118800052Y-143273186D01*
X118688518Y-143284327D01*
X118632929Y-143290385D01*
X118542055Y-143299803D01*
X118468706Y-143305508D01*
X118409529Y-143307323D01*
X118361171Y-143305070D01*
X118320277Y-143298571D01*
X118283495Y-143287649D01*
X118247471Y-143272125D01*
X118242534Y-143269692D01*
X118177656Y-143237333D01*
X118156480Y-143266019D01*
X118044343Y-143411875D01*
X117929425Y-143549841D01*
X117814737Y-143676515D01*
X117703290Y-143788497D01*
X117651783Y-143836074D01*
X117595863Y-143885195D01*
X117539990Y-143932586D01*
X117486731Y-143976229D01*
X117438658Y-144014105D01*
X117398340Y-144044196D01*
X117368345Y-144064483D01*
X117351244Y-144072947D01*
X117350106Y-144073073D01*
X117335968Y-144065668D01*
X117316122Y-144047131D01*
X117310665Y-144040921D01*
X117283519Y-144008659D01*
X117397976Y-143894202D01*
X117573758Y-143705357D01*
X117733582Y-143506722D01*
X117875956Y-143300352D01*
X117999390Y-143088304D01*
X118039816Y-143009115D01*
X118091903Y-142897970D01*
X118137271Y-142790774D01*
X118175392Y-142689428D01*
X118205739Y-142595831D01*
X118227782Y-142511883D01*
X118240995Y-142439485D01*
X118244848Y-142380535D01*
X118238814Y-142336933D01*
X118231268Y-142320455D01*
X118201001Y-142291022D01*
X118156147Y-142268286D01*
X118102895Y-142254846D01*
X118069131Y-142252324D01*
X118033200Y-142249928D01*
X118016350Y-142241923D01*
X118018142Y-142226513D01*
X118038140Y-142201901D01*
X118053250Y-142187071D01*
X118088097Y-142157750D01*
X118122232Y-142138876D01*
X118161353Y-142128810D01*
X118211156Y-142125911D01*
X118260050Y-142127513D01*
D11*
%TO.C,J34*%
G36*
X113490500Y-105807000D02*
G01*
X115490500Y-105807000D01*
X115490500Y-107807000D01*
X113490500Y-107807000D01*
X113490500Y-107707000D01*
X113490500Y-105807000D01*
G37*
X113490500Y-105807000D02*
X115490500Y-105807000D01*
X115490500Y-107807000D01*
X113490500Y-107807000D01*
X113490500Y-107707000D01*
X113490500Y-105807000D01*
%TD*%
D12*
%TO.C,J33*%
X111760000Y-111760000D03*
D13*
X111760000Y-113030000D03*
X111760000Y-114300000D03*
X111760000Y-115570000D03*
X111760000Y-116840000D03*
X111760000Y-118110000D03*
X111760000Y-119380000D03*
X111760000Y-120650000D03*
X111760000Y-121920000D03*
X111760000Y-123190000D03*
X111760000Y-124460000D03*
X111760000Y-125730000D03*
X111760000Y-127000000D03*
X111760000Y-128270000D03*
X111760000Y-129540000D03*
%TD*%
D14*
%TO.C,J32*%
X210820000Y-144780000D03*
X210820000Y-142240000D03*
X210820000Y-139700000D03*
X210820000Y-137160000D03*
X210820000Y-134620000D03*
X210820000Y-132080000D03*
X210820000Y-129540000D03*
X210820000Y-127000000D03*
X210820000Y-124460000D03*
X210820000Y-121920000D03*
X210820000Y-119380000D03*
X210820000Y-116840000D03*
X210820000Y-114300000D03*
X210820000Y-111760000D03*
X210820000Y-109220000D03*
X210820000Y-106680000D03*
X210820000Y-104140000D03*
X210820000Y-101600000D03*
X210820000Y-99060000D03*
X210820000Y-96520000D03*
D15*
X210820000Y-93980000D03*
%TD*%
D14*
%TO.C,J31*%
X208280000Y-144780000D03*
X208280000Y-142240000D03*
X208280000Y-139700000D03*
X208280000Y-137160000D03*
X208280000Y-134620000D03*
X208280000Y-132080000D03*
X208280000Y-129540000D03*
X208280000Y-127000000D03*
X208280000Y-124460000D03*
X208280000Y-121920000D03*
X208280000Y-119380000D03*
X208280000Y-116840000D03*
X208280000Y-114300000D03*
X208280000Y-111760000D03*
X208280000Y-109220000D03*
X208280000Y-106680000D03*
X208280000Y-104140000D03*
X208280000Y-101600000D03*
X208280000Y-99060000D03*
X208280000Y-96520000D03*
D15*
X208280000Y-93980000D03*
%TD*%
D14*
%TO.C,J30*%
X205740000Y-144780000D03*
X205740000Y-142240000D03*
X205740000Y-139700000D03*
X205740000Y-137160000D03*
X205740000Y-134620000D03*
X205740000Y-132080000D03*
X205740000Y-129540000D03*
X205740000Y-127000000D03*
X205740000Y-124460000D03*
X205740000Y-121920000D03*
X205740000Y-119380000D03*
X205740000Y-116840000D03*
X205740000Y-114300000D03*
X205740000Y-111760000D03*
X205740000Y-109220000D03*
X205740000Y-106680000D03*
X205740000Y-104140000D03*
X205740000Y-101600000D03*
X205740000Y-99060000D03*
X205740000Y-96520000D03*
D15*
X205740000Y-93980000D03*
%TD*%
D14*
%TO.C,J29*%
X203200000Y-144780000D03*
X203200000Y-142240000D03*
X203200000Y-139700000D03*
X203200000Y-137160000D03*
X203200000Y-134620000D03*
X203200000Y-132080000D03*
X203200000Y-129540000D03*
X203200000Y-127000000D03*
X203200000Y-124460000D03*
X203200000Y-121920000D03*
X203200000Y-119380000D03*
X203200000Y-116840000D03*
X203200000Y-114300000D03*
X203200000Y-111760000D03*
X203200000Y-109220000D03*
X203200000Y-106680000D03*
X203200000Y-104140000D03*
X203200000Y-101600000D03*
X203200000Y-99060000D03*
X203200000Y-96520000D03*
D15*
X203200000Y-93980000D03*
%TD*%
D14*
%TO.C,J28*%
X200660000Y-144780000D03*
X200660000Y-142240000D03*
X200660000Y-139700000D03*
X200660000Y-137160000D03*
X200660000Y-134620000D03*
X200660000Y-132080000D03*
X200660000Y-129540000D03*
X200660000Y-127000000D03*
X200660000Y-124460000D03*
X200660000Y-121920000D03*
X200660000Y-119380000D03*
X200660000Y-116840000D03*
X200660000Y-114300000D03*
X200660000Y-111760000D03*
X200660000Y-109220000D03*
X200660000Y-106680000D03*
X200660000Y-104140000D03*
X200660000Y-101600000D03*
X200660000Y-99060000D03*
X200660000Y-96520000D03*
D15*
X200660000Y-93980000D03*
%TD*%
D14*
%TO.C,J27*%
X198120000Y-144780000D03*
X198120000Y-142240000D03*
X198120000Y-139700000D03*
X198120000Y-137160000D03*
X198120000Y-134620000D03*
X198120000Y-132080000D03*
X198120000Y-129540000D03*
X198120000Y-127000000D03*
X198120000Y-124460000D03*
X198120000Y-121920000D03*
X198120000Y-119380000D03*
X198120000Y-116840000D03*
X198120000Y-114300000D03*
X198120000Y-111760000D03*
X198120000Y-109220000D03*
X198120000Y-106680000D03*
X198120000Y-104140000D03*
X198120000Y-101600000D03*
X198120000Y-99060000D03*
X198120000Y-96520000D03*
D15*
X198120000Y-93980000D03*
%TD*%
D14*
%TO.C,J26*%
X195580000Y-144780000D03*
X195580000Y-142240000D03*
X195580000Y-139700000D03*
X195580000Y-137160000D03*
X195580000Y-134620000D03*
X195580000Y-132080000D03*
X195580000Y-129540000D03*
X195580000Y-127000000D03*
X195580000Y-124460000D03*
X195580000Y-121920000D03*
X195580000Y-119380000D03*
X195580000Y-116840000D03*
X195580000Y-114300000D03*
X195580000Y-111760000D03*
X195580000Y-109220000D03*
X195580000Y-106680000D03*
X195580000Y-104140000D03*
X195580000Y-101600000D03*
X195580000Y-99060000D03*
X195580000Y-96520000D03*
D15*
X195580000Y-93980000D03*
%TD*%
D14*
%TO.C,J25*%
X193040000Y-144780000D03*
X193040000Y-142240000D03*
X193040000Y-139700000D03*
X193040000Y-137160000D03*
X193040000Y-134620000D03*
X193040000Y-132080000D03*
X193040000Y-129540000D03*
X193040000Y-127000000D03*
X193040000Y-124460000D03*
X193040000Y-121920000D03*
X193040000Y-119380000D03*
X193040000Y-116840000D03*
X193040000Y-114300000D03*
X193040000Y-111760000D03*
X193040000Y-109220000D03*
X193040000Y-106680000D03*
X193040000Y-104140000D03*
X193040000Y-101600000D03*
X193040000Y-99060000D03*
X193040000Y-96520000D03*
D15*
X193040000Y-93980000D03*
%TD*%
D14*
%TO.C,J24*%
X190500000Y-144780000D03*
X190500000Y-142240000D03*
X190500000Y-139700000D03*
X190500000Y-137160000D03*
X190500000Y-134620000D03*
X190500000Y-132080000D03*
X190500000Y-129540000D03*
X190500000Y-127000000D03*
X190500000Y-124460000D03*
X190500000Y-121920000D03*
X190500000Y-119380000D03*
X190500000Y-116840000D03*
X190500000Y-114300000D03*
X190500000Y-111760000D03*
X190500000Y-109220000D03*
X190500000Y-106680000D03*
X190500000Y-104140000D03*
X190500000Y-101600000D03*
X190500000Y-99060000D03*
X190500000Y-96520000D03*
D15*
X190500000Y-93980000D03*
%TD*%
D14*
%TO.C,J23*%
X187960000Y-144780000D03*
X187960000Y-142240000D03*
X187960000Y-139700000D03*
X187960000Y-137160000D03*
X187960000Y-134620000D03*
X187960000Y-132080000D03*
X187960000Y-129540000D03*
X187960000Y-127000000D03*
X187960000Y-124460000D03*
X187960000Y-121920000D03*
X187960000Y-119380000D03*
X187960000Y-116840000D03*
X187960000Y-114300000D03*
X187960000Y-111760000D03*
X187960000Y-109220000D03*
X187960000Y-106680000D03*
X187960000Y-104140000D03*
X187960000Y-101600000D03*
X187960000Y-99060000D03*
X187960000Y-96520000D03*
D15*
X187960000Y-93980000D03*
%TD*%
D14*
%TO.C,J22*%
X185420000Y-144780000D03*
X185420000Y-142240000D03*
X185420000Y-139700000D03*
X185420000Y-137160000D03*
X185420000Y-134620000D03*
X185420000Y-132080000D03*
X185420000Y-129540000D03*
X185420000Y-127000000D03*
X185420000Y-124460000D03*
X185420000Y-121920000D03*
X185420000Y-119380000D03*
X185420000Y-116840000D03*
X185420000Y-114300000D03*
X185420000Y-111760000D03*
X185420000Y-109220000D03*
X185420000Y-106680000D03*
X185420000Y-104140000D03*
X185420000Y-101600000D03*
X185420000Y-99060000D03*
X185420000Y-96520000D03*
D15*
X185420000Y-93980000D03*
%TD*%
D14*
%TO.C,J21*%
X182880000Y-144780000D03*
X182880000Y-142240000D03*
X182880000Y-139700000D03*
X182880000Y-137160000D03*
X182880000Y-134620000D03*
X182880000Y-132080000D03*
X182880000Y-129540000D03*
X182880000Y-127000000D03*
X182880000Y-124460000D03*
X182880000Y-121920000D03*
X182880000Y-119380000D03*
X182880000Y-116840000D03*
X182880000Y-114300000D03*
X182880000Y-111760000D03*
X182880000Y-109220000D03*
X182880000Y-106680000D03*
X182880000Y-104140000D03*
X182880000Y-101600000D03*
X182880000Y-99060000D03*
X182880000Y-96520000D03*
D15*
X182880000Y-93980000D03*
%TD*%
D14*
%TO.C,J20*%
X180340000Y-144780000D03*
X180340000Y-142240000D03*
X180340000Y-139700000D03*
X180340000Y-137160000D03*
X180340000Y-134620000D03*
X180340000Y-132080000D03*
X180340000Y-129540000D03*
X180340000Y-127000000D03*
X180340000Y-124460000D03*
X180340000Y-121920000D03*
X180340000Y-119380000D03*
X180340000Y-116840000D03*
X180340000Y-114300000D03*
X180340000Y-111760000D03*
X180340000Y-109220000D03*
X180340000Y-106680000D03*
X180340000Y-104140000D03*
X180340000Y-101600000D03*
X180340000Y-99060000D03*
X180340000Y-96520000D03*
D15*
X180340000Y-93980000D03*
%TD*%
D14*
%TO.C,J19*%
X177800000Y-144780000D03*
X177800000Y-142240000D03*
X177800000Y-139700000D03*
X177800000Y-137160000D03*
X177800000Y-134620000D03*
X177800000Y-132080000D03*
X177800000Y-129540000D03*
X177800000Y-127000000D03*
X177800000Y-124460000D03*
X177800000Y-121920000D03*
X177800000Y-119380000D03*
X177800000Y-116840000D03*
X177800000Y-114300000D03*
X177800000Y-111760000D03*
X177800000Y-109220000D03*
X177800000Y-106680000D03*
X177800000Y-104140000D03*
X177800000Y-101600000D03*
X177800000Y-99060000D03*
X177800000Y-96520000D03*
D15*
X177800000Y-93980000D03*
%TD*%
D14*
%TO.C,J18*%
X175260000Y-144780000D03*
X175260000Y-142240000D03*
X175260000Y-139700000D03*
X175260000Y-137160000D03*
X175260000Y-134620000D03*
X175260000Y-132080000D03*
X175260000Y-129540000D03*
X175260000Y-127000000D03*
X175260000Y-124460000D03*
X175260000Y-121920000D03*
X175260000Y-119380000D03*
X175260000Y-116840000D03*
X175260000Y-114300000D03*
X175260000Y-111760000D03*
X175260000Y-109220000D03*
X175260000Y-106680000D03*
X175260000Y-104140000D03*
X175260000Y-101600000D03*
X175260000Y-99060000D03*
X175260000Y-96520000D03*
D15*
X175260000Y-93980000D03*
%TD*%
D14*
%TO.C,J17*%
X172720000Y-144780000D03*
X172720000Y-142240000D03*
X172720000Y-139700000D03*
X172720000Y-137160000D03*
X172720000Y-134620000D03*
X172720000Y-132080000D03*
X172720000Y-129540000D03*
X172720000Y-127000000D03*
X172720000Y-124460000D03*
X172720000Y-121920000D03*
X172720000Y-119380000D03*
X172720000Y-116840000D03*
X172720000Y-114300000D03*
X172720000Y-111760000D03*
X172720000Y-109220000D03*
X172720000Y-106680000D03*
X172720000Y-104140000D03*
X172720000Y-101600000D03*
X172720000Y-99060000D03*
X172720000Y-96520000D03*
D15*
X172720000Y-93980000D03*
%TD*%
D14*
%TO.C,J16*%
X170180000Y-144780000D03*
X170180000Y-142240000D03*
X170180000Y-139700000D03*
X170180000Y-137160000D03*
X170180000Y-134620000D03*
X170180000Y-132080000D03*
X170180000Y-129540000D03*
X170180000Y-127000000D03*
X170180000Y-124460000D03*
X170180000Y-121920000D03*
X170180000Y-119380000D03*
X170180000Y-116840000D03*
X170180000Y-114300000D03*
X170180000Y-111760000D03*
X170180000Y-109220000D03*
X170180000Y-106680000D03*
X170180000Y-104140000D03*
X170180000Y-101600000D03*
X170180000Y-99060000D03*
X170180000Y-96520000D03*
D15*
X170180000Y-93980000D03*
%TD*%
D14*
%TO.C,J15*%
X167640000Y-144780000D03*
X167640000Y-142240000D03*
X167640000Y-139700000D03*
X167640000Y-137160000D03*
X167640000Y-134620000D03*
X167640000Y-132080000D03*
X167640000Y-129540000D03*
X167640000Y-127000000D03*
X167640000Y-124460000D03*
X167640000Y-121920000D03*
X167640000Y-119380000D03*
X167640000Y-116840000D03*
X167640000Y-114300000D03*
X167640000Y-111760000D03*
X167640000Y-109220000D03*
X167640000Y-106680000D03*
X167640000Y-104140000D03*
X167640000Y-101600000D03*
X167640000Y-99060000D03*
X167640000Y-96520000D03*
D15*
X167640000Y-93980000D03*
%TD*%
D14*
%TO.C,J14*%
X165100000Y-144780000D03*
X165100000Y-142240000D03*
X165100000Y-139700000D03*
X165100000Y-137160000D03*
X165100000Y-134620000D03*
X165100000Y-132080000D03*
X165100000Y-129540000D03*
X165100000Y-127000000D03*
X165100000Y-124460000D03*
X165100000Y-121920000D03*
X165100000Y-119380000D03*
X165100000Y-116840000D03*
X165100000Y-114300000D03*
X165100000Y-111760000D03*
X165100000Y-109220000D03*
X165100000Y-106680000D03*
X165100000Y-104140000D03*
X165100000Y-101600000D03*
X165100000Y-99060000D03*
X165100000Y-96520000D03*
D15*
X165100000Y-93980000D03*
%TD*%
D14*
%TO.C,J13*%
X162560000Y-144780000D03*
X162560000Y-142240000D03*
X162560000Y-139700000D03*
X162560000Y-137160000D03*
X162560000Y-134620000D03*
X162560000Y-132080000D03*
X162560000Y-129540000D03*
X162560000Y-127000000D03*
X162560000Y-124460000D03*
X162560000Y-121920000D03*
X162560000Y-119380000D03*
X162560000Y-116840000D03*
X162560000Y-114300000D03*
X162560000Y-111760000D03*
X162560000Y-109220000D03*
X162560000Y-106680000D03*
X162560000Y-104140000D03*
X162560000Y-101600000D03*
X162560000Y-99060000D03*
X162560000Y-96520000D03*
D15*
X162560000Y-93980000D03*
%TD*%
D14*
%TO.C,J12*%
X160020000Y-144780000D03*
X160020000Y-142240000D03*
X160020000Y-139700000D03*
X160020000Y-137160000D03*
X160020000Y-134620000D03*
X160020000Y-132080000D03*
X160020000Y-129540000D03*
X160020000Y-127000000D03*
X160020000Y-124460000D03*
X160020000Y-121920000D03*
X160020000Y-119380000D03*
X160020000Y-116840000D03*
X160020000Y-114300000D03*
X160020000Y-111760000D03*
X160020000Y-109220000D03*
X160020000Y-106680000D03*
X160020000Y-104140000D03*
X160020000Y-101600000D03*
X160020000Y-99060000D03*
X160020000Y-96520000D03*
D15*
X160020000Y-93980000D03*
%TD*%
D14*
%TO.C,J11*%
X157480000Y-144780000D03*
X157480000Y-142240000D03*
X157480000Y-139700000D03*
X157480000Y-137160000D03*
X157480000Y-134620000D03*
X157480000Y-132080000D03*
X157480000Y-129540000D03*
X157480000Y-127000000D03*
X157480000Y-124460000D03*
X157480000Y-121920000D03*
X157480000Y-119380000D03*
X157480000Y-116840000D03*
X157480000Y-114300000D03*
X157480000Y-111760000D03*
X157480000Y-109220000D03*
X157480000Y-106680000D03*
X157480000Y-104140000D03*
X157480000Y-101600000D03*
X157480000Y-99060000D03*
X157480000Y-96520000D03*
D15*
X157480000Y-93980000D03*
%TD*%
D14*
%TO.C,J10*%
X154940000Y-144780000D03*
X154940000Y-142240000D03*
X154940000Y-139700000D03*
X154940000Y-137160000D03*
X154940000Y-134620000D03*
X154940000Y-132080000D03*
X154940000Y-129540000D03*
X154940000Y-127000000D03*
X154940000Y-124460000D03*
X154940000Y-121920000D03*
X154940000Y-119380000D03*
X154940000Y-116840000D03*
X154940000Y-114300000D03*
X154940000Y-111760000D03*
X154940000Y-109220000D03*
X154940000Y-106680000D03*
X154940000Y-104140000D03*
X154940000Y-101600000D03*
X154940000Y-99060000D03*
X154940000Y-96520000D03*
D15*
X154940000Y-93980000D03*
%TD*%
D14*
%TO.C,J9*%
X152400000Y-144780000D03*
X152400000Y-142240000D03*
X152400000Y-139700000D03*
X152400000Y-137160000D03*
X152400000Y-134620000D03*
X152400000Y-132080000D03*
X152400000Y-129540000D03*
X152400000Y-127000000D03*
X152400000Y-124460000D03*
X152400000Y-121920000D03*
X152400000Y-119380000D03*
X152400000Y-116840000D03*
X152400000Y-114300000D03*
X152400000Y-111760000D03*
X152400000Y-109220000D03*
X152400000Y-106680000D03*
X152400000Y-104140000D03*
X152400000Y-101600000D03*
X152400000Y-99060000D03*
X152400000Y-96520000D03*
D15*
X152400000Y-93980000D03*
%TD*%
D14*
%TO.C,J8*%
X149860000Y-144780000D03*
X149860000Y-142240000D03*
X149860000Y-139700000D03*
X149860000Y-137160000D03*
X149860000Y-134620000D03*
X149860000Y-132080000D03*
X149860000Y-129540000D03*
X149860000Y-127000000D03*
X149860000Y-124460000D03*
X149860000Y-121920000D03*
X149860000Y-119380000D03*
X149860000Y-116840000D03*
X149860000Y-114300000D03*
X149860000Y-111760000D03*
X149860000Y-109220000D03*
X149860000Y-106680000D03*
X149860000Y-104140000D03*
X149860000Y-101600000D03*
X149860000Y-99060000D03*
X149860000Y-96520000D03*
D15*
X149860000Y-93980000D03*
%TD*%
D14*
%TO.C,J7*%
X147320000Y-144780000D03*
X147320000Y-142240000D03*
X147320000Y-139700000D03*
X147320000Y-137160000D03*
X147320000Y-134620000D03*
X147320000Y-132080000D03*
X147320000Y-129540000D03*
X147320000Y-127000000D03*
X147320000Y-124460000D03*
X147320000Y-121920000D03*
X147320000Y-119380000D03*
X147320000Y-116840000D03*
X147320000Y-114300000D03*
X147320000Y-111760000D03*
X147320000Y-109220000D03*
X147320000Y-106680000D03*
X147320000Y-104140000D03*
X147320000Y-101600000D03*
X147320000Y-99060000D03*
X147320000Y-96520000D03*
D15*
X147320000Y-93980000D03*
%TD*%
D14*
%TO.C,J6*%
X144780000Y-144780000D03*
X144780000Y-142240000D03*
X144780000Y-139700000D03*
X144780000Y-137160000D03*
X144780000Y-134620000D03*
X144780000Y-132080000D03*
X144780000Y-129540000D03*
X144780000Y-127000000D03*
X144780000Y-124460000D03*
X144780000Y-121920000D03*
X144780000Y-119380000D03*
X144780000Y-116840000D03*
X144780000Y-114300000D03*
X144780000Y-111760000D03*
X144780000Y-109220000D03*
X144780000Y-106680000D03*
X144780000Y-104140000D03*
X144780000Y-101600000D03*
X144780000Y-99060000D03*
X144780000Y-96520000D03*
D15*
X144780000Y-93980000D03*
%TD*%
D14*
%TO.C,J5*%
X142240000Y-144780000D03*
X142240000Y-142240000D03*
X142240000Y-139700000D03*
X142240000Y-137160000D03*
X142240000Y-134620000D03*
X142240000Y-132080000D03*
X142240000Y-129540000D03*
X142240000Y-127000000D03*
X142240000Y-124460000D03*
X142240000Y-121920000D03*
X142240000Y-119380000D03*
X142240000Y-116840000D03*
X142240000Y-114300000D03*
X142240000Y-111760000D03*
X142240000Y-109220000D03*
X142240000Y-106680000D03*
X142240000Y-104140000D03*
X142240000Y-101600000D03*
X142240000Y-99060000D03*
X142240000Y-96520000D03*
D15*
X142240000Y-93980000D03*
%TD*%
D14*
%TO.C,J4*%
X139700000Y-144780000D03*
X139700000Y-142240000D03*
X139700000Y-139700000D03*
X139700000Y-137160000D03*
X139700000Y-134620000D03*
X139700000Y-132080000D03*
X139700000Y-129540000D03*
X139700000Y-127000000D03*
X139700000Y-124460000D03*
X139700000Y-121920000D03*
X139700000Y-119380000D03*
X139700000Y-116840000D03*
X139700000Y-114300000D03*
X139700000Y-111760000D03*
X139700000Y-109220000D03*
X139700000Y-106680000D03*
X139700000Y-104140000D03*
X139700000Y-101600000D03*
X139700000Y-99060000D03*
X139700000Y-96520000D03*
D15*
X139700000Y-93980000D03*
%TD*%
D14*
%TO.C,J3*%
X137160000Y-144780000D03*
X137160000Y-142240000D03*
X137160000Y-139700000D03*
X137160000Y-137160000D03*
X137160000Y-134620000D03*
X137160000Y-132080000D03*
X137160000Y-129540000D03*
X137160000Y-127000000D03*
X137160000Y-124460000D03*
X137160000Y-121920000D03*
X137160000Y-119380000D03*
X137160000Y-116840000D03*
X137160000Y-114300000D03*
X137160000Y-111760000D03*
X137160000Y-109220000D03*
X137160000Y-106680000D03*
X137160000Y-104140000D03*
X137160000Y-101600000D03*
X137160000Y-99060000D03*
X137160000Y-96520000D03*
D15*
X137160000Y-93980000D03*
%TD*%
D14*
%TO.C,J2*%
X134620000Y-144780000D03*
X134620000Y-142240000D03*
X134620000Y-139700000D03*
X134620000Y-137160000D03*
X134620000Y-134620000D03*
X134620000Y-132080000D03*
X134620000Y-129540000D03*
X134620000Y-127000000D03*
X134620000Y-124460000D03*
X134620000Y-121920000D03*
X134620000Y-119380000D03*
X134620000Y-116840000D03*
X134620000Y-114300000D03*
X134620000Y-111760000D03*
X134620000Y-109220000D03*
X134620000Y-106680000D03*
X134620000Y-104140000D03*
X134620000Y-101600000D03*
X134620000Y-99060000D03*
X134620000Y-96520000D03*
D15*
X134620000Y-93980000D03*
%TD*%
D14*
%TO.C,J1*%
X132080000Y-144780000D03*
X132080000Y-142240000D03*
X132080000Y-139700000D03*
X132080000Y-137160000D03*
X132080000Y-134620000D03*
X132080000Y-132080000D03*
X132080000Y-129540000D03*
X132080000Y-127000000D03*
X132080000Y-124460000D03*
X132080000Y-121920000D03*
X132080000Y-119380000D03*
X132080000Y-116840000D03*
X132080000Y-114300000D03*
X132080000Y-111760000D03*
X132080000Y-109220000D03*
X132080000Y-106680000D03*
X132080000Y-104140000D03*
X132080000Y-101600000D03*
X132080000Y-99060000D03*
X132080000Y-96520000D03*
D15*
X132080000Y-93980000D03*
%TD*%
%TO.C,R6*%
G36*
G01*
X124860000Y-114778262D02*
X124860000Y-113821738D01*
G75*
G02*
X125131738Y-113550000I271738J0D01*
G01*
X125838262Y-113550000D01*
G75*
G02*
X126110000Y-113821738I0J-271738D01*
G01*
X126110000Y-114778262D01*
G75*
G02*
X125838262Y-115050000I-271738J0D01*
G01*
X125131738Y-115050000D01*
G75*
G02*
X124860000Y-114778262I0J271738D01*
G01*
G37*
G36*
G01*
X122810000Y-114778262D02*
X122810000Y-113821738D01*
G75*
G02*
X123081738Y-113550000I271738J0D01*
G01*
X123788262Y-113550000D01*
G75*
G02*
X124060000Y-113821738I0J-271738D01*
G01*
X124060000Y-114778262D01*
G75*
G02*
X123788262Y-115050000I-271738J0D01*
G01*
X123081738Y-115050000D01*
G75*
G02*
X122810000Y-114778262I0J271738D01*
G01*
G37*
%TD*%
%TO.C,R5*%
G36*
G01*
X125105000Y-124938262D02*
X125105000Y-123981738D01*
G75*
G02*
X125376738Y-123710000I271738J0D01*
G01*
X126083262Y-123710000D01*
G75*
G02*
X126355000Y-123981738I0J-271738D01*
G01*
X126355000Y-124938262D01*
G75*
G02*
X126083262Y-125210000I-271738J0D01*
G01*
X125376738Y-125210000D01*
G75*
G02*
X125105000Y-124938262I0J271738D01*
G01*
G37*
G36*
G01*
X123055000Y-124938262D02*
X123055000Y-123981738D01*
G75*
G02*
X123326738Y-123710000I271738J0D01*
G01*
X124033262Y-123710000D01*
G75*
G02*
X124305000Y-123981738I0J-271738D01*
G01*
X124305000Y-124938262D01*
G75*
G02*
X124033262Y-125210000I-271738J0D01*
G01*
X123326738Y-125210000D01*
G75*
G02*
X123055000Y-124938262I0J271738D01*
G01*
G37*
%TD*%
%TO.C,R4*%
G36*
G01*
X124860000Y-109698262D02*
X124860000Y-108741738D01*
G75*
G02*
X125131738Y-108470000I271738J0D01*
G01*
X125838262Y-108470000D01*
G75*
G02*
X126110000Y-108741738I0J-271738D01*
G01*
X126110000Y-109698262D01*
G75*
G02*
X125838262Y-109970000I-271738J0D01*
G01*
X125131738Y-109970000D01*
G75*
G02*
X124860000Y-109698262I0J271738D01*
G01*
G37*
G36*
G01*
X122810000Y-109698262D02*
X122810000Y-108741738D01*
G75*
G02*
X123081738Y-108470000I271738J0D01*
G01*
X123788262Y-108470000D01*
G75*
G02*
X124060000Y-108741738I0J-271738D01*
G01*
X124060000Y-109698262D01*
G75*
G02*
X123788262Y-109970000I-271738J0D01*
G01*
X123081738Y-109970000D01*
G75*
G02*
X122810000Y-109698262I0J271738D01*
G01*
G37*
%TD*%
%TO.C,R3*%
G36*
G01*
X124860000Y-112238262D02*
X124860000Y-111281738D01*
G75*
G02*
X125131738Y-111010000I271738J0D01*
G01*
X125838262Y-111010000D01*
G75*
G02*
X126110000Y-111281738I0J-271738D01*
G01*
X126110000Y-112238262D01*
G75*
G02*
X125838262Y-112510000I-271738J0D01*
G01*
X125131738Y-112510000D01*
G75*
G02*
X124860000Y-112238262I0J271738D01*
G01*
G37*
G36*
G01*
X122810000Y-112238262D02*
X122810000Y-111281738D01*
G75*
G02*
X123081738Y-111010000I271738J0D01*
G01*
X123788262Y-111010000D01*
G75*
G02*
X124060000Y-111281738I0J-271738D01*
G01*
X124060000Y-112238262D01*
G75*
G02*
X123788262Y-112510000I-271738J0D01*
G01*
X123081738Y-112510000D01*
G75*
G02*
X122810000Y-112238262I0J271738D01*
G01*
G37*
%TD*%
%TO.C,R2*%
G36*
G01*
X124860000Y-107158262D02*
X124860000Y-106201738D01*
G75*
G02*
X125131738Y-105930000I271738J0D01*
G01*
X125838262Y-105930000D01*
G75*
G02*
X126110000Y-106201738I0J-271738D01*
G01*
X126110000Y-107158262D01*
G75*
G02*
X125838262Y-107430000I-271738J0D01*
G01*
X125131738Y-107430000D01*
G75*
G02*
X124860000Y-107158262I0J271738D01*
G01*
G37*
G36*
G01*
X122810000Y-107158262D02*
X122810000Y-106201738D01*
G75*
G02*
X123081738Y-105930000I271738J0D01*
G01*
X123788262Y-105930000D01*
G75*
G02*
X124060000Y-106201738I0J-271738D01*
G01*
X124060000Y-107158262D01*
G75*
G02*
X123788262Y-107430000I-271738J0D01*
G01*
X123081738Y-107430000D01*
G75*
G02*
X122810000Y-107158262I0J271738D01*
G01*
G37*
%TD*%
%TO.C,R1*%
G36*
G01*
X119951000Y-93501738D02*
X119951000Y-94458262D01*
G75*
G02*
X119679262Y-94730000I-271738J0D01*
G01*
X118972738Y-94730000D01*
G75*
G02*
X118701000Y-94458262I0J271738D01*
G01*
X118701000Y-93501738D01*
G75*
G02*
X118972738Y-93230000I271738J0D01*
G01*
X119679262Y-93230000D01*
G75*
G02*
X119951000Y-93501738I0J-271738D01*
G01*
G37*
G36*
G01*
X122001000Y-93501738D02*
X122001000Y-94458262D01*
G75*
G02*
X121729262Y-94730000I-271738J0D01*
G01*
X121022738Y-94730000D01*
G75*
G02*
X120751000Y-94458262I0J271738D01*
G01*
X120751000Y-93501738D01*
G75*
G02*
X121022738Y-93230000I271738J0D01*
G01*
X121729262Y-93230000D01*
G75*
G02*
X122001000Y-93501738I0J-271738D01*
G01*
G37*
%TD*%
D11*
%TO.C,JP2*%
G36*
X121052111Y-100737102D02*
G01*
X121070534Y-100737102D01*
X121075435Y-100737343D01*
X121124266Y-100742153D01*
X121129119Y-100742873D01*
X121177244Y-100752445D01*
X121182005Y-100753637D01*
X121228960Y-100767881D01*
X121233579Y-100769534D01*
X121278912Y-100788311D01*
X121283349Y-100790409D01*
X121326622Y-100813540D01*
X121330829Y-100816062D01*
X121371628Y-100843322D01*
X121375570Y-100846246D01*
X121413499Y-100877374D01*
X121417134Y-100880669D01*
X121451831Y-100915366D01*
X121455126Y-100919001D01*
X121486254Y-100956930D01*
X121489178Y-100960872D01*
X121516438Y-101001671D01*
X121518960Y-101005878D01*
X121542091Y-101049151D01*
X121544189Y-101053588D01*
X121562966Y-101098921D01*
X121564619Y-101103540D01*
X121578863Y-101150495D01*
X121580055Y-101155256D01*
X121589627Y-101203381D01*
X121590347Y-101208234D01*
X121595157Y-101257065D01*
X121595398Y-101261966D01*
X121595398Y-101280389D01*
X121596000Y-101286500D01*
X121596000Y-101786500D01*
X121595398Y-101792611D01*
X121595398Y-101811034D01*
X121595157Y-101815935D01*
X121590347Y-101864766D01*
X121589627Y-101869619D01*
X121580055Y-101917744D01*
X121578863Y-101922505D01*
X121564619Y-101969460D01*
X121562966Y-101974079D01*
X121544189Y-102019412D01*
X121542091Y-102023849D01*
X121518960Y-102067122D01*
X121516438Y-102071329D01*
X121489178Y-102112128D01*
X121486254Y-102116070D01*
X121455126Y-102153999D01*
X121451831Y-102157634D01*
X121417134Y-102192331D01*
X121413499Y-102195626D01*
X121375570Y-102226754D01*
X121371628Y-102229678D01*
X121330829Y-102256938D01*
X121326622Y-102259460D01*
X121283349Y-102282591D01*
X121278912Y-102284689D01*
X121233579Y-102303466D01*
X121228960Y-102305119D01*
X121182005Y-102319363D01*
X121177244Y-102320555D01*
X121129119Y-102330127D01*
X121124266Y-102330847D01*
X121075435Y-102335657D01*
X121070534Y-102335898D01*
X121052111Y-102335898D01*
X121046000Y-102336500D01*
X120546000Y-102336500D01*
X120536245Y-102335539D01*
X120526866Y-102332694D01*
X120518221Y-102328073D01*
X120510645Y-102321855D01*
X120504427Y-102314279D01*
X120499806Y-102305634D01*
X120496961Y-102296255D01*
X120496000Y-102286500D01*
X120496000Y-100786500D01*
X120496961Y-100776745D01*
X120499806Y-100767366D01*
X120504427Y-100758721D01*
X120510645Y-100751145D01*
X120518221Y-100744927D01*
X120526866Y-100740306D01*
X120536245Y-100737461D01*
X120546000Y-100736500D01*
X121046000Y-100736500D01*
X121052111Y-100737102D01*
G37*
G36*
X120255755Y-100737461D02*
G01*
X120265134Y-100740306D01*
X120273779Y-100744927D01*
X120281355Y-100751145D01*
X120287573Y-100758721D01*
X120292194Y-100767366D01*
X120295039Y-100776745D01*
X120296000Y-100786500D01*
X120296000Y-102286500D01*
X120295039Y-102296255D01*
X120292194Y-102305634D01*
X120287573Y-102314279D01*
X120281355Y-102321855D01*
X120273779Y-102328073D01*
X120265134Y-102332694D01*
X120255755Y-102335539D01*
X120246000Y-102336500D01*
X119746000Y-102336500D01*
X119739889Y-102335898D01*
X119721466Y-102335898D01*
X119716565Y-102335657D01*
X119667734Y-102330847D01*
X119662881Y-102330127D01*
X119614756Y-102320555D01*
X119609995Y-102319363D01*
X119563040Y-102305119D01*
X119558421Y-102303466D01*
X119513088Y-102284689D01*
X119508651Y-102282591D01*
X119465378Y-102259460D01*
X119461171Y-102256938D01*
X119420372Y-102229678D01*
X119416430Y-102226754D01*
X119378501Y-102195626D01*
X119374866Y-102192331D01*
X119340169Y-102157634D01*
X119336874Y-102153999D01*
X119305746Y-102116070D01*
X119302822Y-102112128D01*
X119275562Y-102071329D01*
X119273040Y-102067122D01*
X119249909Y-102023849D01*
X119247811Y-102019412D01*
X119229034Y-101974079D01*
X119227381Y-101969460D01*
X119213137Y-101922505D01*
X119211945Y-101917744D01*
X119202373Y-101869619D01*
X119201653Y-101864766D01*
X119196843Y-101815935D01*
X119196602Y-101811034D01*
X119196602Y-101792611D01*
X119196000Y-101786500D01*
X119196000Y-101286500D01*
X119196602Y-101280389D01*
X119196602Y-101261966D01*
X119196843Y-101257065D01*
X119201653Y-101208234D01*
X119202373Y-101203381D01*
X119211945Y-101155256D01*
X119213137Y-101150495D01*
X119227381Y-101103540D01*
X119229034Y-101098921D01*
X119247811Y-101053588D01*
X119249909Y-101049151D01*
X119273040Y-101005878D01*
X119275562Y-101001671D01*
X119302822Y-100960872D01*
X119305746Y-100956930D01*
X119336874Y-100919001D01*
X119340169Y-100915366D01*
X119374866Y-100880669D01*
X119378501Y-100877374D01*
X119416430Y-100846246D01*
X119420372Y-100843322D01*
X119461171Y-100816062D01*
X119465378Y-100813540D01*
X119508651Y-100790409D01*
X119513088Y-100788311D01*
X119558421Y-100769534D01*
X119563040Y-100767881D01*
X119609995Y-100753637D01*
X119614756Y-100752445D01*
X119662881Y-100742873D01*
X119667734Y-100742153D01*
X119716565Y-100737343D01*
X119721466Y-100737102D01*
X119739889Y-100737102D01*
X119746000Y-100736500D01*
X120246000Y-100736500D01*
X120255755Y-100737461D01*
G37*
%TD*%
%TO.C,JP1*%
G36*
X121037111Y-96736602D02*
G01*
X121055534Y-96736602D01*
X121060435Y-96736843D01*
X121109266Y-96741653D01*
X121114119Y-96742373D01*
X121162244Y-96751945D01*
X121167005Y-96753137D01*
X121213960Y-96767381D01*
X121218579Y-96769034D01*
X121263912Y-96787811D01*
X121268349Y-96789909D01*
X121311622Y-96813040D01*
X121315829Y-96815562D01*
X121356628Y-96842822D01*
X121360570Y-96845746D01*
X121398499Y-96876874D01*
X121402134Y-96880169D01*
X121436831Y-96914866D01*
X121440126Y-96918501D01*
X121471254Y-96956430D01*
X121474178Y-96960372D01*
X121501438Y-97001171D01*
X121503960Y-97005378D01*
X121527091Y-97048651D01*
X121529189Y-97053088D01*
X121547966Y-97098421D01*
X121549619Y-97103040D01*
X121563863Y-97149995D01*
X121565055Y-97154756D01*
X121574627Y-97202881D01*
X121575347Y-97207734D01*
X121580157Y-97256565D01*
X121580398Y-97261466D01*
X121580398Y-97279889D01*
X121581000Y-97286000D01*
X121581000Y-97786000D01*
X121580398Y-97792111D01*
X121580398Y-97810534D01*
X121580157Y-97815435D01*
X121575347Y-97864266D01*
X121574627Y-97869119D01*
X121565055Y-97917244D01*
X121563863Y-97922005D01*
X121549619Y-97968960D01*
X121547966Y-97973579D01*
X121529189Y-98018912D01*
X121527091Y-98023349D01*
X121503960Y-98066622D01*
X121501438Y-98070829D01*
X121474178Y-98111628D01*
X121471254Y-98115570D01*
X121440126Y-98153499D01*
X121436831Y-98157134D01*
X121402134Y-98191831D01*
X121398499Y-98195126D01*
X121360570Y-98226254D01*
X121356628Y-98229178D01*
X121315829Y-98256438D01*
X121311622Y-98258960D01*
X121268349Y-98282091D01*
X121263912Y-98284189D01*
X121218579Y-98302966D01*
X121213960Y-98304619D01*
X121167005Y-98318863D01*
X121162244Y-98320055D01*
X121114119Y-98329627D01*
X121109266Y-98330347D01*
X121060435Y-98335157D01*
X121055534Y-98335398D01*
X121037111Y-98335398D01*
X121031000Y-98336000D01*
X120531000Y-98336000D01*
X120521245Y-98335039D01*
X120511866Y-98332194D01*
X120503221Y-98327573D01*
X120495645Y-98321355D01*
X120489427Y-98313779D01*
X120484806Y-98305134D01*
X120481961Y-98295755D01*
X120481000Y-98286000D01*
X120481000Y-96786000D01*
X120481961Y-96776245D01*
X120484806Y-96766866D01*
X120489427Y-96758221D01*
X120495645Y-96750645D01*
X120503221Y-96744427D01*
X120511866Y-96739806D01*
X120521245Y-96736961D01*
X120531000Y-96736000D01*
X121031000Y-96736000D01*
X121037111Y-96736602D01*
G37*
G36*
X120240755Y-96736961D02*
G01*
X120250134Y-96739806D01*
X120258779Y-96744427D01*
X120266355Y-96750645D01*
X120272573Y-96758221D01*
X120277194Y-96766866D01*
X120280039Y-96776245D01*
X120281000Y-96786000D01*
X120281000Y-98286000D01*
X120280039Y-98295755D01*
X120277194Y-98305134D01*
X120272573Y-98313779D01*
X120266355Y-98321355D01*
X120258779Y-98327573D01*
X120250134Y-98332194D01*
X120240755Y-98335039D01*
X120231000Y-98336000D01*
X119731000Y-98336000D01*
X119724889Y-98335398D01*
X119706466Y-98335398D01*
X119701565Y-98335157D01*
X119652734Y-98330347D01*
X119647881Y-98329627D01*
X119599756Y-98320055D01*
X119594995Y-98318863D01*
X119548040Y-98304619D01*
X119543421Y-98302966D01*
X119498088Y-98284189D01*
X119493651Y-98282091D01*
X119450378Y-98258960D01*
X119446171Y-98256438D01*
X119405372Y-98229178D01*
X119401430Y-98226254D01*
X119363501Y-98195126D01*
X119359866Y-98191831D01*
X119325169Y-98157134D01*
X119321874Y-98153499D01*
X119290746Y-98115570D01*
X119287822Y-98111628D01*
X119260562Y-98070829D01*
X119258040Y-98066622D01*
X119234909Y-98023349D01*
X119232811Y-98018912D01*
X119214034Y-97973579D01*
X119212381Y-97968960D01*
X119198137Y-97922005D01*
X119196945Y-97917244D01*
X119187373Y-97869119D01*
X119186653Y-97864266D01*
X119181843Y-97815435D01*
X119181602Y-97810534D01*
X119181602Y-97792111D01*
X119181000Y-97786000D01*
X119181000Y-97286000D01*
X119181602Y-97279889D01*
X119181602Y-97261466D01*
X119181843Y-97256565D01*
X119186653Y-97207734D01*
X119187373Y-97202881D01*
X119196945Y-97154756D01*
X119198137Y-97149995D01*
X119212381Y-97103040D01*
X119214034Y-97098421D01*
X119232811Y-97053088D01*
X119234909Y-97048651D01*
X119258040Y-97005378D01*
X119260562Y-97001171D01*
X119287822Y-96960372D01*
X119290746Y-96956430D01*
X119321874Y-96918501D01*
X119325169Y-96914866D01*
X119359866Y-96880169D01*
X119363501Y-96876874D01*
X119401430Y-96845746D01*
X119405372Y-96842822D01*
X119446171Y-96815562D01*
X119450378Y-96813040D01*
X119493651Y-96789909D01*
X119498088Y-96787811D01*
X119543421Y-96769034D01*
X119548040Y-96767381D01*
X119594995Y-96753137D01*
X119599756Y-96751945D01*
X119647881Y-96742373D01*
X119652734Y-96741653D01*
X119701565Y-96736843D01*
X119706466Y-96736602D01*
X119724889Y-96736602D01*
X119731000Y-96736000D01*
X120231000Y-96736000D01*
X120240755Y-96736961D01*
G37*
%TD*%
D16*
%TO.C,H4*%
X113792000Y-93980000D03*
%TD*%
%TO.C,H3*%
X218440000Y-149945000D03*
%TD*%
%TO.C,H2*%
X218440000Y-93980000D03*
%TD*%
%TO.C,H1*%
X113792000Y-149860000D03*
%TD*%
%TO.C,D1*%
G36*
G01*
X124051000Y-93501738D02*
X124051000Y-94458262D01*
G75*
G02*
X123779262Y-94730000I-271738J0D01*
G01*
X123072738Y-94730000D01*
G75*
G02*
X122801000Y-94458262I0J271738D01*
G01*
X122801000Y-93501738D01*
G75*
G02*
X123072738Y-93230000I271738J0D01*
G01*
X123779262Y-93230000D01*
G75*
G02*
X124051000Y-93501738I0J-271738D01*
G01*
G37*
G36*
G01*
X126101000Y-93501738D02*
X126101000Y-94458262D01*
G75*
G02*
X125829262Y-94730000I-271738J0D01*
G01*
X125122738Y-94730000D01*
G75*
G02*
X124851000Y-94458262I0J271738D01*
G01*
X124851000Y-93501738D01*
G75*
G02*
X125122738Y-93230000I271738J0D01*
G01*
X125829262Y-93230000D01*
G75*
G02*
X126101000Y-93501738I0J-271738D01*
G01*
G37*
%TD*%
M02*
