%TF.GenerationSoftware,KiCad,Pcbnew,(5.1.6)-1*%
%TF.CreationDate,2020-08-25T07:27:34+03:00*%
%TF.ProjectId,15pinproto,31357069-6e70-4726-9f74-6f2e6b696361,rev?*%
%TF.SameCoordinates,Original*%
%TF.FileFunction,Legend,Top*%
%TF.FilePolarity,Positive*%
%FSLAX46Y46*%
G04 Gerber Fmt 4.6, Leading zero omitted, Abs format (unit mm)*
G04 Created by KiCad (PCBNEW (5.1.6)-1) date 2020-08-25 07:27:34*
%MOMM*%
%LPD*%
G01*
G04 APERTURE LIST*
%ADD10C,0.120000*%
%ADD11C,0.150000*%
%ADD12C,0.350000*%
G04 APERTURE END LIST*
D10*
X209143600Y-94030800D02*
X209956400Y-94030800D01*
X206603600Y-94030800D02*
X207416400Y-94030800D01*
X204063600Y-94030800D02*
X204876400Y-94030800D01*
X201523600Y-94030800D02*
X202336400Y-94030800D01*
X198983600Y-94030800D02*
X199796400Y-94030800D01*
X196443600Y-94030800D02*
X197256400Y-94030800D01*
X193903600Y-94030800D02*
X194716400Y-94030800D01*
X191363600Y-94030800D02*
X192176400Y-94030800D01*
X188823600Y-94030800D02*
X189636400Y-94030800D01*
X186283600Y-94030800D02*
X187096400Y-94030800D01*
X183743600Y-94030800D02*
X184556400Y-94030800D01*
X181203600Y-94030800D02*
X182016400Y-94030800D01*
X178663600Y-94030800D02*
X179476400Y-94030800D01*
X176123600Y-94030800D02*
X176936400Y-94030800D01*
X173583600Y-94030800D02*
X174396400Y-94030800D01*
X171043600Y-94030800D02*
X171856400Y-94030800D01*
X168503600Y-94030800D02*
X169316400Y-94030800D01*
X165963600Y-94030800D02*
X166776400Y-94030800D01*
X163423600Y-94030800D02*
X164236400Y-94030800D01*
X160883600Y-94030800D02*
X161696400Y-94030800D01*
X158343600Y-94030800D02*
X159156400Y-94030800D01*
X155803600Y-94030800D02*
X156616400Y-94030800D01*
X153263600Y-94030800D02*
X154076400Y-94030800D01*
X150723600Y-94030800D02*
X151536400Y-94030800D01*
X148183600Y-94030800D02*
X148996400Y-94030800D01*
X145643600Y-94030800D02*
X146456400Y-94030800D01*
X143103600Y-94030800D02*
X143916400Y-94030800D01*
X140563600Y-94030800D02*
X141376400Y-94030800D01*
X138023600Y-94030800D02*
X138836400Y-94030800D01*
X135483600Y-94030800D02*
X136296400Y-94030800D01*
X132943600Y-94030800D02*
X133756400Y-94030800D01*
X209143600Y-96520000D02*
X209956400Y-96520000D01*
X206603600Y-96520000D02*
X207416400Y-96520000D01*
X204063600Y-96520000D02*
X204876400Y-96520000D01*
X201523600Y-96520000D02*
X202336400Y-96520000D01*
X198983600Y-96520000D02*
X199796400Y-96520000D01*
X196443600Y-96520000D02*
X197256400Y-96520000D01*
X193903600Y-96520000D02*
X194716400Y-96520000D01*
X191363600Y-96520000D02*
X192176400Y-96520000D01*
X188823600Y-96520000D02*
X189636400Y-96520000D01*
X186283600Y-96520000D02*
X187096400Y-96520000D01*
X183743600Y-96520000D02*
X184556400Y-96520000D01*
X181203600Y-96520000D02*
X182016400Y-96520000D01*
X178663600Y-96520000D02*
X179476400Y-96520000D01*
X176123600Y-96520000D02*
X176936400Y-96520000D01*
X173583600Y-96520000D02*
X174396400Y-96520000D01*
X171043600Y-96520000D02*
X171856400Y-96520000D01*
X168503600Y-96520000D02*
X169316400Y-96520000D01*
X165963600Y-96520000D02*
X166776400Y-96520000D01*
X163423600Y-96520000D02*
X164236400Y-96520000D01*
X160883600Y-96520000D02*
X161696400Y-96520000D01*
X158343600Y-96520000D02*
X159156400Y-96520000D01*
X155803600Y-96520000D02*
X156616400Y-96520000D01*
X153263600Y-96520000D02*
X154076400Y-96520000D01*
X151485600Y-96520000D02*
X151536400Y-96520000D01*
X150723600Y-96520000D02*
X151485600Y-96520000D01*
X148183600Y-96520000D02*
X148996400Y-96520000D01*
X145643600Y-96520000D02*
X146456400Y-96520000D01*
X143103600Y-96520000D02*
X143916400Y-96520000D01*
X140563600Y-96520000D02*
X141376400Y-96520000D01*
X138023600Y-96520000D02*
X138836400Y-96520000D01*
X135483600Y-96520000D02*
X136296400Y-96520000D01*
X132943600Y-96520000D02*
X133756400Y-96520000D01*
X131216400Y-94030800D02*
X130810000Y-94030800D01*
X131216400Y-96520000D02*
X130810000Y-96520000D01*
X130810000Y-95250000D02*
X212090000Y-95250000D01*
X130810000Y-92710000D02*
X130810000Y-95250000D01*
X130810000Y-97790000D02*
X130810000Y-92710000D01*
X212090000Y-97790000D02*
X130810000Y-97790000D01*
X212090000Y-92710000D02*
X212090000Y-97790000D01*
X130810000Y-92710000D02*
X212090000Y-92710000D01*
X131191000Y-134620000D02*
X130746500Y-134620000D01*
X133731000Y-134620000D02*
X132969000Y-134620000D01*
X136271000Y-134620000D02*
X135509000Y-134620000D01*
X138811000Y-134620000D02*
X138049000Y-134620000D01*
X141351000Y-134620000D02*
X140589000Y-134620000D01*
X131191000Y-132080000D02*
X130746500Y-132080000D01*
X133731000Y-132080000D02*
X132969000Y-132080000D01*
X136271000Y-132080000D02*
X135509000Y-132080000D01*
X138811000Y-132080000D02*
X138049000Y-132080000D01*
X141351000Y-132080000D02*
X140589000Y-132080000D01*
X140589000Y-129540000D02*
X141351000Y-129540000D01*
X138049000Y-129540000D02*
X138811000Y-129540000D01*
X135509000Y-129540000D02*
X136271000Y-129540000D01*
X132969000Y-129540000D02*
X133731000Y-129540000D01*
X130746500Y-129540000D02*
X131191000Y-129540000D01*
X131191000Y-127000000D02*
X130746500Y-127000000D01*
X133731000Y-127000000D02*
X132969000Y-127000000D01*
X136271000Y-127000000D02*
X135509000Y-127000000D01*
X138811000Y-127000000D02*
X138049000Y-127000000D01*
X141351000Y-127000000D02*
X140589000Y-127000000D01*
X131191000Y-124460000D02*
X130746500Y-124460000D01*
X133731000Y-124460000D02*
X132969000Y-124460000D01*
X136271000Y-124460000D02*
X135509000Y-124460000D01*
X138811000Y-124460000D02*
X138049000Y-124460000D01*
X141351000Y-124460000D02*
X140589000Y-124460000D01*
X131191000Y-121920000D02*
X130746500Y-121920000D01*
X133731000Y-121920000D02*
X132969000Y-121920000D01*
X136271000Y-121920000D02*
X135509000Y-121920000D01*
X138811000Y-121920000D02*
X138049000Y-121920000D01*
X141351000Y-121920000D02*
X140589000Y-121920000D01*
X131191000Y-119380000D02*
X130746500Y-119380000D01*
X133731000Y-119380000D02*
X132969000Y-119380000D01*
X136271000Y-119380000D02*
X135509000Y-119380000D01*
X138811000Y-119380000D02*
X138049000Y-119380000D01*
X141351000Y-119380000D02*
X140589000Y-119380000D01*
X131191000Y-116840000D02*
X130746500Y-116840000D01*
X133731000Y-116840000D02*
X132969000Y-116840000D01*
X136271000Y-116840000D02*
X135509000Y-116840000D01*
X138811000Y-116840000D02*
X138049000Y-116840000D01*
X141351000Y-116840000D02*
X140589000Y-116840000D01*
X131191000Y-114300000D02*
X130746500Y-114300000D01*
X133731000Y-114300000D02*
X132969000Y-114300000D01*
X136271000Y-114300000D02*
X135509000Y-114300000D01*
X138811000Y-114300000D02*
X138049000Y-114300000D01*
X141351000Y-114300000D02*
X140589000Y-114300000D01*
X131191000Y-111760000D02*
X130746500Y-111760000D01*
X133731000Y-111760000D02*
X132969000Y-111760000D01*
X136271000Y-111760000D02*
X135509000Y-111760000D01*
X138811000Y-111760000D02*
X138049000Y-111760000D01*
X141351000Y-111760000D02*
X140589000Y-111760000D01*
X131191000Y-109220000D02*
X130746500Y-109220000D01*
X133731000Y-109220000D02*
X132969000Y-109220000D01*
X136271000Y-109220000D02*
X135509000Y-109220000D01*
X138811000Y-109220000D02*
X138049000Y-109220000D01*
X141351000Y-109220000D02*
X140589000Y-109220000D01*
X131191000Y-106680000D02*
X130746500Y-106680000D01*
X133731000Y-106680000D02*
X132969000Y-106680000D01*
X136271000Y-106680000D02*
X135509000Y-106680000D01*
X138811000Y-106680000D02*
X138049000Y-106680000D01*
X141351000Y-106680000D02*
X140589000Y-106680000D01*
X143510000Y-135890000D02*
X130810000Y-135890000D01*
X143510000Y-133350000D02*
X143510000Y-135890000D01*
X143510000Y-133350000D02*
X130810000Y-133350000D01*
X143510000Y-130810000D02*
X143510000Y-133350000D01*
X143510000Y-130810000D02*
X130810000Y-130810000D01*
X143510000Y-128270000D02*
X143510000Y-130810000D01*
X143510000Y-128270000D02*
X130810000Y-128270000D01*
X143510000Y-125730000D02*
X143510000Y-128270000D01*
X143510000Y-125730000D02*
X130810000Y-125730000D01*
X143510000Y-123190000D02*
X143510000Y-125730000D01*
X143510000Y-123190000D02*
X130810000Y-123190000D01*
X143510000Y-120650000D02*
X143510000Y-123190000D01*
X143510000Y-120650000D02*
X130810000Y-120650000D01*
X143510000Y-118110000D02*
X143510000Y-120650000D01*
X143510000Y-118110000D02*
X130810000Y-118110000D01*
X143510000Y-115570000D02*
X143510000Y-118110000D01*
X143510000Y-115570000D02*
X130810000Y-115570000D01*
X143510000Y-113030000D02*
X143510000Y-115570000D01*
X143510000Y-113030000D02*
X130810000Y-113030000D01*
X143510000Y-110490000D02*
X143510000Y-113030000D01*
X143510000Y-110490000D02*
X130810000Y-110490000D01*
X143510000Y-107950000D02*
X143510000Y-110490000D01*
X143510000Y-107950000D02*
X130810000Y-107950000D01*
X143510000Y-105410000D02*
X143510000Y-107950000D01*
X130810000Y-105410000D02*
X143510000Y-105410000D01*
D11*
X112800000Y-112263180D02*
X112800000Y-111263180D01*
X113180952Y-111263180D01*
X113276190Y-111310800D01*
X113323809Y-111358419D01*
X113371428Y-111453657D01*
X113371428Y-111596514D01*
X113323809Y-111691752D01*
X113276190Y-111739371D01*
X113180952Y-111786990D01*
X112800000Y-111786990D01*
X113800000Y-112263180D02*
X113800000Y-111263180D01*
X114276190Y-112263180D02*
X114276190Y-111263180D01*
X114847619Y-112263180D01*
X114847619Y-111263180D01*
X115847619Y-112263180D02*
X115276190Y-112263180D01*
X115561904Y-112263180D02*
X115561904Y-111263180D01*
X115466666Y-111406038D01*
X115371428Y-111501276D01*
X115276190Y-111548895D01*
X112730209Y-130043180D02*
X112730209Y-129043180D01*
X113111161Y-129043180D01*
X113206400Y-129090800D01*
X113254019Y-129138419D01*
X113301638Y-129233657D01*
X113301638Y-129376514D01*
X113254019Y-129471752D01*
X113206400Y-129519371D01*
X113111161Y-129566990D01*
X112730209Y-129566990D01*
X113730209Y-130043180D02*
X113730209Y-129043180D01*
X114206400Y-130043180D02*
X114206400Y-129043180D01*
X114777828Y-130043180D01*
X114777828Y-129043180D01*
X115777828Y-130043180D02*
X115206400Y-130043180D01*
X115492114Y-130043180D02*
X115492114Y-129043180D01*
X115396876Y-129186038D01*
X115301638Y-129281276D01*
X115206400Y-129328895D01*
X116682590Y-129043180D02*
X116206400Y-129043180D01*
X116158780Y-129519371D01*
X116206400Y-129471752D01*
X116301638Y-129424133D01*
X116539733Y-129424133D01*
X116634971Y-129471752D01*
X116682590Y-129519371D01*
X116730209Y-129614609D01*
X116730209Y-129852704D01*
X116682590Y-129947942D01*
X116634971Y-129995561D01*
X116539733Y-130043180D01*
X116301638Y-130043180D01*
X116206400Y-129995561D01*
X116158780Y-129947942D01*
X154986342Y-151368057D02*
X154986342Y-150168057D01*
X154986342Y-150625200D02*
X155100628Y-150568057D01*
X155329200Y-150568057D01*
X155443485Y-150625200D01*
X155500628Y-150682342D01*
X155557771Y-150796628D01*
X155557771Y-151139485D01*
X155500628Y-151253771D01*
X155443485Y-151310914D01*
X155329200Y-151368057D01*
X155100628Y-151368057D01*
X154986342Y-151310914D01*
X155957771Y-150568057D02*
X156243485Y-151368057D01*
X156529200Y-150568057D02*
X156243485Y-151368057D01*
X156129200Y-151653771D01*
X156072057Y-151710914D01*
X155957771Y-151768057D01*
X157900628Y-151368057D02*
X157900628Y-150168057D01*
X157900628Y-150739485D02*
X158586342Y-150739485D01*
X158586342Y-151368057D02*
X158586342Y-150168057D01*
X159043485Y-150168057D02*
X159329200Y-151368057D01*
X159557771Y-150510914D01*
X159786342Y-151368057D01*
X160072057Y-150168057D01*
X161214914Y-151368057D02*
X160814914Y-150796628D01*
X160529200Y-151368057D02*
X160529200Y-150168057D01*
X160986342Y-150168057D01*
X161100628Y-150225200D01*
X161157771Y-150282342D01*
X161214914Y-150396628D01*
X161214914Y-150568057D01*
X161157771Y-150682342D01*
X161100628Y-150739485D01*
X160986342Y-150796628D01*
X160529200Y-150796628D01*
X161957771Y-150168057D02*
X162072057Y-150168057D01*
X162186342Y-150225200D01*
X162243485Y-150282342D01*
X162300628Y-150396628D01*
X162357771Y-150625200D01*
X162357771Y-150910914D01*
X162300628Y-151139485D01*
X162243485Y-151253771D01*
X162186342Y-151310914D01*
X162072057Y-151368057D01*
X161957771Y-151368057D01*
X161843485Y-151310914D01*
X161786342Y-151253771D01*
X161729200Y-151139485D01*
X161672057Y-150910914D01*
X161672057Y-150625200D01*
X161729200Y-150396628D01*
X161786342Y-150282342D01*
X161843485Y-150225200D01*
X161957771Y-150168057D01*
X164700628Y-150568057D02*
X163786342Y-150910914D01*
X164700628Y-151253771D01*
X165729200Y-151310914D02*
X165614914Y-151368057D01*
X165386342Y-151368057D01*
X165272057Y-151310914D01*
X165214914Y-151196628D01*
X165214914Y-150739485D01*
X165272057Y-150625200D01*
X165386342Y-150568057D01*
X165614914Y-150568057D01*
X165729200Y-150625200D01*
X165786342Y-150739485D01*
X165786342Y-150853771D01*
X165214914Y-150968057D01*
X166186342Y-150568057D02*
X166472057Y-151368057D01*
X166757771Y-150568057D01*
X167214914Y-151368057D02*
X167214914Y-150568057D01*
X167214914Y-150168057D02*
X167157771Y-150225200D01*
X167214914Y-150282342D01*
X167272057Y-150225200D01*
X167214914Y-150168057D01*
X167214914Y-150282342D01*
X167957771Y-151368057D02*
X167843485Y-151310914D01*
X167786342Y-151196628D01*
X167786342Y-150168057D01*
X168414914Y-151368057D02*
X168414914Y-150168057D01*
X168929200Y-151368057D02*
X168929200Y-150739485D01*
X168872057Y-150625200D01*
X168757771Y-150568057D01*
X168586342Y-150568057D01*
X168472057Y-150625200D01*
X168414914Y-150682342D01*
X170014914Y-151368057D02*
X170014914Y-150739485D01*
X169957771Y-150625200D01*
X169843485Y-150568057D01*
X169614914Y-150568057D01*
X169500628Y-150625200D01*
X170014914Y-151310914D02*
X169900628Y-151368057D01*
X169614914Y-151368057D01*
X169500628Y-151310914D01*
X169443485Y-151196628D01*
X169443485Y-151082342D01*
X169500628Y-150968057D01*
X169614914Y-150910914D01*
X169900628Y-150910914D01*
X170014914Y-150853771D01*
X170586342Y-151368057D02*
X170586342Y-150568057D01*
X170586342Y-150796628D02*
X170643485Y-150682342D01*
X170700628Y-150625200D01*
X170814914Y-150568057D01*
X170929200Y-150568057D01*
X171843485Y-151368057D02*
X171843485Y-150168057D01*
X171843485Y-151310914D02*
X171729200Y-151368057D01*
X171500628Y-151368057D01*
X171386342Y-151310914D01*
X171329200Y-151253771D01*
X171272057Y-151139485D01*
X171272057Y-150796628D01*
X171329200Y-150682342D01*
X171386342Y-150625200D01*
X171500628Y-150568057D01*
X171729200Y-150568057D01*
X171843485Y-150625200D01*
X172300628Y-150568057D02*
X172529200Y-151368057D01*
X172757771Y-150796628D01*
X172986342Y-151368057D01*
X173214914Y-150568057D01*
X174186342Y-151368057D02*
X174186342Y-150739485D01*
X174129200Y-150625200D01*
X174014914Y-150568057D01*
X173786342Y-150568057D01*
X173672057Y-150625200D01*
X174186342Y-151310914D02*
X174072057Y-151368057D01*
X173786342Y-151368057D01*
X173672057Y-151310914D01*
X173614914Y-151196628D01*
X173614914Y-151082342D01*
X173672057Y-150968057D01*
X173786342Y-150910914D01*
X174072057Y-150910914D01*
X174186342Y-150853771D01*
X174757771Y-151368057D02*
X174757771Y-150568057D01*
X174757771Y-150796628D02*
X174814914Y-150682342D01*
X174872057Y-150625200D01*
X174986342Y-150568057D01*
X175100628Y-150568057D01*
X175957771Y-151310914D02*
X175843485Y-151368057D01*
X175614914Y-151368057D01*
X175500628Y-151310914D01*
X175443485Y-151196628D01*
X175443485Y-150739485D01*
X175500628Y-150625200D01*
X175614914Y-150568057D01*
X175843485Y-150568057D01*
X175957771Y-150625200D01*
X176014914Y-150739485D01*
X176014914Y-150853771D01*
X175443485Y-150968057D01*
X177272057Y-150796628D02*
X177214914Y-150739485D01*
X177100628Y-150682342D01*
X176986342Y-150682342D01*
X176872057Y-150739485D01*
X176814914Y-150796628D01*
X176757771Y-150910914D01*
X176757771Y-151025200D01*
X176814914Y-151139485D01*
X176872057Y-151196628D01*
X176986342Y-151253771D01*
X177100628Y-151253771D01*
X177214914Y-151196628D01*
X177272057Y-151139485D01*
X177272057Y-150682342D02*
X177272057Y-151139485D01*
X177329200Y-151196628D01*
X177386342Y-151196628D01*
X177500628Y-151139485D01*
X177557771Y-151025200D01*
X177557771Y-150739485D01*
X177443485Y-150568057D01*
X177272057Y-150453771D01*
X177043485Y-150396628D01*
X176814914Y-150453771D01*
X176643485Y-150568057D01*
X176529200Y-150739485D01*
X176472057Y-150968057D01*
X176529200Y-151196628D01*
X176643485Y-151368057D01*
X176814914Y-151482342D01*
X177043485Y-151539485D01*
X177272057Y-151482342D01*
X177443485Y-151368057D01*
X178072057Y-151368057D02*
X178072057Y-150568057D01*
X178072057Y-150682342D02*
X178129200Y-150625200D01*
X178243485Y-150568057D01*
X178414914Y-150568057D01*
X178529200Y-150625200D01*
X178586342Y-150739485D01*
X178586342Y-151368057D01*
X178586342Y-150739485D02*
X178643485Y-150625200D01*
X178757771Y-150568057D01*
X178929200Y-150568057D01*
X179043485Y-150625200D01*
X179100628Y-150739485D01*
X179100628Y-151368057D01*
X180186342Y-151368057D02*
X180186342Y-150739485D01*
X180129200Y-150625200D01*
X180014914Y-150568057D01*
X179786342Y-150568057D01*
X179672057Y-150625200D01*
X180186342Y-151310914D02*
X180072057Y-151368057D01*
X179786342Y-151368057D01*
X179672057Y-151310914D01*
X179614914Y-151196628D01*
X179614914Y-151082342D01*
X179672057Y-150968057D01*
X179786342Y-150910914D01*
X180072057Y-150910914D01*
X180186342Y-150853771D01*
X180757771Y-151368057D02*
X180757771Y-150568057D01*
X180757771Y-150168057D02*
X180700628Y-150225200D01*
X180757771Y-150282342D01*
X180814914Y-150225200D01*
X180757771Y-150168057D01*
X180757771Y-150282342D01*
X181500628Y-151368057D02*
X181386342Y-151310914D01*
X181329200Y-151196628D01*
X181329200Y-150168057D01*
X181957771Y-151253771D02*
X182014914Y-151310914D01*
X181957771Y-151368057D01*
X181900628Y-151310914D01*
X181957771Y-151253771D01*
X181957771Y-151368057D01*
X182529200Y-151368057D02*
X182529200Y-150568057D01*
X182529200Y-150796628D02*
X182586342Y-150682342D01*
X182643485Y-150625200D01*
X182757771Y-150568057D01*
X182872057Y-150568057D01*
X183786342Y-150568057D02*
X183786342Y-151368057D01*
X183272057Y-150568057D02*
X183272057Y-151196628D01*
X183329200Y-151310914D01*
X183443485Y-151368057D01*
X183614914Y-151368057D01*
X183729200Y-151310914D01*
X183786342Y-151253771D01*
X184357771Y-150568057D02*
X185272057Y-150910914D01*
X184357771Y-151253771D01*
X122507619Y-92273428D02*
X123269523Y-92273428D01*
X122888571Y-92654380D02*
X122888571Y-91892476D01*
X123745714Y-92654380D02*
X123745714Y-91654380D01*
X124126666Y-91654380D01*
X124221904Y-91702000D01*
X124269523Y-91749619D01*
X124317142Y-91844857D01*
X124317142Y-91987714D01*
X124269523Y-92082952D01*
X124221904Y-92130571D01*
X124126666Y-92178190D01*
X123745714Y-92178190D01*
X124650476Y-91654380D02*
X124888571Y-92654380D01*
X125079047Y-91940095D01*
X125269523Y-92654380D01*
X125507619Y-91654380D01*
X126460000Y-92654380D02*
X126126666Y-92178190D01*
X125888571Y-92654380D02*
X125888571Y-91654380D01*
X126269523Y-91654380D01*
X126364761Y-91702000D01*
X126412380Y-91749619D01*
X126460000Y-91844857D01*
X126460000Y-91987714D01*
X126412380Y-92082952D01*
X126364761Y-92130571D01*
X126269523Y-92178190D01*
X125888571Y-92178190D01*
X127950595Y-93432380D02*
X128283928Y-94432380D01*
X128617261Y-93432380D01*
X129522023Y-94337142D02*
X129474404Y-94384761D01*
X129331547Y-94432380D01*
X129236309Y-94432380D01*
X129093452Y-94384761D01*
X128998214Y-94289523D01*
X128950595Y-94194285D01*
X128902976Y-94003809D01*
X128902976Y-93860952D01*
X128950595Y-93670476D01*
X128998214Y-93575238D01*
X129093452Y-93480000D01*
X129236309Y-93432380D01*
X129331547Y-93432380D01*
X129474404Y-93480000D01*
X129522023Y-93527619D01*
X130522023Y-94337142D02*
X130474404Y-94384761D01*
X130331547Y-94432380D01*
X130236309Y-94432380D01*
X130093452Y-94384761D01*
X129998214Y-94289523D01*
X129950595Y-94194285D01*
X129902976Y-94003809D01*
X129902976Y-93860952D01*
X129950595Y-93670476D01*
X129998214Y-93575238D01*
X130093452Y-93480000D01*
X130236309Y-93432380D01*
X130331547Y-93432380D01*
X130474404Y-93480000D01*
X130522023Y-93527619D01*
X128426785Y-96020000D02*
X128331547Y-95972380D01*
X128188690Y-95972380D01*
X128045833Y-96020000D01*
X127950595Y-96115238D01*
X127902976Y-96210476D01*
X127855357Y-96400952D01*
X127855357Y-96543809D01*
X127902976Y-96734285D01*
X127950595Y-96829523D01*
X128045833Y-96924761D01*
X128188690Y-96972380D01*
X128283928Y-96972380D01*
X128426785Y-96924761D01*
X128474404Y-96877142D01*
X128474404Y-96543809D01*
X128283928Y-96543809D01*
X128902976Y-96972380D02*
X128902976Y-95972380D01*
X129474404Y-96972380D01*
X129474404Y-95972380D01*
X129950595Y-96972380D02*
X129950595Y-95972380D01*
X130188690Y-95972380D01*
X130331547Y-96020000D01*
X130426785Y-96115238D01*
X130474404Y-96210476D01*
X130522023Y-96400952D01*
X130522023Y-96543809D01*
X130474404Y-96734285D01*
X130426785Y-96829523D01*
X130331547Y-96924761D01*
X130188690Y-96972380D01*
X129950595Y-96972380D01*
X126522023Y-135072380D02*
X126522023Y-134072380D01*
X126902976Y-134072380D01*
X126998214Y-134120000D01*
X127045833Y-134167619D01*
X127093452Y-134262857D01*
X127093452Y-134405714D01*
X127045833Y-134500952D01*
X126998214Y-134548571D01*
X126902976Y-134596190D01*
X126522023Y-134596190D01*
X127522023Y-135072380D02*
X127522023Y-134072380D01*
X127998214Y-135072380D02*
X127998214Y-134072380D01*
X128569642Y-135072380D01*
X128569642Y-134072380D01*
X129569642Y-135072380D02*
X128998214Y-135072380D01*
X129283928Y-135072380D02*
X129283928Y-134072380D01*
X129188690Y-134215238D01*
X129093452Y-134310476D01*
X128998214Y-134358095D01*
X130474404Y-134072380D02*
X129998214Y-134072380D01*
X129950595Y-134548571D01*
X129998214Y-134500952D01*
X130093452Y-134453333D01*
X130331547Y-134453333D01*
X130426785Y-134500952D01*
X130474404Y-134548571D01*
X130522023Y-134643809D01*
X130522023Y-134881904D01*
X130474404Y-134977142D01*
X130426785Y-135024761D01*
X130331547Y-135072380D01*
X130093452Y-135072380D01*
X129998214Y-135024761D01*
X129950595Y-134977142D01*
X128188690Y-132532380D02*
X128188690Y-131532380D01*
X128426785Y-131532380D01*
X128569642Y-131580000D01*
X128664880Y-131675238D01*
X128712500Y-131770476D01*
X128760119Y-131960952D01*
X128760119Y-132103809D01*
X128712500Y-132294285D01*
X128664880Y-132389523D01*
X128569642Y-132484761D01*
X128426785Y-132532380D01*
X128188690Y-132532380D01*
X129045833Y-131532380D02*
X129617261Y-131532380D01*
X129331547Y-132532380D02*
X129331547Y-131532380D01*
X130522023Y-132532380D02*
X130188690Y-132056190D01*
X129950595Y-132532380D02*
X129950595Y-131532380D01*
X130331547Y-131532380D01*
X130426785Y-131580000D01*
X130474404Y-131627619D01*
X130522023Y-131722857D01*
X130522023Y-131865714D01*
X130474404Y-131960952D01*
X130426785Y-132008571D01*
X130331547Y-132056190D01*
X129950595Y-132056190D01*
X126998214Y-128992380D02*
X127331547Y-129992380D01*
X127664880Y-128992380D01*
X128569642Y-129897142D02*
X128522023Y-129944761D01*
X128379166Y-129992380D01*
X128283928Y-129992380D01*
X128141071Y-129944761D01*
X128045833Y-129849523D01*
X127998214Y-129754285D01*
X127950595Y-129563809D01*
X127950595Y-129420952D01*
X127998214Y-129230476D01*
X128045833Y-129135238D01*
X128141071Y-129040000D01*
X128283928Y-128992380D01*
X128379166Y-128992380D01*
X128522023Y-129040000D01*
X128569642Y-129087619D01*
X129569642Y-129897142D02*
X129522023Y-129944761D01*
X129379166Y-129992380D01*
X129283928Y-129992380D01*
X129141071Y-129944761D01*
X129045833Y-129849523D01*
X128998214Y-129754285D01*
X128950595Y-129563809D01*
X128950595Y-129420952D01*
X128998214Y-129230476D01*
X129045833Y-129135238D01*
X129141071Y-129040000D01*
X129283928Y-128992380D01*
X129379166Y-128992380D01*
X129522023Y-129040000D01*
X129569642Y-129087619D01*
X129950595Y-129087619D02*
X129998214Y-129040000D01*
X130093452Y-128992380D01*
X130331547Y-128992380D01*
X130426785Y-129040000D01*
X130474404Y-129087619D01*
X130522023Y-129182857D01*
X130522023Y-129278095D01*
X130474404Y-129420952D01*
X129902976Y-129992380D01*
X130522023Y-129992380D01*
X126522023Y-127452380D02*
X126522023Y-126452380D01*
X126902976Y-126452380D01*
X126998214Y-126500000D01*
X127045833Y-126547619D01*
X127093452Y-126642857D01*
X127093452Y-126785714D01*
X127045833Y-126880952D01*
X126998214Y-126928571D01*
X126902976Y-126976190D01*
X126522023Y-126976190D01*
X127522023Y-127452380D02*
X127522023Y-126452380D01*
X127998214Y-127452380D02*
X127998214Y-126452380D01*
X128569642Y-127452380D01*
X128569642Y-126452380D01*
X129569642Y-127452380D02*
X128998214Y-127452380D01*
X129283928Y-127452380D02*
X129283928Y-126452380D01*
X129188690Y-126595238D01*
X129093452Y-126690476D01*
X128998214Y-126738095D01*
X129950595Y-126547619D02*
X129998214Y-126500000D01*
X130093452Y-126452380D01*
X130331547Y-126452380D01*
X130426785Y-126500000D01*
X130474404Y-126547619D01*
X130522023Y-126642857D01*
X130522023Y-126738095D01*
X130474404Y-126880952D01*
X129902976Y-127452380D01*
X130522023Y-127452380D01*
X129522023Y-124912380D02*
X129188690Y-124436190D01*
X128950595Y-124912380D02*
X128950595Y-123912380D01*
X129331547Y-123912380D01*
X129426785Y-123960000D01*
X129474404Y-124007619D01*
X129522023Y-124102857D01*
X129522023Y-124245714D01*
X129474404Y-124340952D01*
X129426785Y-124388571D01*
X129331547Y-124436190D01*
X128950595Y-124436190D01*
X130522023Y-124912380D02*
X130188690Y-124436190D01*
X129950595Y-124912380D02*
X129950595Y-123912380D01*
X130331547Y-123912380D01*
X130426785Y-123960000D01*
X130474404Y-124007619D01*
X130522023Y-124102857D01*
X130522023Y-124245714D01*
X130474404Y-124340952D01*
X130426785Y-124388571D01*
X130331547Y-124436190D01*
X129950595Y-124436190D01*
X127474404Y-122372380D02*
X127474404Y-121372380D01*
X127855357Y-121372380D01*
X127950595Y-121420000D01*
X127998214Y-121467619D01*
X128045833Y-121562857D01*
X128045833Y-121705714D01*
X127998214Y-121800952D01*
X127950595Y-121848571D01*
X127855357Y-121896190D01*
X127474404Y-121896190D01*
X128474404Y-122372380D02*
X128474404Y-121372380D01*
X128950595Y-122372380D02*
X128950595Y-121372380D01*
X129522023Y-122372380D01*
X129522023Y-121372380D01*
X130045833Y-122372380D02*
X130236309Y-122372380D01*
X130331547Y-122324761D01*
X130379166Y-122277142D01*
X130474404Y-122134285D01*
X130522023Y-121943809D01*
X130522023Y-121562857D01*
X130474404Y-121467619D01*
X130426785Y-121420000D01*
X130331547Y-121372380D01*
X130141071Y-121372380D01*
X130045833Y-121420000D01*
X129998214Y-121467619D01*
X129950595Y-121562857D01*
X129950595Y-121800952D01*
X129998214Y-121896190D01*
X130045833Y-121943809D01*
X130141071Y-121991428D01*
X130331547Y-121991428D01*
X130426785Y-121943809D01*
X130474404Y-121896190D01*
X130522023Y-121800952D01*
X129522023Y-119737142D02*
X129474404Y-119784761D01*
X129331547Y-119832380D01*
X129236309Y-119832380D01*
X129093452Y-119784761D01*
X128998214Y-119689523D01*
X128950595Y-119594285D01*
X128902976Y-119403809D01*
X128902976Y-119260952D01*
X128950595Y-119070476D01*
X128998214Y-118975238D01*
X129093452Y-118880000D01*
X129236309Y-118832380D01*
X129331547Y-118832380D01*
X129474404Y-118880000D01*
X129522023Y-118927619D01*
X129950595Y-119832380D02*
X129950595Y-118832380D01*
X130188690Y-118832380D01*
X130331547Y-118880000D01*
X130426785Y-118975238D01*
X130474404Y-119070476D01*
X130522023Y-119260952D01*
X130522023Y-119403809D01*
X130474404Y-119594285D01*
X130426785Y-119689523D01*
X130331547Y-119784761D01*
X130188690Y-119832380D01*
X129950595Y-119832380D01*
X127474404Y-117292380D02*
X127474404Y-116292380D01*
X127855357Y-116292380D01*
X127950595Y-116340000D01*
X127998214Y-116387619D01*
X128045833Y-116482857D01*
X128045833Y-116625714D01*
X127998214Y-116720952D01*
X127950595Y-116768571D01*
X127855357Y-116816190D01*
X127474404Y-116816190D01*
X128474404Y-117292380D02*
X128474404Y-116292380D01*
X128950595Y-117292380D02*
X128950595Y-116292380D01*
X129522023Y-117292380D01*
X129522023Y-116292380D01*
X130426785Y-116292380D02*
X130236309Y-116292380D01*
X130141071Y-116340000D01*
X130093452Y-116387619D01*
X129998214Y-116530476D01*
X129950595Y-116720952D01*
X129950595Y-117101904D01*
X129998214Y-117197142D01*
X130045833Y-117244761D01*
X130141071Y-117292380D01*
X130331547Y-117292380D01*
X130426785Y-117244761D01*
X130474404Y-117197142D01*
X130522023Y-117101904D01*
X130522023Y-116863809D01*
X130474404Y-116768571D01*
X130426785Y-116720952D01*
X130331547Y-116673333D01*
X130141071Y-116673333D01*
X130045833Y-116720952D01*
X129998214Y-116768571D01*
X129950595Y-116863809D01*
X128807738Y-114657142D02*
X128760119Y-114704761D01*
X128617261Y-114752380D01*
X128522023Y-114752380D01*
X128379166Y-114704761D01*
X128283928Y-114609523D01*
X128236309Y-114514285D01*
X128188690Y-114323809D01*
X128188690Y-114180952D01*
X128236309Y-113990476D01*
X128283928Y-113895238D01*
X128379166Y-113800000D01*
X128522023Y-113752380D01*
X128617261Y-113752380D01*
X128760119Y-113800000D01*
X128807738Y-113847619D01*
X129093452Y-113752380D02*
X129664880Y-113752380D01*
X129379166Y-114752380D02*
X129379166Y-113752380D01*
X129950595Y-114704761D02*
X130093452Y-114752380D01*
X130331547Y-114752380D01*
X130426785Y-114704761D01*
X130474404Y-114657142D01*
X130522023Y-114561904D01*
X130522023Y-114466666D01*
X130474404Y-114371428D01*
X130426785Y-114323809D01*
X130331547Y-114276190D01*
X130141071Y-114228571D01*
X130045833Y-114180952D01*
X129998214Y-114133333D01*
X129950595Y-114038095D01*
X129950595Y-113942857D01*
X129998214Y-113847619D01*
X130045833Y-113800000D01*
X130141071Y-113752380D01*
X130379166Y-113752380D01*
X130522023Y-113800000D01*
X128807738Y-112212380D02*
X128474404Y-111736190D01*
X128236309Y-112212380D02*
X128236309Y-111212380D01*
X128617261Y-111212380D01*
X128712500Y-111260000D01*
X128760119Y-111307619D01*
X128807738Y-111402857D01*
X128807738Y-111545714D01*
X128760119Y-111640952D01*
X128712500Y-111688571D01*
X128617261Y-111736190D01*
X128236309Y-111736190D01*
X129093452Y-111212380D02*
X129664880Y-111212380D01*
X129379166Y-112212380D02*
X129379166Y-111212380D01*
X129950595Y-112164761D02*
X130093452Y-112212380D01*
X130331547Y-112212380D01*
X130426785Y-112164761D01*
X130474404Y-112117142D01*
X130522023Y-112021904D01*
X130522023Y-111926666D01*
X130474404Y-111831428D01*
X130426785Y-111783809D01*
X130331547Y-111736190D01*
X130141071Y-111688571D01*
X130045833Y-111640952D01*
X129998214Y-111593333D01*
X129950595Y-111498095D01*
X129950595Y-111402857D01*
X129998214Y-111307619D01*
X130045833Y-111260000D01*
X130141071Y-111212380D01*
X130379166Y-111212380D01*
X130522023Y-111260000D01*
X128569642Y-109672380D02*
X128236309Y-109196190D01*
X127998214Y-109672380D02*
X127998214Y-108672380D01*
X128379166Y-108672380D01*
X128474404Y-108720000D01*
X128522023Y-108767619D01*
X128569642Y-108862857D01*
X128569642Y-109005714D01*
X128522023Y-109100952D01*
X128474404Y-109148571D01*
X128379166Y-109196190D01*
X127998214Y-109196190D01*
X128902976Y-108672380D02*
X129569642Y-109672380D01*
X129569642Y-108672380D02*
X128902976Y-109672380D01*
X129950595Y-109672380D02*
X129950595Y-108672380D01*
X130188690Y-108672380D01*
X130331547Y-108720000D01*
X130426785Y-108815238D01*
X130474404Y-108910476D01*
X130522023Y-109100952D01*
X130522023Y-109243809D01*
X130474404Y-109434285D01*
X130426785Y-109529523D01*
X130331547Y-109624761D01*
X130188690Y-109672380D01*
X129950595Y-109672380D01*
X128093452Y-106132380D02*
X128664880Y-106132380D01*
X128379166Y-107132380D02*
X128379166Y-106132380D01*
X128902976Y-106132380D02*
X129569642Y-107132380D01*
X129569642Y-106132380D02*
X128902976Y-107132380D01*
X129950595Y-107132380D02*
X129950595Y-106132380D01*
X130188690Y-106132380D01*
X130331547Y-106180000D01*
X130426785Y-106275238D01*
X130474404Y-106370476D01*
X130522023Y-106560952D01*
X130522023Y-106703809D01*
X130474404Y-106894285D01*
X130426785Y-106989523D01*
X130331547Y-107084761D01*
X130188690Y-107132380D01*
X129950595Y-107132380D01*
X111381000Y-103687571D02*
X111147666Y-103687571D01*
X111147666Y-104211380D02*
X111147666Y-103211380D01*
X111481000Y-103211380D01*
X111747666Y-104211380D02*
X111747666Y-103544714D01*
X111747666Y-103735190D02*
X111781000Y-103639952D01*
X111814333Y-103592333D01*
X111881000Y-103544714D01*
X111947666Y-103544714D01*
X112481000Y-104211380D02*
X112481000Y-103687571D01*
X112447666Y-103592333D01*
X112381000Y-103544714D01*
X112247666Y-103544714D01*
X112181000Y-103592333D01*
X112481000Y-104163761D02*
X112414333Y-104211380D01*
X112247666Y-104211380D01*
X112181000Y-104163761D01*
X112147666Y-104068523D01*
X112147666Y-103973285D01*
X112181000Y-103878047D01*
X112247666Y-103830428D01*
X112414333Y-103830428D01*
X112481000Y-103782809D01*
X112814333Y-104211380D02*
X112814333Y-103544714D01*
X112814333Y-103639952D02*
X112847666Y-103592333D01*
X112914333Y-103544714D01*
X113014333Y-103544714D01*
X113081000Y-103592333D01*
X113114333Y-103687571D01*
X113114333Y-104211380D01*
X113114333Y-103687571D02*
X113147666Y-103592333D01*
X113214333Y-103544714D01*
X113314333Y-103544714D01*
X113381000Y-103592333D01*
X113414333Y-103687571D01*
X113414333Y-104211380D01*
X114014333Y-104163761D02*
X113947666Y-104211380D01*
X113814333Y-104211380D01*
X113747666Y-104163761D01*
X113714333Y-104068523D01*
X113714333Y-103687571D01*
X113747666Y-103592333D01*
X113814333Y-103544714D01*
X113947666Y-103544714D01*
X114014333Y-103592333D01*
X114047666Y-103687571D01*
X114047666Y-103782809D01*
X113714333Y-103878047D01*
X115247666Y-103259000D02*
X115181000Y-103211380D01*
X115081000Y-103211380D01*
X114981000Y-103259000D01*
X114914333Y-103354238D01*
X114881000Y-103449476D01*
X114847666Y-103639952D01*
X114847666Y-103782809D01*
X114881000Y-103973285D01*
X114914333Y-104068523D01*
X114981000Y-104163761D01*
X115081000Y-104211380D01*
X115147666Y-104211380D01*
X115247666Y-104163761D01*
X115281000Y-104116142D01*
X115281000Y-103782809D01*
X115147666Y-103782809D01*
X115581000Y-104211380D02*
X115581000Y-103544714D01*
X115581000Y-103735190D02*
X115614333Y-103639952D01*
X115647666Y-103592333D01*
X115714333Y-103544714D01*
X115781000Y-103544714D01*
X116114333Y-104211380D02*
X116047666Y-104163761D01*
X116014333Y-104116142D01*
X115981000Y-104020904D01*
X115981000Y-103735190D01*
X116014333Y-103639952D01*
X116047666Y-103592333D01*
X116114333Y-103544714D01*
X116214333Y-103544714D01*
X116281000Y-103592333D01*
X116314333Y-103639952D01*
X116347666Y-103735190D01*
X116347666Y-104020904D01*
X116314333Y-104116142D01*
X116281000Y-104163761D01*
X116214333Y-104211380D01*
X116114333Y-104211380D01*
X116947666Y-103544714D02*
X116947666Y-104211380D01*
X116647666Y-103544714D02*
X116647666Y-104068523D01*
X116681000Y-104163761D01*
X116747666Y-104211380D01*
X116847666Y-104211380D01*
X116914333Y-104163761D01*
X116947666Y-104116142D01*
X117281000Y-103544714D02*
X117281000Y-104211380D01*
X117281000Y-103639952D02*
X117314333Y-103592333D01*
X117381000Y-103544714D01*
X117481000Y-103544714D01*
X117547666Y-103592333D01*
X117581000Y-103687571D01*
X117581000Y-104211380D01*
X118214333Y-104211380D02*
X118214333Y-103211380D01*
X118214333Y-104163761D02*
X118147666Y-104211380D01*
X118014333Y-104211380D01*
X117947666Y-104163761D01*
X117914333Y-104116142D01*
X117881000Y-104020904D01*
X117881000Y-103735190D01*
X117914333Y-103639952D01*
X117947666Y-103592333D01*
X118014333Y-103544714D01*
X118147666Y-103544714D01*
X118214333Y-103592333D01*
X122347690Y-101052380D02*
X122614357Y-102052380D01*
X122881023Y-101052380D01*
X123604833Y-101957142D02*
X123566738Y-102004761D01*
X123452452Y-102052380D01*
X123376261Y-102052380D01*
X123261976Y-102004761D01*
X123185785Y-101909523D01*
X123147690Y-101814285D01*
X123109595Y-101623809D01*
X123109595Y-101480952D01*
X123147690Y-101290476D01*
X123185785Y-101195238D01*
X123261976Y-101100000D01*
X123376261Y-101052380D01*
X123452452Y-101052380D01*
X123566738Y-101100000D01*
X123604833Y-101147619D01*
X124404833Y-101957142D02*
X124366738Y-102004761D01*
X124252452Y-102052380D01*
X124176261Y-102052380D01*
X124061976Y-102004761D01*
X123985785Y-101909523D01*
X123947690Y-101814285D01*
X123909595Y-101623809D01*
X123909595Y-101480952D01*
X123947690Y-101290476D01*
X123985785Y-101195238D01*
X124061976Y-101100000D01*
X124176261Y-101052380D01*
X124252452Y-101052380D01*
X124366738Y-101100000D01*
X124404833Y-101147619D01*
X125814357Y-101957142D02*
X125776261Y-102004761D01*
X125661976Y-102052380D01*
X125585785Y-102052380D01*
X125471500Y-102004761D01*
X125395309Y-101909523D01*
X125357214Y-101814285D01*
X125319119Y-101623809D01*
X125319119Y-101480952D01*
X125357214Y-101290476D01*
X125395309Y-101195238D01*
X125471500Y-101100000D01*
X125585785Y-101052380D01*
X125661976Y-101052380D01*
X125776261Y-101100000D01*
X125814357Y-101147619D01*
X126271500Y-102052380D02*
X126195309Y-102004761D01*
X126157214Y-101957142D01*
X126119119Y-101861904D01*
X126119119Y-101576190D01*
X126157214Y-101480952D01*
X126195309Y-101433333D01*
X126271500Y-101385714D01*
X126385785Y-101385714D01*
X126461976Y-101433333D01*
X126500071Y-101480952D01*
X126538166Y-101576190D01*
X126538166Y-101861904D01*
X126500071Y-101957142D01*
X126461976Y-102004761D01*
X126385785Y-102052380D01*
X126271500Y-102052380D01*
X126881023Y-101385714D02*
X126881023Y-102052380D01*
X126881023Y-101480952D02*
X126919119Y-101433333D01*
X126995309Y-101385714D01*
X127109595Y-101385714D01*
X127185785Y-101433333D01*
X127223880Y-101528571D01*
X127223880Y-102052380D01*
X127604833Y-101385714D02*
X127604833Y-102052380D01*
X127604833Y-101480952D02*
X127642928Y-101433333D01*
X127719119Y-101385714D01*
X127833404Y-101385714D01*
X127909595Y-101433333D01*
X127947690Y-101528571D01*
X127947690Y-102052380D01*
X128633404Y-102004761D02*
X128557214Y-102052380D01*
X128404833Y-102052380D01*
X128328642Y-102004761D01*
X128290547Y-101909523D01*
X128290547Y-101528571D01*
X128328642Y-101433333D01*
X128404833Y-101385714D01*
X128557214Y-101385714D01*
X128633404Y-101433333D01*
X128671500Y-101528571D01*
X128671500Y-101623809D01*
X128290547Y-101719047D01*
X129357214Y-102004761D02*
X129281023Y-102052380D01*
X129128642Y-102052380D01*
X129052452Y-102004761D01*
X129014357Y-101957142D01*
X128976261Y-101861904D01*
X128976261Y-101576190D01*
X129014357Y-101480952D01*
X129052452Y-101433333D01*
X129128642Y-101385714D01*
X129281023Y-101385714D01*
X129357214Y-101433333D01*
X129585785Y-101385714D02*
X129890547Y-101385714D01*
X129700071Y-101052380D02*
X129700071Y-101909523D01*
X129738166Y-102004761D01*
X129814357Y-102052380D01*
X129890547Y-102052380D01*
X122801142Y-97988380D02*
X122324952Y-97988380D01*
X122324952Y-96988380D01*
X123134476Y-97464571D02*
X123467809Y-97464571D01*
X123610666Y-97988380D02*
X123134476Y-97988380D01*
X123134476Y-96988380D01*
X123610666Y-96988380D01*
X124039238Y-97988380D02*
X124039238Y-96988380D01*
X124277333Y-96988380D01*
X124420190Y-97036000D01*
X124515428Y-97131238D01*
X124563047Y-97226476D01*
X124610666Y-97416952D01*
X124610666Y-97559809D01*
X124563047Y-97750285D01*
X124515428Y-97845523D01*
X124420190Y-97940761D01*
X124277333Y-97988380D01*
X124039238Y-97988380D01*
D12*
X135234076Y-148739123D02*
X135519790Y-148834361D01*
X135995980Y-148834361D01*
X136186457Y-148739123D01*
X136281695Y-148643885D01*
X136376933Y-148453409D01*
X136376933Y-148262933D01*
X136281695Y-148072457D01*
X136186457Y-147977219D01*
X135995980Y-147881980D01*
X135615028Y-147786742D01*
X135424552Y-147691504D01*
X135329314Y-147596266D01*
X135234076Y-147405790D01*
X135234076Y-147215314D01*
X135329314Y-147024838D01*
X135424552Y-146929600D01*
X135615028Y-146834361D01*
X136091219Y-146834361D01*
X136376933Y-146929600D01*
X137234076Y-148834361D02*
X137234076Y-146834361D01*
X137234076Y-147786742D02*
X138376933Y-147786742D01*
X138376933Y-148834361D02*
X138376933Y-146834361D01*
X139234076Y-148262933D02*
X140186457Y-148262933D01*
X139043600Y-148834361D02*
X139710266Y-146834361D01*
X140376933Y-148834361D01*
X142186457Y-148834361D02*
X141519790Y-147881980D01*
X141043600Y-148834361D02*
X141043600Y-146834361D01*
X141805504Y-146834361D01*
X141995980Y-146929600D01*
X142091219Y-147024838D01*
X142186457Y-147215314D01*
X142186457Y-147501028D01*
X142091219Y-147691504D01*
X141995980Y-147786742D01*
X141805504Y-147881980D01*
X141043600Y-147881980D01*
X143043600Y-148834361D02*
X143043600Y-146834361D01*
X143805504Y-146834361D01*
X143995980Y-146929600D01*
X144091219Y-147024838D01*
X144186457Y-147215314D01*
X144186457Y-147501028D01*
X144091219Y-147691504D01*
X143995980Y-147786742D01*
X143805504Y-147881980D01*
X143043600Y-147881980D01*
X146567409Y-148834361D02*
X146567409Y-146834361D01*
X147329314Y-146834361D01*
X147519790Y-146929600D01*
X147615028Y-147024838D01*
X147710266Y-147215314D01*
X147710266Y-147501028D01*
X147615028Y-147691504D01*
X147519790Y-147786742D01*
X147329314Y-147881980D01*
X146567409Y-147881980D01*
X149710266Y-148643885D02*
X149615028Y-148739123D01*
X149329314Y-148834361D01*
X149138838Y-148834361D01*
X148853123Y-148739123D01*
X148662647Y-148548647D01*
X148567409Y-148358171D01*
X148472171Y-147977219D01*
X148472171Y-147691504D01*
X148567409Y-147310552D01*
X148662647Y-147120076D01*
X148853123Y-146929600D01*
X149138838Y-146834361D01*
X149329314Y-146834361D01*
X149615028Y-146929600D01*
X149710266Y-147024838D01*
X150567409Y-148072457D02*
X152091219Y-148072457D01*
X153043600Y-147786742D02*
X153710266Y-147786742D01*
X153995980Y-148834361D02*
X153043600Y-148834361D01*
X153043600Y-146834361D01*
X153995980Y-146834361D01*
X155805504Y-146834361D02*
X154853123Y-146834361D01*
X154757885Y-147786742D01*
X154853123Y-147691504D01*
X155043600Y-147596266D01*
X155519790Y-147596266D01*
X155710266Y-147691504D01*
X155805504Y-147786742D01*
X155900742Y-147977219D01*
X155900742Y-148453409D01*
X155805504Y-148643885D01*
X155710266Y-148739123D01*
X155519790Y-148834361D01*
X155043600Y-148834361D01*
X154853123Y-148739123D01*
X154757885Y-148643885D01*
X157138838Y-146834361D02*
X157329314Y-146834361D01*
X157519790Y-146929600D01*
X157615028Y-147024838D01*
X157710266Y-147215314D01*
X157805504Y-147596266D01*
X157805504Y-148072457D01*
X157710266Y-148453409D01*
X157615028Y-148643885D01*
X157519790Y-148739123D01*
X157329314Y-148834361D01*
X157138838Y-148834361D01*
X156948361Y-148739123D01*
X156853123Y-148643885D01*
X156757885Y-148453409D01*
X156662647Y-148072457D01*
X156662647Y-147596266D01*
X156757885Y-147215314D01*
X156853123Y-147024838D01*
X156948361Y-146929600D01*
X157138838Y-146834361D01*
X159043600Y-146834361D02*
X159234076Y-146834361D01*
X159424552Y-146929600D01*
X159519790Y-147024838D01*
X159615028Y-147215314D01*
X159710266Y-147596266D01*
X159710266Y-148072457D01*
X159615028Y-148453409D01*
X159519790Y-148643885D01*
X159424552Y-148739123D01*
X159234076Y-148834361D01*
X159043600Y-148834361D01*
X158853123Y-148739123D01*
X158757885Y-148643885D01*
X158662647Y-148453409D01*
X158567409Y-148072457D01*
X158567409Y-147596266D01*
X158662647Y-147215314D01*
X158757885Y-147024838D01*
X158853123Y-146929600D01*
X159043600Y-146834361D01*
X163519790Y-146739123D02*
X161805504Y-149310552D01*
X165710266Y-148834361D02*
X165710266Y-146834361D01*
X166472171Y-146834361D01*
X166662647Y-146929600D01*
X166757885Y-147024838D01*
X166853123Y-147215314D01*
X166853123Y-147501028D01*
X166757885Y-147691504D01*
X166662647Y-147786742D01*
X166472171Y-147881980D01*
X165710266Y-147881980D01*
X168853123Y-148643885D02*
X168757885Y-148739123D01*
X168472171Y-148834361D01*
X168281695Y-148834361D01*
X167995980Y-148739123D01*
X167805504Y-148548647D01*
X167710266Y-148358171D01*
X167615028Y-147977219D01*
X167615028Y-147691504D01*
X167710266Y-147310552D01*
X167805504Y-147120076D01*
X167995980Y-146929600D01*
X168281695Y-146834361D01*
X168472171Y-146834361D01*
X168757885Y-146929600D01*
X168853123Y-147024838D01*
X169710266Y-148072457D02*
X171234076Y-148072457D01*
X173234076Y-148834361D02*
X172091219Y-148834361D01*
X172662647Y-148834361D02*
X172662647Y-146834361D01*
X172472171Y-147120076D01*
X172281695Y-147310552D01*
X172091219Y-147405790D01*
X174948361Y-146834361D02*
X174567409Y-146834361D01*
X174376933Y-146929600D01*
X174281695Y-147024838D01*
X174091219Y-147310552D01*
X173995980Y-147691504D01*
X173995980Y-148453409D01*
X174091219Y-148643885D01*
X174186457Y-148739123D01*
X174376933Y-148834361D01*
X174757885Y-148834361D01*
X174948361Y-148739123D01*
X175043600Y-148643885D01*
X175138838Y-148453409D01*
X175138838Y-147977219D01*
X175043600Y-147786742D01*
X174948361Y-147691504D01*
X174757885Y-147596266D01*
X174376933Y-147596266D01*
X174186457Y-147691504D01*
X174091219Y-147786742D01*
X173995980Y-147977219D01*
X176376933Y-146834361D02*
X176567409Y-146834361D01*
X176757885Y-146929600D01*
X176853123Y-147024838D01*
X176948361Y-147215314D01*
X177043600Y-147596266D01*
X177043600Y-148072457D01*
X176948361Y-148453409D01*
X176853123Y-148643885D01*
X176757885Y-148739123D01*
X176567409Y-148834361D01*
X176376933Y-148834361D01*
X176186457Y-148739123D01*
X176091219Y-148643885D01*
X175995980Y-148453409D01*
X175900742Y-148072457D01*
X175900742Y-147596266D01*
X175995980Y-147215314D01*
X176091219Y-147024838D01*
X176186457Y-146929600D01*
X176376933Y-146834361D01*
X178281695Y-146834361D02*
X178472171Y-146834361D01*
X178662647Y-146929600D01*
X178757885Y-147024838D01*
X178853123Y-147215314D01*
X178948361Y-147596266D01*
X178948361Y-148072457D01*
X178853123Y-148453409D01*
X178757885Y-148643885D01*
X178662647Y-148739123D01*
X178472171Y-148834361D01*
X178281695Y-148834361D01*
X178091219Y-148739123D01*
X177995980Y-148643885D01*
X177900742Y-148453409D01*
X177805504Y-148072457D01*
X177805504Y-147596266D01*
X177900742Y-147215314D01*
X177995980Y-147024838D01*
X178091219Y-146929600D01*
X178281695Y-146834361D01*
X182376933Y-148834361D02*
X181234076Y-148834361D01*
X181805504Y-148834361D02*
X181805504Y-146834361D01*
X181615028Y-147120076D01*
X181424552Y-147310552D01*
X181234076Y-147405790D01*
X184186457Y-146834361D02*
X183234076Y-146834361D01*
X183138838Y-147786742D01*
X183234076Y-147691504D01*
X183424552Y-147596266D01*
X183900742Y-147596266D01*
X184091219Y-147691504D01*
X184186457Y-147786742D01*
X184281695Y-147977219D01*
X184281695Y-148453409D01*
X184186457Y-148643885D01*
X184091219Y-148739123D01*
X183900742Y-148834361D01*
X183424552Y-148834361D01*
X183234076Y-148739123D01*
X183138838Y-148643885D01*
X185138838Y-147501028D02*
X185138838Y-149501028D01*
X185138838Y-147596266D02*
X185329314Y-147501028D01*
X185710266Y-147501028D01*
X185900742Y-147596266D01*
X185995980Y-147691504D01*
X186091219Y-147881980D01*
X186091219Y-148453409D01*
X185995980Y-148643885D01*
X185900742Y-148739123D01*
X185710266Y-148834361D01*
X185329314Y-148834361D01*
X185138838Y-148739123D01*
X186948361Y-148834361D02*
X186948361Y-147501028D01*
X186948361Y-146834361D02*
X186853123Y-146929600D01*
X186948361Y-147024838D01*
X187043600Y-146929600D01*
X186948361Y-146834361D01*
X186948361Y-147024838D01*
X187900742Y-147501028D02*
X187900742Y-148834361D01*
X187900742Y-147691504D02*
X187995980Y-147596266D01*
X188186457Y-147501028D01*
X188472171Y-147501028D01*
X188662647Y-147596266D01*
X188757885Y-147786742D01*
X188757885Y-148834361D01*
X191234076Y-148834361D02*
X191234076Y-146834361D01*
X191995980Y-146834361D01*
X192186457Y-146929600D01*
X192281695Y-147024838D01*
X192376933Y-147215314D01*
X192376933Y-147501028D01*
X192281695Y-147691504D01*
X192186457Y-147786742D01*
X191995980Y-147881980D01*
X191234076Y-147881980D01*
X193234076Y-148834361D02*
X193234076Y-147501028D01*
X193234076Y-147881980D02*
X193329314Y-147691504D01*
X193424552Y-147596266D01*
X193615028Y-147501028D01*
X193805504Y-147501028D01*
X194757885Y-148834361D02*
X194567409Y-148739123D01*
X194472171Y-148643885D01*
X194376933Y-148453409D01*
X194376933Y-147881980D01*
X194472171Y-147691504D01*
X194567409Y-147596266D01*
X194757885Y-147501028D01*
X195043600Y-147501028D01*
X195234076Y-147596266D01*
X195329314Y-147691504D01*
X195424552Y-147881980D01*
X195424552Y-148453409D01*
X195329314Y-148643885D01*
X195234076Y-148739123D01*
X195043600Y-148834361D01*
X194757885Y-148834361D01*
X195995980Y-147501028D02*
X196757885Y-147501028D01*
X196281695Y-146834361D02*
X196281695Y-148548647D01*
X196376933Y-148739123D01*
X196567409Y-148834361D01*
X196757885Y-148834361D01*
X197710266Y-148834361D02*
X197519790Y-148739123D01*
X197424552Y-148643885D01*
X197329314Y-148453409D01*
X197329314Y-147881980D01*
X197424552Y-147691504D01*
X197519790Y-147596266D01*
X197710266Y-147501028D01*
X197995980Y-147501028D01*
X198186457Y-147596266D01*
X198281695Y-147691504D01*
X198376933Y-147881980D01*
X198376933Y-148453409D01*
X198281695Y-148643885D01*
X198186457Y-148739123D01*
X197995980Y-148834361D01*
X197710266Y-148834361D01*
X199234076Y-148834361D02*
X199234076Y-146834361D01*
X199234076Y-147596266D02*
X199424552Y-147501028D01*
X199805504Y-147501028D01*
X199995980Y-147596266D01*
X200091219Y-147691504D01*
X200186457Y-147881980D01*
X200186457Y-148453409D01*
X200091219Y-148643885D01*
X199995980Y-148739123D01*
X199805504Y-148834361D01*
X199424552Y-148834361D01*
X199234076Y-148739123D01*
X201329314Y-148834361D02*
X201138838Y-148739123D01*
X201043599Y-148643885D01*
X200948361Y-148453409D01*
X200948361Y-147881980D01*
X201043599Y-147691504D01*
X201138838Y-147596266D01*
X201329314Y-147501028D01*
X201615028Y-147501028D01*
X201805504Y-147596266D01*
X201900742Y-147691504D01*
X201995980Y-147881980D01*
X201995980Y-148453409D01*
X201900742Y-148643885D01*
X201805504Y-148739123D01*
X201615028Y-148834361D01*
X201329314Y-148834361D01*
X203710266Y-148834361D02*
X203710266Y-147786742D01*
X203615028Y-147596266D01*
X203424552Y-147501028D01*
X203043600Y-147501028D01*
X202853123Y-147596266D01*
X203710266Y-148739123D02*
X203519790Y-148834361D01*
X203043600Y-148834361D01*
X202853123Y-148739123D01*
X202757885Y-148548647D01*
X202757885Y-148358171D01*
X202853123Y-148167695D01*
X203043600Y-148072457D01*
X203519790Y-148072457D01*
X203710266Y-147977219D01*
X204662647Y-148834361D02*
X204662647Y-147501028D01*
X204662647Y-147881980D02*
X204757885Y-147691504D01*
X204853123Y-147596266D01*
X205043599Y-147501028D01*
X205234076Y-147501028D01*
X206757885Y-148834361D02*
X206757885Y-146834361D01*
X206757885Y-148739123D02*
X206567409Y-148834361D01*
X206186457Y-148834361D01*
X205995980Y-148739123D01*
X205900742Y-148643885D01*
X205805504Y-148453409D01*
X205805504Y-147881980D01*
X205900742Y-147691504D01*
X205995980Y-147596266D01*
X206186457Y-147501028D01*
X206567409Y-147501028D01*
X206757885Y-147596266D01*
D10*
%TO.C,R6*%
X124198748Y-113590000D02*
X124721252Y-113590000D01*
X124198748Y-115010000D02*
X124721252Y-115010000D01*
%TO.C,R5*%
X124443748Y-123750000D02*
X124966252Y-123750000D01*
X124443748Y-125170000D02*
X124966252Y-125170000D01*
%TO.C,R4*%
X124198748Y-108510000D02*
X124721252Y-108510000D01*
X124198748Y-109930000D02*
X124721252Y-109930000D01*
%TO.C,R3*%
X124198748Y-111050000D02*
X124721252Y-111050000D01*
X124198748Y-112470000D02*
X124721252Y-112470000D01*
%TO.C,R2*%
X124198748Y-105970000D02*
X124721252Y-105970000D01*
X124198748Y-107390000D02*
X124721252Y-107390000D01*
%TO.C,R1*%
X120612252Y-94690000D02*
X120089748Y-94690000D01*
X120612252Y-93270000D02*
X120089748Y-93270000D01*
%TO.C,JP2*%
X118996000Y-101236500D02*
G75*
G02*
X119696000Y-100536500I700000J0D01*
G01*
X119696000Y-102536500D02*
G75*
G02*
X118996000Y-101836500I0J700000D01*
G01*
X121796000Y-101836500D02*
G75*
G02*
X121096000Y-102536500I-700000J0D01*
G01*
X121096000Y-100536500D02*
G75*
G02*
X121796000Y-101236500I0J-700000D01*
G01*
X118996000Y-101836500D02*
X118996000Y-101236500D01*
X121096000Y-102536500D02*
X119696000Y-102536500D01*
X121796000Y-101236500D02*
X121796000Y-101836500D01*
X119696000Y-100536500D02*
X121096000Y-100536500D01*
%TO.C,JP1*%
X118981000Y-97236000D02*
G75*
G02*
X119681000Y-96536000I700000J0D01*
G01*
X119681000Y-98536000D02*
G75*
G02*
X118981000Y-97836000I0J700000D01*
G01*
X121781000Y-97836000D02*
G75*
G02*
X121081000Y-98536000I-700000J0D01*
G01*
X121081000Y-96536000D02*
G75*
G02*
X121781000Y-97236000I0J-700000D01*
G01*
X118981000Y-97836000D02*
X118981000Y-97236000D01*
X121081000Y-98536000D02*
X119681000Y-98536000D01*
X121781000Y-97236000D02*
X121781000Y-97836000D01*
X119681000Y-96536000D02*
X121081000Y-96536000D01*
D11*
%TO.C,J34*%
X113390500Y-105707000D02*
X115590500Y-105707000D01*
X115590500Y-105707000D02*
X115590500Y-107907000D01*
X115590500Y-107907000D02*
X113390500Y-107907000D01*
X113390500Y-107907000D02*
X113390500Y-105707000D01*
D10*
%TO.C,D1*%
X123451000Y-94940000D02*
X126311000Y-94940000D01*
X126311000Y-94940000D02*
X126311000Y-93020000D01*
X126311000Y-93020000D02*
X123451000Y-93020000D01*
%TO.C,R6*%
D11*
X120737333Y-114752380D02*
X120404000Y-114276190D01*
X120165904Y-114752380D02*
X120165904Y-113752380D01*
X120546857Y-113752380D01*
X120642095Y-113800000D01*
X120689714Y-113847619D01*
X120737333Y-113942857D01*
X120737333Y-114085714D01*
X120689714Y-114180952D01*
X120642095Y-114228571D01*
X120546857Y-114276190D01*
X120165904Y-114276190D01*
X121594476Y-113752380D02*
X121404000Y-113752380D01*
X121308761Y-113800000D01*
X121261142Y-113847619D01*
X121165904Y-113990476D01*
X121118285Y-114180952D01*
X121118285Y-114561904D01*
X121165904Y-114657142D01*
X121213523Y-114704761D01*
X121308761Y-114752380D01*
X121499238Y-114752380D01*
X121594476Y-114704761D01*
X121642095Y-114657142D01*
X121689714Y-114561904D01*
X121689714Y-114323809D01*
X121642095Y-114228571D01*
X121594476Y-114180952D01*
X121499238Y-114133333D01*
X121308761Y-114133333D01*
X121213523Y-114180952D01*
X121165904Y-114228571D01*
X121118285Y-114323809D01*
%TO.C,R5*%
X120737333Y-124912380D02*
X120404000Y-124436190D01*
X120165904Y-124912380D02*
X120165904Y-123912380D01*
X120546857Y-123912380D01*
X120642095Y-123960000D01*
X120689714Y-124007619D01*
X120737333Y-124102857D01*
X120737333Y-124245714D01*
X120689714Y-124340952D01*
X120642095Y-124388571D01*
X120546857Y-124436190D01*
X120165904Y-124436190D01*
X121642095Y-123912380D02*
X121165904Y-123912380D01*
X121118285Y-124388571D01*
X121165904Y-124340952D01*
X121261142Y-124293333D01*
X121499238Y-124293333D01*
X121594476Y-124340952D01*
X121642095Y-124388571D01*
X121689714Y-124483809D01*
X121689714Y-124721904D01*
X121642095Y-124817142D01*
X121594476Y-124864761D01*
X121499238Y-124912380D01*
X121261142Y-124912380D01*
X121165904Y-124864761D01*
X121118285Y-124817142D01*
%TO.C,R4*%
X120737333Y-109672380D02*
X120404000Y-109196190D01*
X120165904Y-109672380D02*
X120165904Y-108672380D01*
X120546857Y-108672380D01*
X120642095Y-108720000D01*
X120689714Y-108767619D01*
X120737333Y-108862857D01*
X120737333Y-109005714D01*
X120689714Y-109100952D01*
X120642095Y-109148571D01*
X120546857Y-109196190D01*
X120165904Y-109196190D01*
X121594476Y-109005714D02*
X121594476Y-109672380D01*
X121356380Y-108624761D02*
X121118285Y-109339047D01*
X121737333Y-109339047D01*
%TO.C,R3*%
X120737333Y-112212380D02*
X120404000Y-111736190D01*
X120165904Y-112212380D02*
X120165904Y-111212380D01*
X120546857Y-111212380D01*
X120642095Y-111260000D01*
X120689714Y-111307619D01*
X120737333Y-111402857D01*
X120737333Y-111545714D01*
X120689714Y-111640952D01*
X120642095Y-111688571D01*
X120546857Y-111736190D01*
X120165904Y-111736190D01*
X121070666Y-111212380D02*
X121689714Y-111212380D01*
X121356380Y-111593333D01*
X121499238Y-111593333D01*
X121594476Y-111640952D01*
X121642095Y-111688571D01*
X121689714Y-111783809D01*
X121689714Y-112021904D01*
X121642095Y-112117142D01*
X121594476Y-112164761D01*
X121499238Y-112212380D01*
X121213523Y-112212380D01*
X121118285Y-112164761D01*
X121070666Y-112117142D01*
%TO.C,R2*%
X120737333Y-107132380D02*
X120404000Y-106656190D01*
X120165904Y-107132380D02*
X120165904Y-106132380D01*
X120546857Y-106132380D01*
X120642095Y-106180000D01*
X120689714Y-106227619D01*
X120737333Y-106322857D01*
X120737333Y-106465714D01*
X120689714Y-106560952D01*
X120642095Y-106608571D01*
X120546857Y-106656190D01*
X120165904Y-106656190D01*
X121118285Y-106227619D02*
X121165904Y-106180000D01*
X121261142Y-106132380D01*
X121499238Y-106132380D01*
X121594476Y-106180000D01*
X121642095Y-106227619D01*
X121689714Y-106322857D01*
X121689714Y-106418095D01*
X121642095Y-106560952D01*
X121070666Y-107132380D01*
X121689714Y-107132380D01*
%TO.C,R1*%
X120229333Y-92654380D02*
X119896000Y-92178190D01*
X119657904Y-92654380D02*
X119657904Y-91654380D01*
X120038857Y-91654380D01*
X120134095Y-91702000D01*
X120181714Y-91749619D01*
X120229333Y-91844857D01*
X120229333Y-91987714D01*
X120181714Y-92082952D01*
X120134095Y-92130571D01*
X120038857Y-92178190D01*
X119657904Y-92178190D01*
X121181714Y-92654380D02*
X120610285Y-92654380D01*
X120896000Y-92654380D02*
X120896000Y-91654380D01*
X120800761Y-91797238D01*
X120705523Y-91892476D01*
X120610285Y-91940095D01*
%TD*%
M02*
