M48
; DRILL file {KiCad (5.1.6)-1} date 08/25/20 07:27:39
; FORMAT={-:-/ absolute / metric / decimal}
; #@! TF.CreationDate,2020-08-25T07:27:39+03:00
; #@! TF.GenerationSoftware,Kicad,Pcbnew,(5.1.6)-1
; #@! TF.FileFunction,Plated,1,2,PTH
FMAT,2
METRIC
T1C0.300
T2C0.650
T3C1.000
T4C2.500
%
G90
G05
T1
X111.76Y-99.06
X111.76Y-102.87
X111.76Y-106.68
X111.76Y-110.49
X111.76Y-130.81
X111.76Y-134.62
X111.76Y-138.43
X111.76Y-142.24
X111.76Y-146.05
X112.827Y-105.156
X112.827Y-106.832
X112.827Y-108.458
X113.378Y-113.022
X113.894Y-120.65
X113.944Y-118.11
X113.995Y-115.57
X113.995Y-116.84
X113.995Y-121.92
X114.046Y-114.3
X114.046Y-123.19
X114.046Y-124.46
X114.097Y-125.73
X114.097Y-127.0
X114.097Y-128.27
X114.097Y-129.54
X114.503Y-105.156
X114.503Y-108.458
X115.316Y-109.728
X115.57Y-91.44
X115.57Y-99.06
X115.57Y-102.87
X115.57Y-134.62
X115.57Y-138.43
X115.57Y-146.05
X116.078Y-115.824
X116.18Y-105.156
X116.18Y-106.832
X116.18Y-108.458
X117.856Y-105.41
X119.38Y-91.44
X119.38Y-109.22
X119.38Y-111.76
X119.38Y-114.3
X119.38Y-138.43
X119.38Y-146.05
X119.38Y-149.86
X119.38Y-152.4
X122.174Y-106.68
X122.174Y-109.22
X122.174Y-111.76
X122.174Y-114.3
X122.174Y-124.46
X123.19Y-91.44
X123.19Y-95.25
X123.19Y-99.06
X123.19Y-102.87
X123.19Y-138.43
X123.19Y-146.05
X123.19Y-149.86
X123.19Y-152.4
X127.0Y-91.44
X127.0Y-93.98
X127.0Y-99.06
X127.0Y-102.87
X127.0Y-138.43
X127.0Y-146.05
X127.0Y-149.86
X127.0Y-152.4
X128.27Y-107.95
X128.27Y-110.49
X128.27Y-113.03
X128.27Y-115.57
X128.27Y-118.11
X128.27Y-120.65
X128.27Y-123.19
X128.27Y-125.73
X128.27Y-128.27
X128.27Y-130.81
X128.27Y-133.35
X130.81Y-91.44
X130.81Y-149.86
X130.81Y-152.4
X134.62Y-91.44
X134.62Y-149.86
X134.62Y-152.4
X138.43Y-91.44
X138.43Y-149.86
X138.43Y-152.4
X142.24Y-91.44
X142.24Y-149.86
X142.24Y-152.4
X146.05Y-91.44
X146.05Y-149.86
X146.05Y-152.4
X149.86Y-91.44
X149.86Y-149.86
X149.86Y-152.4
X153.67Y-91.44
X153.67Y-149.86
X153.67Y-152.4
X157.48Y-91.44
X157.48Y-149.86
X157.48Y-152.4
X161.29Y-91.44
X161.29Y-149.86
X161.29Y-152.4
X165.1Y-91.44
X165.1Y-149.86
X165.1Y-152.4
X168.91Y-91.44
X168.91Y-149.86
X168.91Y-152.4
X172.72Y-91.44
X172.72Y-149.86
X172.72Y-152.4
X176.53Y-91.44
X176.53Y-149.86
X176.53Y-152.4
X180.34Y-91.44
X180.34Y-149.86
X180.34Y-152.4
X184.15Y-91.44
X184.15Y-149.86
X184.15Y-152.4
X187.96Y-91.44
X187.96Y-149.86
X187.96Y-152.4
X191.77Y-91.44
X191.77Y-149.86
X191.77Y-152.4
X195.58Y-91.44
X195.58Y-149.86
X195.58Y-152.4
X199.39Y-91.44
X199.39Y-149.86
X199.39Y-152.4
X203.2Y-91.44
X203.2Y-149.86
X203.2Y-152.4
X207.01Y-91.44
X207.01Y-149.86
X207.01Y-152.4
X210.82Y-91.44
X210.82Y-149.86
X210.82Y-152.4
X214.63Y-91.44
X214.63Y-96.52
X214.63Y-100.33
X214.63Y-104.14
X214.63Y-107.95
X214.63Y-111.76
X214.63Y-115.57
X214.63Y-119.38
X214.63Y-123.19
X214.63Y-127.0
X214.63Y-130.81
X214.63Y-134.62
X214.63Y-138.43
X214.63Y-142.24
X214.63Y-146.05
X214.63Y-149.86
X214.63Y-152.4
X220.98Y-96.52
X220.98Y-100.33
X220.98Y-104.14
X220.98Y-107.95
X220.98Y-111.76
X220.98Y-115.57
X220.98Y-119.38
X220.98Y-123.19
X220.98Y-127.0
X220.98Y-130.81
X220.98Y-134.62
X220.98Y-138.43
X220.98Y-142.24
X220.98Y-146.05
T2
X111.76Y-111.76
X111.76Y-113.03
X111.76Y-114.3
X111.76Y-115.57
X111.76Y-116.84
X111.76Y-118.11
X111.76Y-119.38
X111.76Y-120.65
X111.76Y-121.92
X111.76Y-123.19
X111.76Y-124.46
X111.76Y-125.73
X111.76Y-127.0
X111.76Y-128.27
X111.76Y-129.54
T3
X210.82Y-93.98
X210.82Y-96.52
X210.82Y-99.06
X210.82Y-101.6
X210.82Y-104.14
X210.82Y-106.68
X210.82Y-109.22
X210.82Y-111.76
X210.82Y-114.3
X210.82Y-116.84
X210.82Y-119.38
X210.82Y-121.92
X210.82Y-124.46
X210.82Y-127.0
X210.82Y-129.54
X210.82Y-132.08
X210.82Y-134.62
X210.82Y-137.16
X210.82Y-139.7
X210.82Y-142.24
X210.82Y-144.78
X154.94Y-93.98
X154.94Y-96.52
X154.94Y-99.06
X154.94Y-101.6
X154.94Y-104.14
X154.94Y-106.68
X154.94Y-109.22
X154.94Y-111.76
X154.94Y-114.3
X154.94Y-116.84
X154.94Y-119.38
X154.94Y-121.92
X154.94Y-124.46
X154.94Y-127.0
X154.94Y-129.54
X154.94Y-132.08
X154.94Y-134.62
X154.94Y-137.16
X154.94Y-139.7
X154.94Y-142.24
X154.94Y-144.78
X144.78Y-93.98
X144.78Y-96.52
X144.78Y-99.06
X144.78Y-101.6
X144.78Y-104.14
X144.78Y-106.68
X144.78Y-109.22
X144.78Y-111.76
X144.78Y-114.3
X144.78Y-116.84
X144.78Y-119.38
X144.78Y-121.92
X144.78Y-124.46
X144.78Y-127.0
X144.78Y-129.54
X144.78Y-132.08
X144.78Y-134.62
X144.78Y-137.16
X144.78Y-139.7
X144.78Y-142.24
X144.78Y-144.78
X203.2Y-93.98
X203.2Y-96.52
X203.2Y-99.06
X203.2Y-101.6
X203.2Y-104.14
X203.2Y-106.68
X203.2Y-109.22
X203.2Y-111.76
X203.2Y-114.3
X203.2Y-116.84
X203.2Y-119.38
X203.2Y-121.92
X203.2Y-124.46
X203.2Y-127.0
X203.2Y-129.54
X203.2Y-132.08
X203.2Y-134.62
X203.2Y-137.16
X203.2Y-139.7
X203.2Y-142.24
X203.2Y-144.78
X137.16Y-93.98
X137.16Y-96.52
X137.16Y-99.06
X137.16Y-101.6
X137.16Y-104.14
X137.16Y-106.68
X137.16Y-109.22
X137.16Y-111.76
X137.16Y-114.3
X137.16Y-116.84
X137.16Y-119.38
X137.16Y-121.92
X137.16Y-124.46
X137.16Y-127.0
X137.16Y-129.54
X137.16Y-132.08
X137.16Y-134.62
X137.16Y-137.16
X137.16Y-139.7
X137.16Y-142.24
X137.16Y-144.78
X208.28Y-93.98
X208.28Y-96.52
X208.28Y-99.06
X208.28Y-101.6
X208.28Y-104.14
X208.28Y-106.68
X208.28Y-109.22
X208.28Y-111.76
X208.28Y-114.3
X208.28Y-116.84
X208.28Y-119.38
X208.28Y-121.92
X208.28Y-124.46
X208.28Y-127.0
X208.28Y-129.54
X208.28Y-132.08
X208.28Y-134.62
X208.28Y-137.16
X208.28Y-139.7
X208.28Y-142.24
X208.28Y-144.78
X180.34Y-93.98
X180.34Y-96.52
X180.34Y-99.06
X180.34Y-101.6
X180.34Y-104.14
X180.34Y-106.68
X180.34Y-109.22
X180.34Y-111.76
X180.34Y-114.3
X180.34Y-116.84
X180.34Y-119.38
X180.34Y-121.92
X180.34Y-124.46
X180.34Y-127.0
X180.34Y-129.54
X180.34Y-132.08
X180.34Y-134.62
X180.34Y-137.16
X180.34Y-139.7
X180.34Y-142.24
X180.34Y-144.78
X187.96Y-93.98
X187.96Y-96.52
X187.96Y-99.06
X187.96Y-101.6
X187.96Y-104.14
X187.96Y-106.68
X187.96Y-109.22
X187.96Y-111.76
X187.96Y-114.3
X187.96Y-116.84
X187.96Y-119.38
X187.96Y-121.92
X187.96Y-124.46
X187.96Y-127.0
X187.96Y-129.54
X187.96Y-132.08
X187.96Y-134.62
X187.96Y-137.16
X187.96Y-139.7
X187.96Y-142.24
X187.96Y-144.78
X200.66Y-93.98
X200.66Y-96.52
X200.66Y-99.06
X200.66Y-101.6
X200.66Y-104.14
X200.66Y-106.68
X200.66Y-109.22
X200.66Y-111.76
X200.66Y-114.3
X200.66Y-116.84
X200.66Y-119.38
X200.66Y-121.92
X200.66Y-124.46
X200.66Y-127.0
X200.66Y-129.54
X200.66Y-132.08
X200.66Y-134.62
X200.66Y-137.16
X200.66Y-139.7
X200.66Y-142.24
X200.66Y-144.78
X198.12Y-93.98
X198.12Y-96.52
X198.12Y-99.06
X198.12Y-101.6
X198.12Y-104.14
X198.12Y-106.68
X198.12Y-109.22
X198.12Y-111.76
X198.12Y-114.3
X198.12Y-116.84
X198.12Y-119.38
X198.12Y-121.92
X198.12Y-124.46
X198.12Y-127.0
X198.12Y-129.54
X198.12Y-132.08
X198.12Y-134.62
X198.12Y-137.16
X198.12Y-139.7
X198.12Y-142.24
X198.12Y-144.78
X152.4Y-93.98
X152.4Y-96.52
X152.4Y-99.06
X152.4Y-101.6
X152.4Y-104.14
X152.4Y-106.68
X152.4Y-109.22
X152.4Y-111.76
X152.4Y-114.3
X152.4Y-116.84
X152.4Y-119.38
X152.4Y-121.92
X152.4Y-124.46
X152.4Y-127.0
X152.4Y-129.54
X152.4Y-132.08
X152.4Y-134.62
X152.4Y-137.16
X152.4Y-139.7
X152.4Y-142.24
X152.4Y-144.78
X157.48Y-93.98
X157.48Y-96.52
X157.48Y-99.06
X157.48Y-101.6
X157.48Y-104.14
X157.48Y-106.68
X157.48Y-109.22
X157.48Y-111.76
X157.48Y-114.3
X157.48Y-116.84
X157.48Y-119.38
X157.48Y-121.92
X157.48Y-124.46
X157.48Y-127.0
X157.48Y-129.54
X157.48Y-132.08
X157.48Y-134.62
X157.48Y-137.16
X157.48Y-139.7
X157.48Y-142.24
X157.48Y-144.78
X185.42Y-93.98
X185.42Y-96.52
X185.42Y-99.06
X185.42Y-101.6
X185.42Y-104.14
X185.42Y-106.68
X185.42Y-109.22
X185.42Y-111.76
X185.42Y-114.3
X185.42Y-116.84
X185.42Y-119.38
X185.42Y-121.92
X185.42Y-124.46
X185.42Y-127.0
X185.42Y-129.54
X185.42Y-132.08
X185.42Y-134.62
X185.42Y-137.16
X185.42Y-139.7
X185.42Y-142.24
X185.42Y-144.78
X142.24Y-93.98
X142.24Y-96.52
X142.24Y-99.06
X142.24Y-101.6
X142.24Y-104.14
X142.24Y-106.68
X142.24Y-109.22
X142.24Y-111.76
X142.24Y-114.3
X142.24Y-116.84
X142.24Y-119.38
X142.24Y-121.92
X142.24Y-124.46
X142.24Y-127.0
X142.24Y-129.54
X142.24Y-132.08
X142.24Y-134.62
X142.24Y-137.16
X142.24Y-139.7
X142.24Y-142.24
X142.24Y-144.78
X172.72Y-93.98
X172.72Y-96.52
X172.72Y-99.06
X172.72Y-101.6
X172.72Y-104.14
X172.72Y-106.68
X172.72Y-109.22
X172.72Y-111.76
X172.72Y-114.3
X172.72Y-116.84
X172.72Y-119.38
X172.72Y-121.92
X172.72Y-124.46
X172.72Y-127.0
X172.72Y-129.54
X172.72Y-132.08
X172.72Y-134.62
X172.72Y-137.16
X172.72Y-139.7
X172.72Y-142.24
X172.72Y-144.78
X193.04Y-93.98
X193.04Y-96.52
X193.04Y-99.06
X193.04Y-101.6
X193.04Y-104.14
X193.04Y-106.68
X193.04Y-109.22
X193.04Y-111.76
X193.04Y-114.3
X193.04Y-116.84
X193.04Y-119.38
X193.04Y-121.92
X193.04Y-124.46
X193.04Y-127.0
X193.04Y-129.54
X193.04Y-132.08
X193.04Y-134.62
X193.04Y-137.16
X193.04Y-139.7
X193.04Y-142.24
X193.04Y-144.78
X167.64Y-93.98
X167.64Y-96.52
X167.64Y-99.06
X167.64Y-101.6
X167.64Y-104.14
X167.64Y-106.68
X167.64Y-109.22
X167.64Y-111.76
X167.64Y-114.3
X167.64Y-116.84
X167.64Y-119.38
X167.64Y-121.92
X167.64Y-124.46
X167.64Y-127.0
X167.64Y-129.54
X167.64Y-132.08
X167.64Y-134.62
X167.64Y-137.16
X167.64Y-139.7
X167.64Y-142.24
X167.64Y-144.78
X147.32Y-93.98
X147.32Y-96.52
X147.32Y-99.06
X147.32Y-101.6
X147.32Y-104.14
X147.32Y-106.68
X147.32Y-109.22
X147.32Y-111.76
X147.32Y-114.3
X147.32Y-116.84
X147.32Y-119.38
X147.32Y-121.92
X147.32Y-124.46
X147.32Y-127.0
X147.32Y-129.54
X147.32Y-132.08
X147.32Y-134.62
X147.32Y-137.16
X147.32Y-139.7
X147.32Y-142.24
X147.32Y-144.78
X182.88Y-93.98
X182.88Y-96.52
X182.88Y-99.06
X182.88Y-101.6
X182.88Y-104.14
X182.88Y-106.68
X182.88Y-109.22
X182.88Y-111.76
X182.88Y-114.3
X182.88Y-116.84
X182.88Y-119.38
X182.88Y-121.92
X182.88Y-124.46
X182.88Y-127.0
X182.88Y-129.54
X182.88Y-132.08
X182.88Y-134.62
X182.88Y-137.16
X182.88Y-139.7
X182.88Y-142.24
X182.88Y-144.78
X149.86Y-93.98
X149.86Y-96.52
X149.86Y-99.06
X149.86Y-101.6
X149.86Y-104.14
X149.86Y-106.68
X149.86Y-109.22
X149.86Y-111.76
X149.86Y-114.3
X149.86Y-116.84
X149.86Y-119.38
X149.86Y-121.92
X149.86Y-124.46
X149.86Y-127.0
X149.86Y-129.54
X149.86Y-132.08
X149.86Y-134.62
X149.86Y-137.16
X149.86Y-139.7
X149.86Y-142.24
X149.86Y-144.78
X195.58Y-93.98
X195.58Y-96.52
X195.58Y-99.06
X195.58Y-101.6
X195.58Y-104.14
X195.58Y-106.68
X195.58Y-109.22
X195.58Y-111.76
X195.58Y-114.3
X195.58Y-116.84
X195.58Y-119.38
X195.58Y-121.92
X195.58Y-124.46
X195.58Y-127.0
X195.58Y-129.54
X195.58Y-132.08
X195.58Y-134.62
X195.58Y-137.16
X195.58Y-139.7
X195.58Y-142.24
X195.58Y-144.78
X177.8Y-93.98
X177.8Y-96.52
X177.8Y-99.06
X177.8Y-101.6
X177.8Y-104.14
X177.8Y-106.68
X177.8Y-109.22
X177.8Y-111.76
X177.8Y-114.3
X177.8Y-116.84
X177.8Y-119.38
X177.8Y-121.92
X177.8Y-124.46
X177.8Y-127.0
X177.8Y-129.54
X177.8Y-132.08
X177.8Y-134.62
X177.8Y-137.16
X177.8Y-139.7
X177.8Y-142.24
X177.8Y-144.78
X139.7Y-93.98
X139.7Y-96.52
X139.7Y-99.06
X139.7Y-101.6
X139.7Y-104.14
X139.7Y-106.68
X139.7Y-109.22
X139.7Y-111.76
X139.7Y-114.3
X139.7Y-116.84
X139.7Y-119.38
X139.7Y-121.92
X139.7Y-124.46
X139.7Y-127.0
X139.7Y-129.54
X139.7Y-132.08
X139.7Y-134.62
X139.7Y-137.16
X139.7Y-139.7
X139.7Y-142.24
X139.7Y-144.78
X175.26Y-93.98
X175.26Y-96.52
X175.26Y-99.06
X175.26Y-101.6
X175.26Y-104.14
X175.26Y-106.68
X175.26Y-109.22
X175.26Y-111.76
X175.26Y-114.3
X175.26Y-116.84
X175.26Y-119.38
X175.26Y-121.92
X175.26Y-124.46
X175.26Y-127.0
X175.26Y-129.54
X175.26Y-132.08
X175.26Y-134.62
X175.26Y-137.16
X175.26Y-139.7
X175.26Y-142.24
X175.26Y-144.78
X190.5Y-93.98
X190.5Y-96.52
X190.5Y-99.06
X190.5Y-101.6
X190.5Y-104.14
X190.5Y-106.68
X190.5Y-109.22
X190.5Y-111.76
X190.5Y-114.3
X190.5Y-116.84
X190.5Y-119.38
X190.5Y-121.92
X190.5Y-124.46
X190.5Y-127.0
X190.5Y-129.54
X190.5Y-132.08
X190.5Y-134.62
X190.5Y-137.16
X190.5Y-139.7
X190.5Y-142.24
X190.5Y-144.78
X160.02Y-93.98
X160.02Y-96.52
X160.02Y-99.06
X160.02Y-101.6
X160.02Y-104.14
X160.02Y-106.68
X160.02Y-109.22
X160.02Y-111.76
X160.02Y-114.3
X160.02Y-116.84
X160.02Y-119.38
X160.02Y-121.92
X160.02Y-124.46
X160.02Y-127.0
X160.02Y-129.54
X160.02Y-132.08
X160.02Y-134.62
X160.02Y-137.16
X160.02Y-139.7
X160.02Y-142.24
X160.02Y-144.78
X162.56Y-93.98
X162.56Y-96.52
X162.56Y-99.06
X162.56Y-101.6
X162.56Y-104.14
X162.56Y-106.68
X162.56Y-109.22
X162.56Y-111.76
X162.56Y-114.3
X162.56Y-116.84
X162.56Y-119.38
X162.56Y-121.92
X162.56Y-124.46
X162.56Y-127.0
X162.56Y-129.54
X162.56Y-132.08
X162.56Y-134.62
X162.56Y-137.16
X162.56Y-139.7
X162.56Y-142.24
X162.56Y-144.78
X165.1Y-93.98
X165.1Y-96.52
X165.1Y-99.06
X165.1Y-101.6
X165.1Y-104.14
X165.1Y-106.68
X165.1Y-109.22
X165.1Y-111.76
X165.1Y-114.3
X165.1Y-116.84
X165.1Y-119.38
X165.1Y-121.92
X165.1Y-124.46
X165.1Y-127.0
X165.1Y-129.54
X165.1Y-132.08
X165.1Y-134.62
X165.1Y-137.16
X165.1Y-139.7
X165.1Y-142.24
X165.1Y-144.78
X134.62Y-93.98
X134.62Y-96.52
X134.62Y-99.06
X134.62Y-101.6
X134.62Y-104.14
X134.62Y-106.68
X134.62Y-109.22
X134.62Y-111.76
X134.62Y-114.3
X134.62Y-116.84
X134.62Y-119.38
X134.62Y-121.92
X134.62Y-124.46
X134.62Y-127.0
X134.62Y-129.54
X134.62Y-132.08
X134.62Y-134.62
X134.62Y-137.16
X134.62Y-139.7
X134.62Y-142.24
X134.62Y-144.78
X170.18Y-93.98
X170.18Y-96.52
X170.18Y-99.06
X170.18Y-101.6
X170.18Y-104.14
X170.18Y-106.68
X170.18Y-109.22
X170.18Y-111.76
X170.18Y-114.3
X170.18Y-116.84
X170.18Y-119.38
X170.18Y-121.92
X170.18Y-124.46
X170.18Y-127.0
X170.18Y-129.54
X170.18Y-132.08
X170.18Y-134.62
X170.18Y-137.16
X170.18Y-139.7
X170.18Y-142.24
X170.18Y-144.78
X205.74Y-93.98
X205.74Y-96.52
X205.74Y-99.06
X205.74Y-101.6
X205.74Y-104.14
X205.74Y-106.68
X205.74Y-109.22
X205.74Y-111.76
X205.74Y-114.3
X205.74Y-116.84
X205.74Y-119.38
X205.74Y-121.92
X205.74Y-124.46
X205.74Y-127.0
X205.74Y-129.54
X205.74Y-132.08
X205.74Y-134.62
X205.74Y-137.16
X205.74Y-139.7
X205.74Y-142.24
X205.74Y-144.78
X132.08Y-93.98
X132.08Y-96.52
X132.08Y-99.06
X132.08Y-101.6
X132.08Y-104.14
X132.08Y-106.68
X132.08Y-109.22
X132.08Y-111.76
X132.08Y-114.3
X132.08Y-116.84
X132.08Y-119.38
X132.08Y-121.92
X132.08Y-124.46
X132.08Y-127.0
X132.08Y-129.54
X132.08Y-132.08
X132.08Y-134.62
X132.08Y-137.16
X132.08Y-139.7
X132.08Y-142.24
X132.08Y-144.78
T4
X113.792Y-93.98
X218.44Y-149.945
X218.44Y-93.98
X113.792Y-149.86
T0
M30
