G04 #@! TF.GenerationSoftware,KiCad,Pcbnew,(5.1.5)-3*
G04 #@! TF.CreationDate,2020-01-25T20:30:53+03:00*
G04 #@! TF.ProjectId,Casio PB-1000 Debug Unit,43617369-6f20-4504-922d-313030302044,rev?*
G04 #@! TF.SameCoordinates,Original*
G04 #@! TF.FileFunction,Soldermask,Top*
G04 #@! TF.FilePolarity,Negative*
%FSLAX46Y46*%
G04 Gerber Fmt 4.6, Leading zero omitted, Abs format (unit mm)*
G04 Created by KiCad (PCBNEW (5.1.5)-3) date 2020-01-25 20:30:53*
%MOMM*%
%LPD*%
G04 APERTURE LIST*
%ADD10C,0.010000*%
%ADD11C,0.100000*%
G04 APERTURE END LIST*
D10*
G36*
X157402194Y-121853534D02*
G01*
X156882353Y-123186958D01*
X154154796Y-122278685D01*
X154550538Y-121289006D01*
X154552005Y-121288153D01*
X157402194Y-121853534D01*
G37*
X157402194Y-121853534D02*
X156882353Y-123186958D01*
X154154796Y-122278685D01*
X154550538Y-121289006D01*
X154552005Y-121288153D01*
X157402194Y-121853534D01*
D11*
G36*
X141240000Y-92980000D02*
G01*
X143240000Y-92980000D01*
X143240000Y-94980000D01*
X141240000Y-94980000D01*
X141240000Y-94880000D01*
X141240000Y-92980000D01*
G37*
X141240000Y-92980000D02*
X143240000Y-92980000D01*
X143240000Y-94980000D01*
X141240000Y-94980000D01*
X141240000Y-94880000D01*
X141240000Y-92980000D01*
G36*
X136160000Y-92980000D02*
G01*
X138160000Y-92980000D01*
X138160000Y-94980000D01*
X136160000Y-94980000D01*
X136160000Y-94880000D01*
X136160000Y-92980000D01*
G37*
X136160000Y-92980000D02*
X138160000Y-92980000D01*
X138160000Y-94980000D01*
X136160000Y-94980000D01*
X136160000Y-94880000D01*
X136160000Y-92980000D01*
G36*
X160921000Y-140601000D02*
G01*
X159119000Y-140601000D01*
X159119000Y-138799000D01*
X160921000Y-138799000D01*
X160921000Y-140601000D01*
G37*
G36*
X157593512Y-138803927D02*
G01*
X157742812Y-138833624D01*
X157906784Y-138901544D01*
X158054354Y-139000147D01*
X158179853Y-139125646D01*
X158278456Y-139273216D01*
X158346376Y-139437188D01*
X158381000Y-139611259D01*
X158381000Y-139788741D01*
X158346376Y-139962812D01*
X158278456Y-140126784D01*
X158179853Y-140274354D01*
X158054354Y-140399853D01*
X157906784Y-140498456D01*
X157742812Y-140566376D01*
X157593512Y-140596073D01*
X157568742Y-140601000D01*
X157391258Y-140601000D01*
X157366488Y-140596073D01*
X157217188Y-140566376D01*
X157053216Y-140498456D01*
X156905646Y-140399853D01*
X156780147Y-140274354D01*
X156681544Y-140126784D01*
X156613624Y-139962812D01*
X156579000Y-139788741D01*
X156579000Y-139611259D01*
X156613624Y-139437188D01*
X156681544Y-139273216D01*
X156780147Y-139125646D01*
X156905646Y-139000147D01*
X157053216Y-138901544D01*
X157217188Y-138833624D01*
X157366488Y-138803927D01*
X157391258Y-138799000D01*
X157568742Y-138799000D01*
X157593512Y-138803927D01*
G37*
G36*
X145681000Y-140601000D02*
G01*
X143879000Y-140601000D01*
X143879000Y-138799000D01*
X145681000Y-138799000D01*
X145681000Y-140601000D01*
G37*
G36*
X142353512Y-138803927D02*
G01*
X142502812Y-138833624D01*
X142666784Y-138901544D01*
X142814354Y-139000147D01*
X142939853Y-139125646D01*
X143038456Y-139273216D01*
X143106376Y-139437188D01*
X143141000Y-139611259D01*
X143141000Y-139788741D01*
X143106376Y-139962812D01*
X143038456Y-140126784D01*
X142939853Y-140274354D01*
X142814354Y-140399853D01*
X142666784Y-140498456D01*
X142502812Y-140566376D01*
X142353512Y-140596073D01*
X142328742Y-140601000D01*
X142151258Y-140601000D01*
X142126488Y-140596073D01*
X141977188Y-140566376D01*
X141813216Y-140498456D01*
X141665646Y-140399853D01*
X141540147Y-140274354D01*
X141441544Y-140126784D01*
X141373624Y-139962812D01*
X141339000Y-139788741D01*
X141339000Y-139611259D01*
X141373624Y-139437188D01*
X141441544Y-139273216D01*
X141540147Y-139125646D01*
X141665646Y-139000147D01*
X141813216Y-138901544D01*
X141977188Y-138833624D01*
X142126488Y-138803927D01*
X142151258Y-138799000D01*
X142328742Y-138799000D01*
X142353512Y-138803927D01*
G37*
G36*
X139813512Y-138803927D02*
G01*
X139962812Y-138833624D01*
X140126784Y-138901544D01*
X140274354Y-139000147D01*
X140399853Y-139125646D01*
X140498456Y-139273216D01*
X140566376Y-139437188D01*
X140601000Y-139611259D01*
X140601000Y-139788741D01*
X140566376Y-139962812D01*
X140498456Y-140126784D01*
X140399853Y-140274354D01*
X140274354Y-140399853D01*
X140126784Y-140498456D01*
X139962812Y-140566376D01*
X139813512Y-140596073D01*
X139788742Y-140601000D01*
X139611258Y-140601000D01*
X139586488Y-140596073D01*
X139437188Y-140566376D01*
X139273216Y-140498456D01*
X139125646Y-140399853D01*
X139000147Y-140274354D01*
X138901544Y-140126784D01*
X138833624Y-139962812D01*
X138799000Y-139788741D01*
X138799000Y-139611259D01*
X138833624Y-139437188D01*
X138901544Y-139273216D01*
X139000147Y-139125646D01*
X139125646Y-139000147D01*
X139273216Y-138901544D01*
X139437188Y-138833624D01*
X139586488Y-138803927D01*
X139611258Y-138799000D01*
X139788742Y-138799000D01*
X139813512Y-138803927D01*
G37*
G36*
X155053512Y-138803927D02*
G01*
X155202812Y-138833624D01*
X155366784Y-138901544D01*
X155514354Y-139000147D01*
X155639853Y-139125646D01*
X155738456Y-139273216D01*
X155806376Y-139437188D01*
X155841000Y-139611259D01*
X155841000Y-139788741D01*
X155806376Y-139962812D01*
X155738456Y-140126784D01*
X155639853Y-140274354D01*
X155514354Y-140399853D01*
X155366784Y-140498456D01*
X155202812Y-140566376D01*
X155053512Y-140596073D01*
X155028742Y-140601000D01*
X154851258Y-140601000D01*
X154826488Y-140596073D01*
X154677188Y-140566376D01*
X154513216Y-140498456D01*
X154365646Y-140399853D01*
X154240147Y-140274354D01*
X154141544Y-140126784D01*
X154073624Y-139962812D01*
X154039000Y-139788741D01*
X154039000Y-139611259D01*
X154073624Y-139437188D01*
X154141544Y-139273216D01*
X154240147Y-139125646D01*
X154365646Y-139000147D01*
X154513216Y-138901544D01*
X154677188Y-138833624D01*
X154826488Y-138803927D01*
X154851258Y-138799000D01*
X155028742Y-138799000D01*
X155053512Y-138803927D01*
G37*
G36*
X152513512Y-138803927D02*
G01*
X152662812Y-138833624D01*
X152826784Y-138901544D01*
X152974354Y-139000147D01*
X153099853Y-139125646D01*
X153198456Y-139273216D01*
X153266376Y-139437188D01*
X153301000Y-139611259D01*
X153301000Y-139788741D01*
X153266376Y-139962812D01*
X153198456Y-140126784D01*
X153099853Y-140274354D01*
X152974354Y-140399853D01*
X152826784Y-140498456D01*
X152662812Y-140566376D01*
X152513512Y-140596073D01*
X152488742Y-140601000D01*
X152311258Y-140601000D01*
X152286488Y-140596073D01*
X152137188Y-140566376D01*
X151973216Y-140498456D01*
X151825646Y-140399853D01*
X151700147Y-140274354D01*
X151601544Y-140126784D01*
X151533624Y-139962812D01*
X151499000Y-139788741D01*
X151499000Y-139611259D01*
X151533624Y-139437188D01*
X151601544Y-139273216D01*
X151700147Y-139125646D01*
X151825646Y-139000147D01*
X151973216Y-138901544D01*
X152137188Y-138833624D01*
X152286488Y-138803927D01*
X152311258Y-138799000D01*
X152488742Y-138799000D01*
X152513512Y-138803927D01*
G37*
G36*
X137273512Y-138803927D02*
G01*
X137422812Y-138833624D01*
X137586784Y-138901544D01*
X137734354Y-139000147D01*
X137859853Y-139125646D01*
X137958456Y-139273216D01*
X138026376Y-139437188D01*
X138061000Y-139611259D01*
X138061000Y-139788741D01*
X138026376Y-139962812D01*
X137958456Y-140126784D01*
X137859853Y-140274354D01*
X137734354Y-140399853D01*
X137586784Y-140498456D01*
X137422812Y-140566376D01*
X137273512Y-140596073D01*
X137248742Y-140601000D01*
X137071258Y-140601000D01*
X137046488Y-140596073D01*
X136897188Y-140566376D01*
X136733216Y-140498456D01*
X136585646Y-140399853D01*
X136460147Y-140274354D01*
X136361544Y-140126784D01*
X136293624Y-139962812D01*
X136259000Y-139788741D01*
X136259000Y-139611259D01*
X136293624Y-139437188D01*
X136361544Y-139273216D01*
X136460147Y-139125646D01*
X136585646Y-139000147D01*
X136733216Y-138901544D01*
X136897188Y-138833624D01*
X137046488Y-138803927D01*
X137071258Y-138799000D01*
X137248742Y-138799000D01*
X137273512Y-138803927D01*
G37*
G36*
X152513512Y-136263927D02*
G01*
X152662812Y-136293624D01*
X152826784Y-136361544D01*
X152974354Y-136460147D01*
X153099853Y-136585646D01*
X153198456Y-136733216D01*
X153266376Y-136897188D01*
X153301000Y-137071259D01*
X153301000Y-137248741D01*
X153266376Y-137422812D01*
X153198456Y-137586784D01*
X153099853Y-137734354D01*
X152974354Y-137859853D01*
X152826784Y-137958456D01*
X152662812Y-138026376D01*
X152513512Y-138056073D01*
X152488742Y-138061000D01*
X152311258Y-138061000D01*
X152286488Y-138056073D01*
X152137188Y-138026376D01*
X151973216Y-137958456D01*
X151825646Y-137859853D01*
X151700147Y-137734354D01*
X151601544Y-137586784D01*
X151533624Y-137422812D01*
X151499000Y-137248741D01*
X151499000Y-137071259D01*
X151533624Y-136897188D01*
X151601544Y-136733216D01*
X151700147Y-136585646D01*
X151825646Y-136460147D01*
X151973216Y-136361544D01*
X152137188Y-136293624D01*
X152286488Y-136263927D01*
X152311258Y-136259000D01*
X152488742Y-136259000D01*
X152513512Y-136263927D01*
G37*
G36*
X160921000Y-138061000D02*
G01*
X159119000Y-138061000D01*
X159119000Y-136259000D01*
X160921000Y-136259000D01*
X160921000Y-138061000D01*
G37*
G36*
X157593512Y-136263927D02*
G01*
X157742812Y-136293624D01*
X157906784Y-136361544D01*
X158054354Y-136460147D01*
X158179853Y-136585646D01*
X158278456Y-136733216D01*
X158346376Y-136897188D01*
X158381000Y-137071259D01*
X158381000Y-137248741D01*
X158346376Y-137422812D01*
X158278456Y-137586784D01*
X158179853Y-137734354D01*
X158054354Y-137859853D01*
X157906784Y-137958456D01*
X157742812Y-138026376D01*
X157593512Y-138056073D01*
X157568742Y-138061000D01*
X157391258Y-138061000D01*
X157366488Y-138056073D01*
X157217188Y-138026376D01*
X157053216Y-137958456D01*
X156905646Y-137859853D01*
X156780147Y-137734354D01*
X156681544Y-137586784D01*
X156613624Y-137422812D01*
X156579000Y-137248741D01*
X156579000Y-137071259D01*
X156613624Y-136897188D01*
X156681544Y-136733216D01*
X156780147Y-136585646D01*
X156905646Y-136460147D01*
X157053216Y-136361544D01*
X157217188Y-136293624D01*
X157366488Y-136263927D01*
X157391258Y-136259000D01*
X157568742Y-136259000D01*
X157593512Y-136263927D01*
G37*
G36*
X137273512Y-136263927D02*
G01*
X137422812Y-136293624D01*
X137586784Y-136361544D01*
X137734354Y-136460147D01*
X137859853Y-136585646D01*
X137958456Y-136733216D01*
X138026376Y-136897188D01*
X138061000Y-137071259D01*
X138061000Y-137248741D01*
X138026376Y-137422812D01*
X137958456Y-137586784D01*
X137859853Y-137734354D01*
X137734354Y-137859853D01*
X137586784Y-137958456D01*
X137422812Y-138026376D01*
X137273512Y-138056073D01*
X137248742Y-138061000D01*
X137071258Y-138061000D01*
X137046488Y-138056073D01*
X136897188Y-138026376D01*
X136733216Y-137958456D01*
X136585646Y-137859853D01*
X136460147Y-137734354D01*
X136361544Y-137586784D01*
X136293624Y-137422812D01*
X136259000Y-137248741D01*
X136259000Y-137071259D01*
X136293624Y-136897188D01*
X136361544Y-136733216D01*
X136460147Y-136585646D01*
X136585646Y-136460147D01*
X136733216Y-136361544D01*
X136897188Y-136293624D01*
X137046488Y-136263927D01*
X137071258Y-136259000D01*
X137248742Y-136259000D01*
X137273512Y-136263927D01*
G37*
G36*
X139813512Y-136263927D02*
G01*
X139962812Y-136293624D01*
X140126784Y-136361544D01*
X140274354Y-136460147D01*
X140399853Y-136585646D01*
X140498456Y-136733216D01*
X140566376Y-136897188D01*
X140601000Y-137071259D01*
X140601000Y-137248741D01*
X140566376Y-137422812D01*
X140498456Y-137586784D01*
X140399853Y-137734354D01*
X140274354Y-137859853D01*
X140126784Y-137958456D01*
X139962812Y-138026376D01*
X139813512Y-138056073D01*
X139788742Y-138061000D01*
X139611258Y-138061000D01*
X139586488Y-138056073D01*
X139437188Y-138026376D01*
X139273216Y-137958456D01*
X139125646Y-137859853D01*
X139000147Y-137734354D01*
X138901544Y-137586784D01*
X138833624Y-137422812D01*
X138799000Y-137248741D01*
X138799000Y-137071259D01*
X138833624Y-136897188D01*
X138901544Y-136733216D01*
X139000147Y-136585646D01*
X139125646Y-136460147D01*
X139273216Y-136361544D01*
X139437188Y-136293624D01*
X139586488Y-136263927D01*
X139611258Y-136259000D01*
X139788742Y-136259000D01*
X139813512Y-136263927D01*
G37*
G36*
X142353512Y-136263927D02*
G01*
X142502812Y-136293624D01*
X142666784Y-136361544D01*
X142814354Y-136460147D01*
X142939853Y-136585646D01*
X143038456Y-136733216D01*
X143106376Y-136897188D01*
X143141000Y-137071259D01*
X143141000Y-137248741D01*
X143106376Y-137422812D01*
X143038456Y-137586784D01*
X142939853Y-137734354D01*
X142814354Y-137859853D01*
X142666784Y-137958456D01*
X142502812Y-138026376D01*
X142353512Y-138056073D01*
X142328742Y-138061000D01*
X142151258Y-138061000D01*
X142126488Y-138056073D01*
X141977188Y-138026376D01*
X141813216Y-137958456D01*
X141665646Y-137859853D01*
X141540147Y-137734354D01*
X141441544Y-137586784D01*
X141373624Y-137422812D01*
X141339000Y-137248741D01*
X141339000Y-137071259D01*
X141373624Y-136897188D01*
X141441544Y-136733216D01*
X141540147Y-136585646D01*
X141665646Y-136460147D01*
X141813216Y-136361544D01*
X141977188Y-136293624D01*
X142126488Y-136263927D01*
X142151258Y-136259000D01*
X142328742Y-136259000D01*
X142353512Y-136263927D01*
G37*
G36*
X145681000Y-138061000D02*
G01*
X143879000Y-138061000D01*
X143879000Y-136259000D01*
X145681000Y-136259000D01*
X145681000Y-138061000D01*
G37*
G36*
X155053512Y-136263927D02*
G01*
X155202812Y-136293624D01*
X155366784Y-136361544D01*
X155514354Y-136460147D01*
X155639853Y-136585646D01*
X155738456Y-136733216D01*
X155806376Y-136897188D01*
X155841000Y-137071259D01*
X155841000Y-137248741D01*
X155806376Y-137422812D01*
X155738456Y-137586784D01*
X155639853Y-137734354D01*
X155514354Y-137859853D01*
X155366784Y-137958456D01*
X155202812Y-138026376D01*
X155053512Y-138056073D01*
X155028742Y-138061000D01*
X154851258Y-138061000D01*
X154826488Y-138056073D01*
X154677188Y-138026376D01*
X154513216Y-137958456D01*
X154365646Y-137859853D01*
X154240147Y-137734354D01*
X154141544Y-137586784D01*
X154073624Y-137422812D01*
X154039000Y-137248741D01*
X154039000Y-137071259D01*
X154073624Y-136897188D01*
X154141544Y-136733216D01*
X154240147Y-136585646D01*
X154365646Y-136460147D01*
X154513216Y-136361544D01*
X154677188Y-136293624D01*
X154826488Y-136263927D01*
X154851258Y-136259000D01*
X155028742Y-136259000D01*
X155053512Y-136263927D01*
G37*
G36*
X170293512Y-128643927D02*
G01*
X170442812Y-128673624D01*
X170606784Y-128741544D01*
X170754354Y-128840147D01*
X170879853Y-128965646D01*
X170978456Y-129113216D01*
X171046376Y-129277188D01*
X171081000Y-129451259D01*
X171081000Y-129628741D01*
X171046376Y-129802812D01*
X170978456Y-129966784D01*
X170879853Y-130114354D01*
X170754354Y-130239853D01*
X170606784Y-130338456D01*
X170442812Y-130406376D01*
X170293512Y-130436073D01*
X170268742Y-130441000D01*
X170091258Y-130441000D01*
X170066488Y-130436073D01*
X169917188Y-130406376D01*
X169753216Y-130338456D01*
X169605646Y-130239853D01*
X169480147Y-130114354D01*
X169381544Y-129966784D01*
X169313624Y-129802812D01*
X169279000Y-129628741D01*
X169279000Y-129451259D01*
X169313624Y-129277188D01*
X169381544Y-129113216D01*
X169480147Y-128965646D01*
X169605646Y-128840147D01*
X169753216Y-128741544D01*
X169917188Y-128673624D01*
X170066488Y-128643927D01*
X170091258Y-128639000D01*
X170268742Y-128639000D01*
X170293512Y-128643927D01*
G37*
G36*
X167753512Y-128643927D02*
G01*
X167902812Y-128673624D01*
X168066784Y-128741544D01*
X168214354Y-128840147D01*
X168339853Y-128965646D01*
X168438456Y-129113216D01*
X168506376Y-129277188D01*
X168541000Y-129451259D01*
X168541000Y-129628741D01*
X168506376Y-129802812D01*
X168438456Y-129966784D01*
X168339853Y-130114354D01*
X168214354Y-130239853D01*
X168066784Y-130338456D01*
X167902812Y-130406376D01*
X167753512Y-130436073D01*
X167728742Y-130441000D01*
X167551258Y-130441000D01*
X167526488Y-130436073D01*
X167377188Y-130406376D01*
X167213216Y-130338456D01*
X167065646Y-130239853D01*
X166940147Y-130114354D01*
X166841544Y-129966784D01*
X166773624Y-129802812D01*
X166739000Y-129628741D01*
X166739000Y-129451259D01*
X166773624Y-129277188D01*
X166841544Y-129113216D01*
X166940147Y-128965646D01*
X167065646Y-128840147D01*
X167213216Y-128741544D01*
X167377188Y-128673624D01*
X167526488Y-128643927D01*
X167551258Y-128639000D01*
X167728742Y-128639000D01*
X167753512Y-128643927D01*
G37*
G36*
X130861000Y-129891000D02*
G01*
X128219000Y-129891000D01*
X128219000Y-129189000D01*
X130861000Y-129189000D01*
X130861000Y-129891000D01*
G37*
G36*
X130861000Y-128621000D02*
G01*
X128219000Y-128621000D01*
X128219000Y-127919000D01*
X130861000Y-127919000D01*
X130861000Y-128621000D01*
G37*
G36*
X170293512Y-126103927D02*
G01*
X170442812Y-126133624D01*
X170606784Y-126201544D01*
X170754354Y-126300147D01*
X170879853Y-126425646D01*
X170978456Y-126573216D01*
X171046376Y-126737188D01*
X171081000Y-126911259D01*
X171081000Y-127088741D01*
X171046376Y-127262812D01*
X170978456Y-127426784D01*
X170879853Y-127574354D01*
X170754354Y-127699853D01*
X170606784Y-127798456D01*
X170442812Y-127866376D01*
X170293512Y-127896073D01*
X170268742Y-127901000D01*
X170091258Y-127901000D01*
X170066488Y-127896073D01*
X169917188Y-127866376D01*
X169753216Y-127798456D01*
X169605646Y-127699853D01*
X169480147Y-127574354D01*
X169381544Y-127426784D01*
X169313624Y-127262812D01*
X169279000Y-127088741D01*
X169279000Y-126911259D01*
X169313624Y-126737188D01*
X169381544Y-126573216D01*
X169480147Y-126425646D01*
X169605646Y-126300147D01*
X169753216Y-126201544D01*
X169917188Y-126133624D01*
X170066488Y-126103927D01*
X170091258Y-126099000D01*
X170268742Y-126099000D01*
X170293512Y-126103927D01*
G37*
G36*
X167753512Y-126103927D02*
G01*
X167902812Y-126133624D01*
X168066784Y-126201544D01*
X168214354Y-126300147D01*
X168339853Y-126425646D01*
X168438456Y-126573216D01*
X168506376Y-126737188D01*
X168541000Y-126911259D01*
X168541000Y-127088741D01*
X168506376Y-127262812D01*
X168438456Y-127426784D01*
X168339853Y-127574354D01*
X168214354Y-127699853D01*
X168066784Y-127798456D01*
X167902812Y-127866376D01*
X167753512Y-127896073D01*
X167728742Y-127901000D01*
X167551258Y-127901000D01*
X167526488Y-127896073D01*
X167377188Y-127866376D01*
X167213216Y-127798456D01*
X167065646Y-127699853D01*
X166940147Y-127574354D01*
X166841544Y-127426784D01*
X166773624Y-127262812D01*
X166739000Y-127088741D01*
X166739000Y-126911259D01*
X166773624Y-126737188D01*
X166841544Y-126573216D01*
X166940147Y-126425646D01*
X167065646Y-126300147D01*
X167213216Y-126201544D01*
X167377188Y-126133624D01*
X167526488Y-126103927D01*
X167551258Y-126099000D01*
X167728742Y-126099000D01*
X167753512Y-126103927D01*
G37*
G36*
X130861000Y-127351000D02*
G01*
X128219000Y-127351000D01*
X128219000Y-126649000D01*
X130861000Y-126649000D01*
X130861000Y-127351000D01*
G37*
G36*
X130861000Y-126081000D02*
G01*
X128219000Y-126081000D01*
X128219000Y-125379000D01*
X130861000Y-125379000D01*
X130861000Y-126081000D01*
G37*
G36*
X167753512Y-123563927D02*
G01*
X167902812Y-123593624D01*
X168066784Y-123661544D01*
X168214354Y-123760147D01*
X168339853Y-123885646D01*
X168438456Y-124033216D01*
X168506376Y-124197188D01*
X168541000Y-124371259D01*
X168541000Y-124548741D01*
X168506376Y-124722812D01*
X168438456Y-124886784D01*
X168339853Y-125034354D01*
X168214354Y-125159853D01*
X168066784Y-125258456D01*
X167902812Y-125326376D01*
X167753512Y-125356073D01*
X167728742Y-125361000D01*
X167551258Y-125361000D01*
X167526488Y-125356073D01*
X167377188Y-125326376D01*
X167213216Y-125258456D01*
X167065646Y-125159853D01*
X166940147Y-125034354D01*
X166841544Y-124886784D01*
X166773624Y-124722812D01*
X166739000Y-124548741D01*
X166739000Y-124371259D01*
X166773624Y-124197188D01*
X166841544Y-124033216D01*
X166940147Y-123885646D01*
X167065646Y-123760147D01*
X167213216Y-123661544D01*
X167377188Y-123593624D01*
X167526488Y-123563927D01*
X167551258Y-123559000D01*
X167728742Y-123559000D01*
X167753512Y-123563927D01*
G37*
G36*
X170293512Y-123563927D02*
G01*
X170442812Y-123593624D01*
X170606784Y-123661544D01*
X170754354Y-123760147D01*
X170879853Y-123885646D01*
X170978456Y-124033216D01*
X171046376Y-124197188D01*
X171081000Y-124371259D01*
X171081000Y-124548741D01*
X171046376Y-124722812D01*
X170978456Y-124886784D01*
X170879853Y-125034354D01*
X170754354Y-125159853D01*
X170606784Y-125258456D01*
X170442812Y-125326376D01*
X170293512Y-125356073D01*
X170268742Y-125361000D01*
X170091258Y-125361000D01*
X170066488Y-125356073D01*
X169917188Y-125326376D01*
X169753216Y-125258456D01*
X169605646Y-125159853D01*
X169480147Y-125034354D01*
X169381544Y-124886784D01*
X169313624Y-124722812D01*
X169279000Y-124548741D01*
X169279000Y-124371259D01*
X169313624Y-124197188D01*
X169381544Y-124033216D01*
X169480147Y-123885646D01*
X169605646Y-123760147D01*
X169753216Y-123661544D01*
X169917188Y-123593624D01*
X170066488Y-123563927D01*
X170091258Y-123559000D01*
X170268742Y-123559000D01*
X170293512Y-123563927D01*
G37*
G36*
X130861000Y-124811000D02*
G01*
X128219000Y-124811000D01*
X128219000Y-124109000D01*
X130861000Y-124109000D01*
X130861000Y-124811000D01*
G37*
G36*
X130861000Y-123541000D02*
G01*
X128219000Y-123541000D01*
X128219000Y-122839000D01*
X130861000Y-122839000D01*
X130861000Y-123541000D01*
G37*
G36*
X171081000Y-122821000D02*
G01*
X169279000Y-122821000D01*
X169279000Y-121019000D01*
X171081000Y-121019000D01*
X171081000Y-122821000D01*
G37*
G36*
X168541000Y-122821000D02*
G01*
X166739000Y-122821000D01*
X166739000Y-121019000D01*
X168541000Y-121019000D01*
X168541000Y-122821000D01*
G37*
G36*
X130861000Y-122271000D02*
G01*
X128219000Y-122271000D01*
X128219000Y-121569000D01*
X130861000Y-121569000D01*
X130861000Y-122271000D01*
G37*
G36*
X130861000Y-121001000D02*
G01*
X128219000Y-121001000D01*
X128219000Y-120299000D01*
X130861000Y-120299000D01*
X130861000Y-121001000D01*
G37*
G36*
X170293512Y-118483927D02*
G01*
X170442812Y-118513624D01*
X170606784Y-118581544D01*
X170754354Y-118680147D01*
X170879853Y-118805646D01*
X170978456Y-118953216D01*
X171046376Y-119117188D01*
X171081000Y-119291259D01*
X171081000Y-119468741D01*
X171046376Y-119642812D01*
X170978456Y-119806784D01*
X170879853Y-119954354D01*
X170754354Y-120079853D01*
X170606784Y-120178456D01*
X170442812Y-120246376D01*
X170293512Y-120276073D01*
X170268742Y-120281000D01*
X170091258Y-120281000D01*
X170066488Y-120276073D01*
X169917188Y-120246376D01*
X169753216Y-120178456D01*
X169605646Y-120079853D01*
X169480147Y-119954354D01*
X169381544Y-119806784D01*
X169313624Y-119642812D01*
X169279000Y-119468741D01*
X169279000Y-119291259D01*
X169313624Y-119117188D01*
X169381544Y-118953216D01*
X169480147Y-118805646D01*
X169605646Y-118680147D01*
X169753216Y-118581544D01*
X169917188Y-118513624D01*
X170066488Y-118483927D01*
X170091258Y-118479000D01*
X170268742Y-118479000D01*
X170293512Y-118483927D01*
G37*
G36*
X167753512Y-118483927D02*
G01*
X167902812Y-118513624D01*
X168066784Y-118581544D01*
X168214354Y-118680147D01*
X168339853Y-118805646D01*
X168438456Y-118953216D01*
X168506376Y-119117188D01*
X168541000Y-119291259D01*
X168541000Y-119468741D01*
X168506376Y-119642812D01*
X168438456Y-119806784D01*
X168339853Y-119954354D01*
X168214354Y-120079853D01*
X168066784Y-120178456D01*
X167902812Y-120246376D01*
X167753512Y-120276073D01*
X167728742Y-120281000D01*
X167551258Y-120281000D01*
X167526488Y-120276073D01*
X167377188Y-120246376D01*
X167213216Y-120178456D01*
X167065646Y-120079853D01*
X166940147Y-119954354D01*
X166841544Y-119806784D01*
X166773624Y-119642812D01*
X166739000Y-119468741D01*
X166739000Y-119291259D01*
X166773624Y-119117188D01*
X166841544Y-118953216D01*
X166940147Y-118805646D01*
X167065646Y-118680147D01*
X167213216Y-118581544D01*
X167377188Y-118513624D01*
X167526488Y-118483927D01*
X167551258Y-118479000D01*
X167728742Y-118479000D01*
X167753512Y-118483927D01*
G37*
G36*
X130861000Y-119731000D02*
G01*
X128219000Y-119731000D01*
X128219000Y-119029000D01*
X130861000Y-119029000D01*
X130861000Y-119731000D01*
G37*
G36*
X130861000Y-118461000D02*
G01*
X128219000Y-118461000D01*
X128219000Y-117759000D01*
X130861000Y-117759000D01*
X130861000Y-118461000D01*
G37*
G36*
X170293512Y-115943927D02*
G01*
X170442812Y-115973624D01*
X170606784Y-116041544D01*
X170754354Y-116140147D01*
X170879853Y-116265646D01*
X170978456Y-116413216D01*
X171046376Y-116577188D01*
X171081000Y-116751259D01*
X171081000Y-116928741D01*
X171046376Y-117102812D01*
X170978456Y-117266784D01*
X170879853Y-117414354D01*
X170754354Y-117539853D01*
X170606784Y-117638456D01*
X170442812Y-117706376D01*
X170293512Y-117736073D01*
X170268742Y-117741000D01*
X170091258Y-117741000D01*
X170066488Y-117736073D01*
X169917188Y-117706376D01*
X169753216Y-117638456D01*
X169605646Y-117539853D01*
X169480147Y-117414354D01*
X169381544Y-117266784D01*
X169313624Y-117102812D01*
X169279000Y-116928741D01*
X169279000Y-116751259D01*
X169313624Y-116577188D01*
X169381544Y-116413216D01*
X169480147Y-116265646D01*
X169605646Y-116140147D01*
X169753216Y-116041544D01*
X169917188Y-115973624D01*
X170066488Y-115943927D01*
X170091258Y-115939000D01*
X170268742Y-115939000D01*
X170293512Y-115943927D01*
G37*
G36*
X167753512Y-115943927D02*
G01*
X167902812Y-115973624D01*
X168066784Y-116041544D01*
X168214354Y-116140147D01*
X168339853Y-116265646D01*
X168438456Y-116413216D01*
X168506376Y-116577188D01*
X168541000Y-116751259D01*
X168541000Y-116928741D01*
X168506376Y-117102812D01*
X168438456Y-117266784D01*
X168339853Y-117414354D01*
X168214354Y-117539853D01*
X168066784Y-117638456D01*
X167902812Y-117706376D01*
X167753512Y-117736073D01*
X167728742Y-117741000D01*
X167551258Y-117741000D01*
X167526488Y-117736073D01*
X167377188Y-117706376D01*
X167213216Y-117638456D01*
X167065646Y-117539853D01*
X166940147Y-117414354D01*
X166841544Y-117266784D01*
X166773624Y-117102812D01*
X166739000Y-116928741D01*
X166739000Y-116751259D01*
X166773624Y-116577188D01*
X166841544Y-116413216D01*
X166940147Y-116265646D01*
X167065646Y-116140147D01*
X167213216Y-116041544D01*
X167377188Y-115973624D01*
X167526488Y-115943927D01*
X167551258Y-115939000D01*
X167728742Y-115939000D01*
X167753512Y-115943927D01*
G37*
G36*
X130861000Y-117191000D02*
G01*
X128219000Y-117191000D01*
X128219000Y-116489000D01*
X130861000Y-116489000D01*
X130861000Y-117191000D01*
G37*
G36*
X130861000Y-115921000D02*
G01*
X128219000Y-115921000D01*
X128219000Y-115219000D01*
X130861000Y-115219000D01*
X130861000Y-115921000D01*
G37*
G36*
X167753512Y-113403927D02*
G01*
X167902812Y-113433624D01*
X168066784Y-113501544D01*
X168214354Y-113600147D01*
X168339853Y-113725646D01*
X168438456Y-113873216D01*
X168506376Y-114037188D01*
X168541000Y-114211259D01*
X168541000Y-114388741D01*
X168506376Y-114562812D01*
X168438456Y-114726784D01*
X168339853Y-114874354D01*
X168214354Y-114999853D01*
X168066784Y-115098456D01*
X167902812Y-115166376D01*
X167753512Y-115196073D01*
X167728742Y-115201000D01*
X167551258Y-115201000D01*
X167526488Y-115196073D01*
X167377188Y-115166376D01*
X167213216Y-115098456D01*
X167065646Y-114999853D01*
X166940147Y-114874354D01*
X166841544Y-114726784D01*
X166773624Y-114562812D01*
X166739000Y-114388741D01*
X166739000Y-114211259D01*
X166773624Y-114037188D01*
X166841544Y-113873216D01*
X166940147Y-113725646D01*
X167065646Y-113600147D01*
X167213216Y-113501544D01*
X167377188Y-113433624D01*
X167526488Y-113403927D01*
X167551258Y-113399000D01*
X167728742Y-113399000D01*
X167753512Y-113403927D01*
G37*
G36*
X170293512Y-113403927D02*
G01*
X170442812Y-113433624D01*
X170606784Y-113501544D01*
X170754354Y-113600147D01*
X170879853Y-113725646D01*
X170978456Y-113873216D01*
X171046376Y-114037188D01*
X171081000Y-114211259D01*
X171081000Y-114388741D01*
X171046376Y-114562812D01*
X170978456Y-114726784D01*
X170879853Y-114874354D01*
X170754354Y-114999853D01*
X170606784Y-115098456D01*
X170442812Y-115166376D01*
X170293512Y-115196073D01*
X170268742Y-115201000D01*
X170091258Y-115201000D01*
X170066488Y-115196073D01*
X169917188Y-115166376D01*
X169753216Y-115098456D01*
X169605646Y-114999853D01*
X169480147Y-114874354D01*
X169381544Y-114726784D01*
X169313624Y-114562812D01*
X169279000Y-114388741D01*
X169279000Y-114211259D01*
X169313624Y-114037188D01*
X169381544Y-113873216D01*
X169480147Y-113725646D01*
X169605646Y-113600147D01*
X169753216Y-113501544D01*
X169917188Y-113433624D01*
X170066488Y-113403927D01*
X170091258Y-113399000D01*
X170268742Y-113399000D01*
X170293512Y-113403927D01*
G37*
G36*
X130861000Y-114651000D02*
G01*
X128219000Y-114651000D01*
X128219000Y-113949000D01*
X130861000Y-113949000D01*
X130861000Y-114651000D01*
G37*
G36*
X130861000Y-113381000D02*
G01*
X128219000Y-113381000D01*
X128219000Y-112679000D01*
X130861000Y-112679000D01*
X130861000Y-113381000D01*
G37*
G36*
X168541000Y-112661000D02*
G01*
X166739000Y-112661000D01*
X166739000Y-110859000D01*
X168541000Y-110859000D01*
X168541000Y-112661000D01*
G37*
G36*
X171081000Y-112661000D02*
G01*
X169279000Y-112661000D01*
X169279000Y-110859000D01*
X171081000Y-110859000D01*
X171081000Y-112661000D01*
G37*
G36*
X130861000Y-112111000D02*
G01*
X128219000Y-112111000D01*
X128219000Y-111409000D01*
X130861000Y-111409000D01*
X130861000Y-112111000D01*
G37*
G36*
X144893512Y-103243927D02*
G01*
X145042812Y-103273624D01*
X145206784Y-103341544D01*
X145354354Y-103440147D01*
X145479853Y-103565646D01*
X145578456Y-103713216D01*
X145646376Y-103877188D01*
X145681000Y-104051259D01*
X145681000Y-104228741D01*
X145646376Y-104402812D01*
X145578456Y-104566784D01*
X145479853Y-104714354D01*
X145354354Y-104839853D01*
X145206784Y-104938456D01*
X145042812Y-105006376D01*
X144893512Y-105036073D01*
X144868742Y-105041000D01*
X144691258Y-105041000D01*
X144666488Y-105036073D01*
X144517188Y-105006376D01*
X144353216Y-104938456D01*
X144205646Y-104839853D01*
X144080147Y-104714354D01*
X143981544Y-104566784D01*
X143913624Y-104402812D01*
X143879000Y-104228741D01*
X143879000Y-104051259D01*
X143913624Y-103877188D01*
X143981544Y-103713216D01*
X144080147Y-103565646D01*
X144205646Y-103440147D01*
X144353216Y-103341544D01*
X144517188Y-103273624D01*
X144666488Y-103243927D01*
X144691258Y-103239000D01*
X144868742Y-103239000D01*
X144893512Y-103243927D01*
G37*
G36*
X142353512Y-103243927D02*
G01*
X142502812Y-103273624D01*
X142666784Y-103341544D01*
X142814354Y-103440147D01*
X142939853Y-103565646D01*
X143038456Y-103713216D01*
X143106376Y-103877188D01*
X143141000Y-104051259D01*
X143141000Y-104228741D01*
X143106376Y-104402812D01*
X143038456Y-104566784D01*
X142939853Y-104714354D01*
X142814354Y-104839853D01*
X142666784Y-104938456D01*
X142502812Y-105006376D01*
X142353512Y-105036073D01*
X142328742Y-105041000D01*
X142151258Y-105041000D01*
X142126488Y-105036073D01*
X141977188Y-105006376D01*
X141813216Y-104938456D01*
X141665646Y-104839853D01*
X141540147Y-104714354D01*
X141441544Y-104566784D01*
X141373624Y-104402812D01*
X141339000Y-104228741D01*
X141339000Y-104051259D01*
X141373624Y-103877188D01*
X141441544Y-103713216D01*
X141540147Y-103565646D01*
X141665646Y-103440147D01*
X141813216Y-103341544D01*
X141977188Y-103273624D01*
X142126488Y-103243927D01*
X142151258Y-103239000D01*
X142328742Y-103239000D01*
X142353512Y-103243927D01*
G37*
G36*
X140601000Y-105041000D02*
G01*
X138799000Y-105041000D01*
X138799000Y-103239000D01*
X140601000Y-103239000D01*
X140601000Y-105041000D01*
G37*
G36*
X147433512Y-103243927D02*
G01*
X147582812Y-103273624D01*
X147746784Y-103341544D01*
X147894354Y-103440147D01*
X148019853Y-103565646D01*
X148118456Y-103713216D01*
X148186376Y-103877188D01*
X148221000Y-104051259D01*
X148221000Y-104228741D01*
X148186376Y-104402812D01*
X148118456Y-104566784D01*
X148019853Y-104714354D01*
X147894354Y-104839853D01*
X147746784Y-104938456D01*
X147582812Y-105006376D01*
X147433512Y-105036073D01*
X147408742Y-105041000D01*
X147231258Y-105041000D01*
X147206488Y-105036073D01*
X147057188Y-105006376D01*
X146893216Y-104938456D01*
X146745646Y-104839853D01*
X146620147Y-104714354D01*
X146521544Y-104566784D01*
X146453624Y-104402812D01*
X146419000Y-104228741D01*
X146419000Y-104051259D01*
X146453624Y-103877188D01*
X146521544Y-103713216D01*
X146620147Y-103565646D01*
X146745646Y-103440147D01*
X146893216Y-103341544D01*
X147057188Y-103273624D01*
X147206488Y-103243927D01*
X147231258Y-103239000D01*
X147408742Y-103239000D01*
X147433512Y-103243927D01*
G37*
G36*
X150761000Y-105041000D02*
G01*
X148959000Y-105041000D01*
X148959000Y-103239000D01*
X150761000Y-103239000D01*
X150761000Y-105041000D01*
G37*
G36*
X152513512Y-103243927D02*
G01*
X152662812Y-103273624D01*
X152826784Y-103341544D01*
X152974354Y-103440147D01*
X153099853Y-103565646D01*
X153198456Y-103713216D01*
X153266376Y-103877188D01*
X153301000Y-104051259D01*
X153301000Y-104228741D01*
X153266376Y-104402812D01*
X153198456Y-104566784D01*
X153099853Y-104714354D01*
X152974354Y-104839853D01*
X152826784Y-104938456D01*
X152662812Y-105006376D01*
X152513512Y-105036073D01*
X152488742Y-105041000D01*
X152311258Y-105041000D01*
X152286488Y-105036073D01*
X152137188Y-105006376D01*
X151973216Y-104938456D01*
X151825646Y-104839853D01*
X151700147Y-104714354D01*
X151601544Y-104566784D01*
X151533624Y-104402812D01*
X151499000Y-104228741D01*
X151499000Y-104051259D01*
X151533624Y-103877188D01*
X151601544Y-103713216D01*
X151700147Y-103565646D01*
X151825646Y-103440147D01*
X151973216Y-103341544D01*
X152137188Y-103273624D01*
X152286488Y-103243927D01*
X152311258Y-103239000D01*
X152488742Y-103239000D01*
X152513512Y-103243927D01*
G37*
G36*
X155053512Y-103243927D02*
G01*
X155202812Y-103273624D01*
X155366784Y-103341544D01*
X155514354Y-103440147D01*
X155639853Y-103565646D01*
X155738456Y-103713216D01*
X155806376Y-103877188D01*
X155841000Y-104051259D01*
X155841000Y-104228741D01*
X155806376Y-104402812D01*
X155738456Y-104566784D01*
X155639853Y-104714354D01*
X155514354Y-104839853D01*
X155366784Y-104938456D01*
X155202812Y-105006376D01*
X155053512Y-105036073D01*
X155028742Y-105041000D01*
X154851258Y-105041000D01*
X154826488Y-105036073D01*
X154677188Y-105006376D01*
X154513216Y-104938456D01*
X154365646Y-104839853D01*
X154240147Y-104714354D01*
X154141544Y-104566784D01*
X154073624Y-104402812D01*
X154039000Y-104228741D01*
X154039000Y-104051259D01*
X154073624Y-103877188D01*
X154141544Y-103713216D01*
X154240147Y-103565646D01*
X154365646Y-103440147D01*
X154513216Y-103341544D01*
X154677188Y-103273624D01*
X154826488Y-103243927D01*
X154851258Y-103239000D01*
X155028742Y-103239000D01*
X155053512Y-103243927D01*
G37*
G36*
X157593512Y-103243927D02*
G01*
X157742812Y-103273624D01*
X157906784Y-103341544D01*
X158054354Y-103440147D01*
X158179853Y-103565646D01*
X158278456Y-103713216D01*
X158346376Y-103877188D01*
X158381000Y-104051259D01*
X158381000Y-104228741D01*
X158346376Y-104402812D01*
X158278456Y-104566784D01*
X158179853Y-104714354D01*
X158054354Y-104839853D01*
X157906784Y-104938456D01*
X157742812Y-105006376D01*
X157593512Y-105036073D01*
X157568742Y-105041000D01*
X157391258Y-105041000D01*
X157366488Y-105036073D01*
X157217188Y-105006376D01*
X157053216Y-104938456D01*
X156905646Y-104839853D01*
X156780147Y-104714354D01*
X156681544Y-104566784D01*
X156613624Y-104402812D01*
X156579000Y-104228741D01*
X156579000Y-104051259D01*
X156613624Y-103877188D01*
X156681544Y-103713216D01*
X156780147Y-103565646D01*
X156905646Y-103440147D01*
X157053216Y-103341544D01*
X157217188Y-103273624D01*
X157366488Y-103243927D01*
X157391258Y-103239000D01*
X157568742Y-103239000D01*
X157593512Y-103243927D01*
G37*
G36*
X152513512Y-100703927D02*
G01*
X152662812Y-100733624D01*
X152826784Y-100801544D01*
X152974354Y-100900147D01*
X153099853Y-101025646D01*
X153198456Y-101173216D01*
X153266376Y-101337188D01*
X153301000Y-101511259D01*
X153301000Y-101688741D01*
X153266376Y-101862812D01*
X153198456Y-102026784D01*
X153099853Y-102174354D01*
X152974354Y-102299853D01*
X152826784Y-102398456D01*
X152662812Y-102466376D01*
X152513512Y-102496073D01*
X152488742Y-102501000D01*
X152311258Y-102501000D01*
X152286488Y-102496073D01*
X152137188Y-102466376D01*
X151973216Y-102398456D01*
X151825646Y-102299853D01*
X151700147Y-102174354D01*
X151601544Y-102026784D01*
X151533624Y-101862812D01*
X151499000Y-101688741D01*
X151499000Y-101511259D01*
X151533624Y-101337188D01*
X151601544Y-101173216D01*
X151700147Y-101025646D01*
X151825646Y-100900147D01*
X151973216Y-100801544D01*
X152137188Y-100733624D01*
X152286488Y-100703927D01*
X152311258Y-100699000D01*
X152488742Y-100699000D01*
X152513512Y-100703927D01*
G37*
G36*
X140601000Y-102501000D02*
G01*
X138799000Y-102501000D01*
X138799000Y-100699000D01*
X140601000Y-100699000D01*
X140601000Y-102501000D01*
G37*
G36*
X155053512Y-100703927D02*
G01*
X155202812Y-100733624D01*
X155366784Y-100801544D01*
X155514354Y-100900147D01*
X155639853Y-101025646D01*
X155738456Y-101173216D01*
X155806376Y-101337188D01*
X155841000Y-101511259D01*
X155841000Y-101688741D01*
X155806376Y-101862812D01*
X155738456Y-102026784D01*
X155639853Y-102174354D01*
X155514354Y-102299853D01*
X155366784Y-102398456D01*
X155202812Y-102466376D01*
X155053512Y-102496073D01*
X155028742Y-102501000D01*
X154851258Y-102501000D01*
X154826488Y-102496073D01*
X154677188Y-102466376D01*
X154513216Y-102398456D01*
X154365646Y-102299853D01*
X154240147Y-102174354D01*
X154141544Y-102026784D01*
X154073624Y-101862812D01*
X154039000Y-101688741D01*
X154039000Y-101511259D01*
X154073624Y-101337188D01*
X154141544Y-101173216D01*
X154240147Y-101025646D01*
X154365646Y-100900147D01*
X154513216Y-100801544D01*
X154677188Y-100733624D01*
X154826488Y-100703927D01*
X154851258Y-100699000D01*
X155028742Y-100699000D01*
X155053512Y-100703927D01*
G37*
G36*
X157593512Y-100703927D02*
G01*
X157742812Y-100733624D01*
X157906784Y-100801544D01*
X158054354Y-100900147D01*
X158179853Y-101025646D01*
X158278456Y-101173216D01*
X158346376Y-101337188D01*
X158381000Y-101511259D01*
X158381000Y-101688741D01*
X158346376Y-101862812D01*
X158278456Y-102026784D01*
X158179853Y-102174354D01*
X158054354Y-102299853D01*
X157906784Y-102398456D01*
X157742812Y-102466376D01*
X157593512Y-102496073D01*
X157568742Y-102501000D01*
X157391258Y-102501000D01*
X157366488Y-102496073D01*
X157217188Y-102466376D01*
X157053216Y-102398456D01*
X156905646Y-102299853D01*
X156780147Y-102174354D01*
X156681544Y-102026784D01*
X156613624Y-101862812D01*
X156579000Y-101688741D01*
X156579000Y-101511259D01*
X156613624Y-101337188D01*
X156681544Y-101173216D01*
X156780147Y-101025646D01*
X156905646Y-100900147D01*
X157053216Y-100801544D01*
X157217188Y-100733624D01*
X157366488Y-100703927D01*
X157391258Y-100699000D01*
X157568742Y-100699000D01*
X157593512Y-100703927D01*
G37*
G36*
X150761000Y-102501000D02*
G01*
X148959000Y-102501000D01*
X148959000Y-100699000D01*
X150761000Y-100699000D01*
X150761000Y-102501000D01*
G37*
G36*
X147433512Y-100703927D02*
G01*
X147582812Y-100733624D01*
X147746784Y-100801544D01*
X147894354Y-100900147D01*
X148019853Y-101025646D01*
X148118456Y-101173216D01*
X148186376Y-101337188D01*
X148221000Y-101511259D01*
X148221000Y-101688741D01*
X148186376Y-101862812D01*
X148118456Y-102026784D01*
X148019853Y-102174354D01*
X147894354Y-102299853D01*
X147746784Y-102398456D01*
X147582812Y-102466376D01*
X147433512Y-102496073D01*
X147408742Y-102501000D01*
X147231258Y-102501000D01*
X147206488Y-102496073D01*
X147057188Y-102466376D01*
X146893216Y-102398456D01*
X146745646Y-102299853D01*
X146620147Y-102174354D01*
X146521544Y-102026784D01*
X146453624Y-101862812D01*
X146419000Y-101688741D01*
X146419000Y-101511259D01*
X146453624Y-101337188D01*
X146521544Y-101173216D01*
X146620147Y-101025646D01*
X146745646Y-100900147D01*
X146893216Y-100801544D01*
X147057188Y-100733624D01*
X147206488Y-100703927D01*
X147231258Y-100699000D01*
X147408742Y-100699000D01*
X147433512Y-100703927D01*
G37*
G36*
X142353512Y-100703927D02*
G01*
X142502812Y-100733624D01*
X142666784Y-100801544D01*
X142814354Y-100900147D01*
X142939853Y-101025646D01*
X143038456Y-101173216D01*
X143106376Y-101337188D01*
X143141000Y-101511259D01*
X143141000Y-101688741D01*
X143106376Y-101862812D01*
X143038456Y-102026784D01*
X142939853Y-102174354D01*
X142814354Y-102299853D01*
X142666784Y-102398456D01*
X142502812Y-102466376D01*
X142353512Y-102496073D01*
X142328742Y-102501000D01*
X142151258Y-102501000D01*
X142126488Y-102496073D01*
X141977188Y-102466376D01*
X141813216Y-102398456D01*
X141665646Y-102299853D01*
X141540147Y-102174354D01*
X141441544Y-102026784D01*
X141373624Y-101862812D01*
X141339000Y-101688741D01*
X141339000Y-101511259D01*
X141373624Y-101337188D01*
X141441544Y-101173216D01*
X141540147Y-101025646D01*
X141665646Y-100900147D01*
X141813216Y-100801544D01*
X141977188Y-100733624D01*
X142126488Y-100703927D01*
X142151258Y-100699000D01*
X142328742Y-100699000D01*
X142353512Y-100703927D01*
G37*
G36*
X144893512Y-100703927D02*
G01*
X145042812Y-100733624D01*
X145206784Y-100801544D01*
X145354354Y-100900147D01*
X145479853Y-101025646D01*
X145578456Y-101173216D01*
X145646376Y-101337188D01*
X145681000Y-101511259D01*
X145681000Y-101688741D01*
X145646376Y-101862812D01*
X145578456Y-102026784D01*
X145479853Y-102174354D01*
X145354354Y-102299853D01*
X145206784Y-102398456D01*
X145042812Y-102466376D01*
X144893512Y-102496073D01*
X144868742Y-102501000D01*
X144691258Y-102501000D01*
X144666488Y-102496073D01*
X144517188Y-102466376D01*
X144353216Y-102398456D01*
X144205646Y-102299853D01*
X144080147Y-102174354D01*
X143981544Y-102026784D01*
X143913624Y-101862812D01*
X143879000Y-101688741D01*
X143879000Y-101511259D01*
X143913624Y-101337188D01*
X143981544Y-101173216D01*
X144080147Y-101025646D01*
X144205646Y-100900147D01*
X144353216Y-100801544D01*
X144517188Y-100733624D01*
X144666488Y-100703927D01*
X144691258Y-100699000D01*
X144868742Y-100699000D01*
X144893512Y-100703927D01*
G37*
M02*
