M48
; DRILL file {KiCad (5.1.5)-3} date 25-Jan-20 20:30:59
; FORMAT={-:-/ absolute / metric / decimal}
; #@! TF.CreationDate,2020-01-25T20:30:59+03:00
; #@! TF.GenerationSoftware,Kicad,Pcbnew,(5.1.5)-3
; #@! TF.FileFunction,Plated,1,2,PTH
FMAT,2
METRIC
T1C0.300
T2C1.000
%
G90
G05
T1
X128.524Y-90.424
X128.524Y-93.98
X128.524Y-97.79
X128.524Y-101.6
X128.524Y-105.41
X128.524Y-110.871
X128.524Y-130.429
X128.524Y-133.223
X128.524Y-136.525
X128.524Y-139.7
X128.524Y-142.748
X131.572Y-90.424
X131.699Y-127.635
X131.826Y-124.841
X131.953Y-126.33
X131.961Y-119.406
X132.08Y-110.49
X132.195Y-117.858
X132.334Y-142.748
X132.461Y-130.937
X132.541Y-119.981
X132.588Y-129.447
X132.673Y-127.553
X132.69Y-118.466
X133.356Y-124.547
X133.439Y-118.318
X133.985Y-125.146
X134.112Y-105.538
X134.112Y-110.528
X134.799Y-128.872
X134.972Y-125.042
X135.128Y-90.424
X135.509Y-92.329
X135.509Y-93.98
X135.509Y-95.631
X135.915Y-121.336
X136.144Y-142.748
X137.16Y-92.329
X137.16Y-95.631
X138.049Y-101.6
X138.418Y-121.503
X138.811Y-92.329
X138.811Y-93.98
X138.811Y-95.631
X139.446Y-121.92
X139.7Y-90.424
X139.954Y-142.748
X140.562Y-125.73
X140.589Y-92.329
X140.589Y-93.98
X140.589Y-95.504
X141.149Y-118.968
X142.24Y-92.329
X142.24Y-95.631
X142.24Y-100.076
X142.545Y-119.568
X143.533Y-121.615
X143.764Y-142.748
X143.891Y-92.329
X143.891Y-93.98
X143.891Y-95.631
X144.272Y-90.424
X144.318Y-118.937
X146.262Y-121.666
X146.304Y-139.7
X146.812Y-90.424
X147.574Y-142.748
X149.86Y-90.424
X150.876Y-139.7
X151.384Y-142.748
X151.906Y-119.38
X152.674Y-115.57
X153.67Y-90.424
X155.194Y-142.748
X155.747Y-116.65
X157.48Y-90.424
X157.551Y-119.002
X159.004Y-142.748
X159.131Y-101.6
X161.29Y-90.424
X161.544Y-139.7
X162.814Y-142.748
X165.1Y-90.424
X165.227Y-101.6
X165.354Y-139.7
X166.116Y-142.748
X168.91Y-90.424
X169.545Y-142.748
X170.18Y-106.553
X170.18Y-110.236
X170.18Y-131.064
X170.18Y-134.874
X172.466Y-90.424
X172.466Y-93.98
X172.466Y-97.79
X172.466Y-101.6
X172.466Y-105.41
X172.466Y-109.22
X172.466Y-113.03
X172.466Y-116.84
X172.466Y-120.65
X172.466Y-124.46
X172.466Y-128.27
X172.466Y-132.08
X172.466Y-135.89
X172.466Y-139.7
X172.466Y-142.748
T2
X170.18Y-111.76
X170.18Y-114.3
X170.18Y-116.84
X170.18Y-119.38
X167.64Y-121.92
X167.64Y-124.46
X167.64Y-127.0
X167.64Y-129.54
X149.86Y-104.14
X152.4Y-104.14
X154.94Y-104.14
X157.48Y-104.14
X139.7Y-101.6
X142.24Y-101.6
X144.78Y-101.6
X147.32Y-101.6
X137.16Y-137.16
X139.7Y-137.16
X142.24Y-137.16
X144.78Y-137.16
X137.16Y-139.7
X139.7Y-139.7
X142.24Y-139.7
X144.78Y-139.7
X139.7Y-104.14
X142.24Y-104.14
X144.78Y-104.14
X147.32Y-104.14
X149.86Y-101.6
X152.4Y-101.6
X154.94Y-101.6
X157.48Y-101.6
X167.64Y-111.76
X167.64Y-114.3
X167.64Y-116.84
X167.64Y-119.38
X170.18Y-121.92
X170.18Y-124.46
X170.18Y-127.0
X170.18Y-129.54
X152.4Y-139.7
X154.94Y-139.7
X157.48Y-139.7
X160.02Y-139.7
X152.4Y-137.16
X154.94Y-137.16
X157.48Y-137.16
X160.02Y-137.16
T0
M30
